DBRep_DrawableShape

CASCADE Topology V1, (c) Matra-Datavision
Locations 29
1
              1               0               0               0 
              0               1               0               0 
              0               0               1               0 
1
              1               0               0               0 
              0               1               0               0 
              0               0               1               0 
1
              1               0               0               0 
              0               1               0               0 
              0               0               1               0 
1
              1               0               0               0 
              0               1               0               0 
              0               0               1               0 
2  2 1 3 -1 4 1 0
2  4 -1 3 1 2 -1 0
1
              1               0               0               0 
              0               1               0               0 
              0               0               1               0 
1
              1               0               0               0 
              0               1               0               0 
              0               0               1               0 
2  7 1 8 -1 2 1 3 -1 4 1 0
2  8 1 7 -1 0
2  7 -1 0
2  1 -1 4 -1 3 1 2 -1 8 1 7 -1 0
2  1 -1 0
1
              1               0               0               0 
              0               1               0               0 
              0               0               1              10 
2  7 1 8 -1 14 1 2 1 3 -1 4 1 0
2  14 -1 8 1 7 -1 0
2  1 -1 4 -1 3 1 2 -1 14 -1 8 1 7 -1 0
2  8 -1 2 1 3 -1 4 1 0
2  4 -1 3 1 2 -1 8 1 0
2  8 -1 14 1 2 1 3 -1 4 1 0
2  4 -1 3 1 2 -1 14 -1 8 1 0
2  2 1 3 -1 0
2  4 -1 0
2  1 -1 4 -1 0
1
             -1               0               0              -0 
              0 2.22044604925031e-16               1             4.5 
              0               1 -2.22044604925031e-16               0 
2  25 1 3 -1 0
2  2 1 25 -1 0
2  3 1 25 -1 0
2  1 -1 4 -1 3 1 25 -1 0
Curve2ds 60
1 0 0 1 0 
1 12.000000000000334 -2.2500000000000528 0 1 
1 0.99999999999999978 0 0 -1 
1 0 0 0 1 
1 3.5 0 0 -1 
1 0 0 0 1 
1 0 -10 1 0 
1 12.000000000000334 -2.2500000000000528 0 1 
2 11.000000000000334 -1.2500000000000531 0 -1 -1 -0 1
1 -4.7123889803846897 0 1 0 
2 11.000000000000334 1.2499999999999472 0 -1 1 0 1
1 -1.5707963267948966 0 1 0 
1 12.000000000000334 -2.2500000000000528 -1 0 
1 0 0 1 0 
1 12.000000000000334 2.2499999999999472 -1 0 
1 0 0 1 0 
2 -10.999999999999964 -1.2500000000000528 0 -1 -1 -0 1
1 0 0 1 0 
2 -11.000000000000703 1.2499999999999472 0 -1 1 0 1
1 -3.1415926535897931 0 1 0 
1 -12.000000000001002 2.2499999999999472 2.9684896516199742e-13 -1 
1 0 0 1 0 
1 1.5707963267948966 0 0 1 
1 0.99999999999999967 0 0 -1 
1 -4.7123889803846897 10 1 0 
2 11.000000000000334 -1.2500000000000531 0 -1 -1 -0 1
1 1.5707963267948966 0 0 1 
1 0.99999999999999967 0 0 -1 
1 -1.5707963267948966 10 1 0 
2 11.000000000000334 1.2499999999999472 0 -1 1 0 1
1 12.000000000000334 -2.2500000000000528 -1 0 
1 0 -10 1 0 
1 12.000000000000334 2.2499999999999472 -1 0 
1 0 -10 1 0 
2 -10.999999999999964 -1.2500000000000528 0 -1 -1 -0 1
1 0 10 1 0 
2 -11.000000000000703 1.2499999999999472 0 -1 1 0 1
1 -3.1415926535897931 10 1 0 
1 -12.000000000001002 2.2499999999999472 2.9684896516199742e-13 -1 
1 0 -10 1 0 
1 23.000000000000298 0 0 -1 
1 0 0 0 1 
2 20.500000000001343 -7.0000000000000009 -1 0 -0 -1 0.69999999999999996
1 0 -4.5000000000000018 1 0 
2 3.5 -7.0000000000000009 -1 0 -0 -1 0.69999999999999996
1 0 -4.5000000000000018 1 0 
1 23.000000000001037 0 0 -1 
1 0 0 0 1 
2 3.5 -7 -1 0 -0 -1 0.70000000000000018
1 0 0 1 0 
2 20.500000000001343 -7 -1 0 -0 -1 0.69999999999999929
1 0 0 1 0 
1 1.5707963267945997 0 0 1 
1 3.5000000000002967 0 0 -1 
1 1.5707963267951934 0 0 1 
1 1.0000000000002962 0 0 -1 
1 0 0 0 -1 
1 6.2831853071795862 0 0 -1 
1 0 0 0 -1 
1 6.2831853071795862 0 0 -1 
Curves 30
1 0 0 0 0 1 0 
1 -2.2204460492503131e-16 0.99999999999999978 0 0 0 1 
1 -2.2204460492503131e-16 3.5 0 0 0 1 
1 0 0 0 0 1 0 
8 4.7123889803846897 6.2831853071795862
2 0.99999999999999978 0.99999999999999978 0 0 0 1 0 -1 0 1 0 -0 1
8 1.5707963267948966 3.1415926535897931
2 0.99999999999999978 3.5 0 -0 -0 -1 0 -1 0 -1 0 0 1
1 0 0 0 1 0 0 
1 0 4.5 0 1 0 0 
8 0 1.5707963267945995
2 23.000000000000298 1 0 0 0 1 0 -1 0 1 0 -0 1
8 3.1415926535897931 4.7123889803849863
2 23.000000000001037 3.5 0 -0 -0 -1 0 -1 0 -1 0 0 1
1 24.000000000001336 4.5 0 -2.9684896516199742e-13 -1 0 
1 0.99999999999999967 -2.2204460492503131e-16 0 0 0 1 
8 4.7123889803846897 6.2831853071795862
2 0.99999999999999978 0.99999999999999978 10 0 0 1 0 -1 0 1 0 -0 1
1 0.99999999999999967 4.5 0 0 0 1 
8 1.5707963267948966 3.1415926535897931
2 0.99999999999999978 3.5 10 -0 -0 -1 0 -1 0 -1 0 0 1
1 0 0 0 1 0 0 
1 0 4.5 0 1 0 0 
8 0 1.5707963267945995
2 23.000000000000298 1 10 0 0 1 0 -1 0 1 0 -0 1
8 3.1415926535897931 4.7123889803849863
2 23.000000000001037 3.5 10 -0 -0 -1 0 -1 0 -1 0 0 1
1 24.000000000001336 4.5 0 -2.9684896516199742e-13 -1 0 
1 23.000000000000298 0 0 0 0 1 
2 20.500000000001343 0 7.0000000000000009 0 1 -2.2204460492503131e-16 -1 0 0 0 2.2204460492503131e-16 1 0.69999999999999996
2 3.5 0 7.0000000000000009 0 1 -2.2204460492503131e-16 -1 0 0 0 2.2204460492503131e-16 1 0.69999999999999996
1 23.000000000001037 4.5 0 0 0 1 
2 -3.5 7 0 0 0 1 1 0 -0 -0 1 0 0.69999999999999996
2 -20.500000000001343 7 0 0 0 1 1 0 -0 -0 1 0 0.69999999999999996
1 24.000000000000298 0.99999999999970302 0 0 0 1 
1 24.000000000001037 3.4999999999997033 0 0 0 1 
1 19.800000000001344 4.5000000000000018 7 0 -1 2.2204460492503131e-16 
1 2.7999999999999998 4.5000000000000018 7 0 -1 2.2204460492503131e-16 
Polygon3D 0
PolygonOnTriangulations 0
Surfaces 12
1 0 0 0 -1 0 0 0 1 0 0 0 -1 
1 12.000000000000334 2.2500000000000528 0 -0 -0 -1 -1 0 0 0 1 -0 
2 0.99999999999999978 0.99999999999999978 0 0 0 1 -1 0 0 0 -1 0 1
2 0.99999999999999978 3.5 0 0 0 1 -1 0 0 -0 1 -0 1
1 12.000000000000334 2.2500000000000528 0 -0 -0 -1 -1 0 0 0 1 -0 
1 0 0 0 0 1 0 1 0 0 0 0 -1 
1 0 4.5 0 0 1 0 1 0 0 0 0 -1 
2 23.000000000000298 1 0 0 0 1 0 -1 0 1 0 -0 1
2 23.000000000001037 3.5 0 0 0 1 -0 1 0 1 0 -0 1
1 24.000000000001336 4.5 0 1 -2.9684896516199742e-13 0 -2.9684896516199742e-13 -1 0 0 -0 -1 
2 20.500000000001343 4.5000000000000018 7 0 1 -2.2204460492503131e-16 -1 0 0 0 2.2204460492503131e-16 1 0.69999999999999996
2 3.5 4.5000000000000018 7 0 1 -2.2204460492503131e-16 -1 0 0 0 2.2204460492503131e-16 1 0.69999999999999996
Triangulations 0

TShapes 81
Ve
1e-07
-2.22044604925031e-16 1 0
0 0

0101101
*
Ve
1e-07
-2.22044604925031e-16 3.5 0
0 0

0101101
*
Ed
 1e-07 1 1 0
1  1 0 1 3.5
2  1 1 10 1 3.5
2  2 2 11 1 3.5
0

0101000
+81 12 -80 12 *
Ve
1e-07
-2.22044604925031e-16 1 10
0 0

0101101
*
Ed
 1e-07 1 1 0
1  2 0 -0 10
2  3 1 5 -0 10
2  4 3 0 -0 10
4 G1 1 5 3 0
0

0101000
+81 13 -78 13 *
Ve
1e-07
-2.22044604925031e-16 3.5 10
0 0

0101101
*
Ed
 1e-07 1 1 0
1  3 0 -0 10
2  5 1 5 -0 10
2  6 4 0 -0 10
4 G1 1 5 4 0
0

0101000
+80 13 -76 13 *
Ed
 1e-07 1 1 0
1  4 0 1 3.5
2  7 1 16 1 3.5
2  8 5 11 1 3.5
0

0101000
+78 17 -76 17 *
Wi

0101100
-79 9 +77 0 -75 0 +74 15 *
Fa
0  1e-07 1 0

0101000
+73 6 *
Ve
1e-07
1 -2.22044604925031e-16 0
0 0

0101101
*
Ed
 1e-07 1 1 0
1  5 0 4.71238898038469 6.28318530717959
2  9 2 18 4.71238898038469 6.28318530717959
2  10 3 0 4.71238898038469 6.28318530717959
0

0101000
+81 13 -71 13 *
Ve
1e-07
1 4.5 0
0 0

0101101
*
Ed
 1e-07 1 1 0
1  6 0 1.5707963267949 3.14159265358979
2  11 2 18 1.5707963267949 3.14159265358979
2  12 4 0 1.5707963267949 3.14159265358979
0

0101000
+80 13 -69 13 *
Ve
1e-07
23.0000000000003 0 0
0 0

0101101
*
Ed
 1e-07 1 1 0
1  7 0 1 23.0000000000003
2  13 2 11 1 23.0000000000003
2  14 6 10 1 23.0000000000003
0

0101000
+71 12 -67 12 *
Ve
1e-07
23.000000000001 4.5 0
0 0

0101101
*
Ed
 1e-07 1 1 0
1  8 0 1 23.000000000001
2  15 2 11 1 23.000000000001
2  16 7 10 1 23.000000000001
0

0101000
+69 12 -65 12 *
Ve
1e-07
24.0000000000003 0.999999999999703 0
0 0

0101101
*
Ed
 1e-07 1 1 0
1  9 0 0 1.5707963267946
2  17 2 18 0 1.5707963267946
2  18 8 0 0 1.5707963267946
0

0101000
+67 13 -63 13 *
Ve
1e-07
24.000000000001 3.4999999999997 0
0 0

0101101
*
Ed
 1e-07 1 1 0
1  10 0 3.14159265358979 4.71238898038499
2  19 2 18 3.14159265358979 4.71238898038499
2  20 9 0 3.14159265358979 4.71238898038499
0

0101000
+65 13 -61 13 *
Ed
 1e-07 1 1 0
1  11 0 1.0000000000003 3.5000000000003
2  21 2 11 1.0000000000003 3.5000000000003
2  22 10 10 1.0000000000003 3.5000000000003
0

0101000
+61 12 -63 12 *
Wi

0101100
+79 9 -70 0 +68 0 -66 9 +64 9 -62 0 +60 0 +59 9 *
Fa
0  1e-07 2 0

0101000
+58 19 *
Ve
1e-07
1 -2.22044604925031e-16 10
0 0

0101101
*
Ed
 1e-07 1 1 0
1  12 0 -0 10
2  23 3 0 -0 10
2  24 6 5 -0 10
4 G1 3 0 6 5
0

0101000
+71 13 -56 13 *
Ed
 1e-07 1 1 0
1  13 0 4.71238898038469 6.28318530717959
2  25 3 0 4.71238898038469 6.28318530717959
2  26 5 20 4.71238898038469 6.28318530717959
0

0101000
+78 13 -56 13 *
Wi

0101100
+70 0 -77 0 +55 0 -54 0 *
Fa
0  1e-07 3 0

0101000
+53 0 *
Ve
1e-07
1 4.5 10
0 0

0101101
*
Ed
 1e-07 1 1 0
1  14 0 -0 10
2  27 4 0 -0 10
2  28 7 5 -0 10
4 G1 4 0 7 5
0

0101000
+69 13 -51 13 *
Ed
 1e-07 1 1 0
1  15 0 1.5707963267949 3.14159265358979
2  29 4 0 1.5707963267949 3.14159265358979
2  30 5 20 1.5707963267949 3.14159265358979
0

0101000
+76 13 -51 13 *
Wi

0101100
+68 0 -75 0 +50 0 -49 0 *
Fa
0  1e-07 4 0

0101000
+48 0 *
Ve
1e-07
23.0000000000003 0 10
0 0

0101101
*
Ed
 1e-07 1 1 0
1  16 0 1 23.0000000000003
2  31 5 11 1 23.0000000000003
2  32 6 16 1 23.0000000000003
0

0101000
+56 17 -46 17 *
Ve
1e-07
23.000000000001 4.5 10
0 0

0101101
*
Ed
 1e-07 1 1 0
1  17 0 1 23.000000000001
2  33 5 11 1 23.000000000001
2  34 7 16 1 23.000000000001
0

0101000
+51 17 -44 17 *
Ve
1e-07
24.0000000000003 0.999999999999703 10
0 0

0101101
*
Ed
 1e-07 1 1 0
1  18 0 0 1.5707963267946
2  35 5 20 0 1.5707963267946
2  36 8 0 0 1.5707963267946
0

0101000
+46 13 -42 13 *
Ve
1e-07
24.000000000001 3.4999999999997 10
0 0

0101101
*
Ed
 1e-07 1 1 0
1  19 0 3.14159265358979 4.71238898038499
2  37 5 20 3.14159265358979 4.71238898038499
2  38 9 0 3.14159265358979 4.71238898038499
0

0101000
+44 13 -40 13 *
Ed
 1e-07 1 1 0
1  20 0 1.0000000000003 3.5000000000003
2  39 5 11 1.0000000000003 3.5000000000003
2  40 10 16 1.0000000000003 3.5000000000003
0

0101000
+40 17 -42 17 *
Wi

0101100
+74 15 -54 0 +49 0 -45 15 +43 15 -41 0 +39 0 +38 15 *
Fa
0  1e-07 5 0

0101000
+37 21 *
Ed
 1e-07 1 1 0
1  21 0 -0 10
2  41 6 5 -0 10
2  42 8 0 -0 10
4 G1 6 5 8 0
0

0101000
+67 13 -46 13 *
Wi

0101100
-66 9 +55 0 -35 0 +45 15 *
Ve
2.00001e-07
19.8000000000013 0 7
0 0

0101101
*
Ed
 1e-07 1 1 0
1  22 0 0 6.28318530717959
2  43 6 22 0 6.28318530717959
2  44 11 0 0 6.28318530717959
0

0101000
+33 24 -33 24 *
Wi

0101100
-32 0 *
Ve
2.00001e-07
2.8 0 7
0 0

0101101
*
Ed
 1e-07 1 1 0
1  23 0 0 6.28318530717959
2  45 6 22 0 6.28318530717959
2  46 12 0 0 6.28318530717959
0

0101000
+30 24 -30 24 *
Wi

0101100
-29 0 *
Fa
0  1e-07 6 22

0101000
+34 23 +31 0 +28 0 *
Ed
 1e-07 1 1 0
1  24 0 -0 10
2  47 7 5 -0 10
2  48 9 0 -0 10
4 G1 7 5 9 0
0

0101000
+65 13 -44 13 *
Wi

0101100
-64 9 +50 0 -26 0 +43 15 *
Ve
1e-07
2.8 4.5 7
0 0

0101101
*
Ed
 1e-07 1 1 0
1  25 0 0 6.28318530717959
2  49 7 27 0 6.28318530717959
2  50 12 28 0 6.28318530717959
0

0101000
+24 29 -24 29 *
Wi

0101100
-23 26 *
Ve
1e-07
19.8000000000013 4.5 7
0 0

0101101
*
Ed
 1e-07 1 1 0
1  26 0 0 6.28318530717959
2  51 7 27 0 6.28318530717959
2  52 11 28 0 6.28318530717959
0

0101000
+21 29 -21 29 *
Wi

0101100
-20 26 *
Fa
0  1e-07 7 22

0101000
+25 23 +22 0 +19 0 *
Ed
 1e-07 1 1 0
1  27 0 0 10
2  53 8 0 0 10
2  54 10 5 0 10
4 G1 8 0 10 5
0

0101000
+63 13 -42 13 *
Wi

0101100
+62 0 -35 0 +17 0 -41 0 *
Fa
0  1e-07 8 0

0101000
+16 0 *
Ed
 1e-07 1 1 0
1  28 0 0 10
2  55 9 0 0 10
2  56 10 5 0 10
4 G1 9 0 10 5
0

0101000
+61 13 -40 13 *
Wi

0101100
+60 0 -26 0 +14 0 -39 0 *
Fa
0  1e-07 9 0

0101000
+13 0 *
Wi

0101100
-59 9 +14 0 -17 0 +38 15 *
Fa
0  1e-07 10 0

0101000
+11 6 *
Ed
 1e-07 1 1 0
1  29 0 0 4.5
3  57 58CN 11 0 0 4.5
0

0101000
+21 24 -33 24 *
Wi

0101100
-20 26 -9 0 +32 0 +9 0 *
Fa
0  1e-07 11 0

0101000
+8 0 *
Ed
 1e-07 1 1 0
1  30 0 0 4.5
3  59 60CN 12 0 0 4.5
0

0101000
+24 24 -30 24 *
Wi

0101100
-23 26 -6 0 +29 0 +6 0 *
Fa
0  1e-07 12 0

0101000
+5 0 *
Sh

0101100
+72 5 +57 18 +52 0 -47 0 -36 20 -27 4 +18 4 +15 0 -12 0 +10 5 
-7 4 -4 4 *
So

0100000
+3 0 *
Co

1100000
+2 0 *

+1 1 