  0
SECTION
  2
HEADER
  9
$ACADVER
  1
AC1009
  9
$INSBASE
 10
0.0
 20
0.0
 30
0.0
  9
$EXTMIN
 10
0.0
 20
0.0
 30
0.0
  9
$EXTMAX
 10
0.0
 20
0.0
 30
0.0
  0
ENDSEC
  0
SECTION
  2
TABLES
  0
TABLE
  2
VPORT
 70
0
  0
ENDTAB
  0
TABLE
  2
LTYPE
 70
1
  0
LTYPE
  2
CONTINUOUS
 70
0
  3
Solid line
 72
65
 73
0
 40
0.0
  0
ENDTAB
  0
TABLE
  2
LAYER
 70
1
  0
LAYER
  2
0
 70
64
 62
7
  6
continuous
  0
ENDTAB
  0
TABLE
  2
STYLE
 70
1
  0
STYLE
  2
STANDARD
 70
0
 40
0
 41
1.0
 50
0.0
 71
0
 42
1
 3
ARIAL.TTF
 4

  0
ENDTAB
  0
TABLE
  2
VIEW
 70
0
  0
ENDTAB
  0
ENDSEC
  0
SECTION
  2
BLOCKS
  0
ENDSEC
  0
SECTION
  2
ENTITIES
  0
POLYLINE
  8
0
 62
0
 70
0
 66
1
 10
0.0
 20
0.0
 30
0.0
  0
VERTEX
  8
0
 10
80.0
 20
35.0
 30
0.0
  0
VERTEX
  8
0
 10
0.0
 20
35.0
 30
0.0
  0
SEQEND
  8
0
  0
POLYLINE
  8
0
 62
0
 70
0
 66
1
 10
0.0
 20
0.0
 30
0.0
  0
VERTEX
  8
0
 10
24.5
 20
31.5
 30
0.0
  0
VERTEX
  8
0
 10
24.5
 20
3.5
 30
0.0
  0
SEQEND
  8
0
  0
POLYLINE
  8
0
 62
0
 70
0
 66
1
 10
0.0
 20
0.0
 30
0.0
  0
VERTEX
  8
0
 10
80.0
 20
35.0
 30
0.0
  0
VERTEX
  8
0
 10
80.0
 20
-1.42108547152e-14
 30
0.0
  0
SEQEND
  8
0
  0
POLYLINE
  8
0
 62
0
 70
0
 66
1
 10
0.0
 20
0.0
 30
0.0
  0
VERTEX
  8
0
 10
80.0
 20
-1.42108547152e-14
 30
0.0
  0
VERTEX
  8
0
 10
-1.42108547152e-14
 20
0.0
 30
0.0
  0
SEQEND
  8
0
  0
ARC
  8
0
 62
0
 10
33.0
 20
28.5
 30
0.0
 40
3.0
 50
90.0
 51
-180.0
  0
ARC
  8
0
 62
0
 10
33.0
 20
6.5
 30
0.0
 40
3.0
 50
-180.0
 51
-90.0
  0
ARC
  8
0
 62
0
 10
73.5
 20
28.5
 30
0.0
 40
3.0
 50
-0.0
 51
90.0
  0
ARC
  8
0
 62
0
 10
73.5
 20
6.5
 30
0.0
 40
3.0
 50
-90.0
 51
-0.0
  0
POLYLINE
  8
0
 62
0
 70
0
 66
1
 10
0.0
 20
0.0
 30
0.0
  0
VERTEX
  8
0
 10
76.5
 20
28.5
 30
0.0
  0
VERTEX
  8
0
 10
76.5
 20
6.5
 30
0.0
  0
SEQEND
  8
0
  0
POLYLINE
  8
0
 62
0
 70
0
 66
1
 10
0.0
 20
0.0
 30
0.0
  0
VERTEX
  8
0
 10
73.5
 20
31.5
 30
0.0
  0
VERTEX
  8
0
 10
33.0
 20
31.5
 30
0.0
  0
SEQEND
  8
0
  0
POLYLINE
  8
0
 62
0
 70
0
 66
1
 10
0.0
 20
0.0
 30
0.0
  0
VERTEX
  8
0
 10
73.5
 20
3.5
 30
0.0
  0
VERTEX
  8
0
 10
33.0
 20
3.5
 30
0.0
  0
SEQEND
  8
0
  0
POLYLINE
  8
0
 62
0
 70
0
 66
1
 10
0.0
 20
0.0
 30
0.0
  0
VERTEX
  8
0
 10
18.0
 20
30.0
 30
0.0
  0
VERTEX
  8
0
 10
8.0
 20
30.0
 30
0.0
  0
SEQEND
  8
0
  0
POLYLINE
  8
0
 62
0
 70
0
 66
1
 10
0.0
 20
0.0
 30
0.0
  0
VERTEX
  8
0
 10
18.0
 20
5.0
 30
0.0
  0
VERTEX
  8
0
 10
8.0
 20
5.0
 30
0.0
  0
SEQEND
  8
0
  0
POLYLINE
  8
0
 62
0
 70
0
 66
1
 10
0.0
 20
0.0
 30
0.0
  0
VERTEX
  8
0
 10
5.0
 20
27.0
 30
0.0
  0
VERTEX
  8
0
 10
5.0
 20
8.0
 30
0.0
  0
SEQEND
  8
0
  0
ARC
  8
0
 62
0
 10
8.0
 20
27.0
 30
0.0
 40
3.0
 50
90.0
 51
-180.0
  0
ARC
  8
0
 62
0
 10
8.0
 20
8.0
 30
0.0
 40
3.0
 50
-180.0
 51
-90.0
  0
CIRCLE
  8
0
 62
0
 10
17.5
 20
17.5
 30
0.0
 40
7.0
  0
CIRCLE
  8
0
 62
0
 10
77.0
 20
3.0
 30
0.0
 40
1.5
  0
CIRCLE
  8
0
 62
0
 10
77.0
 20
32.0
 30
0.0
 40
1.5
  0
CIRCLE
  8
0
 62
0
 10
3.0
 20
32.0
 30
0.0
 40
1.5
  0
CIRCLE
  8
0
 62
0
 10
3.0
 20
3.0
 30
0.0
 40
1.5
  0
CIRCLE
  8
0
 62
0
 10
22.0
 20
3.0
 30
0.0
 40
1.5
  0
CIRCLE
  8
0
 62
0
 10
22.0
 20
32.0
 30
0.0
 40
1.5
  0
POLYLINE
  8
0
 62
0
 70
0
 66
1
 10
0.0
 20
0.0
 30
0.0
  0
VERTEX
  8
0
 10
0.0
 20
35.0
 30
0.0
  0
VERTEX
  8
0
 10
-1.42108547152e-14
 20
0.0
 30
0.0
  0
SEQEND
  8
0
  0
POLYLINE
  8
0
 62
0
 70
0
 66
1
 10
0.0
 20
0.0
 30
0.0
  0
VERTEX
  8
0
 10
29.0
 20
8.0
 30
0.0
  0
VERTEX
  8
0
 10
29.0
 20
3.5
 30
0.0
  0
SEQEND
  8
0
  0
POLYLINE
  8
0
 62
0
 70
0
 66
1
 10
0.0
 20
0.0
 30
0.0
  0
VERTEX
  8
0
 10
23.5
 20
8.0
 30
0.0
  0
VERTEX
  8
0
 10
24.5
 20
8.0
 30
0.0
  0
SEQEND
  8
0
  0
POLYLINE
  8
0
 62
0
 70
0
 66
1
 10
0.0
 20
0.0
 30
0.0
  0
VERTEX
  8
0
 10
29.0
 20
31.5
 30
0.0
  0
VERTEX
  8
0
 10
24.5
 20
31.5
 30
0.0
  0
SEQEND
  8
0
  0
POLYLINE
  8
0
 62
0
 70
0
 66
1
 10
0.0
 20
0.0
 30
0.0
  0
VERTEX
  8
0
 10
29.0
 20
27.0
 30
0.0
  0
VERTEX
  8
0
 10
29.0
 20
31.5
 30
0.0
  0
SEQEND
  8
0
  0
POLYLINE
  8
0
 62
0
 70
0
 66
1
 10
0.0
 20
0.0
 30
0.0
  0
VERTEX
  8
0
 10
29.0
 20
3.5
 30
0.0
  0
VERTEX
  8
0
 10
24.5
 20
3.5
 30
0.0
  0
SEQEND
  8
0
  0
POLYLINE
  8
0
 62
0
 70
0
 66
1
 10
0.0
 20
0.0
 30
0.0
  0
VERTEX
  8
0
 10
23.5
 20
27.0
 30
0.0
  0
VERTEX
  8
0
 10
24.5
 20
27.0
 30
0.0
  0
SEQEND
  8
0
  0
POLYLINE
  8
0
 62
0
 70
0
 66
1
 10
0.0
 20
0.0
 30
0.0
  0
VERTEX
  8
0
 10
29.0
 20
27.0
 30
0.0
  0
VERTEX
  8
0
 10
30.0
 20
27.0
 30
0.0
  0
SEQEND
  8
0
  0
POLYLINE
  8
0
 62
0
 70
0
 66
1
 10
0.0
 20
0.0
 30
0.0
  0
VERTEX
  8
0
 10
30.0
 20
8.0
 30
0.0
  0
VERTEX
  8
0
 10
29.0
 20
8.0
 30
0.0
  0
SEQEND
  8
0
  0
POLYLINE
  8
0
 62
0
 70
0
 66
1
 10
0.0
 20
0.0
 30
0.0
  0
VERTEX
  8
0
 10
30.0
 20
6.5
 30
0.0
  0
VERTEX
  8
0
 10
30.0
 20
8.0
 30
0.0
  0
SEQEND
  8
0
  0
POLYLINE
  8
0
 62
0
 70
0
 66
1
 10
0.0
 20
0.0
 30
0.0
  0
VERTEX
  8
0
 10
30.0
 20
28.5
 30
0.0
  0
VERTEX
  8
0
 10
30.0
 20
27.0
 30
0.0
  0
SEQEND
  8
0
  0
POLYLINE
  8
0
 62
0
 70
0
 66
1
 10
0.0
 20
0.0
 30
0.0
  0
VERTEX
  8
0
 10
30.0
 20
27.0
 30
0.0
  0
VERTEX
  8
0
 10
30.0
 20
8.0
 30
0.0
  0
SEQEND
  8
0
  0
ARC
  8
0
 62
0
 10
18.0383853912
 20
23.524564743
 30
0.0
 40
6.47554902733
 50
-0.0
 51
90.3396366522
  0
ARC
  8
0
 62
0
 10
18.0
 20
11.5
 30
0.0
 40
6.5
 50
-90.0
 51
-0.0
  0
POLYLINE
  8
0
 62
0
 70
0
 66
1
 10
0.0
 20
0.0
 30
0.0
  0
VERTEX
  8
0
 10
29.0
 20
27.0
 30
0.0
  0
VERTEX
  8
0
 10
29.0
 20
8.0
 30
0.0
  0
SEQEND
  8
0
  0
ENDSEC
  0
EOF
