DBRep_DrawableShape

CASCADE Topology V1, (c) Matra-Datavision
Locations 138
1
              1               0               0               0 
              0               1               0               0 
              0               0               1               0 
1
              1               0               0               0 
              0               1               0               0 
              0               0               1               0 
1
              1               0               0              -0 
              0               1               0              -0 
              0               0               1           -13.5 
1
              1               0               0               0 
              0               1               0               0 
              0               0               1              27 
1
              1               0               0               0 
              0               1               0               0 
              0               0               1               0 
1
              1               0               0               0 
              0               1               0               0 
              0               0               1               0 
1
              1               0               0               0 
              0               1               0               0 
              0               0               1               0 
1
              1               0               0               0 
              0               1               0               0 
              0               0               1               0 
1
              1               0               0               0 
              0               1               0               0 
              0               0               1               0 
1
              1               0               0               0 
              0               1               0               0 
              0               0               1               0 
1
              1               0               0               0 
              0               1               0               0 
              0               0               1               0 
1
              1               0               0               0 
              0               1               0               0 
              0               0               1               0 
1
              1               0               0               0 
              0               1               0               0 
              0               0               1               0 
1
              1               0               0               0 
              0               1               0               0 
              0               0               1               0 
1
              1               0               0               0 
              0               1               0               0 
              0               0               1               0 
1
              1               0               0               0 
              0               1               0               0 
              0               0               1               0 
1
              1               0               0               0 
              0               1               0               0 
              0               0               1               0 
1
              1               0               0               0 
              0               1               0               0 
              0               0               1               0 
1
              1               0               0               0 
              0               1               0               0 
              0               0               1               0 
1
              1               0               0               0 
              0               1               0               0 
              0               0               1               0 
2  2 -1 3 1 4 1 5 1 6 -1 7 1 8 -1 9 1 10 -1 11 1 12 -1 13 1 14 1 15 1 16 1 17 1 18 1 19 1 20 -1 0
2  17 1 18 1 19 1 20 -1 0
2  2 -1 3 1 4 1 5 1 6 -1 7 1 8 -1 9 1 10 -1 11 1 12 -1 13 1 14 1 15 1 16 1 0
2  1 -1 20 1 19 -1 18 -1 17 -1 0
1
              1               0               0              -0 
              0               1               0               0 
              0               0               1            13.5 
2  25 1 6 -1 7 1 8 -1 9 1 10 -1 11 1 12 -1 13 1 14 1 15 1 16 1 17 1 18 1 19 1 20 -1 0
2  2 -1 3 1 4 1 5 1 25 -1 0
2  6 1 25 -1 0
2  1 -1 20 1 19 -1 18 -1 17 -1 16 -1 15 -1 14 -1 13 -1 12 1 11 -1 10 1 9 -1 8 1 7 -1 6 1 25 -1 0
2  14 1 15 1 16 1 17 1 18 1 19 1 20 -1 0
2  2 -1 3 1 4 1 5 1 6 -1 7 1 8 -1 9 1 10 -1 11 1 12 -1 13 1 0
2  1 -1 20 1 19 -1 18 -1 17 -1 16 -1 15 -1 14 -1 0
2  1 -1 0
1
              1               0               0               0 
              0               1               0               0 
              0               0               1               0 
2  34 1 2 -1 3 1 4 1 5 1 6 -1 7 1 8 -1 9 1 10 -1 11 1 12 -1 13 1 14 1 15 1 16 1 17 1 18 1 19 1 20 -1 0
2  34 -1 0
2  4 -1 3 -1 2 1 34 -1 0
2  1 -1 20 1 19 -1 18 -1 17 -1 16 -1 15 -1 14 -1 13 -1 12 1 11 -1 10 1 9 -1 8 1 7 -1 6 1 5 -1 4 -1 3 -1 2 1 34 -1 0
2  15 1 16 1 17 1 18 1 19 1 20 -1 0
2  2 -1 3 1 4 1 5 1 6 -1 7 1 8 -1 9 1 10 -1 11 1 12 -1 13 1 14 1 0
2  1 -1 20 1 19 -1 18 -1 17 -1 16 -1 15 -1 0
2  16 1 17 1 18 1 19 1 20 -1 0
2  2 -1 3 1 4 1 5 1 6 -1 7 1 8 -1 9 1 10 -1 11 1 12 -1 13 1 14 1 15 1 0
2  1 -1 20 1 19 -1 18 -1 17 -1 16 -1 0
1
              1               0               0              -0 
              0               1               0               0 
              0               0               1            13.5 
2  45 1 8 -1 9 1 10 -1 11 1 12 -1 13 1 14 1 15 1 16 1 17 1 18 1 19 1 20 -1 0
2  2 -1 3 1 4 1 5 1 6 -1 7 1 45 -1 0
2  8 1 45 -1 0
2  1 -1 20 1 19 -1 18 -1 17 -1 16 -1 15 -1 14 -1 13 -1 12 1 11 -1 10 1 9 -1 8 1 45 -1 0
2  19 1 20 -1 0
2  2 -1 3 1 4 1 5 1 6 -1 7 1 8 -1 9 1 10 -1 11 1 12 -1 13 1 14 1 15 1 16 1 17 1 18 1 0
2  1 -1 20 1 19 -1 0
2  18 1 19 1 20 -1 0
2  2 -1 3 1 4 1 5 1 6 -1 7 1 8 -1 9 1 10 -1 11 1 12 -1 13 1 14 1 15 1 16 1 17 1 0
2  1 -1 20 1 19 -1 18 -1 0
2  7 1 8 -1 9 1 10 -1 11 1 12 -1 13 1 14 1 15 1 16 1 0
1
              1               0               0              -0 
              0               1               0              -0 
              0               0               1           -23.5 
2  6 -1 57 1 7 1 8 -1 9 1 10 -1 11 1 12 -1 13 1 14 1 15 1 16 1 0
2  7 1 8 -1 9 1 10 -1 11 1 12 -1 13 1 14 1 15 1 16 1 17 1 18 1 19 1 20 -1 0
2  16 -1 15 -1 14 -1 13 -1 12 1 11 -1 10 1 9 -1 8 1 7 -1 0
2  25 1 6 -1 7 1 8 -1 9 1 10 -1 11 1 12 -1 13 1 14 1 15 1 16 1 0
2  14 1 15 1 16 1 0
2  7 1 8 -1 9 1 10 -1 11 1 12 -1 13 1 0
2  25 1 6 -1 57 1 7 1 8 -1 9 1 10 -1 11 1 12 -1 13 1 14 1 15 1 16 1 0
2  57 -1 6 1 25 -1 0
2  25 -1 0
2  1 -1 20 1 19 -1 18 -1 17 -1 16 -1 15 -1 14 -1 13 -1 12 1 11 -1 10 1 9 -1 8 1 7 -1 57 -1 6 1 25 -1 0
2  6 -1 57 1 7 1 8 -1 9 1 10 -1 11 1 12 -1 13 1 0
2  25 1 6 -1 57 1 7 1 8 -1 9 1 10 -1 11 1 12 -1 13 1 14 1 15 1 16 1 17 1 18 1 19 1 20 -1 0
2  7 1 8 -1 9 1 10 -1 11 1 12 -1 13 1 14 1 0
1
             -1               0               0              -0 
              0 2.22044604925031e-16               1              40 
              0               1 -2.22044604925031e-16               0 
2  71 1 20 -1 0
2  20 1 71 -1 0
2  5 1 6 -1 7 1 8 -1 9 1 10 -1 11 1 12 -1 13 1 14 1 15 1 16 1 17 1 18 1 19 1 71 -1 0
2  1 -1 20 1 71 -1 0
2  5 1 6 -1 7 1 8 -1 9 1 10 -1 11 1 12 -1 13 1 14 1 15 1 16 1 17 1 18 1 19 1 20 -1 0
2  34 1 2 -1 3 1 5 1 6 -1 7 1 8 -1 9 1 10 -1 11 1 12 -1 13 1 14 1 15 1 16 1 17 1 18 1 19 1 20 -1 0
2  3 -1 2 1 34 -1 0
2  1 -1 20 1 19 -1 18 -1 17 -1 16 -1 15 -1 14 -1 13 -1 12 1 11 -1 10 1 9 -1 8 1 7 -1 6 1 5 -1 3 -1 2 1 34 -1 0
2  1 -1 20 1 19 -1 18 -1 17 -1 16 -1 15 -1 14 -1 13 -1 12 1 11 -1 10 1 9 -1 8 1 7 -1 6 1 5 -1 0
2  34 1 2 -1 3 1 0
2  34 1 2 -1 3 1 4 1 0
2  6 -1 57 1 7 1 8 -1 9 1 10 -1 11 1 12 -1 13 1 14 1 0
2  15 -1 14 -1 13 -1 12 1 11 -1 10 1 9 -1 8 1 7 -1 0
2  25 1 6 -1 7 1 8 -1 9 1 10 -1 11 1 12 -1 13 1 14 1 15 1 0
2  7 1 8 -1 9 1 10 -1 11 1 12 -1 13 1 14 1 15 1 0
2  25 1 6 -1 57 1 7 1 8 -1 9 1 10 -1 11 1 12 -1 13 1 14 1 15 1 0
2  6 -1 57 1 7 1 8 -1 9 1 10 -1 11 1 12 -1 13 1 14 1 15 1 0
2  9 1 10 -1 11 1 12 -1 13 1 14 1 15 1 16 1 17 1 18 1 19 1 20 -1 0
2  9 1 10 -1 11 1 12 -1 13 1 14 1 15 1 16 1 17 1 18 1 0
2  9 1 10 -1 11 1 12 -1 13 1 14 1 15 1 16 1 17 1 0
1
              1               0               0              -0 
              0               1               0              -0 
              0               0               1             -15 
2  45 1 8 -1 92 1 9 1 10 -1 11 1 12 -1 13 1 14 1 15 1 16 1 17 1 18 1 19 1 20 -1 0
2  92 -1 8 1 45 -1 0
2  45 -1 0
2  1 -1 20 1 19 -1 18 -1 17 -1 16 -1 15 -1 14 -1 13 -1 12 1 11 -1 10 1 9 -1 92 -1 8 1 45 -1 0
2  8 -1 92 1 9 1 10 -1 11 1 12 -1 13 1 14 1 15 1 16 1 17 1 18 1 0
2  8 -1 92 1 9 1 10 -1 11 1 12 -1 13 1 14 1 15 1 16 1 17 1 0
2  18 -1 17 -1 16 -1 15 -1 14 -1 13 -1 12 1 11 -1 10 1 9 -1 0
2  45 1 8 -1 9 1 10 -1 11 1 12 -1 13 1 14 1 15 1 16 1 17 1 18 1 0
2  1 -1 20 1 19 -1 18 -1 17 -1 16 -1 15 -1 14 -1 13 -1 12 1 11 -1 10 1 9 -1 0
2  45 1 8 -1 92 1 9 1 10 -1 11 1 12 -1 13 1 14 1 15 1 16 1 17 1 18 1 0
2  17 -1 16 -1 15 -1 14 -1 13 -1 12 1 11 -1 10 1 9 -1 0
2  45 1 8 -1 9 1 10 -1 11 1 12 -1 13 1 14 1 15 1 16 1 17 1 0
2  45 1 8 -1 92 1 9 1 10 -1 11 1 12 -1 13 1 14 1 15 1 16 1 17 1 0
2  45 1 8 -1 0
2  45 1 8 -1 92 1 0
2  12 1 11 -1 10 1 9 -1 92 -1 8 1 45 -1 0
2  6 -1 57 1 7 1 8 -1 9 1 10 -1 11 1 12 -1 13 1 14 1 15 1 16 1 17 1 18 1 19 1 20 -1 0
2  16 -1 15 -1 14 -1 13 -1 12 1 11 -1 10 1 9 -1 8 1 7 -1 57 -1 6 1 0
2  15 1 16 1 0
2  11 1 12 -1 13 1 14 1 15 1 16 1 17 1 18 1 19 1 20 -1 0
2  2 -1 3 1 5 1 6 -1 7 1 8 -1 9 1 10 -1 0
2  34 1 2 -1 3 1 5 1 6 -1 7 1 8 -1 9 1 10 -1 0
1
              1               0               0              -0 
              0              -1               0              -0 
              0               0              -1           -13.5 
2  115 1 10 -1 0
2  2 -1 3 1 5 1 6 -1 7 1 8 -1 9 1 115 -1 0
2  10 1 115 -1 0
2  1 -1 20 1 19 -1 18 -1 17 -1 16 -1 15 -1 14 -1 13 -1 12 1 11 -1 10 1 115 -1 0
2  13 1 14 1 15 1 16 1 17 1 18 1 19 1 20 -1 0
2  8 -1 92 1 9 1 10 -1 11 1 12 -1 0
2  18 -1 17 -1 16 -1 15 -1 14 -1 13 -1 0
2  13 1 14 1 15 1 16 1 17 1 18 1 0
2  1 -1 20 1 19 -1 18 -1 17 -1 16 -1 15 -1 14 -1 13 -1 0
2  45 1 8 -1 92 1 9 1 10 -1 11 1 12 -1 0
2  1 -1 20 1 19 -1 18 -1 17 -1 16 -1 15 -1 14 -1 13 -1 12 1 11 -1 0
1
              1               0               0               0 
              0               1               0               0 
              0               0               1              11 
2  115 1 10 -1 127 1 0
2  127 -1 10 1 115 -1 0
2  115 -1 0
2  1 -1 20 1 19 -1 18 -1 17 -1 16 -1 15 -1 14 -1 13 -1 12 1 11 -1 127 -1 10 1 115 -1 0
1
              1               0               0              -0 
              0              -1               0              -0 
              0               0              -1            -2.5 
2  132 1 12 -1 0
2  12 1 132 -1 0
2  10 -1 127 1 11 1 132 -1 0
2  1 -1 20 1 19 -1 18 -1 17 -1 16 -1 15 -1 14 -1 13 -1 12 1 132 -1 0
2  10 -1 127 1 11 1 12 -1 0
2  115 1 10 -1 127 1 11 1 12 -1 0
Curve2ds 164
2 28.5 -47 0 1 -1 0 3
1 -3.1415926535897931 0 1 0 
1 31.5 -3.5 0 -1 
1 0 0 1 0 
2 28.5 -6.5 0 1 1 -0 3
1 0 0 1 0 
1 3.5 -3.5 1 0 
1 0 0 1 0 
1 21.350000000000001 0 0 -1 
1 0 0 0 -1 
1 0 0 1 0 
1 0 -27 1 0 
1 35 0 0 -1 
1 0 -27 1 0 
1 35 -80 -1 0 
1 0 -27 1 0 
1 0 -80 0 1 
1 0 -27 1 0 
1 0 0 1 0 
1 0 -27 1 0 
1 13.65 0 0 -1 
1 3.9000000000000004 -8.6597395920762218e-16 0 -1 
1 3.5 -3.5 1 0 
1 0 0 1 0 
2 6.5 -6.5 0 1 -1 0 3
1 0 0 1 0 
1 3.5 -50 0 1 
1 0 0 1 0 
2 6.5 -47 0 1 -1 0 3
1 -1.5707963267948966 0 1 0 
1 31.5 -50 -1 -6.3441315692866085e-17 
1 0 0 1 0 
1 29.999999999918 -75 -1 0 
1 0 0 1 0 
2 26.999999999918 -72 0 1 -1 0 3
1 -3.1415926535897931 0 1 0 
2 8.0000000000019824 -72 0 1 -1 0 3
1 -1.5707963267948966 0 1 0 
1 29.999999999918 -75 0 1 
1 0 0 1 0 
1 5.0000000000019824 -75 0 1 
1 0 0 1 0 
2 22.499988019301 -63.000035143291996 1 0 -0 1 7.500011980699
1 0 0 1 0 
2 12.499987660767999 -62.999994546403997 1 0 -0 1 7.4999876607680003
1 0 0 1 0 
1 12.499999999979424 -55.500006885646151 0.99999999999867539 -1.6276946848046325e-06 
1 0 0 1 0 
1 0 0 0 1 
1 3 0 0 -1 
1 1.5707963267948966 0 0 1 
1 43.5 0 0 -1 
1 -3.1415926535897931 23.5 1 0 
2 -11 -20.25 0 1 1 -0 3
1 3 0 0 -1 
1 1.5707963267948966 0 0 1 
1 0 -23.5 1 0 
1 -14 23.25 0 -1 
1 0 0 0 1 
1 25 0 -0 -1 
1 0 23.5 1 0 
2 -11 20.25 0 1 -1 0 3
8 -2.3399999999999999 2.3400000000000003
1 10.15 -1.9499999999999993 -0 -1 
8 -2.3399999999999999 2.3400000000000003
1 1.9500000000000002 -3.5000000000000004 -1 2.2204460492503131e-16 
8 -13.545000000000002 -4.3050000000000015
1 5.0749999999999993 -3.9000000000000004 -1 0 
8 -13.545000000000002 -4.3050000000000015
1 -5.0750000000000011 -3.5 -1 -0 
8 -4.2899999999999991 0.39000000000000085
1 17.850000000000001 0 0 1 
8 -4.2899999999999991 0.39000000000000085
1 7.7715611723760958e-16 -3.5 -1 -2.2204460492503131e-16 
1 0 -23.5 1 0 
1 14 23.25 -1 0 
1 3 0 -0 -1 
1 0 0 0 1 
1 0 0 1 0 
1 21.350000000000001 -27 0 1 
1 3.9000000000000004 8.6597395920762218e-16 0 -1 
1 7.7000000000000002 0 0 -1 
1 0 0 1 0 
1 0 0 1 0 
1 35 0 0 -1 
1 0 0 0 -1 
1 13.65 -23.100000000000001 1 0 
1 0 0 1 0 
1 13.65 -23.100000000000001 0 -1 
1 0 0 1 0 
1 0 0 0 -1 
1 80 0 0 -1 
1 80 0 0 -1 
1 0 -0 0 -1 
1 0 0 1 0 
1 35 0 0 -1 
1 0 -0 1 0 
1 35 -80 -1 0 
1 35 0 0 -1 
1 0 0 0 -1 
1 0 0 1 0 
1 0 -80 0 1 
1 0 0 0 -1 
1 0 0 0 -1 
1 1.5707963267948966 0 0 1 
1 43.5 0 -0 -1 
1 0 23.5 1 0 
2 11 20.25 0 1 1 -0 3
1 3 0 -0 -1 
1 0 0 0 1 
1 0 -23.5 1 0 
1 14 -23.25 0 1 
1 1.5707963267948968 0 0 1 
1 25 0 0 -1 
1 -1.5707963267948966 23.5 1 0 
2 11 -20.25 0 1 1 -0 3
1 -0 -23.5 1 0 
1 -14 -23.25 1 -6.3441315692866085e-17 
1 3 0 0 -1 
1 0 0 0 1 
1 21.999999999916017 0 0 -1 
1 1.5707963267948966 0 0 1 
1 0 -15 1 0 
1 -12.500003993834357 -8.8365272117530935 1 -2.6825476110736978e-64 
1 1.5707963267948966 0 0 1 
1 3 0 -0 -1 
1 -3.1415926535897931 15.000000000000002 1 0 
2 -9.5000039938343566 -5.8365272117530935 0 1 1 -0 3
1 0 0 0 1 
1 3 0 -0 -1 
1 -1.5707963267948966 15.000000000000002 1 0 
2 9.4999960060816608 -5.8365272117530935 0 1 1 -0 3
1 12.00000000005414 0 0 -1 
1 4.6857720000000002e-06 0 0 -1 
1 0 -15 1 0 
1 -12.500003993834357 -8.8365272117530935 0 1 
1 12.000000000008214 0 0 -1 
1 3.1415933807359999 0 0 -1 
1 0 -15 1 0 
1 12.499996006081661 -8.8365272117530935 0 1 
1 0 -15 1 0 
2 -4.9999920132173559 3.1634376449549073 -1 2.6825476110736978e-64 2.6825476110736978e-64 1 7.500011980699
1 1.570794729368 0 0 -1 
1 10.000000000055755 0 0 -1 
1 1.5707946815639999 0 0 -1 
1 0 0 0 -1 
1 0 -15 1 0 
2 5.0000083453156439 3.1634782418429062 -1 2.6825476110736978e-64 2.6825476110736978e-64 1 7.4999876607680003
1 0 -15 1 0 
1 4.9999960061042197 10.663465902600755 -0.99999999999867539 -1.6276946848046325e-06 
1 0 -15 1 0 
1 4.9999960061042197 10.663465902600755 -0.99999999999867539 -1.6276946848046325e-06 
1 0 -15 1 0 
1 4.9999960061042197 10.663465902600755 -0.99999999999867539 -1.6276946848046325e-06 
2 17.5 -62.5 1 0 0 -1 8
1 0 0 1 0 
2 -3.9939163559387778e-06 3.6634727882469065 -1 2.6825476110736978e-64 -2.6825476110736978e-64 -1 7
1 0 -0.99999999999999822 1 0 
2 -3.9939163559387778e-06 3.6634727882469065 -1 2.6825476110736978e-64 -2.6825476110736978e-64 -1 7
1 0 -0.99999999999999822 1 0 
2 -3.9939163559387778e-06 3.6634727882469065 -1 2.6825476110736978e-64 -2.6825476110736978e-64 -1 7
1 0 -0.99999999999999822 1 0 
1 0 0 0 -1 
1 6.2831853071795862 0 0 -1 
1 0 -11 1 0 
2 -6.8372006626971174e-16 3.5527136788005009e-15 -1 0 -0 -1 8
1 0 0 0 -1 
1 6.2831853071795862 0 0 -1 
1 0 0 1 0 
2 -6.8372006626971174e-16 3.5527136788005009e-15 -1 0 -0 -1 7
Curves 82
8 3.1415926535897931 4.7123889803846897
2 11 -7 13.5 0 0 1 0 1 -0 -1 0 0 3
1 14 36.5 0 0 -1 0 
8 0 1.5707963267948966
2 11 33.5 13.5 -0 -0 -1 0 1 -0 1 -0 0 3
1 -14 36.5 0 1 0 0 
1 3.8500000000000001 40 13.5 0 -1 2.2204460492503131e-16 
1 -17.5 40 0 1 0 0 
1 17.5 40 0 0 -1 0 
1 17.5 -40 0 -1 0 0 
1 -17.5 -40 0 0 1 0 
1 -17.5 40 0 1 0 0 
1 -3.8500000000000001 40 13.5 0 -1 2.2204460492503131e-16 
1 -14 36.5 0 1 0 0 
8 0 1.5707963267948966
2 -11 33.5 13.5 0 0 1 0 1 -0 -1 0 0 3
1 -14 -10.000000000000002 0 0 1 0 
8 1.5707963267948966 3.1415926535897931
2 -11 -7.0000000000000018 13.5 0 0 1 0 1 -0 -1 0 0 3
1 14 -10 0 -1 -6.3441315692866085e-17 0 
1 12.499999999918 -35 0 -1 0 0 
8 3.1415926535897931 4.7123889803846897
2 9.4999999999179998 -32 13.5 0 0 1 0 1 -0 -1 0 0 3
8 1.5707963267948966 3.1415926535897931
2 -9.4999999999980176 -32 13.5 0 0 1 0 1 -0 -1 0 0 3
1 12.499999999918 -35 0 0 1 0 
1 -12.499999999998018 -35 0 0 1 0 
2 4.999988019301 -23.000035143291999 0 0 0 1 1 0 -0 -0 1 0 7.500011980699
2 -5.0000123392319997 -22.999994546404 0 0 0 1 1 0 -0 -0 1 0 7.4999876607680003
1 -5.0000000000205755 -15.500006885646151 0 0.99999999999867539 -1.6276946848046325e-06 0 
1 11 -10 13.5 -0 -0 -1 
1 14 -7 13.5 -0 -0 -1 
8 3.1415926535897931 4.7123889803846897
2 11 -7 -10 0 0 1 0 1 -0 -1 0 0 3
1 14 33.5 13.5 -0 -0 -1 
1 14 36.5 0 0 -1 0 
1 11 36.5 13.5 -0 -0 -1 
8 0 1.5707963267948966
2 11 33.5 -10 -0 -0 -1 0 1 -0 1 -0 0 3
1 -3.8499999999999996 36.5 11.550000000000001 -0 -0 -1 
1 -8.9250000000000007 36.5 9.5999999999999996 -1 -0 0 
1 3.8500000000000005 36.5 13.5 -0 0 1 
1 -14 36.5 0 1 0 0 
1 -11 36.5 13.5 -0 -0 -1 
1 -3.8500000000000001 13.5 0 0 -1 0 
1 3.8500000000000001 40 9.5999999999999996 0 -1 2.2204460492503131e-16 
1 -17.5 40 0 1 0 0 
1 17.5 40 -13.5 0 0 1 
1 3.8500000000000001 9.5999999999999996 0 -1 0 0 
1 3.8500000000000001 9.5999999999999996 0 0 1 0 
1 -17.5 40 -13.5 0 0 1 
1 17.5 -40 -13.5 0 0 1 
1 17.5 40 0 0 -1 0 
1 17.5 -40 0 -1 0 0 
1 -17.5 -40 -13.5 0 0 1 
1 -17.5 -40 0 0 1 0 
1 -3.8500000000000001 40 9.5999999999999996 0 -1 2.2204460492503131e-16 
1 -14 33.5 13.5 -0 -0 -1 
8 0 1.5707963267948966
2 -11 33.5 -10 0 0 1 0 1 -0 -1 0 0 3
1 -14 -7.0000000000000018 13.5 -0 -0 -1 
1 -14 -10.000000000000002 0 0 1 0 
1 -11 -10.000000000000002 13.5 -0 -0 -1 
8 1.5707963267948966 3.1415926535897931
2 -11 -7.0000000000000018 -10 0 0 1 0 1 -0 -1 0 0 3
1 14 -10 0 -1 -6.3441315692866085e-17 0 
1 9.4999999999179998 -35 13.5 -0 -0 -1 
1 -9.4999999999980176 -35 13.5 -0 -0 -1 
1 12.499999999918 -35 0 -1 0 0 
1 12.499999999918 -32 13.5 -0 -0 -1 
8 3.1415926535897931 4.7123889803846897
2 9.4999999999179998 -32 -1.5000000000000018 0 0 1 0 1 -0 -1 0 0 3
1 -12.499999999998018 -32 13.5 -0 -0 -1 
8 1.5707963267948966 3.1415926535897931
2 -9.4999999999980176 -32 -1.5000000000000018 0 0 1 0 1 -0 -1 0 0 3
1 12.499999999917831 -22.99999999994586 13.5 -0 -0 -1 
1 12.499999999918 -35 0 0 1 0 
1 -12.499999999998018 -22.999999999991786 13.5 -0 -0 -1 
1 -12.499999999998018 -35 0 0 1 0 
2 4.999988019301 -23.000035143291999 0 0 0 1 1 0 -0 -0 1 0 7.500011980699
1 5.0000000000219309 -15.500023162597785 13.5 -0 -0 -1 
1 -5.0000000000205755 -15.500006885646151 13.5 -0 -0 -1 
2 -5.0000123392319997 -22.999994546404 0 0 0 1 1 0 -0 -0 1 0 7.4999876607680003
1 -5.0000000000205755 -15.500006885646151 0 0.99999999999867539 -1.6276946848046325e-06 0 
1 -5.0000000000205755 -15.500006885646151 0 0.99999999999867539 -1.6276946848046325e-06 0 
1 -5.0000000000205755 -15.500006885646151 0 0.99999999999867539 -1.6276946848046325e-06 0 
2 0 22.5 0 0 0 1 1 0 -0 -0 1 0 8
2 0 -22.5 -1.5000000000000018 0 0 -1 1 0 0 0 -1 0 7
2 0 -22.5 -1.5000000000000018 0 0 -1 1 0 0 0 -1 0 7
2 0 -22.5 -1.5000000000000018 0 0 -1 1 0 0 0 -1 0 7
1 8 -22.5 -13.5 0 0 1 
2 0 22.5 0 0 0 1 1 0 -0 -0 1 0 8
1 7 -22.5 -2.5 0 0 1 
2 0 22.5 0 0 0 1 1 0 -0 -0 1 0 7
Polygon3D 0
PolygonOnTriangulations 0
Surfaces 31
1 -17.5 40 0 -0 0 1 1 0 0 0 1 -0 
2 11 -7 13.5 -0 -0 -1 6.3441315692866085e-17 -1 0 1 6.3441315692866085e-17 -0 3
1 14 36.5 13.5 -1 0 0 0 -1 0 0 0 1 
2 11 33.5 13.5 -0 -0 -1 0 1 -0 1 -0 0 3
1 -14 36.5 13.5 0 -1 0 1 0 0 -0 0 1 
1 3.8500000000000001 40 13.5 1 0 0 0 -2.2204460492503131e-16 -1 0 1 -2.2204460492503131e-16 
1 -17.5 40 -13.5 0 1 0 1 0 0 0 0 -1 
1 17.5 40 -13.5 1 0 -0 0 -1 0 0 -0 -1 
1 17.5 -40 -13.5 0 -1 0 -1 0 0 -0 -0 -1 
1 -17.5 -40 -13.5 -1 0 0 0 1 0 0 0 -1 
1 -3.8500000000000001 40 9.5999999999999996 -1 0 0 0 2.2204460492503131e-16 1 0 1 -2.2204460492503131e-16 
2 -11 33.5 13.5 -0 -0 -1 0 1 -0 -1 0 -0 3
1 -14 -10.000000000000002 13.5 1 0 0 -0 1 0 0 -0 1 
2 -11 -7.0000000000000018 13.5 -0 -0 -1 -1 0 0 -0 -1 0 3
1 14 -10 13.5 -6.3441315692866085e-17 1 0 -1 -6.3441315692866085e-17 0 0 0 1 
1 12.499999999918 -35 13.5 0 1 -0 -1 0 0 0 0 1 
2 9.4999999999179998 -32 13.5 -0 -0 -1 -0 -1 0 1 -0 -0 3
2 -9.4999999999980176 -32 13.5 -0 -0 -1 -1 0 0 -0 -1 0 3
1 12.499999999918 -35 13.5 1 0 0 -0 1 0 0 -0 1 
1 -12.499999999998018 -35 13.5 1 0 0 -0 1 0 0 -0 1 
2 4.999988019301 -23.000035143291999 13.5 0 0 1 1 0 -0 -0 1 0 7.500011980699
2 -5.0000123392319997 -22.999994546404 13.5 0 0 1 1 0 -0 -0 1 0 7.4999876607680003
1 -5.0000000000205755 -15.500006885646151 13.5 -1.6276946848046325e-06 -0.99999999999867539 0 0.99999999999867539 -1.6276946848046325e-06 0 0 0 1 
1 0 13.25 13.5 -0 -0 -1 -1 0 0 0 1 -0 
1 -3.8500000000000001 40 9.5999999999999996 -0 2.2204460492503131e-16 1 1 0 0 0 1 -2.2204460492503131e-16 
1 -17.5 40 0 -0 0 1 1 0 0 0 1 -0 
1 -3.9939163559387778e-06 -26.163472788246906 13.499999999999998 1.6385774144160173e-32 -1.6371198501047004e-32 -1 -1 0 -1.6385774144160173e-32 2.6825476110736978e-64 1 -1.6371198501047004e-32 
10 -931.50219382871126 931.50218584087861 -927.83871704654803 980.16566262304184
1 -3.9939163559387778e-06 -26.163472788246906 -1.5000000000000018 1.6385774144160173e-32 -1.6371198501047004e-32 -1 -1 0 -1.6385774144160173e-32 2.6825476110736978e-64 1 -1.6371198501047004e-32 
2 0 -22.5 -13.5 0 0 -1 1 0 0 0 -1 0 8
2 0 -22.5 -2.5 0 0 -1 1 0 0 0 -1 0 7
1 -6.8372006626971174e-16 -22.500000000000004 -13.5 -0 -0 -1 -1 0 0 0 1 -0 
Triangulations 0

TShapes 204
Ve
1e-07
11 -10 13.5
0 0

0101101
*
Ve
1e-07
14 -7 13.5
0 0

0101101
*
Ed
 1e-07 1 1 0
1  1 0 3.14159265358979 4.71238898038469
2  1 1 23 3.14159265358979 4.71238898038469
2  2 2 0 3.14159265358979 4.71238898038469
0

0101000
+204 24 -203 24 *
Ve
1e-07
14 33.5 13.5
0 0

0101101
*
Ed
 1e-07 1 1 0
1  2 0 3 43.5
2  3 1 27 3 43.5
2  4 3 28 3 43.5
0

0101000
-203 29 +201 29 *
Ve
1e-07
11 36.5 13.5
0 0

0101101
*
Ed
 1e-07 1 1 0
1  3 0 0 1.5707963267949
2  5 1 31 0 1.5707963267949
2  6 4 0 0 1.5707963267949
0

0101000
+199 32 -201 32 *
Ve
1.00000000666134e-07
3.85 36.5 13.5
0 0

0101101
*
Ed
 1e-07 1 1 0
1  4 0 17.85 25
2  7 1 27 17.85 25
2  8 5 28 17.85 25
0

0101000
+197 29 -199 29 *
Ve
1e-07
3.85 40 13.5
0 0

0101101
*
Ed
 1e-07 1 1 0
1  5 0 0 3.5
2  9 1 21 0 3.5
2  10 6 0 0 3.5
0

0101000
+195 33 -197 33 *
Ve
1e-07
17.5 40 13.5
0 0

0101101
*
Ed
 1e-07 1 1 0
1  6 0 21.35 35
2  11 1 36 21.35 35
2  12 7 37 21.35 35
0

0101000
+195 38 -193 38 *
Ve
1e-07
17.5 -40 13.5
0 0

0101101
*
Ed
 1e-07 1 1 0
1  7 0 0 80
2  13 1 36 0 80
2  14 8 37 0 80
0

0101000
+193 38 -191 38 *
Ve
1e-07
-17.5 -40 13.5
0 0

0101101
*
Ed
 1e-07 1 1 0
1  8 0 0 35
2  15 1 36 0 35
2  16 9 37 0 35
0

0101000
+191 38 -189 38 *
Ve
1e-07
-17.5 40 13.5
0 0

0101101
*
Ed
 1e-07 1 1 0
1  9 0 0 80
2  17 1 36 0 80
2  18 10 37 0 80
0

0101000
+189 38 -187 38 *
Ve
1e-07
-3.85 40 13.5
0 0

0101101
*
Ed
 1e-07 1 1 0
1  10 0 0 13.65
2  19 1 36 0 13.65
2  20 7 37 0 13.65
0

0101000
+187 38 -185 38 *
Ve
1.00000000222045e-07
-3.85 36.5 13.5
0 0

0101101
*
Ed
 1e-07 1 1 0
1  11 0 0 3.5
2  21 1 21 0 3.5
2  22 11 0 0 3.5
0

0101000
+185 33 -183 33 *
Ve
1e-07
-11 36.5 13.5
0 0

0101101
*
Ed
 1e-07 1 1 0
1  12 0 3 10.15
2  23 1 27 3 10.15
2  24 5 28 3 10.15
0

0101000
+181 29 -183 29 *
Ve
1e-07
-14 33.5 13.5
0 0

0101101
*
Ed
 1e-07 1 1 0
1  13 0 0 1.5707963267949
2  25 1 40 0 1.5707963267949
2  26 12 0 0 1.5707963267949
0

0101000
+181 41 -179 41 *
Ve
1e-07
-14 -7 13.5
0 0

0101101
*
Ed
 1e-07 1 1 0
1  14 0 3 43.5
2  27 1 27 3 43.5
2  28 13 28 3 43.5
0

0101000
+177 29 -179 29 *
Ve
1e-07
-11 -10 13.5
0 0

0101101
*
Ed
 1e-07 1 1 0
1  15 0 1.5707963267949 3.14159265358979
2  29 1 43 1.5707963267949 3.14159265358979
2  30 14 0 1.5707963267949 3.14159265358979
0

0101000
+177 44 -175 44 *
Ed
 1e-07 1 1 0
1  16 0 3 25
2  31 1 27 3 25
2  32 15 28 3 25
0

0101000
+204 29 -175 29 *
Wi

0101100
-202 22 +200 26 +198 30 +196 26 +194 0 -192 35 -190 35 -188 35 -186 35 -184 35 
-182 0 +180 26 -178 39 +176 26 -174 42 +173 26 *
Ve
1e-07
9.499999999918 -35 13.5
0 0

0101101
*
Ve
1e-07
-9.49999999999802 -35 13.5
0 0

0101101
*
Ed
 1e-07 1 1 0
1  17 0 3 21.999999999916
2  33 1 47 3 21.999999999916
2  34 16 48 3 21.999999999916
0

0101000
+171 49 -170 49 *
Ve
1e-07
12.499999999918 -32 13.5
0 0

0101101
*
Ed
 1e-07 1 1 0
1  18 0 3.14159265358979 4.71238898038469
2  35 1 51 3.14159265358979 4.71238898038469
2  36 17 0 3.14159265358979 4.71238898038469
0

0101000
+171 52 -168 52 *
Ve
1e-07
-12.499999999998 -32 13.5
0 0

0101101
*
Ed
 1e-07 1 1 0
1  19 0 1.5707963267949 3.14159265358979
2  37 1 54 1.5707963267949 3.14159265358979
2  38 18 0 1.5707963267949 3.14159265358979
0

0101000
+166 55 -170 55 *
Ve
1.000001687539e-07
12.4999999999178 -22.9999999999459 13.5
0 0

0101101
*
Ed
 1e-07 1 1 0
1  20 0 3 12.0000000000541
2  39 1 47 3 12.0000000000541
2  40 19 48 3 12.0000000000541
0

0101000
+168 49 -164 49 *
Ve
1.00000211386464e-07
-12.499999999998 -22.9999999999918 13.5
0 0

0101101
*
Ed
 1e-07 1 1 0
1  21 0 3 12.000000000008
2  41 1 47 3 12.000000000008
2  42 20 48 3 12.000000000008
0

0101000
+166 49 -162 49 *
Ve
1.0000478511226e-07
5.00000000002193 -15.5000231625978 13.5
0 0

0101101
*
Ed
 1e-07 1 1 0
1  22 0 4.685772e-06 1.570794729368
2  43 1 47 4.685772e-06 1.570794729368
2  44 21 48 4.685772e-06 1.570794729368
0

0101000
+164 49 -160 49 *
Ve
1e-07
-5.00000000002058 -15.5000068856462 13.5
0 0

0101101
*
Ed
 1e-07 1 1 0
1  23 0 1.570794681564 3.141593380736
2  45 1 47 1.570794681564 3.141593380736
2  46 22 48 1.570794681564 3.141593380736
0

0101000
+158 49 -162 49 *
Ed
 1e-07 1 1 0
1  24 0 0 10.0000000000558
2  47 1 47 0 10.0000000000558
2  48 23 48 0 10.0000000000558
0

0101000
+158 49 -160 49 *
Wi

0101100
+169 46 -167 50 -165 53 -163 46 +161 46 -159 46 -157 46 +156 46 *
Fa
0  1e-07 1 21

0111000
+172 0 +155 0 *
Ve
1e-07
11 -10 -10
0 0

0101101
*
Ed
 1e-07 1 1 0
1  25 0 -0 23.5
2  49 2 0 -0 23.5
2  50 15 56 -0 23.5
4 G1 2 0 15 56
0

0101000
+204 24 -153 24 *
Ve
1e-07
14 -7 -10
0 0

0101101
*
Ed
 1e-07 1 1 0
1  26 0 -0 23.5
2  51 2 0 -0 23.5
2  52 3 56 -0 23.5
4 G1 2 0 3 56
0

0101000
+203 24 -151 24 *
Ed
 1e-07 1 1 0
1  27 0 3.14159265358979 4.71238898038469
2  53 2 0 3.14159265358979 4.71238898038469
2  54 24 58 3.14159265358979 4.71238898038469
0

0101000
+153 24 -151 24 *
Wi

0101100
+202 0 -152 0 +150 0 -149 0 *
Fa
0  1e-07 2 0

0111000
+148 0 *
Ve
1e-07
14 33.5 -10
0 0

0101101
*
Ed
 1e-07 1 1 0
1  28 0 -0 23.5
2  55 3 63 -0 23.5
2  56 4 0 -0 23.5
4 G1 3 63 4 0
0

0101000
+201 32 -146 32 *
Ed
 1e-07 1 1 0
1  29 0 3 43.5
2  57 3 65 3 43.5
2  58 24 66 3 43.5
0

0101000
-151 67 +146 67 *
Wi

0101100
-200 61 -150 0 +145 62 +144 64 *
Fa
0  1e-07 3 0

0111000
+143 60 *
Ve
1e-07
11 36.5 -10
0 0

0101101
*
Ed
 1e-07 1 1 0
1  30 0 -0 23.5
2  59 4 0 -0 23.5
2  60 5 63 -0 23.5
4 G1 4 0 5 63
0

0101000
+199 32 -141 32 *
Ed
 1e-07 1 1 0
1  31 0 0 1.5707963267949
2  61 4 0 0 1.5707963267949
2  62 24 68 0 1.5707963267949
0

0101000
+141 32 -146 32 *
Wi

0101100
+198 0 -140 0 +145 0 -139 0 *
Fa
0  1e-07 4 0

0111000
+138 0 *
Ve
2.00001e-07
-3.85 36.5 9.6
0 0

0101101
*
Ed
 1e-07 1 1 0
1  32 0 -1.95 1.95
2  63 5 59 -1.95 1.95
2  64 11 0 -1.95 1.95
0

0101000
+183 33 -136 33 *
Ve
2.00001e-07
3.85 36.5 9.6
0 0

0101101
*
Ed
 1e-07 1 1 0
1  33 0 -12.775 -5.075
2  65 5 59 -12.775 -5.075
2  66 25 0 -12.775 -5.075
0

0101000
+134 33 -136 33 *
Ed
 1e-07 1 1 0
1  34 0 -3.9 0
2  67 5 59 -3.9 0
2  68 6 0 -3.9 0
0

0101000
+134 33 -197 33 *
Ve
1e-07
-11 36.5 -10
0 0

0101101
*
Ed
 1e-07 1 1 0
1  35 0 3 25
2  69 5 65 3 25
2  70 24 66 3 25
0

0101000
+131 67 -141 67 *
Ed
 1e-07 1 1 0
1  36 0 -0 23.5
2  71 5 70 -0 23.5
2  72 12 0 -0 23.5
4 G1 5 70 12 0
0

0101000
+181 41 -131 41 *
Wi

0101100
-180 26 -135 0 +133 0 -132 0 -196 26 -140 30 +130 69 +129 39 *
Fa
0  1e-07 5 59

0111000
+128 0 *
Ve
1e-07
3.85 40 9.6
0 0

0101101
*
Ed
 1e-07 1 1 0
1  37 0 0 3.9
2  73 6 73 0 3.9
2  74 7 74 0 3.9
0

0101000
+195 75 -126 75 *
Ed
 1e-07 1 1 0
1  38 0 0 3.5
2  75 6 0 0 3.5
2  76 25 0 0 3.5
0

0101000
+126 33 -134 33 *
Wi

0101100
-125 72 -124 0 -132 0 +194 0 *
Fa
0  1e-07 6 0

0111000
+123 0 *
Ve
1e-07
-17.5 40 -13.5
0 0

0101101
*
Ve
1e-07
17.5 40 -13.5
0 0

0101101
*
Ed
 1e-07 1 1 0
1  39 0 0 35
2  77 7 78 0 35
2  78 26 36 0 35
0

0101000
+121 79 -120 79 *
Ed
 1e-07 1 1 0
1  40 0 0 27
2  79 7 0 0 27
2  80 8 0 0 27
0

0101000
+120 80 -193 80 *
Ve
1e-07
-3.85 40 9.6
0 0

0101101
*
Ed
 1e-07 1 1 0
1  41 0 0 7.7
2  81 7 74 0 7.7
2  82 25 73 0 7.7
0

0101000
+117 75 -126 75 *
Ed
 1e-07 1 1 0
1  42 0 0 3.9
2  83 7 74 0 3.9
2  84 11 73 0 3.9
0

0101000
+117 75 -185 75 *
Ed
 1e-07 1 1 0
1  43 0 0 27
2  85 7 0 0 27
2  86 10 0 0 27
0

0101000
+121 80 -187 80 *
Wi

0101100
-119 77 -118 76 +192 35 -125 72 +116 72 -115 72 +184 35 +114 76 *
Fa
0  1e-07 7 76

0111000
+113 0 *
Ve
1e-07
17.5 -40 -13.5
0 0

0101101
*
Ed
 1e-07 1 1 0
1  44 0 0 27
2  87 8 0 0 27
2  88 9 0 0 27
0

0101000
+111 80 -191 80 *
Ed
 1e-07 1 1 0
1  45 0 0 80
2  89 8 78 0 80
2  90 26 36 0 80
0

0101000
+120 79 -111 79 *
Wi

0101000
+118 0 -110 0 -109 81 +190 82 *
Fa
0  1e-07 8 0

0111000
+108 0 *
Ve
1e-07
-17.5 -40 -13.5
0 0

0101101
*
Ed
 1e-07 1 1 0
1  46 0 0 35
2  91 9 78 0 35
2  92 26 36 0 35
0

0101000
+111 79 -106 79 *
Ed
 1e-07 1 1 0
1  47 0 0 27
2  93 9 0 0 27
2  94 10 0 0 27
0

0101000
+106 80 -189 80 *
Wi

0101100
+110 76 -105 77 +188 35 -104 76 *
Fa
0  1e-07 9 76

0111000
+103 0 *
Ed
 1e-07 1 1 0
1  48 0 0 80
2  95 10 78 0 80
2  96 26 36 0 80
0

0101000
+106 79 -121 79 *
Wi

0101000
+104 0 -114 0 -101 81 +186 82 *
Fa
0  1e-07 10 0

0111000
+100 0 *
Ed
 1e-07 1 1 0
1  49 0 0 3.5
2  97 11 0 0 3.5
2  98 25 0 0 3.5
0

0101000
+117 33 -136 33 *
Wi

0101100
-115 72 -182 0 -135 0 +98 0 *
Fa
0  1e-07 11 0

0111000
+97 0 *
Ve
1e-07
-14 33.5 -10
0 0

0101101
*
Ed
 1e-07 1 1 0
1  50 0 -0 23.5
2  99 12 0 -0 23.5
2  100 13 70 -0 23.5
4 G1 12 0 13 70
0

0101000
+179 41 -95 41 *
Ed
 1e-07 1 1 0
1  51 0 0 1.5707963267949
2  101 12 0 0 1.5707963267949
2  102 24 83 0 1.5707963267949
0

0101000
+131 41 -95 41 *
Wi

0101100
+178 0 -129 0 +94 0 -93 0 *
Fa
0  1e-07 12 0

0111000
+92 0 *
Ve
1e-07
-14 -7 -10
0 0

0101101
*
Ed
 1e-07 1 1 0
1  52 0 0 23.5
2  103 13 86 0 23.5
2  104 14 0 0 23.5
4 G1 13 86 14 0
0

0101000
+177 44 -90 44 *
Ed
 1e-07 1 1 0
1  53 0 3 43.5
2  105 13 65 3 43.5
2  106 24 66 3 43.5
0

0101000
+90 67 -95 67 *
Wi

0101100
-176 85 +89 0 -94 15 +88 87 *
Fa
0  1e-07 13 0

0111000
+87 84 *
Ve
1e-07
-11 -10 -10
0 0

0101101
*
Ed
 1e-07 1 1 0
1  54 0 -0 23.5
2  107 14 0 -0 23.5
2  108 15 86 -0 23.5
4 G1 14 0 15 86
0

0101000
+175 44 -85 44 *
Ed
 1e-07 1 1 0
1  55 0 1.5707963267949 3.14159265358979
2  109 14 0 1.5707963267949 3.14159265358979
2  110 24 88 1.5707963267949 3.14159265358979
0

0101000
+90 44 -85 44 *
Wi

0101100
+174 0 -89 0 +84 0 -83 0 *
Fa
0  1e-07 14 0

0111000
+82 0 *
Ed
 1e-07 1 1 0
1  56 0 3 25
2  111 15 65 3 25
2  112 24 66 3 25
0

0101000
+153 67 -85 67 *
Wi

0101100
-173 26 +152 22 -84 42 +80 69 *
Fa
0  1e-07 15 59

0111000
+79 0 *
Ve
1e-07
9.499999999918 -35 -1.5
0 0

0101101
*
Ed
 1e-07 1 1 0
1  57 0 -0 15
2  113 16 90 -0 15
2  114 17 0 -0 15
4 G1 16 90 17 0
0

0101000
+171 52 -77 52 *
Ve
1e-07
-9.49999999999802 -35 -1.5
0 0

0101101
*
Ed
 1e-07 1 1 0
1  58 0 -0 15
2  115 16 91 -0 15
2  116 18 0 -0 15
4 G1 16 91 18 0
0

0101000
+170 55 -75 55 *
Ed
 1e-07 1 1 0
1  59 0 3 21.999999999916
2  117 16 94 3 21.999999999916
2  118 27 95 3 21.999999999916
0

0101000
+77 96 -75 96 *
Wi

0101100
-169 46 +76 50 -74 53 +73 93 *
Fa
0  1e-07 16 89

0111000
+72 0 *
Ve
1e-07
12.499999999918 -32 -1.5
0 0

0101101
*
Ed
 1e-07 1 1 0
1  60 0 -0 15
2  119 17 0 -0 15
2  120 19 90 -0 15
4 G1 17 0 19 90
0

0101000
+168 52 -70 52 *
Ed
 1e-07 1 1 0
1  61 0 3.14159265358979 4.71238898038469
2  121 17 0 3.14159265358979 4.71238898038469
2  122 27 97 3.14159265358979 4.71238898038469
0

0101000
+77 52 -70 52 *
Wi

0101100
+167 0 -76 0 +69 0 -68 0 *
Fa
0  1e-07 17 0

0111000
+67 0 *
Ve
1e-07
-12.499999999998 -32 -1.5
0 0

0101101
*
Ed
 1e-07 1 1 0
1  62 0 -0 15
2  123 18 0 -0 15
2  124 20 91 -0 15
4 G1 18 0 20 91
0

0101000
+166 55 -65 55 *
Ed
 1e-07 1 1 0
1  63 0 1.5707963267949 3.14159265358979
2  125 18 0 1.5707963267949 3.14159265358979
2  126 27 98 1.5707963267949 3.14159265358979
0

0101000
+65 55 -75 55 *
Wi

0101100
+165 0 -64 0 +74 0 -63 0 *
Fa
0  1e-07 18 0

0111000
+62 0 *
Ve
1.000001687539e-07
12.4999999999178 -22.9999999999459 -1.5
0 0

0101101
*
Ed
 1.000001687539e-07 1 1 0
1  64 0 0 15
2  127 19 0 0 15
2  128 21 0 0 15
4 G1 19 0 21 0
0

0101000
+164 101 -60 101 *
Ed
 1e-07 1 1 0
1  65 0 3 12.0000000000541
2  129 19 94 3 12.0000000000541
2  130 27 95 3 12.0000000000541
0

0101000
+70 96 -60 96 *
Wi

0101100
-163 100 +69 0 -59 90 +58 102 *
Fa
0  1e-07 19 0

0111000
+57 99 *
Ve
1.00000211386464e-07
-12.499999999998 -22.9999999999918 -1.5
0 0

0101101
*
Ed
 1.00000211386464e-07 1 1 0
1  66 0 0 15
2  131 20 0 0 15
2  132 22 0 0 15
4 G1 20 0 22 0
0

0101000
+162 101 -55 101 *
Ed
 1e-07 1 1 0
1  67 0 3 12.000000000008
2  133 20 94 3 12.000000000008
2  134 27 95 3 12.000000000008
0

0101000
+65 96 -55 96 *
Wi

0101100
-161 104 +64 0 -54 91 +53 105 *
Fa
0  1e-07 20 0

0111000
+52 103 *
Ve
1.0000478511226e-07
5.00000000002193 -15.5000231625978 -1.5
0 0

0101101
*
Ed
 1e-07 1 1 0
1  68 0 4.685772e-06 1.570794729368
2  135 21 94 4.685772e-06 1.570794729368
2  136 27 95 4.685772e-06 1.570794729368
0

0101000
+60 96 -50 96 *
Ed
 1.0000478511226e-07 1 1 0
1  69 0 0 15
2  137 21 0 0 15
2  138 23 0 0 15
4 G1 21 0 23 0
0

0101000
+160 101 -50 101 *
Wi

0101100
+59 0 -159 106 +49 107 -48 0 *
Fa
0  1e-07 21 0

0111000
+47 0 *
Ve
1e-07
-5.00000000002058 -15.5000068856462 -1.5
0 0

0101101
*
Ed
 1e-07 1 1 0
1  70 0 0 15
2  139 22 0 0 15
2  140 23 0 0 15
4 G1 22 0 23 0
0

0101000
+158 101 -45 101 *
Ed
 1e-07 1 1 0
1  71 0 1.570794681564 3.141593380736
2  141 22 94 1.570794681564 3.141593380736
2  142 27 95 1.570794681564 3.141593380736
0

0101000
+45 96 -55 96 *
Wi

0101100
+44 0 -157 106 +43 107 -54 0 *
Fa
0  1e-07 22 0

0111000
+42 0 *
Ve
1.00001002006615e-07
-0.0144916257835037 -15.5000150005316 -1.5
0 0

0101101
*
Ed
 1e-07 1 1 0
1  72 0 0 4.98550837424368
2  143 23 94 0 4.98550837424368
2  144 27 95 0 4.98550837424368
0

0101000
+45 96 -40 96 *
Ve
1.00001016248603e-07
0.0145144134594525 -15.5000150477446 -1.5
0 0

0101101
*
Ed
 1e-07 1 1 0
1  73 0 4.98550837424368 5.01451441348667
2  145 23 94 4.98550837424368 5.01451441348667
2  146 28 108 4.98550837424368 5.01451441348667
0

0101000
+40 96 -38 96 *
Ed
 1e-07 1 1 0
1  74 0 5.01451441348667 10.0000000000558
2  147 23 94 5.01451441348667 10.0000000000558
2  148 27 95 5.01451441348667 10.0000000000558
0

0101000
+38 96 -50 96 *
Wi

0101100
+44 89 -156 46 +39 93 -48 89 +37 93 +36 93 *
Fa
0  1e-07 23 89

0111000
+35 0 *
Wi

0101100
+80 64 -149 0 -83 16 +144 64 +88 64 +139 62 -93 111 +130 64 *
Fa
0  1e-07 24 0

0111000
+33 110 *
Wi

0101100
-116 72 -124 0 -133 0 +98 0 *
Fa
0  1e-07 25 0

0111000
+31 0 *
Wi

0101100
-119 114 -101 114 -109 114 -105 114 *
Ve
1e-07
8 -22.5 -13.5
0 0

0101101
*
Ed
 1e-07 1 1 0
1  75 0 0 6.28318530717959
2  149 26 117 0 6.28318530717959
2  150 29 118 0 6.28318530717959
0

0101000
+28 119 -28 119 *
Wi

0101100
+27 116 *
Fa
0  1e-07 26 113

0111000
+29 0 +26 0 *
Ve
2.00001e-07
7 -22.5 -1.5
0 0

0101101
*
Ed
 1e-07 1 1 0
1  76 0 4.71446246950753 6.28318530717959
2  151 27 121 4.71446246950753 6.28318530717959
2  152 30 0 4.71446246950753 6.28318530717959
0

0101000
+38 124 -24 124 *
Ed
 1e-07 1 1 0
1  77 0 0 4.71031874665111
2  153 27 121 0 4.71031874665111
2  154 30 0 0 4.71031874665111
0

0101000
+24 124 -40 124 *
Wi

0101100
+73 102 -68 0 -63 18 -58 102 +53 102 -49 102 -43 102 +36 102 +39 102 -23 123 
-22 123 *
Fa
0  1e-07 27 121

0111000
+21 122 *
Ed
 1e-07 1 1 0
1  78 0 4.71031874665111 4.71446246950753
2  155 28 0 4.71031874665111 4.71446246950753
2  156 30 0 4.71031874665111 4.71446246950753
0

0101000
+40 124 -38 124 *
Wi

0101100
-37 125 +19 0 *
Fa
0  1e-07 28 0

0111000
+18 0 *
Ve
1e-07
8 -22.5 -2.5
0 0

0101101
*
Ed
 1e-07 1 1 0
1  79 0 0 11
3  157 158CN 29 0 0 11
0

0101000
+28 126 -16 126 *
Ed
 1e-07 1 1 0
1  80 0 0 6.28318530717959
2  159 29 129 0 6.28318530717959
2  160 31 130 0 6.28318530717959
0

0101000
+16 131 -16 131 *
Wi

0101100
-27 116 -15 0 +14 128 +15 0 *
Fa
0  1e-07 29 0

0111000
+13 0 *
Ve
1e-07
7 -22.5 -2.5
0 0

0101101
*
Ed
 1e-07 1 1 0
1  81 0 0 0.999999999999998
3  161 162CN 30 0 0 0.999999999999998
0

0101000
+11 124 -24 124 *
Ed
 1e-07 1 1 0
1  82 0 0 6.28318530717959
2  163 30 134 0 6.28318530717959
2  164 31 135 0 6.28318530717959
0

0101000
+11 136 -11 136 *
Wi

0101100
-10 0 +23 0 +19 0 +22 0 +10 0 -9 133 *
Fa
0  1e-07 30 0

0111000
+8 0 *
Wi

0101100
+14 138 *
Wi

0101100
-9 133 *
Fa
0  1e-07 31 137

0111000
+6 0 +5 0 *
Sh

0101100
+154 0 +147 22 +142 59 -137 30 +127 0 -122 0 +112 0 +107 76 +102 0 +99 76 
-96 0 +91 39 +86 59 +81 42 +78 0 +71 0 +66 50 +61 53 -56 89 +51 89 
-46 89 -41 89 +34 0 -32 109 +30 0 -25 112 -20 120 +17 120 -12 112 -7 120 
+4 120 *
So

0100000
+3 0 *
Co

1100000
+2 0 *

+1 1 