DBRep_DrawableShape

CASCADE Topology V1, (c) Matra-Datavision
Locations 161
1
              1               0               0               0 
              0               1               0               0 
              0               0               1               0 
1
              1               0               0               0 
              0               1               0               0 
              0               0               1               0 
1
              1               0               0               0 
              0               1               0               0 
              0               0               1               0 
1
              1               0               0               0 
              0               1               0               0 
              0               0               1               0 
1
              1               0               0               0 
              0               1               0               0 
              0               0               1               0 
2  2 1 3 -1 4 1 5 -1 0
1
              1               0               0               0 
              0               1               0               0 
              0               0               1               0 
1
              1               0               0               0 
              0               1               0               0 
              0               0               1               0 
1
              1               0               0               0 
              0               1               0               0 
              0               0               1               0 
1
              1               0               0               0 
              0               1               0               0 
              0               0               1               0 
1
              1               0               0               0 
              0               1               0               0 
              0               0               1               0 
1
              1               0               0               0 
              0               1               0               0 
              0               0               1               0 
1
              1               0               0               0 
              0               1               0               0 
              0               0               1               0 
1
              1               0               0               0 
              0               1               0               0 
              0               0               1               0 
1
              1               0               0               0 
              0               1               0               0 
              0               0               1               0 
1
              1               0               0               0 
              0               1               0               0 
              0               0               1               0 
1
              1               0               0               0 
              0               1               0               0 
              0               0               1               0 
1
              1               0               0               0 
              0               1               0               0 
              0               0               1               0 
2  7 1 8 -1 9 1 10 -1 11 1 12 -1 13 1 14 -1 15 1 16 -1 17 1 18 -1 0
1
              1               0               0               0 
              0               1               0               0 
              0               0               1               0 
1
              1               0               0               0 
              0               1               0               0 
              0               0               1               0 
2  20 1 21 -1 7 1 8 -1 9 1 10 -1 11 1 12 -1 13 1 14 -1 15 1 16 -1 17 1 18 -1 0
2  21 1 20 -1 0
2  20 -1 0
2  1 -1 5 1 4 -1 3 1 2 -1 18 1 17 -1 16 1 15 -1 14 1 13 -1 12 1 11 -1 10 1 9 -1 8 1 7 -1 21 1 20 -1 0
2  1 -1 5 1 4 -1 3 1 2 -1 18 1 17 -1 16 1 15 -1 14 1 13 -1 12 1 11 -1 10 1 9 -1 8 1 7 -1 0
1
              1               0               0               0 
              0               1               0               0 
              0               0               1              29 
2  20 1 21 -1 27 1 7 1 8 -1 9 1 10 -1 11 1 12 -1 13 1 14 -1 15 1 16 -1 17 1 18 -1 0
2  27 -1 21 1 20 -1 0
2  1 -1 5 1 4 -1 3 1 2 -1 18 1 17 -1 16 1 15 -1 14 1 13 -1 12 1 11 -1 10 1 9 -1 8 1 7 -1 27 -1 21 1 20 -1 0
2  1 -1 5 1 4 -1 3 1 2 -1 0
1
              1               0               0              -0 
              0               1               0               0 
              0               0               1              29 
1
              1               0               0              -0 
              0               1               0              -0 
              0               0               1              -4 
2  32 1 18 -1 33 1 0
2  7 1 8 -1 9 1 10 -1 11 1 12 -1 13 1 14 -1 15 1 16 -1 17 1 18 -1 33 -1 18 1 32 -1 0
2  32 -1 0
2  1 -1 5 1 4 -1 3 1 2 -1 33 -1 18 1 32 -1 0
2  4 1 5 -1 0
2  21 -1 7 1 8 -1 9 1 10 -1 11 1 12 -1 13 1 14 -1 15 1 16 -1 17 1 18 -1 2 1 3 -1 0
2  20 1 21 -1 7 1 8 -1 9 1 10 -1 11 1 12 -1 13 1 14 -1 15 1 16 -1 17 1 18 -1 2 1 3 -1 0
1
              1               0               0               0 
              0              -1               0              -0 
              0               0              -1               0 
2  41 1 3 -1 0
2  21 -1 7 1 8 -1 9 1 10 -1 11 1 12 -1 13 1 14 -1 15 1 16 -1 17 1 18 -1 2 1 41 -1 0
2  3 1 41 -1 0
2  1 -1 5 1 4 -1 3 1 41 -1 0
2  7 1 8 -1 9 1 10 -1 11 1 12 -1 13 1 14 -1 15 1 16 -1 17 1 18 -1 2 1 3 -1 4 1 5 -1 0
2  20 1 21 -1 0
2  20 1 21 -1 27 1 0
2  21 -1 27 1 7 1 8 -1 9 1 10 -1 11 1 12 -1 13 1 14 -1 15 1 16 -1 17 1 18 -1 0
2  32 1 18 -1 0
2  21 -1 27 1 7 1 8 -1 9 1 10 -1 11 1 12 -1 13 1 14 -1 15 1 16 -1 17 1 32 -1 0
2  18 1 32 -1 0
2  1 -1 5 1 4 -1 3 1 2 -1 18 1 32 -1 0
1
              1               0               0              -0 
              0               1               0               0 
              0               0               1              29 
2  54 1 8 -1 9 1 10 -1 11 1 12 -1 13 1 14 -1 15 1 16 -1 17 1 18 -1 0
2  21 -1 27 1 7 1 54 -1 0
2  8 1 54 -1 0
2  1 -1 5 1 4 -1 3 1 2 -1 18 1 17 -1 16 1 15 -1 14 1 13 -1 12 1 11 -1 10 1 9 -1 8 1 54 -1 0
1
              1               0               0              -0 
              0               1               0               0 
              0               0               1              29 
2  59 1 16 -1 17 1 18 -1 0
2  21 -1 27 1 7 1 8 -1 9 1 10 -1 11 1 12 -1 13 1 14 -1 15 1 59 -1 0
2  16 1 59 -1 0
2  1 -1 5 1 4 -1 3 1 2 -1 18 1 17 -1 16 1 59 -1 0
1
              1               0               0              -0 
              0               1               0               0 
              0               0               1              29 
2  64 1 14 -1 15 1 16 -1 17 1 18 -1 0
2  21 -1 27 1 7 1 8 -1 9 1 10 -1 11 1 12 -1 13 1 64 -1 0
2  14 1 64 -1 0
2  1 -1 5 1 4 -1 3 1 2 -1 18 1 17 -1 16 1 15 -1 14 1 64 -1 0
1
              1               0               0              -0 
              0               1               0               0 
              0               0               1              29 
2  69 1 10 -1 11 1 12 -1 13 1 14 -1 15 1 16 -1 17 1 18 -1 0
2  21 -1 27 1 7 1 8 -1 9 1 69 -1 0
2  10 1 69 -1 0
2  1 -1 5 1 4 -1 3 1 2 -1 18 1 17 -1 16 1 15 -1 14 1 13 -1 12 1 11 -1 10 1 69 -1 0
1
              1               0               0              -0 
              0               1               0               0 
              0               0               1              29 
2  74 1 12 -1 13 1 14 -1 15 1 16 -1 17 1 18 -1 0
2  21 -1 27 1 7 1 8 -1 9 1 10 -1 11 1 74 -1 0
2  12 1 74 -1 0
2  1 -1 5 1 4 -1 3 1 2 -1 18 1 17 -1 16 1 15 -1 14 1 13 -1 12 1 74 -1 0
2  33 -1 18 1 32 -1 0
2  9 1 10 -1 11 1 12 -1 13 1 14 -1 15 1 16 -1 17 1 18 -1 0
2  18 -1 33 1 0
2  9 1 10 -1 11 1 12 -1 13 1 14 -1 15 1 16 -1 17 1 18 -1 33 -1 18 1 32 -1 0
2  1 -1 5 1 4 -1 0
1
              1               0               0               0 
              0               1               0               0 
              0               0               1              13 
2  41 1 3 -1 84 1 0
2  84 -1 3 1 41 -1 0
2  41 -1 0
2  1 -1 5 1 4 -1 84 -1 3 1 41 -1 0
2  1 -1 5 1 4 -1 3 1 2 -1 18 1 17 -1 16 1 15 -1 14 1 13 -1 12 1 11 -1 10 1 9 -1 0
1
              1               0               0              -0 
              0               1               0              -0 
              0               0               1           -26.5 
2  54 1 8 -1 90 1 9 1 10 -1 11 1 12 -1 13 1 14 -1 15 1 16 -1 17 1 18 -1 0
2  90 -1 8 1 54 -1 0
2  54 -1 0
2  1 -1 5 1 4 -1 3 1 2 -1 18 1 17 -1 16 1 15 -1 14 1 13 -1 12 1 11 -1 10 1 9 -1 90 -1 8 1 54 -1 0
2  9 1 10 -1 11 1 12 -1 13 1 14 -1 15 1 16 -1 17 1 18 -1 2 1 3 -1 4 1 5 -1 0
2  54 1 8 -1 0
2  54 1 8 -1 90 1 0
2  17 1 18 -1 2 1 3 -1 4 1 5 -1 0
2  9 1 10 -1 11 1 12 -1 13 1 14 -1 15 1 16 -1 0
2  54 1 8 -1 9 1 10 -1 11 1 12 -1 13 1 14 -1 15 1 16 -1 0
2  1 -1 5 1 4 -1 3 1 2 -1 18 1 17 -1 0
1
              1               0               0              -0 
              0               1               0              -0 
              0               0               1             -10 
2  16 -1 102 1 0
2  54 1 8 -1 90 1 9 1 10 -1 11 1 12 -1 13 1 14 -1 15 1 16 -1 0
2  59 1 16 -1 0
2  15 1 16 -1 0
2  59 1 16 -1 102 1 0
2  102 -1 16 1 59 -1 0
2  59 -1 0
2  1 -1 5 1 4 -1 3 1 2 -1 18 1 17 -1 102 -1 16 1 59 -1 0
2  64 1 14 -1 15 1 16 -1 0
2  1 -1 5 1 4 -1 3 1 2 -1 18 1 17 -1 16 1 15 -1 0
1
              1               0               0              -0 
              0               1               0              -0 
              0               0               1             -10 
2  64 1 14 -1 113 1 15 1 16 -1 0
2  113 -1 14 1 64 -1 0
2  64 -1 0
2  1 -1 5 1 4 -1 3 1 2 -1 18 1 17 -1 16 1 15 -1 113 -1 14 1 64 -1 0
2  15 1 16 -1 17 1 18 -1 2 1 3 -1 4 1 5 -1 0
2  64 1 14 -1 0
2  64 1 14 -1 113 1 0
2  11 1 12 -1 13 1 14 -1 15 1 16 -1 0
2  69 1 10 -1 11 1 12 -1 13 1 14 -1 15 1 16 -1 0
2  11 1 12 -1 13 1 14 -1 0
2  14 -1 113 1 0
2  1 -1 5 1 4 -1 3 1 2 -1 18 1 17 -1 16 1 15 -1 14 1 13 -1 12 1 11 -1 0
1
              1               0               0              -0 
              0               1               0              -0 
              0               0               1             -15 
2  69 1 10 -1 126 1 11 1 12 -1 13 1 14 -1 15 1 16 -1 0
2  126 -1 10 1 69 -1 0
2  69 -1 0
2  1 -1 5 1 4 -1 3 1 2 -1 18 1 17 -1 16 1 15 -1 14 1 13 -1 12 1 11 -1 126 -1 10 1 69 -1 0
2  11 1 12 -1 13 1 14 -1 15 1 16 -1 17 1 18 -1 2 1 3 -1 4 1 5 -1 0
2  69 1 10 -1 0
2  69 1 10 -1 126 1 0
2  13 1 14 -1 15 1 16 -1 17 1 18 -1 2 1 3 -1 4 1 5 -1 0
2  74 1 12 -1 0
2  1 -1 5 1 4 -1 3 1 2 -1 18 1 17 -1 16 1 15 -1 14 1 13 -1 0
1
              1               0               0              -0 
              0               1               0              -0 
              0               0               1            -1.1 
2  74 1 12 -1 137 1 0
2  137 -1 12 1 74 -1 0
2  74 -1 0
2  1 -1 5 1 4 -1 3 1 2 -1 18 1 17 -1 16 1 15 -1 14 1 13 -1 137 -1 12 1 74 -1 0
2  3 -1 84 1 4 1 5 -1 0
2  41 1 3 -1 84 1 4 1 5 -1 0
1
              1               0               0               0 
              0              -1               0              -0 
              0               0              -1              13 
2  144 1 5 -1 0
2  3 -1 84 1 4 1 144 -1 0
2  5 1 144 -1 0
2  1 -1 5 1 144 -1 0
2  8 -1 90 1 9 1 10 -1 11 1 12 -1 13 1 14 -1 15 1 16 -1 17 1 18 -1 2 1 3 -1 4 1 5 -1 0
2  16 -1 102 1 16 1 15 -1 113 -1 14 1 64 -1 0
2  14 -1 113 1 15 1 16 -1 0
2  14 -1 113 1 15 1 16 -1 102 -1 16 1 59 -1 0
2  10 -1 126 1 11 1 12 -1 13 1 14 -1 15 1 16 -1 17 1 18 -1 2 1 3 -1 4 1 5 -1 0
2  69 1 10 -1 126 1 11 1 12 -1 13 1 14 -1 15 1 16 -1 17 1 18 -1 2 1 3 -1 4 1 5 -1 0
1
              1               0               0               0 
              0               1               0               0 
              0               0               1               1 
2  144 1 5 -1 155 1 0
2  10 -1 126 1 11 1 12 -1 13 1 14 -1 15 1 16 -1 17 1 18 -1 2 1 3 -1 4 1 5 -1 155 -1 5 1 144 -1 0
2  155 -1 5 1 144 -1 0
2  1 -1 155 -1 5 1 144 -1 0
2  12 -1 137 1 13 1 14 -1 15 1 16 -1 17 1 18 -1 2 1 3 -1 4 1 5 -1 0
2  1 -1 0
Curve2ds 278
1 0 0 1 0 
1 17.5 40 -1 0 
1 35 0 0 -1 
1 0 0 0 -1 
1 0 -29 1 0 
1 17.5 40 -1 0 
1 22 -29 0 1 
1 0 0 0 -1 
1 13 -25 1 0 
1 1.7500000000049027 4.4999999999985558 0 -1 
1 13 -29 0 1 
1 0 0 0 -1 
1 0 -29 1 0 
1 17.5 40 -1 0 
1 0 0 0 -1 
1 80 0 0 -1 
1 17.5 -40 0 1 
1 0 0 1 0 
1 -17.5 40 0 -1 
1 0 0 1 0 
1 -17.5 -40 1 0 
1 0 -0 1 0 
2 0 -22.5 -1 0 -0 -1 8
1 0 0 1 0 
1 80 0 0 -1 
1 0 -0 0 -1 
1 0 -29 1 0 
1 -17.5 40 0 -1 
1 17.5 -40 0 1 
1 0 -29 1 0 
1 -17.5 -40 1 0 
1 0 -29 1 0 
1 -4.5 40 0 -1 
1 0 0 1 0 
1 10.99998998103756 36.499999999980389 -1 8.9140897131658043e-13 
1 0 0 1 0 
2 -10.999999170879981 33.5 -1 0 0 1 3
1 0 0 1 0 
1 -13.999999170861832 33.499989564849379 -1.3099971074452453e-08 -0.99999999999999989 
1 0 0 1 0 
2 -10.999999701427788 -6.9999999999999982 -1 0 0 1 3
1 0 0 1 0 
1 -10.999989981037562 -9.9999999999842508 1 9.0675024890264467e-14 
1 0 0 1 0 
1 -9.5 -8.2494589551330009 0 -1 
1 0 0 1 0 
1 12 -10.999999999982256 -1 0 
1 0 0 1 0 
1 -12 -10.999999999982256 0 -1 
1 0 0 1 0 
1 -12 -15.499999999982256 1 0 
1 0 0 1 0 
1 -9.5 -8.2494589551330009 0 -1 
1 0 0 1 0 
2 -5.0000003348445823 -22.999970420257615 -1 0 0 1 7.4999891341456095
1 0 0 1 0 
1 -12.50000071256504 -31.99997960815859 1.2492867197001738e-06 0.99999999999921962 
1 0 0 1 0 
2 -9.5000007126343444 -32 -1 0 0 1 3
1 0 0 1 0 
1 9.5000001107669032 -35 -1 2.9917588525280153e-15 
1 0 0 1 0 
2 9.499999999999984 -32 -1 0 0 1 3
1 0 0 1 0 
1 12.499999999999279 -32.000002057679232 1.2492932180120622e-06 0.99999999999921962 
1 0 0 1 0 
2 5.0000000859590044 -22.999992443797407 -1 0 0 1 7.5000111576853978
1 0 0 1 0 
1 9.5 -18.916258333333001 0 1 
1 0 0 1 0 
1 -12 -15.499999999982256 1 0 
1 0 0 1 0 
1 12 -10.999999999982256 0 -1 
1 0 0 1 0 
1 12 -10.999999999982256 -1 0 
1 0 0 1 0 
1 9.5 -18.916258333333001 0 1 
1 0 0 1 0 
1 -10.999989981037562 -9.9999999999842508 1 9.0675024890264467e-14 
1 0 0 1 0 
2 11.000000298572212 -6.9999999999999973 -1 0 0 1 3
1 0 0 1 0 
1 14.000000298555923 -6.999990113860421 1.3099877782775314e-08 0.99999999999999989 
1 0 0 1 0 
2 11.000000829120019 33.5 -1 0 0 1 3
1 0 0 1 0 
1 10.99998998103756 36.499999999980389 -1 8.9140897131658043e-13 
1 0 0 1 0 
1 4.5 40 0 -1 
1 0 0 1 0 
2 -14.5 -37 -1 0 0 1 1.5500000000000007
1 0 0 1 0 
2 14.5 -37 -1 0 0 1 1.5500000000000007
1 0 0 1 0 
2 14.5 -18 -1 0 0 1 1.5500000000000007
1 0 0 1 0 
2 -14.5 -18 -1 0 0 1 1.5500000000000007
1 0 0 1 0 
2 14.5 37 -1 0 0 1 1.5500000000000007
1 0 0 1 0 
2 -14.5 37 -1 0 0 1 1.5500000000000007
1 0 0 1 0 
1 0 -4 1 0 
1 1.7500000000049027 -4.5000000000014442 -1 -1.1704348733990472e-61 
1 3.5000000000057909 0 0 -1 
1 15.49998998103756 0 0 -1 
1 1.7500000000049027 4.4999999999985558 -1 -1.1704348733990472e-61 
1 0 -4 1 0 
1 -1.7500000000089102 4.4999999999985558 8.9133638741461456e-13 -1 
1 6.4999899810375599 -4 1 0 
1 3.500000000013813 0 0 -1 
1 6.4999899810375599 0 0 -1 
1 0 0 0 -1 
1 35 0 0 -1 
1 0 0 0 -1 
1 6.2831853071795898 0 0 -1 
1 0 -13 1 0 
2 2.3930202319439899e-15 -3.5527136788005009e-15 -1 0 -0 -1 8
1 21.99997996207512 0 0 -1 
1 7.8539846972552905 0 0 -1 
1 0 -26.5 1 0 
1 10.999989425108959 23.250000006243397 -1 8.9140897131658043e-13 
1 0 0 0 -1 
1 1.5707927107674102 0 0 -1 
1 6.283181828796045 0 0 -1 
1 0 0 0 -1 
1 0 -26.5 1 0 
2 -10.999999726808582 20.250000006263008 -1 -2.1592157265412046e-65 -2.1592157265412046e-65 1 3
1 0 -26.5 1 0 
1 -13.999999726790433 20.249989571112387 -1.3099971074452453e-08 -0.99999999999999989 
1 40.499979348052364 0 0 -1 
1 6.2831887127785899 0 0 -1 
1 4.7123857402546143 0 0 -1 
1 0 0 0 -1 
1 0 -26.5 1 0 
2 -11.000000257356389 -20.249999993736992 -1 -2.1592157265412046e-65 -2.1592157265412046e-65 1 3
8 -11 1
1 1.4999899810375616 0 0 1 
8 -11 1
1 1.7505410448511132 0 0 1 
8 -5.900005009481057 16.899994990518945
1 5.4999949905186183 -9.9999999999999964 1 -2.3352359241971102e-44 
8 -5.900005009481057 16.899994990518945
1 -3.5828586442492512 -5.4999949905189434 -9.0675024890264467e-14 1 
8 -1 11
1 20.499989981037562 0 0 -1 
8 -1 11
1 8.9162583333506085 0 0 -1 
1 21.999979962075123 0 0 -1 
1 4.7123924195629066 0 0 -1 
1 0 -26.5 1 0 
1 -10.999990536966163 -23.249999993721246 1 9.0675024890264467e-14 
8 -1 11
1 2.7505410448492551 0 0 -1 
8 -1 11
1 21.5 0 -0 -1 
1 0 -10 1 0 
1 -5.333399689100002 -9.5 1 0 
1 24 0 0 -1 
1 0 0 0 -1 
1 0 -10 1 0 
1 12 2.2500000000000018 -1 0 
1 0 -10 1 0 
1 -12 2.2500000000000018 0 -1 
1 4.5 0 0 -1 
1 0 0 0 -1 
8 -11 1
1 2.5 0 0 1 
8 -11 1
1 7.2505410448492551 0 0 1 
1 0 -10 1 0 
1 -12 -2.2499999999999982 1 0 
8 -11 4.0000000112172529e-07
1 8.7505247963141457 0 0 1 
8 -11 4.0000000112172529e-07
1 7.210479494401298 0 0 1 
1 0 -10 1 0 
1 -5.333399689100002 -9.5 1 0 
1 6.2831853071795862 -9.9999999999999964 1 0 
2 9.4171117760246119 -5.0000003348445823 0 -1 -1 -0 7.4999891341456095
1 6.2831853071795862 -10 1 0 
2 -5.0000003348445823 -9.749970420275357 -1 0 0 1 7.4999891341456095
1 7.8539816786204346 0 0 -1 
1 10.000000000000275 0 0 -1 
1 0 -15 1 0 
2 -2.8460695087116719 -5.0000042029637513 0 -1 -1 -0 7.4999891341456095
1 6.2831840821261249 0 0 -1 
1 9.0000000000203482 0 0 -1 
1 0 0 0 -1 
1 6.2831921044600572 0 0 -1 
1 0 -15 1 0 
1 6.1539396791893033 -12.500004580684209 -0.99999999999921962 1.2492867197001738e-06 
1 4.7123887797622093 0 0 -1 
1 19.000000221533806 0 0 -1 
1 0 -15 1 0 
2 6.1539600710307134 -9.5000045807535134 0 -1 -1 -0 3
1 0 0 0 -1 
1 4.7123889434623836 0 0 -1 
1 0 -15 1 0 
1 9.1539600710307134 9.4999962426477342 -2.9917588525280153e-15 -1 
1 3.1415933394828714 0 0 -1 
1 0 0 0 -1 
1 0 -15 1 0 
2 6.1539600710307134 9.499996131880815 0 -1 -1 -0 3
1 0 -15 1 0 
1 6.1539621287099457 12.49999613188011 -0.99999999999921962 1.2492932180120622e-06 
1 8.9999999999928022 0 0 -1 
1 3.1415939354406928 0 0 -1 
1 0 -10 1 0 
2 5.0000000859590044 -9.7499924438151488 -1 0 0 1 7.5000111576853978
1 0 -9.9999999999999964 1 0 
2 9.4171337995644038 5.0000000859590044 0 -1 -1 -0 7.5000111576853978
8 -11 4.0000000112172529e-07
1 2.2142963054953007 0 0 1 
8 -11 4.0000000112172529e-07
1 1.9162799011056073 0 0 1 
1 0 -15 1 0 
2 -2.84604748517188 4.9999962178398354 0 -1 -1 -0 7.5000111576853978
1 1.5707963153336924 0 0 -1 
1 0 0 0 -1 
8 -1 11
1 3.4162583333507452 0 0 -1 
8 -1 11
1 21.5 0 0 -1 
1 0 -10 1 0 
1 5.3333996890999984 9.5 -1 0 
1 24 0 0 -1 
1 4.5 0 0 -1 
1 0 -10 1 0 
1 -12 -2.2499999999999982 1 0 
1 0 0 0 -1 
1 0 0 0 -1 
1 0 -10 1 0 
1 12 2.2500000000000018 0 -1 
8 -11 1
1 2.5 0 0 1 
8 -11 1
1 7.9162583333507452 0 0 1 
1 0 -10 1 0 
1 12 2.2500000000000018 -1 0 
1 0 -10 1 0 
1 5.3333996890999984 9.5 -1 0 
1 3.1415893582099343 0 0 -1 
1 0 0 0 -1 
1 0 -26.5 1 0 
2 10.999999742643611 -20.249999993736992 -1 -2.1592157265412046e-65 -2.1592157265412046e-65 1 3
1 0 -26.5 1 0 
1 13.999999742627322 -20.249990107597416 1.3099877782775314e-08 0.99999999999999989 
1 40.499979348052364 0 0 -1 
1 3.1415962421924788 0 0 -1 
1 0 -26.5 1 0 
2 11.000000273191418 20.250000006263008 -1 -2.1592157265412046e-65 -2.1592157265412046e-65 1 3
1 0 0 0 -1 
1 6.2831853071795862 0 0 -1 
1 0 -1.1000000000000001 1 0 
2 0 -7.1054273576010019e-15 1 0 -0 1 1.5500000000000007
1 0 0 0 -1 
1 6.2831853071795862 0 0 -1 
1 0 -1.1000000000000001 1 0 
2 0 -7.1054273576010019e-15 1 0 -0 1 1.5500000000000007
1 0 0 0 -1 
1 6.2831853071795862 0 0 -1 
1 0 -1.1000000000000001 1 0 
2 -1.7763568394002505e-15 0 1 0 -0 1 1.5500000000000007
1 0 0 0 -1 
1 6.2831853071795862 0 0 -1 
1 0 -1.1000000000000001 1 0 
2 0 0 1 0 -0 1 1.5500000000000007
1 0 0 0 -1 
1 6.2831853071795862 0 0 -1 
1 0 -1.1000000000000001 1 0 
2 0 0 1 0 -0 1 1.5500000000000007
1 0 0 0 -1 
1 6.2831853071795862 0 0 -1 
1 0 -1.1000000000000001 1 0 
2 0 0 1 0 -0 1 1.5500000000000007
2 2.3930202319439899e-15 -3.5527136788005009e-15 -1 0 -0 -1 7
1 0 0 1 0 
1 -2.5828586442507468 12 0 -1 
1 12 2.2500000000000018 -1 0 
1 -9.5 5.0005410448492569 0 -1 
1 -9.5 5.0005410448492569 0 -1 
1 1.9171413557492532 -12 0 1 
1 -12 -2.2499999999999982 1 0 
1 9.5 -5.6662583333507435 0 1 
1 9.5 -5.6662583333507435 0 1 
1 -12 -2.2499999999999982 1 0 
1 1.9171413557492532 -12 0 1 
8 -3.4999999999999498 8.5000000000003801
1 2.4999999999999223 -2.2499812861297528 -1 -1.7763568394002015e-16 
8 -3.4999999999999498 8.5000000000003801
1 2.4999999999999223 -10 1 0 
1 0 -15 1 0 
1 -10.346058642857276 4.9999961318806756 1.7763568394002015e-16 -1 
2 -3.3460399289692866 -3.8681191690985665e-06 0 -1 1 0 7
1 0 -1 1 0 
1 0 0 0 -1 
1 6.2831853071795862 0 0 -1 
Curves 139
1 -17.5 40 0 1 0 0 
1 17.5 40 0 0 0 1 
1 -17.5 40 0 1 0 0 
1 4.5 40 29 -0 -0 -1 
1 -4.5 40 0 1 0 0 
1 -4.5 40 29 -0 -0 -1 
1 -17.5 40 0 1 0 0 
1 -17.5 40 0 0 0 1 
1 -17.5 -40 0 0 1 0 
1 17.5 40 0 0 -1 0 
1 17.5 -40 0 -1 0 0 
2 0 22.5 0 0 0 1 1 0 -0 -0 1 0 8
1 17.5 -40 0 0 0 1 
1 17.5 40 0 0 -1 0 
1 -17.5 -40 0 0 1 0 
1 17.5 -40 0 -1 0 0 
1 4.5 40 0 0 -1 0 
1 -10.99998998103756 36.499999999980389 0 1 8.9140897131658043e-13 0 
2 10.999999170879981 33.5 0 0 0 1 1 0 -0 -0 1 0 3
1 13.999999170861832 33.499989564849379 0 1.3099971074452453e-08 -0.99999999999999989 0 
2 10.999999701427788 -6.9999999999999982 0 0 0 1 1 0 -0 -0 1 0 3
1 10.999989981037562 -9.9999999999842508 0 -1 9.0675024890264467e-14 0 
1 9.5 -8.2494589551330009 0 0 -1 0 
1 -12 -10.999999999982256 0 1 0 0 
1 12 -10.999999999982256 0 0 -1 0 
1 12 -15.499999999982256 0 -1 0 0 
1 9.5 -8.2494589551330009 0 0 -1 0 
2 5.0000003348445823 -22.999970420257615 0 0 0 1 1 0 -0 -0 1 0 7.4999891341456095
1 12.50000071256504 -31.99997960815859 0 -1.2492867197001738e-06 0.99999999999921962 0 
2 9.5000007126343444 -32 0 0 0 1 1 0 -0 -0 1 0 3
1 -9.5000001107669032 -35 0 1 2.9917588525280153e-15 0 
2 -9.499999999999984 -32 0 0 0 1 1 0 -0 -0 1 0 3
1 -12.499999999999279 -32.000002057679232 0 -1.2492932180120622e-06 0.99999999999921962 0 
2 -5.0000000859590044 -22.999992443797407 0 0 0 1 1 0 -0 -0 1 0 7.5000111576853978
1 -9.5 -18.916258333333001 0 0 1 0 
1 12 -15.499999999982256 0 -1 0 0 
1 -12 -10.999999999982256 0 0 -1 0 
1 -12 -10.999999999982256 0 1 0 0 
1 -9.5 -18.916258333333001 0 0 1 0 
1 10.999989981037562 -9.9999999999842508 0 -1 9.0675024890264467e-14 0 
2 -11.000000298572212 -6.9999999999999973 0 0 0 1 1 0 -0 -0 1 0 3
1 -14.000000298555923 -6.999990113860421 0 -1.3099877782775314e-08 0.99999999999999989 0 
2 -11.000000829120019 33.5 0 0 0 1 1 0 -0 -0 1 0 3
1 -10.99998998103756 36.499999999980389 0 1 8.9140897131658043e-13 0 
1 -4.5 40 0 0 -1 0 
2 14.5 -37 0 0 0 1 1 0 -0 -0 1 0 1.55
2 -14.5 -37 0 0 0 1 1 0 -0 -0 1 0 1.55
2 -14.5 -18 0 0 0 1 1 0 -0 -0 1 0 1.55
2 14.5 -18 0 0 0 1 1 0 -0 -0 1 0 1.55
2 -14.5 37 0 0 0 1 1 0 -0 -0 1 0 1.55
2 14.5 37 0 0 0 1 1 0 -0 -0 1 0 1.55
1 4.5 40 0 0 -1 0 
1 4.5 36.499999999994209 29 -0 -0 -1 
1 -4.5 40 0 0 -1 0 
1 -4.5 36.499999999986187 0 1 8.9133638741461456e-13 0 
1 -4.5 36.499999999986187 29 -0 -0 -1 
1 -17.5 -40 0 0 0 1 
1 8 -22.5 0 0 0 1 
2 0 22.5 0 0 0 1 1 0 -0 -0 1 0 8
1 10.99998998103756 36.499999999992966 29 -0 -0 -1 
1 -10.99998998103756 36.499999999980389 0 1 8.9140897131658043e-13 0 
1 -10.99998998103756 36.499999999980389 29 -0 -0 -1 
1 13.999999170861832 33.499989564849379 29 -0 -0 -1 
2 10.999999170879981 33.5 0 0 0 1 1 0 -0 -0 1 0 3
1 13.999999170861832 33.499989564849379 0 1.3099971074452453e-08 -0.99999999999999989 0 
1 13.99999970141039 -6.9999897832029863 29 -0 -0 -1 
1 10.999989981037562 -9.9999999999842508 29 -0 -0 -1 
2 10.999999701427788 -6.9999999999999982 0 0 0 1 1 0 -0 -0 1 0 3
1 9.5 -9.999999999984114 29 0 -0 1 
1 5.4999949905189434 -9.9999999999837517 19.000000000000004 -1 9.0675024890264467e-14 -2.3352359241971102e-44 
1 -9.5 -9.9999999999823928 29 0 0 -1 
1 -10.999989981037562 -9.999999999982256 29 -0 -0 -1 
1 10.999989981037562 -9.9999999999842508 0 -1 9.0675024890264467e-14 0 
1 9.5 -10.999999999982256 29 -0 -0 -1 
1 9.5 -8.2494589551330009 0 0 -1 0 
1 12 -10.999999999982256 29 -0 -0 -1 
1 -12 -10.999999999982256 0 1 0 0 
1 12 -10.999999999982256 0 0 -1 0 
1 12 -15.499999999982256 29 -0 -0 -1 
1 9.5 -15.499999999982256 29 0 -0 1 
1 12 -15.499999999982256 0 -1 0 0 
1 9.5 -16.999983751447147 29 0 0 1 
1 9.5 -8.2494589551330009 0 0 -1 0 
2 5.0000003348445823 -22.999970420257615 19.000000000000004 0 0 1 1 0 -0 -0 1 0 7.4999891341456095
2 5.0000003348445823 -22.999970420257615 19 0 0 1 1 0 -0 -0 1 0 7.4999891341456095
1 5.0000000000004308 -15.499981286112012 29 -0 -0 -1 
2 5.0000003348445823 -22.999970420257615 0 0 0 1 1 0 -0 -0 1 0 7.4999891341456095
1 12.499989468984563 -22.999979608145264 29 -0 -0 -1 
1 12.50000071256504 -31.99997960815859 29 -0 -0 -1 
1 12.50000071256504 -31.99997960815859 0 -1.2492867197001738e-06 0.99999999999921962 0 
1 9.5000001107669032 -34.999999999999943 29 -0 -0 -1 
2 9.5000007126343444 -32 0 0 0 1 1 0 -0 -0 1 0 3
1 -9.5000001107669032 -35 29 -0 -0 -1 
1 -9.5000001107669032 -35 0 1 2.9917588525280153e-15 0 
1 -12.499999999999279 -32.000002057679232 29 -0 -0 -1 
2 -9.499999999999984 -32 0 0 0 1 1 0 -0 -0 1 0 3
1 -12.499999999999279 -32.000002057679232 0 -1.2492932180120622e-06 0.99999999999921962 0 
1 -12.500011243638241 -23.000002057693454 29 -0 -0 -1 
2 -5.0000000859590044 -22.999992443797407 19 0 0 1 1 0 -0 -0 1 0 7.5000111576853978
2 -5.0000000859590044 -22.999992443797407 19.000000000000004 0 0 1 1 0 -0 -0 1 0 7.5000111576853978
1 -9.5 -16.999978432227394 29 0 0 1 
2 -5.0000000859590044 -22.999992443797407 0 0 0 1 1 0 -0 -0 1 0 7.5000111576853978
1 -4.9999999999998446 -15.499981286112011 29 -0 -0 -1 
1 -9.5 -15.499999999982256 29 0 0 -1 
1 -9.5 -18.916258333333001 0 0 1 0 
1 -12 -15.499999999982256 29 -0 -0 -1 
1 12 -15.499999999982256 0 -1 0 0 
1 -12 -10.999999999982256 29 -0 -0 -1 
1 -12 -10.999999999982256 0 0 -1 0 
1 -9.5 -10.999999999982256 29 -0 0 1 
1 -12 -10.999999999982256 0 1 0 0 
1 -9.5 -18.916258333333001 0 0 1 0 
1 -14.000000298555923 -6.999990113860421 29 -0 -0 -1 
2 -11.000000298572212 -6.9999999999999973 0 0 0 1 1 0 -0 -0 1 0 3
1 -14.000000298555923 -6.999990113860421 0 -1.3099877782775314e-08 0.99999999999999989 0 
1 -14.000000829100703 33.499989234191943 29 -0 -0 -1 
2 -11.000000829120019 33.5 0 0 0 1 1 0 -0 -0 1 0 3
1 16.050000000000001 -37 29 -0 -0 -1 
2 14.5 -37 0 0 0 1 1 0 -0 -0 1 0 1.55
1 -12.949999999999999 -37 29 -0 -0 -1 
2 -14.5 -37 0 0 0 1 1 0 -0 -0 1 0 1.55
1 -12.949999999999999 -18 29 -0 -0 -1 
2 -14.5 -18 0 0 0 1 1 0 -0 -0 1 0 1.55
1 16.050000000000001 -18 29 -0 -0 -1 
2 14.5 -18 0 0 0 1 1 0 -0 -0 1 0 1.55
1 -12.949999999999999 37 29 -0 -0 -1 
2 -14.5 37 0 0 0 1 1 0 -0 -0 1 0 1.55
1 16.050000000000001 37 29 -0 -0 -1 
2 14.5 37 0 0 0 1 1 0 -0 -0 1 0 1.55
2 0 22.5 0 0 0 1 1 0 -0 -0 1 0 7
1 -12 -10.999999999982256 0 1 0 0 
1 9.5 -8.2494589551330009 0 0 -1 0 
1 12 -15.499999999982256 0 -1 0 0 
1 -9.5 -18.916258333333001 0 0 1 0 
1 12 -15.499999999982256 0 -1 0 0 
1 -2.4999999999999223 -15.499981286112011 19 1 -1.7763568394002015e-16 0 
1 -4.9999999999998446 -15.499981286112011 0 1 -1.7763568394002015e-16 0 
2 0 22.5 0 0 0 1 1 0 -0 -0 1 0 7
1 7 -22.5 13 0 0 1 
Polygon3D 0
PolygonOnTriangulations 0
Surfaces 58
1 -17.5 40 0 0 1 0 1 0 0 0 0 -1 
1 0 0 0 -0 -0 -1 -1 0 0 0 1 -0 
1 17.5 40 0 1 0 -0 0 -1 0 0 -0 -1 
1 0 0 0 -0 -0 -1 -1 0 0 0 1 -0 
1 4.5 40 29 -1 0 0 0 -1 0 0 0 1 
1 -1.4439649476105433e-12 38.249999999995097 29.000000000000007 2.80483877393098e-32 4.1729131965709507e-30 1 0 1 -4.1729131965709507e-30 -1 1.1704348733990472e-61 2.80483877393098e-32 
1 -4.5 40 29 -1 0 0 0 -1 0 0 0 1 
1 -17.5 -40 0 -1 0 0 0 1 0 0 0 -1 
1 17.5 -40 0 0 -1 0 -1 0 0 -0 -0 -1 
2 0 -22.5 0 0 0 -1 1 0 0 0 -1 0 8
1 -10.99998998103756 36.499999999980389 29 8.9140897131658043e-13 -1 0 1 8.9140897131658043e-13 0 -0 0 1 
2 10.999999170879981 33.5 29 0 0 1 1 0 -0 -0 1 0 3
1 13.999999170861832 33.499989564849379 29 -0.99999999999999989 -1.3099971074452453e-08 0 1.3099971074452453e-08 -0.99999999999999989 0 0 0 1 
2 10.999999701427788 -6.9999999999999982 29 0 0 1 1 0 -0 -0 1 0 3
1 10.999989981037562 -9.9999999999842508 29 9.0675024890264467e-14 1 -0 -1 9.0675024890264467e-14 0 0 0 1 
1 9.5 -8.2494589551330009 29 -1 0 0 0 -1 0 0 0 1 
1 -12 -10.999999999982256 29 0 -1 0 1 0 0 -0 0 1 
1 12 -10.999999999982256 29 -1 0 0 0 -1 0 0 0 1 
1 12 -15.499999999982256 29 0 1 -0 -1 0 0 0 0 1 
1 9.5 -8.2494589551330009 29 -1 0 0 0 -1 0 0 0 1 
2 5.0000003348445823 -22.999970420257615 29 0 0 1 1 0 -0 -0 1 0 7.4999891341456095
1 12.50000071256504 -31.99997960815859 29 0.99999999999921962 1.2492867197001738e-06 -0 -1.2492867197001738e-06 0.99999999999921962 0 0 0 1 
2 9.5000007126343444 -32 29 0 0 1 1 0 -0 -0 1 0 3
1 -9.5000001107669032 -35 29 2.9917588525280153e-15 -1 0 1 2.9917588525280153e-15 0 -0 0 1 
2 -9.499999999999984 -32 29 0 0 1 1 0 -0 -0 1 0 3
1 -12.499999999999279 -32.000002057679232 29 0.99999999999921962 1.2492932180120622e-06 -0 -1.2492932180120622e-06 0.99999999999921962 0 0 0 1 
2 -5.0000000859590044 -22.999992443797407 29 0 0 1 1 0 -0 -0 1 0 7.5000111576853978
1 -9.5 -18.916258333333001 29 1 0 0 -0 1 0 0 -0 1 
1 12 -15.499999999982256 29 0 1 -0 -1 0 0 0 0 1 
1 -12 -10.999999999982256 29 -1 0 0 0 -1 0 0 0 1 
1 -12 -10.999999999982256 29 0 -1 0 1 0 0 -0 0 1 
1 -9.5 -18.916258333333001 29 1 0 0 -0 1 0 0 -0 1 
2 -11.000000298572212 -6.9999999999999973 29 0 0 1 1 0 -0 -0 1 0 3
1 -14.000000298555923 -6.999990113860421 29 0.99999999999999989 1.3099877782775314e-08 -0 -1.3099877782775314e-08 0.99999999999999989 0 0 0 1 
2 -11.000000829120019 33.5 29 0 0 1 1 0 -0 -0 1 0 3
2 14.5 -37 29 0 0 1 1 0 -0 -0 1 0 1.55
2 -14.5 -37 29 0 0 1 1 0 -0 -0 1 0 1.55
2 -14.5 -18 29 0 0 1 1 0 -0 -0 1 0 1.55
2 14.5 -18 29 0 0 1 1 0 -0 -0 1 0 1.55
2 -14.5 37 29 0 0 1 1 0 -0 -0 1 0 1.55
2 14.5 37 29 0 0 1 1 0 -0 -0 1 0 1.55
1 2.3930202319439899e-15 -22.499999999999996 0 -0 -0 -1 -1 0 0 0 1 -0 
1 -5.5592860085667327e-07 13.249999993736994 29.000000000000011 -2.2347652451134846e-32 -9.6619353252540694e-34 -1 -1 0 2.2347652451134846e-32 -2.1592157265412046e-65 1 -9.6619353252540694e-34 
1 0 -13.582858644233003 29.000000000000004 -0 -2.5753904418810234e-31 -1 0 -1 2.5753904418810234e-31 -1 0 0 
1 0 -13.249999999982258 29 -0 -0 -1 -1 0 0 0 1 -0 
1 0 -13.582858644233003 29.000000000000004 -0 -2.5753904418810234e-31 -1 0 -1 2.5753904418810234e-31 -1 0 0 
1 0 -13.249999999982258 29 -0 -0 -1 -1 0 0 0 1 -0 
1 -4.9999999999998446 -15.499981286112011 29 -1.7763568394002015e-16 -1 0 1 -1.7763568394002015e-16 0 0 0 1 
1 -3.8681191690985665e-06 -25.846039928969287 29.000000000000007 -4.7770343003025668e-32 7.1194243443690717e-31 -1 0 -1 -7.1194243443690717e-31 -1 -3.4009734291460168e-62 4.7770343003025668e-32 
1 0 -13.582858644233003 29.000000000000004 -0 -2.5753904418810234e-31 -1 0 -1 2.5753904418810234e-31 -1 0 0 
1 0 -13.249999999982258 29 -0 -0 -1 -1 0 0 0 1 -0 
1 14.5 -36.999999999999993 29 0 0 1 1 0 -0 -0 1 0 
1 -14.5 -36.999999999999993 29 0 0 1 1 0 -0 -0 1 0 
1 -14.499999999999998 -18 29 0 0 1 1 0 -0 -0 1 0 
1 14.5 -18 29 0 0 1 1 0 -0 -0 1 0 
1 -14.5 37 29 0 0 1 1 0 -0 -0 1 0 
1 14.5 37 29 0 0 1 1 0 -0 -0 1 0 
2 0 -22.5 13 0 0 -1 1 0 0 0 -1 0 7
Triangulations 0

TShapes 356
Ve
1e-07
-17.5 40 0
0 0

0101101
*
Ve
1e-07
17.5 40 0
0 0

0101101
*
Ed
 1e-07 1 1 0
1  1 0 0 35
2  1 1 23 0 35
2  2 2 24 0 35
0

0101000
+356 25 -355 25 *
Ve
1e-07
17.5 40 29
0 0

0101101
*
Ed
 1e-07 1 1 0
1  2 0 0 29
2  3 1 0 0 29
2  4 3 0 0 29
0

0101000
+355 26 -353 26 *
Ve
1e-07
4.5 40 29
0 0

0101101
*
Ed
 1e-07 1 1 0
1  3 0 22 35
2  5 1 29 22 35
2  6 4 24 22 35
0

0101000
+351 30 -353 30 *
Ve
1e-07
4.5 40 25
0 0

0101101
*
Ed
 1e-07 1 1 0
1  4 0 0 4
2  7 1 19 0 4
2  8 5 0 0 4
0

0101000
+351 31 -349 31 *
Ve
1e-07
-4.5 40 25
0 0

0101101
*
Ed
 1e-07 1 1 0
1  5 0 0 9
2  9 1 35 0 9
2  10 6 36 0 9
0

0101000
+347 37 -349 37 *
Ve
1e-07
-4.5 40 29
0 0

0101101
*
Ed
 1e-07 1 1 0
1  6 0 0 4
2  11 1 19 0 4
2  12 7 0 0 4
0

0101000
+345 31 -347 31 *
Ve
1e-07
-17.5 40 29
0 0

0101101
*
Ed
 1e-07 1 1 0
1  7 0 0 13
2  13 1 29 0 13
2  14 4 24 0 13
0

0101000
+343 30 -345 30 *
Ed
 1e-07 1 1 0
1  8 0 0 29
2  15 1 0 0 29
2  16 8 0 0 29
0

0101000
+356 26 -343 26 *
Wi

0101100
-354 22 -352 19 +350 28 -348 0 +346 34 +344 0 +342 28 +341 19 *
Fa
0  1e-07 1 19

0111000
+340 0 *
Ve
1e-07
-17.5 -40 0
0 0

0101101
*
Ed
 1e-07 1 1 0
1  9 0 0 80
2  17 2 24 0 80
2  18 8 23 0 80
0

0101000
+338 25 -356 25 *
Ve
1e-07
17.5 -40 0
0 0

0101101
*
Ed
 1e-07 1 1 0
1  10 0 0 80
2  19 2 24 0 80
2  20 3 23 0 80
0

0101000
+355 25 -336 25 *
Ed
 1e-07 1 1 0
1  11 0 0 35
2  21 2 24 0 35
2  22 9 23 0 35
0

0101000
+336 25 -338 25 *
Wi

0101100
+354 40 +337 40 +335 40 +334 40 *
Ve
1e-07
8 -22.5 0
0 0

0101101
*
Ed
 1e-07 1 1 0
1  12 0 0 6.28318530717959
2  23 2 43 0 6.28318530717959
2  24 10 44 0 6.28318530717959
0

0101000
+332 45 -332 45 *
Wi

0101100
-331 42 *
Fa
0  1e-07 2 39

0111000
+333 0 +330 0 *
Ve
1e-07
17.5 -40 29
0 0

0101101
*
Ed
 1e-07 1 1 0
1  13 0 0 29
2  25 3 0 0 29
2  26 9 0 0 29
0

0101000
+336 26 -328 26 *
Ed
 1e-07 1 1 0
1  14 0 0 80
2  27 3 29 0 80
2  28 4 24 0 80
0

0101000
+353 30 -328 30 *
Wi

0101100
+352 0 -327 0 -335 47 +326 48 *
Fa
0  1e-07 3 0

0111000
+325 0 *
Ve
1e-07
-17.5 -40 29
0 0

0101101
*
Ed
 1e-07 1 1 0
1  15 0 0 80
2  29 4 24 0 80
2  30 8 29 0 80
0

0101000
+323 30 -343 30 *
Ed
 1e-07 1 1 0
1  16 0 0 35
2  31 4 24 0 35
2  32 9 29 0 35
0

0101000
+328 30 -323 30 *
Ve
1e-07
4.5 36.4999999999942 29
0 0

0101101
*
Ed
 1e-07 1 1 0
1  17 0 0 3.50000000000579
2  33 4 51 0 3.50000000000579
2  34 5 52 0 3.50000000000579
0

0101000
+351 53 -320 53 *
Ve
1.00007037925798e-07
10.9999899810376 36.499999999993 29
0 0

0101101
*
Ed
 1e-07 1 1 0
1  18 0 15.4999899810376 21.9999799620751
2  35 4 56 15.4999899810376 21.9999799620751
2  36 11 57 15.4999899810376 21.9999799620751
0

0101000
+320 58 -318 58 *
Ve
1e-07
13.9999991708618 33.4999895648494 29
0 0

0101101
*
Ed
 1e-07 1 1 0
1  19 0 6.28318182879605 7.85398469725529
2  37 4 56 6.28318182879605 7.85398469725529
2  38 12 57 6.28318182879605 7.85398469725529
0

0101000
+316 58 -318 58 *
Ve
1.00000001776357e-07
13.9999997014104 -6.99998978320299 29
0 0

0101101
*
Ed
 1e-07 1 1 0
1  20 0 0 40.4999793480524
2  39 4 56 0 40.4999793480524
2  40 13 57 0 40.4999793480524
0

0101000
+316 58 -314 58 *
Ve
1e-07
10.9999899810376 -9.99999999998425 29
0 0

0101101
*
Ed
 1e-07 1 1 0
1  21 0 4.71238574025461 6.28318871277859
2  41 4 56 4.71238574025461 6.28318871277859
2  42 14 57 4.71238574025461 6.28318871277859
0

0101000
+312 58 -314 58 *
Ve
1e-07
9.5 -9.99999999998411 29
0 0

0101101
*
Ed
 1e-07 1 1 0
1  22 0 0 1.49998998103756
2  43 4 56 0 1.49998998103756
2  44 15 57 0 1.49998998103756
0

0101000
+312 58 -310 58 *
Ve
1e-07
9.5 -10.9999999999823 29
0 0

0101101
*
Ed
 1e-07 1 1 0
1  23 0 1.75054104485111 2.75054104484926
2  45 4 61 1.75054104485111 2.75054104484926
2  46 16 62 1.75054104485111 2.75054104484926
0

0101000
+310 63 -308 63 *
Ve
1e-07
12 -10.9999999999823 29
0 0

0101101
*
Ed
 1e-07 1 1 0
1  24 0 21.5 24
2  47 4 66 21.5 24
2  48 17 67 21.5 24
0

0101000
+308 68 -306 68 *
Ve
1e-07
12 -15.4999999999823 29
0 0

0101101
*
Ed
 1e-07 1 1 0
1  25 0 0 4.5
2  49 4 66 0 4.5
2  50 18 67 0 4.5
0

0101000
+306 68 -304 68 *
Ve
1e-07
9.5 -15.4999999999823 29
0 0

0101101
*
Ed
 1e-07 1 1 0
1  26 0 0 2.5
2  51 4 66 0 2.5
2  52 19 67 0 2.5
0

0101000
+304 68 -302 68 *
Ve
1.00000100364161e-07
9.4999999999999 -16.999983751447 29
0 0

0101101
*
Ed
 1e-07 1 1 0
1  27 0 7.25054104484926 8.750524796314
2  53 4 61 7.25054104484926 8.750524796314
2  54 20 62 7.25054104484926 8.750524796314
0

0101000
+302 63 -300 63 *
Ve
1e-07
12.4999894689846 -22.9999796081453 29
0 0

0101101
*
Ed
 1e-07 1 1 0
1  28 0 6.28318408212612 7.21047949440132
2  55 4 71 6.28318408212612 7.21047949440132
2  56 21 72 6.28318408212612 7.21047949440132
0

0101000
+298 73 -300 73 *
Ve
1e-07
12.500000712565 -31.9999796081586 29
0 0

0101101
*
Ed
 1e-07 1 1 0
1  29 0 0 9.00000000002035
2  57 4 71 0 9.00000000002035
2  58 22 72 0 9.00000000002035
0

0101000
+296 73 -298 73 *
Ve
1e-07
9.5000001107669 -34.9999999999999 29
0 0

0101101
*
Ed
 1e-07 1 1 0
1  30 0 4.71238877976221 6.28319210446006
2  59 4 71 4.71238877976221 6.28319210446006
2  60 23 72 4.71238877976221 6.28319210446006
0

0101000
+294 73 -296 73 *
Ve
1e-07
-9.5000001107669 -35 29
0 0

0101101
*
Ed
 1e-07 1 1 0
1  31 0 0 19.0000002215338
2  61 4 71 0 19.0000002215338
2  62 24 72 0 19.0000002215338
0

0101000
+292 73 -294 73 *
Ve
1e-07
-12.4999999999993 -32.0000020576792 29
0 0

0101101
*
Ed
 1e-07 1 1 0
1  32 0 3.14159333948287 4.71238894346238
2  63 4 71 3.14159333948287 4.71238894346238
2  64 25 72 3.14159333948287 4.71238894346238
0

0101000
+290 73 -292 73 *
Ve
1e-07
-12.5000112436382 -23.0000020576935 29
0 0

0101101
*
Ed
 1e-07 1 1 0
1  33 0 0 8.9999999999928
2  65 4 71 0 8.9999999999928
2  66 26 72 0 8.9999999999928
0

0101000
+290 73 -288 73 *
Ve
1.00000047961635e-07
-9.49999999999995 -16.9999784322273 29
0 0

0101101
*
Ed
 1e-07 1 1 0
1  34 0 2.21429630549529 3.14159393544069
2  67 4 71 2.21429630549529 3.14159393544069
2  68 27 72 2.21429630549529 3.14159393544069
0

0101000
+286 73 -288 73 *
Ve
1e-07
-9.5 -15.4999999999823 29
0 0

0101101
*
Ed
 1e-07 1 1 0
1  35 0 1.91627990110568 3.41625833335075
2  69 4 61 1.91627990110568 3.41625833335075
2  70 28 62 1.91627990110568 3.41625833335075
0

0101000
+286 63 -284 63 *
Ve
1e-07
-12 -15.4999999999823 29
0 0

0101101
*
Ed
 1e-07 1 1 0
1  36 0 21.5 24
2  71 4 66 21.5 24
2  72 29 67 21.5 24
0

0101000
+284 68 -282 68 *
Ve
1e-07
-12 -10.9999999999823 29
0 0

0101101
*
Ed
 1e-07 1 1 0
1  37 0 0 4.5
2  73 4 66 0 4.5
2  74 30 67 0 4.5
0

0101000
+280 68 -282 68 *
Ve
1e-07
-9.5 -10.9999999999823 29
0 0

0101101
*
Ed
 1e-07 1 1 0
1  38 0 0 2.5
2  75 4 66 0 2.5
2  76 31 67 0 2.5
0

0101000
+280 68 -278 68 *
Ve
1e-07
-9.5 -9.99999999998239 29
0 0

0101101
*
Ed
 1e-07 1 1 0
1  39 0 7.91625833335075 8.91625833335061
2  77 4 61 7.91625833335075 8.91625833335061
2  78 32 62 7.91625833335075 8.91625833335061
0

0101000
+278 63 -276 63 *
Ve
1e-07
-10.9999899810376 -9.99999999998226 29
0 0

0101101
*
Ed
 1e-07 1 1 0
1  40 0 20.4999899810376 21.9999799620751
2  79 4 56 20.4999899810376 21.9999799620751
2  80 15 57 20.4999899810376 21.9999799620751
0

0101000
+276 58 -274 58 *
Ve
1e-07
-14.0000002985559 -6.99999011386042 29
0 0

0101101
*
Ed
 1e-07 1 1 0
1  41 0 3.14158935820993 4.71239241956291
2  81 4 56 3.14158935820993 4.71239241956291
2  82 33 57 3.14158935820993 4.71239241956291
0

0101000
+272 58 -274 58 *
Ve
1e-07
-14.0000008291007 33.4999892341919 29
0 0

0101101
*
Ed
 1e-07 1 1 0
1  42 0 0 40.4999793480524
2  83 4 56 0 40.4999793480524
2  84 34 57 0 40.4999793480524
0

0101000
+272 58 -270 58 *
Ve
1e-07
-10.9999899810376 36.4999999999804 29
0 0

0101101
*
Ed
 1e-07 1 1 0
1  43 0 1.57079271076741 3.14159624219248
2  85 4 56 1.57079271076741 3.14159624219248
2  86 35 57 1.57079271076741 3.14159624219248
0

0101000
+268 58 -270 58 *
Ve
1e-07
-4.5 36.4999999999862 29
0 0

0101101
*
Ed
 1e-07 1 1 0
1  44 0 0 6.49998998103756
2  87 4 56 0 6.49998998103756
2  88 11 57 0 6.49998998103756
0

0101000
+268 58 -266 58 *
Ed
 1e-07 1 1 0
1  45 0 0 3.50000000001381
2  89 4 51 0 3.50000000001381
2  90 7 52 0 3.50000000001381
0

0101000
+345 53 -266 53 *
Wi

0101100
+322 28 +321 28 +326 28 +350 28 -319 50 -317 55 +315 55 -313 55 +311 55 -309 55 
-307 60 -305 65 -303 65 -301 65 -299 60 +297 70 +295 70 +293 70 +291 70 +289 70 
-287 70 +285 70 -283 60 -281 65 +279 65 -277 65 -275 60 -273 55 +271 55 -269 55 
+267 55 -265 55 +264 50 +342 28 *
Ve
1e-07
16.05 -37 29
0 0

0101101
*
Ed
 1e-07 1 1 0
1  46 0 0 6.28318530717959
2  91 4 76 0 6.28318530717959
2  92 36 77 0 6.28318530717959
0

0101000
+262 78 -262 78 *
Wi

0101100
+261 75 *
Ve
1e-07
-12.95 -37 29
0 0

0101101
*
Ed
 1e-07 1 1 0
1  47 0 0 6.28318530717959
2  93 4 76 0 6.28318530717959
2  94 37 77 0 6.28318530717959
0

0101000
+259 78 -259 78 *
Wi

0101100
+258 75 *
Ve
1e-07
-12.95 -18 29
0 0

0101101
*
Ed
 1e-07 1 1 0
1  48 0 0 6.28318530717959
2  95 4 76 0 6.28318530717959
2  96 38 77 0 6.28318530717959
0

0101000
+256 78 -256 78 *
Wi

0101100
+255 75 *
Ve
1e-07
16.05 -18 29
0 0

0101101
*
Ed
 1e-07 1 1 0
1  49 0 0 6.28318530717959
2  97 4 76 0 6.28318530717959
2  98 39 77 0 6.28318530717959
0

0101000
+253 78 -253 78 *
Wi

0101100
+252 75 *
Ve
1e-07
-12.95 37 29
0 0

0101101
*
Ed
 1e-07 1 1 0
1  50 0 0 6.28318530717959
2  99 4 76 0 6.28318530717959
2  100 40 77 0 6.28318530717959
0

0101000
+250 78 -250 78 *
Wi

0101100
+249 75 *
Ve
1e-07
16.05 37 29
0 0

0101101
*
Ed
 1e-07 1 1 0
1  51 0 0 6.28318530717959
2  101 4 76 0 6.28318530717959
2  102 41 77 0 6.28318530717959
0

0101000
+247 78 -247 78 *
Wi

0101100
+246 75 *
Fa
0  1e-07 4 49

0101000
+263 0 +260 0 +257 0 +254 0 +251 0 +248 0 +245 0 *
Ve
1e-07
4.5 36.4999999999942 25
0 0

0101101
*
Ed
 1e-07 1 1 0
1  52 0 0 3.50000000000579
2  103 5 79 0 3.50000000000579
2  104 6 36 0 3.50000000000579
0

0101000
+349 37 -243 37 *
Ed
 1e-07 1 1 0
1  53 0 0 4
2  105 5 0 0 4
2  106 11 80 0 4
0

0101000
+320 31 -243 31 *
Wi

0101100
+348 0 -319 50 +242 34 -241 0 *
Fa
0  1e-07 5 0

0101000
+240 0 *
Ve
1e-07
-4.5 36.4999999999862 25
0 0

0101101
*
Ed
 1e-07 1 1 0
1  54 0 0 3.50000000001381
2  107 6 36 0 3.50000000001381
2  108 7 79 0 3.50000000001381
0

0101000
+347 37 -238 37 *
Ed
 1e-07 1 1 0
1  55 0 0 9
2  109 6 36 0 9
2  110 11 82 0 9
0

0101000
+238 37 -243 37 *
Wi

0101100
-346 34 +237 34 -242 34 +236 34 *
Fa
0  1e-07 6 81

0101000
+235 0 *
Ed
 1e-07 1 1 0
1  56 0 0 4
2  111 7 0 0 4
2  112 11 80 0 4
0

0101000
+266 31 -238 31 *
Wi

0101100
+344 0 -264 50 +237 34 -233 0 *
Fa
0  1e-07 7 0

0101000
+232 0 *
Ed
 1e-07 1 1 0
1  57 0 0 29
2  113 8 0 0 29
2  114 9 0 0 29
0

0101000
+338 26 -323 26 *
Wi

0101100
+230 0 -341 0 -337 47 +322 48 *
Fa
0  1e-07 8 0

0111000
+229 0 *
Wi

0101100
+327 0 -230 0 -334 47 +321 48 *
Fa
0  1e-07 9 0

0111000
+227 0 *
Ve
1e-07
8 -22.5 13
0 0

0101101
*
Ed
 1e-07 1 1 0
1  58 0 0 13
3  115 116CN 10 0 0 13
0

0101000
+332 83 -225 83 *
Ed
 1e-07 1 1 0
1  59 0 0 6.28318530717959
2  117 10 86 0 6.28318530717959
2  118 42 87 0 6.28318530717959
0

0101000
+225 88 -225 88 *
Wi

0101100
-331 42 -224 0 +223 85 +224 0 *
Fa
0  1e-07 10 0

0111000
+222 0 *
Ve
1.00007037925798e-07
10.9999899810376 36.499999999993 2.5
0 0

0101101
*
Ed
 1.00007037925798e-07 1 1 0
1  60 0 0 26.5
2  119 11 0 0 26.5
2  120 12 0 0 26.5
4 G1 11 0 12 0
0

0101000
+318 89 -220 89 *
Ve
1e-07
-10.9999899810376 36.4999999999804 2.5
0 0

0101101
*
Ed
 1e-07 1 1 0
1  61 0 0 21.9999799620751
2  121 11 92 0 21.9999799620751
2  122 43 93 0 21.9999799620751
0

0101000
+218 94 -220 94 *
Ed
 1e-07 1 1 0
1  62 0 0 26.5
2  123 11 0 0 26.5
2  124 35 0 0 26.5
4 G1 11 0 35 0
0

0101000
+268 89 -218 89 *
Wi

0101100
-265 55 -233 0 -236 34 +241 0 -317 55 -219 80 +217 91 +216 80 *
Fa
0  1e-07 11 80

0111000
+215 0 *
Ve
1e-07
13.9999991708618 33.4999895648494 2.5
0 0

0101101
*
Ed
 1e-07 1 1 0
1  63 0 0 26.5
2  125 12 0 0 26.5
2  126 13 0 0 26.5
4 G1 12 0 13 0
0

0101000
+316 89 -213 89 *
Ed
 1e-07 1 1 0
1  64 0 6.28318182879605 7.85398469725529
2  127 12 92 6.28318182879605 7.85398469725529
2  128 43 93 6.28318182879605 7.85398469725529
0

0101000
+213 94 -220 94 *
Wi

0101100
+212 0 -315 96 +211 97 -219 0 *
Fa
0  1e-07 12 0

0101000
+210 0 *
Ve
1.00000001776357e-07
13.9999997014104 -6.99998978320299 2.5
0 0

0101101
*
Ed
 1e-07 1 1 0
1  65 0 0 40.4999793480524
2  129 13 92 0 40.4999793480524
2  130 43 93 0 40.4999793480524
0

0101000
+213 94 -208 94 *
Ed
 1.00000001776357e-07 1 1 0
1  66 0 0 26.5
2  131 13 0 0 26.5
2  132 14 0 0 26.5
4 G1 13 0 14 0
0

0101000
+314 89 -208 89 *
Wi

0101100
+212 0 -313 96 +207 97 -206 0 *
Fa
0  1e-07 13 0

0101000
+205 0 *
Ve
1e-07
10.9999899810376 -9.99999999998425 2.5
0 0

0101101
*
Ed
 1e-07 1 1 0
1  67 0 0 26.5
2  133 14 0 0 26.5
2  134 15 0 0 26.5
4 G1 14 0 15 0
0

0101000
+312 89 -203 89 *
Ed
 1e-07 1 1 0
1  68 0 4.71238574025461 6.28318871277859
2  135 14 92 4.71238574025461 6.28318871277859
2  136 43 93 4.71238574025461 6.28318871277859
0

0101000
+203 94 -208 94 *
Wi

0101100
+202 0 -311 96 +201 97 -206 0 *
Fa
0  1e-07 14 0

0101000
+200 0 *
Ve
2.00001e-07
9.5 -9.99999999998411 19
0 0

0101101
*
Ed
 1e-07 1 1 0
1  69 0 -10 0
2  137 15 99 -10 0
2  138 16 0 -10 0
0

0101000
+198 101 -310 101 *
Ve
2.00001e-07
-9.5 -9.99999999998239 19
0 0

0101101
*
Ed
 1e-07 1 1 0
1  70 0 -4.00000500948106 14.9999949905189
2  139 15 99 -4.00000500948106 14.9999949905189
2  140 44 103 -4.00000500948106 14.9999949905189
0

0101000
+198 101 -196 101 *
Ed
 1e-07 1 1 0
1  71 0 0 10
2  141 15 99 0 10
2  142 32 0 0 10
0

0101000
+276 101 -196 101 *
Ve
1e-07
-10.9999899810376 -9.99999999998226 2.5
0 0

0101101
*
Ed
 1e-07 1 1 0
1  72 0 0 26.5
2  143 15 0 0 26.5
2  144 33 0 0 26.5
4 G1 15 0 33 0
0

0101000
+274 89 -193 89 *
Ed
 1e-07 1 1 0
1  73 0 0 21.9999799620751
2  145 15 92 0 21.9999799620751
2  146 43 93 0 21.9999799620751
0

0101000
+203 94 -193 94 *
Wi

0101100
-309 100 +197 0 -195 0 +194 0 -273 100 -192 99 +191 104 +202 99 *
Fa
0  1e-07 15 99

0111000
+190 0 *
Ve
1e-07
9.5 -10.9999999999823 19
0 0

0101101
*
Ed
 1e-07 1 1 0
1  74 0 -0 10
2  147 16 0 -0 10
2  148 17 106 -0 10
0

0101000
+308 101 -188 101 *
Ed
 1e-07 1 1 0
1  75 0 1.75054104485111 2.75054104484926
2  149 16 108 1.75054104485111 2.75054104484926
2  150 44 109 1.75054104485111 2.75054104484926
0

0101000
+198 110 -188 110 *
Wi

0101100
-307 105 -187 0 +186 107 -197 0 *
Fa
0  1e-07 16 0

0101000
+185 0 *
Ve
1e-07
12 -10.9999999999823 19
0 0

0101101
*
Ed
 1e-07 1 1 0
1  76 0 0 10
2  151 17 0 0 10
2  152 18 0 0 10
0

0101000
+306 112 -183 112 *
Ed
 1e-07 1 1 0
1  77 0 21.5 24
2  153 17 115 21.5 24
2  154 45 116 21.5 24
0

0101000
+188 117 -183 117 *
Wi

0101100
-305 111 -182 106 +181 114 +187 0 *
Fa
0  1e-07 17 106

0101000
+180 0 *
Ve
1e-07
12 -15.4999999999823 19
0 0

0101101
*
Ed
 1e-07 1 1 0
1  78 0 0 4.5
2  155 18 115 0 4.5
2  156 45 116 0 4.5
0

0101000
+183 117 -178 117 *
Ed
 1e-07 1 1 0
1  79 0 0 10
2  157 18 0 0 10
2  158 19 0 0 10
0

0101000
+304 112 -178 112 *
Wi

0101100
+182 0 -303 119 +177 120 -176 0 *
Fa
0  1e-07 18 0

0101000
+175 0 *
Ve
1e-07
9.5 -15.4999999999823 19
0 0

0101101
*
Ed
 1e-07 1 1 0
1  80 0 -10 0
2  159 19 106 -10 0
2  160 20 0 -10 0
0

0101000
+173 101 -302 101 *
Ed
 1e-07 1 1 0
1  81 0 0 2.5
2  161 19 115 0 2.5
2  162 45 116 0 2.5
0

0101000
+178 117 -173 117 *
Wi

0101100
-301 111 +172 0 +171 114 +176 106 *
Fa
0  1e-07 19 106

0101000
+170 0 *
Ve
2.00001e-07
9.5 -16.9999837514471 19
0 0

0101101
*
Ed
 1e-07 1 1 0
1  82 0 -10 0
2  163 20 0 -10 0
2  164 21 121 -10 0
0

0101000
+168 101 -300 101 *
Ed
 1e-07 1 1 0
1  83 0 7.25054104484926 8.75052479631415
2  165 20 108 7.25054104484926 8.75052479631415
2  166 46 109 7.25054104484926 8.75052479631415
0

0101000
+173 110 -168 110 *
Wi

0101100
-299 105 +167 0 +166 107 -172 0 *
Fa
0  1e-07 20 0

0101000
+165 0 *
Ve
2.00001e-07
5.01675465657966 -15.4999999999823 19
0 0

0101101
*
Ed
 1e-07 1 1 0
1  84 0 0.927294187221712 1.56856241213576
2  167 21 121 0.927294187221712 1.56856241213576
2  168 46 103 0.927294187221712 1.56856241213576
0

0101000
+168 101 -163 101 *
Ve
2.00001e-07
5.00000000000043 -15.499981286112 19
0 0

0101101
*
Ed
 1e-07 1 1 0
1  85 0 1.56856241213576 1.57079637144085
2  169 21 123 1.56856241213576 1.57079637144085
2  170 47 124 1.56856241213576 1.57079637144085
0

0101000
+163 112 -161 112 *
Ve
1e-07
5.00000000000043 -15.499981286112 14
0 0

0101101
*
Ed
 1e-07 1 1 0
1  86 0 10 15
2  171 21 0 10 15
2  172 48 0 10 15
4 G1 21 0 48 0
0

0101000
+161 125 -159 125 *
Ve
1e-07
12.4999894689846 -22.9999796081453 14
0 0

0101101
*
Ed
 1e-07 1 1 0
1  87 0 6.28318408212612 7.85398167862043
2  173 21 128 6.28318408212612 7.85398167862043
2  174 49 129 6.28318408212612 7.85398167862043
0

0101000
+157 130 -159 130 *
Ed
 1e-07 1 1 0
1  88 0 0 15
2  175 21 0 0 15
2  176 22 0 0 15
4 G1 21 0 22 0
0

0101000
+298 125 -157 125 *
Wi

0101100
-297 122 +167 0 -162 0 -160 106 -158 121 +156 127 +155 121 *
Fa
0  1e-07 21 121

0101000
+154 0 *
Ve
1e-07
12.500000712565 -31.9999796081586 14
0 0

0101101
*
Ed
 1e-07 1 1 0
1  89 0 0 15
2  177 22 0 0 15
2  178 23 0 0 15
4 G1 22 0 23 0
0

0101000
+296 125 -152 125 *
Ed
 1e-07 1 1 0
1  90 0 0 9.00000000002035
2  179 22 128 0 9.00000000002035
2  180 49 129 0 9.00000000002035
0

0101000
+152 130 -157 130 *
Wi

0101100
+151 0 -295 132 +150 133 -155 0 *
Fa
0  1e-07 22 0

0101000
+149 0 *
Ve
1e-07
9.5000001107669 -34.9999999999999 14
0 0

0101101
*
Ed
 1e-07 1 1 0
1  91 0 0 15
2  181 23 0 0 15
2  182 24 0 0 15
4 G1 23 0 24 0
0

0101000
+294 125 -147 125 *
Ed
 1e-07 1 1 0
1  92 0 4.71238877976221 6.28319210446006
2  183 23 128 4.71238877976221 6.28319210446006
2  184 49 129 4.71238877976221 6.28319210446006
0

0101000
+147 130 -152 130 *
Wi

0101100
+146 0 -293 132 +145 133 -151 0 *
Fa
0  1e-07 23 0

0101000
+144 0 *
Ve
1e-07
-9.5000001107669 -35 14
0 0

0101101
*
Ed
 1e-07 1 1 0
1  93 0 0 15
2  185 24 0 0 15
2  186 25 0 0 15
4 G1 24 0 25 0
0

0101000
+292 125 -142 125 *
Ed
 1e-07 1 1 0
1  94 0 0 19.0000002215338
2  187 24 128 0 19.0000002215338
2  188 49 129 0 19.0000002215338
0

0101000
+142 130 -147 130 *
Wi

0101100
+141 0 -291 132 +140 133 -146 0 *
Fa
0  1e-07 24 0

0101000
+139 0 *
Ve
1e-07
-12.4999999999993 -32.0000020576792 14
0 0

0101101
*
Ed
 1e-07 1 1 0
1  95 0 0 15
2  189 25 0 0 15
2  190 26 0 0 15
4 G1 25 0 26 0
0

0101000
+290 125 -137 125 *
Ed
 1e-07 1 1 0
1  96 0 3.14159333948287 4.71238894346238
2  191 25 128 3.14159333948287 4.71238894346238
2  192 49 129 3.14159333948287 4.71238894346238
0

0101000
+137 130 -142 130 *
Wi

0101100
+136 0 -289 132 +135 133 -141 0 *
Fa
0  1e-07 25 0

0101000
+134 0 *
Ve
1e-07
-12.5000112436382 -23.0000020576935 14
0 0

0101101
*
Ed
 1e-07 1 1 0
1  97 0 0 8.9999999999928
2  193 26 128 0 8.9999999999928
2  194 49 129 0 8.9999999999928
0

0101000
+137 130 -132 130 *
Ed
 1e-07 1 1 0
1  98 0 0 15
2  195 26 0 0 15
2  196 27 0 0 15
4 G1 26 0 27 0
0

0101000
+288 125 -132 125 *
Wi

0101100
+136 0 -287 132 +131 133 -130 0 *
Fa
0  1e-07 26 0

0101000
+129 0 *
Ve
2.00001e-07
-4.99999999999984 -15.499981286112 19
0 0

0101101
*
Ve
2.00001e-07
-5.01675443228925 -15.4999999999823 19
0 0

0101101
*
Ed
 1e-07 1 1 0
1  99 0 1.57079631533369 1.57303023817357
2  197 27 123 1.57079631533369 1.57303023817357
2  198 47 124 1.57079631533369 1.57303023817357
0

0101000
+127 112 -126 112 *
Ve
2.00001e-07
-9.5 -16.9999784322274 19
0 0

0101101
*
Ed
 1e-07 1 1 0
1  100 0 1.57303023817357 2.2142963054953
2  199 27 121 1.57303023817357 2.2142963054953
2  200 50 103 1.57303023817357 2.2142963054953
0

0101000
+126 101 -124 101 *
Ed
 1e-07 1 1 0
1  101 0 -10 0
2  201 27 121 -10 0
2  202 28 0 -10 0
0

0101000
+124 101 -286 101 *
Ve
1e-07
-4.99999999999984 -15.499981286112 14
0 0

0101101
*
Ed
 1e-07 1 1 0
1  102 0 1.57079631533369 3.14159393544069
2  203 27 128 1.57079631533369 3.14159393544069
2  204 49 129 1.57079631533369 3.14159393544069
0

0101000
+121 130 -132 130 *
Ed
 1e-07 1 1 0
1  103 0 10 15
2  205 27 0 10 15
2  206 48 0 10 15
4 G1 27 0 48 0
0

0101000
+127 125 -121 125 *
Wi

0101100
-125 106 -123 0 -122 0 -285 122 -130 121 +120 127 +119 121 *
Fa
0  1e-07 27 121

0101000
+118 0 *
Ve
1e-07
-9.5 -15.4999999999823 19
0 0

0101101
*
Ed
 1e-07 1 1 0
1  104 0 0 10
2  207 28 0 0 10
2  208 29 106 0 10
0

0101000
+284 101 -116 101 *
Ed
 1e-07 1 1 0
1  105 0 1.9162799011056 3.41625833335075
2  209 28 108 1.9162799011056 3.41625833335075
2  210 50 109 1.9162799011056 3.41625833335075
0

0101000
+124 110 -116 110 *
Wi

0101100
-283 105 -115 0 +114 107 -122 0 *
Fa
0  1e-07 28 0

0101000
+113 0 *
Ve
1e-07
-12 -15.4999999999823 19
0 0

0101101
*
Ed
 1e-07 1 1 0
1  106 0 0 10
2  211 29 0 0 10
2  212 30 0 0 10
0

0101000
+282 112 -111 112 *
Ed
 1e-07 1 1 0
1  107 0 21.5 24
2  213 29 115 21.5 24
2  214 51 116 21.5 24
0

0101000
+116 117 -111 117 *
Wi

0101100
-281 111 -110 106 +109 114 +115 0 *
Fa
0  1e-07 29 106

0101000
+108 0 *
Ve
1e-07
-12 -10.9999999999823 19
0 0

0101101
*
Ed
 1e-07 1 1 0
1  108 0 0 10
2  215 30 0 0 10
2  216 31 0 0 10
0

0101000
+280 112 -106 112 *
Ed
 1e-07 1 1 0
1  109 0 0 4.5
2  217 30 115 0 4.5
2  218 51 116 0 4.5
0

0101000
+106 117 -111 117 *
Wi

0101100
+105 0 -279 119 +104 120 -110 0 *
Fa
0  1e-07 30 0

0101000
+103 0 *
Ve
1e-07
-9.5 -10.9999999999823 19
0 0

0101101
*
Ed
 1e-07 1 1 0
1  110 0 -10 0
2  219 31 106 -10 0
2  220 32 0 -10 0
0

0101000
+101 101 -278 101 *
Ed
 1e-07 1 1 0
1  111 0 0 2.5
2  221 31 115 0 2.5
2  222 51 116 0 2.5
0

0101000
+106 117 -101 117 *
Wi

0101100
-277 111 +100 0 +99 114 +105 106 *
Fa
0  1e-07 31 106

0101000
+98 0 *
Ed
 1e-07 1 1 0
1  112 0 7.91625833335075 8.91625833335061
2  223 32 108 7.91625833335075 8.91625833335061
2  224 44 109 7.91625833335075 8.91625833335061
0

0101000
+101 110 -196 110 *
Wi

0101100
-275 105 -194 0 +96 107 -100 0 *
Fa
0  1e-07 32 0

0101000
+95 0 *
Ve
1e-07
-14.0000002985559 -6.99999011386042 2.5
0 0

0101101
*
Ed
 1e-07 1 1 0
1  113 0 0 26.5
2  225 33 0 0 26.5
2  226 34 0 0 26.5
4 G1 33 0 34 0
0

0101000
+272 89 -93 89 *
Ed
 1e-07 1 1 0
1  114 0 3.14158935820993 4.71239241956291
2  227 33 92 3.14158935820993 4.71239241956291
2  228 43 93 3.14158935820993 4.71239241956291
0

0101000
+93 94 -193 94 *
Wi

0101100
+92 0 -271 96 +91 97 -192 0 *
Fa
0  1e-07 33 0

0101000
+90 0 *
Ve
1e-07
-14.0000008291007 33.4999892341919 2.5
0 0

0101101
*
Ed
 1e-07 1 1 0
1  115 0 0 40.4999793480524
2  229 34 92 0 40.4999793480524
2  230 43 93 0 40.4999793480524
0

0101000
+93 94 -88 94 *
Ed
 1e-07 1 1 0
1  116 0 0 26.5
2  231 34 0 0 26.5
2  232 35 0 0 26.5
4 G1 34 0 35 0
0

0101000
+270 89 -88 89 *
Wi

0101100
+92 0 -269 96 +87 97 -86 0 *
Fa
0  1e-07 34 0

0101000
+85 0 *
Ed
 1e-07 1 1 0
1  117 0 1.57079271076741 3.14159624219248
2  233 35 92 1.57079271076741 3.14159624219248
2  234 43 93 1.57079271076741 3.14159624219248
0

0101000
+218 94 -88 94 *
Wi

0101100
+216 0 -267 96 +83 97 -86 0 *
Fa
0  1e-07 35 0

0101000
+82 0 *
Ve
1e-07
16.05 -37 27.9
0 0

0101101
*
Ed
 1e-07 1 1 0
1  118 0 0 1.1
3  235 236CN 36 0 0 1.1
0

0101000
+262 136 -80 136 *
Ed
 1e-07 1 1 0
1  119 0 0 6.28318530717959
2  237 36 139 0 6.28318530717959
2  238 52 140 0 6.28318530717959
0

0101000
+80 141 -80 141 *
Wi

0101100
-261 135 -79 0 +78 138 +79 0 *
Fa
0  1e-07 36 0

0101000
+77 0 *
Ve
1e-07
-12.95 -37 27.9
0 0

0101101
*
Ed
 1e-07 1 1 0
1  120 0 0 1.1
3  239 240CN 37 0 0 1.1
0

0101000
+259 136 -75 136 *
Ed
 1e-07 1 1 0
1  121 0 0 6.28318530717959
2  241 37 139 0 6.28318530717959
2  242 53 140 0 6.28318530717959
0

0101000
+75 141 -75 141 *
Wi

0101100
-258 135 -74 0 +73 138 +74 0 *
Fa
0  1e-07 37 0

0101000
+72 0 *
Ve
1e-07
-12.95 -18 27.9
0 0

0101101
*
Ed
 1e-07 1 1 0
1  122 0 0 1.1
3  243 244CN 38 0 0 1.1
0

0101000
+256 136 -70 136 *
Ed
 1e-07 1 1 0
1  123 0 0 6.28318530717959
2  245 38 139 0 6.28318530717959
2  246 54 140 0 6.28318530717959
0

0101000
+70 141 -70 141 *
Wi

0101100
-255 135 -69 0 +68 138 +69 0 *
Fa
0  1e-07 38 0

0101000
+67 0 *
Ve
1e-07
16.05 -18 27.9
0 0

0101101
*
Ed
 1e-07 1 1 0
1  124 0 0 1.1
3  247 248CN 39 0 0 1.1
0

0101000
+253 136 -65 136 *
Ed
 1e-07 1 1 0
1  125 0 0 6.28318530717959
2  249 39 139 0 6.28318530717959
2  250 55 140 0 6.28318530717959
0

0101000
+65 141 -65 141 *
Wi

0101100
-252 135 -64 0 +63 138 +64 0 *
Fa
0  1e-07 39 0

0101000
+62 0 *
Ve
1e-07
-12.95 37 27.9
0 0

0101101
*
Ed
 1e-07 1 1 0
1  126 0 0 1.1
3  251 252CN 40 0 0 1.1
0

0101000
+250 136 -60 136 *
Ed
 1e-07 1 1 0
1  127 0 0 6.28318530717959
2  253 40 139 0 6.28318530717959
2  254 56 140 0 6.28318530717959
0

0101000
+60 141 -60 141 *
Wi

0101100
-249 135 -59 0 +58 138 +59 0 *
Fa
0  1e-07 40 0

0101000
+57 0 *
Ve
1e-07
16.05 37 27.9
0 0

0101101
*
Ed
 1e-07 1 1 0
1  128 0 0 1.1
3  255 256CN 41 0 0 1.1
0

0101000
+247 136 -55 136 *
Ed
 1e-07 1 1 0
1  129 0 0 6.28318530717959
2  257 41 139 0 6.28318530717959
2  258 57 140 0 6.28318530717959
0

0101000
+55 141 -55 141 *
Wi

0101100
-246 135 -54 0 +53 138 +54 0 *
Fa
0  1e-07 41 0

0101000
+52 0 *
Wi

0101100
+223 143 *
Ve
1e-07
7 -22.5 13
0 0

0101101
*
Ed
 1e-07 1 1 0
1  130 0 0 6.28318530717959
2  259 42 146 0 6.28318530717959
2  260 58 147 0 6.28318530717959
0

0101000
+49 148 -49 148 *
Wi

0101100
-48 145 *
Fa
0  1e-07 42 142

0101000
+50 0 +47 0 *
Wi

0101100
+87 0 -83 0 +217 0 -211 0 +207 0 -201 0 +191 0 -91 0 *
Fa
0  1e-07 43 0

0111000
+45 54 *
Ed
 1e-07 1 1 0
1  131 0 2.5 21.5
2  261 44 150 2.5 21.5
2  262 47 116 2.5 21.5
0

0101000
+101 117 -188 117 *
Wi

0101100
+96 107 -43 114 +186 107 -195 0 *
Fa
0  1e-07 44 103

0101000
+42 0 *
Ed
 1e-07 1 1 0
1  132 0 2.75054104484926 7.25054104484926
2  263 45 152 2.75054104484926 7.25054104484926
2  264 47 152 2.75054104484926 7.25054104484926
0

0101000
+188 110 -173 110 *
Wi

0101100
-40 107 +171 114 +177 114 +181 114 *
Fa
0  1e-07 45 151

0101000
+39 0 *
Ed
 1e-07 1 1 0
1  133 0 2.5 6.98324534342034
2  265 46 150 2.5 6.98324534342034
2  266 47 116 2.5 6.98324534342034
0

0101000
+173 117 -163 117 *
Wi

0101100
-37 114 +162 0 +166 107 *
Fa
0  1e-07 46 103

0101000
+36 0 *
Ed
 1e-07 1 1 0
1  134 0 3.41625833335075 7.91625833335075
2  267 47 152 3.41625833335075 7.91625833335075
2  268 51 152 3.41625833335075 7.91625833335075
0

0101000
+116 110 -101 110 *
Ed
 1e-07 1 1 0
1  135 0 17.0167544322893 21.5
2  269 47 116 17.0167544322893 21.5
2  270 50 150 17.0167544322893 21.5
0

0101000
+126 117 -116 117 *
Ed
 1e-07 1 1 0
1  136 0 -2.49999999999992 7.50000000000035
2  271 47 124 -2.49999999999992 7.50000000000035
2  272 48 123 -2.49999999999992 7.50000000000035
0

0101000
+127 112 -161 112 *
Wi

0101100
+34 107 +33 114 +125 106 -32 106 +160 106 +37 114 +40 107 +43 114 *
Fa
0  1e-07 47 151

0101000
+31 0 *
Ed
 1e-07 1 1 0
1  137 0 0 10.0000000000003
2  273 48 128 0 10.0000000000003
2  274 49 129 0 10.0000000000003
0

0101000
+121 130 -159 130 *
Wi

0101100
-32 106 +119 121 -158 121 +29 127 *
Fa
0  1e-07 48 121

0101000
+28 0 *
Wi

0101100
+131 154 -135 154 -120 154 -140 154 +29 154 -145 154 -156 154 -150 154 *
Ve
1e-07
7 -22.5 14
0 0

0101101
*
Ed
 1e-07 1 1 0
1  138 0 0 6.28318530717959
2  275 49 157 0 6.28318530717959
2  276 58 158 0 6.28318530717959
0

0101000
+25 159 -25 159 *
Wi

0101100
-24 156 *
Fa
0  1e-07 49 153

0101000
+26 0 +23 0 *
Wi

0101100
+114 107 +123 0 -33 114 *
Fa
0  1e-07 50 103

0101000
+21 0 *
Wi

0101100
-104 114 +109 114 -34 107 +99 114 *
Fa
0  1e-07 51 151

0101000
+19 0 *
Wi

0101100
+78 0 *
Fa
0  1e-07 52 0

0101000
+17 74 *
Wi

0101100
+73 0 *
Fa
0  1e-07 53 0

0101000
+15 74 *
Wi

0101100
+68 0 *
Fa
0  1e-07 54 0

0101000
+13 74 *
Wi

0101100
+63 0 *
Fa
0  1e-07 55 0

0101000
+11 74 *
Wi

0101100
+58 0 *
Fa
0  1e-07 56 0

0101000
+9 74 *
Wi

0101100
+53 0 *
Fa
0  1e-07 57 0

0101000
+7 74 *
Ed
 1e-07 1 1 0
1  139 0 0 1
3  277 278CN 58 0 0 1
0

0101000
+49 161 -25 161 *
Wi

0101100
-48 145 -5 0 +24 156 +5 0 *
Fa
0  1e-07 58 0

0101000
+4 0 *
Sh

0101100
+339 6 +329 38 +324 46 -244 6 +239 6 +234 6 -231 6 +228 46 +226 46 -221 38 
+214 6 -209 95 +204 95 -199 95 +189 98 +184 98 +179 98 +174 118 +169 98 +164 98 
-153 98 -148 131 -143 131 -138 131 -133 131 +128 131 -117 98 +112 98 +107 98 -102 118 
+97 98 +94 98 -89 95 +84 95 -81 95 -76 134 -71 134 -66 134 -61 134 -56 134 
-51 134 +46 0 -44 149 -41 98 -38 98 -35 98 -30 98 +27 98 -22 0 -20 98 
-18 98 +16 160 +14 160 +12 160 +10 160 +8 160 +6 160 -3 0 *
So

1100000
+2 0 *

+1 1 