DBRep_DrawableShape

CASCADE Topology V1, (c) Matra-Datavision
Locations 15
1
              1               0               0               0 
              0               1               0               0 
              0               0               1               0 
2  1 -1 0
1
              1               0               0               0 
              0               1               0               0 
              0               0               1               0 
1
              1               0               0               0 
              0               1               0               0 
              0               0               1               0 
1
              1               0               0              -0 
              0               1               0              -0 
              0               0               1           -13.5 
2  3 1 4 -1 5 1 0
2  5 -1 4 1 3 -1 0
2  3 -1 0
2  1 -1 5 -1 4 1 3 -1 0
1
              1               0               0               0 
              0               1               0               0 
              0               0               1              27 
2  3 1 4 -1 5 1 10 1 0
2  10 -1 5 -1 4 1 3 -1 0
2  1 -1 10 -1 5 -1 4 1 3 -1 0
2  4 -1 5 1 0
2  4 -1 5 1 10 1 0
Curve2ds 24
1 0 0 0 -1 
1 80 0 0 -1 
1 35 0 0 -1 
1 0 0 0 -1 
1 0 0 1 0 
1 0 0 1 0 
1 0 -27 1 0 
1 0 0 1 0 
1 80 0 0 -1 
1 0 -0 0 -1 
1 0 0 1 0 
1 35 0 0 -1 
1 0 -27 1 0 
1 35 0 0 -1 
1 35 0 0 -1 
1 0 0 0 -1 
1 0 -0 1 0 
1 35 -80 -1 0 
1 0 -27 1 0 
1 35 -80 -1 0 
1 0 0 1 0 
1 0 -80 0 1 
1 0 -27 1 0 
1 0 -80 0 1 
Curves 12
1 -17.5 40 -13.5 0 0 1 
1 17.5 40 -13.5 0 0 1 
1 -17.5 40 0 1 0 0 
1 -17.5 40 0 1 0 0 
1 17.5 -40 -13.5 0 0 1 
1 17.5 40 0 0 -1 0 
1 17.5 40 0 0 -1 0 
1 -17.5 -40 -13.5 0 0 1 
1 17.5 -40 0 -1 0 0 
1 17.5 -40 0 -1 0 0 
1 -17.5 -40 0 0 1 0 
1 -17.5 -40 0 0 1 0 
Polygon3D 0
PolygonOnTriangulations 0
Surfaces 6
1 -17.5 40 -13.5 0 1 0 1 0 0 0 0 -1 
1 -17.5 -40 -13.5 -1 0 0 0 1 0 0 0 -1 
1 17.5 40 -13.5 1 0 -0 0 -1 0 0 -0 -1 
1 -17.5 40 0 -0 0 1 1 0 0 0 1 -0 
1 -17.5 40 0 -0 0 1 1 0 0 0 1 -0 
1 17.5 -40 -13.5 0 -1 0 -1 0 0 -0 -0 -1 
Triangulations 0

TShapes 34
Ve
1e-07
-17.5 40 -13.5
0 0

0101101
*
Ve
1e-07
-17.5 40 13.5
0 0

0101101
*
Ed
 1e-07 1 1 0
1  1 0 0 27
2  1 1 0 0 27
2  2 2 0 0 27
0

0101000
+34 2 -33 2 *
Ve
1e-07
17.5 40 -13.5
0 0

0101101
*
Ve
1e-07
17.5 40 13.5
0 0

0101101
*
Ed
 1e-07 1 1 0
1  2 0 0 27
2  3 1 0 0 27
2  4 3 0 0 27
0

0101000
+31 2 -30 2 *
Ed
 1e-07 1 1 0
1  3 0 0 35
2  5 1 7 0 35
2  6 4 8 0 35
0

0101000
+34 9 -31 9 *
Ed
 1e-07 1 1 0
1  4 0 0 35
2  7 1 12 0 35
2  8 5 8 0 35
0

0101000
+33 13 -30 13 *
Wi

0101000
+32 0 -29 0 -28 6 +27 11 *
Fa
0  1e-07 1 0

0111000
+26 0 *
Ve
1e-07
17.5 -40 -13.5
0 0

0101101
*
Ve
1e-07
17.5 -40 13.5
0 0

0101101
*
Ed
 1e-07 1 1 0
1  5 0 0 27
2  9 3 0 0 27
2  10 6 0 0 27
0

0101000
+24 2 -23 2 *
Ed
 1e-07 1 1 0
1  6 0 0 80
2  11 3 7 0 80
2  12 4 8 0 80
0

0101000
+31 9 -24 9 *
Ed
 1e-07 1 1 0
1  7 0 0 80
2  13 3 12 0 80
2  14 5 8 0 80
0

0101000
+30 13 -23 13 *
Wi

0101000
+29 0 -22 0 -21 6 +20 11 *
Fa
0  1e-07 3 0

0111000
+19 0 *
Ve
1e-07
-17.5 -40 -13.5
0 0

0101101
*
Ve
1e-07
-17.5 -40 13.5
0 0

0101101
*
Ed
 1e-07 1 1 0
1  8 0 0 27
2  15 6 0 0 27
2  16 2 0 0 27
0

0101000
+17 2 -16 2 *
Ed
 1e-07 1 1 0
1  9 0 0 35
2  17 6 7 0 35
2  18 4 8 0 35
0

0101000
+24 9 -17 9 *
Ed
 1e-07 1 1 0
1  10 0 0 35
2  19 6 12 0 35
2  20 5 8 0 35
0

0101000
+23 13 -16 13 *
Wi

0101000
+22 0 -15 0 -14 6 +13 11 *
Fa
0  1e-07 6 0

0111000
+12 0 *
Ed
 1e-07 1 1 0
1  11 0 0 80
2  21 2 7 0 80
2  22 4 8 0 80
0

0101000
+17 9 -34 9 *
Ed
 1e-07 1 1 0
1  12 0 0 80
2  23 2 12 0 80
2  24 5 8 0 80
0

0101000
+16 13 -33 13 *
Wi

0101000
+15 0 -32 0 -10 6 +9 11 *
Fa
0  1e-07 2 0

0111000
+8 0 *
Wi

0101100
+28 0 +21 0 +14 0 +10 0 *
Fa
0  1e-07 4 0

0111000
-6 3 *
Wi

0101100
+27 0 +20 0 +13 0 +9 0 *
Fa
0  1e-07 5 0

0111000
-4 3 *
Sh

0101100
-25 0 -18 0 -11 0 -7 0 +5 14 -3 15 *
So

1100100
-2 0 *

+1 1 