DBRep_DrawableShape

CASCADE Topology V1, (c) Matra-Datavision
Locations 10
1
              1               0               0              -0 
              0               1               0               0 
              0               0               1            13.5 
1
              1               0               0               0 
              0               1               0               0 
              0               0               1               0 
2  1 1 2 -1 0
2  2 1 1 -1 0
2  1 -1 0
1
              1               0               0              -0 
              0               1               0              -0 
              0               0               1             -10 
2  1 1 2 -1 6 1 0
2  6 -1 2 1 1 -1 0
2  2 -1 0
2  2 -1 6 1 0
Curve2ds 24
1 0 0 0 -1 
1 0 0 0 -1 
1 24 0 0 -1 
1 0 0 0 -1 
1 0 0 1 0 
1 12 2.25 -1 0 
1 0 -10 1 0 
1 12 2.25 -1 0 
1 4.5 0 0 -1 
1 0 0 0 -1 
1 0 0 1 0 
1 -12 2.25 0 -1 
1 0 -10 1 0 
1 -12 2.25 0 -1 
1 24 0 0 -1 
1 4.5 0 0 -1 
1 0 0 1 0 
1 -12 -2.25 1 0 
1 0 -10 1 0 
1 -12 -2.25 1 0 
1 0 0 1 0 
1 12 2.25 0 -1 
1 0 -10 1 0 
1 12 2.25 0 -1 
Curves 12
1 -12 -11.000000000000002 13.5 -0 -0 -1 
1 12 -11.000000000000002 13.5 -0 -0 -1 
1 -12 -11.000000000000002 0 1 0 0 
1 -12 -11.000000000000002 0 1 0 0 
1 12 -15.500000000000002 13.5 -0 -0 -1 
1 12 -11.000000000000002 0 0 -1 0 
1 12 -11.000000000000002 0 0 -1 0 
1 -12 -15.500000000000002 13.5 -0 -0 -1 
1 12 -15.500000000000002 0 -1 0 0 
1 12 -15.500000000000002 0 -1 0 0 
1 -12 -11.000000000000002 0 0 -1 0 
1 -12 -11.000000000000002 0 0 -1 0 
Polygon3D 0
PolygonOnTriangulations 0
Surfaces 6
1 -12 -11.000000000000002 13.5 0 -1 0 1 0 0 -0 0 1 
1 -12 -11.000000000000002 13.5 -1 0 0 0 -1 0 0 0 1 
1 12 -11.000000000000002 13.5 -1 0 0 0 -1 0 0 0 1 
1 0 -13.250000000000002 13.5 -0 -0 -1 -1 0 0 0 1 -0 
1 0 -13.250000000000002 13.5 -0 -0 -1 -1 0 0 0 1 -0 
1 12 -15.500000000000002 13.5 0 1 -0 -1 0 0 0 0 1 
Triangulations 0

TShapes 34
Ve
1e-07
-12 -11 13.5
0 0

0101101
*
Ve
1e-07
-12 -11 3.5
0 0

0101101
*
Ed
 1e-07 1 1 0
1  1 0 0 10
2  1 1 0 0 10
2  2 2 0 0 10
0

0101000
+34 0 -33 0 *
Ve
1e-07
12 -11 13.5
0 0

0101101
*
Ve
1e-07
12 -11 3.5
0 0

0101101
*
Ed
 1e-07 1 1 0
1  2 0 0 10
2  3 1 0 0 10
2  4 3 0 0 10
0

0101000
+31 0 -30 0 *
Ed
 1e-07 1 1 0
1  3 0 0 24
2  5 1 4 0 24
2  6 4 5 0 24
0

0101000
+34 4 -31 4 *
Ed
 1e-07 1 1 0
1  4 0 0 24
2  7 1 8 0 24
2  8 5 5 0 24
0

0101000
+33 8 -30 8 *
Wi

0101100
+32 0 -29 0 -28 3 +27 7 *
Fa
0  1e-07 1 0

0111000
+26 0 *
Ve
1e-07
12 -15.5 13.5
0 0

0101101
*
Ve
1e-07
12 -15.5 3.5
0 0

0101101
*
Ed
 1e-07 1 1 0
1  5 0 0 10
2  9 3 0 0 10
2  10 6 0 0 10
0

0101000
+24 0 -23 0 *
Ed
 1e-07 1 1 0
1  6 0 0 4.5
2  11 3 4 0 4.5
2  12 4 5 0 4.5
0

0101000
+31 4 -24 4 *
Ed
 1e-07 1 1 0
1  7 0 0 4.5
2  13 3 8 0 4.5
2  14 5 5 0 4.5
0

0101000
+30 8 -23 8 *
Wi

0101100
+29 0 -22 0 -21 3 +20 7 *
Fa
0  1e-07 3 0

0111000
+19 0 *
Ve
1e-07
-12 -15.5 13.5
0 0

0101101
*
Ve
1e-07
-12 -15.5 3.5
0 0

0101101
*
Ed
 1e-07 1 1 0
1  8 0 0 10
2  15 6 0 0 10
2  16 2 0 0 10
0

0101000
+17 0 -16 0 *
Ed
 1e-07 1 1 0
1  9 0 0 24
2  17 6 4 0 24
2  18 4 5 0 24
0

0101000
+24 4 -17 4 *
Ed
 1e-07 1 1 0
1  10 0 0 24
2  19 6 8 0 24
2  20 5 5 0 24
0

0101000
+23 8 -16 8 *
Wi

0101100
+22 0 -15 0 -14 3 +13 7 *
Fa
0  1e-07 6 0

0111000
+12 0 *
Ed
 1e-07 1 1 0
1  11 0 0 4.5
2  21 2 4 0 4.5
2  22 4 5 0 4.5
0

0101000
+34 4 -17 4 *
Ed
 1e-07 1 1 0
1  12 0 0 4.5
2  23 2 8 0 4.5
2  24 5 5 0 4.5
0

0101000
+33 8 -16 8 *
Wi

0101100
+32 0 -15 0 -10 3 +9 7 *
Fa
0  1e-07 2 0

0111000
+8 0 *
Wi

0101100
+28 0 +21 0 +14 0 -10 0 *
Fa
0  1e-07 4 0

0111000
+6 1 *
Wi

0101100
+27 0 +20 0 +13 0 -9 0 *
Fa
0  1e-07 5 0

0111000
+4 1 *
Sh

0101100
+25 0 +18 0 +11 0 -7 0 +5 9 -3 10 *
So

1100000
-2 0 *

+1 0 