DBRep_DrawableShape

CASCADE Topology V1, (c) Matra-Datavision
Locations 127
1
              1               0               0               0 
              0               1               0               0 
              0               0               1               0 
1
              1               0               0               0 
              0               1               0               0 
              0               0               1               0 
1
              1               0               0               0 
              0               1               0               0 
              0               0               1               0 
1
              1               0               0               0 
              0               1               0               0 
              0               0               1               0 
1
              1               0               0               0 
              0               1               0               0 
              0               0               1               0 
1
              1               0               0               0 
              0               1               0               0 
              0               0               1               0 
1
              1               0               0               0 
              0               1               0               0 
              0               0               1               0 
1
              1               0               0               0 
              0               1               0               0 
              0               0               1               0 
1
              1               0               0               0 
              0               1               0               0 
              0               0               1               0 
1
              1               0               0               0 
              0               1               0               0 
              0               0               1               0 
1
              1               0               0               0 
              0               1               0               0 
              0               0               1               0 
2  2 1 3 -1 4 1 5 -1 6 1 7 1 8 1 9 1 10 1 11 1 0
1
              1               0               0               0 
              0               1               0               0 
              0               0               1               0 
1
              1               0               0              -0 
              0               1               0              -0 
              0               0               1           -13.5 
1
              1               0               0               0 
              0               1               0               0 
              0               0               1              27 
1
              1               0               0               0 
              0               1               0               0 
              0               0               1               0 
1
              1               0               0               0 
              0               1               0               0 
              0               0               1               0 
1
              1               0               0               0 
              0               1               0               0 
              0               0               1               0 
1
              1               0               0               0 
              0               1               0               0 
              0               0               1               0 
2  13 -1 14 1 15 1 16 1 17 -1 18 1 19 -1 0
2  11 -1 10 -1 9 -1 8 -1 7 -1 6 -1 5 1 4 -1 3 1 2 -1 0
1
              1               0               0              -0 
              0               1               0               0 
              0               0               1            13.5 
2  22 1 19 -1 2 1 3 -1 4 1 5 -1 6 1 7 1 8 1 9 1 10 1 11 1 0
2  13 -1 14 1 15 1 16 1 17 -1 18 1 22 -1 0
2  19 1 22 -1 0
2  1 -1 11 -1 10 -1 9 -1 8 -1 7 -1 6 -1 5 1 4 -1 3 1 2 -1 19 1 22 -1 0
2  13 -1 14 1 15 1 16 1 17 -1 18 1 19 -1 2 1 3 -1 4 1 5 -1 6 1 7 1 8 1 9 1 10 1 11 1 0
2  1 -1 0
2  13 -1 14 1 15 1 16 1 17 -1 18 1 19 -1 2 1 3 -1 4 1 5 -1 6 1 7 1 8 1 9 1 10 1 0
2  1 -1 11 -1 0
2  9 -1 8 -1 7 -1 6 -1 5 1 4 -1 3 1 2 -1 0
1
              1               0               0              -0 
              0               1               0               0 
              0               0               1            13.5 
2  32 1 17 -1 18 1 19 -1 2 1 3 -1 4 1 5 -1 6 1 7 1 8 1 9 1 0
2  13 -1 14 1 15 1 16 1 32 -1 0
2  17 1 32 -1 0
2  1 -1 11 -1 10 -1 9 -1 8 -1 7 -1 6 -1 5 1 4 -1 3 1 2 -1 19 1 18 -1 17 1 32 -1 0
2  13 -1 14 1 15 1 16 1 17 -1 18 1 19 -1 2 1 3 -1 4 1 5 -1 6 1 7 1 8 1 9 1 0
2  1 -1 11 -1 10 -1 0
2  13 -1 14 1 15 1 16 1 17 -1 18 1 19 -1 2 1 3 -1 4 1 5 -1 6 1 7 1 8 1 0
2  1 -1 11 -1 10 -1 9 -1 0
2  7 1 8 1 9 1 0
2  13 -1 14 1 15 1 16 1 17 -1 18 1 19 -1 2 1 3 -1 4 1 5 -1 6 1 0
2  1 -1 11 -1 10 -1 9 -1 8 -1 7 -1 0
2  8 1 9 1 0
2  13 -1 14 1 15 1 16 1 17 -1 18 1 19 -1 2 1 3 -1 4 1 5 -1 6 1 7 1 0
2  1 -1 11 -1 10 -1 9 -1 8 -1 0
1
              1               0               0               0 
              0               1               0               0 
              0               0               1               0 
2  47 1 13 -1 14 1 15 1 16 1 17 -1 18 1 19 -1 0
2  47 -1 0
2  15 -1 14 -1 13 1 47 -1 0
2  1 -1 11 -1 10 -1 9 -1 8 -1 7 -1 6 -1 5 1 4 -1 3 1 2 -1 19 1 18 -1 17 1 16 -1 15 -1 14 -1 13 1 47 -1 0
2  2 1 3 -1 4 1 5 -1 6 1 7 1 8 1 9 1 10 1 0
1
              1               0               0              -0 
              0               1               0              -0 
              0               0               1             -15 
2  22 1 19 -1 53 1 2 1 3 -1 4 1 5 -1 6 1 7 1 8 1 9 1 10 1 11 1 0
2  53 -1 19 1 22 -1 0
2  22 -1 0
2  1 -1 11 -1 10 -1 9 -1 8 -1 7 -1 6 -1 5 1 4 -1 3 1 2 -1 53 -1 19 1 22 -1 0
2  19 -1 53 1 2 1 3 -1 4 1 5 -1 6 1 7 1 8 1 9 1 10 1 11 1 0
2  19 -1 53 1 2 1 3 -1 4 1 5 -1 6 1 7 1 8 1 9 1 10 1 0
2  1 -1 11 -1 10 -1 9 -1 8 -1 7 -1 6 -1 5 1 4 -1 3 1 2 -1 0
2  10 -1 9 -1 8 -1 7 -1 6 -1 5 1 4 -1 3 1 2 -1 0
2  22 1 19 -1 2 1 3 -1 4 1 5 -1 6 1 7 1 8 1 9 1 10 1 0
2  22 1 19 -1 53 1 2 1 3 -1 4 1 5 -1 6 1 7 1 8 1 9 1 10 1 0
2  22 1 19 -1 0
2  22 1 19 -1 53 1 0
2  6 1 7 1 8 1 9 1 10 1 11 1 0
2  2 1 3 -1 4 1 5 -1 0
2  22 1 19 -1 2 1 3 -1 4 1 5 -1 0
2  22 1 19 -1 53 1 2 1 3 -1 4 1 5 -1 0
2  5 1 4 -1 3 1 2 -1 53 -1 19 1 22 -1 0
2  18 1 19 -1 2 1 3 -1 4 1 5 -1 6 1 7 1 8 1 9 1 10 1 11 1 0
2  9 -1 8 -1 7 -1 6 -1 5 1 4 -1 3 1 2 -1 19 1 18 -1 0
2  18 1 19 -1 2 1 3 -1 4 1 5 -1 6 1 7 1 8 1 9 1 0
2  18 1 19 -1 2 1 3 -1 4 1 5 -1 6 1 7 1 8 1 0
1
              1               0               0              -0 
              0               1               0              -0 
              0               0               1           -23.5 
2  32 1 17 -1 75 1 18 1 19 -1 2 1 3 -1 4 1 5 -1 6 1 7 1 8 1 9 1 0
2  75 -1 17 1 32 -1 0
2  32 -1 0
2  1 -1 11 -1 10 -1 9 -1 8 -1 7 -1 6 -1 5 1 4 -1 3 1 2 -1 19 1 18 -1 75 -1 17 1 32 -1 0
2  10 1 11 1 0
2  17 -1 75 1 18 1 19 -1 2 1 3 -1 4 1 5 -1 6 1 7 1 8 1 9 1 0
2  9 1 10 1 11 1 0
2  17 -1 75 1 18 1 19 -1 2 1 3 -1 4 1 5 -1 6 1 7 1 8 1 0
2  18 1 19 -1 2 1 3 -1 4 1 5 -1 6 1 0
2  8 -1 7 -1 6 -1 5 1 4 -1 3 1 2 -1 19 1 18 -1 0
2  32 1 17 -1 18 1 19 -1 2 1 3 -1 4 1 5 -1 6 1 7 1 8 1 0
2  18 1 19 -1 2 1 3 -1 4 1 5 -1 6 1 7 1 0
2  32 1 17 -1 75 1 18 1 19 -1 2 1 3 -1 4 1 5 -1 6 1 7 1 8 1 0
2  7 1 8 1 9 1 10 1 11 1 0
2  17 -1 75 1 18 1 19 -1 2 1 3 -1 4 1 5 -1 6 1 0
2  8 1 9 1 10 1 11 1 0
2  17 -1 75 1 18 1 19 -1 2 1 3 -1 4 1 5 -1 6 1 7 1 0
2  7 -1 6 -1 5 1 4 -1 3 1 2 -1 19 1 18 -1 0
2  32 1 17 -1 18 1 19 -1 2 1 3 -1 4 1 5 -1 6 1 7 1 0
2  32 1 17 -1 75 1 18 1 19 -1 2 1 3 -1 4 1 5 -1 6 1 7 1 0
2  16 1 17 -1 18 1 19 -1 2 1 3 -1 4 1 5 -1 6 1 7 1 8 1 9 1 10 1 11 1 0
2  1 -1 11 -1 10 -1 9 -1 8 -1 7 -1 6 -1 5 1 4 -1 3 1 2 -1 19 1 18 -1 17 1 16 -1 0
2  47 1 13 -1 14 1 0
2  14 -1 13 1 47 -1 0
2  1 -1 11 -1 10 -1 9 -1 8 -1 7 -1 6 -1 5 1 4 -1 3 1 2 -1 19 1 18 -1 17 1 16 -1 14 -1 13 1 47 -1 0
2  47 1 13 -1 14 1 15 1 0
2  19 -1 53 1 2 1 3 -1 4 1 5 -1 0
2  11 -1 10 -1 9 -1 8 -1 7 -1 6 -1 0
2  1 -1 11 -1 10 -1 9 -1 8 -1 7 -1 6 -1 0
2  17 -1 75 1 18 1 19 -1 2 1 3 -1 4 1 5 -1 6 1 7 1 8 1 9 1 10 1 11 1 0
2  9 -1 8 -1 7 -1 6 -1 5 1 4 -1 3 1 2 -1 19 1 18 -1 75 -1 17 1 0
2  4 1 5 -1 6 1 7 1 8 1 9 1 10 1 11 1 0
2  13 -1 14 1 16 1 17 -1 18 1 19 -1 2 1 3 -1 0
2  47 1 13 -1 14 1 16 1 17 -1 18 1 19 -1 2 1 3 -1 0
1
              1               0               0              -0 
              0              -1               0              -0 
              0               0              -1           -13.5 
2  110 1 3 -1 0
2  13 -1 14 1 16 1 17 -1 18 1 19 -1 2 1 110 -1 0
2  3 1 110 -1 0
2  1 -1 11 -1 10 -1 9 -1 8 -1 7 -1 6 -1 5 1 4 -1 3 1 110 -1 0
1
              1               0               0              -0 
              0              -1               0              -0 
              0               0              -1            -2.5 
2  115 1 5 -1 0
2  5 1 115 -1 0
1
              1               0               0               0 
              0               1               0               0 
              0               0               1              11 
2  3 -1 118 1 4 1 115 -1 0
2  1 -1 11 -1 10 -1 9 -1 8 -1 7 -1 6 -1 5 1 115 -1 0
2  1 -1 11 -1 10 -1 9 -1 8 -1 7 -1 6 -1 5 1 4 -1 0
2  110 1 3 -1 118 1 0
2  118 -1 3 1 110 -1 0
2  110 -1 0
2  1 -1 11 -1 10 -1 9 -1 8 -1 7 -1 6 -1 5 1 4 -1 118 -1 3 1 110 -1 0
2  3 -1 118 1 4 1 5 -1 0
2  110 1 3 -1 118 1 4 1 5 -1 0
Curve2ds 140
1 29.999999999918 -75 -1 0 
1 0 0 1 0 
2 26.999999999918 -72 0 1 -1 0 3
1 -3.1415926535897931 0 1 0 
2 8.0000000000019824 -72 0 1 -1 0 3
1 -1.5707963267948966 0 1 0 
1 29.999999999918 -75 0 1 
1 0 0 1 0 
1 5.0000000000019824 -75 0 1 
1 0 0 1 0 
2 22.499988019301 -63.000035143291996 1 0 -0 1 7.500011980699
1 0 0 1 0 
2 12.499987660767999 -62.999994546403997 1 0 -0 1 7.4999876607680003
1 0 0 1 0 
1 12.499999999979424 -55.500006885646151 0.99999999999867539 -1.6276946848046325e-06 
1 0 0 1 0 
1 31.5 -50 -1 -6.3441315692866085e-17 
1 0 0 1 0 
2 28.5 -47 0 1 -1 0 3
1 -3.1415926535897931 0 1 0 
2 6.5 -47 0 1 -1 0 3
1 -1.5707963267948966 0 1 0 
1 31.5 -3.5 0 -1 
1 0 0 1 0 
1 3.5 -50 0 1 
1 0 0 1 0 
2 28.5 -6.5 0 1 1 -0 3
1 0 0 1 0 
2 6.5 -6.5 0 1 -1 0 3
1 0 0 1 0 
1 3.5 -3.5 1 0 
1 0 0 1 0 
1 0 0 1 0 
1 0 -27 1 0 
1 0 -80 0 1 
1 0 -27 1 0 
1 35 0 0 -1 
1 0 -27 1 0 
1 35 -80 -1 0 
1 0 -27 1 0 
1 3 0 0 -1 
1 0 0 0 1 
1 21.999999999916017 0 0 -1 
1 1.5707963267948966 0 0 1 
1 0 -15 1 0 
1 -12.500003993834357 -8.8365272117530935 1 -2.6825476110736978e-64 
1 1.5707963267948966 0 0 1 
1 3 0 -0 -1 
1 -3.1415926535897931 15.000000000000002 1 0 
2 -9.5000039938343566 -5.8365272117530935 0 1 1 -0 3
1 0 0 0 1 
1 3 0 -0 -1 
1 -1.5707963267948966 15.000000000000002 1 0 
2 9.4999960060816608 -5.8365272117530935 0 1 1 -0 3
1 12.00000000005414 0 0 -1 
1 4.6857720000000002e-06 0 0 -1 
1 0 -15 1 0 
1 -12.500003993834357 -8.8365272117530935 0 1 
1 12.000000000008214 0 0 -1 
1 3.1415933807359999 0 0 -1 
1 0 -15 1 0 
1 12.499996006081661 -8.8365272117530935 0 1 
1 0 -15 1 0 
2 -4.9999920132173559 3.1634376449549073 -1 2.6825476110736978e-64 2.6825476110736978e-64 1 7.500011980699
1 1.570794729368 0 0 -1 
1 10.000000000055755 0 0 -1 
1 1.5707946815639999 0 0 -1 
1 0 0 0 -1 
1 0 -15 1 0 
2 5.0000083453156439 3.1634782418429062 -1 2.6825476110736978e-64 2.6825476110736978e-64 1 7.4999876607680003
1 0 -15 1 0 
1 4.9999960061042197 10.663465902600755 -0.99999999999867539 -1.6276946848046325e-06 
1 0 -15 1 0 
1 4.9999960061042197 10.663465902600755 -0.99999999999867539 -1.6276946848046325e-06 
1 0 -15 1 0 
1 4.9999960061042197 10.663465902600755 -0.99999999999867539 -1.6276946848046325e-06 
1 3 0 0 -1 
1 0 0 0 1 
1 25 0 0 -1 
1 1.5707963267948968 0 0 1 
1 -0 -23.5 1 0 
1 -14 -23.25 1 -6.3441315692866085e-17 
1 1.5707963267948966 0 0 1 
1 43.5 0 0 -1 
1 -3.1415926535897931 23.5 1 0 
2 -11 -20.25 0 1 1 -0 3
1 0 0 0 1 
1 3 0 -0 -1 
1 -1.5707963267948966 23.5 1 0 
2 11 -20.25 0 1 1 -0 3
1 3 0 0 -1 
1 1.5707963267948966 0 0 1 
1 0 -23.5 1 0 
1 -14 23.25 0 -1 
1 43.5 0 -0 -1 
1 1.5707963267948966 0 0 1 
1 0 -23.5 1 0 
1 14 -23.25 0 1 
1 0 0 0 1 
1 25 0 -0 -1 
1 0 23.5 1 0 
2 -11 20.25 0 1 -1 0 3
1 0 0 0 1 
1 3 0 -0 -1 
1 0 23.5 1 0 
2 11 20.25 0 1 1 -0 3
1 0 -23.5 1 0 
1 14 23.25 -1 0 
1 0 0 0 -1 
1 80 0 0 -1 
1 35 0 0 -1 
1 0 0 0 -1 
1 0 0 1 0 
1 0 0 1 0 
1 0 0 0 -1 
1 35 0 0 -1 
1 0 0 1 0 
1 0 -80 0 1 
1 80 0 0 -1 
1 0 -0 0 -1 
1 0 0 1 0 
1 35 0 0 -1 
1 0 -0 1 0 
1 35 -80 -1 0 
2 -3.9939163559387778e-06 3.6634727882469065 -1 2.6825476110736978e-64 -2.6825476110736978e-64 -1 7
1 0 -0.99999999999999822 1 0 
2 -3.9939163559387778e-06 3.6634727882469065 -1 2.6825476110736978e-64 -2.6825476110736978e-64 -1 7
1 0 -0.99999999999999822 1 0 
2 -3.9939163559387778e-06 3.6634727882469065 -1 2.6825476110736978e-64 -2.6825476110736978e-64 -1 7
1 0 -0.99999999999999822 1 0 
2 17.5 -62.5 1 0 0 -1 8
1 0 0 1 0 
1 0 0 0 -1 
1 6.2831853071795862 0 0 -1 
1 0 0 1 0 
2 -6.8372006626971174e-16 3.5527136788005009e-15 -1 0 -0 -1 7
1 0 0 0 -1 
1 6.2831853071795862 0 0 -1 
1 0 -11 1 0 
2 -6.8372006626971174e-16 3.5527136788005009e-15 -1 0 -0 -1 8
Curves 70
1 12.499999999918 -35 0 -1 0 0 
8 3.1415926535897931 4.7123889803846897
2 9.4999999999179998 -32 13.5 0 0 1 0 1 -0 -1 0 0 3
8 1.5707963267948966 3.1415926535897931
2 -9.4999999999980176 -32 13.5 0 0 1 0 1 -0 -1 0 0 3
1 12.499999999918 -35 0 0 1 0 
1 -12.499999999998018 -35 0 0 1 0 
2 4.999988019301 -23.000035143291999 0 0 0 1 1 0 -0 -0 1 0 7.500011980699
2 -5.0000123392319997 -22.999994546404 0 0 0 1 1 0 -0 -0 1 0 7.4999876607680003
1 -5.0000000000205755 -15.500006885646151 0 0.99999999999867539 -1.6276946848046325e-06 0 
1 14 -10 0 -1 -6.3441315692866085e-17 0 
8 3.1415926535897931 4.7123889803846897
2 11 -7 13.5 0 0 1 0 1 -0 -1 0 0 3
8 1.5707963267948966 3.1415926535897931
2 -11 -7.0000000000000018 13.5 0 0 1 0 1 -0 -1 0 0 3
1 14 36.5 0 0 -1 0 
1 -14 -10.000000000000002 0 0 1 0 
8 0 1.5707963267948966
2 11 33.5 13.5 -0 -0 -1 0 1 -0 1 -0 0 3
8 0 1.5707963267948966
2 -11 33.5 13.5 0 0 1 0 1 -0 -1 0 0 3
1 -14 36.5 0 1 0 0 
1 -17.5 40 0 1 0 0 
1 -17.5 -40 0 0 1 0 
1 17.5 40 0 0 -1 0 
1 17.5 -40 0 -1 0 0 
1 9.4999999999179998 -35 13.5 -0 -0 -1 
1 -9.4999999999980176 -35 13.5 -0 -0 -1 
1 12.499999999918 -35 0 -1 0 0 
1 12.499999999918 -32 13.5 -0 -0 -1 
8 3.1415926535897931 4.7123889803846897
2 9.4999999999179998 -32 -1.5000000000000018 0 0 1 0 1 -0 -1 0 0 3
1 -12.499999999998018 -32 13.5 -0 -0 -1 
8 1.5707963267948966 3.1415926535897931
2 -9.4999999999980176 -32 -1.5000000000000018 0 0 1 0 1 -0 -1 0 0 3
1 12.499999999917831 -22.99999999994586 13.5 -0 -0 -1 
1 12.499999999918 -35 0 0 1 0 
1 -12.499999999998018 -22.999999999991786 13.5 -0 -0 -1 
1 -12.499999999998018 -35 0 0 1 0 
2 4.999988019301 -23.000035143291999 0 0 0 1 1 0 -0 -0 1 0 7.500011980699
1 5.0000000000219309 -15.500023162597785 13.5 -0 -0 -1 
1 -5.0000000000205755 -15.500006885646151 13.5 -0 -0 -1 
2 -5.0000123392319997 -22.999994546404 0 0 0 1 1 0 -0 -0 1 0 7.4999876607680003
1 -5.0000000000205755 -15.500006885646151 0 0.99999999999867539 -1.6276946848046325e-06 0 
1 -5.0000000000205755 -15.500006885646151 0 0.99999999999867539 -1.6276946848046325e-06 0 
1 -5.0000000000205755 -15.500006885646151 0 0.99999999999867539 -1.6276946848046325e-06 0 
1 11 -10 13.5 -0 -0 -1 
1 -11 -10.000000000000002 13.5 -0 -0 -1 
1 14 -10 0 -1 -6.3441315692866085e-17 0 
1 14 -7 13.5 -0 -0 -1 
8 3.1415926535897931 4.7123889803846897
2 11 -7 -10 0 0 1 0 1 -0 -1 0 0 3
1 -14 -7.0000000000000018 13.5 -0 -0 -1 
8 1.5707963267948966 3.1415926535897931
2 -11 -7.0000000000000018 -10 0 0 1 0 1 -0 -1 0 0 3
1 14 33.5 13.5 -0 -0 -1 
1 14 36.5 0 0 -1 0 
1 -14 33.5 13.5 -0 -0 -1 
1 -14 -10.000000000000002 0 0 1 0 
1 11 36.5 13.5 -0 -0 -1 
8 0 1.5707963267948966
2 11 33.5 -10 -0 -0 -1 0 1 -0 1 -0 0 3
1 -11 36.5 13.5 -0 -0 -1 
8 0 1.5707963267948966
2 -11 33.5 -10 0 0 1 0 1 -0 -1 0 0 3
1 -14 36.5 0 1 0 0 
1 -17.5 40 -13.5 0 0 1 
1 17.5 40 -13.5 0 0 1 
1 -17.5 40 0 1 0 0 
1 -17.5 -40 -13.5 0 0 1 
1 -17.5 -40 0 0 1 0 
1 17.5 -40 -13.5 0 0 1 
1 17.5 40 0 0 -1 0 
1 17.5 -40 0 -1 0 0 
2 0 -22.5 -1.5000000000000018 0 0 -1 1 0 0 0 -1 0 7
2 0 -22.5 -1.5000000000000018 0 0 -1 1 0 0 0 -1 0 7
2 0 -22.5 -1.5000000000000018 0 0 -1 1 0 0 0 -1 0 7
2 0 22.5 0 0 0 1 1 0 -0 -0 1 0 8
1 7 -22.5 -2.5 0 0 1 
2 0 22.5 0 0 0 1 1 0 -0 -0 1 0 7
1 8 -22.5 -13.5 0 0 1 
2 0 22.5 0 0 0 1 1 0 -0 -0 1 0 8
Polygon3D 0
PolygonOnTriangulations 0
Surfaces 28
1 -17.5 40 0 -0 0 1 1 0 0 0 1 -0 
1 12.499999999918 -35 13.5 0 1 -0 -1 0 0 0 0 1 
2 9.4999999999179998 -32 13.5 -0 -0 -1 -0 -1 0 1 -0 -0 3
2 -9.4999999999980176 -32 13.5 -0 -0 -1 -1 0 0 -0 -1 0 3
1 12.499999999918 -35 13.5 1 0 0 -0 1 0 0 -0 1 
1 -12.499999999998018 -35 13.5 1 0 0 -0 1 0 0 -0 1 
2 4.999988019301 -23.000035143291999 13.5 0 0 1 1 0 -0 -0 1 0 7.500011980699
2 -5.0000123392319997 -22.999994546404 13.5 0 0 1 1 0 -0 -0 1 0 7.4999876607680003
1 -5.0000000000205755 -15.500006885646151 13.5 -1.6276946848046325e-06 -0.99999999999867539 0 0.99999999999867539 -1.6276946848046325e-06 0 0 0 1 
1 14 -10 13.5 -6.3441315692866085e-17 1 0 -1 -6.3441315692866085e-17 0 0 0 1 
2 11 -7 13.5 -0 -0 -1 6.3441315692866085e-17 -1 0 1 6.3441315692866085e-17 -0 3
2 -11 -7.0000000000000018 13.5 -0 -0 -1 -1 0 0 -0 -1 0 3
1 14 36.5 13.5 -1 0 0 0 -1 0 0 0 1 
1 -14 -10.000000000000002 13.5 1 0 0 -0 1 0 0 -0 1 
2 11 33.5 13.5 -0 -0 -1 0 1 -0 1 -0 0 3
2 -11 33.5 13.5 -0 -0 -1 0 1 -0 -1 0 -0 3
1 -14 36.5 13.5 0 -1 0 1 0 0 -0 0 1 
1 -17.5 40 -13.5 0 1 0 1 0 0 0 0 -1 
1 -17.5 -40 -13.5 -1 0 0 0 1 0 0 0 -1 
1 17.5 40 -13.5 1 0 -0 0 -1 0 0 -0 -1 
1 17.5 -40 -13.5 0 -1 0 -1 0 0 -0 -0 -1 
1 -3.9939163559387778e-06 -26.163472788246906 13.499999999999998 1.6385774144160173e-32 -1.6371198501047004e-32 -1 -1 0 -1.6385774144160173e-32 2.6825476110736978e-64 1 -1.6371198501047004e-32 
10 -931.50219382871126 931.50218584087861 -927.83871704654803 980.16566262304184
1 -3.9939163559387778e-06 -26.163472788246906 -1.5000000000000018 1.6385774144160173e-32 -1.6371198501047004e-32 -1 -1 0 -1.6385774144160173e-32 2.6825476110736978e-64 1 -1.6371198501047004e-32 
1 0 13.25 13.5 -0 -0 -1 -1 0 0 0 1 -0 
1 -17.5 40 0 -0 0 1 1 0 0 0 1 -0 
2 0 -22.5 -2.5 0 0 -1 1 0 0 0 -1 0 7
2 0 -22.5 -13.5 0 0 -1 1 0 0 0 -1 0 8
1 -6.8372006626971174e-16 -22.500000000000004 -13.5 -0 -0 -1 -1 0 0 0 1 -0 
Triangulations 0

TShapes 179
Ve
1e-07
9.499999999918 -35 13.5
0 0

0101101
*
Ve
1e-07
-9.49999999999802 -35 13.5
0 0

0101101
*
Ed
 1e-07 1 1 0
1  1 0 3 21.999999999916
2  1 1 24 3 21.999999999916
2  2 2 25 3 21.999999999916
0

0101000
+179 26 -178 26 *
Ve
1e-07
12.499999999918 -32 13.5
0 0

0101101
*
Ed
 1e-07 1 1 0
1  2 0 3.14159265358979 4.71238898038469
2  3 1 27 3.14159265358979 4.71238898038469
2  4 3 0 3.14159265358979 4.71238898038469
0

0101000
+179 28 -176 28 *
Ve
1e-07
-12.499999999998 -32 13.5
0 0

0101101
*
Ed
 1e-07 1 1 0
1  3 0 1.5707963267949 3.14159265358979
2  5 1 29 1.5707963267949 3.14159265358979
2  6 4 0 1.5707963267949 3.14159265358979
0

0101000
+174 30 -178 30 *
Ve
1.000001687539e-07
12.4999999999178 -22.9999999999459 13.5
0 0

0101101
*
Ed
 1e-07 1 1 0
1  4 0 3 12.0000000000541
2  7 1 24 3 12.0000000000541
2  8 5 25 3 12.0000000000541
0

0101000
+176 26 -172 26 *
Ve
1.00000211386464e-07
-12.499999999998 -22.9999999999918 13.5
0 0

0101101
*
Ed
 1e-07 1 1 0
1  5 0 3 12.000000000008
2  9 1 24 3 12.000000000008
2  10 6 25 3 12.000000000008
0

0101000
+174 26 -170 26 *
Ve
1.0000478511226e-07
5.00000000002193 -15.5000231625978 13.5
0 0

0101101
*
Ed
 1e-07 1 1 0
1  6 0 4.685772e-06 1.570794729368
2  11 1 24 4.685772e-06 1.570794729368
2  12 7 25 4.685772e-06 1.570794729368
0

0101000
+172 26 -168 26 *
Ve
1e-07
-5.00000000002058 -15.5000068856462 13.5
0 0

0101101
*
Ed
 1e-07 1 1 0
1  7 0 1.570794681564 3.141593380736
2  13 1 24 1.570794681564 3.141593380736
2  14 8 25 1.570794681564 3.141593380736
0

0101000
+166 26 -170 26 *
Ed
 1e-07 1 1 0
1  8 0 0 10.0000000000558
2  15 1 24 0 10.0000000000558
2  16 9 25 0 10.0000000000558
0

0101000
+166 26 -168 26 *
Wi

0101100
+177 23 -175 0 -173 11 -171 23 +169 23 -167 23 -165 23 +164 23 *
Ve
1e-07
11 -10 13.5
0 0

0101101
*
Ve
1e-07
-11 -10 13.5
0 0

0101101
*
Ed
 1e-07 1 1 0
1  9 0 3 25
2  17 1 34 3 25
2  18 10 35 3 25
0

0101000
+162 36 -161 36 *
Ve
1e-07
14 -7 13.5
0 0

0101101
*
Ed
 1e-07 1 1 0
1  10 0 3.14159265358979 4.71238898038469
2  19 1 37 3.14159265358979 4.71238898038469
2  20 11 0 3.14159265358979 4.71238898038469
0

0101000
+162 38 -159 38 *
Ve
1e-07
-14 -7 13.5
0 0

0101101
*
Ed
 1e-07 1 1 0
1  11 0 1.5707963267949 3.14159265358979
2  21 1 39 1.5707963267949 3.14159265358979
2  22 12 0 1.5707963267949 3.14159265358979
0

0101000
+157 40 -161 40 *
Ve
1e-07
14 33.5 13.5
0 0

0101101
*
Ed
 1e-07 1 1 0
1  12 0 3 43.5
2  23 1 34 3 43.5
2  24 13 35 3 43.5
0

0101000
-159 36 +155 36 *
Ve
1e-07
-14 33.5 13.5
0 0

0101101
*
Ed
 1e-07 1 1 0
1  13 0 3 43.5
2  25 1 34 3 43.5
2  26 14 35 3 43.5
0

0101000
+157 36 -153 36 *
Ve
1e-07
11 36.5 13.5
0 0

0101101
*
Ed
 1e-07 1 1 0
1  14 0 0 1.5707963267949
2  27 1 42 0 1.5707963267949
2  28 15 0 0 1.5707963267949
0

0101000
+151 43 -155 43 *
Ve
1e-07
-11 36.5 13.5
0 0

0101101
*
Ed
 1e-07 1 1 0
1  15 0 0 1.5707963267949
2  29 1 45 0 1.5707963267949
2  30 16 0 0 1.5707963267949
0

0101000
+149 46 -153 46 *
Ed
 1e-07 1 1 0
1  16 0 3 25
2  31 1 34 3 25
2  32 17 35 3 25
0

0101000
+149 36 -151 36 *
Wi

0101100
+160 33 -158 0 -156 9 +154 33 +152 33 +150 41 -148 44 +147 33 *
Ve
1e-07
-17.5 40 13.5
0 0

0101101
*
Ve
1e-07
17.5 40 13.5
0 0

0101101
*
Ed
 1e-07 1 1 0
1  17 0 0 35
2  33 1 49 0 35
2  34 18 50 0 35
0

0101000
+145 51 -144 51 *
Ve
1e-07
-17.5 -40 13.5
0 0

0101101
*
Ed
 1e-07 1 1 0
1  18 0 0 80
2  35 1 49 0 80
2  36 19 50 0 80
0

0101000
+142 51 -145 51 *
Ve
1e-07
17.5 -40 13.5
0 0

0101101
*
Ed
 1e-07 1 1 0
1  19 0 0 80
2  37 1 49 0 80
2  38 20 50 0 80
0

0101000
+144 51 -140 51 *
Ed
 1e-07 1 1 0
1  20 0 0 35
2  39 1 49 0 35
2  40 21 50 0 35
0

0101000
+140 51 -142 51 *
Wi

0101100
-143 48 -141 48 -139 48 -138 48 *
Fa
0  1e-07 1 20

0111000
+163 21 +146 31 +137 0 *
Ve
1e-07
9.499999999918 -35 -1.5
0 0

0101101
*
Ed
 1e-07 1 1 0
1  21 0 -0 15
2  41 2 12 -0 15
2  42 3 0 -0 15
4 G1 2 12 3 0
0

0101000
+179 28 -135 28 *
Ve
1e-07
-9.49999999999802 -35 -1.5
0 0

0101101
*
Ed
 1e-07 1 1 0
1  22 0 -0 15
2  43 2 52 -0 15
2  44 4 0 -0 15
4 G1 2 52 4 0
0

0101000
+178 30 -133 30 *
Ed
 1e-07 1 1 0
1  23 0 3 21.999999999916
2  45 2 55 3 21.999999999916
2  46 22 56 3 21.999999999916
0

0101000
+135 57 -133 57 *
Wi

0101100
-177 23 +134 0 -132 11 +131 54 *
Fa
0  1e-07 2 0

0111000
+130 21 *
Ve
1e-07
12.499999999918 -32 -1.5
0 0

0101101
*
Ed
 1e-07 1 1 0
1  24 0 -0 15
2  47 3 0 -0 15
2  48 5 12 -0 15
4 G1 3 0 5 12
0

0101000
+176 28 -128 28 *
Ed
 1e-07 1 1 0
1  25 0 3.14159265358979 4.71238898038469
2  49 3 0 3.14159265358979 4.71238898038469
2  50 22 58 3.14159265358979 4.71238898038469
0

0101000
+135 28 -128 28 *
Wi

0101100
+175 0 -134 0 +127 0 -126 0 *
Fa
0  1e-07 3 0

0111000
+125 0 *
Ve
1e-07
-12.499999999998 -32 -1.5
0 0

0101101
*
Ed
 1e-07 1 1 0
1  26 0 -0 15
2  51 4 0 -0 15
2  52 6 52 -0 15
4 G1 4 0 6 52
0

0101000
+174 30 -123 30 *
Ed
 1e-07 1 1 0
1  27 0 1.5707963267949 3.14159265358979
2  53 4 0 1.5707963267949 3.14159265358979
2  54 22 59 1.5707963267949 3.14159265358979
0

0101000
+123 30 -133 30 *
Wi

0101100
+173 0 -122 0 +132 0 -121 0 *
Fa
0  1e-07 4 0

0111000
+120 0 *
Ve
1.000001687539e-07
12.4999999999178 -22.9999999999459 -1.5
0 0

0101101
*
Ed
 1.000001687539e-07 1 1 0
1  28 0 0 15
2  55 5 0 0 15
2  56 7 0 0 15
4 G1 5 0 7 0
0

0101000
+172 60 -118 60 *
Ed
 1e-07 1 1 0
1  29 0 3 12.0000000000541
2  57 5 55 3 12.0000000000541
2  58 22 56 3 12.0000000000541
0

0101000
+128 57 -118 57 *
Wi

0101100
-171 23 +127 0 -117 12 +116 54 *
Fa
0  1e-07 5 0

0111000
+115 21 *
Ve
1.00000211386464e-07
-12.499999999998 -22.9999999999918 -1.5
0 0

0101101
*
Ed
 1.00000211386464e-07 1 1 0
1  30 0 0 15
2  59 6 0 0 15
2  60 8 0 0 15
4 G1 6 0 8 0
0

0101000
+170 60 -113 60 *
Ed
 1e-07 1 1 0
1  31 0 3 12.000000000008
2  61 6 55 3 12.000000000008
2  62 22 56 3 12.000000000008
0

0101000
+123 57 -113 57 *
Wi

0101100
-169 62 +122 0 -112 52 +111 63 *
Fa
0  1e-07 6 0

0111000
+110 61 *
Ve
1.0000478511226e-07
5.00000000002193 -15.5000231625978 -1.5
0 0

0101101
*
Ed
 1e-07 1 1 0
1  32 0 4.685772e-06 1.570794729368
2  63 7 55 4.685772e-06 1.570794729368
2  64 22 56 4.685772e-06 1.570794729368
0

0101000
+118 57 -108 57 *
Ed
 1.0000478511226e-07 1 1 0
1  33 0 0 15
2  65 7 0 0 15
2  66 9 0 0 15
4 G1 7 0 9 0
0

0101000
+168 60 -108 60 *
Wi

0101100
+117 0 -167 64 +107 65 -106 0 *
Fa
0  1e-07 7 0

0111000
+105 0 *
Ve
1e-07
-5.00000000002058 -15.5000068856462 -1.5
0 0

0101101
*
Ed
 1e-07 1 1 0
1  34 0 0 15
2  67 8 0 0 15
2  68 9 0 0 15
4 G1 8 0 9 0
0

0101000
+166 60 -103 60 *
Ed
 1e-07 1 1 0
1  35 0 1.570794681564 3.141593380736
2  69 8 55 1.570794681564 3.141593380736
2  70 22 56 1.570794681564 3.141593380736
0

0101000
+103 57 -113 57 *
Wi

0101100
+102 0 -165 64 +101 65 -112 0 *
Fa
0  1e-07 8 0

0111000
+100 0 *
Ve
1.00001002006615e-07
-0.0144916257835037 -15.5000150005316 -1.5
0 0

0101101
*
Ed
 1e-07 1 1 0
1  36 0 0 4.98550837424368
2  71 9 55 0 4.98550837424368
2  72 22 56 0 4.98550837424368
0

0101000
+103 57 -98 57 *
Ve
1.00001016248603e-07
0.0145144134594525 -15.5000150477446 -1.5
0 0

0101101
*
Ed
 1e-07 1 1 0
1  37 0 4.98550837424368 5.01451441348667
2  73 9 55 4.98550837424368 5.01451441348667
2  74 23 70 4.98550837424368 5.01451441348667
0

0101000
+98 57 -96 57 *
Ed
 1e-07 1 1 0
1  38 0 5.01451441348667 10.0000000000558
2  75 9 55 5.01451441348667 10.0000000000558
2  76 22 56 5.01451441348667 10.0000000000558
0

0101000
+96 57 -108 57 *
Wi

0101100
+102 67 -164 68 +97 69 -106 67 +95 69 +94 69 *
Fa
0  1e-07 9 67

0111000
+93 0 *
Ve
1e-07
11 -10 -10
0 0

0101101
*
Ed
 1e-07 1 1 0
1  39 0 -0 23.5
2  77 10 73 -0 23.5
2  78 11 0 -0 23.5
4 G1 10 73 11 0
0

0101000
+162 38 -91 38 *
Ve
1e-07
-11 -10 -10
0 0

0101101
*
Ed
 1e-07 1 1 0
1  40 0 -0 23.5
2  79 10 74 -0 23.5
2  80 12 0 -0 23.5
4 G1 10 74 12 0
0

0101000
+161 40 -89 40 *
Ed
 1e-07 1 1 0
1  41 0 3 25
2  81 10 77 3 25
2  82 24 78 3 25
0

0101000
+91 79 -89 79 *
Wi

0101100
-160 33 +90 0 -88 9 +87 76 *
Fa
0  1e-07 10 0

0111000
+86 72 *
Ve
1e-07
14 -7 -10
0 0

0101101
*
Ed
 1e-07 1 1 0
1  42 0 -0 23.5
2  83 11 0 -0 23.5
2  84 13 73 -0 23.5
4 G1 11 0 13 73
0

0101000
+159 38 -84 38 *
Ed
 1e-07 1 1 0
1  43 0 3.14159265358979 4.71238898038469
2  85 11 0 3.14159265358979 4.71238898038469
2  86 24 81 3.14159265358979 4.71238898038469
0

0101000
+91 38 -84 38 *
Wi

0101100
+158 0 -90 0 +83 0 -82 0 *
Fa
0  1e-07 11 0

0111000
+81 0 *
Ve
1e-07
-14 -7 -10
0 0

0101101
*
Ed
 1e-07 1 1 0
1  44 0 0 23.5
2  87 12 0 0 23.5
2  88 14 74 0 23.5
4 G1 12 0 14 74
0

0101000
+157 40 -79 40 *
Ed
 1e-07 1 1 0
1  45 0 1.5707963267949 3.14159265358979
2  89 12 0 1.5707963267949 3.14159265358979
2  90 24 83 1.5707963267949 3.14159265358979
0

0101000
+79 40 -89 40 *
Wi

0101100
+156 0 -78 0 +88 0 -77 0 *
Fa
0  1e-07 12 0

0111000
+76 0 *
Ve
1e-07
14 33.5 -10
0 0

0101101
*
Ed
 1e-07 1 1 0
1  46 0 -0 23.5
2  91 13 84 -0 23.5
2  92 15 0 -0 23.5
4 G1 13 84 15 0
0

0101000
+155 43 -74 43 *
Ed
 1e-07 1 1 0
1  47 0 3 43.5
2  93 13 77 3 43.5
2  94 24 78 3 43.5
0

0101000
-84 79 +74 79 *
Wi

0101100
-154 33 -83 0 +73 41 +72 76 *
Fa
0  1e-07 13 0

0111000
+71 72 *
Ve
1e-07
-14 33.5 -10
0 0

0101101
*
Ed
 1e-07 1 1 0
1  48 0 -0 23.5
2  95 14 87 -0 23.5
2  96 16 0 -0 23.5
4 G1 14 87 16 0
0

0101000
+153 46 -69 46 *
Ed
 1e-07 1 1 0
1  49 0 3 43.5
2  97 14 77 3 43.5
2  98 24 78 3 43.5
0

0101000
+79 79 -69 79 *
Wi

0101100
-152 86 +78 0 -68 8 +67 88 *
Fa
0  1e-07 14 0

0111000
+66 85 *
Ve
1e-07
11 36.5 -10
0 0

0101101
*
Ed
 1e-07 1 1 0
1  50 0 -0 23.5
2  99 15 0 -0 23.5
2  100 17 84 -0 23.5
4 G1 15 0 17 84
0

0101000
+151 43 -64 43 *
Ed
 1e-07 1 1 0
1  51 0 0 1.5707963267949
2  101 15 0 0 1.5707963267949
2  102 24 90 0 1.5707963267949
0

0101000
+64 43 -74 43 *
Wi

0101100
+150 0 -63 0 +73 0 -62 0 *
Fa
0  1e-07 15 0

0111000
+61 0 *
Ve
1e-07
-11 36.5 -10
0 0

0101101
*
Ed
 1e-07 1 1 0
1  52 0 -0 23.5
2  103 16 0 -0 23.5
2  104 17 87 -0 23.5
4 G1 16 0 17 87
0

0101000
+149 46 -59 46 *
Ed
 1e-07 1 1 0
1  53 0 0 1.5707963267949
2  105 16 0 0 1.5707963267949
2  106 24 92 0 1.5707963267949
0

0101000
+59 46 -69 46 *
Wi

0101100
+148 0 -58 0 +68 0 -57 0 *
Fa
0  1e-07 16 0

0111000
+56 0 *
Ed
 1e-07 1 1 0
1  54 0 3 25
2  107 17 77 3 25
2  108 24 78 3 25
0

0101000
+59 79 -64 79 *
Wi

0101100
-147 94 +58 0 -63 7 +54 95 *
Fa
0  1e-07 17 0

0111000
+53 93 *
Ve
1e-07
-17.5 40 -13.5
0 0

0101101
*
Ed
 1e-07 1 1 0
1  55 0 0 27
2  109 18 0 0 27
2  110 19 0 0 27
0

0101000
+51 97 -145 97 *
Ve
1e-07
17.5 40 -13.5
0 0

0101101
*
Ed
 1e-07 1 1 0
1  56 0 0 27
2  111 18 0 0 27
2  112 20 0 0 27
0

0101000
+49 97 -144 97 *
Ed
 1e-07 1 1 0
1  57 0 0 35
2  113 18 99 0 35
2  114 25 49 0 35
0

0101000
+51 100 -49 100 *
Wi

0101000
+50 0 -48 0 -47 98 +143 101 *
Fa
0  1e-07 18 0

0111000
+46 0 *
Ve
1e-07
-17.5 -40 -13.5
0 0

0101101
*
Ed
 1e-07 1 1 0
1  58 0 0 27
2  115 19 0 0 27
2  116 21 0 0 27
0

0101000
+44 97 -142 97 *
Ed
 1e-07 1 1 0
1  59 0 0 80
2  117 19 99 0 80
2  118 25 49 0 80
0

0101000
+44 100 -51 100 *
Wi

0101000
+43 0 -50 0 -42 98 +141 101 *
Fa
0  1e-07 19 0

0111000
+41 0 *
Ve
1e-07
17.5 -40 -13.5
0 0

0101101
*
Ed
 1e-07 1 1 0
1  60 0 0 27
2  119 20 0 0 27
2  120 21 0 0 27
0

0101000
+39 97 -140 97 *
Ed
 1e-07 1 1 0
1  61 0 0 80
2  121 20 99 0 80
2  122 25 49 0 80
0

0101000
+49 100 -39 100 *
Wi

0101000
+48 0 -38 0 -37 98 +139 101 *
Fa
0  1e-07 20 0

0111000
+36 0 *
Ed
 1e-07 1 1 0
1  62 0 0 35
2  123 21 99 0 35
2  124 25 49 0 35
0

0101000
+39 100 -44 100 *
Wi

0101000
+38 0 -43 0 -34 98 +138 101 *
Fa
0  1e-07 21 0

0111000
+33 0 *
Ve
2.00001e-07
7 -22.5 -1.5
0 0

0101101
*
Ed
 1e-07 1 1 0
1  63 0 4.71446246950753 6.28318530717959
2  125 22 102 4.71446246950753 6.28318530717959
2  126 26 0 4.71446246950753 6.28318530717959
0

0101000
+96 104 -31 104 *
Ed
 1e-07 1 1 0
1  64 0 0 4.71031874665111
2  127 22 102 0 4.71031874665111
2  128 26 0 0 4.71031874665111
0

0101000
+31 104 -98 104 *
Wi

0101100
+131 54 -126 0 -121 11 -116 54 +111 54 -107 54 -101 54 +94 54 +97 54 -30 66 
-29 66 *
Fa
0  1e-07 22 102

0111000
+28 103 *
Ed
 1e-07 1 1 0
1  65 0 4.71031874665111 4.71446246950753
2  129 23 0 4.71031874665111 4.71446246950753
2  130 26 0 4.71031874665111 4.71446246950753
0

0101000
+98 104 -96 104 *
Wi

0101100
-95 69 +26 0 *
Fa
0  1e-07 23 0

0111000
+25 0 *
Wi

0101100
+87 76 -82 0 -77 9 +72 76 +67 76 +62 41 -57 44 +54 76 *
Fa
0  1e-07 24 0

0111000
+23 106 *
Wi

0101100
-47 109 -42 109 -37 109 -34 109 *
Ve
1e-07
8 -22.5 -13.5
0 0

0101101
*
Ed
 1e-07 1 1 0
1  66 0 0 6.28318530717959
2  131 25 112 0 6.28318530717959
2  132 27 113 0 6.28318530717959
0

0101000
+20 114 -20 114 *
Wi

0101100
+19 111 *
Fa
0  1e-07 25 108

0111000
+21 0 +18 0 *
Ve
1e-07
7 -22.5 -2.5
0 0

0101101
*
Ed
 1e-07 1 1 0
1  67 0 0 0.999999999999998
3  133 134CN 26 0 0 0.999999999999998
0

0101000
+16 104 -31 104 *
Ed
 1e-07 1 1 0
1  68 0 0 6.28318530717959
2  135 26 117 0 6.28318530717959
2  136 28 119 0 6.28318530717959
0

0101000
+16 120 -16 120 *
Wi

0101100
-15 0 +30 0 +26 0 +29 0 +15 0 -14 116 *
Fa
0  1e-07 26 0

0111000
+13 0 *
Ve
1e-07
8 -22.5 -2.5
0 0

0101101
*
Ed
 1e-07 1 1 0
1  69 0 0 11
3  137 138CN 27 0 0 11
0

0101000
+20 121 -11 121 *
Ed
 1e-07 1 1 0
1  70 0 0 6.28318530717959
2  139 27 123 0 6.28318530717959
2  140 28 124 0 6.28318530717959
0

0101000
+11 125 -11 125 *
Wi

0101100
-19 111 -10 0 +9 122 +10 0 *
Fa
0  1e-07 27 0

0111000
+8 0 *
Wi

0101100
+9 127 *
Wi

0101100
-14 116 *
Fa
0  1e-07 28 126

0111000
+6 0 +5 0 *
Sh

0101100
+136 12 +129 12 +124 0 +119 11 -114 12 +109 12 -104 12 -99 12 +92 66 +85 71 
+80 80 +75 82 +70 71 +65 71 -60 89 +55 91 +52 71 +45 96 +40 96 +35 96 
+32 96 -27 66 +24 66 -22 105 -17 107 -12 66 -7 107 +4 66 *
So

0100000
+3 0 *
Co

1100000
+2 0 *

+1 1 