DBRep_DrawableShape

CASCADE Topology V1, (c) Matra-Datavision
Locations 79
1
              1               0               0               0 
              0               1               0               0 
              0               0               1               0 
1
              1               0               0               0 
              0               1               0               0 
              0               0               1               0 
1
              1               0               0               0 
              0               1               0               0 
              0               0               1               0 
1
              1               0               0               0 
              0               1               0               0 
              0               0               1               0 
1
              1               0               0               0 
              0               1               0               0 
              0               0               1               0 
1
              1               0               0               0 
              0               1               0               0 
              0               0               1               0 
1
              1               0               0               0 
              0               1               0               0 
              0               0               1               0 
1
              1               0               0               0 
              0               1               0               0 
              0               0               1               0 
1
              1               0               0               0 
              0               1               0               0 
              0               0               1               0 
2  2 1 3 -1 4 1 5 -1 6 1 7 -1 8 1 9 -1 0
2  1 -1 9 1 8 -1 7 1 6 -1 5 1 4 -1 3 1 2 -1 0
1
              1               0               0               0 
              0               1               0               0 
              0               0               1               0 
1
              1               0               0               0 
              0               1               0               0 
              0               0               1               0 
2  12 1 13 -1 0
2  13 1 12 -1 0
2  12 -1 0
2  1 -1 9 1 8 -1 7 1 6 -1 5 1 4 -1 3 1 2 -1 13 1 12 -1 0
1
              1               0               0               0 
              0               1               0               0 
              0               0               1              29 
2  12 1 13 -1 18 1 0
2  18 -1 13 1 12 -1 0
2  1 -1 9 1 8 -1 7 1 6 -1 5 1 4 -1 3 1 2 -1 18 -1 13 1 12 -1 0
2  13 -1 2 1 3 -1 4 1 5 -1 6 1 7 -1 8 1 9 -1 0
2  13 -1 18 1 2 1 3 -1 4 1 5 -1 6 1 7 -1 8 1 9 -1 0
2  12 1 13 -1 18 1 2 1 3 -1 4 1 5 -1 6 1 7 -1 8 1 9 -1 0
1
              1               0               0              -0 
              0               1               0               0 
              0               0               1              29 
2  25 1 9 -1 0
2  13 -1 18 1 2 1 3 -1 4 1 5 -1 6 1 7 -1 8 1 25 -1 0
2  9 1 25 -1 0
2  1 -1 9 1 25 -1 0
1
              1               0               0              -0 
              0               1               0               0 
              0               0               1              29 
2  30 1 5 -1 6 1 7 -1 8 1 9 -1 0
2  13 -1 18 1 2 1 3 -1 4 1 30 -1 0
2  5 1 30 -1 0
2  1 -1 9 1 8 -1 7 1 6 -1 5 1 30 -1 0
1
              1               0               0              -0 
              0               1               0               0 
              0               0               1              29 
2  35 1 7 -1 8 1 9 -1 0
2  13 -1 18 1 2 1 3 -1 4 1 5 -1 6 1 35 -1 0
2  7 1 35 -1 0
2  1 -1 9 1 8 -1 7 1 35 -1 0
1
              1               0               0              -0 
              0               1               0               0 
              0               0               1              29 
2  40 1 3 -1 4 1 5 -1 6 1 7 -1 8 1 9 -1 0
2  13 -1 18 1 2 1 40 -1 0
2  3 1 40 -1 0
2  1 -1 9 1 8 -1 7 1 6 -1 5 1 4 -1 3 1 40 -1 0
2  1 -1 0
1
              1               0               0              -0 
              0               1               0              -0 
              0               0               1             -10 
2  25 1 9 -1 46 1 0
2  46 -1 9 1 25 -1 0
2  25 -1 0
2  1 -1 46 -1 9 1 25 -1 0
2  6 1 7 -1 8 1 9 -1 0
2  9 -1 46 1 0
2  1 -1 9 1 8 -1 7 1 6 -1 0
1
              1               0               0              -0 
              0               1               0              -0 
              0               0               1             -15 
2  30 1 5 -1 54 1 6 1 7 -1 8 1 9 -1 0
2  54 -1 5 1 30 -1 0
2  30 -1 0
2  1 -1 9 1 8 -1 7 1 6 -1 54 -1 5 1 30 -1 0
2  30 1 5 -1 0
2  30 1 5 -1 54 1 0
2  8 1 9 -1 0
2  35 1 7 -1 0
2  1 -1 9 1 8 -1 0
1
              1               0               0              -0 
              0               1               0              -0 
              0               0               1              -3 
2  35 1 7 -1 64 1 0
2  64 -1 7 1 35 -1 0
2  35 -1 0
2  1 -1 9 1 8 -1 64 -1 7 1 35 -1 0
2  4 1 5 -1 6 1 7 -1 8 1 9 -1 0
2  1 -1 9 1 8 -1 7 1 6 -1 5 1 4 -1 0
2  40 1 3 -1 0
1
              1               0               0              -0 
              0               1               0              -0 
              0               0               1           -26.5 
2  40 1 3 -1 72 1 0
2  72 -1 3 1 40 -1 0
2  40 -1 0
2  1 -1 9 1 8 -1 7 1 6 -1 5 1 4 -1 72 -1 3 1 40 -1 0
2  5 -1 54 1 6 1 7 -1 8 1 9 -1 0
2  7 -1 64 1 8 1 9 -1 0
2  3 -1 72 1 4 1 5 -1 6 1 7 -1 8 1 9 -1 0
Curve2ds 192
1 0 0 0 -1 
1 80 0 0 -1 
1 35 0 0 -1 
1 0 0 0 -1 
1 0 0 1 0 
1 17.5 40 -1 0 
1 0 -29 1 0 
1 17.5 40 -1 0 
1 0 0 0 -1 
1 35 0 0 -1 
1 0 0 1 0 
1 17.5 -40 0 1 
1 0 -29 1 0 
1 17.5 -40 0 1 
1 80 0 0 -1 
1 0 -0 0 -1 
1 0 0 1 0 
1 -17.5 40 0 -1 
1 0 -29 1 0 
1 -17.5 40 0 -1 
1 -17.5 -40 1 0 
1 0 -0 1 0 
1 -17.5 -40 1 0 
1 0 -29 1 0 
1 -12 -15.499999999982 1 0 
1 0 0 1 0 
1 12 -10.999999999982 0 -1 
1 0 0 1 0 
1 12 -10.999999999982 -1 0 
1 0 0 1 0 
1 -12 -10.999999999982 0 -1 
1 0 0 1 0 
1 -12 -15.499999999982 1 0 
1 0 0 1 0 
2 -5.0000003348445823 -22.999970420257615 -1 0 0 1 7.4999891341456095
1 0 0 1 0 
1 -12.50000071256504 -31.99997960815859 1.2492867197001738e-06 0.99999999999921962 
1 0 0 1 0 
2 -9.5000007126343444 -32 -1 0 0 1 3
1 0 0 1 0 
1 9.5000001107669032 -35 -1 2.9917588525280153e-15 
1 0 0 1 0 
2 9.499999999999984 -32 -1 0 0 1 3
1 0 0 1 0 
1 12.499999999999279 -32.000002057679232 1.2492932180120622e-06 0.99999999999921962 
1 0 0 1 0 
2 5.0000000859590044 -22.999992443797407 -1 0 0 1 7.5000111576853978
1 0 0 1 0 
2 -14.5 -18 -1 0 0 1 1.6999999999999993
1 0 0 1 0 
2 -14.5 -37 -1 0 0 1 1.6999999999999993
1 0 0 1 0 
2 14.5 -18 -1 0 0 1 1.6999999999999993
1 0 0 1 0 
2 14.5 -37 -1 0 0 1 1.6999999999999993
1 0 0 1 0 
2 14.5 37 -1 0 0 1 1.6999999999999993
1 0 0 1 0 
1 10.99998998103756 36.499999999980389 -1 8.9140897131658043e-13 
1 0 0 1 0 
2 11.000000829120019 33.5 -1 0 0 1 3
1 0 0 1 0 
2 -10.999999170879981 33.5 -1 0 0 1 3
1 0 0 1 0 
1 14.000000298555923 -6.999990113860421 1.3099877782775314e-08 0.99999999999999989 
1 0 0 1 0 
1 -13.999999170861832 33.499989564849379 -1.3099971074452453e-08 -0.99999999999999989 
1 0 0 1 0 
2 11.000000298572212 -6.9999999999999973 -1 0 0 1 3
1 0 0 1 0 
2 -10.999999701427788 -6.9999999999999982 -1 0 0 1 3
1 0 0 1 0 
1 -10.999989981037562 -9.9999999999842508 1 9.0675024890264467e-14 
1 0 0 1 0 
2 -14.5 37 -1 0 0 1 1.6999999999999993
1 0 0 1 0 
1 24 0 0 -1 
1 4.5 0 0 -1 
1 0 -10 1 0 
1 -12 -2.2499999999999982 1 0 
8 -11 4.0000000112172529e-07
1 17.016754432179201 0 0 1 
8 -11 4.0000000112172529e-07
1 1.5730302381588914 0 0 1 
1 0 0 0 -1 
1 0 0 0 -1 
1 0 -10 1 0 
1 12 2.2500000000000018 0 -1 
1 0 -10 1 0 
1 12 2.2500000000000018 -1 0 
1 24 0 0 -1 
1 0 0 0 -1 
1 0 -10 1 0 
1 -12 2.2500000000000018 0 -1 
1 4.5 0 0 -1 
1 0 0 0 -1 
8 -11 4.0000000112172529e-07
1 6.9832453435329365 0 0 1 
8 -11 4.0000000112172529e-07
1 7.8517477193303575 0 0 1 
1 0 -10 1 0 
1 -12 -2.2499999999999982 1 0 
1 6.2831853071795862 -10 1 0 
2 -5.0000003348445823 -9.7499704202756128 -1 0 0 1 7.4999891341456095
1 7.8539816786204346 0 0 -1 
1 10.000000000000275 0 0 -1 
1 0 -15 1 0 
2 -2.8460695087116719 -5.0000042029637513 0 -1 -1 -0 7.4999891341456095
1 6.2831840821261249 0 0 -1 
1 9.0000000000203482 0 0 -1 
1 0 0 0 -1 
1 6.2831921044600572 0 0 -1 
1 0 -15 1 0 
1 6.1539396791893033 -12.500004580684209 -0.99999999999921962 1.2492867197001738e-06 
1 4.7123887797622093 0 0 -1 
1 19.000000221533806 0 0 -1 
1 0 -15 1 0 
2 6.1539600710307134 -9.5000045807535134 0 -1 -1 -0 3
1 0 0 0 -1 
1 4.7123889434623836 0 0 -1 
1 0 -15 1 0 
1 9.1539600710307134 9.4999962426477342 -2.9917588525280153e-15 -1 
1 3.1415933394828714 0 0 -1 
1 0 0 0 -1 
1 0 -15 1 0 
2 6.1539600710307134 9.499996131880815 0 -1 -1 -0 3
1 0 -15 1 0 
1 6.1539621287099457 12.49999613188011 -0.99999999999921962 1.2492932180120622e-06 
1 8.9999999999928022 0 0 -1 
1 3.1415939354406928 0 0 -1 
1 0 -10 1 0 
2 5.0000000859590044 -9.7499924438154046 -1 0 0 1 7.5000111576853978
1 0 -15 1 0 
2 -2.84604748517188 4.9999962178398354 0 -1 -1 -0 7.5000111576853978
1 1.5707963153336924 0 0 -1 
1 0 0 0 -1 
1 0 0 0 -1 
1 6.2831853071795862 0 0 -1 
1 0 -3 1 0 
2 3.5527136788005009e-15 1.7763568394002505e-15 0 -1 1 0 1.6999999999999993
1 0 0 0 -1 
1 6.2831853071795862 0 0 -1 
1 0 -3 1 0 
2 -1.7763568394002505e-15 3.4706025991106707e-75 1 -1.9537755715132364e-60 1.9537755715132364e-60 1 1.6999999999999993
1 0 0 0 -1 
1 6.2831853071795862 0 0 -1 
1 0 -3 1 0 
2 3.5527136788005009e-15 1.7763568394002505e-15 0 -1 1 0 1.6999999999999993
1 0 0 0 -1 
1 6.2831853071795862 0 0 -1 
1 0 -3 1 0 
2 -1.7763568394002505e-15 3.4706025991106707e-75 1 -1.9537755715132364e-60 1.9537755715132364e-60 1 1.6999999999999993
1 0 0 0 -1 
1 6.2831853071795862 0 0 -1 
1 0 -3 1 0 
2 -1.7763568394002505e-15 3.4706025991106707e-75 1 -1.9537755715132364e-60 1.9537755715132364e-60 1 1.6999999999999993
1 0 0 0 -1 
1 1.5707927107674102 0 0 -1 
1 0 -26.5 1 0 
1 10.999989425108959 23.250000006243397 -1 8.9140897131658043e-13 
1 21.99997996207512 0 0 -1 
1 7.8539846972552905 0 0 -1 
1 0 -26.5 1 0 
2 11.000000273191418 20.250000006263008 -1 -2.1592157265412046e-65 -2.1592157265412046e-65 1 3
1 3.1415962421924788 0 0 -1 
1 40.499979348052364 0 0 -1 
1 6.283181828796045 0 0 -1 
1 0 0 0 -1 
1 0 -26.5 1 0 
2 -10.999999726808582 20.250000006263008 -1 -2.1592157265412046e-65 -2.1592157265412046e-65 1 3
1 0 0 0 -1 
1 3.1415893582099343 0 0 -1 
1 0 -26.5 1 0 
1 13.999999742627322 -20.249990107597416 1.3099877782775314e-08 0.99999999999999989 
1 0 -26.5 1 0 
1 -13.999999726790433 20.249989571112387 -1.3099971074452453e-08 -0.99999999999999989 
1 40.499979348052364 0 0 -1 
1 6.2831887127785899 0 0 -1 
1 0 -26.5 1 0 
2 10.999999742643611 -20.249999993736992 -1 -2.1592157265412046e-65 -2.1592157265412046e-65 1 3
1 4.7123924195629066 0 0 -1 
1 21.999979962075123 0 0 -1 
1 4.7123857402546143 0 0 -1 
1 0 0 0 -1 
1 0 -26.5 1 0 
2 -11.000000257356389 -20.249999993736992 -1 -2.1592157265412046e-65 -2.1592157265412046e-65 1 3
1 0 -26.5 1 0 
1 -10.999990536966163 -23.249999993721246 1 9.0675024890264467e-14 
1 0 0 0 -1 
1 6.2831853071795862 0 0 -1 
1 0 -3 1 0 
2 -1.7763568394002505e-15 3.4706025991106707e-75 1 -1.9537755715132364e-60 1.9537755715132364e-60 1 1.6999999999999993
8 -3.499999999999952 8.5000000000004086
1 2.4999999999999223 -2.2499812861300086 -1 -1.7763568394002015e-16 
8 -3.499999999999952 8.5000000000004086
1 2.4999999999999223 -10 1 0 
1 0 -15 1 0 
1 -10.346058642857276 4.9999961318806756 1.7763568394002015e-16 -1 
Curves 96
1 -17.5 40 0 0 0 1 
1 17.5 40 0 0 0 1 
1 -17.5 40 0 1 0 0 
1 -17.5 40 0 1 0 0 
1 -17.5 -40 0 0 0 1 
1 -17.5 -40 0 0 1 0 
1 -17.5 -40 0 0 1 0 
1 17.5 -40 0 0 0 1 
1 17.5 40 0 0 -1 0 
1 17.5 40 0 0 -1 0 
1 17.5 -40 0 -1 0 0 
1 17.5 -40 0 -1 0 0 
1 12 -15.499999999982 0 -1 0 0 
1 -12 -10.999999999982 0 0 -1 0 
1 -12 -10.999999999982 0 1 0 0 
1 12 -10.999999999982 0 0 -1 0 
1 12 -15.499999999982 0 -1 0 0 
2 5.0000003348445823 -22.999970420257615 0 0 0 1 1 0 -0 -0 1 0 7.4999891341456095
1 12.50000071256504 -31.99997960815859 0 -1.2492867197001738e-06 0.99999999999921962 0 
2 9.5000007126343444 -32 0 0 0 1 1 0 -0 -0 1 0 3
1 -9.5000001107669032 -35 0 1 2.9917588525280153e-15 0 
2 -9.499999999999984 -32 0 0 0 1 1 0 -0 -0 1 0 3
1 -12.499999999999279 -32.000002057679232 0 -1.2492932180120622e-06 0.99999999999921962 0 
2 -5.0000000859590044 -22.999992443797407 0 0 0 1 1 0 -0 -0 1 0 7.5000111576853978
2 14.5 -18 0 0 0 1 1 0 -0 -0 1 0 1.7
2 14.5 -37 0 0 0 1 1 0 -0 -0 1 0 1.7
2 -14.5 -18 0 0 0 1 1 0 -0 -0 1 0 1.7
2 -14.5 -37 0 0 0 1 1 0 -0 -0 1 0 1.7
2 -14.5 37 0 0 0 1 1 0 -0 -0 1 0 1.7
1 -10.99998998103756 36.499999999980389 0 1 8.9140897131658043e-13 0 
2 -11.000000829120019 33.5 0 0 0 1 1 0 -0 -0 1 0 3
2 10.999999170879981 33.5 0 0 0 1 1 0 -0 -0 1 0 3
1 -14.000000298555923 -6.999990113860421 0 -1.3099877782775314e-08 0.99999999999999989 0 
1 13.999999170861832 33.499989564849379 0 1.3099971074452453e-08 -0.99999999999999989 0 
2 -11.000000298572212 -6.9999999999999973 0 0 0 1 1 0 -0 -0 1 0 3
2 10.999999701427788 -6.9999999999999982 0 0 0 1 1 0 -0 -0 1 0 3
1 10.999989981037562 -9.9999999999842508 0 -1 9.0675024890264467e-14 0 
2 14.5 37 0 0 0 1 1 0 -0 -0 1 0 1.7
1 -12 -15.499999999982 29 -0 -0 -1 
1 12 -15.499999999982 0 -1 0 0 
1 -5.0167544321792006 -15.499999999982 29 0 0 1 
1 -12 -10.999999999982 29 -0 -0 -1 
1 -12 -10.999999999982 0 0 -1 0 
1 -12 -10.999999999982 0 1 0 0 
1 12 -10.999999999982 29 -0 -0 -1 
1 12 -10.999999999982 0 0 -1 0 
1 12 -15.499999999982 29 -0 -0 -1 
1 5.0167546564670635 -15.499999999982 29 0 0 1 
1 12 -15.499999999982 0 -1 0 0 
2 5.0000003348445823 -22.999970420257615 19 0 0 1 1 0 -0 -0 1 0 7.4999891341456095
1 5.0000000000004308 -15.499981286112012 29 -0 -0 -1 
2 5.0000003348445823 -22.999970420257615 0 0 0 1 1 0 -0 -0 1 0 7.4999891341456095
1 12.499989468984563 -22.999979608145264 29 -0 -0 -1 
1 12.50000071256504 -31.99997960815859 29 -0 -0 -1 
1 12.50000071256504 -31.99997960815859 0 -1.2492867197001738e-06 0.99999999999921962 0 
1 9.5000001107669032 -34.999999999999943 29 -0 -0 -1 
2 9.5000007126343444 -32 0 0 0 1 1 0 -0 -0 1 0 3
1 -9.5000001107669032 -35 29 -0 -0 -1 
1 -9.5000001107669032 -35 0 1 2.9917588525280153e-15 0 
1 -12.499999999999279 -32.000002057679232 29 -0 -0 -1 
2 -9.499999999999984 -32 0 0 0 1 1 0 -0 -0 1 0 3
1 -12.499999999999279 -32.000002057679232 0 -1.2492932180120622e-06 0.99999999999921962 0 
1 -12.500011243638241 -23.000002057693454 29 -0 -0 -1 
2 -5.0000000859590044 -22.999992443797407 19 0 0 1 1 0 -0 -0 1 0 7.5000111576853978
2 -5.0000000859590044 -22.999992443797407 0 0 0 1 1 0 -0 -0 1 0 7.5000111576853978
1 -4.9999999999998446 -15.499981286112011 29 -0 -0 -1 
1 16.199999999999999 -18 29 -0 -0 -1 
2 14.5 -18 0 0 0 1 1 0 -0 -0 1 0 1.7
1 16.199999999999999 -37 29 -0 -0 -1 
2 14.5 -37 0 0 0 1 1 0 -0 -0 1 0 1.7
1 -12.800000000000001 -18 29 -0 -0 -1 
2 -14.5 -18 0 0 0 1 1 0 -0 -0 1 0 1.7
1 -12.800000000000001 -37 29 -0 -0 -1 
2 -14.5 -37 0 0 0 1 1 0 -0 -0 1 0 1.7
1 -12.800000000000001 37 29 -0 -0 -1 
2 -14.5 37 0 0 0 1 1 0 -0 -0 1 0 1.7
1 -10.99998998103756 36.499999999980389 29 -0 -0 -1 
1 -10.99998998103756 36.499999999980389 0 1 8.9140897131658043e-13 0 
1 10.99998998103756 36.499999999992966 29 -0 -0 -1 
2 -11.000000829120019 33.5 0 0 0 1 1 0 -0 -0 1 0 3
1 -14.000000829100703 33.499989234191943 29 -0 -0 -1 
1 13.999999170861832 33.499989564849379 29 -0 -0 -1 
2 10.999999170879981 33.5 0 0 0 1 1 0 -0 -0 1 0 3
1 -14.000000298555923 -6.999990113860421 29 -0 -0 -1 
1 -14.000000298555923 -6.999990113860421 0 -1.3099877782775314e-08 0.99999999999999989 0 
1 13.999999170861832 33.499989564849379 0 1.3099971074452453e-08 -0.99999999999999989 0 
1 13.99999970141039 -6.9999897832029863 29 -0 -0 -1 
2 -11.000000298572212 -6.9999999999999973 0 0 0 1 1 0 -0 -0 1 0 3
1 -10.999989981037562 -9.999999999982256 29 -0 -0 -1 
1 10.999989981037562 -9.9999999999842508 29 -0 -0 -1 
2 10.999999701427788 -6.9999999999999982 0 0 0 1 1 0 -0 -0 1 0 3
1 10.999989981037562 -9.9999999999842508 0 -1 9.0675024890264467e-14 0 
1 16.199999999999999 37 29 -0 -0 -1 
2 14.5 37 0 0 0 1 1 0 -0 -0 1 0 1.7
1 -2.4999999999999223 -15.499981286112011 19 1 -1.7763568394002015e-16 0 
1 -4.9999999999998446 -15.499981286112011 0 1 -1.7763568394002015e-16 0 
Polygon3D 0
PolygonOnTriangulations 0
Surfaces 42
1 -17.5 40 0 0 1 0 1 0 0 0 0 -1 
1 -17.5 -40 0 -1 0 0 0 1 0 0 0 -1 
1 17.5 40 0 1 0 -0 0 -1 0 0 -0 -1 
1 0 0 0 -0 -0 -1 -1 0 0 0 1 -0 
1 0 0 0 -0 -0 -1 -1 0 0 0 1 -0 
1 17.5 -40 0 0 -1 0 -1 0 0 -0 -0 -1 
1 12 -15.499999999982 29 0 1 -0 -1 0 0 0 0 1 
1 -12 -10.999999999982 29 -1 0 0 0 -1 0 0 0 1 
1 -12 -10.999999999982 29 0 -1 0 1 0 0 -0 0 1 
1 12 -10.999999999982 29 -1 0 0 0 -1 0 0 0 1 
1 12 -15.499999999982 29 0 1 -0 -1 0 0 0 0 1 
2 5.0000003348445823 -22.999970420257615 29 0 0 1 1 0 -0 -0 1 0 7.4999891341456095
1 12.50000071256504 -31.99997960815859 29 0.99999999999921962 1.2492867197001738e-06 -0 -1.2492867197001738e-06 0.99999999999921962 0 0 0 1 
2 9.5000007126343444 -32 29 0 0 1 1 0 -0 -0 1 0 3
1 -9.5000001107669032 -35 29 2.9917588525280153e-15 -1 0 1 2.9917588525280153e-15 0 -0 0 1 
2 -9.499999999999984 -32 29 0 0 1 1 0 -0 -0 1 0 3
1 -12.499999999999279 -32.000002057679232 29 0.99999999999921962 1.2492932180120622e-06 -0 -1.2492932180120622e-06 0.99999999999921962 0 0 0 1 
2 -5.0000000859590044 -22.999992443797407 29 0 0 1 1 0 -0 -0 1 0 7.5000111576853978
2 14.5 -18 29 0 0 1 1 0 -0 -0 1 0 1.7
2 14.5 -37 29 0 0 1 1 0 -0 -0 1 0 1.7
2 -14.5 -18 29 0 0 1 1 0 -0 -0 1 0 1.7
2 -14.5 -37 29 0 0 1 1 0 -0 -0 1 0 1.7
2 -14.5 37 29 0 0 1 1 0 -0 -0 1 0 1.7
1 -10.99998998103756 36.499999999980389 29 8.9140897131658043e-13 -1 0 1 8.9140897131658043e-13 0 -0 0 1 
2 -11.000000829120019 33.5 29 0 0 1 1 0 -0 -0 1 0 3
2 10.999999170879981 33.5 29 0 0 1 1 0 -0 -0 1 0 3
1 -14.000000298555923 -6.999990113860421 29 0.99999999999999989 1.3099877782775314e-08 -0 -1.3099877782775314e-08 0.99999999999999989 0 0 0 1 
1 13.999999170861832 33.499989564849379 29 -0.99999999999999989 -1.3099971074452453e-08 0 1.3099971074452453e-08 -0.99999999999999989 0 0 0 1 
2 -11.000000298572212 -6.9999999999999973 29 0 0 1 1 0 -0 -0 1 0 3
2 10.999999701427788 -6.9999999999999982 29 0 0 1 1 0 -0 -0 1 0 3
1 10.999989981037562 -9.9999999999842508 29 9.0675024890264467e-14 1 -0 -1 9.0675024890264467e-14 0 0 0 1 
2 14.5 37 29 0 0 1 1 0 -0 -0 1 0 1.7
1 0 -13.249999999982002 29 -0 -0 -1 -1 0 0 0 1 -0 
1 -4.9999999999998446 -15.499981286112011 29 -1.7763568394002015e-16 -1 0 1 -1.7763568394002015e-16 0 0 0 1 
1 -3.8681191690985665e-06 -25.846039928969287 29.000000000000007 -4.7770343003025668e-32 7.1194243443690717e-31 -1 0 -1 -7.1194243443690717e-31 -1 -3.4009734291460168e-62 4.7770343003025668e-32 
1 14.500000000000002 -18.000000000000004 29.000000000000004 -5.3682576018500295e-30 8.3708423622068307e-30 1 0 1 -8.3708423622068307e-30 -1 -4.4936838144805077e-59 -5.3682576018500295e-30 
1 14.500000000000002 -37 29.000000000000004 -5.3682576018500239e-30 -3.6394966792203132e-31 1 1 0 5.3682576018500239e-30 -1.9537755715132364e-60 1 3.6394966792203132e-31 
1 -14.499999999999998 -18.000000000000004 29.000000000000004 -5.3682576018500295e-30 8.3708423622068307e-30 1 0 1 -8.3708423622068307e-30 -1 -4.4936838144805077e-59 -5.3682576018500295e-30 
1 -14.499999999999998 -37 29.000000000000004 -5.3682576018500239e-30 -3.6394966792203132e-31 1 1 0 5.3682576018500239e-30 -1.9537755715132364e-60 1 3.6394966792203132e-31 
1 -14.499999999999998 37 29.000000000000004 -5.3682576018500239e-30 -3.6394966792203132e-31 1 1 0 5.3682576018500239e-30 -1.9537755715132364e-60 1 3.6394966792203132e-31 
1 -5.5592860085667327e-07 13.249999993736994 29.000000000000011 -2.2347652451134846e-32 -9.6619353252540694e-34 -1 -1 0 2.2347652451134846e-32 -2.1592157265412046e-65 1 -9.6619353252540694e-34 
1 14.500000000000002 37 29.000000000000004 -5.3682576018500239e-30 -3.6394966792203132e-31 1 1 0 5.3682576018500239e-30 -1.9537755715132364e-60 1 3.6394966792203132e-31 
Triangulations 0

TShapes 254
Ve
1e-07
-17.5 40 0
0 0

0101101
*
Ve
1e-07
-17.5 40 29
0 0

0101101
*
Ed
 1e-07 1 1 0
1  1 0 0 29
2  1 1 0 0 29
2  2 2 0 0 29
0

0101000
+254 11 -253 11 *
Ve
1e-07
17.5 40 0
0 0

0101101
*
Ve
1e-07
17.5 40 29
0 0

0101101
*
Ed
 1e-07 1 1 0
1  2 0 0 29
2  3 1 0 0 29
2  4 3 0 0 29
0

0101000
+251 11 -250 11 *
Ed
 1e-07 1 1 0
1  3 0 0 35
2  5 1 15 0 35
2  6 4 16 0 35
0

0101000
+254 17 -251 17 *
Ed
 1e-07 1 1 0
1  4 0 0 35
2  7 1 20 0 35
2  8 5 16 0 35
0

0101000
+253 21 -250 21 *
Wi

0101100
+252 0 -249 0 -248 14 +247 19 *
Fa
0  1e-07 1 0

0111000
+246 0 *
Ve
1e-07
-17.5 -40 0
0 0

0101101
*
Ve
1e-07
-17.5 -40 29
0 0

0101101
*
Ed
 1e-07 1 1 0
1  5 0 0 29
2  9 2 0 0 29
2  10 6 0 0 29
0

0101000
+244 11 -243 11 *
Ed
 1e-07 1 1 0
1  6 0 0 80
2  11 2 15 0 80
2  12 4 16 0 80
0

0101000
+244 17 -254 17 *
Ed
 1e-07 1 1 0
1  7 0 0 80
2  13 2 20 0 80
2  14 5 16 0 80
0

0101000
+243 21 -253 21 *
Wi

0101100
+242 0 -252 0 -241 14 +240 19 *
Fa
0  1e-07 2 0

0111000
+239 0 *
Ve
1e-07
17.5 -40 0
0 0

0101101
*
Ve
1e-07
17.5 -40 29
0 0

0101101
*
Ed
 1e-07 1 1 0
1  8 0 0 29
2  15 3 0 0 29
2  16 6 0 0 29
0

0101000
+237 11 -236 11 *
Ed
 1e-07 1 1 0
1  9 0 0 80
2  17 3 15 0 80
2  18 4 16 0 80
0

0101000
+251 17 -237 17 *
Ed
 1e-07 1 1 0
1  10 0 0 80
2  19 3 20 0 80
2  20 5 16 0 80
0

0101000
+250 21 -236 21 *
Wi

0101100
+249 0 -235 0 -234 14 +233 19 *
Fa
0  1e-07 3 0

0111000
+232 0 *
Ed
 1e-07 1 1 0
1  11 0 0 35
2  21 4 16 0 35
2  22 6 15 0 35
0

0101000
+237 17 -244 17 *
Wi

0101100
+248 0 +234 0 +230 0 +241 0 *
Fa
0  1e-07 4 0

0111000
+229 12 *
Ed
 1e-07 1 1 0
1  12 0 0 35
2  23 5 16 0 35
2  24 6 20 0 35
0

0101000
+236 21 -243 21 *
Wi

0101100
+247 24 +240 24 +233 24 +227 24 *
Ve
1.00001001108663e-07
-5.01675443217825 -15.499999999982 29
0 0

0101101
*
Ve
1e-07
-12 -15.499999999982 29
0 0

0101101
*
Ed
 1e-07 1 1 0
1  13 0 17.0167544321782 24
2  25 5 27 17.0167544321782 24
2  26 7 28 17.0167544321782 24
0

0101000
+225 29 -224 29 *
Ve
1e-07
-12 -10.999999999982 29
0 0

0101101
*
Ed
 1e-07 1 1 0
1  14 0 0 4.5
2  27 5 27 0 4.5
2  28 8 28 0 4.5
0

0101000
+222 29 -224 29 *
Ve
1e-07
12 -10.999999999982 29
0 0

0101101
*
Ed
 1e-07 1 1 0
1  15 0 0 24
2  29 5 27 0 24
2  30 9 28 0 24
0

0101000
+222 29 -220 29 *
Ve
1e-07
12 -15.499999999982 29
0 0

0101101
*
Ed
 1e-07 1 1 0
1  16 0 0 4.5
2  31 5 27 0 4.5
2  32 10 28 0 4.5
0

0101000
+220 29 -218 29 *
Ve
1.00001002885015e-07
5.01675465646815 -15.499999999982 29
0 0

0101101
*
Ed
 1e-07 1 1 0
1  17 0 0 6.98324534353185
2  33 5 27 0 6.98324534353185
2  34 11 28 0 6.98324534353185
0

0101000
+218 29 -216 29 *
Ve
1e-07
12.4999894689846 -22.9999796081453 29
0 0

0101101
*
Ed
 1e-07 1 1 0
1  18 0 6.28318408212612 7.85174771933021
2  35 5 32 6.28318408212612 7.85174771933021
2  36 12 33 6.28318408212612 7.85174771933021
0

0101000
+214 34 -216 34 *
Ve
1e-07
12.500000712565 -31.9999796081586 29
0 0

0101101
*
Ed
 1e-07 1 1 0
1  19 0 0 9.00000000002035
2  37 5 32 0 9.00000000002035
2  38 13 33 0 9.00000000002035
0

0101000
+212 34 -214 34 *
Ve
1e-07
9.5000001107669 -34.9999999999999 29
0 0

0101101
*
Ed
 1e-07 1 1 0
1  20 0 4.71238877976221 6.28319210446006
2  39 5 32 4.71238877976221 6.28319210446006
2  40 14 33 4.71238877976221 6.28319210446006
0

0101000
+210 34 -212 34 *
Ve
1e-07
-9.5000001107669 -35 29
0 0

0101101
*
Ed
 1e-07 1 1 0
1  21 0 0 19.0000002215338
2  41 5 32 0 19.0000002215338
2  42 15 33 0 19.0000002215338
0

0101000
+208 34 -210 34 *
Ve
1e-07
-12.4999999999993 -32.0000020576792 29
0 0

0101101
*
Ed
 1e-07 1 1 0
1  22 0 3.14159333948287 4.71238894346238
2  43 5 32 3.14159333948287 4.71238894346238
2  44 16 33 3.14159333948287 4.71238894346238
0

0101000
+206 34 -208 34 *
Ve
1e-07
-12.5000112436382 -23.0000020576935 29
0 0

0101101
*
Ed
 1e-07 1 1 0
1  23 0 0 8.9999999999928
2  45 5 32 0 8.9999999999928
2  46 17 33 0 8.9999999999928
0

0101000
+206 34 -204 34 *
Ed
 1e-07 1 1 0
1  24 0 1.57303023815876 3.14159393544069
2  47 5 32 1.57303023815876 3.14159393544069
2  48 18 33 1.57303023815876 3.14159393544069
0

0101000
+225 34 -204 34 *
Wi

0101100
-223 26 +221 26 -219 26 -217 26 -215 26 +213 31 +211 31 +209 31 +207 31 +205 31 
-203 31 +202 31 *
Ve
1e-07
16.2 -18 29
0 0

0101101
*
Ed
 1e-07 1 1 0
1  25 0 0 6.28318530717959
2  49 5 37 0 6.28318530717959
2  50 19 38 0 6.28318530717959
0

0101000
+200 39 -200 39 *
Wi

0101100
+199 36 *
Ve
1e-07
16.2 -37 29
0 0

0101101
*
Ed
 1e-07 1 1 0
1  26 0 0 6.28318530717959
2  51 5 37 0 6.28318530717959
2  52 20 38 0 6.28318530717959
0

0101000
+197 39 -197 39 *
Wi

0101100
+196 36 *
Ve
1e-07
-12.8 -18 29
0 0

0101101
*
Ed
 1e-07 1 1 0
1  27 0 0 6.28318530717959
2  53 5 37 0 6.28318530717959
2  54 21 38 0 6.28318530717959
0

0101000
+194 39 -194 39 *
Wi

0101100
+193 36 *
Ve
1e-07
-12.8 -37 29
0 0

0101101
*
Ed
 1e-07 1 1 0
1  28 0 0 6.28318530717959
2  55 5 37 0 6.28318530717959
2  56 22 38 0 6.28318530717959
0

0101000
+191 39 -191 39 *
Wi

0101100
+190 36 *
Ve
1e-07
-12.8 37 29
0 0

0101101
*
Ed
 1e-07 1 1 0
1  29 0 0 6.28318530717959
2  57 5 37 0 6.28318530717959
2  58 23 38 0 6.28318530717959
0

0101000
+188 39 -188 39 *
Wi

0101100
+187 36 *
Ve
1e-07
-10.9999899810376 36.4999999999804 29
0 0

0101101
*
Ve
1.00007037925798e-07
10.9999899810376 36.499999999993 29
0 0

0101101
*
Ed
 1e-07 1 1 0
1  30 0 0 21.9999799620751
2  59 5 42 0 21.9999799620751
2  60 24 43 0 21.9999799620751
0

0101000
+185 44 -184 44 *
Ve
1e-07
-14.0000008291007 33.4999892341919 29
0 0

0101101
*
Ed
 1e-07 1 1 0
1  31 0 1.57079271076741 3.14159624219248
2  61 5 42 1.57079271076741 3.14159624219248
2  62 25 43 1.57079271076741 3.14159624219248
0

0101000
+185 44 -182 44 *
Ve
1e-07
13.9999991708618 33.4999895648494 29
0 0

0101101
*
Ed
 1e-07 1 1 0
1  32 0 6.28318182879605 7.85398469725529
2  63 5 42 6.28318182879605 7.85398469725529
2  64 26 43 6.28318182879605 7.85398469725529
0

0101000
+180 44 -184 44 *
Ve
1e-07
-14.0000002985559 -6.99999011386042 29
0 0

0101101
*
Ed
 1e-07 1 1 0
1  33 0 0 40.4999793480524
2  65 5 42 0 40.4999793480524
2  66 27 43 0 40.4999793480524
0

0101000
+178 44 -182 44 *
Ve
1.00000001776357e-07
13.9999997014104 -6.99998978320299 29
0 0

0101101
*
Ed
 1e-07 1 1 0
1  34 0 0 40.4999793480524
2  67 5 42 0 40.4999793480524
2  68 28 43 0 40.4999793480524
0

0101000
+180 44 -176 44 *
Ve
1e-07
-10.9999899810376 -9.99999999998226 29
0 0

0101101
*
Ed
 1e-07 1 1 0
1  35 0 3.14158935820993 4.71239241956291
2  69 5 42 3.14158935820993 4.71239241956291
2  70 29 43 3.14158935820993 4.71239241956291
0

0101000
+178 44 -174 44 *
Ve
1e-07
10.9999899810376 -9.99999999998425 29
0 0

0101101
*
Ed
 1e-07 1 1 0
1  36 0 4.71238574025461 6.28318871277859
2  71 5 42 4.71238574025461 6.28318871277859
2  72 30 43 4.71238574025461 6.28318871277859
0

0101000
+172 44 -176 44 *
Ed
 1e-07 1 1 0
1  37 0 0 21.9999799620751
2  73 5 42 0 21.9999799620751
2  74 31 43 0 21.9999799620751
0

0101000
+172 44 -174 44 *
Wi

0101100
-183 41 +181 41 +179 41 -177 41 -175 41 +173 41 +171 41 -170 41 *
Ve
1e-07
16.2 37 29
0 0

0101101
*
Ed
 1e-07 1 1 0
1  38 0 0 6.28318530717959
2  75 5 37 0 6.28318530717959
2  76 32 38 0 6.28318530717959
0

0101000
+168 39 -168 39 *
Wi

0101100
+167 36 *
Fa
0  1e-07 5 23

0111000
+226 0 +201 0 +198 0 +195 0 +192 0 +189 0 +186 0 +169 0 +166 0 *
Wi

0101100
+235 0 -242 0 -230 14 +227 19 *
Fa
0  1e-07 6 0

0111000
+164 0 *
Ve
1e-07
-12 -15.499999999982 19
0 0

0101101
*
Ed
 1e-07 1 1 0
1  39 0 0 10
2  77 7 0 0 10
2  78 8 0 0 10
0

0101000
+224 45 -162 45 *
Ve
2.00001e-07
-5.01675443218069 -15.499999999982 19
0 0

0101101
*
Ed
 1e-07 1 1 0
1  40 0 17.0167544321807 24
2  79 7 48 17.0167544321807 24
2  80 33 49 17.0167544321807 24
0

0101000
+160 50 -162 50 *
Ed
 1e-07 1 1 0
1  41 0 -10 0
2  81 7 0 -10 0
2  82 18 51 -10 0
0

0101000
+160 45 -225 45 *
Wi

0101100
-223 26 -161 0 +159 47 -158 0 *
Fa
0  1e-07 7 0

0111000
+157 0 *
Ve
1e-07
-12 -10.999999999982 19
0 0

0101101
*
Ed
 1e-07 1 1 0
1  42 0 0 10
2  83 8 0 0 10
2  84 9 0 0 10
0

0101000
+222 45 -155 45 *
Ed
 1e-07 1 1 0
1  43 0 0 4.5
2  85 8 48 0 4.5
2  86 33 49 0 4.5
0

0101000
+155 50 -162 50 *
Wi

0101100
+154 0 -221 26 +153 47 -161 0 *
Fa
0  1e-07 8 0

0111000
+152 0 *
Ve
1e-07
12 -10.999999999982 19
0 0

0101101
*
Ed
 1e-07 1 1 0
1  44 0 0 24
2  87 9 48 0 24
2  88 33 49 0 24
0

0101000
+155 50 -150 50 *
Ed
 1e-07 1 1 0
1  45 0 0 10
2  89 9 0 0 10
2  90 10 0 0 10
0

0101000
+220 45 -150 45 *
Wi

0101100
+154 0 -219 26 +149 47 -148 0 *
Fa
0  1e-07 9 0

0111000
+147 0 *
Ve
1e-07
12 -15.499999999982 19
0 0

0101101
*
Ed
 1e-07 1 1 0
1  46 0 0 4.5
2  91 10 48 0 4.5
2  92 33 49 0 4.5
0

0101000
+150 50 -145 50 *
Ed
 1e-07 1 1 0
1  47 0 0 10
2  93 10 0 0 10
2  94 11 0 0 10
0

0101000
+218 45 -145 45 *
Wi

0101100
+148 0 -217 26 +144 47 -143 0 *
Fa
0  1e-07 10 0

0111000
+142 0 *
Ve
2.00001e-07
5.0167546564677 -15.499999999982 19
0 0

0101101
*
Ed
 1e-07 1 1 0
1  48 0 -10 0
2  95 11 0 -10 0
2  96 12 51 -10 0
0

0101000
+140 45 -216 45 *
Ed
 1e-07 1 1 0
1  49 0 0 6.9832453435323
2  97 11 48 0 6.9832453435323
2  98 33 49 0 6.9832453435323
0

0101000
+145 50 -140 50 *
Wi

0101100
-215 26 +139 0 +138 47 +143 0 *
Fa
0  1e-07 11 0

0111000
+137 0 *
Ve
2.00001e-07
5.00000000000043 -15.499981286112 19
0 0

0101101
*
Ed
 1e-07 1 1 0
1  50 0 1.56856241215069 1.57079637144085
2  99 12 51 1.56856241215069 1.57079637144085
2  100 33 52 1.56856241215069 1.57079637144085
0

0101000
+140 45 -135 45 *
Ve
1e-07
5.00000000000043 -15.499981286112 14
0 0

0101101
*
Ed
 1e-07 1 1 0
1  51 0 10 15
2  101 12 0 10 15
2  102 34 0 10 15
4 G1 12 0 34 0
0

0101000
+135 53 -133 53 *
Ve
1e-07
12.4999894689846 -22.9999796081453 14
0 0

0101101
*
Ed
 1e-07 1 1 0
1  52 0 6.28318408212612 7.85398167862043
2  103 12 56 6.28318408212612 7.85398167862043
2  104 35 57 6.28318408212612 7.85398167862043
0

0101000
+131 58 -133 58 *
Ed
 1e-07 1 1 0
1  53 0 0 15
2  105 12 0 0 15
2  106 13 0 0 15
4 G1 12 0 13 0
0

0101000
+214 53 -131 53 *
Wi

0101100
-213 31 +139 0 -134 0 -132 51 +130 55 +129 51 *
Fa
0  1e-07 12 51

0111000
+128 0 *
Ve
1e-07
12.500000712565 -31.9999796081586 14
0 0

0101101
*
Ed
 1e-07 1 1 0
1  54 0 0 15
2  107 13 0 0 15
2  108 14 0 0 15
4 G1 13 0 14 0
0

0101000
+212 53 -126 53 *
Ed
 1e-07 1 1 0
1  55 0 0 9.00000000002035
2  109 13 56 0 9.00000000002035
2  110 35 57 0 9.00000000002035
0

0101000
+126 58 -131 58 *
Wi

0101100
+125 0 -211 59 +124 60 -129 0 *
Fa
0  1e-07 13 0

0111000
+123 0 *
Ve
1e-07
9.5000001107669 -34.9999999999999 14
0 0

0101101
*
Ed
 1e-07 1 1 0
1  56 0 0 15
2  111 14 0 0 15
2  112 15 0 0 15
4 G1 14 0 15 0
0

0101000
+210 53 -121 53 *
Ed
 1e-07 1 1 0
1  57 0 4.71238877976221 6.28319210446006
2  113 14 56 4.71238877976221 6.28319210446006
2  114 35 57 4.71238877976221 6.28319210446006
0

0101000
+121 58 -126 58 *
Wi

0101100
+120 0 -209 59 +119 60 -125 0 *
Fa
0  1e-07 14 0

0111000
+118 0 *
Ve
1e-07
-9.5000001107669 -35 14
0 0

0101101
*
Ed
 1e-07 1 1 0
1  58 0 0 15
2  115 15 0 0 15
2  116 16 0 0 15
4 G1 15 0 16 0
0

0101000
+208 53 -116 53 *
Ed
 1e-07 1 1 0
1  59 0 0 19.0000002215338
2  117 15 56 0 19.0000002215338
2  118 35 57 0 19.0000002215338
0

0101000
+116 58 -121 58 *
Wi

0101100
+115 0 -207 59 +114 60 -120 0 *
Fa
0  1e-07 15 0

0111000
+113 0 *
Ve
1e-07
-12.4999999999993 -32.0000020576792 14
0 0

0101101
*
Ed
 1e-07 1 1 0
1  60 0 0 15
2  119 16 0 0 15
2  120 17 0 0 15
4 G1 16 0 17 0
0

0101000
+206 53 -111 53 *
Ed
 1e-07 1 1 0
1  61 0 3.14159333948287 4.71238894346238
2  121 16 56 3.14159333948287 4.71238894346238
2  122 35 57 3.14159333948287 4.71238894346238
0

0101000
+111 58 -116 58 *
Wi

0101100
+110 0 -205 59 +109 60 -115 0 *
Fa
0  1e-07 16 0

0111000
+108 0 *
Ve
1e-07
-12.5000112436382 -23.0000020576935 14
0 0

0101101
*
Ed
 1e-07 1 1 0
1  62 0 0 8.9999999999928
2  123 17 56 0 8.9999999999928
2  124 35 57 0 8.9999999999928
0

0101000
+111 58 -106 58 *
Ed
 1e-07 1 1 0
1  63 0 0 15
2  125 17 0 0 15
2  126 18 0 0 15
4 G1 17 0 18 0
0

0101000
+204 53 -106 53 *
Wi

0101100
+110 0 -203 59 +105 60 -104 0 *
Fa
0  1e-07 17 0

0111000
+103 0 *
Ve
2.00001e-07
-4.99999999999984 -15.499981286112 19
0 0

0101101
*
Ed
 1e-07 1 1 0
1  64 0 1.57079631533369 1.57303023815909
2  127 18 51 1.57079631533369 1.57303023815909
2  128 33 52 1.57079631533369 1.57303023815909
0

0101000
+101 45 -160 45 *
Ve
1e-07
-4.99999999999984 -15.499981286112 14
0 0

0101101
*
Ed
 1e-07 1 1 0
1  65 0 1.57079631533369 3.14159393544069
2  129 18 56 1.57079631533369 3.14159393544069
2  130 35 57 1.57079631533369 3.14159393544069
0

0101000
+99 58 -106 58 *
Ed
 1e-07 1 1 0
1  66 0 10 15
2  131 18 0 10 15
2  132 34 0 10 15
4 G1 18 0 34 0
0

0101000
+101 53 -99 53 *
Wi

0101100
-100 0 -158 0 -202 31 -104 51 +98 55 +97 51 *
Fa
0  1e-07 18 51

0111000
+96 0 *
Ve
1e-07
16.2 -18 26
0 0

0101101
*
Ed
 1e-07 1 1 0
1  67 0 0 3
3  133 134CN 19 0 0 3
0

0101000
+200 63 -94 63 *
Ed
 1e-07 1 1 0
1  68 0 0 6.28318530717959
2  135 19 66 0 6.28318530717959
2  136 36 67 0 6.28318530717959
0

0101000
+94 68 -94 68 *
Wi

0101100
-199 62 -93 0 +92 65 +93 0 *
Fa
0  1e-07 19 0

0111000
+91 0 *
Ve
1e-07
16.2 -37 26
0 0

0101101
*
Ed
 1e-07 1 1 0
1  69 0 0 3
3  137 138CN 20 0 0 3
0

0101000
+197 63 -89 63 *
Ed
 1e-07 1 1 0
1  70 0 0 6.28318530717959
2  139 20 66 0 6.28318530717959
2  140 37 67 0 6.28318530717959
0

0101000
+89 68 -89 68 *
Wi

0101100
-196 62 -88 0 +87 65 +88 0 *
Fa
0  1e-07 20 0

0111000
+86 0 *
Ve
1e-07
-12.8 -18 26
0 0

0101101
*
Ed
 1e-07 1 1 0
1  71 0 0 3
3  141 142CN 21 0 0 3
0

0101000
+194 63 -84 63 *
Ed
 1e-07 1 1 0
1  72 0 0 6.28318530717959
2  143 21 66 0 6.28318530717959
2  144 38 67 0 6.28318530717959
0

0101000
+84 68 -84 68 *
Wi

0101100
-193 62 -83 0 +82 65 +83 0 *
Fa
0  1e-07 21 0

0111000
+81 0 *
Ve
1e-07
-12.8 -37 26
0 0

0101101
*
Ed
 1e-07 1 1 0
1  73 0 0 3
3  145 146CN 22 0 0 3
0

0101000
+191 63 -79 63 *
Ed
 1e-07 1 1 0
1  74 0 0 6.28318530717959
2  147 22 66 0 6.28318530717959
2  148 39 67 0 6.28318530717959
0

0101000
+79 68 -79 68 *
Wi

0101100
-190 62 -78 0 +77 65 +78 0 *
Fa
0  1e-07 22 0

0111000
+76 0 *
Ve
1e-07
-12.8 37 26
0 0

0101101
*
Ed
 1e-07 1 1 0
1  75 0 0 3
3  149 150CN 23 0 0 3
0

0101000
+188 63 -74 63 *
Ed
 1e-07 1 1 0
1  76 0 0 6.28318530717959
2  151 23 66 0 6.28318530717959
2  152 40 67 0 6.28318530717959
0

0101000
+74 68 -74 68 *
Wi

0101100
-187 62 -73 0 +72 65 +73 0 *
Fa
0  1e-07 23 0

0111000
+71 0 *
Ve
1e-07
-10.9999899810376 36.4999999999804 2.5
0 0

0101101
*
Ed
 1e-07 1 1 0
1  77 0 0 26.5
2  153 24 0 0 26.5
2  154 25 0 0 26.5
4 G1 24 0 25 0
0

0101000
+185 70 -69 70 *
Ve
1.00007037925798e-07
10.9999899810376 36.499999999993 2.5
0 0

0101101
*
Ed
 1e-07 1 1 0
1  78 0 0 21.9999799620751
2  155 24 74 0 21.9999799620751
2  156 41 75 0 21.9999799620751
0

0101000
+69 76 -67 76 *
Ed
 1.00007037925798e-07 1 1 0
1  79 0 0 26.5
2  157 24 0 0 26.5
2  158 26 0 0 26.5
4 G1 24 0 26 0
0

0101000
+184 70 -67 70 *
Wi

0101100
+68 0 -183 71 +66 73 -65 0 *
Fa
0  1e-07 24 0

0111000
+64 0 *
Ve
1e-07
-14.0000008291007 33.4999892341919 2.5
0 0

0101101
*
Ed
 1e-07 1 1 0
1  80 0 1.57079271076741 3.14159624219248
2  159 25 74 1.57079271076741 3.14159624219248
2  160 41 75 1.57079271076741 3.14159624219248
0

0101000
+69 76 -62 76 *
Ed
 1e-07 1 1 0
1  81 0 0 26.5
2  161 25 0 0 26.5
2  162 27 0 0 26.5
4 G1 25 0 27 0
0

0101000
+182 70 -62 70 *
Wi

0101100
+68 0 -181 71 +61 73 -60 0 *
Fa
0  1e-07 25 0

0111000
+59 0 *
Ve
1e-07
13.9999991708618 33.4999895648494 2.5
0 0

0101101
*
Ed
 1e-07 1 1 0
1  82 0 0 26.5
2  163 26 0 0 26.5
2  164 28 0 0 26.5
4 G1 26 0 28 0
0

0101000
+180 70 -57 70 *
Ed
 1e-07 1 1 0
1  83 0 6.28318182879605 7.85398469725529
2  165 26 74 6.28318182879605 7.85398469725529
2  166 41 75 6.28318182879605 7.85398469725529
0

0101000
+57 76 -67 76 *
Wi

0101100
+56 0 -179 71 +55 73 -65 0 *
Fa
0  1e-07 26 0

0111000
+54 0 *
Ve
1e-07
-14.0000002985559 -6.99999011386042 2.5
0 0

0101101
*
Ed
 1e-07 1 1 0
1  84 0 0 26.5
2  167 27 0 0 26.5
2  168 29 0 0 26.5
4 G1 27 0 29 0
0

0101000
+178 70 -52 70 *
Ed
 1e-07 1 1 0
1  85 0 0 40.4999793480524
2  169 27 74 0 40.4999793480524
2  170 41 75 0 40.4999793480524
0

0101000
+52 76 -62 76 *
Wi

0101100
+51 0 -177 71 +50 73 -60 0 *
Fa
0  1e-07 27 0

0111000
+49 0 *
Ve
1.00000001776357e-07
13.9999997014104 -6.99998978320299 2.5
0 0

0101101
*
Ed
 1e-07 1 1 0
1  86 0 0 40.4999793480524
2  171 28 74 0 40.4999793480524
2  172 41 75 0 40.4999793480524
0

0101000
+57 76 -47 76 *
Ed
 1.00000001776357e-07 1 1 0
1  87 0 0 26.5
2  173 28 0 0 26.5
2  174 30 0 0 26.5
4 G1 28 0 30 0
0

0101000
+176 70 -47 70 *
Wi

0101100
+56 0 -175 71 +46 73 -45 0 *
Fa
0  1e-07 28 0

0111000
+44 0 *
Ve
1e-07
-10.9999899810376 -9.99999999998226 2.5
0 0

0101101
*
Ed
 1e-07 1 1 0
1  88 0 3.14158935820993 4.71239241956291
2  175 29 74 3.14158935820993 4.71239241956291
2  176 41 75 3.14158935820993 4.71239241956291
0

0101000
+52 76 -42 76 *
Ed
 1e-07 1 1 0
1  89 0 0 26.5
2  177 29 0 0 26.5
2  178 31 0 0 26.5
4 G1 29 0 31 0
0

0101000
+174 70 -42 70 *
Wi

0101100
+51 0 -173 71 +41 73 -40 0 *
Fa
0  1e-07 29 0

0111000
+39 0 *
Ve
1e-07
10.9999899810376 -9.99999999998425 2.5
0 0

0101101
*
Ed
 1e-07 1 1 0
1  90 0 0 26.5
2  179 30 0 0 26.5
2  180 31 0 0 26.5
4 G1 30 0 31 0
0

0101000
+172 70 -37 70 *
Ed
 1e-07 1 1 0
1  91 0 4.71238574025461 6.28318871277859
2  181 30 74 4.71238574025461 6.28318871277859
2  182 41 75 4.71238574025461 6.28318871277859
0

0101000
+37 76 -47 76 *
Wi

0101100
+36 0 -171 71 +35 73 -45 0 *
Fa
0  1e-07 30 0

0111000
+34 0 *
Ed
 1e-07 1 1 0
1  92 0 0 21.9999799620751
2  183 31 74 0 21.9999799620751
2  184 41 75 0 21.9999799620751
0

0101000
+37 76 -42 76 *
Wi

0101100
+36 0 -170 71 +32 73 -40 0 *
Fa
0  1e-07 31 0

0111000
+31 0 *
Ve
1e-07
16.2 37 26
0 0

0101101
*
Ed
 1e-07 1 1 0
1  93 0 0 3
3  185 186CN 32 0 0 3
0

0101000
+168 63 -29 63 *
Ed
 1e-07 1 1 0
1  94 0 0 6.28318530717959
2  187 32 66 0 6.28318530717959
2  188 42 67 0 6.28318530717959
0

0101000
+29 68 -29 68 *
Wi

0101100
-167 62 -28 0 +27 65 +28 0 *
Fa
0  1e-07 32 0

0111000
+26 0 *
Ed
 1e-07 1 1 0
1  95 0 -2.49999999999992 7.50000000000035
2  189 33 52 -2.49999999999992 7.50000000000035
2  190 34 51 -2.49999999999992 7.50000000000035
0

0101000
+101 45 -135 45 *
Wi

0101100
-153 47 +159 47 +100 0 -24 0 +134 0 +138 47 +144 47 +149 47 *
Fa
0  1e-07 33 52

0111000
+23 0 *
Ed
 1e-07 1 1 0
1  96 0 0 10.0000000000003
2  191 34 56 0 10.0000000000003
2  192 35 57 0 10.0000000000003
0

0101000
+99 58 -133 58 *
Wi

0101100
-24 0 -132 51 +21 55 +97 51 *
Fa
0  1e-07 34 51

0111000
+20 0 *
Wi

0101100
+105 0 -98 0 +21 0 -130 0 -124 0 -119 0 -114 0 -109 0 *
Fa
0  1e-07 35 0

0111000
+18 30 *
Wi

0101100
+92 0 *
Fa
0  1e-07 36 0

0111000
+16 35 *
Wi

0101100
+87 0 *
Fa
0  1e-07 37 0

0111000
+14 35 *
Wi

0101100
+82 0 *
Fa
0  1e-07 38 0

0111000
+12 35 *
Wi

0101100
+77 0 *
Fa
0  1e-07 39 0

0111000
+10 35 *
Wi

0101100
+72 0 *
Fa
0  1e-07 40 0

0111000
+8 35 *
Wi

0101100
+50 0 -61 0 +66 0 -55 0 +46 0 -35 0 +32 0 -41 0 *
Fa
0  1e-07 41 0

0111000
+6 40 *
Wi

0101100
+27 0 *
Fa
0  1e-07 42 0

0111000
+4 35 *
Sh

0101100
+245 10 +238 10 +231 10 +228 22 -165 0 +163 10 +156 0 -151 0 +146 0 +141 0 
+136 0 -127 0 -122 51 -117 51 -112 51 -107 51 +102 51 -95 0 -90 61 -85 61 
-80 61 -75 61 -70 61 +63 69 -58 69 -53 69 +48 69 +43 69 -38 69 -33 69 
+30 69 -25 61 -22 0 +19 0 -17 77 +15 78 +13 78 +11 78 +9 78 +7 78 
-5 79 +3 78 *
So

1100000
+2 0 *

+1 1 