DBRep_DrawableShape

CASCADE Topology V1, (c) Matra-Datavision
Locations 101
1
              1               0               0               0 
              0               1               0               0 
              0               0               1               0 
1
              1               0               0               0 
              0               1               0               0 
              0               0               1               0 
1
              1               0               0               0 
              0               1               0               0 
              0               0               1               0 
1
              1               0               0               0 
              0               1               0               0 
              0               0               1               0 
1
              1               0               0               0 
              0               1               0               0 
              0               0               1               0 
1
              1               0               0               0 
              0               1               0               0 
              0               0               1               0 
1
              1               0               0               0 
              0               1               0               0 
              0               0               1               0 
1
              1               0               0               0 
              0               1               0               0 
              0               0               1               0 
1
              1               0               0               0 
              0               1               0               0 
              0               0               1               0 
1
              1               0               0               0 
              0               1               0               0 
              0               0               1               0 
1
              1               0               0               0 
              0               1               0               0 
              0               0               1               0 
2  2 1 3 -1 4 1 5 -1 6 1 7 -1 8 1 9 -1 10 1 11 -1 0
2  1 -1 11 1 10 -1 9 1 8 -1 7 1 6 -1 5 1 4 -1 3 1 2 -1 0
1
              1               0               0               0 
              0               1               0               0 
              0               0               1               0 
1
              1               0               0               0 
              0               1               0               0 
              0               0               1               0 
2  14 1 15 -1 0
2  15 1 14 -1 0
2  14 -1 0
2  1 -1 11 1 10 -1 9 1 8 -1 7 1 6 -1 5 1 4 -1 3 1 2 -1 15 1 14 -1 0
1
              1               0               0               0 
              0               1               0               0 
              0               0               1              29 
2  14 1 15 -1 20 1 0
2  20 -1 15 1 14 -1 0
2  1 -1 11 1 10 -1 9 1 8 -1 7 1 6 -1 5 1 4 -1 3 1 2 -1 20 -1 15 1 14 -1 0
2  15 -1 2 1 3 -1 4 1 5 -1 6 1 7 -1 8 1 9 -1 10 1 11 -1 0
2  15 -1 20 1 2 1 3 -1 4 1 5 -1 6 1 7 -1 8 1 9 -1 10 1 11 -1 0
2  14 1 15 -1 20 1 2 1 3 -1 4 1 5 -1 6 1 7 -1 8 1 9 -1 10 1 11 -1 0
1
              1               0               0              -0 
              0               1               0               0 
              0               0               1              29 
2  27 1 7 -1 8 1 9 -1 10 1 11 -1 0
2  15 -1 20 1 2 1 3 -1 4 1 5 -1 6 1 27 -1 0
2  7 1 27 -1 0
2  1 -1 11 1 10 -1 9 1 8 -1 7 1 27 -1 0
1
              1               0               0              -0 
              0               1               0               0 
              0               0               1              29 
2  32 1 9 -1 10 1 11 -1 0
2  15 -1 20 1 2 1 3 -1 4 1 5 -1 6 1 7 -1 8 1 32 -1 0
2  9 1 32 -1 0
2  1 -1 11 1 10 -1 9 1 32 -1 0
1
              1               0               0              -0 
              0               1               0               0 
              0               0               1              29 
2  37 1 11 -1 0
2  15 -1 20 1 2 1 3 -1 4 1 5 -1 6 1 7 -1 8 1 9 -1 10 1 37 -1 0
2  11 1 37 -1 0
2  1 -1 11 1 37 -1 0
1
              1               0               0              -0 
              0               1               0               0 
              0               0               1              29 
2  42 1 3 -1 4 1 5 -1 6 1 7 -1 8 1 9 -1 10 1 11 -1 0
2  15 -1 20 1 2 1 42 -1 0
2  3 1 42 -1 0
2  1 -1 11 1 10 -1 9 1 8 -1 7 1 6 -1 5 1 4 -1 3 1 42 -1 0
1
              1               0               0              -0 
              0               1               0               0 
              0               0               1              29 
2  47 1 5 -1 6 1 7 -1 8 1 9 -1 10 1 11 -1 0
2  15 -1 20 1 2 1 3 -1 4 1 47 -1 0
2  5 1 47 -1 0
2  1 -1 11 1 10 -1 9 1 8 -1 7 1 6 -1 5 1 47 -1 0
2  8 1 9 -1 10 1 11 -1 0
2  27 1 7 -1 0
2  1 -1 11 1 10 -1 9 1 8 -1 0
1
              1               0               0              -0 
              0               1               0              -0 
              0               0               1              -3 
2  27 1 7 -1 55 1 0
2  55 -1 7 1 27 -1 0
2  27 -1 0
2  1 -1 11 1 10 -1 9 1 8 -1 55 -1 7 1 27 -1 0
2  10 1 11 -1 0
2  1 -1 11 1 10 -1 0
1
              1               0               0              -0 
              0               1               0              -0 
              0               0               1             -10 
2  32 1 9 -1 62 1 10 1 11 -1 0
2  62 -1 9 1 32 -1 0
2  32 -1 0
2  1 -1 11 1 10 -1 62 -1 9 1 32 -1 0
2  1 -1 0
2  32 1 9 -1 0
2  32 1 9 -1 62 1 0
2  4 1 5 -1 6 1 7 -1 8 1 9 -1 10 1 11 -1 0
1
              1               0               0              -0 
              0               1               0              -0 
              0               0               1             -10 
2  37 1 11 -1 71 1 0
2  71 -1 11 1 37 -1 0
2  37 -1 0
2  1 -1 71 -1 11 1 37 -1 0
2  11 -1 71 1 0
2  1 -1 11 1 10 -1 9 1 8 -1 7 1 6 -1 5 1 4 -1 0
1
              1               0               0              -0 
              0               1               0              -0 
              0               0               1           -26.5 
2  42 1 3 -1 78 1 4 1 5 -1 6 1 7 -1 8 1 9 -1 10 1 11 -1 0
2  78 -1 3 1 42 -1 0
2  42 -1 0
2  1 -1 11 1 10 -1 9 1 8 -1 7 1 6 -1 5 1 4 -1 78 -1 3 1 42 -1 0
2  42 1 3 -1 0
2  42 1 3 -1 78 1 0
2  6 1 7 -1 8 1 9 -1 10 1 11 -1 0
2  6 1 7 -1 8 1 9 -1 0
2  9 -1 62 1 0
2  1 -1 11 1 10 -1 9 1 8 -1 7 1 6 -1 0
1
              1               0               0              -0 
              0               1               0              -0 
              0               0               1             -15 
2  47 1 5 -1 89 1 6 1 7 -1 8 1 9 -1 10 1 11 -1 0
2  89 -1 5 1 47 -1 0
2  47 -1 0
2  1 -1 11 1 10 -1 9 1 8 -1 7 1 6 -1 89 -1 5 1 47 -1 0
2  47 1 5 -1 0
2  47 1 5 -1 89 1 0
2  7 -1 55 1 8 1 9 -1 10 1 11 -1 0
2  9 -1 62 1 10 1 11 -1 0
2  9 -1 62 1 10 1 11 -1 71 -1 11 1 37 -1 0
2  11 -1 71 1 11 1 10 -1 62 -1 9 1 32 -1 0
2  3 -1 78 1 4 1 5 -1 6 1 7 -1 8 1 9 -1 10 1 11 -1 0
2  5 -1 89 1 6 1 7 -1 8 1 9 -1 10 1 11 -1 0
Curve2ds 242
1 0 0 0 -1 
1 80 0 0 -1 
1 35 0 0 -1 
1 0 0 0 -1 
1 0 0 1 0 
1 17.5 40 -1 0 
1 0 -29 1 0 
1 17.5 40 -1 0 
1 0 0 0 -1 
1 35 0 0 -1 
1 0 0 1 0 
1 17.5 -40 0 1 
1 0 -29 1 0 
1 17.5 -40 0 1 
1 80 0 0 -1 
1 0 -0 0 -1 
1 0 0 1 0 
1 -17.5 40 0 -1 
1 0 -29 1 0 
1 -17.5 40 0 -1 
1 -17.5 -40 1 0 
1 0 -0 1 0 
1 -17.5 -40 1 0 
1 0 -29 1 0 
2 -14.5 -37 -1 0 0 1 1.6999999999999993
1 0 0 1 0 
2 -14.5 -18 -1 0 0 1 1.6999999999999993
1 0 0 1 0 
2 14.5 -18 -1 0 0 1 1.6999999999999993
1 0 0 1 0 
2 14.5 -37 -1 0 0 1 1.6999999999999993
1 0 0 1 0 
2 14.5 37 -1 0 0 1 1.6999999999999993
1 0 0 1 0 
1 -12 -15.499999999982 1 0 
1 0 0 1 0 
1 12 -10.999999999982 0 -1 
1 0 0 1 0 
1 12 -10.999999999982 -1 0 
1 0 0 1 0 
1 9.5 -18.916258333333001 0 1 
1 0 0 1 0 
1 -10.999989981037562 -9.9999999999842508 1 9.0675024890264467e-14 
1 0 0 1 0 
2 11.000000298572212 -6.9999999999999973 -1 0 0 1 3
1 0 0 1 0 
1 14.000000298555923 -6.999990113860421 1.3099877782775314e-08 0.99999999999999989 
1 0 0 1 0 
2 11.000000829120019 33.5 -1 0 0 1 3
1 0 0 1 0 
1 10.99998998103756 36.499999999980389 -1 8.9140897131658043e-13 
1 0 0 1 0 
2 -10.999999170879981 33.5 -1 0 0 1 3
1 0 0 1 0 
1 -13.999999170861832 33.499989564849379 -1.3099971074452453e-08 -0.99999999999999989 
1 0 0 1 0 
2 -10.999999701427788 -6.9999999999999982 -1 0 0 1 3
1 0 0 1 0 
1 -10.999989981037562 -9.9999999999842508 1 9.0675024890264467e-14 
1 0 0 1 0 
1 -9.5 -8.2494589551330009 0 -1 
1 0 0 1 0 
1 12 -10.999999999982 -1 0 
1 0 0 1 0 
1 -12 -10.999999999982 0 -1 
1 0 0 1 0 
1 -12 -15.499999999982 1 0 
1 0 0 1 0 
1 -9.5 -8.2494589551330009 0 -1 
1 0 0 1 0 
2 -5.0000003348445823 -22.999970420257615 -1 0 0 1 7.4999891341456095
1 0 0 1 0 
1 -12.50000071256504 -31.99997960815859 1.2492867197001738e-06 0.99999999999921962 
1 0 0 1 0 
2 -9.5000007126343444 -32 -1 0 0 1 3
1 0 0 1 0 
1 9.5000001107669032 -35 -1 2.9917588525280153e-15 
1 0 0 1 0 
2 9.499999999999984 -32 -1 0 0 1 3
1 0 0 1 0 
1 12.499999999999279 -32.000002057679232 1.2492932180120622e-06 0.99999999999921962 
1 0 0 1 0 
2 5.0000000859590044 -22.999992443797407 -1 0 0 1 7.5000111576853978
1 0 0 1 0 
1 9.5 -18.916258333333001 0 1 
1 0 0 1 0 
2 -14.5 37 -1 0 0 1 1.6999999999999993
1 0 0 1 0 
1 0 0 0 -1 
1 6.2831853071795862 0 0 -1 
1 0 -3 1 0 
2 -1.7763568394002505e-15 3.4706025991106707e-75 1 -1.9537755715132364e-60 1.9537755715132364e-60 1 1.6999999999999993
1 0 0 0 -1 
1 6.2831853071795862 0 0 -1 
1 0 -3 1 0 
2 3.5527136788005009e-15 1.7763568394002505e-15 0 -1 1 0 1.6999999999999993
1 0 0 0 -1 
1 6.2831853071795862 0 0 -1 
1 0 -3 1 0 
2 3.5527136788005009e-15 1.7763568394002505e-15 0 -1 1 0 1.6999999999999993
1 0 0 0 -1 
1 6.2831853071795862 0 0 -1 
1 0 -3 1 0 
2 -1.7763568394002505e-15 3.4706025991106707e-75 1 -1.9537755715132364e-60 1.9537755715132364e-60 1 1.6999999999999993
1 0 0 0 -1 
1 6.2831853071795862 0 0 -1 
1 0 -3 1 0 
2 -1.7763568394002505e-15 3.4706025991106707e-75 1 -1.9537755715132364e-60 1.9537755715132364e-60 1 1.6999999999999993
1 24 0 0 -1 
1 4.5 0 0 -1 
1 0 -10 1 0 
1 -12 -2.2499999999999982 1 0 
8 -1 11
1 21.5 0 0 -1 
8 -1 11
1 3.416258333351001 0 0 -1 
1 0 0 0 -1 
1 0 0 0 -1 
1 0 -10 1 0 
1 12 2.2500000000000018 0 -1 
8 -11 1
1 2.5 0 0 1 
8 -11 1
1 7.916258333351001 0 0 1 
1 0 -10 1 0 
1 12 2.2500000000000018 -1 0 
8 -1 11
1 8.9162583333506085 0 0 -1 
8 -1 11
1 20.499989981037562 0 0 -1 
1 0 -10 1 0 
1 5.3333996890999984 9.5 -1 0 
8 -11 1
1 1.4999899810375616 0 0 1 
8 -11 1
1 1.7505410448511132 0 0 1 
8 -5.900005009481057 16.899994990518945
1 5.4999949905186183 -9.9999999999999964 1 -2.3352359241971102e-44 
8 -5.900005009481057 16.899994990518945
1 -3.5828586442492512 -5.4999949905189434 -9.0675024890264467e-14 1 
1 21.999979962075123 0 0 -1 
1 4.7123924195629066 0 0 -1 
1 0 -26.5 1 0 
1 -10.999990536966163 -23.249999993721246 1 9.0675024890264467e-14 
1 0 0 0 -1 
1 4.7123857402546143 0 0 -1 
1 3.1415893582099343 0 0 -1 
1 0 0 0 -1 
1 0 -26.5 1 0 
2 10.999999742643611 -20.249999993736992 -1 -2.1592157265412046e-65 -2.1592157265412046e-65 1 3
1 0 -26.5 1 0 
1 13.999999742627322 -20.249990107597416 1.3099877782775314e-08 0.99999999999999989 
1 40.499979348052364 0 0 -1 
1 3.1415962421924788 0 0 -1 
1 1.5707927107674102 0 0 -1 
1 0 0 0 -1 
1 0 -26.5 1 0 
2 11.000000273191418 20.250000006263008 -1 -2.1592157265412046e-65 -2.1592157265412046e-65 1 3
1 0 -26.5 1 0 
1 10.999989425108959 23.250000006243397 -1 8.9140897131658043e-13 
1 21.99997996207512 0 0 -1 
1 7.8539846972552905 0 0 -1 
1 6.283181828796045 0 0 -1 
1 0 0 0 -1 
1 0 -26.5 1 0 
2 -10.999999726808582 20.250000006263008 -1 -2.1592157265412046e-65 -2.1592157265412046e-65 1 3
1 0 -26.5 1 0 
1 -13.999999726790433 20.249989571112387 -1.3099971074452453e-08 -0.99999999999999989 
1 40.499979348052364 0 0 -1 
1 6.2831887127785899 0 0 -1 
1 0 -26.5 1 0 
2 -11.000000257356389 -20.249999993736992 -1 -2.1592157265412046e-65 -2.1592157265412046e-65 1 3
8 -1 11
1 2.7505410448489993 0 0 -1 
8 -1 11
1 21.5 0 -0 -1 
1 0 -10 1 0 
1 -5.333399689100002 -9.5 1 0 
1 24 0 0 -1 
1 0 0 0 -1 
1 0 -10 1 0 
1 12 2.2500000000000018 -1 0 
1 0 -10 1 0 
1 -12 2.2500000000000018 0 -1 
1 4.5 0 0 -1 
1 0 0 0 -1 
8 -11 1
1 2.5 0 0 1 
8 -11 1
1 7.2505410448489993 0 0 1 
1 0 -10 1 0 
1 -12 -2.2499999999999982 1 0 
8 -11 4.0000000112172529e-07
1 8.7505247963141457 0 0 1 
8 -11 4.0000000112172529e-07
1 7.210479494401298 0 0 1 
1 0 -10 1 0 
1 -5.333399689100002 -9.5 1 0 
1 6.2831853071795862 -9.9999999999999964 1 0 
2 9.4171117760246119 -5.0000003348445823 0 -1 -1 -0 7.4999891341456095
1 6.2831853071795862 -10 1 0 
2 -5.0000003348445823 -9.7499704202756128 -1 0 0 1 7.4999891341456095
1 7.8539816786204346 0 0 -1 
1 10.000000000000275 0 0 -1 
1 0 -15 1 0 
2 -2.8460695087116719 -5.0000042029637513 0 -1 -1 -0 7.4999891341456095
1 6.2831840821261249 0 0 -1 
1 9.0000000000203482 0 0 -1 
1 0 0 0 -1 
1 6.2831921044600572 0 0 -1 
1 0 -15 1 0 
1 6.1539396791893033 -12.500004580684209 -0.99999999999921962 1.2492867197001738e-06 
1 4.7123887797622093 0 0 -1 
1 19.000000221533806 0 0 -1 
1 0 -15 1 0 
2 6.1539600710307134 -9.5000045807535134 0 -1 -1 -0 3
1 0 0 0 -1 
1 4.7123889434623836 0 0 -1 
1 0 -15 1 0 
1 9.1539600710307134 9.4999962426477342 -2.9917588525280153e-15 -1 
1 3.1415933394828714 0 0 -1 
1 0 0 0 -1 
1 0 -15 1 0 
2 6.1539600710307134 9.499996131880815 0 -1 -1 -0 3
1 0 -15 1 0 
1 6.1539621287099457 12.49999613188011 -0.99999999999921962 1.2492932180120622e-06 
1 8.9999999999928022 0 0 -1 
1 3.1415939354406928 0 0 -1 
1 0 -10 1 0 
2 5.0000000859590044 -9.7499924438154046 -1 0 0 1 7.5000111576853978
1 0 -9.9999999999999964 1 0 
2 9.4171337995644038 5.0000000859590044 0 -1 -1 -0 7.5000111576853978
8 -11 4.0000000112172529e-07
1 2.2142963054953007 0 0 1 
8 -11 4.0000000112172529e-07
1 1.9162799011056073 0 0 1 
1 0 -15 1 0 
2 -2.84604748517188 4.9999962178398354 0 -1 -1 -0 7.5000111576853978
1 1.5707963153336924 0 0 -1 
1 0 0 0 -1 
1 0 -10 1 0 
1 5.3333996890999984 9.5 -1 0 
1 0 0 0 -1 
1 6.2831853071795862 0 0 -1 
1 0 -3 1 0 
2 -1.7763568394002505e-15 3.4706025991106707e-75 1 -1.9537755715132364e-60 1.9537755715132364e-60 1 1.6999999999999993
1 9.5 -5.6662583333509993 0 1 
1 9.5 -5.6662583333509993 0 1 
1 -2.5828586442510026 12 0 -1 
1 12 2.2500000000000018 -1 0 
1 -9.5 5.0005410448490011 0 -1 
1 -9.5 5.0005410448490011 0 -1 
1 1.9171413557489974 -12 0 1 
1 -12 -2.2499999999999982 1 0 
1 -12 -2.2499999999999982 1 0 
1 1.9171413557489974 -12 0 1 
8 -3.499999999999952 8.5000000000004086
1 2.4999999999999223 -2.2499812861300086 -1 -1.7763568394002015e-16 
8 -3.499999999999952 8.5000000000004086
1 2.4999999999999223 -10 1 0 
1 0 -15 1 0 
1 -10.346058642857276 4.9999961318806756 1.7763568394002015e-16 -1 
Curves 121
1 -17.5 40 0 0 0 1 
1 17.5 40 0 0 0 1 
1 -17.5 40 0 1 0 0 
1 -17.5 40 0 1 0 0 
1 -17.5 -40 0 0 0 1 
1 -17.5 -40 0 0 1 0 
1 -17.5 -40 0 0 1 0 
1 17.5 -40 0 0 0 1 
1 17.5 40 0 0 -1 0 
1 17.5 40 0 0 -1 0 
1 17.5 -40 0 -1 0 0 
1 17.5 -40 0 -1 0 0 
2 14.5 -37 0 0 0 1 1 0 -0 -0 1 0 1.7
2 14.5 -18 0 0 0 1 1 0 -0 -0 1 0 1.7
2 -14.5 -18 0 0 0 1 1 0 -0 -0 1 0 1.7
2 -14.5 -37 0 0 0 1 1 0 -0 -0 1 0 1.7
2 -14.5 37 0 0 0 1 1 0 -0 -0 1 0 1.7
1 12 -15.499999999982 0 -1 0 0 
1 -12 -10.999999999982 0 0 -1 0 
1 -12 -10.999999999982 0 1 0 0 
1 -9.5 -18.916258333333001 0 0 1 0 
1 10.999989981037562 -9.9999999999842508 0 -1 9.0675024890264467e-14 0 
2 -11.000000298572212 -6.9999999999999973 0 0 0 1 1 0 -0 -0 1 0 3
1 -14.000000298555923 -6.999990113860421 0 -1.3099877782775314e-08 0.99999999999999989 0 
2 -11.000000829120019 33.5 0 0 0 1 1 0 -0 -0 1 0 3
1 -10.99998998103756 36.499999999980389 0 1 8.9140897131658043e-13 0 
2 10.999999170879981 33.5 0 0 0 1 1 0 -0 -0 1 0 3
1 13.999999170861832 33.499989564849379 0 1.3099971074452453e-08 -0.99999999999999989 0 
2 10.999999701427788 -6.9999999999999982 0 0 0 1 1 0 -0 -0 1 0 3
1 10.999989981037562 -9.9999999999842508 0 -1 9.0675024890264467e-14 0 
1 9.5 -8.2494589551330009 0 0 -1 0 
1 -12 -10.999999999982 0 1 0 0 
1 12 -10.999999999982 0 0 -1 0 
1 12 -15.499999999982 0 -1 0 0 
1 9.5 -8.2494589551330009 0 0 -1 0 
2 5.0000003348445823 -22.999970420257615 0 0 0 1 1 0 -0 -0 1 0 7.4999891341456095
1 12.50000071256504 -31.99997960815859 0 -1.2492867197001738e-06 0.99999999999921962 0 
2 9.5000007126343444 -32 0 0 0 1 1 0 -0 -0 1 0 3
1 -9.5000001107669032 -35 0 1 2.9917588525280153e-15 0 
2 -9.499999999999984 -32 0 0 0 1 1 0 -0 -0 1 0 3
1 -12.499999999999279 -32.000002057679232 0 -1.2492932180120622e-06 0.99999999999921962 0 
2 -5.0000000859590044 -22.999992443797407 0 0 0 1 1 0 -0 -0 1 0 7.5000111576853978
1 -9.5 -18.916258333333001 0 0 1 0 
2 14.5 37 0 0 0 1 1 0 -0 -0 1 0 1.7
1 16.199999999999999 -37 29 -0 -0 -1 
2 14.5 -37 0 0 0 1 1 0 -0 -0 1 0 1.7
1 16.199999999999999 -18 29 -0 -0 -1 
2 14.5 -18 0 0 0 1 1 0 -0 -0 1 0 1.7
1 -12.800000000000001 -18 29 -0 -0 -1 
2 -14.5 -18 0 0 0 1 1 0 -0 -0 1 0 1.7
1 -12.800000000000001 -37 29 -0 -0 -1 
2 -14.5 -37 0 0 0 1 1 0 -0 -0 1 0 1.7
1 -12.800000000000001 37 29 -0 -0 -1 
2 -14.5 37 0 0 0 1 1 0 -0 -0 1 0 1.7
1 -12 -15.499999999982 29 -0 -0 -1 
1 12 -15.499999999982 0 -1 0 0 
1 -9.5 -15.499999999982 29 0 0 -1 
1 -12 -10.999999999982 29 -0 -0 -1 
1 -12 -10.999999999982 0 0 -1 0 
1 -9.5 -10.999999999982 29 -0 0 1 
1 -12 -10.999999999982 0 1 0 0 
1 -9.5 -9.9999999999823928 29 0 0 -1 
1 -9.5 -18.916258333333001 0 0 1 0 
1 9.5 -9.999999999984114 29 0 -0 1 
1 5.4999949905189434 -9.9999999999837517 19.000000000000004 -1 9.0675024890264467e-14 -2.3352359241971102e-44 
1 -10.999989981037562 -9.999999999982256 29 -0 -0 -1 
1 10.999989981037562 -9.9999999999842508 0 -1 9.0675024890264467e-14 0 
1 10.999989981037562 -9.9999999999842508 29 -0 -0 -1 
1 -14.000000298555923 -6.999990113860421 29 -0 -0 -1 
2 -11.000000298572212 -6.9999999999999973 0 0 0 1 1 0 -0 -0 1 0 3
1 -14.000000298555923 -6.999990113860421 0 -1.3099877782775314e-08 0.99999999999999989 0 
1 -14.000000829100703 33.499989234191943 29 -0 -0 -1 
1 -10.99998998103756 36.499999999980389 29 -0 -0 -1 
2 -11.000000829120019 33.5 0 0 0 1 1 0 -0 -0 1 0 3
1 -10.99998998103756 36.499999999980389 0 1 8.9140897131658043e-13 0 
1 10.99998998103756 36.499999999992966 29 -0 -0 -1 
1 13.999999170861832 33.499989564849379 29 -0 -0 -1 
2 10.999999170879981 33.5 0 0 0 1 1 0 -0 -0 1 0 3
1 13.999999170861832 33.499989564849379 0 1.3099971074452453e-08 -0.99999999999999989 0 
1 13.99999970141039 -6.9999897832029863 29 -0 -0 -1 
2 10.999999701427788 -6.9999999999999982 0 0 0 1 1 0 -0 -0 1 0 3
1 9.5 -10.999999999982 29 -0 -0 -1 
1 9.5 -8.2494589551330009 0 0 -1 0 
1 12 -10.999999999982 29 -0 -0 -1 
1 -12 -10.999999999982 0 1 0 0 
1 12 -10.999999999982 0 0 -1 0 
1 12 -15.499999999982 29 -0 -0 -1 
1 9.5 -15.499999999982 29 0 -0 1 
1 12 -15.499999999982 0 -1 0 0 
1 9.5 -16.999983751447147 29 0 0 1 
1 9.5 -8.2494589551330009 0 0 -1 0 
2 5.0000003348445823 -22.999970420257615 19.000000000000004 0 0 1 1 0 -0 -0 1 0 7.4999891341456095
2 5.0000003348445823 -22.999970420257615 19 0 0 1 1 0 -0 -0 1 0 7.4999891341456095
1 5.0000000000004308 -15.499981286112012 29 -0 -0 -1 
2 5.0000003348445823 -22.999970420257615 0 0 0 1 1 0 -0 -0 1 0 7.4999891341456095
1 12.499989468984563 -22.999979608145264 29 -0 -0 -1 
1 12.50000071256504 -31.99997960815859 29 -0 -0 -1 
1 12.50000071256504 -31.99997960815859 0 -1.2492867197001738e-06 0.99999999999921962 0 
1 9.5000001107669032 -34.999999999999943 29 -0 -0 -1 
2 9.5000007126343444 -32 0 0 0 1 1 0 -0 -0 1 0 3
1 -9.5000001107669032 -35 29 -0 -0 -1 
1 -9.5000001107669032 -35 0 1 2.9917588525280153e-15 0 
1 -12.499999999999279 -32.000002057679232 29 -0 -0 -1 
2 -9.499999999999984 -32 0 0 0 1 1 0 -0 -0 1 0 3
1 -12.499999999999279 -32.000002057679232 0 -1.2492932180120622e-06 0.99999999999921962 0 
1 -12.500011243638241 -23.000002057693454 29 -0 -0 -1 
2 -5.0000000859590044 -22.999992443797407 19 0 0 1 1 0 -0 -0 1 0 7.5000111576853978
2 -5.0000000859590044 -22.999992443797407 19.000000000000004 0 0 1 1 0 -0 -0 1 0 7.5000111576853978
1 -9.5 -16.999978432227394 29 0 0 1 
2 -5.0000000859590044 -22.999992443797407 0 0 0 1 1 0 -0 -0 1 0 7.5000111576853978
1 -4.9999999999998446 -15.499981286112011 29 -0 -0 -1 
1 -9.5 -18.916258333333001 0 0 1 0 
1 16.199999999999999 37 29 -0 -0 -1 
2 14.5 37 0 0 0 1 1 0 -0 -0 1 0 1.7
1 -9.5 -18.916258333333001 0 0 1 0 
1 -12 -10.999999999982 0 1 0 0 
1 9.5 -8.2494589551330009 0 0 -1 0 
1 12 -15.499999999982 0 -1 0 0 
1 12 -15.499999999982 0 -1 0 0 
1 -2.4999999999999223 -15.499981286112011 19 1 -1.7763568394002015e-16 0 
1 -4.9999999999998446 -15.499981286112011 0 1 -1.7763568394002015e-16 0 
Polygon3D 0
PolygonOnTriangulations 0
Surfaces 52
1 -17.5 40 0 0 1 0 1 0 0 0 0 -1 
1 -17.5 -40 0 -1 0 0 0 1 0 0 0 -1 
1 17.5 40 0 1 0 -0 0 -1 0 0 -0 -1 
1 0 0 0 -0 -0 -1 -1 0 0 0 1 -0 
1 0 0 0 -0 -0 -1 -1 0 0 0 1 -0 
1 17.5 -40 0 0 -1 0 -1 0 0 -0 -0 -1 
2 14.5 -37 29 0 0 1 1 0 -0 -0 1 0 1.7
2 14.5 -18 29 0 0 1 1 0 -0 -0 1 0 1.7
2 -14.5 -18 29 0 0 1 1 0 -0 -0 1 0 1.7
2 -14.5 -37 29 0 0 1 1 0 -0 -0 1 0 1.7
2 -14.5 37 29 0 0 1 1 0 -0 -0 1 0 1.7
1 12 -15.499999999982 29 0 1 -0 -1 0 0 0 0 1 
1 -12 -10.999999999982 29 -1 0 0 0 -1 0 0 0 1 
1 -12 -10.999999999982 29 0 -1 0 1 0 0 -0 0 1 
1 -9.5 -18.916258333333001 29 1 0 0 -0 1 0 0 -0 1 
1 10.999989981037562 -9.9999999999842508 29 9.0675024890264467e-14 1 -0 -1 9.0675024890264467e-14 0 0 0 1 
2 -11.000000298572212 -6.9999999999999973 29 0 0 1 1 0 -0 -0 1 0 3
1 -14.000000298555923 -6.999990113860421 29 0.99999999999999989 1.3099877782775314e-08 -0 -1.3099877782775314e-08 0.99999999999999989 0 0 0 1 
2 -11.000000829120019 33.5 29 0 0 1 1 0 -0 -0 1 0 3
1 -10.99998998103756 36.499999999980389 29 8.9140897131658043e-13 -1 0 1 8.9140897131658043e-13 0 -0 0 1 
2 10.999999170879981 33.5 29 0 0 1 1 0 -0 -0 1 0 3
1 13.999999170861832 33.499989564849379 29 -0.99999999999999989 -1.3099971074452453e-08 0 1.3099971074452453e-08 -0.99999999999999989 0 0 0 1 
2 10.999999701427788 -6.9999999999999982 29 0 0 1 1 0 -0 -0 1 0 3
1 9.5 -8.2494589551330009 29 -1 0 0 0 -1 0 0 0 1 
1 -12 -10.999999999982 29 0 -1 0 1 0 0 -0 0 1 
1 12 -10.999999999982 29 -1 0 0 0 -1 0 0 0 1 
1 12 -15.499999999982 29 0 1 -0 -1 0 0 0 0 1 
1 9.5 -8.2494589551330009 29 -1 0 0 0 -1 0 0 0 1 
2 5.0000003348445823 -22.999970420257615 29 0 0 1 1 0 -0 -0 1 0 7.4999891341456095
1 12.50000071256504 -31.99997960815859 29 0.99999999999921962 1.2492867197001738e-06 -0 -1.2492867197001738e-06 0.99999999999921962 0 0 0 1 
2 9.5000007126343444 -32 29 0 0 1 1 0 -0 -0 1 0 3
1 -9.5000001107669032 -35 29 2.9917588525280153e-15 -1 0 1 2.9917588525280153e-15 0 -0 0 1 
2 -9.499999999999984 -32 29 0 0 1 1 0 -0 -0 1 0 3
1 -12.499999999999279 -32.000002057679232 29 0.99999999999921962 1.2492932180120622e-06 -0 -1.2492932180120622e-06 0.99999999999921962 0 0 0 1 
2 -5.0000000859590044 -22.999992443797407 29 0 0 1 1 0 -0 -0 1 0 7.5000111576853978
1 -9.5 -18.916258333333001 29 1 0 0 -0 1 0 0 -0 1 
2 14.5 37 29 0 0 1 1 0 -0 -0 1 0 1.7
1 14.500000000000002 -37 29.000000000000004 -5.3682576018500239e-30 -3.6394966792203132e-31 1 1 0 5.3682576018500239e-30 -1.9537755715132364e-60 1 3.6394966792203132e-31 
1 14.500000000000002 -18.000000000000004 29.000000000000004 -5.3682576018500295e-30 8.3708423622068307e-30 1 0 1 -8.3708423622068307e-30 -1 -4.4936838144805077e-59 -5.3682576018500295e-30 
1 -14.499999999999998 -18.000000000000004 29.000000000000004 -5.3682576018500295e-30 8.3708423622068307e-30 1 0 1 -8.3708423622068307e-30 -1 -4.4936838144805077e-59 -5.3682576018500295e-30 
1 -14.499999999999998 -37 29.000000000000004 -5.3682576018500239e-30 -3.6394966792203132e-31 1 1 0 5.3682576018500239e-30 -1.9537755715132364e-60 1 3.6394966792203132e-31 
1 -14.499999999999998 37 29.000000000000004 -5.3682576018500239e-30 -3.6394966792203132e-31 1 1 0 5.3682576018500239e-30 -1.9537755715132364e-60 1 3.6394966792203132e-31 
1 0 -13.249999999982002 29 -0 -0 -1 -1 0 0 0 1 -0 
1 0 -13.582858644233003 29.000000000000004 -0 -2.5753904418810234e-31 -1 0 -1 2.5753904418810234e-31 -1 0 0 
1 -5.5592860085667327e-07 13.249999993736994 29.000000000000011 -2.2347652451134846e-32 -9.6619353252540694e-34 -1 -1 0 2.2347652451134846e-32 -2.1592157265412046e-65 1 -9.6619353252540694e-34 
1 0 -13.249999999982002 29 -0 -0 -1 -1 0 0 0 1 -0 
1 0 -13.582858644233003 29.000000000000004 -0 -2.5753904418810234e-31 -1 0 -1 2.5753904418810234e-31 -1 0 0 
1 0 -13.249999999982002 29 -0 -0 -1 -1 0 0 0 1 -0 
1 -4.9999999999998446 -15.499981286112011 29 -1.7763568394002015e-16 -1 0 1 -1.7763568394002015e-16 0 0 0 1 
1 -3.8681191690985665e-06 -25.846039928969287 29.000000000000007 -4.7770343003025668e-32 7.1194243443690717e-31 -1 0 -1 -7.1194243443690717e-31 -1 -3.4009734291460168e-62 4.7770343003025668e-32 
1 0 -13.582858644233003 29.000000000000004 -0 -2.5753904418810234e-31 -1 0 -1 2.5753904418810234e-31 -1 0 0 
1 14.500000000000002 37 29.000000000000004 -5.3682576018500239e-30 -3.6394966792203132e-31 1 1 0 5.3682576018500239e-30 -1.9537755715132364e-60 1 3.6394966792203132e-31 
Triangulations 0

TShapes 312
Ve
1e-07
-17.5 40 0
0 0

0101101
*
Ve
1e-07
-17.5 40 29
0 0

0101101
*
Ed
 1e-07 1 1 0
1  1 0 0 29
2  1 1 0 0 29
2  2 2 0 0 29
0

0101000
+312 13 -311 13 *
Ve
1e-07
17.5 40 0
0 0

0101101
*
Ve
1e-07
17.5 40 29
0 0

0101101
*
Ed
 1e-07 1 1 0
1  2 0 0 29
2  3 1 0 0 29
2  4 3 0 0 29
0

0101000
+309 13 -308 13 *
Ed
 1e-07 1 1 0
1  3 0 0 35
2  5 1 17 0 35
2  6 4 18 0 35
0

0101000
+312 19 -309 19 *
Ed
 1e-07 1 1 0
1  4 0 0 35
2  7 1 22 0 35
2  8 5 18 0 35
0

0101000
+311 23 -308 23 *
Wi

0101100
+310 0 -307 0 -306 16 +305 21 *
Fa
0  1e-07 1 0

0111000
+304 0 *
Ve
1e-07
-17.5 -40 0
0 0

0101101
*
Ve
1e-07
-17.5 -40 29
0 0

0101101
*
Ed
 1e-07 1 1 0
1  5 0 0 29
2  9 2 0 0 29
2  10 6 0 0 29
0

0101000
+302 13 -301 13 *
Ed
 1e-07 1 1 0
1  6 0 0 80
2  11 2 17 0 80
2  12 4 18 0 80
0

0101000
+302 19 -312 19 *
Ed
 1e-07 1 1 0
1  7 0 0 80
2  13 2 22 0 80
2  14 5 18 0 80
0

0101000
+301 23 -311 23 *
Wi

0101100
+300 0 -310 0 -299 16 +298 21 *
Fa
0  1e-07 2 0

0111000
+297 0 *
Ve
1e-07
17.5 -40 0
0 0

0101101
*
Ve
1e-07
17.5 -40 29
0 0

0101101
*
Ed
 1e-07 1 1 0
1  8 0 0 29
2  15 3 0 0 29
2  16 6 0 0 29
0

0101000
+295 13 -294 13 *
Ed
 1e-07 1 1 0
1  9 0 0 80
2  17 3 17 0 80
2  18 4 18 0 80
0

0101000
+309 19 -295 19 *
Ed
 1e-07 1 1 0
1  10 0 0 80
2  19 3 22 0 80
2  20 5 18 0 80
0

0101000
+308 23 -294 23 *
Wi

0101100
+307 0 -293 0 -292 16 +291 21 *
Fa
0  1e-07 3 0

0111000
+290 0 *
Ed
 1e-07 1 1 0
1  11 0 0 35
2  21 4 18 0 35
2  22 6 17 0 35
0

0101000
+295 19 -302 19 *
Wi

0101100
+306 0 +292 0 +288 0 +299 0 *
Fa
0  1e-07 4 0

0111000
+287 14 *
Ed
 1e-07 1 1 0
1  12 0 0 35
2  23 5 18 0 35
2  24 6 22 0 35
0

0101000
+294 23 -301 23 *
Wi

0101100
+305 26 +298 26 +291 26 +285 26 *
Ve
1e-07
16.2 -37 29
0 0

0101101
*
Ed
 1e-07 1 1 0
1  13 0 0 6.28318530717959
2  25 5 29 0 6.28318530717959
2  26 7 30 0 6.28318530717959
0

0101000
+283 31 -283 31 *
Wi

0101100
+282 28 *
Ve
1e-07
16.2 -18 29
0 0

0101101
*
Ed
 1e-07 1 1 0
1  14 0 0 6.28318530717959
2  27 5 29 0 6.28318530717959
2  28 8 30 0 6.28318530717959
0

0101000
+280 31 -280 31 *
Wi

0101100
+279 28 *
Ve
1e-07
-12.8 -18 29
0 0

0101101
*
Ed
 1e-07 1 1 0
1  15 0 0 6.28318530717959
2  29 5 29 0 6.28318530717959
2  30 9 30 0 6.28318530717959
0

0101000
+277 31 -277 31 *
Wi

0101100
+276 28 *
Ve
1e-07
-12.8 -37 29
0 0

0101101
*
Ed
 1e-07 1 1 0
1  16 0 0 6.28318530717959
2  31 5 29 0 6.28318530717959
2  32 10 30 0 6.28318530717959
0

0101000
+274 31 -274 31 *
Wi

0101100
+273 28 *
Ve
1e-07
-12.8 37 29
0 0

0101101
*
Ed
 1e-07 1 1 0
1  17 0 0 6.28318530717959
2  33 5 29 0 6.28318530717959
2  34 11 30 0 6.28318530717959
0

0101000
+271 31 -271 31 *
Wi

0101100
+270 28 *
Ve
1e-07
-9.5 -15.499999999982 29
0 0

0101101
*
Ve
1e-07
-12 -15.499999999982 29
0 0

0101101
*
Ed
 1e-07 1 1 0
1  18 0 21.5 24
2  35 5 34 21.5 24
2  36 12 35 21.5 24
0

0101000
+268 36 -267 36 *
Ve
1e-07
-12 -10.999999999982 29
0 0

0101101
*
Ed
 1e-07 1 1 0
1  19 0 0 4.5
2  37 5 34 0 4.5
2  38 13 35 0 4.5
0

0101000
+265 36 -267 36 *
Ve
1e-07
-9.5 -10.999999999982 29
0 0

0101101
*
Ed
 1e-07 1 1 0
1  20 0 0 2.5
2  39 5 34 0 2.5
2  40 14 35 0 2.5
0

0101000
+265 36 -263 36 *
Ve
1e-07
-9.5 -9.99999999998239 29
0 0

0101101
*
Ed
 1e-07 1 1 0
1  21 0 7.916258333351 8.91625833335061
2  41 5 39 7.916258333351 8.91625833335061
2  42 15 40 7.916258333351 8.91625833335061
0

0101000
+263 41 -261 41 *
Ve
1e-07
-10.9999899810376 -9.99999999998226 29
0 0

0101101
*
Ed
 1e-07 1 1 0
1  22 0 20.4999899810376 21.9999799620751
2  43 5 44 20.4999899810376 21.9999799620751
2  44 16 45 20.4999899810376 21.9999799620751
0

0101000
+261 46 -259 46 *
Ve
1e-07
-14.0000002985559 -6.99999011386042 29
0 0

0101101
*
Ed
 1e-07 1 1 0
1  23 0 3.14158935820993 4.71239241956291
2  45 5 44 3.14158935820993 4.71239241956291
2  46 17 45 3.14158935820993 4.71239241956291
0

0101000
+257 46 -259 46 *
Ve
1e-07
-14.0000008291007 33.4999892341919 29
0 0

0101101
*
Ed
 1e-07 1 1 0
1  24 0 0 40.4999793480524
2  47 5 44 0 40.4999793480524
2  48 18 45 0 40.4999793480524
0

0101000
+257 46 -255 46 *
Ve
1e-07
-10.9999899810376 36.4999999999804 29
0 0

0101101
*
Ed
 1e-07 1 1 0
1  25 0 1.57079271076741 3.14159624219248
2  49 5 44 1.57079271076741 3.14159624219248
2  50 19 45 1.57079271076741 3.14159624219248
0

0101000
+253 46 -255 46 *
Ve
1.00007037925798e-07
10.9999899810376 36.499999999993 29
0 0

0101101
*
Ed
 1e-07 1 1 0
1  26 0 0 21.9999799620751
2  51 5 44 0 21.9999799620751
2  52 20 45 0 21.9999799620751
0

0101000
+253 46 -251 46 *
Ve
1e-07
13.9999991708618 33.4999895648494 29
0 0

0101101
*
Ed
 1e-07 1 1 0
1  27 0 6.28318182879605 7.85398469725529
2  53 5 44 6.28318182879605 7.85398469725529
2  54 21 45 6.28318182879605 7.85398469725529
0

0101000
+249 46 -251 46 *
Ve
1.00000001776357e-07
13.9999997014104 -6.99998978320299 29
0 0

0101101
*
Ed
 1e-07 1 1 0
1  28 0 0 40.4999793480524
2  55 5 44 0 40.4999793480524
2  56 22 45 0 40.4999793480524
0

0101000
+249 46 -247 46 *
Ve
1e-07
10.9999899810376 -9.99999999998425 29
0 0

0101101
*
Ed
 1e-07 1 1 0
1  29 0 4.71238574025461 6.28318871277859
2  57 5 44 4.71238574025461 6.28318871277859
2  58 23 45 4.71238574025461 6.28318871277859
0

0101000
+245 46 -247 46 *
Ve
1e-07
9.5 -9.99999999998411 29
0 0

0101101
*
Ed
 1e-07 1 1 0
1  30 0 0 1.49998998103756
2  59 5 44 0 1.49998998103756
2  60 16 45 0 1.49998998103756
0

0101000
+245 46 -243 46 *
Ve
1e-07
9.5 -10.999999999982 29
0 0

0101101
*
Ed
 1e-07 1 1 0
1  31 0 1.75054104485111 2.750541044849
2  61 5 39 1.75054104485111 2.750541044849
2  62 24 40 1.75054104485111 2.750541044849
0

0101000
+243 41 -241 41 *
Ve
1e-07
12 -10.999999999982 29
0 0

0101101
*
Ed
 1e-07 1 1 0
1  32 0 21.5 24
2  63 5 34 21.5 24
2  64 25 35 21.5 24
0

0101000
+241 36 -239 36 *
Ve
1e-07
12 -15.499999999982 29
0 0

0101101
*
Ed
 1e-07 1 1 0
1  33 0 0 4.5
2  65 5 34 0 4.5
2  66 26 35 0 4.5
0

0101000
+239 36 -237 36 *
Ve
1e-07
9.5 -15.499999999982 29
0 0

0101101
*
Ed
 1e-07 1 1 0
1  34 0 0 2.5
2  67 5 34 0 2.5
2  68 27 35 0 2.5
0

0101000
+237 36 -235 36 *
Ve
1.00000100364161e-07
9.4999999999999 -16.999983751447 29
0 0

0101101
*
Ed
 1e-07 1 1 0
1  35 0 7.250541044849 8.750524796314
2  69 5 39 7.250541044849 8.750524796314
2  70 28 40 7.250541044849 8.750524796314
0

0101000
+235 41 -233 41 *
Ve
1e-07
12.4999894689846 -22.9999796081453 29
0 0

0101101
*
Ed
 1e-07 1 1 0
1  36 0 6.28318408212612 7.21047949440132
2  71 5 49 6.28318408212612 7.21047949440132
2  72 29 50 6.28318408212612 7.21047949440132
0

0101000
+231 51 -233 51 *
Ve
1e-07
12.500000712565 -31.9999796081586 29
0 0

0101101
*
Ed
 1e-07 1 1 0
1  37 0 0 9.00000000002035
2  73 5 49 0 9.00000000002035
2  74 30 50 0 9.00000000002035
0

0101000
+229 51 -231 51 *
Ve
1e-07
9.5000001107669 -34.9999999999999 29
0 0

0101101
*
Ed
 1e-07 1 1 0
1  38 0 4.71238877976221 6.28319210446006
2  75 5 49 4.71238877976221 6.28319210446006
2  76 31 50 4.71238877976221 6.28319210446006
0

0101000
+227 51 -229 51 *
Ve
1e-07
-9.5000001107669 -35 29
0 0

0101101
*
Ed
 1e-07 1 1 0
1  39 0 0 19.0000002215338
2  77 5 49 0 19.0000002215338
2  78 32 50 0 19.0000002215338
0

0101000
+225 51 -227 51 *
Ve
1e-07
-12.4999999999993 -32.0000020576792 29
0 0

0101101
*
Ed
 1e-07 1 1 0
1  40 0 3.14159333948287 4.71238894346238
2  79 5 49 3.14159333948287 4.71238894346238
2  80 33 50 3.14159333948287 4.71238894346238
0

0101000
+223 51 -225 51 *
Ve
1e-07
-12.5000112436382 -23.0000020576935 29
0 0

0101101
*
Ed
 1e-07 1 1 0
1  41 0 0 8.9999999999928
2  81 5 49 0 8.9999999999928
2  82 34 50 0 8.9999999999928
0

0101000
+223 51 -221 51 *
Ve
1.00000047961635e-07
-9.49999999999995 -16.9999784322273 29
0 0

0101101
*
Ed
 1e-07 1 1 0
1  42 0 2.21429630549529 3.14159393544069
2  83 5 49 2.21429630549529 3.14159393544069
2  84 35 50 2.21429630549529 3.14159393544069
0

0101000
+219 51 -221 51 *
Ed
 1e-07 1 1 0
1  43 0 1.91627990110568 3.416258333351
2  85 5 39 1.91627990110568 3.416258333351
2  86 36 40 1.91627990110568 3.416258333351
0

0101000
+219 41 -268 41 *
Wi

0101100
-266 33 +264 33 -262 33 -260 38 -258 43 +256 43 -254 43 +252 43 -250 43 +248 43 
-246 43 +244 43 -242 43 -240 38 -238 33 -236 33 -234 33 -232 38 +230 48 +228 48 
+226 48 +224 48 +222 48 -220 48 +218 48 -217 38 *
Ve
1e-07
16.2 37 29
0 0

0101101
*
Ed
 1e-07 1 1 0
1  44 0 0 6.28318530717959
2  87 5 29 0 6.28318530717959
2  88 37 30 0 6.28318530717959
0

0101000
+215 31 -215 31 *
Wi

0101100
+214 28 *
Fa
0  1e-07 5 25

0111000
+284 0 +281 0 +278 0 +275 0 +272 0 +269 0 +216 0 +213 0 *
Wi

0101100
+293 0 -300 0 -288 16 +285 21 *
Fa
0  1e-07 6 0

0111000
+211 0 *
Ve
1e-07
16.2 -37 26
0 0

0101101
*
Ed
 1e-07 1 1 0
1  45 0 0 3
3  89 90CN 7 0 0 3
0

0101000
+283 54 -209 54 *
Ed
 1e-07 1 1 0
1  46 0 0 6.28318530717959
2  91 7 57 0 6.28318530717959
2  92 38 58 0 6.28318530717959
0

0101000
+209 59 -209 59 *
Wi

0101100
-282 53 -208 0 +207 56 +208 0 *
Fa
0  1e-07 7 0

0111000
+206 0 *
Ve
1e-07
16.2 -18 26
0 0

0101101
*
Ed
 1e-07 1 1 0
1  47 0 0 3
3  93 94CN 8 0 0 3
0

0101000
+280 54 -204 54 *
Ed
 1e-07 1 1 0
1  48 0 0 6.28318530717959
2  95 8 57 0 6.28318530717959
2  96 39 58 0 6.28318530717959
0

0101000
+204 59 -204 59 *
Wi

0101100
-279 53 -203 0 +202 56 +203 0 *
Fa
0  1e-07 8 0

0111000
+201 0 *
Ve
1e-07
-12.8 -18 26
0 0

0101101
*
Ed
 1e-07 1 1 0
1  49 0 0 3
3  97 98CN 9 0 0 3
0

0101000
+277 54 -199 54 *
Ed
 1e-07 1 1 0
1  50 0 0 6.28318530717959
2  99 9 57 0 6.28318530717959
2  100 40 58 0 6.28318530717959
0

0101000
+199 59 -199 59 *
Wi

0101100
-276 53 -198 0 +197 56 +198 0 *
Fa
0  1e-07 9 0

0111000
+196 0 *
Ve
1e-07
-12.8 -37 26
0 0

0101101
*
Ed
 1e-07 1 1 0
1  51 0 0 3
3  101 102CN 10 0 0 3
0

0101000
+274 54 -194 54 *
Ed
 1e-07 1 1 0
1  52 0 0 6.28318530717959
2  103 10 57 0 6.28318530717959
2  104 41 58 0 6.28318530717959
0

0101000
+194 59 -194 59 *
Wi

0101100
-273 53 -193 0 +192 56 +193 0 *
Fa
0  1e-07 10 0

0111000
+191 0 *
Ve
1e-07
-12.8 37 26
0 0

0101101
*
Ed
 1e-07 1 1 0
1  53 0 0 3
3  105 106CN 11 0 0 3
0

0101000
+271 54 -189 54 *
Ed
 1e-07 1 1 0
1  54 0 0 6.28318530717959
2  107 11 57 0 6.28318530717959
2  108 42 58 0 6.28318530717959
0

0101000
+189 59 -189 59 *
Wi

0101100
-270 53 -188 0 +187 56 +188 0 *
Fa
0  1e-07 11 0

0111000
+186 0 *
Ve
1e-07
-12 -15.499999999982 19
0 0

0101101
*
Ed
 1e-07 1 1 0
1  55 0 0 10
2  109 12 0 0 10
2  110 13 0 0 10
0

0101000
+267 61 -184 61 *
Ve
1e-07
-9.5 -15.499999999982 19
0 0

0101101
*
Ed
 1e-07 1 1 0
1  56 0 21.5 24
2  111 12 64 21.5 24
2  112 43 65 21.5 24
0

0101000
+182 66 -184 66 *
Ed
 1e-07 1 1 0
1  57 0 0 10
2  113 12 60 0 10
2  114 36 0 0 10
0

0101000
+268 67 -182 67 *
Wi

0101100
-266 33 -183 60 +181 63 +180 0 *
Fa
0  1e-07 12 60

0111000
+179 0 *
Ve
1e-07
-12 -10.999999999982 19
0 0

0101101
*
Ed
 1e-07 1 1 0
1  58 0 0 10
2  115 13 0 0 10
2  116 14 0 0 10
0

0101000
+265 61 -177 61 *
Ed
 1e-07 1 1 0
1  59 0 0 4.5
2  117 13 64 0 4.5
2  118 43 65 0 4.5
0

0101000
+177 66 -184 66 *
Wi

0101100
+176 0 -264 68 +175 69 -183 0 *
Fa
0  1e-07 13 0

0111000
+174 0 *
Ve
1e-07
-9.5 -10.999999999982 19
0 0

0101101
*
Ed
 1e-07 1 1 0
1  60 0 -10 0
2  119 14 60 -10 0
2  120 15 0 -10 0
0

0101000
+172 67 -263 67 *
Ed
 1e-07 1 1 0
1  61 0 0 2.5
2  121 14 64 0 2.5
2  122 43 65 0 2.5
0

0101000
+177 66 -172 66 *
Wi

0101100
-262 33 +171 0 +170 63 +176 60 *
Fa
0  1e-07 14 60

0111000
+169 0 *
Ve
2.00001e-07
-9.5 -9.99999999998239 19
0 0

0101101
*
Ed
 1e-07 1 1 0
1  62 0 0 10
2  123 15 0 0 10
2  124 16 70 0 10
0

0101000
+261 67 -167 67 *
Ed
 1e-07 1 1 0
1  63 0 7.916258333351 8.91625833335061
2  125 15 73 7.916258333351 8.91625833335061
2  126 44 74 7.916258333351 8.91625833335061
0

0101000
+172 75 -167 75 *
Wi

0101100
-260 38 -166 0 +165 72 -171 0 *
Fa
0  1e-07 15 0

0111000
+164 0 *
Ve
2.00001e-07
9.5 -9.99999999998411 19
0 0

0101101
*
Ed
 1e-07 1 1 0
1  64 0 -10 0
2  127 16 70 -10 0
2  128 24 0 -10 0
0

0101000
+162 67 -243 67 *
Ed
 1e-07 1 1 0
1  65 0 -4.00000500948106 14.9999949905189
2  129 16 70 -4.00000500948106 14.9999949905189
2  130 44 76 -4.00000500948106 14.9999949905189
0

0101000
+162 67 -167 67 *
Ve
1e-07
-10.9999899810376 -9.99999999998226 2.5
0 0

0101101
*
Ed
 1e-07 1 1 0
1  66 0 0 26.5
2  131 16 0 0 26.5
2  132 17 0 0 26.5
4 G1 16 0 17 0
0

0101000
+259 77 -159 77 *
Ve
1e-07
10.9999899810376 -9.99999999998425 2.5
0 0

0101101
*
Ed
 1e-07 1 1 0
1  67 0 0 21.9999799620751
2  133 16 80 0 21.9999799620751
2  134 45 81 0 21.9999799620751
0

0101000
+157 82 -159 82 *
Ed
 1e-07 1 1 0
1  68 0 0 26.5
2  135 16 0 0 26.5
2  136 23 0 0 26.5
4 G1 16 0 23 0
0

0101000
+245 77 -157 77 *
Wi

0101100
-242 43 +161 0 -160 0 +166 0 -258 43 -158 70 +156 79 +155 70 *
Fa
0  1e-07 16 70

0111000
+154 0 *
Ve
1e-07
-14.0000002985559 -6.99999011386042 2.5
0 0

0101101
*
Ed
 1e-07 1 1 0
1  69 0 0 26.5
2  137 17 0 0 26.5
2  138 18 0 0 26.5
4 G1 17 0 18 0
0

0101000
+257 77 -152 77 *
Ed
 1e-07 1 1 0
1  70 0 3.14158935820993 4.71239241956291
2  139 17 80 3.14158935820993 4.71239241956291
2  140 45 81 3.14158935820993 4.71239241956291
0

0101000
+152 82 -159 82 *
Wi

0101100
+151 0 -256 83 +150 84 -158 0 *
Fa
0  1e-07 17 0

0111000
+149 0 *
Ve
1e-07
-14.0000008291007 33.4999892341919 2.5
0 0

0101101
*
Ed
 1e-07 1 1 0
1  71 0 0 40.4999793480524
2  141 18 80 0 40.4999793480524
2  142 45 81 0 40.4999793480524
0

0101000
+152 82 -147 82 *
Ed
 1e-07 1 1 0
1  72 0 0 26.5
2  143 18 0 0 26.5
2  144 19 0 0 26.5
4 G1 18 0 19 0
0

0101000
+255 77 -147 77 *
Wi

0101100
+151 0 -254 83 +146 84 -145 0 *
Fa
0  1e-07 18 0

0111000
+144 0 *
Ve
1e-07
-10.9999899810376 36.4999999999804 2.5
0 0

0101101
*
Ed
 1e-07 1 1 0
1  73 0 0 26.5
2  145 19 0 0 26.5
2  146 20 0 0 26.5
4 G1 19 0 20 0
0

0101000
+253 77 -142 77 *
Ed
 1e-07 1 1 0
1  74 0 1.57079271076741 3.14159624219248
2  147 19 80 1.57079271076741 3.14159624219248
2  148 45 81 1.57079271076741 3.14159624219248
0

0101000
+142 82 -147 82 *
Wi

0101100
+141 0 -252 83 +140 84 -145 0 *
Fa
0  1e-07 19 0

0111000
+139 0 *
Ve
1.00007037925798e-07
10.9999899810376 36.499999999993 2.5
0 0

0101101
*
Ed
 1e-07 1 1 0
1  75 0 0 21.9999799620751
2  149 20 80 0 21.9999799620751
2  150 45 81 0 21.9999799620751
0

0101000
+142 82 -137 82 *
Ed
 1.00007037925798e-07 1 1 0
1  76 0 0 26.5
2  151 20 0 0 26.5
2  152 21 0 0 26.5
4 G1 20 0 21 0
0

0101000
+251 77 -137 77 *
Wi

0101100
+141 0 -250 83 +136 84 -135 0 *
Fa
0  1e-07 20 0

0111000
+134 0 *
Ve
1e-07
13.9999991708618 33.4999895648494 2.5
0 0

0101101
*
Ed
 1e-07 1 1 0
1  77 0 0 26.5
2  153 21 0 0 26.5
2  154 22 0 0 26.5
4 G1 21 0 22 0
0

0101000
+249 77 -132 77 *
Ed
 1e-07 1 1 0
1  78 0 6.28318182879605 7.85398469725529
2  155 21 80 6.28318182879605 7.85398469725529
2  156 45 81 6.28318182879605 7.85398469725529
0

0101000
+132 82 -137 82 *
Wi

0101100
+131 0 -248 83 +130 84 -135 0 *
Fa
0  1e-07 21 0

0111000
+129 0 *
Ve
1.00000001776357e-07
13.9999997014104 -6.99998978320299 2.5
0 0

0101101
*
Ed
 1e-07 1 1 0
1  79 0 0 40.4999793480524
2  157 22 80 0 40.4999793480524
2  158 45 81 0 40.4999793480524
0

0101000
+132 82 -127 82 *
Ed
 1.00000001776357e-07 1 1 0
1  80 0 0 26.5
2  159 22 0 0 26.5
2  160 23 0 0 26.5
4 G1 22 0 23 0
0

0101000
+247 77 -127 77 *
Wi

0101100
+131 0 -246 83 +126 84 -125 0 *
Fa
0  1e-07 22 0

0111000
+124 0 *
Ed
 1e-07 1 1 0
1  81 0 4.71238574025461 6.28318871277859
2  161 23 80 4.71238574025461 6.28318871277859
2  162 45 81 4.71238574025461 6.28318871277859
0

0101000
+157 82 -127 82 *
Wi

0101100
+155 0 -244 83 +122 84 -125 0 *
Fa
0  1e-07 23 0

0111000
+121 0 *
Ve
1e-07
9.5 -10.999999999982 19
0 0

0101101
*
Ed
 1e-07 1 1 0
1  82 0 -0 10
2  163 24 0 -0 10
2  164 25 60 -0 10
0

0101000
+241 67 -119 67 *
Ed
 1e-07 1 1 0
1  83 0 1.75054104485111 2.750541044849
2  165 24 73 1.75054104485111 2.750541044849
2  166 44 74 1.75054104485111 2.750541044849
0

0101000
+162 75 -119 75 *
Wi

0101100
-240 38 -118 0 +117 72 -161 0 *
Fa
0  1e-07 24 0

0111000
+116 0 *
Ve
1e-07
12 -10.999999999982 19
0 0

0101101
*
Ed
 1e-07 1 1 0
1  84 0 0 10
2  167 25 0 0 10
2  168 26 0 0 10
0

0101000
+239 61 -114 61 *
Ed
 1e-07 1 1 0
1  85 0 21.5 24
2  169 25 64 21.5 24
2  170 46 65 21.5 24
0

0101000
+119 66 -114 66 *
Wi

0101100
-238 33 -113 60 +112 63 +118 0 *
Fa
0  1e-07 25 60

0111000
+111 0 *
Ve
1e-07
12 -15.499999999982 19
0 0

0101101
*
Ed
 1e-07 1 1 0
1  86 0 0 4.5
2  171 26 64 0 4.5
2  172 46 65 0 4.5
0

0101000
+114 66 -109 66 *
Ed
 1e-07 1 1 0
1  87 0 0 10
2  173 26 0 0 10
2  174 27 0 0 10
0

0101000
+237 61 -109 61 *
Wi

0101100
+113 0 -236 68 +108 69 -107 0 *
Fa
0  1e-07 26 0

0111000
+106 0 *
Ve
1e-07
9.5 -15.499999999982 19
0 0

0101101
*
Ed
 1e-07 1 1 0
1  88 0 -10 0
2  175 27 60 -10 0
2  176 28 0 -10 0
0

0101000
+104 67 -235 67 *
Ed
 1e-07 1 1 0
1  89 0 0 2.5
2  177 27 64 0 2.5
2  178 46 65 0 2.5
0

0101000
+109 66 -104 66 *
Wi

0101100
-234 33 +103 0 +102 63 +107 60 *
Fa
0  1e-07 27 60

0111000
+101 0 *
Ve
2.00001e-07
9.5 -16.9999837514471 19
0 0

0101101
*
Ed
 1e-07 1 1 0
1  90 0 -10 0
2  179 28 0 -10 0
2  180 29 85 -10 0
0

0101000
+99 67 -233 67 *
Ed
 1e-07 1 1 0
1  91 0 7.250541044849 8.75052479631415
2  181 28 73 7.250541044849 8.75052479631415
2  182 47 74 7.250541044849 8.75052479631415
0

0101000
+104 75 -99 75 *
Wi

0101100
-232 38 +98 0 +97 72 -103 0 *
Fa
0  1e-07 28 0

0111000
+96 0 *
Ve
2.00001e-07
5.0167546564677 -15.499999999982 19
0 0

0101101
*
Ed
 1e-07 1 1 0
1  92 0 0.927294187221712 1.56856241215069
2  183 29 85 0.927294187221712 1.56856241215069
2  184 47 76 0.927294187221712 1.56856241215069
0

0101000
+99 67 -94 67 *
Ve
2.00001e-07
5.00000000000043 -15.499981286112 19
0 0

0101101
*
Ed
 1e-07 1 1 0
1  93 0 1.56856241215069 1.57079637144085
2  185 29 86 1.56856241215069 1.57079637144085
2  186 48 87 1.56856241215069 1.57079637144085
0

0101000
+94 61 -92 61 *
Ve
1e-07
5.00000000000043 -15.499981286112 14
0 0

0101101
*
Ed
 1e-07 1 1 0
1  94 0 10 15
2  187 29 0 10 15
2  188 49 0 10 15
4 G1 29 0 49 0
0

0101000
+92 88 -90 88 *
Ve
1e-07
12.4999894689846 -22.9999796081453 14
0 0

0101101
*
Ed
 1e-07 1 1 0
1  95 0 6.28318408212612 7.85398167862043
2  189 29 91 6.28318408212612 7.85398167862043
2  190 50 92 6.28318408212612 7.85398167862043
0

0101000
+88 93 -90 93 *
Ed
 1e-07 1 1 0
1  96 0 0 15
2  191 29 0 0 15
2  192 30 0 0 15
4 G1 29 0 30 0
0

0101000
+231 88 -88 88 *
Wi

0101100
-230 48 +98 0 -93 0 -91 60 -89 85 +87 90 +86 85 *
Fa
0  1e-07 29 85

0111000
+85 0 *
Ve
1e-07
12.500000712565 -31.9999796081586 14
0 0

0101101
*
Ed
 1e-07 1 1 0
1  97 0 0 15
2  193 30 0 0 15
2  194 31 0 0 15
4 G1 30 0 31 0
0

0101000
+229 88 -83 88 *
Ed
 1e-07 1 1 0
1  98 0 0 9.00000000002035
2  195 30 91 0 9.00000000002035
2  196 50 92 0 9.00000000002035
0

0101000
+83 93 -88 93 *
Wi

0101100
+82 0 -228 94 +81 95 -86 0 *
Fa
0  1e-07 30 0

0111000
+80 0 *
Ve
1e-07
9.5000001107669 -34.9999999999999 14
0 0

0101101
*
Ed
 1e-07 1 1 0
1  99 0 0 15
2  197 31 0 0 15
2  198 32 0 0 15
4 G1 31 0 32 0
0

0101000
+227 88 -78 88 *
Ed
 1e-07 1 1 0
1  100 0 4.71238877976221 6.28319210446006
2  199 31 91 4.71238877976221 6.28319210446006
2  200 50 92 4.71238877976221 6.28319210446006
0

0101000
+78 93 -83 93 *
Wi

0101100
+77 0 -226 94 +76 95 -82 0 *
Fa
0  1e-07 31 0

0111000
+75 0 *
Ve
1e-07
-9.5000001107669 -35 14
0 0

0101101
*
Ed
 1e-07 1 1 0
1  101 0 0 15
2  201 32 0 0 15
2  202 33 0 0 15
4 G1 32 0 33 0
0

0101000
+225 88 -73 88 *
Ed
 1e-07 1 1 0
1  102 0 0 19.0000002215338
2  203 32 91 0 19.0000002215338
2  204 50 92 0 19.0000002215338
0

0101000
+73 93 -78 93 *
Wi

0101100
+72 0 -224 94 +71 95 -77 0 *
Fa
0  1e-07 32 0

0111000
+70 0 *
Ve
1e-07
-12.4999999999993 -32.0000020576792 14
0 0

0101101
*
Ed
 1e-07 1 1 0
1  103 0 0 15
2  205 33 0 0 15
2  206 34 0 0 15
4 G1 33 0 34 0
0

0101000
+223 88 -68 88 *
Ed
 1e-07 1 1 0
1  104 0 3.14159333948287 4.71238894346238
2  207 33 91 3.14159333948287 4.71238894346238
2  208 50 92 3.14159333948287 4.71238894346238
0

0101000
+68 93 -73 93 *
Wi

0101100
+67 0 -222 94 +66 95 -72 0 *
Fa
0  1e-07 33 0

0111000
+65 0 *
Ve
1e-07
-12.5000112436382 -23.0000020576935 14
0 0

0101101
*
Ed
 1e-07 1 1 0
1  105 0 0 8.9999999999928
2  209 34 91 0 8.9999999999928
2  210 50 92 0 8.9999999999928
0

0101000
+68 93 -63 93 *
Ed
 1e-07 1 1 0
1  106 0 0 15
2  211 34 0 0 15
2  212 35 0 0 15
4 G1 34 0 35 0
0

0101000
+221 88 -63 88 *
Wi

0101100
+67 0 -220 94 +62 95 -61 0 *
Fa
0  1e-07 34 0

0111000
+60 0 *
Ve
2.00001e-07
-4.99999999999984 -15.499981286112 19
0 0

0101101
*
Ve
2.00001e-07
-5.01675443218069 -15.499999999982 19
0 0

0101101
*
Ed
 1e-07 1 1 0
1  107 0 1.57079631533369 1.57303023815909
2  213 35 86 1.57079631533369 1.57303023815909
2  214 48 87 1.57079631533369 1.57303023815909
0

0101000
+58 61 -57 61 *
Ve
2.00001e-07
-9.5 -16.9999784322274 19
0 0

0101101
*
Ed
 1e-07 1 1 0
1  108 0 1.57303023815909 2.2142963054953
2  215 35 85 1.57303023815909 2.2142963054953
2  216 51 76 1.57303023815909 2.2142963054953
0

0101000
+57 67 -55 67 *
Ed
 1e-07 1 1 0
1  109 0 -10 0
2  217 35 85 -10 0
2  218 36 0 -10 0
0

0101000
+55 67 -219 67 *
Ve
1e-07
-4.99999999999984 -15.499981286112 14
0 0

0101101
*
Ed
 1e-07 1 1 0
1  110 0 1.57079631533369 3.14159393544069
2  219 35 91 1.57079631533369 3.14159393544069
2  220 50 92 1.57079631533369 3.14159393544069
0

0101000
+52 93 -63 93 *
Ed
 1e-07 1 1 0
1  111 0 10 15
2  221 35 0 10 15
2  222 49 0 10 15
4 G1 35 0 49 0
0

0101000
+58 88 -52 88 *
Wi

0101100
-56 60 -54 0 -53 0 -218 48 -61 85 +51 90 +50 85 *
Fa
0  1e-07 35 85

0111000
+49 0 *
Ed
 1e-07 1 1 0
1  112 0 1.9162799011056 3.416258333351
2  223 36 73 1.9162799011056 3.416258333351
2  224 51 74 1.9162799011056 3.416258333351
0

0101000
+55 75 -182 75 *
Wi

0101100
-217 38 -180 0 +47 72 -53 0 *
Fa
0  1e-07 36 0

0111000
+46 0 *
Ve
1e-07
16.2 37 26
0 0

0101101
*
Ed
 1e-07 1 1 0
1  113 0 0 3
3  225 226CN 37 0 0 3
0

0101000
+215 54 -44 54 *
Ed
 1e-07 1 1 0
1  114 0 0 6.28318530717959
2  227 37 57 0 6.28318530717959
2  228 52 58 0 6.28318530717959
0

0101000
+44 59 -44 59 *
Wi

0101100
-214 53 -43 0 +42 56 +43 0 *
Fa
0  1e-07 37 0

0111000
+41 0 *
Wi

0101100
+207 0 *
Fa
0  1e-07 38 0

0111000
+39 27 *
Wi

0101100
+202 0 *
Fa
0  1e-07 39 0

0111000
+37 27 *
Wi

0101100
+197 0 *
Fa
0  1e-07 40 0

0111000
+35 27 *
Wi

0101100
+192 0 *
Fa
0  1e-07 41 0

0111000
+33 27 *
Wi

0101100
+187 0 *
Fa
0  1e-07 42 0

0111000
+31 27 *
Ed
 1e-07 1 1 0
1  115 0 3.416258333351 7.916258333351
2  229 43 98 3.416258333351 7.916258333351
2  230 48 98 3.416258333351 7.916258333351
0

0101000
+182 75 -172 75 *
Wi

0101100
-175 63 +181 63 -29 72 +170 63 *
Fa
0  1e-07 43 97

0111000
+28 0 *
Ed
 1e-07 1 1 0
1  116 0 2.5 21.5
2  231 44 99 2.5 21.5
2  232 48 65 2.5 21.5
0

0101000
+172 66 -119 66 *
Wi

0101100
+165 72 -26 63 +117 72 -160 0 *
Fa
0  1e-07 44 76

0111000
+25 0 *
Wi

0101100
+146 0 -140 0 +136 0 -130 0 +126 0 -122 0 +156 0 -150 0 *
Fa
0  1e-07 45 0

0111000
+23 42 *
Ed
 1e-07 1 1 0
1  117 0 2.750541044849 7.250541044849
2  233 46 98 2.750541044849 7.250541044849
2  234 48 98 2.750541044849 7.250541044849
0

0101000
+119 75 -104 75 *
Wi

0101100
-21 72 +102 63 +108 63 +112 63 *
Fa
0  1e-07 46 97

0111000
+20 0 *
Ed
 1e-07 1 1 0
1  118 0 2.5 6.9832453435323
2  235 47 99 2.5 6.9832453435323
2  236 48 65 2.5 6.9832453435323
0

0101000
+104 66 -94 66 *
Wi

0101100
-18 63 +93 0 +97 72 *
Fa
0  1e-07 47 76

0111000
+17 0 *
Ed
 1e-07 1 1 0
1  119 0 17.0167544321807 21.5
2  237 48 65 17.0167544321807 21.5
2  238 51 99 17.0167544321807 21.5
0

0101000
+57 66 -182 66 *
Ed
 1e-07 1 1 0
1  120 0 -2.49999999999992 7.50000000000035
2  239 48 87 -2.49999999999992 7.50000000000035
2  240 49 86 -2.49999999999992 7.50000000000035
0

0101000
+58 61 -92 61 *
Wi

0101100
+29 72 +15 63 +56 60 -14 60 +91 60 +18 63 +21 72 +26 63 *
Fa
0  1e-07 48 97

0111000
+13 0 *
Ed
 1e-07 1 1 0
1  121 0 0 10.0000000000003
2  241 49 91 0 10.0000000000003
2  242 50 92 0 10.0000000000003
0

0101000
+52 93 -90 93 *
Wi

0101100
-14 60 +50 85 -89 85 +11 90 *
Fa
0  1e-07 49 85

0111000
+10 0 *
Wi

0101100
+62 0 -51 0 +11 0 -87 0 -81 0 -76 0 -71 0 -66 0 *
Fa
0  1e-07 50 0

0111000
+8 47 *
Wi

0101100
+47 72 +54 0 -15 63 *
Fa
0  1e-07 51 76

0111000
+6 0 *
Wi

0101100
+42 0 *
Fa
0  1e-07 52 0

0111000
+4 27 *
Sh

0101100
+303 12 +296 12 +289 12 +286 24 -212 0 +210 12 -205 52 -200 52 -195 52 -190 52 
-185 52 +178 0 -173 60 +168 0 +163 0 +153 0 -148 70 +143 70 -138 70 +133 70 
-128 70 +123 70 -120 70 +115 0 +110 0 +105 60 +100 0 +95 0 -84 0 -79 85 
-74 85 -69 85 -64 85 +59 85 -48 0 +45 0 -40 52 +38 96 +36 96 +34 96 
+32 96 +30 96 -27 0 -24 0 -22 100 -19 0 -16 0 -12 0 +9 0 -7 101 
-5 0 +3 96 *
So

1100000
+2 0 *

+1 1 