DBRep_DrawableShape

CASCADE Topology V1, (c) Matra-Datavision
Locations 31
1
              1               0               0               0 
              0               1               0               0 
              0               0               1               0 
1
              1               0               0               0 
              0               1               0               0 
              0               0               1               0 
1
              1               0               0               0 
              0               1               0               0 
              0               0               1               0 
2  2 1 3 -1 0
2  1 -1 3 1 2 -1 0
1
              1               0               0               0 
              0               1               0               0 
              0               0               1               0 
1
              1               0               0               0 
              0               1               0               0 
              0               0               1               0 
1
              1               0               0              -0 
              0               1               0              -0 
              0               0               1           -13.5 
2  6 1 7 -1 8 1 0
2  8 -1 7 1 6 -1 0
2  6 -1 0
2  1 -1 3 1 2 -1 8 -1 7 1 6 -1 0
1
              1               0               0               0 
              0               1               0               0 
              0               0               1              27 
2  6 1 7 -1 8 1 13 1 0
2  13 -1 8 -1 7 1 6 -1 0
2  1 -1 3 1 2 -1 13 -1 8 -1 7 1 6 -1 0
2  7 -1 8 1 2 1 3 -1 0
2  7 -1 8 1 13 1 2 1 3 -1 0
2  6 1 7 -1 8 1 13 1 2 1 3 -1 0
1
              1               0               0              -0 
              0               1               0               0 
              0               0               1            13.5 
2  20 1 3 -1 0
2  7 -1 8 1 13 1 2 1 20 -1 0
2  3 1 20 -1 0
2  1 -1 3 1 20 -1 0
2  1 -1 0
1
              1               0               0              -0 
              0               1               0              -0 
              0               0               1           -23.5 
2  20 1 3 -1 26 1 0
2  26 -1 3 1 20 -1 0
2  20 -1 0
2  1 -1 26 -1 3 1 20 -1 0
2  3 -1 26 1 0
Curve2ds 48
1 0 0 0 -1 
1 80 0 0 -1 
1 35 0 0 -1 
1 0 0 0 -1 
1 0 0 1 0 
1 0 0 1 0 
1 0 -27 1 0 
1 0 0 1 0 
1 0 0 0 -1 
1 35 0 0 -1 
1 0 0 1 0 
1 0 -80 0 1 
1 0 -27 1 0 
1 0 -80 0 1 
1 80 0 0 -1 
1 0 -0 0 -1 
1 0 0 1 0 
1 35 0 0 -1 
1 0 -27 1 0 
1 35 0 0 -1 
1 35 -80 -1 0 
1 0 -0 1 0 
1 35 -80 -1 0 
1 0 -27 1 0 
1 3.5 -50 0 1 
1 0 0 1 0 
1 31.5 -50 -1 -6.3441315692866085e-17 
1 0 0 1 0 
1 31.5 -3.5 0 -1 
1 0 0 1 0 
1 3.5 -3.5 1 0 
1 0 0 1 0 
1 0 0 0 -1 
1 28 0 0 -1 
1 0 -23.5 1 0 
1 14 -23.25 0 1 
1 46.5 0 0 -1 
1 0 0 0 -1 
1 0 0 0 -1 
1 46.5 0 0 -1 
1 -0 -23.5 1 0 
1 -14 -23.25 1 -6.3441315692866085e-17 
1 0 0 0 -1 
1 28 0 0 -1 
1 0 -23.5 1 0 
1 -14 23.25 0 -1 
1 0 -23.5 1 0 
1 14 23.25 -1 0 
Curves 24
1 -17.5 40 -13.5 0 0 1 
1 17.5 40 -13.5 0 0 1 
1 -17.5 40 0 1 0 0 
1 -17.5 40 0 1 0 0 
1 -17.5 -40 -13.5 0 0 1 
1 -17.5 -40 0 0 1 0 
1 -17.5 -40 0 0 1 0 
1 17.5 -40 -13.5 0 0 1 
1 17.5 40 0 0 -1 0 
1 17.5 40 0 0 -1 0 
1 17.5 -40 0 -1 0 0 
1 17.5 -40 0 -1 0 0 
1 -14 -10.000000000000002 0 0 1 0 
1 14 -10 0 -1 -6.3441315692866085e-17 0 
1 14 36.5 0 0 -1 0 
1 -14 36.5 0 1 0 0 
1 -14 -10.000000000000002 13.5 -0 -0 -1 
1 -14 -10.000000000000002 0 0 1 0 
1 -14 36.5 13.5 -0 -0 -1 
1 14 -10 13.5 -0 -0 -1 
1 14 -10 0 -1 -6.3441315692866085e-17 0 
1 14 36.5 13.5 -0 -0 -1 
1 14 36.5 0 0 -1 0 
1 -14 36.5 0 1 0 0 
Polygon3D 0
PolygonOnTriangulations 0
Surfaces 11
1 -17.5 40 -13.5 0 1 0 1 0 0 0 0 -1 
1 -17.5 -40 -13.5 -1 0 0 0 1 0 0 0 -1 
1 17.5 40 -13.5 1 0 -0 0 -1 0 0 -0 -1 
1 -17.5 40 0 -0 0 1 1 0 0 0 1 -0 
1 -17.5 40 0 -0 0 1 1 0 0 0 1 -0 
1 17.5 -40 -13.5 0 -1 0 -1 0 0 -0 -0 -1 
1 -14 -10.000000000000002 13.5 1 0 0 -0 1 0 0 -0 1 
1 14 -10 13.5 -6.3441315692866085e-17 1 0 -1 -6.3441315692866085e-17 0 0 0 1 
1 14 36.5 13.5 -1 0 0 0 -1 0 0 0 1 
1 -14 36.5 13.5 0 -1 0 1 0 0 -0 0 1 
1 0 13.25 13.5 -0 -0 -1 -1 0 0 0 1 -0 
Triangulations 0

TShapes 65
Ve
1e-07
-17.5 40 -13.5
0 0

0101101
*
Ve
1e-07
-17.5 40 13.5
0 0

0101101
*
Ed
 1e-07 1 1 0
1  1 0 0 27
2  1 1 0 0 27
2  2 2 0 0 27
0

0101000
+65 5 -64 5 *
Ve
1e-07
17.5 40 -13.5
0 0

0101101
*
Ve
1e-07
17.5 40 13.5
0 0

0101101
*
Ed
 1e-07 1 1 0
1  2 0 0 27
2  3 1 0 0 27
2  4 3 0 0 27
0

0101000
+62 5 -61 5 *
Ed
 1e-07 1 1 0
1  3 0 0 35
2  5 1 10 0 35
2  6 4 11 0 35
0

0101000
+65 12 -62 12 *
Ed
 1e-07 1 1 0
1  4 0 0 35
2  7 1 15 0 35
2  8 5 11 0 35
0

0101000
+64 16 -61 16 *
Wi

0101000
+63 0 -60 0 -59 9 +58 14 *
Fa
0  1e-07 1 0

0111000
+57 0 *
Ve
1e-07
-17.5 -40 -13.5
0 0

0101101
*
Ve
1e-07
-17.5 -40 13.5
0 0

0101101
*
Ed
 1e-07 1 1 0
1  5 0 0 27
2  9 2 0 0 27
2  10 6 0 0 27
0

0101000
+55 5 -54 5 *
Ed
 1e-07 1 1 0
1  6 0 0 80
2  11 2 10 0 80
2  12 4 11 0 80
0

0101000
+55 12 -65 12 *
Ed
 1e-07 1 1 0
1  7 0 0 80
2  13 2 15 0 80
2  14 5 11 0 80
0

0101000
+54 16 -64 16 *
Wi

0101000
+53 0 -63 0 -52 9 +51 14 *
Fa
0  1e-07 2 0

0111000
+50 0 *
Ve
1e-07
17.5 -40 -13.5
0 0

0101101
*
Ve
1e-07
17.5 -40 13.5
0 0

0101101
*
Ed
 1e-07 1 1 0
1  8 0 0 27
2  15 3 0 0 27
2  16 6 0 0 27
0

0101000
+48 5 -47 5 *
Ed
 1e-07 1 1 0
1  9 0 0 80
2  17 3 10 0 80
2  18 4 11 0 80
0

0101000
+62 12 -48 12 *
Ed
 1e-07 1 1 0
1  10 0 0 80
2  19 3 15 0 80
2  20 5 11 0 80
0

0101000
+61 16 -47 16 *
Wi

0101000
+60 0 -46 0 -45 9 +44 14 *
Fa
0  1e-07 3 0

0111000
+43 0 *
Ed
 1e-07 1 1 0
1  11 0 0 35
2  21 4 11 0 35
2  22 6 10 0 35
0

0101000
+48 12 -55 12 *
Wi

0101100
+59 0 +45 0 +41 0 +52 0 *
Fa
0  1e-07 4 0

0111000
-40 6 *
Ed
 1e-07 1 1 0
1  12 0 0 35
2  23 5 11 0 35
2  24 6 15 0 35
0

0101000
+47 16 -54 16 *
Wi

0101100
-58 19 -51 19 -44 19 -38 19 *
Ve
1e-07
-14 -10 13.5
0 0

0101101
*
Ve
1e-07
-14 36.5 13.5
0 0

0101101
*
Ed
 1e-07 1 1 0
1  13 0 0 46.5
2  25 5 22 0 46.5
2  26 7 23 0 46.5
0

0101000
+36 24 -35 24 *
Ve
1e-07
14 -10 13.5
0 0

0101101
*
Ed
 1e-07 1 1 0
1  14 0 0 28
2  27 5 22 0 28
2  28 8 23 0 28
0

0101000
+33 24 -36 24 *
Ve
1e-07
14 36.5 13.5
0 0

0101101
*
Ed
 1e-07 1 1 0
1  15 0 0 46.5
2  29 5 22 0 46.5
2  30 9 23 0 46.5
0

0101000
+31 24 -33 24 *
Ed
 1e-07 1 1 0
1  16 0 0 28
2  31 5 22 0 28
2  32 10 23 0 28
0

0101000
+35 24 -31 24 *
Wi

0101100
+34 21 +32 21 +30 21 +29 21 *
Fa
0  1e-07 5 18

0111000
+37 0 +28 0 *
Wi

0101000
+46 0 -53 0 -41 9 +38 14 *
Fa
0  1e-07 6 0

0111000
+26 0 *
Ve
1e-07
-14 -10 -10
0 0

0101101
*
Ed
 1e-07 1 1 0
1  17 0 0 23.5
2  33 7 0 0 23.5
2  34 8 0 0 23.5
0

0101000
+36 25 -24 25 *
Ve
1e-07
-14 36.5 -10
0 0

0101101
*
Ed
 1e-07 1 1 0
1  18 0 0 46.5
2  35 7 28 0 46.5
2  36 11 29 0 46.5
0

0101000
+24 30 -22 30 *
Ed
 1e-07 1 1 0
1  19 0 0 23.5
2  37 7 0 0 23.5
2  38 10 0 0 23.5
0

0101000
+35 25 -22 25 *
Wi

0101100
+23 0 -34 21 +21 27 -20 0 *
Fa
0  1e-07 7 0

0111000
+19 0 *
Ve
1e-07
14 -10 -10
0 0

0101101
*
Ed
 1e-07 1 1 0
1  20 0 0 23.5
2  39 8 0 0 23.5
2  40 9 0 0 23.5
0

0101000
+33 25 -17 25 *
Ed
 1e-07 1 1 0
1  21 0 0 28
2  41 8 28 0 28
2  42 11 29 0 28
0

0101000
+17 30 -24 30 *
Wi

0101100
+16 0 -32 21 +15 27 -23 0 *
Fa
0  1e-07 8 0

0111000
+14 0 *
Ve
1e-07
14 36.5 -10
0 0

0101101
*
Ed
 1e-07 1 1 0
1  22 0 0 23.5
2  43 9 0 0 23.5
2  44 10 0 0 23.5
0

0101000
+31 25 -12 25 *
Ed
 1e-07 1 1 0
1  23 0 0 46.5
2  45 9 28 0 46.5
2  46 11 29 0 46.5
0

0101000
+12 30 -17 30 *
Wi

0101100
+11 0 -30 21 +10 27 -16 0 *
Fa
0  1e-07 9 0

0111000
+9 0 *
Ed
 1e-07 1 1 0
1  24 0 0 28
2  47 10 28 0 28
2  48 11 29 0 28
0

0101000
+22 30 -12 30 *
Wi

0101100
+20 0 -29 21 +7 27 -11 0 *
Fa
0  1e-07 10 0

0111000
+6 0 *
Wi

0101100
+7 0 +10 0 +15 0 +21 0 *
Fa
0  1e-07 11 0

0111000
+4 20 *
Sh

0101100
+56 4 +49 4 +42 4 -39 17 +27 0 +25 4 +18 0 +13 0 +8 0 +5 0 
-3 31 *
So

1100000
+2 0 *

+1 1 