DBRep_DrawableShape

CASCADE Topology V1, (c) Matra-Datavision
Locations 62
1
              1               0               0               0 
              0               1               0               0 
              0               0               1               0 
1
              1               0               0               0 
              0               1               0               0 
              0               0               1               0 
1
              1               0               0               0 
              0               1               0               0 
              0               0               1               0 
1
              1               0               0               0 
              0               1               0               0 
              0               0               1               0 
1
              1               0               0               0 
              0               1               0               0 
              0               0               1               0 
1
              1               0               0               0 
              0               1               0               0 
              0               0               1               0 
1
              1               0               0               0 
              0               1               0               0 
              0               0               1               0 
2  2 1 3 -1 4 1 5 -1 6 1 7 -1 0
2  1 -1 7 1 6 -1 5 1 4 -1 3 1 2 -1 0
1
              1               0               0               0 
              0               1               0               0 
              0               0               1               0 
1
              1               0               0               0 
              0               1               0               0 
              0               0               1               0 
2  10 1 11 -1 0
2  11 1 10 -1 0
2  10 -1 0
2  1 -1 7 1 6 -1 5 1 4 -1 3 1 2 -1 11 1 10 -1 0
1
              1               0               0               0 
              0               1               0               0 
              0               0               1              29 
2  10 1 11 -1 16 1 0
2  16 -1 11 1 10 -1 0
2  1 -1 7 1 6 -1 5 1 4 -1 3 1 2 -1 16 -1 11 1 10 -1 0
2  11 -1 2 1 3 -1 4 1 5 -1 6 1 7 -1 0
2  11 -1 16 1 2 1 3 -1 4 1 5 -1 6 1 7 -1 0
2  10 1 11 -1 16 1 2 1 3 -1 4 1 5 -1 6 1 7 -1 0
1
              1               0               0              -0 
              0               1               0               0 
              0               0               1              29 
2  23 1 7 -1 0
2  11 -1 16 1 2 1 3 -1 4 1 5 -1 6 1 23 -1 0
2  7 1 23 -1 0
2  1 -1 7 1 23 -1 0
1
              1               0               0              -0 
              0               1               0               0 
              0               0               1              29 
2  28 1 5 -1 6 1 7 -1 0
2  11 -1 16 1 2 1 3 -1 4 1 28 -1 0
2  5 1 28 -1 0
2  1 -1 7 1 6 -1 5 1 28 -1 0
1
              1               0               0              -0 
              0               1               0               0 
              0               0               1              29 
2  33 1 3 -1 4 1 5 -1 6 1 7 -1 0
2  11 -1 16 1 2 1 33 -1 0
2  3 1 33 -1 0
2  1 -1 7 1 6 -1 5 1 4 -1 3 1 33 -1 0
2  1 -1 0
1
              1               0               0              -0 
              0               1               0              -0 
              0               0               1            -1.1 
2  23 1 7 -1 39 1 0
2  39 -1 7 1 23 -1 0
2  23 -1 0
2  1 -1 39 -1 7 1 23 -1 0
2  6 1 7 -1 0
2  1 -1 7 1 6 -1 0
2  28 1 5 -1 0
1
              1               0               0              -0 
              0               1               0              -0 
              0               0               1             -15 
2  28 1 5 -1 47 1 0
2  47 -1 5 1 28 -1 0
2  28 -1 0
2  1 -1 7 1 6 -1 47 -1 5 1 28 -1 0
2  4 1 5 -1 6 1 7 -1 0
2  1 -1 7 1 6 -1 5 1 4 -1 0
2  33 1 3 -1 0
1
              1               0               0              -0 
              0               1               0              -0 
              0               0               1           -26.5 
2  33 1 3 -1 55 1 0
2  55 -1 3 1 33 -1 0
2  33 -1 0
2  1 -1 7 1 6 -1 5 1 4 -1 55 -1 3 1 33 -1 0
2  7 -1 39 1 0
2  5 -1 47 1 6 1 7 -1 0
2  3 -1 55 1 4 1 5 -1 6 1 7 -1 0
Curve2ds 156
1 0 0 0 -1 
1 80 0 0 -1 
1 35 0 0 -1 
1 0 0 0 -1 
1 0 0 1 0 
1 17.5 40 -1 0 
1 0 -29 1 0 
1 17.5 40 -1 0 
1 0 0 0 -1 
1 35 0 0 -1 
1 0 0 1 0 
1 17.5 -40 0 1 
1 0 -29 1 0 
1 17.5 -40 0 1 
1 80 0 0 -1 
1 0 -0 0 -1 
1 0 0 1 0 
1 -17.5 40 0 -1 
1 0 -29 1 0 
1 -17.5 40 0 -1 
1 -17.5 -40 1 0 
1 0 -0 1 0 
1 -17.5 -40 1 0 
1 0 -29 1 0 
2 -14.5 -18 -1 0 0 1 1.5500000000000007
1 0 0 1 0 
1 4.9999999999998446 -15.499981286112011 -1 -1.7763568394002015e-16 
1 0 0 1 0 
2 5.0000000859590044 -22.999992443797407 -1 0 0 1 7.5000111576853978
1 0 0 1 0 
2 -5.0000003348445823 -22.999970420257615 -1 0 0 1 7.4999891341456095
1 0 0 1 0 
1 12.499999999999279 -32.000002057679232 1.2492932180120622e-06 0.99999999999921962 
1 0 0 1 0 
1 -12.50000071256504 -31.99997960815859 1.2492867197001738e-06 0.99999999999921962 
1 0 0 1 0 
2 9.499999999999984 -32 -1 0 0 1 3
1 0 0 1 0 
2 -9.5000007126343444 -32 -1 0 0 1 3
1 0 0 1 0 
1 9.5000001107669032 -35 -1 2.9917588525280153e-15 
1 0 0 1 0 
2 -14.5 -37 -1 0 0 1 1.5500000000000007
1 0 0 1 0 
2 14.5 -37 -1 0 0 1 1.5500000000000007
1 0 0 1 0 
2 14.5 -18 -1 0 0 1 1.5500000000000007
1 0 0 1 0 
2 -14.5 37 -1 0 0 1 1.5500000000000007
1 0 0 1 0 
1 10.99998998103756 36.499999999980389 -1 8.9140897131658043e-13 
1 0 0 1 0 
2 11.000000829120019 33.5 -1 0 0 1 3
1 0 0 1 0 
2 -10.999999170879981 33.5 -1 0 0 1 3
1 0 0 1 0 
1 14.000000298555923 -6.999990113860421 1.3099877782775314e-08 0.99999999999999989 
1 0 0 1 0 
1 -13.999999170861832 33.499989564849379 -1.3099971074452453e-08 -0.99999999999999989 
1 0 0 1 0 
2 11.000000298572212 -6.9999999999999973 -1 0 0 1 3
1 0 0 1 0 
2 -10.999999701427788 -6.9999999999999982 -1 0 0 1 3
1 0 0 1 0 
1 -10.999989981037562 -9.9999999999842508 1 9.0675024890264467e-14 
1 0 0 1 0 
2 14.5 37 -1 0 0 1 1.5500000000000007
1 0 0 1 0 
1 0 0 0 -1 
1 6.2831853071795862 0 0 -1 
1 0 -1.1000000000000001 1 0 
2 0 0 1 0 -0 1 1.5500000000000007
1 0 0 0 -1 
1 1.5707963153336924 0 0 -1 
1 0 -15 1 0 
1 -10.346058642857276 4.9999961318806756 1.7763568394002015e-16 -1 
1 10.000000000000275 0 0 -1 
1 7.8539816786204346 0 0 -1 
1 0 -15 1 0 
2 -2.84604748517188 4.9999962178398354 0 -1 -1 -0 7.5000111576853978
1 3.1415939354406928 0 0 -1 
1 8.9999999999928022 0 0 -1 
1 6.2831840821261249 0 0 -1 
1 9.0000000000203482 0 0 -1 
1 0 -15 1 0 
2 -2.8460695087116719 -5.0000042029637513 0 -1 -1 -0 7.4999891341456095
1 0 0 0 -1 
1 3.1415933394828714 0 0 -1 
1 0 -15 1 0 
1 6.1539621287099457 12.49999613188011 -0.99999999999921962 1.2492932180120622e-06 
1 0 0 0 -1 
1 6.2831921044600572 0 0 -1 
1 0 -15 1 0 
1 6.1539396791893033 -12.500004580684209 -0.99999999999921962 1.2492867197001738e-06 
1 0 -15 1 0 
2 6.1539600710307134 9.499996131880815 0 -1 -1 -0 3
1 4.7123889434623836 0 0 -1 
1 0 0 0 -1 
1 4.7123887797622093 0 0 -1 
1 19.000000221533806 0 0 -1 
1 0 -15 1 0 
2 6.1539600710307134 -9.5000045807535134 0 -1 -1 -0 3
1 0 -15 1 0 
1 9.1539600710307134 9.4999962426477342 -2.9917588525280153e-15 -1 
1 0 0 0 -1 
1 6.2831853071795862 0 0 -1 
1 0 -1.1000000000000001 1 0 
2 0 -7.1054273576010019e-15 1 0 -0 1 1.5500000000000007
1 0 0 0 -1 
1 6.2831853071795862 0 0 -1 
1 0 -1.1000000000000001 1 0 
2 0 -7.1054273576010019e-15 1 0 -0 1 1.5500000000000007
1 0 0 0 -1 
1 6.2831853071795862 0 0 -1 
1 0 -1.1000000000000001 1 0 
2 -1.7763568394002505e-15 0 1 0 -0 1 1.5500000000000007
1 0 0 0 -1 
1 6.2831853071795862 0 0 -1 
1 0 -1.1000000000000001 1 0 
2 0 0 1 0 -0 1 1.5500000000000007
1 0 0 0 -1 
1 1.5707927107674102 0 0 -1 
1 0 -26.5 1 0 
1 10.999989425108959 23.250000006243397 -1 8.9140897131658043e-13 
1 21.99997996207512 0 0 -1 
1 7.8539846972552905 0 0 -1 
1 0 -26.5 1 0 
2 11.000000273191418 20.250000006263008 -1 -2.1592157265412046e-65 -2.1592157265412046e-65 1 3
1 3.1415962421924788 0 0 -1 
1 40.499979348052364 0 0 -1 
1 6.283181828796045 0 0 -1 
1 0 0 0 -1 
1 0 -26.5 1 0 
2 -10.999999726808582 20.250000006263008 -1 -2.1592157265412046e-65 -2.1592157265412046e-65 1 3
1 0 0 0 -1 
1 3.1415893582099343 0 0 -1 
1 0 -26.5 1 0 
1 13.999999742627322 -20.249990107597416 1.3099877782775314e-08 0.99999999999999989 
1 0 -26.5 1 0 
1 -13.999999726790433 20.249989571112387 -1.3099971074452453e-08 -0.99999999999999989 
1 40.499979348052364 0 0 -1 
1 6.2831887127785899 0 0 -1 
1 0 -26.5 1 0 
2 10.999999742643611 -20.249999993736992 -1 -2.1592157265412046e-65 -2.1592157265412046e-65 1 3
1 4.7123924195629066 0 0 -1 
1 21.999979962075123 0 0 -1 
1 4.7123857402546143 0 0 -1 
1 0 0 0 -1 
1 0 -26.5 1 0 
2 -11.000000257356389 -20.249999993736992 -1 -2.1592157265412046e-65 -2.1592157265412046e-65 1 3
1 0 -26.5 1 0 
1 -10.999990536966163 -23.249999993721246 1 9.0675024890264467e-14 
1 0 0 0 -1 
1 6.2831853071795862 0 0 -1 
1 0 -1.1000000000000001 1 0 
2 0 0 1 0 -0 1 1.5500000000000007
Curves 78
1 -17.5 40 0 0 0 1 
1 17.5 40 0 0 0 1 
1 -17.5 40 0 1 0 0 
1 -17.5 40 0 1 0 0 
1 -17.5 -40 0 0 0 1 
1 -17.5 -40 0 0 1 0 
1 -17.5 -40 0 0 1 0 
1 17.5 -40 0 0 0 1 
1 17.5 40 0 0 -1 0 
1 17.5 40 0 0 -1 0 
1 17.5 -40 0 -1 0 0 
1 17.5 -40 0 -1 0 0 
2 14.5 -18 0 0 0 1 1 0 -0 -0 1 0 1.55
1 -4.9999999999998446 -15.499981286112011 0 1 -1.7763568394002015e-16 0 
2 -5.0000000859590044 -22.999992443797407 0 0 0 1 1 0 -0 -0 1 0 7.5000111576853978
2 5.0000003348445823 -22.999970420257615 0 0 0 1 1 0 -0 -0 1 0 7.4999891341456095
1 -12.499999999999279 -32.000002057679232 0 -1.2492932180120622e-06 0.99999999999921962 0 
1 12.50000071256504 -31.99997960815859 0 -1.2492867197001738e-06 0.99999999999921962 0 
2 -9.499999999999984 -32 0 0 0 1 1 0 -0 -0 1 0 3
2 9.5000007126343444 -32 0 0 0 1 1 0 -0 -0 1 0 3
1 -9.5000001107669032 -35 0 1 2.9917588525280153e-15 0 
2 14.5 -37 0 0 0 1 1 0 -0 -0 1 0 1.55
2 -14.5 -37 0 0 0 1 1 0 -0 -0 1 0 1.55
2 -14.5 -18 0 0 0 1 1 0 -0 -0 1 0 1.55
2 14.5 37 0 0 0 1 1 0 -0 -0 1 0 1.55
1 -10.99998998103756 36.499999999980389 0 1 8.9140897131658043e-13 0 
2 -11.000000829120019 33.5 0 0 0 1 1 0 -0 -0 1 0 3
2 10.999999170879981 33.5 0 0 0 1 1 0 -0 -0 1 0 3
1 -14.000000298555923 -6.999990113860421 0 -1.3099877782775314e-08 0.99999999999999989 0 
1 13.999999170861832 33.499989564849379 0 1.3099971074452453e-08 -0.99999999999999989 0 
2 -11.000000298572212 -6.9999999999999973 0 0 0 1 1 0 -0 -0 1 0 3
2 10.999999701427788 -6.9999999999999982 0 0 0 1 1 0 -0 -0 1 0 3
1 10.999989981037562 -9.9999999999842508 0 -1 9.0675024890264467e-14 0 
2 -14.5 37 0 0 0 1 1 0 -0 -0 1 0 1.55
1 16.050000000000001 -18 29 -0 -0 -1 
2 14.5 -18 0 0 0 1 1 0 -0 -0 1 0 1.55
1 -4.9999999999998446 -15.499981286112011 29 -0 -0 -1 
1 -4.9999999999998446 -15.499981286112011 0 1 -1.7763568394002015e-16 0 
1 5.0000000000004308 -15.499981286112012 29 -0 -0 -1 
2 -5.0000000859590044 -22.999992443797407 0 0 0 1 1 0 -0 -0 1 0 7.5000111576853978
1 -12.500011243638241 -23.000002057693454 29 -0 -0 -1 
1 12.499989468984563 -22.999979608145264 29 -0 -0 -1 
2 5.0000003348445823 -22.999970420257615 0 0 0 1 1 0 -0 -0 1 0 7.4999891341456095
1 -12.499999999999279 -32.000002057679232 29 -0 -0 -1 
1 -12.499999999999279 -32.000002057679232 0 -1.2492932180120622e-06 0.99999999999921962 0 
1 12.50000071256504 -31.99997960815859 29 -0 -0 -1 
1 12.50000071256504 -31.99997960815859 0 -1.2492867197001738e-06 0.99999999999921962 0 
2 -9.499999999999984 -32 0 0 0 1 1 0 -0 -0 1 0 3
1 -9.5000001107669032 -35 29 -0 -0 -1 
1 9.5000001107669032 -34.999999999999943 29 -0 -0 -1 
2 9.5000007126343444 -32 0 0 0 1 1 0 -0 -0 1 0 3
1 -9.5000001107669032 -35 0 1 2.9917588525280153e-15 0 
1 16.050000000000001 -37 29 -0 -0 -1 
2 14.5 -37 0 0 0 1 1 0 -0 -0 1 0 1.55
1 -12.949999999999999 -37 29 -0 -0 -1 
2 -14.5 -37 0 0 0 1 1 0 -0 -0 1 0 1.55
1 -12.949999999999999 -18 29 -0 -0 -1 
2 -14.5 -18 0 0 0 1 1 0 -0 -0 1 0 1.55
1 16.050000000000001 37 29 -0 -0 -1 
2 14.5 37 0 0 0 1 1 0 -0 -0 1 0 1.55
1 -10.99998998103756 36.499999999980389 29 -0 -0 -1 
1 -10.99998998103756 36.499999999980389 0 1 8.9140897131658043e-13 0 
1 10.99998998103756 36.499999999992966 29 -0 -0 -1 
2 -11.000000829120019 33.5 0 0 0 1 1 0 -0 -0 1 0 3
1 -14.000000829100703 33.499989234191943 29 -0 -0 -1 
1 13.999999170861832 33.499989564849379 29 -0 -0 -1 
2 10.999999170879981 33.5 0 0 0 1 1 0 -0 -0 1 0 3
1 -14.000000298555923 -6.999990113860421 29 -0 -0 -1 
1 -14.000000298555923 -6.999990113860421 0 -1.3099877782775314e-08 0.99999999999999989 0 
1 13.999999170861832 33.499989564849379 0 1.3099971074452453e-08 -0.99999999999999989 0 
1 13.99999970141039 -6.9999897832029863 29 -0 -0 -1 
2 -11.000000298572212 -6.9999999999999973 0 0 0 1 1 0 -0 -0 1 0 3
1 -10.999989981037562 -9.999999999982256 29 -0 -0 -1 
1 10.999989981037562 -9.9999999999842508 29 -0 -0 -1 
2 10.999999701427788 -6.9999999999999982 0 0 0 1 1 0 -0 -0 1 0 3
1 10.999989981037562 -9.9999999999842508 0 -1 9.0675024890264467e-14 0 
1 -12.949999999999999 37 29 -0 -0 -1 
2 -14.5 37 0 0 0 1 1 0 -0 -0 1 0 1.55
Polygon3D 0
PolygonOnTriangulations 0
Surfaces 36
1 -17.5 40 0 0 1 0 1 0 0 0 0 -1 
1 -17.5 -40 0 -1 0 0 0 1 0 0 0 -1 
1 17.5 40 0 1 0 -0 0 -1 0 0 -0 -1 
1 0 0 0 -0 -0 -1 -1 0 0 0 1 -0 
1 0 0 0 -0 -0 -1 -1 0 0 0 1 -0 
1 17.5 -40 0 0 -1 0 -1 0 0 -0 -0 -1 
2 14.5 -18 29 0 0 1 1 0 -0 -0 1 0 1.55
1 -4.9999999999998446 -15.499981286112011 29 -1.7763568394002015e-16 -1 0 1 -1.7763568394002015e-16 0 0 0 1 
2 -5.0000000859590044 -22.999992443797407 29 0 0 1 1 0 -0 -0 1 0 7.5000111576853978
2 5.0000003348445823 -22.999970420257615 29 0 0 1 1 0 -0 -0 1 0 7.4999891341456095
1 -12.499999999999279 -32.000002057679232 29 0.99999999999921962 1.2492932180120622e-06 -0 -1.2492932180120622e-06 0.99999999999921962 0 0 0 1 
1 12.50000071256504 -31.99997960815859 29 0.99999999999921962 1.2492867197001738e-06 -0 -1.2492867197001738e-06 0.99999999999921962 0 0 0 1 
2 -9.499999999999984 -32 29 0 0 1 1 0 -0 -0 1 0 3
2 9.5000007126343444 -32 29 0 0 1 1 0 -0 -0 1 0 3
1 -9.5000001107669032 -35 29 2.9917588525280153e-15 -1 0 1 2.9917588525280153e-15 0 -0 0 1 
2 14.5 -37 29 0 0 1 1 0 -0 -0 1 0 1.55
2 -14.5 -37 29 0 0 1 1 0 -0 -0 1 0 1.55
2 -14.5 -18 29 0 0 1 1 0 -0 -0 1 0 1.55
2 14.5 37 29 0 0 1 1 0 -0 -0 1 0 1.55
1 -10.99998998103756 36.499999999980389 29 8.9140897131658043e-13 -1 0 1 8.9140897131658043e-13 0 -0 0 1 
2 -11.000000829120019 33.5 29 0 0 1 1 0 -0 -0 1 0 3
2 10.999999170879981 33.5 29 0 0 1 1 0 -0 -0 1 0 3
1 -14.000000298555923 -6.999990113860421 29 0.99999999999999989 1.3099877782775314e-08 -0 -1.3099877782775314e-08 0.99999999999999989 0 0 0 1 
1 13.999999170861832 33.499989564849379 29 -0.99999999999999989 -1.3099971074452453e-08 0 1.3099971074452453e-08 -0.99999999999999989 0 0 0 1 
2 -11.000000298572212 -6.9999999999999973 29 0 0 1 1 0 -0 -0 1 0 3
2 10.999999701427788 -6.9999999999999982 29 0 0 1 1 0 -0 -0 1 0 3
1 10.999989981037562 -9.9999999999842508 29 9.0675024890264467e-14 1 -0 -1 9.0675024890264467e-14 0 0 0 1 
2 -14.5 37 29 0 0 1 1 0 -0 -0 1 0 1.55
1 14.5 -18 29 0 0 1 1 0 -0 -0 1 0 
1 -3.8681191690985665e-06 -25.846039928969287 29.000000000000007 -4.7770343003025668e-32 7.1194243443690717e-31 -1 0 -1 -7.1194243443690717e-31 -1 -3.4009734291460168e-62 4.7770343003025668e-32 
1 14.5 -36.999999999999993 29 0 0 1 1 0 -0 -0 1 0 
1 -14.5 -36.999999999999993 29 0 0 1 1 0 -0 -0 1 0 
1 -14.499999999999998 -18 29 0 0 1 1 0 -0 -0 1 0 
1 14.5 37 29 0 0 1 1 0 -0 -0 1 0 
1 -5.5592860085667327e-07 13.249999993736994 29.000000000000011 -2.2347652451134846e-32 -9.6619353252540694e-34 -1 -1 0 2.2347652451134846e-32 -2.1592157265412046e-65 1 -9.6619353252540694e-34 
1 -14.5 37 29 0 0 1 1 0 -0 -0 1 0 
Triangulations 0

TShapes 212
Ve
1e-07
-17.5 40 0
0 0

0101101
*
Ve
1e-07
-17.5 40 29
0 0

0101101
*
Ed
 1e-07 1 1 0
1  1 0 0 29
2  1 1 0 0 29
2  2 2 0 0 29
0

0101000
+212 9 -211 9 *
Ve
1e-07
17.5 40 0
0 0

0101101
*
Ve
1e-07
17.5 40 29
0 0

0101101
*
Ed
 1e-07 1 1 0
1  2 0 0 29
2  3 1 0 0 29
2  4 3 0 0 29
0

0101000
+209 9 -208 9 *
Ed
 1e-07 1 1 0
1  3 0 0 35
2  5 1 13 0 35
2  6 4 14 0 35
0

0101000
+212 15 -209 15 *
Ed
 1e-07 1 1 0
1  4 0 0 35
2  7 1 18 0 35
2  8 5 14 0 35
0

0101000
+211 19 -208 19 *
Wi

0101100
+210 0 -207 0 -206 12 +205 17 *
Fa
0  1e-07 1 0

0111000
+204 0 *
Ve
1e-07
-17.5 -40 0
0 0

0101101
*
Ve
1e-07
-17.5 -40 29
0 0

0101101
*
Ed
 1e-07 1 1 0
1  5 0 0 29
2  9 2 0 0 29
2  10 6 0 0 29
0

0101000
+202 9 -201 9 *
Ed
 1e-07 1 1 0
1  6 0 0 80
2  11 2 13 0 80
2  12 4 14 0 80
0

0101000
+202 15 -212 15 *
Ed
 1e-07 1 1 0
1  7 0 0 80
2  13 2 18 0 80
2  14 5 14 0 80
0

0101000
+201 19 -211 19 *
Wi

0101100
+200 0 -210 0 -199 12 +198 17 *
Fa
0  1e-07 2 0

0111000
+197 0 *
Ve
1e-07
17.5 -40 0
0 0

0101101
*
Ve
1e-07
17.5 -40 29
0 0

0101101
*
Ed
 1e-07 1 1 0
1  8 0 0 29
2  15 3 0 0 29
2  16 6 0 0 29
0

0101000
+195 9 -194 9 *
Ed
 1e-07 1 1 0
1  9 0 0 80
2  17 3 13 0 80
2  18 4 14 0 80
0

0101000
+209 15 -195 15 *
Ed
 1e-07 1 1 0
1  10 0 0 80
2  19 3 18 0 80
2  20 5 14 0 80
0

0101000
+208 19 -194 19 *
Wi

0101100
+207 0 -193 0 -192 12 +191 17 *
Fa
0  1e-07 3 0

0111000
+190 0 *
Ed
 1e-07 1 1 0
1  11 0 0 35
2  21 4 14 0 35
2  22 6 13 0 35
0

0101000
+195 15 -202 15 *
Wi

0101100
+206 0 +192 0 +188 0 +199 0 *
Fa
0  1e-07 4 0

0111000
+187 10 *
Ed
 1e-07 1 1 0
1  12 0 0 35
2  23 5 14 0 35
2  24 6 18 0 35
0

0101000
+194 19 -201 19 *
Wi

0101100
+205 22 +198 22 +191 22 +185 22 *
Ve
1e-07
16.05 -18 29
0 0

0101101
*
Ed
 1e-07 1 1 0
1  13 0 0 6.28318530717959
2  25 5 25 0 6.28318530717959
2  26 7 26 0 6.28318530717959
0

0101000
+183 27 -183 27 *
Wi

0101100
+182 24 *
Ve
1e-07
-4.99999999999984 -15.499981286112 29
0 0

0101101
*
Ve
1e-07
5.00000000000043 -15.499981286112 29
0 0

0101101
*
Ed
 1e-07 1 1 0
1  14 0 0 10.0000000000003
2  27 5 30 0 10.0000000000003
2  28 8 31 0 10.0000000000003
0

0101000
+180 32 -179 32 *
Ve
1e-07
-12.5000112436382 -23.0000020576935 29
0 0

0101101
*
Ed
 1e-07 1 1 0
1  15 0 1.57079631533369 3.14159393544069
2  29 5 30 1.57079631533369 3.14159393544069
2  30 9 31 1.57079631533369 3.14159393544069
0

0101000
+180 32 -177 32 *
Ve
1e-07
12.4999894689846 -22.9999796081453 29
0 0

0101101
*
Ed
 1e-07 1 1 0
1  16 0 6.28318408212612 7.85398167862043
2  31 5 30 6.28318408212612 7.85398167862043
2  32 10 31 6.28318408212612 7.85398167862043
0

0101000
+175 32 -179 32 *
Ve
1e-07
-12.4999999999993 -32.0000020576792 29
0 0

0101101
*
Ed
 1e-07 1 1 0
1  17 0 0 8.9999999999928
2  33 5 30 0 8.9999999999928
2  34 11 31 0 8.9999999999928
0

0101000
+173 32 -177 32 *
Ve
1e-07
12.500000712565 -31.9999796081586 29
0 0

0101101
*
Ed
 1e-07 1 1 0
1  18 0 0 9.00000000002035
2  35 5 30 0 9.00000000002035
2  36 12 31 0 9.00000000002035
0

0101000
+171 32 -175 32 *
Ve
1e-07
-9.5000001107669 -35 29
0 0

0101101
*
Ed
 1e-07 1 1 0
1  19 0 3.14159333948287 4.71238894346238
2  37 5 30 3.14159333948287 4.71238894346238
2  38 13 31 3.14159333948287 4.71238894346238
0

0101000
+173 32 -169 32 *
Ve
1e-07
9.5000001107669 -34.9999999999999 29
0 0

0101101
*
Ed
 1e-07 1 1 0
1  20 0 4.71238877976221 6.28319210446006
2  39 5 30 4.71238877976221 6.28319210446006
2  40 14 31 4.71238877976221 6.28319210446006
0

0101000
+167 32 -171 32 *
Ed
 1e-07 1 1 0
1  21 0 0 19.0000002215338
2  41 5 30 0 19.0000002215338
2  42 15 31 0 19.0000002215338
0

0101000
+169 32 -167 32 *
Wi

0101100
-178 29 +176 29 +174 29 -172 29 +170 29 +168 29 +166 29 +165 29 *
Ve
1e-07
16.05 -37 29
0 0

0101101
*
Ed
 1e-07 1 1 0
1  22 0 0 6.28318530717959
2  43 5 25 0 6.28318530717959
2  44 16 26 0 6.28318530717959
0

0101000
+163 27 -163 27 *
Wi

0101100
+162 24 *
Ve
1e-07
-12.95 -37 29
0 0

0101101
*
Ed
 1e-07 1 1 0
1  23 0 0 6.28318530717959
2  45 5 25 0 6.28318530717959
2  46 17 26 0 6.28318530717959
0

0101000
+160 27 -160 27 *
Wi

0101100
+159 24 *
Ve
1e-07
-12.95 -18 29
0 0

0101101
*
Ed
 1e-07 1 1 0
1  24 0 0 6.28318530717959
2  47 5 25 0 6.28318530717959
2  48 18 26 0 6.28318530717959
0

0101000
+157 27 -157 27 *
Wi

0101100
+156 24 *
Ve
1e-07
16.05 37 29
0 0

0101101
*
Ed
 1e-07 1 1 0
1  25 0 0 6.28318530717959
2  49 5 25 0 6.28318530717959
2  50 19 26 0 6.28318530717959
0

0101000
+154 27 -154 27 *
Wi

0101100
+153 24 *
Ve
1e-07
-10.9999899810376 36.4999999999804 29
0 0

0101101
*
Ve
1.00007037925798e-07
10.9999899810376 36.499999999993 29
0 0

0101101
*
Ed
 1e-07 1 1 0
1  26 0 0 21.9999799620751
2  51 5 35 0 21.9999799620751
2  52 20 36 0 21.9999799620751
0

0101000
+151 37 -150 37 *
Ve
1e-07
-14.0000008291007 33.4999892341919 29
0 0

0101101
*
Ed
 1e-07 1 1 0
1  27 0 1.57079271076741 3.14159624219248
2  53 5 35 1.57079271076741 3.14159624219248
2  54 21 36 1.57079271076741 3.14159624219248
0

0101000
+151 37 -148 37 *
Ve
1e-07
13.9999991708618 33.4999895648494 29
0 0

0101101
*
Ed
 1e-07 1 1 0
1  28 0 6.28318182879605 7.85398469725529
2  55 5 35 6.28318182879605 7.85398469725529
2  56 22 36 6.28318182879605 7.85398469725529
0

0101000
+146 37 -150 37 *
Ve
1e-07
-14.0000002985559 -6.99999011386042 29
0 0

0101101
*
Ed
 1e-07 1 1 0
1  29 0 0 40.4999793480524
2  57 5 35 0 40.4999793480524
2  58 23 36 0 40.4999793480524
0

0101000
+144 37 -148 37 *
Ve
1.00000001776357e-07
13.9999997014104 -6.99998978320299 29
0 0

0101101
*
Ed
 1e-07 1 1 0
1  30 0 0 40.4999793480524
2  59 5 35 0 40.4999793480524
2  60 24 36 0 40.4999793480524
0

0101000
+146 37 -142 37 *
Ve
1e-07
-10.9999899810376 -9.99999999998226 29
0 0

0101101
*
Ed
 1e-07 1 1 0
1  31 0 3.14158935820993 4.71239241956291
2  61 5 35 3.14158935820993 4.71239241956291
2  62 25 36 3.14158935820993 4.71239241956291
0

0101000
+144 37 -140 37 *
Ve
1e-07
10.9999899810376 -9.99999999998425 29
0 0

0101101
*
Ed
 1e-07 1 1 0
1  32 0 4.71238574025461 6.28318871277859
2  63 5 35 4.71238574025461 6.28318871277859
2  64 26 36 4.71238574025461 6.28318871277859
0

0101000
+138 37 -142 37 *
Ed
 1e-07 1 1 0
1  33 0 0 21.9999799620751
2  65 5 35 0 21.9999799620751
2  66 27 36 0 21.9999799620751
0

0101000
+138 37 -140 37 *
Wi

0101100
-149 34 +147 34 +145 34 -143 34 -141 34 +139 34 +137 34 -136 34 *
Ve
1e-07
-12.95 37 29
0 0

0101101
*
Ed
 1e-07 1 1 0
1  34 0 0 6.28318530717959
2  67 5 25 0 6.28318530717959
2  68 28 26 0 6.28318530717959
0

0101000
+134 27 -134 27 *
Wi

0101100
+133 24 *
Fa
0  1e-07 5 21

0111000
+184 0 +181 0 +164 0 +161 0 +158 0 +155 0 +152 0 +135 0 +132 0 *
Wi

0101100
+193 0 -200 0 -188 12 +185 17 *
Fa
0  1e-07 6 0

0111000
+130 0 *
Ve
1e-07
16.05 -18 27.9
0 0

0101101
*
Ed
 1e-07 1 1 0
1  35 0 0 1.1
3  69 70CN 7 0 0 1.1
0

0101000
+183 38 -128 38 *
Ed
 1e-07 1 1 0
1  36 0 0 6.28318530717959
2  71 7 41 0 6.28318530717959
2  72 29 42 0 6.28318530717959
0

0101000
+128 43 -128 43 *
Wi

0101100
-182 24 -127 0 +126 40 +127 0 *
Fa
0  1e-07 7 0

0111000
+125 0 *
Ve
1e-07
-4.99999999999984 -15.499981286112 14
0 0

0101101
*
Ed
 1e-07 1 1 0
1  37 0 0 15
2  73 8 0 0 15
2  74 9 0 0 15
4 G1 8 0 9 0
0

0101000
+180 45 -123 45 *
Ve
1e-07
5.00000000000043 -15.499981286112 14
0 0

0101101
*
Ed
 1e-07 1 1 0
1  38 0 0 10.0000000000003
2  75 8 49 0 10.0000000000003
2  76 30 50 0 10.0000000000003
0

0101000
+123 51 -121 51 *
Ed
 1e-07 1 1 0
1  39 0 0 15
2  77 8 0 0 15
2  78 10 0 0 15
4 G1 8 0 10 0
0

0101000
+179 45 -121 45 *
Wi

0101100
+122 0 -178 46 +120 48 -119 0 *
Fa
0  1e-07 8 0

0111000
+118 0 *
Ve
1e-07
-12.5000112436382 -23.0000020576935 14
0 0

0101101
*
Ed
 1e-07 1 1 0
1  40 0 1.57079631533369 3.14159393544069
2  79 9 49 1.57079631533369 3.14159393544069
2  80 30 50 1.57079631533369 3.14159393544069
0

0101000
+123 51 -116 51 *
Ed
 1e-07 1 1 0
1  41 0 0 15
2  81 9 0 0 15
2  82 11 0 0 15
4 G1 9 0 11 0
0

0101000
+177 45 -116 45 *
Wi

0101100
+122 0 -176 46 +115 48 -114 0 *
Fa
0  1e-07 9 0

0111000
+113 0 *
Ve
1e-07
12.4999894689846 -22.9999796081453 14
0 0

0101101
*
Ed
 1e-07 1 1 0
1  42 0 0 15
2  83 10 0 0 15
2  84 12 0 0 15
4 G1 10 0 12 0
0

0101000
+175 45 -111 45 *
Ed
 1e-07 1 1 0
1  43 0 6.28318408212612 7.85398167862043
2  85 10 49 6.28318408212612 7.85398167862043
2  86 30 50 6.28318408212612 7.85398167862043
0

0101000
+111 51 -121 51 *
Wi

0101100
+110 0 -174 46 +109 48 -119 0 *
Fa
0  1e-07 10 0

0111000
+108 0 *
Ve
1e-07
-12.4999999999993 -32.0000020576792 14
0 0

0101101
*
Ed
 1e-07 1 1 0
1  44 0 0 15
2  87 11 0 0 15
2  88 13 0 0 15
4 G1 11 0 13 0
0

0101000
+173 45 -106 45 *
Ed
 1e-07 1 1 0
1  45 0 0 8.9999999999928
2  89 11 49 0 8.9999999999928
2  90 30 50 0 8.9999999999928
0

0101000
+106 51 -116 51 *
Wi

0101100
+105 0 -172 46 +104 48 -114 0 *
Fa
0  1e-07 11 0

0111000
+103 0 *
Ve
1e-07
12.500000712565 -31.9999796081586 14
0 0

0101101
*
Ed
 1e-07 1 1 0
1  46 0 0 15
2  91 12 0 0 15
2  92 14 0 0 15
4 G1 12 0 14 0
0

0101000
+171 45 -101 45 *
Ed
 1e-07 1 1 0
1  47 0 0 9.00000000002035
2  93 12 49 0 9.00000000002035
2  94 30 50 0 9.00000000002035
0

0101000
+101 51 -111 51 *
Wi

0101100
+100 0 -170 46 +99 48 -110 0 *
Fa
0  1e-07 12 0

0111000
+98 0 *
Ve
1e-07
-9.5000001107669 -35 14
0 0

0101101
*
Ed
 1e-07 1 1 0
1  48 0 3.14159333948287 4.71238894346238
2  95 13 49 3.14159333948287 4.71238894346238
2  96 30 50 3.14159333948287 4.71238894346238
0

0101000
+106 51 -96 51 *
Ed
 1e-07 1 1 0
1  49 0 0 15
2  97 13 0 0 15
2  98 15 0 0 15
4 G1 13 0 15 0
0

0101000
+169 45 -96 45 *
Wi

0101100
+105 0 -168 46 +95 48 -94 0 *
Fa
0  1e-07 13 0

0111000
+93 0 *
Ve
1e-07
9.5000001107669 -34.9999999999999 14
0 0

0101101
*
Ed
 1e-07 1 1 0
1  50 0 0 15
2  99 14 0 0 15
2  100 15 0 0 15
4 G1 14 0 15 0
0

0101000
+167 45 -91 45 *
Ed
 1e-07 1 1 0
1  51 0 4.71238877976221 6.28319210446006
2  101 14 49 4.71238877976221 6.28319210446006
2  102 30 50 4.71238877976221 6.28319210446006
0

0101000
+91 51 -101 51 *
Wi

0101100
+90 0 -166 46 +89 48 -100 0 *
Fa
0  1e-07 14 0

0111000
+88 0 *
Ed
 1e-07 1 1 0
1  52 0 0 19.0000002215338
2  103 15 49 0 19.0000002215338
2  104 30 50 0 19.0000002215338
0

0101000
+96 51 -91 51 *
Wi

0101100
+94 0 -165 46 +86 48 -90 0 *
Fa
0  1e-07 15 0

0111000
+85 0 *
Ve
1e-07
16.05 -37 27.9
0 0

0101101
*
Ed
 1e-07 1 1 0
1  53 0 0 1.1
3  105 106CN 16 0 0 1.1
0

0101000
+163 38 -83 38 *
Ed
 1e-07 1 1 0
1  54 0 0 6.28318530717959
2  107 16 41 0 6.28318530717959
2  108 31 42 0 6.28318530717959
0

0101000
+83 43 -83 43 *
Wi

0101100
-162 24 -82 0 +81 40 +82 0 *
Fa
0  1e-07 16 0

0111000
+80 0 *
Ve
1e-07
-12.95 -37 27.9
0 0

0101101
*
Ed
 1e-07 1 1 0
1  55 0 0 1.1
3  109 110CN 17 0 0 1.1
0

0101000
+160 38 -78 38 *
Ed
 1e-07 1 1 0
1  56 0 0 6.28318530717959
2  111 17 41 0 6.28318530717959
2  112 32 42 0 6.28318530717959
0

0101000
+78 43 -78 43 *
Wi

0101100
-159 24 -77 0 +76 40 +77 0 *
Fa
0  1e-07 17 0

0111000
+75 0 *
Ve
1e-07
-12.95 -18 27.9
0 0

0101101
*
Ed
 1e-07 1 1 0
1  57 0 0 1.1
3  113 114CN 18 0 0 1.1
0

0101000
+157 38 -73 38 *
Ed
 1e-07 1 1 0
1  58 0 0 6.28318530717959
2  115 18 41 0 6.28318530717959
2  116 33 42 0 6.28318530717959
0

0101000
+73 43 -73 43 *
Wi

0101100
-156 24 -72 0 +71 40 +72 0 *
Fa
0  1e-07 18 0

0111000
+70 0 *
Ve
1e-07
16.05 37 27.9
0 0

0101101
*
Ed
 1e-07 1 1 0
1  59 0 0 1.1
3  117 118CN 19 0 0 1.1
0

0101000
+154 38 -68 38 *
Ed
 1e-07 1 1 0
1  60 0 0 6.28318530717959
2  119 19 41 0 6.28318530717959
2  120 34 42 0 6.28318530717959
0

0101000
+68 43 -68 43 *
Wi

0101100
-153 24 -67 0 +66 40 +67 0 *
Fa
0  1e-07 19 0

0111000
+65 0 *
Ve
1e-07
-10.9999899810376 36.4999999999804 2.5
0 0

0101101
*
Ed
 1e-07 1 1 0
1  61 0 0 26.5
2  121 20 0 0 26.5
2  122 21 0 0 26.5
4 G1 20 0 21 0
0

0101000
+151 53 -63 53 *
Ve
1.00007037925798e-07
10.9999899810376 36.499999999993 2.5
0 0

0101101
*
Ed
 1e-07 1 1 0
1  62 0 0 21.9999799620751
2  123 20 57 0 21.9999799620751
2  124 35 58 0 21.9999799620751
0

0101000
+63 59 -61 59 *
Ed
 1.00007037925798e-07 1 1 0
1  63 0 0 26.5
2  125 20 0 0 26.5
2  126 22 0 0 26.5
4 G1 20 0 22 0
0

0101000
+150 53 -61 53 *
Wi

0101100
+62 0 -149 54 +60 56 -59 0 *
Fa
0  1e-07 20 0

0111000
+58 0 *
Ve
1e-07
-14.0000008291007 33.4999892341919 2.5
0 0

0101101
*
Ed
 1e-07 1 1 0
1  64 0 1.57079271076741 3.14159624219248
2  127 21 57 1.57079271076741 3.14159624219248
2  128 35 58 1.57079271076741 3.14159624219248
0

0101000
+63 59 -56 59 *
Ed
 1e-07 1 1 0
1  65 0 0 26.5
2  129 21 0 0 26.5
2  130 23 0 0 26.5
4 G1 21 0 23 0
0

0101000
+148 53 -56 53 *
Wi

0101100
+62 0 -147 54 +55 56 -54 0 *
Fa
0  1e-07 21 0

0111000
+53 0 *
Ve
1e-07
13.9999991708618 33.4999895648494 2.5
0 0

0101101
*
Ed
 1e-07 1 1 0
1  66 0 0 26.5
2  131 22 0 0 26.5
2  132 24 0 0 26.5
4 G1 22 0 24 0
0

0101000
+146 53 -51 53 *
Ed
 1e-07 1 1 0
1  67 0 6.28318182879605 7.85398469725529
2  133 22 57 6.28318182879605 7.85398469725529
2  134 35 58 6.28318182879605 7.85398469725529
0

0101000
+51 59 -61 59 *
Wi

0101100
+50 0 -145 54 +49 56 -59 0 *
Fa
0  1e-07 22 0

0111000
+48 0 *
Ve
1e-07
-14.0000002985559 -6.99999011386042 2.5
0 0

0101101
*
Ed
 1e-07 1 1 0
1  68 0 0 26.5
2  135 23 0 0 26.5
2  136 25 0 0 26.5
4 G1 23 0 25 0
0

0101000
+144 53 -46 53 *
Ed
 1e-07 1 1 0
1  69 0 0 40.4999793480524
2  137 23 57 0 40.4999793480524
2  138 35 58 0 40.4999793480524
0

0101000
+46 59 -56 59 *
Wi

0101100
+45 0 -143 54 +44 56 -54 0 *
Fa
0  1e-07 23 0

0111000
+43 0 *
Ve
1.00000001776357e-07
13.9999997014104 -6.99998978320299 2.5
0 0

0101101
*
Ed
 1e-07 1 1 0
1  70 0 0 40.4999793480524
2  139 24 57 0 40.4999793480524
2  140 35 58 0 40.4999793480524
0

0101000
+51 59 -41 59 *
Ed
 1.00000001776357e-07 1 1 0
1  71 0 0 26.5
2  141 24 0 0 26.5
2  142 26 0 0 26.5
4 G1 24 0 26 0
0

0101000
+142 53 -41 53 *
Wi

0101100
+50 0 -141 54 +40 56 -39 0 *
Fa
0  1e-07 24 0

0111000
+38 0 *
Ve
1e-07
-10.9999899810376 -9.99999999998226 2.5
0 0

0101101
*
Ed
 1e-07 1 1 0
1  72 0 3.14158935820993 4.71239241956291
2  143 25 57 3.14158935820993 4.71239241956291
2  144 35 58 3.14158935820993 4.71239241956291
0

0101000
+46 59 -36 59 *
Ed
 1e-07 1 1 0
1  73 0 0 26.5
2  145 25 0 0 26.5
2  146 27 0 0 26.5
4 G1 25 0 27 0
0

0101000
+140 53 -36 53 *
Wi

0101100
+45 0 -139 54 +35 56 -34 0 *
Fa
0  1e-07 25 0

0111000
+33 0 *
Ve
1e-07
10.9999899810376 -9.99999999998425 2.5
0 0

0101101
*
Ed
 1e-07 1 1 0
1  74 0 0 26.5
2  147 26 0 0 26.5
2  148 27 0 0 26.5
4 G1 26 0 27 0
0

0101000
+138 53 -31 53 *
Ed
 1e-07 1 1 0
1  75 0 4.71238574025461 6.28318871277859
2  149 26 57 4.71238574025461 6.28318871277859
2  150 35 58 4.71238574025461 6.28318871277859
0

0101000
+31 59 -41 59 *
Wi

0101100
+30 0 -137 54 +29 56 -39 0 *
Fa
0  1e-07 26 0

0111000
+28 0 *
Ed
 1e-07 1 1 0
1  76 0 0 21.9999799620751
2  151 27 57 0 21.9999799620751
2  152 35 58 0 21.9999799620751
0

0101000
+31 59 -36 59 *
Wi

0101100
+30 0 -136 54 +26 56 -34 0 *
Fa
0  1e-07 27 0

0111000
+25 0 *
Ve
1e-07
-12.95 37 27.9
0 0

0101101
*
Ed
 1e-07 1 1 0
1  77 0 0 1.1
3  153 154CN 28 0 0 1.1
0

0101000
+134 38 -23 38 *
Ed
 1e-07 1 1 0
1  78 0 0 6.28318530717959
2  155 28 41 0 6.28318530717959
2  156 36 42 0 6.28318530717959
0

0101000
+23 43 -23 43 *
Wi

0101100
-133 24 -22 0 +21 40 +22 0 *
Fa
0  1e-07 28 0

0111000
+20 0 *
Wi

0101100
+126 0 *
Fa
0  1e-07 29 0

0111000
+18 23 *
Wi

0101100
+104 0 -115 0 +120 0 -109 0 -99 0 -89 0 -86 0 -95 0 *
Fa
0  1e-07 30 0

0111000
+16 28 *
Wi

0101100
+81 0 *
Fa
0  1e-07 31 0

0111000
+14 23 *
Wi

0101100
+76 0 *
Fa
0  1e-07 32 0

0111000
+12 23 *
Wi

0101100
+71 0 *
Fa
0  1e-07 33 0

0111000
+10 23 *
Wi

0101100
+66 0 *
Fa
0  1e-07 34 0

0111000
+8 23 *
Wi

0101100
+44 0 -55 0 +60 0 -49 0 +40 0 -29 0 +26 0 -35 0 *
Fa
0  1e-07 35 0

0111000
+6 33 *
Wi

0101100
+21 0 *
Fa
0  1e-07 36 0

0111000
+4 23 *
Sh

0101100
+203 8 +196 8 +189 8 +186 20 -131 0 +129 8 -124 0 +117 44 -112 44 -107 44 
+102 44 -97 44 -92 44 -87 44 -84 44 -79 0 -74 0 -69 0 -64 0 +57 52 
-52 52 -47 52 +42 52 +37 52 -32 52 -27 52 +24 52 -19 0 +17 60 -15 61 
+13 60 +11 60 +9 60 +7 60 -5 62 +3 60 *
So

1100000
+2 0 *

+1 1 