DBRep_DrawableShape

CASCADE Topology V1, (c) Matra-Datavision
Locations 46
1
              1               0               0               0 
              0               1               0               0 
              0               0               1               0 
1
              1               0               0               0 
              0               1               0               0 
              0               0               1               0 
1
              1               0               0               0 
              0               1               0               0 
              0               0               1               0 
1
              1               0               0               0 
              0               1               0               0 
              0               0               1               0 
1
              1               0               0               0 
              0               1               0               0 
              0               0               1               0 
2  2 1 3 -1 4 1 5 -1 0
2  1 -1 5 1 4 -1 3 1 2 -1 0
1
              1               0               0               0 
              0               1               0               0 
              0               0               1               0 
1
              1               0               0               0 
              0               1               0               0 
              0               0               1               0 
2  8 1 9 -1 0
2  9 1 8 -1 0
2  8 -1 0
2  1 -1 5 1 4 -1 3 1 2 -1 9 1 8 -1 0
1
              1               0               0               0 
              0               1               0               0 
              0               0               1              29 
2  8 1 9 -1 14 1 0
2  14 -1 9 1 8 -1 0
2  1 -1 5 1 4 -1 3 1 2 -1 14 -1 9 1 8 -1 0
2  9 -1 2 1 3 -1 4 1 5 -1 0
2  9 -1 14 1 2 1 3 -1 4 1 5 -1 0
2  8 1 9 -1 14 1 2 1 3 -1 4 1 5 -1 0
1
              1               0               0              -0 
              0               1               0               0 
              0               0               1              29 
2  21 1 5 -1 0
2  9 -1 14 1 2 1 3 -1 4 1 21 -1 0
2  5 1 21 -1 0
2  1 -1 5 1 21 -1 0
1
              1               0               0              -0 
              0               1               0               0 
              0               0               1              29 
2  26 1 3 -1 4 1 5 -1 0
2  9 -1 14 1 2 1 26 -1 0
2  3 1 26 -1 0
2  1 -1 5 1 4 -1 3 1 26 -1 0
2  1 -1 0
1
              1               0               0              -0 
              0               1               0              -0 
              0               0               1             -15 
2  21 1 5 -1 32 1 0
2  32 -1 5 1 21 -1 0
2  21 -1 0
2  1 -1 32 -1 5 1 21 -1 0
2  4 1 5 -1 0
2  1 -1 5 1 4 -1 0
2  26 1 3 -1 0
1
              1               0               0              -0 
              0               1               0              -0 
              0               0               1           -26.5 
2  26 1 3 -1 40 1 0
2  40 -1 3 1 26 -1 0
2  26 -1 0
2  1 -1 5 1 4 -1 40 -1 3 1 26 -1 0
2  5 -1 32 1 0
2  3 -1 40 1 4 1 5 -1 0
Curve2ds 120
1 0 0 0 -1 
1 80 0 0 -1 
1 35 0 0 -1 
1 0 0 0 -1 
1 0 0 1 0 
1 17.5 40 -1 0 
1 0 -29 1 0 
1 17.5 40 -1 0 
1 0 0 0 -1 
1 35 0 0 -1 
1 0 0 1 0 
1 17.5 -40 0 1 
1 0 -29 1 0 
1 17.5 -40 0 1 
1 80 0 0 -1 
1 0 -0 0 -1 
1 0 0 1 0 
1 -17.5 40 0 -1 
1 0 -29 1 0 
1 -17.5 40 0 -1 
1 -17.5 -40 1 0 
1 0 -0 1 0 
1 -17.5 -40 1 0 
1 0 -29 1 0 
1 4.9999999999998446 -15.499981286112011 -1 -1.7763568394002015e-16 
1 0 0 1 0 
2 -5.0000003348445823 -22.999970420257615 -1 0 0 1 7.4999891341456095
1 0 0 1 0 
1 -12.50000071256504 -31.99997960815859 1.2492867197001738e-06 0.99999999999921962 
1 0 0 1 0 
2 -9.5000007126343444 -32 -1 0 0 1 3
1 0 0 1 0 
1 9.5000001107669032 -35 -1 2.9917588525280153e-15 
1 0 0 1 0 
2 9.499999999999984 -32 -1 0 0 1 3
1 0 0 1 0 
1 12.499999999999279 -32.000002057679232 1.2492932180120622e-06 0.99999999999921962 
1 0 0 1 0 
2 5.0000000859590044 -22.999992443797407 -1 0 0 1 7.5000111576853978
1 0 0 1 0 
1 10.99998998103756 36.499999999980389 -1 8.9140897131658043e-13 
1 0 0 1 0 
2 11.000000829120019 33.5 -1 0 0 1 3
1 0 0 1 0 
2 -10.999999170879981 33.5 -1 0 0 1 3
1 0 0 1 0 
1 14.000000298555923 -6.999990113860421 1.3099877782775314e-08 0.99999999999999989 
1 0 0 1 0 
1 -13.999999170861832 33.499989564849379 -1.3099971074452453e-08 -0.99999999999999989 
1 0 0 1 0 
2 11.000000298572212 -6.9999999999999973 -1 0 0 1 3
1 0 0 1 0 
2 -10.999999701427788 -6.9999999999999982 -1 0 0 1 3
1 0 0 1 0 
1 -10.999989981037562 -9.9999999999842508 1 9.0675024890264467e-14 
1 0 0 1 0 
1 0 0 0 -1 
1 1.5707963153336924 0 0 -1 
1 0 -15 1 0 
1 -10.346058642857276 4.9999961318806756 1.7763568394002015e-16 -1 
1 10.000000000000275 0 0 -1 
1 7.8539816786204346 0 0 -1 
1 6.2831840821261249 0 0 -1 
1 9.0000000000203482 0 0 -1 
1 0 -15 1 0 
2 -2.8460695087116719 -5.0000042029637513 0 -1 -1 -0 7.4999891341456095
1 0 0 0 -1 
1 6.2831921044600572 0 0 -1 
1 0 -15 1 0 
1 6.1539396791893033 -12.500004580684209 -0.99999999999921962 1.2492867197001738e-06 
1 4.7123887797622093 0 0 -1 
1 19.000000221533806 0 0 -1 
1 0 -15 1 0 
2 6.1539600710307134 -9.5000045807535134 0 -1 -1 -0 3
1 0 0 0 -1 
1 4.7123889434623836 0 0 -1 
1 0 -15 1 0 
1 9.1539600710307134 9.4999962426477342 -2.9917588525280153e-15 -1 
1 3.1415933394828714 0 0 -1 
1 0 0 0 -1 
1 0 -15 1 0 
2 6.1539600710307134 9.499996131880815 0 -1 -1 -0 3
1 0 -15 1 0 
1 6.1539621287099457 12.49999613188011 -0.99999999999921962 1.2492932180120622e-06 
1 8.9999999999928022 0 0 -1 
1 3.1415939354406928 0 0 -1 
1 0 -15 1 0 
2 -2.84604748517188 4.9999962178398354 0 -1 -1 -0 7.5000111576853978
1 0 0 0 -1 
1 1.5707927107674102 0 0 -1 
1 0 -26.5 1 0 
1 10.999989425108959 23.250000006243397 -1 8.9140897131658043e-13 
1 21.99997996207512 0 0 -1 
1 7.8539846972552905 0 0 -1 
1 0 -26.5 1 0 
2 11.000000273191418 20.250000006263008 -1 -2.1592157265412046e-65 -2.1592157265412046e-65 1 3
1 3.1415962421924788 0 0 -1 
1 40.499979348052364 0 0 -1 
1 6.283181828796045 0 0 -1 
1 0 0 0 -1 
1 0 -26.5 1 0 
2 -10.999999726808582 20.250000006263008 -1 -2.1592157265412046e-65 -2.1592157265412046e-65 1 3
1 0 0 0 -1 
1 3.1415893582099343 0 0 -1 
1 0 -26.5 1 0 
1 13.999999742627322 -20.249990107597416 1.3099877782775314e-08 0.99999999999999989 
1 0 -26.5 1 0 
1 -13.999999726790433 20.249989571112387 -1.3099971074452453e-08 -0.99999999999999989 
1 40.499979348052364 0 0 -1 
1 6.2831887127785899 0 0 -1 
1 0 -26.5 1 0 
2 10.999999742643611 -20.249999993736992 -1 -2.1592157265412046e-65 -2.1592157265412046e-65 1 3
1 4.7123924195629066 0 0 -1 
1 21.999979962075123 0 0 -1 
1 4.7123857402546143 0 0 -1 
1 0 0 0 -1 
1 0 -26.5 1 0 
2 -11.000000257356389 -20.249999993736992 -1 -2.1592157265412046e-65 -2.1592157265412046e-65 1 3
1 0 -26.5 1 0 
1 -10.999990536966163 -23.249999993721246 1 9.0675024890264467e-14 
Curves 60
1 -17.5 40 0 0 0 1 
1 17.5 40 0 0 0 1 
1 -17.5 40 0 1 0 0 
1 -17.5 40 0 1 0 0 
1 -17.5 -40 0 0 0 1 
1 -17.5 -40 0 0 1 0 
1 -17.5 -40 0 0 1 0 
1 17.5 -40 0 0 0 1 
1 17.5 40 0 0 -1 0 
1 17.5 40 0 0 -1 0 
1 17.5 -40 0 -1 0 0 
1 17.5 -40 0 -1 0 0 
1 -4.9999999999998446 -15.499981286112011 0 1 -1.7763568394002015e-16 0 
2 5.0000003348445823 -22.999970420257615 0 0 0 1 1 0 -0 -0 1 0 7.4999891341456095
1 12.50000071256504 -31.99997960815859 0 -1.2492867197001738e-06 0.99999999999921962 0 
2 9.5000007126343444 -32 0 0 0 1 1 0 -0 -0 1 0 3
1 -9.5000001107669032 -35 0 1 2.9917588525280153e-15 0 
2 -9.499999999999984 -32 0 0 0 1 1 0 -0 -0 1 0 3
1 -12.499999999999279 -32.000002057679232 0 -1.2492932180120622e-06 0.99999999999921962 0 
2 -5.0000000859590044 -22.999992443797407 0 0 0 1 1 0 -0 -0 1 0 7.5000111576853978
1 -10.99998998103756 36.499999999980389 0 1 8.9140897131658043e-13 0 
2 -11.000000829120019 33.5 0 0 0 1 1 0 -0 -0 1 0 3
2 10.999999170879981 33.5 0 0 0 1 1 0 -0 -0 1 0 3
1 -14.000000298555923 -6.999990113860421 0 -1.3099877782775314e-08 0.99999999999999989 0 
1 13.999999170861832 33.499989564849379 0 1.3099971074452453e-08 -0.99999999999999989 0 
2 -11.000000298572212 -6.9999999999999973 0 0 0 1 1 0 -0 -0 1 0 3
2 10.999999701427788 -6.9999999999999982 0 0 0 1 1 0 -0 -0 1 0 3
1 10.999989981037562 -9.9999999999842508 0 -1 9.0675024890264467e-14 0 
1 -4.9999999999998446 -15.499981286112011 29 -0 -0 -1 
1 -4.9999999999998446 -15.499981286112011 0 1 -1.7763568394002015e-16 0 
1 5.0000000000004308 -15.499981286112012 29 -0 -0 -1 
1 12.499989468984563 -22.999979608145264 29 -0 -0 -1 
2 5.0000003348445823 -22.999970420257615 0 0 0 1 1 0 -0 -0 1 0 7.4999891341456095
1 12.50000071256504 -31.99997960815859 29 -0 -0 -1 
1 12.50000071256504 -31.99997960815859 0 -1.2492867197001738e-06 0.99999999999921962 0 
1 9.5000001107669032 -34.999999999999943 29 -0 -0 -1 
2 9.5000007126343444 -32 0 0 0 1 1 0 -0 -0 1 0 3
1 -9.5000001107669032 -35 29 -0 -0 -1 
1 -9.5000001107669032 -35 0 1 2.9917588525280153e-15 0 
1 -12.499999999999279 -32.000002057679232 29 -0 -0 -1 
2 -9.499999999999984 -32 0 0 0 1 1 0 -0 -0 1 0 3
1 -12.499999999999279 -32.000002057679232 0 -1.2492932180120622e-06 0.99999999999921962 0 
1 -12.500011243638241 -23.000002057693454 29 -0 -0 -1 
2 -5.0000000859590044 -22.999992443797407 0 0 0 1 1 0 -0 -0 1 0 7.5000111576853978
1 -10.99998998103756 36.499999999980389 29 -0 -0 -1 
1 -10.99998998103756 36.499999999980389 0 1 8.9140897131658043e-13 0 
1 10.99998998103756 36.499999999992966 29 -0 -0 -1 
2 -11.000000829120019 33.5 0 0 0 1 1 0 -0 -0 1 0 3
1 -14.000000829100703 33.499989234191943 29 -0 -0 -1 
1 13.999999170861832 33.499989564849379 29 -0 -0 -1 
2 10.999999170879981 33.5 0 0 0 1 1 0 -0 -0 1 0 3
1 -14.000000298555923 -6.999990113860421 29 -0 -0 -1 
1 -14.000000298555923 -6.999990113860421 0 -1.3099877782775314e-08 0.99999999999999989 0 
1 13.999999170861832 33.499989564849379 0 1.3099971074452453e-08 -0.99999999999999989 0 
1 13.99999970141039 -6.9999897832029863 29 -0 -0 -1 
2 -11.000000298572212 -6.9999999999999973 0 0 0 1 1 0 -0 -0 1 0 3
1 -10.999989981037562 -9.999999999982256 29 -0 -0 -1 
1 10.999989981037562 -9.9999999999842508 29 -0 -0 -1 
2 10.999999701427788 -6.9999999999999982 0 0 0 1 1 0 -0 -0 1 0 3
1 10.999989981037562 -9.9999999999842508 0 -1 9.0675024890264467e-14 0 
Polygon3D 0
PolygonOnTriangulations 0
Surfaces 24
1 -17.5 40 0 0 1 0 1 0 0 0 0 -1 
1 -17.5 -40 0 -1 0 0 0 1 0 0 0 -1 
1 17.5 40 0 1 0 -0 0 -1 0 0 -0 -1 
1 0 0 0 -0 -0 -1 -1 0 0 0 1 -0 
1 0 0 0 -0 -0 -1 -1 0 0 0 1 -0 
1 17.5 -40 0 0 -1 0 -1 0 0 -0 -0 -1 
1 -4.9999999999998446 -15.499981286112011 29 -1.7763568394002015e-16 -1 0 1 -1.7763568394002015e-16 0 0 0 1 
2 5.0000003348445823 -22.999970420257615 29 0 0 1 1 0 -0 -0 1 0 7.4999891341456095
1 12.50000071256504 -31.99997960815859 29 0.99999999999921962 1.2492867197001738e-06 -0 -1.2492867197001738e-06 0.99999999999921962 0 0 0 1 
2 9.5000007126343444 -32 29 0 0 1 1 0 -0 -0 1 0 3
1 -9.5000001107669032 -35 29 2.9917588525280153e-15 -1 0 1 2.9917588525280153e-15 0 -0 0 1 
2 -9.499999999999984 -32 29 0 0 1 1 0 -0 -0 1 0 3
1 -12.499999999999279 -32.000002057679232 29 0.99999999999921962 1.2492932180120622e-06 -0 -1.2492932180120622e-06 0.99999999999921962 0 0 0 1 
2 -5.0000000859590044 -22.999992443797407 29 0 0 1 1 0 -0 -0 1 0 7.5000111576853978
1 -10.99998998103756 36.499999999980389 29 8.9140897131658043e-13 -1 0 1 8.9140897131658043e-13 0 -0 0 1 
2 -11.000000829120019 33.5 29 0 0 1 1 0 -0 -0 1 0 3
2 10.999999170879981 33.5 29 0 0 1 1 0 -0 -0 1 0 3
1 -14.000000298555923 -6.999990113860421 29 0.99999999999999989 1.3099877782775314e-08 -0 -1.3099877782775314e-08 0.99999999999999989 0 0 0 1 
1 13.999999170861832 33.499989564849379 29 -0.99999999999999989 -1.3099971074452453e-08 0 1.3099971074452453e-08 -0.99999999999999989 0 0 0 1 
2 -11.000000298572212 -6.9999999999999973 29 0 0 1 1 0 -0 -0 1 0 3
2 10.999999701427788 -6.9999999999999982 29 0 0 1 1 0 -0 -0 1 0 3
1 10.999989981037562 -9.9999999999842508 29 9.0675024890264467e-14 1 -0 -1 9.0675024890264467e-14 0 0 0 1 
1 -3.8681191690985665e-06 -25.846039928969287 29.000000000000007 -4.7770343003025668e-32 7.1194243443690717e-31 -1 0 -1 -7.1194243443690717e-31 -1 -3.4009734291460168e-62 4.7770343003025668e-32 
1 -5.5592860085667327e-07 13.249999993736994 29.000000000000011 -2.2347652451134846e-32 -9.6619353252540694e-34 -1 -1 0 2.2347652451134846e-32 -2.1592157265412046e-65 1 -9.6619353252540694e-34 
Triangulations 0

TShapes 152
Ve
1e-07
-17.5 40 0
0 0

0101101
*
Ve
1e-07
-17.5 40 29
0 0

0101101
*
Ed
 1e-07 1 1 0
1  1 0 0 29
2  1 1 0 0 29
2  2 2 0 0 29
0

0101000
+152 7 -151 7 *
Ve
1e-07
17.5 40 0
0 0

0101101
*
Ve
1e-07
17.5 40 29
0 0

0101101
*
Ed
 1e-07 1 1 0
1  2 0 0 29
2  3 1 0 0 29
2  4 3 0 0 29
0

0101000
+149 7 -148 7 *
Ed
 1e-07 1 1 0
1  3 0 0 35
2  5 1 11 0 35
2  6 4 12 0 35
0

0101000
+152 13 -149 13 *
Ed
 1e-07 1 1 0
1  4 0 0 35
2  7 1 16 0 35
2  8 5 12 0 35
0

0101000
+151 17 -148 17 *
Wi

0101100
+150 0 -147 0 -146 10 +145 15 *
Fa
0  1e-07 1 0

0111000
+144 0 *
Ve
1e-07
-17.5 -40 0
0 0

0101101
*
Ve
1e-07
-17.5 -40 29
0 0

0101101
*
Ed
 1e-07 1 1 0
1  5 0 0 29
2  9 2 0 0 29
2  10 6 0 0 29
0

0101000
+142 7 -141 7 *
Ed
 1e-07 1 1 0
1  6 0 0 80
2  11 2 11 0 80
2  12 4 12 0 80
0

0101000
+142 13 -152 13 *
Ed
 1e-07 1 1 0
1  7 0 0 80
2  13 2 16 0 80
2  14 5 12 0 80
0

0101000
+141 17 -151 17 *
Wi

0101100
+140 0 -150 0 -139 10 +138 15 *
Fa
0  1e-07 2 0

0111000
+137 0 *
Ve
1e-07
17.5 -40 0
0 0

0101101
*
Ve
1e-07
17.5 -40 29
0 0

0101101
*
Ed
 1e-07 1 1 0
1  8 0 0 29
2  15 3 0 0 29
2  16 6 0 0 29
0

0101000
+135 7 -134 7 *
Ed
 1e-07 1 1 0
1  9 0 0 80
2  17 3 11 0 80
2  18 4 12 0 80
0

0101000
+149 13 -135 13 *
Ed
 1e-07 1 1 0
1  10 0 0 80
2  19 3 16 0 80
2  20 5 12 0 80
0

0101000
+148 17 -134 17 *
Wi

0101100
+147 0 -133 0 -132 10 +131 15 *
Fa
0  1e-07 3 0

0111000
+130 0 *
Ed
 1e-07 1 1 0
1  11 0 0 35
2  21 4 12 0 35
2  22 6 11 0 35
0

0101000
+135 13 -142 13 *
Wi

0101100
+146 0 +132 0 +128 0 +139 0 *
Fa
0  1e-07 4 0

0111000
+127 8 *
Ed
 1e-07 1 1 0
1  12 0 0 35
2  23 5 12 0 35
2  24 6 16 0 35
0

0101000
+134 17 -141 17 *
Wi

0101100
+145 20 +138 20 +131 20 +125 20 *
Ve
1e-07
-4.99999999999984 -15.499981286112 29
0 0

0101101
*
Ve
1e-07
5.00000000000043 -15.499981286112 29
0 0

0101101
*
Ed
 1e-07 1 1 0
1  13 0 0 10.0000000000003
2  25 5 23 0 10.0000000000003
2  26 7 24 0 10.0000000000003
0

0101000
+123 25 -122 25 *
Ve
1e-07
12.4999894689846 -22.9999796081453 29
0 0

0101101
*
Ed
 1e-07 1 1 0
1  14 0 6.28318408212612 7.85398167862043
2  27 5 23 6.28318408212612 7.85398167862043
2  28 8 24 6.28318408212612 7.85398167862043
0

0101000
+120 25 -122 25 *
Ve
1e-07
12.500000712565 -31.9999796081586 29
0 0

0101101
*
Ed
 1e-07 1 1 0
1  15 0 0 9.00000000002035
2  29 5 23 0 9.00000000002035
2  30 9 24 0 9.00000000002035
0

0101000
+118 25 -120 25 *
Ve
1e-07
9.5000001107669 -34.9999999999999 29
0 0

0101101
*
Ed
 1e-07 1 1 0
1  16 0 4.71238877976221 6.28319210446006
2  31 5 23 4.71238877976221 6.28319210446006
2  32 10 24 4.71238877976221 6.28319210446006
0

0101000
+116 25 -118 25 *
Ve
1e-07
-9.5000001107669 -35 29
0 0

0101101
*
Ed
 1e-07 1 1 0
1  17 0 0 19.0000002215338
2  33 5 23 0 19.0000002215338
2  34 11 24 0 19.0000002215338
0

0101000
+114 25 -116 25 *
Ve
1e-07
-12.4999999999993 -32.0000020576792 29
0 0

0101101
*
Ed
 1e-07 1 1 0
1  18 0 3.14159333948287 4.71238894346238
2  35 5 23 3.14159333948287 4.71238894346238
2  36 12 24 3.14159333948287 4.71238894346238
0

0101000
+112 25 -114 25 *
Ve
1e-07
-12.5000112436382 -23.0000020576935 29
0 0

0101101
*
Ed
 1e-07 1 1 0
1  19 0 0 8.9999999999928
2  37 5 23 0 8.9999999999928
2  38 13 24 0 8.9999999999928
0

0101000
+112 25 -110 25 *
Ed
 1e-07 1 1 0
1  20 0 1.57079631533369 3.14159393544069
2  39 5 23 1.57079631533369 3.14159393544069
2  40 14 24 1.57079631533369 3.14159393544069
0

0101000
+123 25 -110 25 *
Wi

0101100
-121 22 +119 22 +117 22 +115 22 +113 22 +111 22 -109 22 +108 22 *
Ve
1e-07
-10.9999899810376 36.4999999999804 29
0 0

0101101
*
Ve
1.00007037925798e-07
10.9999899810376 36.499999999993 29
0 0

0101101
*
Ed
 1e-07 1 1 0
1  21 0 0 21.9999799620751
2  41 5 28 0 21.9999799620751
2  42 15 29 0 21.9999799620751
0

0101000
+106 30 -105 30 *
Ve
1e-07
-14.0000008291007 33.4999892341919 29
0 0

0101101
*
Ed
 1e-07 1 1 0
1  22 0 1.57079271076741 3.14159624219248
2  43 5 28 1.57079271076741 3.14159624219248
2  44 16 29 1.57079271076741 3.14159624219248
0

0101000
+106 30 -103 30 *
Ve
1e-07
13.9999991708618 33.4999895648494 29
0 0

0101101
*
Ed
 1e-07 1 1 0
1  23 0 6.28318182879605 7.85398469725529
2  45 5 28 6.28318182879605 7.85398469725529
2  46 17 29 6.28318182879605 7.85398469725529
0

0101000
+101 30 -105 30 *
Ve
1e-07
-14.0000002985559 -6.99999011386042 29
0 0

0101101
*
Ed
 1e-07 1 1 0
1  24 0 0 40.4999793480524
2  47 5 28 0 40.4999793480524
2  48 18 29 0 40.4999793480524
0

0101000
+99 30 -103 30 *
Ve
1.00000001776357e-07
13.9999997014104 -6.99998978320299 29
0 0

0101101
*
Ed
 1e-07 1 1 0
1  25 0 0 40.4999793480524
2  49 5 28 0 40.4999793480524
2  50 19 29 0 40.4999793480524
0

0101000
+101 30 -97 30 *
Ve
1e-07
-10.9999899810376 -9.99999999998226 29
0 0

0101101
*
Ed
 1e-07 1 1 0
1  26 0 3.14158935820993 4.71239241956291
2  51 5 28 3.14158935820993 4.71239241956291
2  52 20 29 3.14158935820993 4.71239241956291
0

0101000
+99 30 -95 30 *
Ve
1e-07
10.9999899810376 -9.99999999998425 29
0 0

0101101
*
Ed
 1e-07 1 1 0
1  27 0 4.71238574025461 6.28318871277859
2  53 5 28 4.71238574025461 6.28318871277859
2  54 21 29 4.71238574025461 6.28318871277859
0

0101000
+93 30 -97 30 *
Ed
 1e-07 1 1 0
1  28 0 0 21.9999799620751
2  55 5 28 0 21.9999799620751
2  56 22 29 0 21.9999799620751
0

0101000
+93 30 -95 30 *
Wi

0101100
-104 27 +102 27 +100 27 -98 27 -96 27 +94 27 +92 27 -91 27 *
Fa
0  1e-07 5 19

0111000
+124 0 +107 0 +90 0 *
Wi

0101100
+133 0 -140 0 -128 10 +125 15 *
Fa
0  1e-07 6 0

0111000
+88 0 *
Ve
1e-07
-4.99999999999984 -15.499981286112 14
0 0

0101101
*
Ed
 1e-07 1 1 0
1  29 0 0 15
2  57 7 0 0 15
2  58 14 0 0 15
4 G1 7 0 14 0
0

0101000
+123 31 -86 31 *
Ve
1e-07
5.00000000000043 -15.499981286112 14
0 0

0101101
*
Ed
 1e-07 1 1 0
1  30 0 0 10.0000000000003
2  59 7 34 0 10.0000000000003
2  60 23 35 0 10.0000000000003
0

0101000
+86 36 -84 36 *
Ed
 1e-07 1 1 0
1  31 0 0 15
2  61 7 0 0 15
2  62 8 0 0 15
4 G1 7 0 8 0
0

0101000
+122 31 -84 31 *
Wi

0101100
+85 0 -121 22 +83 33 -82 0 *
Fa
0  1e-07 7 0

0111000
+81 0 *
Ve
1e-07
12.4999894689846 -22.9999796081453 14
0 0

0101101
*
Ed
 1e-07 1 1 0
1  32 0 0 15
2  63 8 0 0 15
2  64 9 0 0 15
4 G1 8 0 9 0
0

0101000
+120 31 -79 31 *
Ed
 1e-07 1 1 0
1  33 0 6.28318408212612 7.85398167862043
2  65 8 34 6.28318408212612 7.85398167862043
2  66 23 35 6.28318408212612 7.85398167862043
0

0101000
+79 36 -84 36 *
Wi

0101100
+78 0 -119 22 +77 33 -82 0 *
Fa
0  1e-07 8 0

0111000
+76 0 *
Ve
1e-07
12.500000712565 -31.9999796081586 14
0 0

0101101
*
Ed
 1e-07 1 1 0
1  34 0 0 15
2  67 9 0 0 15
2  68 10 0 0 15
4 G1 9 0 10 0
0

0101000
+118 31 -74 31 *
Ed
 1e-07 1 1 0
1  35 0 0 9.00000000002035
2  69 9 34 0 9.00000000002035
2  70 23 35 0 9.00000000002035
0

0101000
+74 36 -79 36 *
Wi

0101100
+73 0 -117 22 +72 33 -78 0 *
Fa
0  1e-07 9 0

0111000
+71 0 *
Ve
1e-07
9.5000001107669 -34.9999999999999 14
0 0

0101101
*
Ed
 1e-07 1 1 0
1  36 0 0 15
2  71 10 0 0 15
2  72 11 0 0 15
4 G1 10 0 11 0
0

0101000
+116 31 -69 31 *
Ed
 1e-07 1 1 0
1  37 0 4.71238877976221 6.28319210446006
2  73 10 34 4.71238877976221 6.28319210446006
2  74 23 35 4.71238877976221 6.28319210446006
0

0101000
+69 36 -74 36 *
Wi

0101100
+68 0 -115 22 +67 33 -73 0 *
Fa
0  1e-07 10 0

0111000
+66 0 *
Ve
1e-07
-9.5000001107669 -35 14
0 0

0101101
*
Ed
 1e-07 1 1 0
1  38 0 0 15
2  75 11 0 0 15
2  76 12 0 0 15
4 G1 11 0 12 0
0

0101000
+114 31 -64 31 *
Ed
 1e-07 1 1 0
1  39 0 0 19.0000002215338
2  77 11 34 0 19.0000002215338
2  78 23 35 0 19.0000002215338
0

0101000
+64 36 -69 36 *
Wi

0101100
+63 0 -113 22 +62 33 -68 0 *
Fa
0  1e-07 11 0

0111000
+61 0 *
Ve
1e-07
-12.4999999999993 -32.0000020576792 14
0 0

0101101
*
Ed
 1e-07 1 1 0
1  40 0 0 15
2  79 12 0 0 15
2  80 13 0 0 15
4 G1 12 0 13 0
0

0101000
+112 31 -59 31 *
Ed
 1e-07 1 1 0
1  41 0 3.14159333948287 4.71238894346238
2  81 12 34 3.14159333948287 4.71238894346238
2  82 23 35 3.14159333948287 4.71238894346238
0

0101000
+59 36 -64 36 *
Wi

0101100
+58 0 -111 22 +57 33 -63 0 *
Fa
0  1e-07 12 0

0111000
+56 0 *
Ve
1e-07
-12.5000112436382 -23.0000020576935 14
0 0

0101101
*
Ed
 1e-07 1 1 0
1  42 0 0 8.9999999999928
2  83 13 34 0 8.9999999999928
2  84 23 35 0 8.9999999999928
0

0101000
+59 36 -54 36 *
Ed
 1e-07 1 1 0
1  43 0 0 15
2  85 13 0 0 15
2  86 14 0 0 15
4 G1 13 0 14 0
0

0101000
+110 31 -54 31 *
Wi

0101100
+58 0 -109 22 +53 33 -52 0 *
Fa
0  1e-07 13 0

0111000
+51 0 *
Ed
 1e-07 1 1 0
1  44 0 1.57079631533369 3.14159393544069
2  87 14 34 1.57079631533369 3.14159393544069
2  88 23 35 1.57079631533369 3.14159393544069
0

0101000
+86 36 -54 36 *
Wi

0101100
+85 0 -108 22 +49 33 -52 0 *
Fa
0  1e-07 14 0

0111000
+48 0 *
Ve
1e-07
-10.9999899810376 36.4999999999804 2.5
0 0

0101101
*
Ed
 1e-07 1 1 0
1  45 0 0 26.5
2  89 15 0 0 26.5
2  90 16 0 0 26.5
4 G1 15 0 16 0
0

0101000
+106 38 -46 38 *
Ve
1.00007037925798e-07
10.9999899810376 36.499999999993 2.5
0 0

0101101
*
Ed
 1e-07 1 1 0
1  46 0 0 21.9999799620751
2  91 15 42 0 21.9999799620751
2  92 24 43 0 21.9999799620751
0

0101000
+46 44 -44 44 *
Ed
 1.00007037925798e-07 1 1 0
1  47 0 0 26.5
2  93 15 0 0 26.5
2  94 17 0 0 26.5
4 G1 15 0 17 0
0

0101000
+105 38 -44 38 *
Wi

0101100
+45 0 -104 39 +43 41 -42 0 *
Fa
0  1e-07 15 0

0111000
+41 0 *
Ve
1e-07
-14.0000008291007 33.4999892341919 2.5
0 0

0101101
*
Ed
 1e-07 1 1 0
1  48 0 1.57079271076741 3.14159624219248
2  95 16 42 1.57079271076741 3.14159624219248
2  96 24 43 1.57079271076741 3.14159624219248
0

0101000
+46 44 -39 44 *
Ed
 1e-07 1 1 0
1  49 0 0 26.5
2  97 16 0 0 26.5
2  98 18 0 0 26.5
4 G1 16 0 18 0
0

0101000
+103 38 -39 38 *
Wi

0101100
+45 0 -102 39 +38 41 -37 0 *
Fa
0  1e-07 16 0

0111000
+36 0 *
Ve
1e-07
13.9999991708618 33.4999895648494 2.5
0 0

0101101
*
Ed
 1e-07 1 1 0
1  50 0 0 26.5
2  99 17 0 0 26.5
2  100 19 0 0 26.5
4 G1 17 0 19 0
0

0101000
+101 38 -34 38 *
Ed
 1e-07 1 1 0
1  51 0 6.28318182879605 7.85398469725529
2  101 17 42 6.28318182879605 7.85398469725529
2  102 24 43 6.28318182879605 7.85398469725529
0

0101000
+34 44 -44 44 *
Wi

0101100
+33 0 -100 39 +32 41 -42 0 *
Fa
0  1e-07 17 0

0111000
+31 0 *
Ve
1e-07
-14.0000002985559 -6.99999011386042 2.5
0 0

0101101
*
Ed
 1e-07 1 1 0
1  52 0 0 26.5
2  103 18 0 0 26.5
2  104 20 0 0 26.5
4 G1 18 0 20 0
0

0101000
+99 38 -29 38 *
Ed
 1e-07 1 1 0
1  53 0 0 40.4999793480524
2  105 18 42 0 40.4999793480524
2  106 24 43 0 40.4999793480524
0

0101000
+29 44 -39 44 *
Wi

0101100
+28 0 -98 39 +27 41 -37 0 *
Fa
0  1e-07 18 0

0111000
+26 0 *
Ve
1.00000001776357e-07
13.9999997014104 -6.99998978320299 2.5
0 0

0101101
*
Ed
 1e-07 1 1 0
1  54 0 0 40.4999793480524
2  107 19 42 0 40.4999793480524
2  108 24 43 0 40.4999793480524
0

0101000
+34 44 -24 44 *
Ed
 1.00000001776357e-07 1 1 0
1  55 0 0 26.5
2  109 19 0 0 26.5
2  110 21 0 0 26.5
4 G1 19 0 21 0
0

0101000
+97 38 -24 38 *
Wi

0101100
+33 0 -96 39 +23 41 -22 0 *
Fa
0  1e-07 19 0

0111000
+21 0 *
Ve
1e-07
-10.9999899810376 -9.99999999998226 2.5
0 0

0101101
*
Ed
 1e-07 1 1 0
1  56 0 3.14158935820993 4.71239241956291
2  111 20 42 3.14158935820993 4.71239241956291
2  112 24 43 3.14158935820993 4.71239241956291
0

0101000
+29 44 -19 44 *
Ed
 1e-07 1 1 0
1  57 0 0 26.5
2  113 20 0 0 26.5
2  114 22 0 0 26.5
4 G1 20 0 22 0
0

0101000
+95 38 -19 38 *
Wi

0101100
+28 0 -94 39 +18 41 -17 0 *
Fa
0  1e-07 20 0

0111000
+16 0 *
Ve
1e-07
10.9999899810376 -9.99999999998425 2.5
0 0

0101101
*
Ed
 1e-07 1 1 0
1  58 0 0 26.5
2  115 21 0 0 26.5
2  116 22 0 0 26.5
4 G1 21 0 22 0
0

0101000
+93 38 -14 38 *
Ed
 1e-07 1 1 0
1  59 0 4.71238574025461 6.28318871277859
2  117 21 42 4.71238574025461 6.28318871277859
2  118 24 43 4.71238574025461 6.28318871277859
0

0101000
+14 44 -24 44 *
Wi

0101100
+13 0 -92 39 +12 41 -22 0 *
Fa
0  1e-07 21 0

0111000
+11 0 *
Ed
 1e-07 1 1 0
1  60 0 0 21.9999799620751
2  119 22 42 0 21.9999799620751
2  120 24 43 0 21.9999799620751
0

0101000
+14 44 -19 44 *
Wi

0101100
+13 0 -91 39 +9 41 -17 0 *
Fa
0  1e-07 22 0

0111000
+8 0 *
Wi

0101100
+53 0 -49 0 +83 0 -77 0 -72 0 -67 0 -62 0 -57 0 *
Fa
0  1e-07 23 0

0111000
+6 21 *
Wi

0101100
+27 0 -38 0 +43 0 -32 0 +23 0 -12 0 +9 0 -18 0 *
Fa
0  1e-07 24 0

0111000
+4 26 *
Sh

0101100
+143 6 +136 6 +129 6 +126 18 -89 0 +87 6 +80 0 -75 0 -70 0 -65 0 
-60 0 -55 0 +50 0 -47 0 +40 37 -35 37 -30 37 +25 37 +20 37 -15 37 
-10 37 +7 37 -5 45 -3 46 *
So

1100000
+2 0 *

+1 1 