DBRep_DrawableShape

CASCADE Topology V1, (c) Matra-Datavision
Locations 21
1
              1               0               0               0 
              0               1               0               0 
              0               0               1               0 
1
              1               0               0               0 
              0               1               0               0 
              0               0               1               0 
1
              1               0               0               0 
              0               1               0               0 
              0               0               1               0 
1
              1               0               0               0 
              0               1               0               0 
              0               0               1               0 
1
              1               0               0               0 
              0               1               0               0 
              0               0               1               0 
1
              1               0               0               0 
              0               1               0               0 
              0               0               1               0 
1
              1               0               0               0 
              0               1               0               0 
              0               0               1               0 
1
              1               0               0               0 
              0               1               0               0 
              0               0               1               0 
1
              1               0               0               0 
              0               1               0               0 
              0               0               1               0 
1
              1               0               0               0 
              0               1               0               0 
              0               0               1               0 
1
              1               0               0               0 
              0               1               0               0 
              0               0               1               0 
1
              1               0               0               0 
              0               1               0               0 
              0               0               1               0 
1
              1               0               0               0 
              0               1               0               0 
              0               0               1               0 
1
              1               0               0               0 
              0               1               0               0 
              0               0               1               0 
2  1 1 2 -1 3 1 4 1 5 1 6 1 7 1 8 1 9 1 10 -1 11 1 12 -1 13 1 14 -1 0
1
              1              -0               0              -0 
              0 2.22044604925031e-16              -1             -32 
              0               1 2.22044604925031e-16              -0 
2  16 1 14 -1 0
2  14 1 16 -1 0
1
              1               0               0               0 
              0               1               0               8 
              0               0               1 -1.77635683940025e-15 
2  12 -1 19 1 13 1 16 -1 0
2  12 -1 19 1 13 1 14 -1 0
Curve2ds 6
7 0 0  8 107 16  1.1863995522992576 -5  1.1863995556169116 -4.75395619493219  1.1895086990948163 -4.5298486711825818  1.1947601279529241 -4.326461967442591  1.2014915442603733 -4.1423824751350278  1.2092082230040191 -3.9758381021949516  1.2175736682122815 -3.8244851003024043  1.2264602233019284 -3.6852449159079432  1.2447782111980252 -3.4335844579770005  1.2541228652672789 -3.3197870572620292  1.2639514888636378 -3.2123411436506868  1.2742295775866954 -3.1105995231359476  1.2849582056264064 -3.0138978372449783  1.2961726802543905 -2.9216149169340766  1.3079441909752936 -2.8332240404336662  1.3288521440610921 -2.6905538912079749  1.3375789744405733 -2.634740725810707  1.3466046458482031 -2.5806712936519953  1.3559685137035618 -2.5282297411650019  1.3657088433651761 -2.4774010389837429  1.3758620660214331 -2.4282633545112362  1.3864620345814969 -2.3809804244876505  1.4133719131681863 -2.2712091638719567  1.4303386944268428 -2.2102589817208926  1.4487113447533169 -2.1532112020221117  1.4687116672419158 -2.1013281663379781  1.4905161099877584 -2.0567402498920946  1.5142641899919427 -2.0223144896678034  1.5400667415965466 -2.0017438709428967  1.5989742338036588 -1.9982421759852818  1.6273993187826306 -2.0199270184527576  1.6533894681346388 -2.058395605277612  1.6770820538870244 -2.1088911964764407  1.6986525962037475 -2.1677691786983839  1.7183273041386695 -2.2323702046652487  1.7363956830226579 -2.301252345420751  1.764337593801363 -2.4227590115799806  1.7749819277313852 -2.4732837468424349  1.7851796557967794 -2.525741901751037  1.7949648018356175 -2.5799939783397594  1.8043734109830853 -2.6359867005917685  1.8134425222335504 -2.6937568193995527  1.822209232379258 -2.7534405642412767  1.8432218821247002 -2.9063228538565493  1.855008773490828 -3.0009611375024963  1.8662242217776184 -3.0999314998941299  1.8769529010796819 -3.204059666491311  1.8872237421803113 -3.3142223068590613  1.8970171118049859 -3.4312885036483975  1.9062658921807338 -3.5560495645297618  1.9242057644952706 -3.8341735860716604  1.9351529195214896 -4.0259783637030129  1.945221412769397 -4.2493059375396971  1.9528665527164741 -4.495644079426091  1.9573164904658946 -4.7570221015843837  1.9580467915977273 -5.0274330885583076  1.9548515413396435 -5.3007614525108355  1.9421710508314616 -5.787358036286907  1.9345458462518461 -5.9831981589664913  1.9256129893123117 -6.1599169483215865  1.9158504033017234 -6.3193662988172665  1.9055524124594676 -6.4640375292742442  1.8948059713251513 -6.5972727620507721  1.8834247121527854 -6.7232262542234213  1.8621653053903593 -6.931289718494468  1.8531571357829351 -7.0125353242172679  1.8438036462551735 -7.0905361676005008  1.8340845959469554 -7.1655918411270321  1.8239705512688651 -7.2379180292881191  1.8134252957138977 -7.3076384452721479  1.8024085055069881 -7.3747730764601389  1.7784733160835549 -7.5085666328159286  1.7656384388914192 -7.5738857152605688  1.7521575174221662 -7.6362664932115916  1.7378363655452287 -7.6960219996830856  1.7225051635799802 -7.7528548869201899  1.7060193988239145 -7.8059580365583905  1.68825973612226 -7.8540526865754341  1.6449466856209394 -7.9475928590013512  1.6164651029973107 -7.993537553310909  1.5857022038156348 -8.0200748106856103  1.5540616542127232 -8.0213354841096365  1.5228483829737607 -7.9968808757950223  1.4935052570633092 -7.9496932508238967  1.4674538587892494 -7.8892088670188656  1.4323456123148213 -7.7922077639554637  1.4183272377971887 -7.7472512987483508  1.4051119580359657 -7.6992471576934483  1.3926296384380723 -7.648769036438039  1.3807993725395675 -7.5961713617337319  1.3695299580493256 -7.5415715645593826  1.3587206133973257 -7.4848126256670646  1.3362745650735783 -7.3573159858348411  1.3248426767814165 -7.2862851153061188  1.3139186539516481 -7.2124078082950582  1.3034569660572402 -7.135637452382471  1.2934178587902163 -7.0558069363174649  1.283770713924689 -6.9726452476580434  1.2744970782562526 -6.8857900281347497  1.2502277046582819 -6.6377625977273471  1.236894442349227 -6.4779179689495772  1.2242838268726646 -6.3047257296944128  1.2122254234356438 -6.1089407310296266  1.2011419998619881 -5.8843377484618991  1.1920882165672333 -5.6267109126222996  1.1863995567865431 -5.3327859907711916  1.1863995522992576 -5 
 0 9 0.080880309057079394 7 0.15543506417702299 7 0.20618211354456908 7 0.27871453836000598 7 0.35908877584561205 7 0.41223404621551774 7 0.49045838068857173 7 0.57570580793208082 7 0.64402574077936059 7 0.69109199245711062 7 0.7417324001274157 7 0.80575559108510575 7 0.85285464943994116 7 0.90683793420714587 7 1 9
7 0 0  8 107 16  6.2831853071795862 -2.083801512904337  6.2011707054903171 -2.083801502951375  6.12646711375168 -2.0744725500632097  6.0578362636602696 -2.0587255101851958  5.9945708999624774 -2.0389159345115746  5.9360607260329008 -2.0167767604342681  5.8815867358895062 -1.9934021215931057  5.8301775264459827 -1.9692589632190325  5.7344409187816581 -1.9211069204971032  5.6898242984309002 -1.8972097075556495  5.6462842583899091 -1.8728571772593952  5.6035546394132982 -1.8482752738634574  5.5613395517806614 -1.8235956383094483  5.5193124011403967 -1.7988849730543264  5.4771045757866395 -1.7741783521747858  5.405137052759696 -1.7327299229209685  5.3758805935346956 -1.7160648919196464  5.3463480483706567 -1.6995121330050551  5.3163949657039842 -1.6830836981163966  5.2858952961427415 -1.6668160155582308  5.2547378768782993 -1.6507729636884756  5.222822916096999 -1.6350489446064076  5.1432284800496397 -1.5979366608568433  5.0941932759011275 -1.5767947617314841  5.0421856052425298 -1.5565459495875023  4.9866491979021079 -1.5377359101520152  4.9271254211728124 -1.5212603078549138  4.8631858155496186 -1.5083680408158626  4.7943363674651858 -1.5006539364580322  4.637245994867949 -1.4993408320009163  4.5614928195517406 -1.5074732597371254  4.4915361943186145 -1.521910802273762  4.4267557501345944 -1.5405718470170016  4.3666217482018235 -1.5618550744592987  4.3105571249904742 -1.5846496597330204  4.2578440743910182 -1.6083281306370398  4.1741200051912788 -1.6488795330866666  4.1416022673501054 -1.6654395796133699  4.1097971591492692 -1.6822933748541056  4.0785995127004941 -1.6993485136292685  4.0478932545645003 -1.7165426134374233  4.0175491764866376 -1.7338395950998089  3.9874208522531793 -1.7512252872316036  3.9130608887224327 -1.7944267877627154  3.8694096414352646 -1.8200429429198164  3.8257868677739371 -1.8455832941674355  3.7817178132103719 -1.8710494597582548  3.7368062724469726 -1.8963679764389263  3.6907080186876082 -1.9213529523277775  3.6431224494538381 -1.9456755982727478  3.5400544281644528 -1.994085467518788  3.4705756425498069 -2.0243758872374307  3.3924472859472408 -2.0535168030288662  3.3090227627674165 -2.0766675001024724  3.2220993766619093 -2.0902994515982103  3.1327906755954418 -2.092427176956579  3.0418471173896284 -2.082593160655517  2.876629296568249 -2.0452468058179427  2.8089378573660611 -2.0230582539318815  2.7462661565790349 -1.9976301738858913  2.68802194363519 -1.9706650121466802  2.6334731445007122 -1.9431739439168494  2.5815559546069689 -1.9154606240984158  2.5307082609423093 -1.8871675563220562  2.4427125561611045 -1.836900263954367  2.4072018064207987 -1.8162574695513787  2.371885917417218 -1.7955466696192961  2.3365859180229993 -1.77482053455542  2.3011290517799212 -1.7541279429263503  2.2653479342667882 -1.7335275630385174  2.2290816926640669 -1.7131008168856472  2.1524741417799147 -1.6712984869840763  2.1125577919310303 -1.6502553409201193  2.0716636224075264 -1.6296298260708859  2.0292060088092554 -1.6093945117039639  1.9847292793741798 -1.5897132546734922  1.9378631894644818 -1.5709498463616762  1.8882847090616175 -1.553671550453245  1.7691872648064195 -1.5196531024712328  1.6920588218527579 -1.502603835690679  1.6101301548102693 -1.4924207174370343  1.5264745498375045 -1.4918366482084786  1.443628727241707 -1.5013327039722628  1.3644505079024238 -1.5190784489263578  1.2925663625944932 -1.5410552012924166  1.1941926558072873 -1.5756735840479621  1.1543094272000027 -1.5915055424798974  1.1160646602180904 -1.6081419590519941  1.0792683277263566 -1.6253195560597484  1.0437040414149292 -1.6428653971450797  1.0091158229168475 -1.6606942293103995  0.9751918907330267 -1.6788040799958817  0.90298111040496842 -1.7184352226838326  0.86508594230147995 -1.7399010218685254  0.82768400845961254 -1.7615388789936273  0.79058872541485858 -1.7832605698480553  0.75360698660068404 -1.8050021132499434  0.71654092013222304 -1.8267069607948059  0.67918729420570434 -1.8483085368919649  0.5760099425457571 -1.9066495417177234  0.51315403199410681 -1.9407593623684851  0.44750245561860669 -1.9742318258241112  0.37597176209536409 -2.0076407504926728  0.29684420941067491 -2.0395799845795786  0.20890647252776784 -2.0667347849082018  0.11092866359039776 -2.0838014994424805  0 -2.083801512904337 
 0 9 0.080880309057079394 7 0.15543506417702299 7 0.20618211354456908 7 0.27871453836000598 7 0.35908877584561205 7 0.41223404621551774 7 0.49045838068857173 7 0.57570580793208082 7 0.64402574077936059 7 0.69109199245711062 7 0.7417324001274157 7 0.80575559108510575 7 0.85285464943994116 7 0.90683793420714587 7 1 9
1 0 0 0 -1 
1 6.2831853071795862 0 0 -1 
1 0 0 1 0 
2 -1.7763568394002505e-15 1.9534859036277474e-16 0 1 -1 0 3
Curves 3
7 0 0  8 107 16  3.0000000000000004 -29.916198487095667 -8.5  2.9999999753956197 -29.916198497048619 -8.7460438050678118  2.9769424566128171 -29.925527449936787 -8.9701513288173658  2.9379944638612767 -29.941274489814813 -9.173538032557488  2.8879157187925171 -29.961084065488421 -9.357617524864974  2.8302822708633029 -29.983223239565717 -9.5241618978049694  2.7675676218207577 -30.0065978784069 -9.6755148996976441  2.7006951106713415 -30.03074103678097 -9.8147550840920577  2.5622881154086583 -30.07889307950289 -10.066415542022996  2.4914499013916265 -30.102790292444343 -10.180212942737951  2.4166791497458506 -30.127142822740606 -10.287658856349319  2.3382036142311686 -30.151724726136543 -10.389400476864076  2.2559859616876605 -30.176404361690562 -10.486102162755024  2.1697263720855253 -30.201115026945683 -10.578385083065903  2.0788421090033249 -30.225821647825217 -10.666775959566335  1.9167953631068975 -30.267270077079036 -10.809446108792031  1.8489956363279973 -30.28393510808036 -10.86525927418929  1.7787073306261716 -30.300487866994942 -10.919328706347999  1.7056117743027632 -30.316916301883609 -10.971770258835001  1.6293961021543766 -30.333183984441781 -11.022598961016262  1.5497601840950477 -30.349227036311529 -11.07173664548877  1.4664235537784138 -30.364951055393586 -11.11901957551235  1.2543675739284805 -30.402063339143155 -11.228790836128043  1.1202703980605024 -30.423205238268523 -11.289741018279017  0.97464801010556812 -30.443454050412502 -11.346788797978  0.81568262792991231 -30.462264089847991 -11.398671833662045  0.64191889048283968 -30.478739692145083 -11.443259750107803  0.45223553241469217 -30.49163195918414 -11.477685510332249  0.24583578495268504 -30.499346063541971 -11.498256129057102  -0.22542232330336315 -30.500659167999082 -11.501757824014717  -0.4528465972113086 -30.492526740262875 -11.480072981547211  -0.66044669783762844 -30.478089197726234 -11.441604394722441  -0.84920407308405554 -30.459428152982998 -11.391108803523556  -1.0205397214509553 -30.438144925540705 -11.332230821301563  -1.1763293389208225 -30.415350340266979 -11.267629795334788  -1.3189471891505118 -30.391671869362963 -11.19874765457925  -1.5387735022914439 -30.35112046691334 -11.077240988420021  -1.6223100915033424 -30.334560420386634 -11.026716253157545  -1.7021423145379191 -30.317706625145895 -10.974258098248963  -1.7785530917430525 -30.300651486370736 -10.92000602166026  -1.851840250559786 -30.283457386562581 -10.864013299408235  -1.9223072119207232 -30.266160404900191 -10.806243180600429  -1.9902550399884071 -30.248774712768395 -10.746559435758723  -2.1527100894902236 -30.205573212237283 -10.593677146143452  -2.2434702285894943 -30.179957057080181 -10.499038862497557  -2.3294959723644371 -30.15441670583256 -10.400068500105862  -2.4114737572628551 -30.128950540241735 -10.295940333508634  -2.4896537987295253 -30.103632023561065 -10.185777693140928  -2.5639180967097479 -30.078647047672224 -10.068711496351652  -2.6337994042743293 -30.054324401727257 -9.9439504354702404  -2.768907441614608 -30.005914532481214 -9.6658264139283396  -2.8510830209499876 -29.975624112762436 -9.4740216362969782  -2.926196167463059 -29.946483196971535 -9.2506940624602869  -2.9828136108087047 -29.923332499896983 -9.0043559205739712  -3.0156917600688566 -29.909700548402167 -8.7429778984155604  -3.0211395452895915 -29.907572823043314 -8.4725669114417137  -2.9975401464853979 -29.917406839344483 -8.1992385474891663  -2.903220903962235 -29.95475319418205 -7.712641963713093  -2.8463969670926921 -29.976941746068121 -7.5168018410336872  -2.7796069930977443 -30.002369826114109 -7.3400830516781408  -2.7062974420727763 -30.029334987853318 -7.1806337011827237  -2.6286226578222269 -30.05682605608315 -7.0359624707260275  -2.5472299604289539 -30.084539375901585 -6.9027272379490716  -2.4606752977319402 -30.112832443677949 -6.7767737457765787  -2.2981982489681241 -30.163099736045627 -6.568710281505532  -2.2291492609371422 -30.183742530448619 -6.487464675782701  -2.1572378678650574 -30.204453330380705 -6.4094638323995063  -2.0822893449893529 -30.225179465444576 -6.334408158873007  -2.0040564457607921 -30.245872057073644 -6.2620819707118898  -1.9222368075845893 -30.266472436961479 -6.1923615547278201  -1.836493685184069 -30.28689918311435 -6.1252269235398611  -1.649630805109183 -30.328701513015925 -5.9914333671840714  -1.5491214188609159 -30.349744659079871 -5.9261142847393842  -1.4432461772654031 -30.370370173929114 -5.8637335067884209  -1.3304505832022879 -30.390605488296043 -5.8039780003169694  -1.2093528476829751 -30.410286745326506 -5.747145113079819  -1.0787631724628706 -30.429050153638311 -5.6940419634415642  -0.93770078559035763 -30.446328449546751 -5.6459473134245695  -0.59287032406526396 -30.480346897528765 -5.5524071409986488  -0.36559368726828856 -30.497396164309304 -5.5064624466895644  -0.11947278486151314 -30.507579282562983 -5.4799251893129348  0.13404154605569207 -30.508163351791531 -5.478664515892353  0.38393300350719128 -30.498667296027705 -5.5031191242035913  0.61817693918382766 -30.48092155107366 -5.5503067491765234  0.82545974580205472 -30.458944798707581 -5.6107911329811344  1.1041840929409086 -30.424326415952034 -5.7077922360445363  1.2152263989607155 -30.40849445752011 -5.7527487012516447  1.319654234018333 -30.391858040948009 -5.8007528423065491  1.4180448328758566 -30.374680443940232 -5.8512309635619628  1.5110624543170705 -30.357134602854916 -5.9038286382662708  1.5994484817386951 -30.339305770689609 -5.9584284354406201  1.6840115659459516 -30.321195920004119 -6.0151873743329363  1.8591520181315484 -30.281564777316163 -6.1426840141651624  1.9480619758219546 -30.26009897813147 -6.213714884693875  2.0327458588311709 -30.238461121006367 -6.2875921917049471  2.1135838683885741 -30.216739430151939 -6.3643625476175378  2.1909083241666831 -30.194997886750052 -6.4441930636825342  2.2649779300475275 -30.173293039205195 -6.527354752341946  2.3359562128341098 -30.151691463108044 -6.6142099718652512  2.5211385198333072 -30.093350458282281 -6.8622374022726538  2.6222266441547117 -30.059240637631504 -7.022082031050803  2.7174089511794617 -30.025768174175909 -7.1952742703044086  2.8079331834956505 -29.992359249507309 -7.3910592689719428  2.8906656290591299 -29.960420015420439 -7.6156622515370564  2.9578119253069128 -29.93326521509179 -7.8732890873779997  2.999999966721401 -29.91619850055752 -8.1672140092288092  3.0000000000000004 -29.916198487095663 -8.5 
 0 9 0.080880309057079394 7 0.15543506417702299 7 0.20618211354456908 7 0.27871453836000598 7 0.35908877584561205 7 0.41223404621551774 7 0.49045838068857173 7 0.57570580793208082 7 0.64402574077936059 7 0.69109199245711062 7 0.7417324001274157 7 0.80575559108510575 7 0.85285464943994116 7 0.90683793420714587 7 1 9
1 3 -32 -8.5 0 1 -2.2204460492503131e-16 
2 0 -8.5 0 0 0 1 1 0 -0 -0 1 0 3
Polygon3D 0
PolygonOnTriangulations 0
Surfaces 3
2 0 -22.5 -13.5 0 0 -1 1 0 0 0 -1 0 8
2 0 -32 -8.5 0 -1 2.2204460492503131e-16 1 0 0 -0 2.2204460492503131e-16 1 3
1 -1.9534859036277474e-16 -40 -8.5 -0 -1 -0 0 0 -1 1 -0 0 
Triangulations 0

TShapes 14
Ve
5.26715144111456e-07
3 -29.9161984870957 -8.5
0 0

0101101
*
Ed
 5.26715144111456e-07 1 1 0
1  1 0 0 1
2  1 1 15 0 1
2  2 2 0 0 1
0

0101000
+14 0 -14 0 *
Wi

0101100
-13 0 *
Fa
0  1e-07 1 15

0111000
+12 0 *
Ve
1e-07
3 -32 -8.5
0 0

0101101
*
Ed
 1e-07 1 1 0
1  2 0 0 2.08380151290434
3  3 4CN 2 0 0 2.08380151290434
0

0101000
+10 0 -14 0 *
Ed
 1e-07 1 1 0
1  3 0 0 6.28318530717959
2  5 2 18 0 6.28318530717959
2  6 3 20 0 6.28318530717959
0

0101000
+10 18 -10 18 *
Wi

0101100
-9 0 -13 0 +9 0 -8 17 *
Fa
0  1e-07 2 0

0111000
+7 0 *
Wi

0101100
+8 17 *
Fa
0  1e-07 3 21

0111000
+5 0 *
Sh

0101100
-11 0 +6 0 +4 0 *
So

0100000
+3 0 *
Co

1100000
+2 0 *

+1 0 