DBRep_DrawableShape

CASCADE Topology V1, (c) Matra-Datavision
Locations 127
1
              1               0               0               0 
              0               1               0               0 
              0               0               1               0 
1
              1               0               0               0 
              0               1               0               0 
              0               0               1               0 
1
              1               0               0               0 
              0               1               0               0 
              0               0               1               0 
1
              1               0               0               0 
              0               1               0               0 
              0               0               1               0 
1
              1               0               0               0 
              0               1               0               0 
              0               0               1               0 
1
              1               0               0               0 
              0               1               0               0 
              0               0               1               0 
1
              1               0               0               0 
              0               1               0               0 
              0               0               1               0 
1
              1               0               0               0 
              0               1               0               0 
              0               0               1               0 
1
              1               0               0               0 
              0               1               0               0 
              0               0               1               0 
1
              1               0               0               0 
              0               1               0               0 
              0               0               1               0 
1
              1               0               0               0 
              0               1               0               0 
              0               0               1               0 
1
              1               0               0               0 
              0               1               0               0 
              0               0               1               0 
1
              1               0               0               0 
              0               1               0               0 
              0               0               1               0 
2  2 1 3 -1 4 1 5 -1 6 1 7 -1 8 1 9 -1 10 1 11 -1 12 1 13 -1 0
1
              1               0               0               0 
              0               1               0               0 
              0               0               1               0 
1
              1               0               0               0 
              0               1               0               0 
              0               0               1               0 
2  15 1 16 -1 2 1 3 -1 4 1 5 -1 6 1 7 -1 8 1 9 -1 10 1 11 -1 12 1 13 -1 0
2  16 1 15 -1 0
2  15 -1 0
2  1 -1 13 1 12 -1 11 1 10 -1 9 1 8 -1 7 1 6 -1 5 1 4 -1 3 1 2 -1 16 1 15 -1 0
2  1 -1 13 1 12 -1 11 1 10 -1 9 1 8 -1 7 1 6 -1 5 1 4 -1 3 1 2 -1 0
1
              1               0               0               0 
              0               1               0               0 
              0               0               1              29 
2  15 1 16 -1 22 1 2 1 3 -1 4 1 5 -1 6 1 7 -1 8 1 9 -1 10 1 11 -1 12 1 13 -1 0
2  22 -1 16 1 15 -1 0
2  1 -1 13 1 12 -1 11 1 10 -1 9 1 8 -1 7 1 6 -1 5 1 4 -1 3 1 2 -1 22 -1 16 1 15 -1 0
2  1 -1 0
1
              1               0               0              -0 
              0               1               0               0 
              0               0               1              29 
1
              1               0               0              -0 
              0               1               0              -0 
              0               0               1              -4 
2  27 1 13 -1 28 1 0
2  2 1 3 -1 4 1 5 -1 6 1 7 -1 8 1 9 -1 10 1 11 -1 12 1 13 -1 28 -1 13 1 27 -1 0
2  27 -1 0
2  1 -1 28 -1 13 1 27 -1 0
2  16 -1 2 1 3 -1 4 1 5 -1 6 1 7 -1 8 1 9 -1 10 1 11 -1 12 1 13 -1 0
2  15 1 16 -1 0
2  15 1 16 -1 22 1 0
2  16 -1 22 1 2 1 3 -1 4 1 5 -1 6 1 7 -1 8 1 9 -1 10 1 11 -1 12 1 13 -1 0
2  27 1 13 -1 0
2  16 -1 22 1 2 1 3 -1 4 1 5 -1 6 1 7 -1 8 1 9 -1 10 1 11 -1 12 1 27 -1 0
2  13 1 27 -1 0
2  1 -1 13 1 27 -1 0
1
              1               0               0              -0 
              0               1               0               0 
              0               0               1              29 
2  41 1 3 -1 4 1 5 -1 6 1 7 -1 8 1 9 -1 10 1 11 -1 12 1 13 -1 0
2  16 -1 22 1 2 1 41 -1 0
2  3 1 41 -1 0
2  1 -1 13 1 12 -1 11 1 10 -1 9 1 8 -1 7 1 6 -1 5 1 4 -1 3 1 41 -1 0
1
              1               0               0              -0 
              0               1               0               0 
              0               0               1              29 
2  46 1 11 -1 12 1 13 -1 0
2  16 -1 22 1 2 1 3 -1 4 1 5 -1 6 1 7 -1 8 1 9 -1 10 1 46 -1 0
2  11 1 46 -1 0
2  1 -1 13 1 12 -1 11 1 46 -1 0
1
              1               0               0              -0 
              0               1               0               0 
              0               0               1              29 
2  51 1 9 -1 10 1 11 -1 12 1 13 -1 0
2  16 -1 22 1 2 1 3 -1 4 1 5 -1 6 1 7 -1 8 1 51 -1 0
2  9 1 51 -1 0
2  1 -1 13 1 12 -1 11 1 10 -1 9 1 51 -1 0
1
              1               0               0              -0 
              0               1               0               0 
              0               0               1              29 
2  56 1 5 -1 6 1 7 -1 8 1 9 -1 10 1 11 -1 12 1 13 -1 0
2  16 -1 22 1 2 1 3 -1 4 1 56 -1 0
2  5 1 56 -1 0
2  1 -1 13 1 12 -1 11 1 10 -1 9 1 8 -1 7 1 6 -1 5 1 56 -1 0
1
              1               0               0              -0 
              0               1               0               0 
              0               0               1              29 
2  61 1 7 -1 8 1 9 -1 10 1 11 -1 12 1 13 -1 0
2  16 -1 22 1 2 1 3 -1 4 1 5 -1 6 1 61 -1 0
2  7 1 61 -1 0
2  1 -1 13 1 12 -1 11 1 10 -1 9 1 8 -1 7 1 61 -1 0
2  28 -1 13 1 27 -1 0
2  4 1 5 -1 6 1 7 -1 8 1 9 -1 10 1 11 -1 12 1 13 -1 0
2  13 -1 28 1 0
2  4 1 5 -1 6 1 7 -1 8 1 9 -1 10 1 11 -1 12 1 13 -1 28 -1 13 1 27 -1 0
2  1 -1 13 1 12 -1 11 1 10 -1 9 1 8 -1 7 1 6 -1 5 1 4 -1 0
1
              1               0               0              -0 
              0               1               0              -0 
              0               0               1           -26.5 
2  41 1 3 -1 71 1 4 1 5 -1 6 1 7 -1 8 1 9 -1 10 1 11 -1 12 1 13 -1 0
2  71 -1 3 1 41 -1 0
2  41 -1 0
2  1 -1 13 1 12 -1 11 1 10 -1 9 1 8 -1 7 1 6 -1 5 1 4 -1 71 -1 3 1 41 -1 0
2  41 1 3 -1 0
2  41 1 3 -1 71 1 0
2  12 1 13 -1 0
2  4 1 5 -1 6 1 7 -1 8 1 9 -1 10 1 11 -1 0
2  41 1 3 -1 4 1 5 -1 6 1 7 -1 8 1 9 -1 10 1 11 -1 0
2  1 -1 13 1 12 -1 0
1
              1               0               0              -0 
              0               1               0              -0 
              0               0               1             -10 
2  11 -1 82 1 0
2  41 1 3 -1 71 1 4 1 5 -1 6 1 7 -1 8 1 9 -1 10 1 11 -1 0
2  46 1 11 -1 0
2  10 1 11 -1 0
2  46 1 11 -1 82 1 0
2  82 -1 11 1 46 -1 0
2  46 -1 0
2  1 -1 13 1 12 -1 82 -1 11 1 46 -1 0
2  51 1 9 -1 10 1 11 -1 0
2  1 -1 13 1 12 -1 11 1 10 -1 0
1
              1               0               0              -0 
              0               1               0              -0 
              0               0               1             -10 
2  51 1 9 -1 93 1 10 1 11 -1 0
2  93 -1 9 1 51 -1 0
2  51 -1 0
2  1 -1 13 1 12 -1 11 1 10 -1 93 -1 9 1 51 -1 0
2  10 1 11 -1 12 1 13 -1 0
2  51 1 9 -1 0
2  51 1 9 -1 93 1 0
2  6 1 7 -1 8 1 9 -1 10 1 11 -1 0
2  56 1 5 -1 6 1 7 -1 8 1 9 -1 10 1 11 -1 0
2  6 1 7 -1 8 1 9 -1 0
2  9 -1 93 1 0
2  1 -1 13 1 12 -1 11 1 10 -1 9 1 8 -1 7 1 6 -1 0
1
              1               0               0              -0 
              0               1               0              -0 
              0               0               1             -15 
2  56 1 5 -1 106 1 6 1 7 -1 8 1 9 -1 10 1 11 -1 0
2  106 -1 5 1 56 -1 0
2  56 -1 0
2  1 -1 13 1 12 -1 11 1 10 -1 9 1 8 -1 7 1 6 -1 106 -1 5 1 56 -1 0
2  6 1 7 -1 8 1 9 -1 10 1 11 -1 12 1 13 -1 0
2  56 1 5 -1 0
2  56 1 5 -1 106 1 0
2  8 1 9 -1 10 1 11 -1 12 1 13 -1 0
2  61 1 7 -1 0
2  1 -1 13 1 12 -1 11 1 10 -1 9 1 8 -1 0
1
              1               0               0              -0 
              0               1               0              -0 
              0               0               1              -3 
2  61 1 7 -1 117 1 0
2  117 -1 7 1 61 -1 0
2  61 -1 0
2  1 -1 13 1 12 -1 11 1 10 -1 9 1 8 -1 117 -1 7 1 61 -1 0
2  3 -1 71 1 4 1 5 -1 6 1 7 -1 8 1 9 -1 10 1 11 -1 12 1 13 -1 0
2  11 -1 82 1 11 1 10 -1 93 -1 9 1 51 -1 0
2  9 -1 93 1 10 1 11 -1 0
2  9 -1 93 1 10 1 11 -1 82 -1 11 1 46 -1 0
2  5 -1 106 1 6 1 7 -1 8 1 9 -1 10 1 11 -1 12 1 13 -1 0
2  7 -1 117 1 8 1 9 -1 10 1 11 -1 12 1 13 -1 0
Curve2ds 266
1 0 0 1 0 
1 17.5 40 -1 0 
1 35 0 0 -1 
1 0 0 0 -1 
1 0 -29 1 0 
1 17.5 40 -1 0 
1 22 -29 0 1 
1 0 0 0 -1 
1 13 -25 1 0 
1 1.7500000000050022 4.4999999999985603 0 -1 
1 13 -29 0 1 
1 0 0 0 -1 
1 0 -29 1 0 
1 17.5 40 -1 0 
1 0 0 0 -1 
1 80 0 0 -1 
1 -17.5 40 0 -1 
1 0 0 1 0 
1 -17.5 -40 1 0 
1 0 -0 1 0 
1 17.5 -40 0 1 
1 0 0 1 0 
1 80 0 0 -1 
1 0 -0 0 -1 
1 0 -29 1 0 
1 -17.5 40 0 -1 
1 17.5 -40 0 1 
1 0 -29 1 0 
1 -17.5 -40 1 0 
1 0 -29 1 0 
1 -4.5 40 0 -1 
1 0 0 1 0 
1 10.99998998103756 36.499999999980389 -1 8.9140897131658043e-13 
1 0 0 1 0 
2 -10.999999170879981 33.5 -1 0 0 1 3
1 0 0 1 0 
1 -13.999999170861832 33.499989564849379 -1.3099971074452453e-08 -0.99999999999999989 
1 0 0 1 0 
2 -10.999999701427788 -6.9999999999999982 -1 0 0 1 3
1 0 0 1 0 
1 -10.999989981037562 -9.9999999999842508 1 9.0675024890264467e-14 
1 0 0 1 0 
1 -9.5 -8.2494589551330009 0 -1 
1 0 0 1 0 
1 12 -10.999999999982 -1 0 
1 0 0 1 0 
1 -12 -10.999999999982 0 -1 
1 0 0 1 0 
1 -12 -15.499999999982 1 0 
1 0 0 1 0 
1 -9.5 -8.2494589551330009 0 -1 
1 0 0 1 0 
2 -5.0000003348445823 -22.999970420257615 -1 0 0 1 7.4999891341456095
1 0 0 1 0 
1 -12.50000071256504 -31.99997960815859 1.2492867197001738e-06 0.99999999999921962 
1 0 0 1 0 
2 -9.5000007126343444 -32 -1 0 0 1 3
1 0 0 1 0 
1 9.5000001107669032 -35 -1 2.9917588525280153e-15 
1 0 0 1 0 
2 9.499999999999984 -32 -1 0 0 1 3
1 0 0 1 0 
1 12.499999999999279 -32.000002057679232 1.2492932180120622e-06 0.99999999999921962 
1 0 0 1 0 
2 5.0000000859590044 -22.999992443797407 -1 0 0 1 7.5000111576853978
1 0 0 1 0 
1 9.5 -18.916258333333001 0 1 
1 0 0 1 0 
1 -12 -15.499999999982 1 0 
1 0 0 1 0 
1 12 -10.999999999982 0 -1 
1 0 0 1 0 
1 12 -10.999999999982 -1 0 
1 0 0 1 0 
1 9.5 -18.916258333333001 0 1 
1 0 0 1 0 
1 -10.999989981037562 -9.9999999999842508 1 9.0675024890264467e-14 
1 0 0 1 0 
2 11.000000298572212 -6.9999999999999973 -1 0 0 1 3
1 0 0 1 0 
1 14.000000298555923 -6.999990113860421 1.3099877782775314e-08 0.99999999999999989 
1 0 0 1 0 
2 11.000000829120019 33.5 -1 0 0 1 3
1 0 0 1 0 
1 10.99998998103756 36.499999999980389 -1 8.9140897131658043e-13 
1 0 0 1 0 
1 4.5 40 0 -1 
1 0 0 1 0 
2 -14.5 -18 -1 0 0 1 1.6999999999999993
1 0 0 1 0 
2 -14.5 37 -1 0 0 1 1.6999999999999993
1 0 0 1 0 
2 14.5 37 -1 0 0 1 1.6999999999999993
1 0 0 1 0 
2 14.5 -18 -1 0 0 1 1.6999999999999993
1 0 0 1 0 
2 14.5 -37 -1 0 0 1 1.6999999999999993
1 0 0 1 0 
2 -14.5 -37 -1 0 0 1 1.6999999999999993
1 0 0 1 0 
1 0 -4 1 0 
1 1.7500000000050022 -4.5000000000014397 -1 2.8773190640380683e-61 
1 3.500000000005997 0 0 -1 
1 15.49998998103756 0 0 -1 
1 1.7500000000050022 4.4999999999985603 -1 2.8773190640380683e-61 
1 0 -4 1 0 
1 -1.7500000000089955 4.4999999999985603 8.8896791162874759e-13 -1 
1 6.4999899810375599 -4 1 0 
1 3.5000000000139977 0 0 -1 
1 6.4999899810375599 0 0 -1 
1 0 0 0 -1 
1 35 0 0 -1 
1 21.99997996207512 0 0 -1 
1 7.8539846972552905 0 0 -1 
1 0 -26.5 1 0 
1 10.999989425108959 23.250000006243397 -1 8.9140897131658043e-13 
1 0 0 0 -1 
1 1.5707927107674102 0 0 -1 
1 6.283181828796045 0 0 -1 
1 0 0 0 -1 
1 0 -26.5 1 0 
2 -10.999999726808582 20.250000006263008 -1 -2.1592157265412046e-65 -2.1592157265412046e-65 1 3
1 0 -26.5 1 0 
1 -13.999999726790433 20.249989571112387 -1.3099971074452453e-08 -0.99999999999999989 
1 40.499979348052364 0 0 -1 
1 6.2831887127785899 0 0 -1 
1 4.7123857402546143 0 0 -1 
1 0 0 0 -1 
1 0 -26.5 1 0 
2 -11.000000257356389 -20.249999993736992 -1 -2.1592157265412046e-65 -2.1592157265412046e-65 1 3
8 -11 1
1 1.4999899810375616 0 0 1 
8 -11 1
1 1.7505410448511132 0 0 1 
8 -5.900005009481057 16.899994990518945
1 5.4999949905186183 -9.9999999999999964 1 -2.3352359241971102e-44 
8 -5.900005009481057 16.899994990518945
1 -3.5828586442492512 -5.4999949905189434 -9.0675024890264467e-14 1 
8 -1 11
1 20.499989981037562 0 0 -1 
8 -1 11
1 8.9162583333506085 0 0 -1 
1 21.999979962075123 0 0 -1 
1 4.7123924195629066 0 0 -1 
1 0 -26.5 1 0 
1 -10.999990536966163 -23.249999993721246 1 9.0675024890264467e-14 
8 -1 11
1 2.7505410448489993 0 0 -1 
8 -1 11
1 21.5 0 -0 -1 
1 0 -10 1 0 
1 -5.333399689100002 -9.5 1 0 
1 24 0 0 -1 
1 0 0 0 -1 
1 0 -10 1 0 
1 12 2.2500000000000018 -1 0 
1 0 -10 1 0 
1 -12 2.2500000000000018 0 -1 
1 4.5 0 0 -1 
1 0 0 0 -1 
8 -11 1
1 2.5 0 0 1 
8 -11 1
1 7.2505410448489993 0 0 1 
1 0 -10 1 0 
1 -12 -2.2499999999999982 1 0 
8 -11 4.0000000112172529e-07
1 8.7505247963141457 0 0 1 
8 -11 4.0000000112172529e-07
1 7.210479494401298 0 0 1 
1 0 -10 1 0 
1 -5.333399689100002 -9.5 1 0 
1 6.2831853071795862 -9.9999999999999964 1 0 
2 9.4171117760246119 -5.0000003348445823 0 -1 -1 -0 7.4999891341456095
1 6.2831853071795862 -10 1 0 
2 -5.0000003348445823 -9.7499704202756128 -1 0 0 1 7.4999891341456095
1 7.8539816786204346 0 0 -1 
1 10.000000000000275 0 0 -1 
1 0 -15 1 0 
2 -2.8460695087116719 -5.0000042029637513 0 -1 -1 -0 7.4999891341456095
1 6.2831840821261249 0 0 -1 
1 9.0000000000203482 0 0 -1 
1 0 0 0 -1 
1 6.2831921044600572 0 0 -1 
1 0 -15 1 0 
1 6.1539396791893033 -12.500004580684209 -0.99999999999921962 1.2492867197001738e-06 
1 4.7123887797622093 0 0 -1 
1 19.000000221533806 0 0 -1 
1 0 -15 1 0 
2 6.1539600710307134 -9.5000045807535134 0 -1 -1 -0 3
1 0 0 0 -1 
1 4.7123889434623836 0 0 -1 
1 0 -15 1 0 
1 9.1539600710307134 9.4999962426477342 -2.9917588525280153e-15 -1 
1 3.1415933394828714 0 0 -1 
1 0 0 0 -1 
1 0 -15 1 0 
2 6.1539600710307134 9.499996131880815 0 -1 -1 -0 3
1 0 -15 1 0 
1 6.1539621287099457 12.49999613188011 -0.99999999999921962 1.2492932180120622e-06 
1 8.9999999999928022 0 0 -1 
1 3.1415939354406928 0 0 -1 
1 0 -10 1 0 
2 5.0000000859590044 -9.7499924438154046 -1 0 0 1 7.5000111576853978
1 0 -9.9999999999999964 1 0 
2 9.4171337995644038 5.0000000859590044 0 -1 -1 -0 7.5000111576853978
8 -11 4.0000000112172529e-07
1 2.2142963054953007 0 0 1 
8 -11 4.0000000112172529e-07
1 1.9162799011056073 0 0 1 
1 0 -15 1 0 
2 -2.84604748517188 4.9999962178398354 0 -1 -1 -0 7.5000111576853978
1 1.5707963153336924 0 0 -1 
1 0 0 0 -1 
8 -1 11
1 3.416258333351001 0 0 -1 
8 -1 11
1 21.5 0 0 -1 
1 0 -10 1 0 
1 5.3333996890999984 9.5 -1 0 
1 24 0 0 -1 
1 4.5 0 0 -1 
1 0 -10 1 0 
1 -12 -2.2499999999999982 1 0 
1 0 0 0 -1 
1 0 0 0 -1 
1 0 -10 1 0 
1 12 2.2500000000000018 0 -1 
8 -11 1
1 2.5 0 0 1 
8 -11 1
1 7.916258333351001 0 0 1 
1 0 -10 1 0 
1 12 2.2500000000000018 -1 0 
1 0 -10 1 0 
1 5.3333996890999984 9.5 -1 0 
1 3.1415893582099343 0 0 -1 
1 0 0 0 -1 
1 0 -26.5 1 0 
2 10.999999742643611 -20.249999993736992 -1 -2.1592157265412046e-65 -2.1592157265412046e-65 1 3
1 0 -26.5 1 0 
1 13.999999742627322 -20.249990107597416 1.3099877782775314e-08 0.99999999999999989 
1 40.499979348052364 0 0 -1 
1 3.1415962421924788 0 0 -1 
1 0 -26.5 1 0 
2 11.000000273191418 20.250000006263008 -1 -2.1592157265412046e-65 -2.1592157265412046e-65 1 3
1 0 0 0 -1 
1 6.2831853071795862 0 0 -1 
1 0 -3 1 0 
2 3.5527136788005009e-15 1.7763568394002505e-15 0 -1 1 0 1.6999999999999993
1 0 0 0 -1 
1 6.2831853071795862 0 0 -1 
1 0 -3 1 0 
2 -1.7763568394002505e-15 3.4706025991106707e-75 1 -1.9537755715132364e-60 1.9537755715132364e-60 1 1.6999999999999993
1 0 0 0 -1 
1 6.2831853071795862 0 0 -1 
1 0 -3 1 0 
2 -1.7763568394002505e-15 3.4706025991106707e-75 1 -1.9537755715132364e-60 1.9537755715132364e-60 1 1.6999999999999993
1 0 0 0 -1 
1 6.2831853071795862 0 0 -1 
1 0 -3 1 0 
2 3.5527136788005009e-15 1.7763568394002505e-15 0 -1 1 0 1.6999999999999993
1 0 0 0 -1 
1 6.2831853071795862 0 0 -1 
1 0 -3 1 0 
2 -1.7763568394002505e-15 3.4706025991106707e-75 1 -1.9537755715132364e-60 1.9537755715132364e-60 1 1.6999999999999993
1 0 0 0 -1 
1 6.2831853071795862 0 0 -1 
1 0 -3 1 0 
2 -1.7763568394002505e-15 3.4706025991106707e-75 1 -1.9537755715132364e-60 1.9537755715132364e-60 1 1.6999999999999993
1 -2.5828586442510026 12 0 -1 
1 12 2.2500000000000018 -1 0 
1 -9.5 5.0005410448490011 0 -1 
1 -9.5 5.0005410448490011 0 -1 
1 1.9171413557489974 -12 0 1 
1 -12 -2.2499999999999982 1 0 
1 9.5 -5.6662583333509993 0 1 
1 9.5 -5.6662583333509993 0 1 
1 -12 -2.2499999999999982 1 0 
1 1.9171413557489974 -12 0 1 
8 -3.499999999999952 8.5000000000004086
1 2.4999999999999223 -2.2499812861300086 -1 -1.7763568394002015e-16 
8 -3.499999999999952 8.5000000000004086
1 2.4999999999999223 -10 1 0 
1 0 -15 1 0 
1 -10.346058642857276 4.9999961318806756 1.7763568394002015e-16 -1 
Curves 133
1 -17.5 40 0 1 0 0 
1 17.5 40 0 0 0 1 
1 -17.5 40 0 1 0 0 
1 4.5 40 29 -0 -0 -1 
1 -4.5 40 0 1 0 0 
1 -4.5 40 29 -0 -0 -1 
1 -17.5 40 0 1 0 0 
1 -17.5 40 0 0 0 1 
1 17.5 40 0 0 -1 0 
1 17.5 -40 0 -1 0 0 
1 -17.5 -40 0 0 1 0 
1 17.5 -40 0 0 0 1 
1 17.5 40 0 0 -1 0 
1 -17.5 -40 0 0 1 0 
1 17.5 -40 0 -1 0 0 
1 4.5 40 0 0 -1 0 
1 -10.99998998103756 36.499999999980389 0 1 8.9140897131658043e-13 0 
2 10.999999170879981 33.5 0 0 0 1 1 0 -0 -0 1 0 3
1 13.999999170861832 33.499989564849379 0 1.3099971074452453e-08 -0.99999999999999989 0 
2 10.999999701427788 -6.9999999999999982 0 0 0 1 1 0 -0 -0 1 0 3
1 10.999989981037562 -9.9999999999842508 0 -1 9.0675024890264467e-14 0 
1 9.5 -8.2494589551330009 0 0 -1 0 
1 -12 -10.999999999982 0 1 0 0 
1 12 -10.999999999982 0 0 -1 0 
1 12 -15.499999999982 0 -1 0 0 
1 9.5 -8.2494589551330009 0 0 -1 0 
2 5.0000003348445823 -22.999970420257615 0 0 0 1 1 0 -0 -0 1 0 7.4999891341456095
1 12.50000071256504 -31.99997960815859 0 -1.2492867197001738e-06 0.99999999999921962 0 
2 9.5000007126343444 -32 0 0 0 1 1 0 -0 -0 1 0 3
1 -9.5000001107669032 -35 0 1 2.9917588525280153e-15 0 
2 -9.499999999999984 -32 0 0 0 1 1 0 -0 -0 1 0 3
1 -12.499999999999279 -32.000002057679232 0 -1.2492932180120622e-06 0.99999999999921962 0 
2 -5.0000000859590044 -22.999992443797407 0 0 0 1 1 0 -0 -0 1 0 7.5000111576853978
1 -9.5 -18.916258333333001 0 0 1 0 
1 12 -15.499999999982 0 -1 0 0 
1 -12 -10.999999999982 0 0 -1 0 
1 -12 -10.999999999982 0 1 0 0 
1 -9.5 -18.916258333333001 0 0 1 0 
1 10.999989981037562 -9.9999999999842508 0 -1 9.0675024890264467e-14 0 
2 -11.000000298572212 -6.9999999999999973 0 0 0 1 1 0 -0 -0 1 0 3
1 -14.000000298555923 -6.999990113860421 0 -1.3099877782775314e-08 0.99999999999999989 0 
2 -11.000000829120019 33.5 0 0 0 1 1 0 -0 -0 1 0 3
1 -10.99998998103756 36.499999999980389 0 1 8.9140897131658043e-13 0 
1 -4.5 40 0 0 -1 0 
2 14.5 -18 0 0 0 1 1 0 -0 -0 1 0 1.7
2 14.5 37 0 0 0 1 1 0 -0 -0 1 0 1.7
2 -14.5 37 0 0 0 1 1 0 -0 -0 1 0 1.7
2 -14.5 -18 0 0 0 1 1 0 -0 -0 1 0 1.7
2 -14.5 -37 0 0 0 1 1 0 -0 -0 1 0 1.7
2 14.5 -37 0 0 0 1 1 0 -0 -0 1 0 1.7
1 4.5 40 0 0 -1 0 
1 4.5 36.499999999994003 29 -0 -0 -1 
1 -4.5 40 0 0 -1 0 
1 -4.5 36.499999999986002 0 1 8.8896791162874759e-13 0 
1 -4.5 36.499999999986002 29 -0 -0 -1 
1 -17.5 -40 0 0 0 1 
1 10.99998998103756 36.499999999992966 29 -0 -0 -1 
1 -10.99998998103756 36.499999999980389 0 1 8.9140897131658043e-13 0 
1 -10.99998998103756 36.499999999980389 29 -0 -0 -1 
1 13.999999170861832 33.499989564849379 29 -0 -0 -1 
2 10.999999170879981 33.5 0 0 0 1 1 0 -0 -0 1 0 3
1 13.999999170861832 33.499989564849379 0 1.3099971074452453e-08 -0.99999999999999989 0 
1 13.99999970141039 -6.9999897832029863 29 -0 -0 -1 
1 10.999989981037562 -9.9999999999842508 29 -0 -0 -1 
2 10.999999701427788 -6.9999999999999982 0 0 0 1 1 0 -0 -0 1 0 3
1 9.5 -9.999999999984114 29 0 -0 1 
1 5.4999949905189434 -9.9999999999837517 19.000000000000004 -1 9.0675024890264467e-14 -2.3352359241971102e-44 
1 -9.5 -9.9999999999823928 29 0 0 -1 
1 -10.999989981037562 -9.999999999982256 29 -0 -0 -1 
1 10.999989981037562 -9.9999999999842508 0 -1 9.0675024890264467e-14 0 
1 9.5 -10.999999999982 29 -0 -0 -1 
1 9.5 -8.2494589551330009 0 0 -1 0 
1 12 -10.999999999982 29 -0 -0 -1 
1 -12 -10.999999999982 0 1 0 0 
1 12 -10.999999999982 0 0 -1 0 
1 12 -15.499999999982 29 -0 -0 -1 
1 9.5 -15.499999999982 29 0 -0 1 
1 12 -15.499999999982 0 -1 0 0 
1 9.5 -16.999983751447147 29 0 0 1 
1 9.5 -8.2494589551330009 0 0 -1 0 
2 5.0000003348445823 -22.999970420257615 19.000000000000004 0 0 1 1 0 -0 -0 1 0 7.4999891341456095
2 5.0000003348445823 -22.999970420257615 19 0 0 1 1 0 -0 -0 1 0 7.4999891341456095
1 5.0000000000004308 -15.499981286112012 29 -0 -0 -1 
2 5.0000003348445823 -22.999970420257615 0 0 0 1 1 0 -0 -0 1 0 7.4999891341456095
1 12.499989468984563 -22.999979608145264 29 -0 -0 -1 
1 12.50000071256504 -31.99997960815859 29 -0 -0 -1 
1 12.50000071256504 -31.99997960815859 0 -1.2492867197001738e-06 0.99999999999921962 0 
1 9.5000001107669032 -34.999999999999943 29 -0 -0 -1 
2 9.5000007126343444 -32 0 0 0 1 1 0 -0 -0 1 0 3
1 -9.5000001107669032 -35 29 -0 -0 -1 
1 -9.5000001107669032 -35 0 1 2.9917588525280153e-15 0 
1 -12.499999999999279 -32.000002057679232 29 -0 -0 -1 
2 -9.499999999999984 -32 0 0 0 1 1 0 -0 -0 1 0 3
1 -12.499999999999279 -32.000002057679232 0 -1.2492932180120622e-06 0.99999999999921962 0 
1 -12.500011243638241 -23.000002057693454 29 -0 -0 -1 
2 -5.0000000859590044 -22.999992443797407 19 0 0 1 1 0 -0 -0 1 0 7.5000111576853978
2 -5.0000000859590044 -22.999992443797407 19.000000000000004 0 0 1 1 0 -0 -0 1 0 7.5000111576853978
1 -9.5 -16.999978432227394 29 0 0 1 
2 -5.0000000859590044 -22.999992443797407 0 0 0 1 1 0 -0 -0 1 0 7.5000111576853978
1 -4.9999999999998446 -15.499981286112011 29 -0 -0 -1 
1 -9.5 -15.499999999982 29 0 0 -1 
1 -9.5 -18.916258333333001 0 0 1 0 
1 -12 -15.499999999982 29 -0 -0 -1 
1 12 -15.499999999982 0 -1 0 0 
1 -12 -10.999999999982 29 -0 -0 -1 
1 -12 -10.999999999982 0 0 -1 0 
1 -9.5 -10.999999999982 29 -0 0 1 
1 -12 -10.999999999982 0 1 0 0 
1 -9.5 -18.916258333333001 0 0 1 0 
1 -14.000000298555923 -6.999990113860421 29 -0 -0 -1 
2 -11.000000298572212 -6.9999999999999973 0 0 0 1 1 0 -0 -0 1 0 3
1 -14.000000298555923 -6.999990113860421 0 -1.3099877782775314e-08 0.99999999999999989 0 
1 -14.000000829100703 33.499989234191943 29 -0 -0 -1 
2 -11.000000829120019 33.5 0 0 0 1 1 0 -0 -0 1 0 3
1 16.199999999999999 -18 29 -0 -0 -1 
2 14.5 -18 0 0 0 1 1 0 -0 -0 1 0 1.7
1 16.199999999999999 37 29 -0 -0 -1 
2 14.5 37 0 0 0 1 1 0 -0 -0 1 0 1.7
1 -12.800000000000001 37 29 -0 -0 -1 
2 -14.5 37 0 0 0 1 1 0 -0 -0 1 0 1.7
1 -12.800000000000001 -18 29 -0 -0 -1 
2 -14.5 -18 0 0 0 1 1 0 -0 -0 1 0 1.7
1 -12.800000000000001 -37 29 -0 -0 -1 
2 -14.5 -37 0 0 0 1 1 0 -0 -0 1 0 1.7
1 16.199999999999999 -37 29 -0 -0 -1 
2 14.5 -37 0 0 0 1 1 0 -0 -0 1 0 1.7
1 -12 -10.999999999982 0 1 0 0 
1 9.5 -8.2494589551330009 0 0 -1 0 
1 12 -15.499999999982 0 -1 0 0 
1 -9.5 -18.916258333333001 0 0 1 0 
1 12 -15.499999999982 0 -1 0 0 
1 -2.4999999999999223 -15.499981286112011 19 1 -1.7763568394002015e-16 0 
1 -4.9999999999998446 -15.499981286112011 0 1 -1.7763568394002015e-16 0 
Polygon3D 0
PolygonOnTriangulations 0
Surfaces 55
1 -17.5 40 0 0 1 0 1 0 0 0 0 -1 
1 0 0 0 -0 -0 -1 -1 0 0 0 1 -0 
1 17.5 40 0 1 0 -0 0 -1 0 0 -0 -1 
1 0 0 0 -0 -0 -1 -1 0 0 0 1 -0 
1 4.5 40 29 -1 0 0 0 -1 0 0 0 1 
1 -1.4401280168374192e-12 38.249999999994998 29.000000000000004 -7.0120969354746634e-32 4.1033646432945335e-30 1 0 1 -4.1033646432945335e-30 -1 -2.8773190640380683e-61 -7.0120969354746634e-32 
1 -4.5 40 29 -1 0 0 0 -1 0 0 0 1 
1 -17.5 -40 0 -1 0 0 0 1 0 0 0 -1 
1 17.5 -40 0 0 -1 0 -1 0 0 -0 -0 -1 
1 -10.99998998103756 36.499999999980389 29 8.9140897131658043e-13 -1 0 1 8.9140897131658043e-13 0 -0 0 1 
2 10.999999170879981 33.5 29 0 0 1 1 0 -0 -0 1 0 3
1 13.999999170861832 33.499989564849379 29 -0.99999999999999989 -1.3099971074452453e-08 0 1.3099971074452453e-08 -0.99999999999999989 0 0 0 1 
2 10.999999701427788 -6.9999999999999982 29 0 0 1 1 0 -0 -0 1 0 3
1 10.999989981037562 -9.9999999999842508 29 9.0675024890264467e-14 1 -0 -1 9.0675024890264467e-14 0 0 0 1 
1 9.5 -8.2494589551330009 29 -1 0 0 0 -1 0 0 0 1 
1 -12 -10.999999999982 29 0 -1 0 1 0 0 -0 0 1 
1 12 -10.999999999982 29 -1 0 0 0 -1 0 0 0 1 
1 12 -15.499999999982 29 0 1 -0 -1 0 0 0 0 1 
1 9.5 -8.2494589551330009 29 -1 0 0 0 -1 0 0 0 1 
2 5.0000003348445823 -22.999970420257615 29 0 0 1 1 0 -0 -0 1 0 7.4999891341456095
1 12.50000071256504 -31.99997960815859 29 0.99999999999921962 1.2492867197001738e-06 -0 -1.2492867197001738e-06 0.99999999999921962 0 0 0 1 
2 9.5000007126343444 -32 29 0 0 1 1 0 -0 -0 1 0 3
1 -9.5000001107669032 -35 29 2.9917588525280153e-15 -1 0 1 2.9917588525280153e-15 0 -0 0 1 
2 -9.499999999999984 -32 29 0 0 1 1 0 -0 -0 1 0 3
1 -12.499999999999279 -32.000002057679232 29 0.99999999999921962 1.2492932180120622e-06 -0 -1.2492932180120622e-06 0.99999999999921962 0 0 0 1 
2 -5.0000000859590044 -22.999992443797407 29 0 0 1 1 0 -0 -0 1 0 7.5000111576853978
1 -9.5 -18.916258333333001 29 1 0 0 -0 1 0 0 -0 1 
1 12 -15.499999999982 29 0 1 -0 -1 0 0 0 0 1 
1 -12 -10.999999999982 29 -1 0 0 0 -1 0 0 0 1 
1 -12 -10.999999999982 29 0 -1 0 1 0 0 -0 0 1 
1 -9.5 -18.916258333333001 29 1 0 0 -0 1 0 0 -0 1 
2 -11.000000298572212 -6.9999999999999973 29 0 0 1 1 0 -0 -0 1 0 3
1 -14.000000298555923 -6.999990113860421 29 0.99999999999999989 1.3099877782775314e-08 -0 -1.3099877782775314e-08 0.99999999999999989 0 0 0 1 
2 -11.000000829120019 33.5 29 0 0 1 1 0 -0 -0 1 0 3
2 14.5 -18 29 0 0 1 1 0 -0 -0 1 0 1.7
2 14.5 37 29 0 0 1 1 0 -0 -0 1 0 1.7
2 -14.5 37 29 0 0 1 1 0 -0 -0 1 0 1.7
2 -14.5 -18 29 0 0 1 1 0 -0 -0 1 0 1.7
2 -14.5 -37 29 0 0 1 1 0 -0 -0 1 0 1.7
2 14.5 -37 29 0 0 1 1 0 -0 -0 1 0 1.7
1 -5.5592860085667327e-07 13.249999993736994 29.000000000000011 -2.2347652451134846e-32 -9.6619353252540694e-34 -1 -1 0 2.2347652451134846e-32 -2.1592157265412046e-65 1 -9.6619353252540694e-34 
1 0 -13.582858644233003 29.000000000000004 -0 -2.5753904418810234e-31 -1 0 -1 2.5753904418810234e-31 -1 0 0 
1 0 -13.249999999982002 29 -0 -0 -1 -1 0 0 0 1 -0 
1 0 -13.582858644233003 29.000000000000004 -0 -2.5753904418810234e-31 -1 0 -1 2.5753904418810234e-31 -1 0 0 
1 0 -13.249999999982002 29 -0 -0 -1 -1 0 0 0 1 -0 
1 -4.9999999999998446 -15.499981286112011 29 -1.7763568394002015e-16 -1 0 1 -1.7763568394002015e-16 0 0 0 1 
1 -3.8681191690985665e-06 -25.846039928969287 29.000000000000007 -4.7770343003025668e-32 7.1194243443690717e-31 -1 0 -1 -7.1194243443690717e-31 -1 -3.4009734291460168e-62 4.7770343003025668e-32 
1 0 -13.582858644233003 29.000000000000004 -0 -2.5753904418810234e-31 -1 0 -1 2.5753904418810234e-31 -1 0 0 
1 0 -13.249999999982002 29 -0 -0 -1 -1 0 0 0 1 -0 
1 14.500000000000002 -18.000000000000004 29.000000000000004 -5.3682576018500295e-30 8.3708423622068307e-30 1 0 1 -8.3708423622068307e-30 -1 -4.4936838144805077e-59 -5.3682576018500295e-30 
1 14.500000000000002 37 29.000000000000004 -5.3682576018500239e-30 -3.6394966792203132e-31 1 1 0 5.3682576018500239e-30 -1.9537755715132364e-60 1 3.6394966792203132e-31 
1 -14.499999999999998 37 29.000000000000004 -5.3682576018500239e-30 -3.6394966792203132e-31 1 1 0 5.3682576018500239e-30 -1.9537755715132364e-60 1 3.6394966792203132e-31 
1 -14.499999999999998 -18.000000000000004 29.000000000000004 -5.3682576018500295e-30 8.3708423622068307e-30 1 0 1 -8.3708423622068307e-30 -1 -4.4936838144805077e-59 -5.3682576018500295e-30 
1 -14.499999999999998 -37 29.000000000000004 -5.3682576018500239e-30 -3.6394966792203132e-31 1 1 0 5.3682576018500239e-30 -1.9537755715132364e-60 1 3.6394966792203132e-31 
1 14.500000000000002 -37 29.000000000000004 -5.3682576018500239e-30 -3.6394966792203132e-31 1 1 0 5.3682576018500239e-30 -1.9537755715132364e-60 1 3.6394966792203132e-31 
Triangulations 0

TShapes 337
Ve
1e-07
-17.5 40 0
0 0

0101101
*
Ve
1e-07
17.5 40 0
0 0

0101101
*
Ed
 1e-07 1 1 0
1  1 0 0 35
2  1 1 18 0 35
2  2 2 19 0 35
0

0101000
+337 20 -336 20 *
Ve
1e-07
17.5 40 29
0 0

0101101
*
Ed
 1e-07 1 1 0
1  2 0 0 29
2  3 1 0 0 29
2  4 3 0 0 29
0

0101000
+336 21 -334 21 *
Ve
1e-07
4.5 40 29
0 0

0101101
*
Ed
 1e-07 1 1 0
1  3 0 22 35
2  5 1 24 22 35
2  6 4 19 22 35
0

0101000
+332 25 -334 25 *
Ve
1e-07
4.5 40 25
0 0

0101101
*
Ed
 1e-07 1 1 0
1  4 0 0 4
2  7 1 14 0 4
2  8 5 0 0 4
0

0101000
+332 26 -330 26 *
Ve
1e-07
-4.5 40 25
0 0

0101101
*
Ed
 1e-07 1 1 0
1  5 0 0 9
2  9 1 30 0 9
2  10 6 31 0 9
0

0101000
+328 32 -330 32 *
Ve
1e-07
-4.5 40 29
0 0

0101101
*
Ed
 1e-07 1 1 0
1  6 0 0 4
2  11 1 14 0 4
2  12 7 0 0 4
0

0101000
+326 26 -328 26 *
Ve
1e-07
-17.5 40 29
0 0

0101101
*
Ed
 1e-07 1 1 0
1  7 0 0 13
2  13 1 24 0 13
2  14 4 19 0 13
0

0101000
+324 25 -326 25 *
Ed
 1e-07 1 1 0
1  8 0 0 29
2  15 1 0 0 29
2  16 8 0 0 29
0

0101000
+337 21 -324 21 *
Wi

0101100
-335 17 -333 14 +331 23 -329 0 +327 29 +325 0 +323 23 +322 14 *
Fa
0  1e-07 1 14

0111000
+321 0 *
Ve
1e-07
17.5 -40 0
0 0

0101101
*
Ed
 1e-07 1 1 0
1  9 0 0 80
2  17 2 19 0 80
2  18 3 18 0 80
0

0101000
+336 20 -319 20 *
Ve
1e-07
-17.5 -40 0
0 0

0101101
*
Ed
 1e-07 1 1 0
1  10 0 0 35
2  19 2 19 0 35
2  20 9 18 0 35
0

0101000
+319 20 -317 20 *
Ed
 1e-07 1 1 0
1  11 0 0 80
2  21 2 19 0 80
2  22 8 18 0 80
0

0101000
+317 20 -337 20 *
Wi

0101100
+335 0 +318 0 +316 0 +315 0 *
Fa
0  1e-07 2 0

0111000
+314 15 *
Ve
1e-07
17.5 -40 29
0 0

0101101
*
Ed
 1e-07 1 1 0
1  12 0 0 29
2  23 3 0 0 29
2  24 9 0 0 29
0

0101000
+319 21 -312 21 *
Ed
 1e-07 1 1 0
1  13 0 0 80
2  25 3 24 0 80
2  26 4 19 0 80
0

0101000
+334 25 -312 25 *
Wi

0101100
+333 0 -311 0 -318 34 +310 35 *
Fa
0  1e-07 3 0

0111000
+309 0 *
Ve
1e-07
-17.5 -40 29
0 0

0101101
*
Ed
 1e-07 1 1 0
1  14 0 0 80
2  27 4 19 0 80
2  28 8 24 0 80
0

0101000
+307 25 -324 25 *
Ed
 1e-07 1 1 0
1  15 0 0 35
2  29 4 19 0 35
2  30 9 24 0 35
0

0101000
+312 25 -307 25 *
Ve
1e-07
4.5 36.499999999994 29
0 0

0101101
*
Ed
 1e-07 1 1 0
1  16 0 0 3.500000000006
2  31 4 38 0 3.500000000006
2  32 5 39 0 3.500000000006
0

0101000
+332 40 -304 40 *
Ve
1.00007037925798e-07
10.9999899810376 36.499999999993 29
0 0

0101101
*
Ed
 1e-07 1 1 0
1  17 0 15.4999899810376 21.9999799620751
2  33 4 43 15.4999899810376 21.9999799620751
2  34 10 44 15.4999899810376 21.9999799620751
0

0101000
+304 45 -302 45 *
Ve
1e-07
13.9999991708618 33.4999895648494 29
0 0

0101101
*
Ed
 1e-07 1 1 0
1  18 0 6.28318182879605 7.85398469725529
2  35 4 43 6.28318182879605 7.85398469725529
2  36 11 44 6.28318182879605 7.85398469725529
0

0101000
+300 45 -302 45 *
Ve
1.00000001776357e-07
13.9999997014104 -6.99998978320299 29
0 0

0101101
*
Ed
 1e-07 1 1 0
1  19 0 0 40.4999793480524
2  37 4 43 0 40.4999793480524
2  38 12 44 0 40.4999793480524
0

0101000
+300 45 -298 45 *
Ve
1e-07
10.9999899810376 -9.99999999998425 29
0 0

0101101
*
Ed
 1e-07 1 1 0
1  20 0 4.71238574025461 6.28318871277859
2  39 4 43 4.71238574025461 6.28318871277859
2  40 13 44 4.71238574025461 6.28318871277859
0

0101000
+296 45 -298 45 *
Ve
1e-07
9.5 -9.99999999998411 29
0 0

0101101
*
Ed
 1e-07 1 1 0
1  21 0 0 1.49998998103756
2  41 4 43 0 1.49998998103756
2  42 14 44 0 1.49998998103756
0

0101000
+296 45 -294 45 *
Ve
1e-07
9.5 -10.999999999982 29
0 0

0101101
*
Ed
 1e-07 1 1 0
1  22 0 1.75054104485111 2.750541044849
2  43 4 48 1.75054104485111 2.750541044849
2  44 15 49 1.75054104485111 2.750541044849
0

0101000
+294 50 -292 50 *
Ve
1e-07
12 -10.999999999982 29
0 0

0101101
*
Ed
 1e-07 1 1 0
1  23 0 21.5 24
2  45 4 53 21.5 24
2  46 16 54 21.5 24
0

0101000
+292 55 -290 55 *
Ve
1e-07
12 -15.499999999982 29
0 0

0101101
*
Ed
 1e-07 1 1 0
1  24 0 0 4.5
2  47 4 53 0 4.5
2  48 17 54 0 4.5
0

0101000
+290 55 -288 55 *
Ve
1e-07
9.5 -15.499999999982 29
0 0

0101101
*
Ed
 1e-07 1 1 0
1  25 0 0 2.5
2  49 4 53 0 2.5
2  50 18 54 0 2.5
0

0101000
+288 55 -286 55 *
Ve
1.00000100364161e-07
9.4999999999999 -16.999983751447 29
0 0

0101101
*
Ed
 1e-07 1 1 0
1  26 0 7.250541044849 8.750524796314
2  51 4 48 7.250541044849 8.750524796314
2  52 19 49 7.250541044849 8.750524796314
0

0101000
+286 50 -284 50 *
Ve
1e-07
12.4999894689846 -22.9999796081453 29
0 0

0101101
*
Ed
 1e-07 1 1 0
1  27 0 6.28318408212612 7.21047949440132
2  53 4 58 6.28318408212612 7.21047949440132
2  54 20 59 6.28318408212612 7.21047949440132
0

0101000
+282 60 -284 60 *
Ve
1e-07
12.500000712565 -31.9999796081586 29
0 0

0101101
*
Ed
 1e-07 1 1 0
1  28 0 0 9.00000000002035
2  55 4 58 0 9.00000000002035
2  56 21 59 0 9.00000000002035
0

0101000
+280 60 -282 60 *
Ve
1e-07
9.5000001107669 -34.9999999999999 29
0 0

0101101
*
Ed
 1e-07 1 1 0
1  29 0 4.71238877976221 6.28319210446006
2  57 4 58 4.71238877976221 6.28319210446006
2  58 22 59 4.71238877976221 6.28319210446006
0

0101000
+278 60 -280 60 *
Ve
1e-07
-9.5000001107669 -35 29
0 0

0101101
*
Ed
 1e-07 1 1 0
1  30 0 0 19.0000002215338
2  59 4 58 0 19.0000002215338
2  60 23 59 0 19.0000002215338
0

0101000
+276 60 -278 60 *
Ve
1e-07
-12.4999999999993 -32.0000020576792 29
0 0

0101101
*
Ed
 1e-07 1 1 0
1  31 0 3.14159333948287 4.71238894346238
2  61 4 58 3.14159333948287 4.71238894346238
2  62 24 59 3.14159333948287 4.71238894346238
0

0101000
+274 60 -276 60 *
Ve
1e-07
-12.5000112436382 -23.0000020576935 29
0 0

0101101
*
Ed
 1e-07 1 1 0
1  32 0 0 8.9999999999928
2  63 4 58 0 8.9999999999928
2  64 25 59 0 8.9999999999928
0

0101000
+274 60 -272 60 *
Ve
1.00000047961635e-07
-9.49999999999995 -16.9999784322273 29
0 0

0101101
*
Ed
 1e-07 1 1 0
1  33 0 2.21429630549529 3.14159393544069
2  65 4 58 2.21429630549529 3.14159393544069
2  66 26 59 2.21429630549529 3.14159393544069
0

0101000
+270 60 -272 60 *
Ve
1e-07
-9.5 -15.499999999982 29
0 0

0101101
*
Ed
 1e-07 1 1 0
1  34 0 1.91627990110568 3.416258333351
2  67 4 48 1.91627990110568 3.416258333351
2  68 27 49 1.91627990110568 3.416258333351
0

0101000
+270 50 -268 50 *
Ve
1e-07
-12 -15.499999999982 29
0 0

0101101
*
Ed
 1e-07 1 1 0
1  35 0 21.5 24
2  69 4 53 21.5 24
2  70 28 54 21.5 24
0

0101000
+268 55 -266 55 *
Ve
1e-07
-12 -10.999999999982 29
0 0

0101101
*
Ed
 1e-07 1 1 0
1  36 0 0 4.5
2  71 4 53 0 4.5
2  72 29 54 0 4.5
0

0101000
+264 55 -266 55 *
Ve
1e-07
-9.5 -10.999999999982 29
0 0

0101101
*
Ed
 1e-07 1 1 0
1  37 0 0 2.5
2  73 4 53 0 2.5
2  74 30 54 0 2.5
0

0101000
+264 55 -262 55 *
Ve
1e-07
-9.5 -9.99999999998239 29
0 0

0101101
*
Ed
 1e-07 1 1 0
1  38 0 7.916258333351 8.91625833335061
2  75 4 48 7.916258333351 8.91625833335061
2  76 31 49 7.916258333351 8.91625833335061
0

0101000
+262 50 -260 50 *
Ve
1e-07
-10.9999899810376 -9.99999999998226 29
0 0

0101101
*
Ed
 1e-07 1 1 0
1  39 0 20.4999899810376 21.9999799620751
2  77 4 43 20.4999899810376 21.9999799620751
2  78 14 44 20.4999899810376 21.9999799620751
0

0101000
+260 45 -258 45 *
Ve
1e-07
-14.0000002985559 -6.99999011386042 29
0 0

0101101
*
Ed
 1e-07 1 1 0
1  40 0 3.14158935820993 4.71239241956291
2  79 4 43 3.14158935820993 4.71239241956291
2  80 32 44 3.14158935820993 4.71239241956291
0

0101000
+256 45 -258 45 *
Ve
1e-07
-14.0000008291007 33.4999892341919 29
0 0

0101101
*
Ed
 1e-07 1 1 0
1  41 0 0 40.4999793480524
2  81 4 43 0 40.4999793480524
2  82 33 44 0 40.4999793480524
0

0101000
+256 45 -254 45 *
Ve
1e-07
-10.9999899810376 36.4999999999804 29
0 0

0101101
*
Ed
 1e-07 1 1 0
1  42 0 1.57079271076741 3.14159624219248
2  83 4 43 1.57079271076741 3.14159624219248
2  84 34 44 1.57079271076741 3.14159624219248
0

0101000
+252 45 -254 45 *
Ve
1e-07
-4.5 36.499999999986 29
0 0

0101101
*
Ed
 1e-07 1 1 0
1  43 0 0 6.49998998103756
2  85 4 43 0 6.49998998103756
2  86 10 44 0 6.49998998103756
0

0101000
+252 45 -250 45 *
Ed
 1e-07 1 1 0
1  44 0 0 3.500000000014
2  87 4 38 0 3.500000000014
2  88 7 39 0 3.500000000014
0

0101000
+326 40 -250 40 *
Wi

0101100
+306 23 +305 23 +310 23 +331 23 -303 37 -301 42 +299 42 -297 42 +295 42 -293 42 
-291 47 -289 52 -287 52 -285 52 -283 47 +281 57 +279 57 +277 57 +275 57 +273 57 
-271 57 +269 57 -267 47 -265 52 +263 52 -261 52 -259 47 -257 42 +255 42 -253 42 
+251 42 -249 42 +248 37 +323 23 *
Ve
1e-07
16.2 -18 29
0 0

0101101
*
Ed
 1e-07 1 1 0
1  45 0 0 6.28318530717959
2  89 4 63 0 6.28318530717959
2  90 35 64 0 6.28318530717959
0

0101000
+246 65 -246 65 *
Wi

0101100
+245 62 *
Ve
1e-07
16.2 37 29
0 0

0101101
*
Ed
 1e-07 1 1 0
1  46 0 0 6.28318530717959
2  91 4 63 0 6.28318530717959
2  92 36 64 0 6.28318530717959
0

0101000
+243 65 -243 65 *
Wi

0101100
+242 62 *
Ve
1e-07
-12.8 37 29
0 0

0101101
*
Ed
 1e-07 1 1 0
1  47 0 0 6.28318530717959
2  93 4 63 0 6.28318530717959
2  94 37 64 0 6.28318530717959
0

0101000
+240 65 -240 65 *
Wi

0101100
+239 62 *
Ve
1e-07
-12.8 -18 29
0 0

0101101
*
Ed
 1e-07 1 1 0
1  48 0 0 6.28318530717959
2  95 4 63 0 6.28318530717959
2  96 38 64 0 6.28318530717959
0

0101000
+237 65 -237 65 *
Wi

0101100
+236 62 *
Ve
1e-07
-12.8 -37 29
0 0

0101101
*
Ed
 1e-07 1 1 0
1  49 0 0 6.28318530717959
2  97 4 63 0 6.28318530717959
2  98 39 64 0 6.28318530717959
0

0101000
+234 65 -234 65 *
Wi

0101100
+233 62 *
Ve
1e-07
16.2 -37 29
0 0

0101101
*
Ed
 1e-07 1 1 0
1  50 0 0 6.28318530717959
2  99 4 63 0 6.28318530717959
2  100 40 64 0 6.28318530717959
0

0101000
+231 65 -231 65 *
Wi

0101100
+230 62 *
Fa
0  1e-07 4 36

0111000
+247 0 +244 0 +241 0 +238 0 +235 0 +232 0 +229 0 *
Ve
1e-07
4.5 36.499999999994 25
0 0

0101101
*
Ed
 1e-07 1 1 0
1  51 0 0 3.500000000006
2  101 5 66 0 3.500000000006
2  102 6 31 0 3.500000000006
0

0101000
+330 32 -227 32 *
Ed
 1e-07 1 1 0
1  52 0 0 4
2  103 5 0 0 4
2  104 10 67 0 4
0

0101000
+304 26 -227 26 *
Wi

0101100
+329 0 -303 37 +226 29 -225 0 *
Fa
0  1e-07 5 0

0111000
+224 0 *
Ve
1e-07
-4.5 36.499999999986 25
0 0

0101101
*
Ed
 1e-07 1 1 0
1  53 0 0 3.500000000014
2  105 6 31 0 3.500000000014
2  106 7 66 0 3.500000000014
0

0101000
+328 32 -222 32 *
Ed
 1e-07 1 1 0
1  54 0 0 9
2  107 6 31 0 9
2  108 10 69 0 9
0

0101000
+222 32 -227 32 *
Wi

0101100
-327 29 +221 29 -226 29 +220 29 *
Fa
0  1e-07 6 68

0111000
+219 0 *
Ed
 1e-07 1 1 0
1  55 0 0 4
2  109 7 0 0 4
2  110 10 67 0 4
0

0101000
+250 26 -222 26 *
Wi

0101100
+325 0 -248 37 +221 29 -217 0 *
Fa
0  1e-07 7 0

0111000
+216 0 *
Ed
 1e-07 1 1 0
1  56 0 0 29
2  111 8 0 0 29
2  112 9 0 0 29
0

0101000
+317 21 -307 21 *
Wi

0101100
+214 0 -322 0 -315 34 +306 35 *
Fa
0  1e-07 8 0

0111000
+213 0 *
Wi

0101100
+311 0 -214 0 -316 34 +305 35 *
Fa
0  1e-07 9 0

0111000
+211 0 *
Ve
1.00007037925798e-07
10.9999899810376 36.499999999993 2.5
0 0

0101101
*
Ed
 1.00007037925798e-07 1 1 0
1  57 0 0 26.5
2  113 10 0 0 26.5
2  114 11 0 0 26.5
4 G1 10 0 11 0
0

0101000
+302 70 -209 70 *
Ve
1e-07
-10.9999899810376 36.4999999999804 2.5
0 0

0101101
*
Ed
 1e-07 1 1 0
1  58 0 0 21.9999799620751
2  115 10 73 0 21.9999799620751
2  116 41 74 0 21.9999799620751
0

0101000
+207 75 -209 75 *
Ed
 1e-07 1 1 0
1  59 0 0 26.5
2  117 10 0 0 26.5
2  118 34 0 0 26.5
4 G1 10 0 34 0
0

0101000
+252 70 -207 70 *
Wi

0101100
-249 42 -217 0 -220 29 +225 0 -301 42 -208 67 +206 72 +205 67 *
Fa
0  1e-07 10 67

0111000
+204 0 *
Ve
1e-07
13.9999991708618 33.4999895648494 2.5
0 0

0101101
*
Ed
 1e-07 1 1 0
1  60 0 0 26.5
2  119 11 0 0 26.5
2  120 12 0 0 26.5
4 G1 11 0 12 0
0

0101000
+300 70 -202 70 *
Ed
 1e-07 1 1 0
1  61 0 6.28318182879605 7.85398469725529
2  121 11 73 6.28318182879605 7.85398469725529
2  122 41 74 6.28318182879605 7.85398469725529
0

0101000
+202 75 -209 75 *
Wi

0101100
+201 0 -299 76 +200 77 -208 0 *
Fa
0  1e-07 11 0

0111000
+199 0 *
Ve
1.00000001776357e-07
13.9999997014104 -6.99998978320299 2.5
0 0

0101101
*
Ed
 1e-07 1 1 0
1  62 0 0 40.4999793480524
2  123 12 73 0 40.4999793480524
2  124 41 74 0 40.4999793480524
0

0101000
+202 75 -197 75 *
Ed
 1.00000001776357e-07 1 1 0
1  63 0 0 26.5
2  125 12 0 0 26.5
2  126 13 0 0 26.5
4 G1 12 0 13 0
0

0101000
+298 70 -197 70 *
Wi

0101100
+201 0 -297 76 +196 77 -195 0 *
Fa
0  1e-07 12 0

0111000
+194 0 *
Ve
1e-07
10.9999899810376 -9.99999999998425 2.5
0 0

0101101
*
Ed
 1e-07 1 1 0
1  64 0 0 26.5
2  127 13 0 0 26.5
2  128 14 0 0 26.5
4 G1 13 0 14 0
0

0101000
+296 70 -192 70 *
Ed
 1e-07 1 1 0
1  65 0 4.71238574025461 6.28318871277859
2  129 13 73 4.71238574025461 6.28318871277859
2  130 41 74 4.71238574025461 6.28318871277859
0

0101000
+192 75 -197 75 *
Wi

0101100
+191 0 -295 76 +190 77 -195 0 *
Fa
0  1e-07 13 0

0111000
+189 0 *
Ve
2.00001e-07
9.5 -9.99999999998411 19
0 0

0101101
*
Ed
 1e-07 1 1 0
1  66 0 -10 0
2  131 14 79 -10 0
2  132 15 0 -10 0
0

0101000
+187 81 -294 81 *
Ve
2.00001e-07
-9.5 -9.99999999998239 19
0 0

0101101
*
Ed
 1e-07 1 1 0
1  67 0 -4.00000500948106 14.9999949905189
2  133 14 79 -4.00000500948106 14.9999949905189
2  134 42 83 -4.00000500948106 14.9999949905189
0

0101000
+187 81 -185 81 *
Ed
 1e-07 1 1 0
1  68 0 0 10
2  135 14 79 0 10
2  136 31 0 0 10
0

0101000
+260 81 -185 81 *
Ve
1e-07
-10.9999899810376 -9.99999999998226 2.5
0 0

0101101
*
Ed
 1e-07 1 1 0
1  69 0 0 26.5
2  137 14 0 0 26.5
2  138 32 0 0 26.5
4 G1 14 0 32 0
0

0101000
+258 70 -182 70 *
Ed
 1e-07 1 1 0
1  70 0 0 21.9999799620751
2  139 14 73 0 21.9999799620751
2  140 41 74 0 21.9999799620751
0

0101000
+192 75 -182 75 *
Wi

0101100
-293 80 +186 0 -184 0 +183 0 -257 80 -181 79 +180 84 +191 79 *
Fa
0  1e-07 14 79

0111000
+179 0 *
Ve
1e-07
9.5 -10.999999999982 19
0 0

0101101
*
Ed
 1e-07 1 1 0
1  71 0 -0 10
2  141 15 0 -0 10
2  142 16 86 -0 10
0

0101000
+292 81 -177 81 *
Ed
 1e-07 1 1 0
1  72 0 1.75054104485111 2.750541044849
2  143 15 88 1.75054104485111 2.750541044849
2  144 42 89 1.75054104485111 2.750541044849
0

0101000
+187 90 -177 90 *
Wi

0101100
-291 85 -176 0 +175 87 -186 0 *
Fa
0  1e-07 15 0

0111000
+174 0 *
Ve
1e-07
12 -10.999999999982 19
0 0

0101101
*
Ed
 1e-07 1 1 0
1  73 0 0 10
2  145 16 0 0 10
2  146 17 0 0 10
0

0101000
+290 92 -172 92 *
Ed
 1e-07 1 1 0
1  74 0 21.5 24
2  147 16 95 21.5 24
2  148 43 96 21.5 24
0

0101000
+177 97 -172 97 *
Wi

0101100
-289 91 -171 86 +170 94 +176 0 *
Fa
0  1e-07 16 86

0111000
+169 0 *
Ve
1e-07
12 -15.499999999982 19
0 0

0101101
*
Ed
 1e-07 1 1 0
1  75 0 0 4.5
2  149 17 95 0 4.5
2  150 43 96 0 4.5
0

0101000
+172 97 -167 97 *
Ed
 1e-07 1 1 0
1  76 0 0 10
2  151 17 0 0 10
2  152 18 0 0 10
0

0101000
+288 92 -167 92 *
Wi

0101100
+171 0 -287 99 +166 100 -165 0 *
Fa
0  1e-07 17 0

0111000
+164 0 *
Ve
1e-07
9.5 -15.499999999982 19
0 0

0101101
*
Ed
 1e-07 1 1 0
1  77 0 -10 0
2  153 18 86 -10 0
2  154 19 0 -10 0
0

0101000
+162 81 -286 81 *
Ed
 1e-07 1 1 0
1  78 0 0 2.5
2  155 18 95 0 2.5
2  156 43 96 0 2.5
0

0101000
+167 97 -162 97 *
Wi

0101100
-285 91 +161 0 +160 94 +165 86 *
Fa
0  1e-07 18 86

0111000
+159 0 *
Ve
2.00001e-07
9.5 -16.9999837514471 19
0 0

0101101
*
Ed
 1e-07 1 1 0
1  79 0 -10 0
2  157 19 0 -10 0
2  158 20 101 -10 0
0

0101000
+157 81 -284 81 *
Ed
 1e-07 1 1 0
1  80 0 7.250541044849 8.75052479631415
2  159 19 88 7.250541044849 8.75052479631415
2  160 44 89 7.250541044849 8.75052479631415
0

0101000
+162 90 -157 90 *
Wi

0101100
-283 85 +156 0 +155 87 -161 0 *
Fa
0  1e-07 19 0

0111000
+154 0 *
Ve
2.00001e-07
5.0167546564677 -15.499999999982 19
0 0

0101101
*
Ed
 1e-07 1 1 0
1  81 0 0.927294187221712 1.56856241215069
2  161 20 101 0.927294187221712 1.56856241215069
2  162 44 83 0.927294187221712 1.56856241215069
0

0101000
+157 81 -152 81 *
Ve
2.00001e-07
5.00000000000043 -15.499981286112 19
0 0

0101101
*
Ed
 1e-07 1 1 0
1  82 0 1.56856241215069 1.57079637144085
2  163 20 103 1.56856241215069 1.57079637144085
2  164 45 104 1.56856241215069 1.57079637144085
0

0101000
+152 92 -150 92 *
Ve
1e-07
5.00000000000043 -15.499981286112 14
0 0

0101101
*
Ed
 1e-07 1 1 0
1  83 0 10 15
2  165 20 0 10 15
2  166 46 0 10 15
4 G1 20 0 46 0
0

0101000
+150 105 -148 105 *
Ve
1e-07
12.4999894689846 -22.9999796081453 14
0 0

0101101
*
Ed
 1e-07 1 1 0
1  84 0 6.28318408212612 7.85398167862043
2  167 20 108 6.28318408212612 7.85398167862043
2  168 47 109 6.28318408212612 7.85398167862043
0

0101000
+146 110 -148 110 *
Ed
 1e-07 1 1 0
1  85 0 0 15
2  169 20 0 0 15
2  170 21 0 0 15
4 G1 20 0 21 0
0

0101000
+282 105 -146 105 *
Wi

0101100
-281 102 +156 0 -151 0 -149 86 -147 101 +145 107 +144 101 *
Fa
0  1e-07 20 101

0111000
+143 0 *
Ve
1e-07
12.500000712565 -31.9999796081586 14
0 0

0101101
*
Ed
 1e-07 1 1 0
1  86 0 0 15
2  171 21 0 0 15
2  172 22 0 0 15
4 G1 21 0 22 0
0

0101000
+280 105 -141 105 *
Ed
 1e-07 1 1 0
1  87 0 0 9.00000000002035
2  173 21 108 0 9.00000000002035
2  174 47 109 0 9.00000000002035
0

0101000
+141 110 -146 110 *
Wi

0101100
+140 0 -279 112 +139 113 -144 0 *
Fa
0  1e-07 21 0

0111000
+138 0 *
Ve
1e-07
9.5000001107669 -34.9999999999999 14
0 0

0101101
*
Ed
 1e-07 1 1 0
1  88 0 0 15
2  175 22 0 0 15
2  176 23 0 0 15
4 G1 22 0 23 0
0

0101000
+278 105 -136 105 *
Ed
 1e-07 1 1 0
1  89 0 4.71238877976221 6.28319210446006
2  177 22 108 4.71238877976221 6.28319210446006
2  178 47 109 4.71238877976221 6.28319210446006
0

0101000
+136 110 -141 110 *
Wi

0101100
+135 0 -277 112 +134 113 -140 0 *
Fa
0  1e-07 22 0

0111000
+133 0 *
Ve
1e-07
-9.5000001107669 -35 14
0 0

0101101
*
Ed
 1e-07 1 1 0
1  90 0 0 15
2  179 23 0 0 15
2  180 24 0 0 15
4 G1 23 0 24 0
0

0101000
+276 105 -131 105 *
Ed
 1e-07 1 1 0
1  91 0 0 19.0000002215338
2  181 23 108 0 19.0000002215338
2  182 47 109 0 19.0000002215338
0

0101000
+131 110 -136 110 *
Wi

0101100
+130 0 -275 112 +129 113 -135 0 *
Fa
0  1e-07 23 0

0111000
+128 0 *
Ve
1e-07
-12.4999999999993 -32.0000020576792 14
0 0

0101101
*
Ed
 1e-07 1 1 0
1  92 0 0 15
2  183 24 0 0 15
2  184 25 0 0 15
4 G1 24 0 25 0
0

0101000
+274 105 -126 105 *
Ed
 1e-07 1 1 0
1  93 0 3.14159333948287 4.71238894346238
2  185 24 108 3.14159333948287 4.71238894346238
2  186 47 109 3.14159333948287 4.71238894346238
0

0101000
+126 110 -131 110 *
Wi

0101100
+125 0 -273 112 +124 113 -130 0 *
Fa
0  1e-07 24 0

0111000
+123 0 *
Ve
1e-07
-12.5000112436382 -23.0000020576935 14
0 0

0101101
*
Ed
 1e-07 1 1 0
1  94 0 0 8.9999999999928
2  187 25 108 0 8.9999999999928
2  188 47 109 0 8.9999999999928
0

0101000
+126 110 -121 110 *
Ed
 1e-07 1 1 0
1  95 0 0 15
2  189 25 0 0 15
2  190 26 0 0 15
4 G1 25 0 26 0
0

0101000
+272 105 -121 105 *
Wi

0101100
+125 0 -271 112 +120 113 -119 0 *
Fa
0  1e-07 25 0

0111000
+118 0 *
Ve
2.00001e-07
-4.99999999999984 -15.499981286112 19
0 0

0101101
*
Ve
2.00001e-07
-5.01675443218069 -15.499999999982 19
0 0

0101101
*
Ed
 1e-07 1 1 0
1  96 0 1.57079631533369 1.57303023815909
2  191 26 103 1.57079631533369 1.57303023815909
2  192 45 104 1.57079631533369 1.57303023815909
0

0101000
+116 92 -115 92 *
Ve
2.00001e-07
-9.5 -16.9999784322274 19
0 0

0101101
*
Ed
 1e-07 1 1 0
1  97 0 1.57303023815909 2.2142963054953
2  193 26 101 1.57303023815909 2.2142963054953
2  194 48 83 1.57303023815909 2.2142963054953
0

0101000
+115 81 -113 81 *
Ed
 1e-07 1 1 0
1  98 0 -10 0
2  195 26 101 -10 0
2  196 27 0 -10 0
0

0101000
+113 81 -270 81 *
Ve
1e-07
-4.99999999999984 -15.499981286112 14
0 0

0101101
*
Ed
 1e-07 1 1 0
1  99 0 1.57079631533369 3.14159393544069
2  197 26 108 1.57079631533369 3.14159393544069
2  198 47 109 1.57079631533369 3.14159393544069
0

0101000
+110 110 -121 110 *
Ed
 1e-07 1 1 0
1  100 0 10 15
2  199 26 0 10 15
2  200 46 0 10 15
4 G1 26 0 46 0
0

0101000
+116 105 -110 105 *
Wi

0101100
-114 86 -112 0 -111 0 -269 102 -119 101 +109 107 +108 101 *
Fa
0  1e-07 26 101

0111000
+107 0 *
Ve
1e-07
-9.5 -15.499999999982 19
0 0

0101101
*
Ed
 1e-07 1 1 0
1  101 0 0 10
2  201 27 0 0 10
2  202 28 86 0 10
0

0101000
+268 81 -105 81 *
Ed
 1e-07 1 1 0
1  102 0 1.9162799011056 3.416258333351
2  203 27 88 1.9162799011056 3.416258333351
2  204 48 89 1.9162799011056 3.416258333351
0

0101000
+113 90 -105 90 *
Wi

0101100
-267 85 -104 0 +103 87 -111 0 *
Fa
0  1e-07 27 0

0111000
+102 0 *
Ve
1e-07
-12 -15.499999999982 19
0 0

0101101
*
Ed
 1e-07 1 1 0
1  103 0 0 10
2  205 28 0 0 10
2  206 29 0 0 10
0

0101000
+266 92 -100 92 *
Ed
 1e-07 1 1 0
1  104 0 21.5 24
2  207 28 95 21.5 24
2  208 49 96 21.5 24
0

0101000
+105 97 -100 97 *
Wi

0101100
-265 91 -99 86 +98 94 +104 0 *
Fa
0  1e-07 28 86

0111000
+97 0 *
Ve
1e-07
-12 -10.999999999982 19
0 0

0101101
*
Ed
 1e-07 1 1 0
1  105 0 0 10
2  209 29 0 0 10
2  210 30 0 0 10
0

0101000
+264 92 -95 92 *
Ed
 1e-07 1 1 0
1  106 0 0 4.5
2  211 29 95 0 4.5
2  212 49 96 0 4.5
0

0101000
+95 97 -100 97 *
Wi

0101100
+94 0 -263 99 +93 100 -99 0 *
Fa
0  1e-07 29 0

0111000
+92 0 *
Ve
1e-07
-9.5 -10.999999999982 19
0 0

0101101
*
Ed
 1e-07 1 1 0
1  107 0 -10 0
2  213 30 86 -10 0
2  214 31 0 -10 0
0

0101000
+90 81 -262 81 *
Ed
 1e-07 1 1 0
1  108 0 0 2.5
2  215 30 95 0 2.5
2  216 49 96 0 2.5
0

0101000
+95 97 -90 97 *
Wi

0101100
-261 91 +89 0 +88 94 +94 86 *
Fa
0  1e-07 30 86

0111000
+87 0 *
Ed
 1e-07 1 1 0
1  109 0 7.916258333351 8.91625833335061
2  217 31 88 7.916258333351 8.91625833335061
2  218 42 89 7.916258333351 8.91625833335061
0

0101000
+90 90 -185 90 *
Wi

0101100
-259 85 -183 0 +85 87 -89 0 *
Fa
0  1e-07 31 0

0111000
+84 0 *
Ve
1e-07
-14.0000002985559 -6.99999011386042 2.5
0 0

0101101
*
Ed
 1e-07 1 1 0
1  110 0 0 26.5
2  219 32 0 0 26.5
2  220 33 0 0 26.5
4 G1 32 0 33 0
0

0101000
+256 70 -82 70 *
Ed
 1e-07 1 1 0
1  111 0 3.14158935820993 4.71239241956291
2  221 32 73 3.14158935820993 4.71239241956291
2  222 41 74 3.14158935820993 4.71239241956291
0

0101000
+82 75 -182 75 *
Wi

0101100
+81 0 -255 76 +80 77 -181 0 *
Fa
0  1e-07 32 0

0111000
+79 0 *
Ve
1e-07
-14.0000008291007 33.4999892341919 2.5
0 0

0101101
*
Ed
 1e-07 1 1 0
1  112 0 0 40.4999793480524
2  223 33 73 0 40.4999793480524
2  224 41 74 0 40.4999793480524
0

0101000
+82 75 -77 75 *
Ed
 1e-07 1 1 0
1  113 0 0 26.5
2  225 33 0 0 26.5
2  226 34 0 0 26.5
4 G1 33 0 34 0
0

0101000
+254 70 -77 70 *
Wi

0101100
+81 0 -253 76 +76 77 -75 0 *
Fa
0  1e-07 33 0

0111000
+74 0 *
Ed
 1e-07 1 1 0
1  114 0 1.57079271076741 3.14159624219248
2  227 34 73 1.57079271076741 3.14159624219248
2  228 41 74 1.57079271076741 3.14159624219248
0

0101000
+207 75 -77 75 *
Wi

0101100
+205 0 -251 76 +72 77 -75 0 *
Fa
0  1e-07 34 0

0111000
+71 0 *
Ve
1e-07
16.2 -18 26
0 0

0101101
*
Ed
 1e-07 1 1 0
1  115 0 0 3
3  229 230CN 35 0 0 3
0

0101000
+246 116 -69 116 *
Ed
 1e-07 1 1 0
1  116 0 0 6.28318530717959
2  231 35 119 0 6.28318530717959
2  232 50 120 0 6.28318530717959
0

0101000
+69 121 -69 121 *
Wi

0101100
-245 115 -68 0 +67 118 +68 0 *
Fa
0  1e-07 35 0

0111000
+66 0 *
Ve
1e-07
16.2 37 26
0 0

0101101
*
Ed
 1e-07 1 1 0
1  117 0 0 3
3  233 234CN 36 0 0 3
0

0101000
+243 116 -64 116 *
Ed
 1e-07 1 1 0
1  118 0 0 6.28318530717959
2  235 36 119 0 6.28318530717959
2  236 51 120 0 6.28318530717959
0

0101000
+64 121 -64 121 *
Wi

0101100
-242 115 -63 0 +62 118 +63 0 *
Fa
0  1e-07 36 0

0111000
+61 0 *
Ve
1e-07
-12.8 37 26
0 0

0101101
*
Ed
 1e-07 1 1 0
1  119 0 0 3
3  237 238CN 37 0 0 3
0

0101000
+240 116 -59 116 *
Ed
 1e-07 1 1 0
1  120 0 0 6.28318530717959
2  239 37 119 0 6.28318530717959
2  240 52 120 0 6.28318530717959
0

0101000
+59 121 -59 121 *
Wi

0101100
-239 115 -58 0 +57 118 +58 0 *
Fa
0  1e-07 37 0

0111000
+56 0 *
Ve
1e-07
-12.8 -18 26
0 0

0101101
*
Ed
 1e-07 1 1 0
1  121 0 0 3
3  241 242CN 38 0 0 3
0

0101000
+237 116 -54 116 *
Ed
 1e-07 1 1 0
1  122 0 0 6.28318530717959
2  243 38 119 0 6.28318530717959
2  244 53 120 0 6.28318530717959
0

0101000
+54 121 -54 121 *
Wi

0101100
-236 115 -53 0 +52 118 +53 0 *
Fa
0  1e-07 38 0

0111000
+51 0 *
Ve
1e-07
-12.8 -37 26
0 0

0101101
*
Ed
 1e-07 1 1 0
1  123 0 0 3
3  245 246CN 39 0 0 3
0

0101000
+234 116 -49 116 *
Ed
 1e-07 1 1 0
1  124 0 0 6.28318530717959
2  247 39 119 0 6.28318530717959
2  248 54 120 0 6.28318530717959
0

0101000
+49 121 -49 121 *
Wi

0101100
-233 115 -48 0 +47 118 +48 0 *
Fa
0  1e-07 39 0

0111000
+46 0 *
Ve
1e-07
16.2 -37 26
0 0

0101101
*
Ed
 1e-07 1 1 0
1  125 0 0 3
3  249 250CN 40 0 0 3
0

0101000
+231 116 -44 116 *
Ed
 1e-07 1 1 0
1  126 0 0 6.28318530717959
2  251 40 119 0 6.28318530717959
2  252 55 120 0 6.28318530717959
0

0101000
+44 121 -44 121 *
Wi

0101100
-230 115 -43 0 +42 118 +43 0 *
Fa
0  1e-07 40 0

0111000
+41 0 *
Wi

0101100
+76 0 -72 0 +206 0 -200 0 +196 0 -190 0 +180 0 -80 0 *
Fa
0  1e-07 41 0

0111000
+39 41 *
Ed
 1e-07 1 1 0
1  127 0 2.5 21.5
2  253 42 123 2.5 21.5
2  254 45 96 2.5 21.5
0

0101000
+90 97 -177 97 *
Wi

0101100
+85 87 -37 94 +175 87 -184 0 *
Fa
0  1e-07 42 83

0111000
+36 0 *
Ed
 1e-07 1 1 0
1  128 0 2.750541044849 7.250541044849
2  255 43 125 2.750541044849 7.250541044849
2  256 45 125 2.750541044849 7.250541044849
0

0101000
+177 90 -162 90 *
Wi

0101100
-34 87 +160 94 +166 94 +170 94 *
Fa
0  1e-07 43 124

0111000
+33 0 *
Ed
 1e-07 1 1 0
1  129 0 2.5 6.9832453435323
2  257 44 123 2.5 6.9832453435323
2  258 45 96 2.5 6.9832453435323
0

0101000
+162 97 -152 97 *
Wi

0101100
-31 94 +151 0 +155 87 *
Fa
0  1e-07 44 83

0111000
+30 0 *
Ed
 1e-07 1 1 0
1  130 0 3.416258333351 7.916258333351
2  259 45 125 3.416258333351 7.916258333351
2  260 49 125 3.416258333351 7.916258333351
0

0101000
+105 90 -90 90 *
Ed
 1e-07 1 1 0
1  131 0 17.0167544321807 21.5
2  261 45 96 17.0167544321807 21.5
2  262 48 123 17.0167544321807 21.5
0

0101000
+115 97 -105 97 *
Ed
 1e-07 1 1 0
1  132 0 -2.49999999999992 7.50000000000035
2  263 45 104 -2.49999999999992 7.50000000000035
2  264 46 103 -2.49999999999992 7.50000000000035
0

0101000
+116 92 -150 92 *
Wi

0101100
+28 87 +27 94 +114 86 -26 86 +149 86 +31 94 +34 87 +37 94 *
Fa
0  1e-07 45 124

0111000
+25 0 *
Ed
 1e-07 1 1 0
1  133 0 0 10.0000000000003
2  265 46 108 0 10.0000000000003
2  266 47 109 0 10.0000000000003
0

0101000
+110 110 -148 110 *
Wi

0101100
-26 86 +108 101 -147 101 +23 107 *
Fa
0  1e-07 46 101

0111000
+22 0 *
Wi

0101100
+120 0 -109 0 +23 0 -145 0 -139 0 -134 0 -129 0 -124 0 *
Fa
0  1e-07 47 0

0111000
+20 56 *
Wi

0101100
+103 87 +112 0 -27 94 *
Fa
0  1e-07 48 83

0111000
+18 0 *
Wi

0101100
-93 94 +98 94 -28 87 +88 94 *
Fa
0  1e-07 49 124

0111000
+16 0 *
Wi

0101100
+67 0 *
Fa
0  1e-07 50 0

0111000
+14 61 *
Wi

0101100
+62 0 *
Fa
0  1e-07 51 0

0111000
+12 61 *
Wi

0101100
+57 0 *
Fa
0  1e-07 52 0

0111000
+10 61 *
Wi

0101100
+52 0 *
Fa
0  1e-07 53 0

0111000
+8 61 *
Wi

0101100
+47 0 *
Fa
0  1e-07 54 0

0111000
+6 61 *
Wi

0101100
+42 0 *
Fa
0  1e-07 55 0

0111000
+4 61 *
Sh

0101100
+320 0 +313 33 +308 14 -228 0 +223 0 +218 0 -215 0 +212 14 +210 14 +203 0 
-198 67 +193 67 -188 67 +178 78 +173 78 +168 78 +163 98 +158 78 +153 78 -142 78 
-137 111 -132 111 -127 111 -122 111 +117 111 -106 78 +101 78 +96 78 -91 98 +86 78 
+83 78 -78 67 +73 67 -70 67 -65 114 -60 114 -55 114 -50 114 -45 114 -40 114 
-38 122 -35 78 -32 78 -29 78 -24 78 +21 78 -19 126 -17 78 -15 78 +13 127 
+11 127 +9 127 +7 127 +5 127 +3 127 *
So

1100000
+2 0 *

+1 1 