DBRep_DrawableShape

CASCADE Topology V1, (c) Matra-Datavision
Locations 10
1
              1               0               0              -0 
              0               1               0               0 
              0               0               1            13.5 
1
              1               0               0               0 
              0               1               0               0 
              0               0               1               0 
2  1 1 2 -1 0
2  2 1 1 -1 0
2  1 -1 0
1
              1               0               0              -0 
              0               1               0              -0 
              0               0               1             -15 
2  1 1 2 -1 6 1 0
2  6 -1 2 1 1 -1 0
2  2 -1 0
2  2 -1 6 1 0
Curve2ds 36
1 0 0 0 -1 
1 0 0 0 -1 
1 12.00000000005414 0 0 -1 
1 4.6857720000000002e-06 0 0 -1 
1 0 0 1 0 
1 -12.500003993834357 -8.8365272117530935 0 1 
1 0 -15 1 0 
1 -12.500003993834357 -8.8365272117530935 0 1 
1 24.999999999916017 0 0 -1 
1 0 0 0 -1 
1 0 0 1 0 
1 -12.500003993834357 -8.8365272117530935 1 -2.6825476110736978e-64 
1 0 -15 1 0 
1 -12.500003993834357 -8.8365272117530935 1 -2.6825476110736978e-64 
1 12.000000000008214 0 0 -1 
1 3.1415933807359999 0 0 -1 
1 0 0 1 0 
1 12.499996006081661 -8.8365272117530935 0 1 
1 0 -15 1 0 
1 12.499996006081661 -8.8365272117530935 0 1 
1 1.5707946815639999 0 0 -1 
1 0 0 0 -1 
1 0 0 1 0 
2 5.0000083453156439 3.1634782418429062 -1 2.6825476110736978e-64 2.6825476110736978e-64 1 7.4999876607680003
1 0 -15 1 0 
2 5.0000083453156439 3.1634782418429062 -1 2.6825476110736978e-64 2.6825476110736978e-64 1 7.4999876607680003
1 10.000000000055755 0 0 -1 
1 1.570794729368 0 0 -1 
1 0 0 1 0 
1 4.9999960061042197 10.663465902600755 -0.99999999999867539 -1.6276946848046325e-06 
1 0 -15 1 0 
1 4.9999960061042197 10.663465902600755 -0.99999999999867539 -1.6276946848046325e-06 
1 0 0 1 0 
2 -4.9999920132173559 3.1634376449549073 -1 2.6825476110736978e-64 2.6825476110736978e-64 1 7.500011980699
1 0 -15 1 0 
2 -4.9999920132173559 3.1634376449549073 -1 2.6825476110736978e-64 2.6825476110736978e-64 1 7.500011980699
Curves 18
1 12.499999999918 -35 13.5 -0 -0 -1 
1 12.499999999917831 -22.99999999994586 13.5 -0 -0 -1 
1 12.499999999918 -35 0 0 1 0 
1 12.499999999918 -35 0 0 1 0 
1 -12.499999999998018 -35 13.5 -0 -0 -1 
1 12.499999999918 -35 0 -1 0 0 
1 12.499999999918 -35 0 -1 0 0 
1 -12.499999999998018 -22.999999999991786 13.5 -0 -0 -1 
1 -12.499999999998018 -35 0 0 1 0 
1 -12.499999999998018 -35 0 0 1 0 
1 -5.0000000000205755 -15.500006885646151 13.5 -0 -0 -1 
2 -5.0000123392319997 -22.999994546404 0 0 0 1 1 0 -0 -0 1 0 7.4999876607680003
2 -5.0000123392319997 -22.999994546404 0 0 0 1 1 0 -0 -0 1 0 7.4999876607680003
1 5.0000000000219309 -15.500023162597785 13.5 -0 -0 -1 
1 -5.0000000000205755 -15.500006885646151 0 0.99999999999867539 -1.6276946848046325e-06 0 
1 -5.0000000000205755 -15.500006885646151 0 0.99999999999867539 -1.6276946848046325e-06 0 
2 4.999988019301 -23.000035143291999 0 0 0 1 1 0 -0 -0 1 0 7.500011980699
2 4.999988019301 -23.000035143291999 0 0 0 1 1 0 -0 -0 1 0 7.500011980699
Polygon3D 0
PolygonOnTriangulations 0
Surfaces 8
1 12.499999999918 -35 13.5 1 0 0 -0 1 0 0 -0 1 
1 12.499999999918 -35 13.5 0 1 -0 -1 0 0 0 0 1 
2 4.999988019301 -23.000035143291999 13.5 0 0 1 1 0 -0 -0 1 0 7.500011980699
1 -3.9939163559387778e-06 -26.163472788246906 13.499999999999998 1.6385774144160173e-32 -1.6371198501047004e-32 -1 -1 0 -1.6385774144160173e-32 2.6825476110736978e-64 1 -1.6371198501047004e-32 
1 -3.9939163559387778e-06 -26.163472788246906 13.499999999999998 1.6385774144160173e-32 -1.6371198501047004e-32 -1 -1 0 -1.6385774144160173e-32 2.6825476110736978e-64 1 -1.6371198501047004e-32 
1 -12.499999999998018 -35 13.5 1 0 0 -0 1 0 0 -0 1 
2 -5.0000123392319997 -22.999994546404 13.5 0 0 1 1 0 -0 -0 1 0 7.4999876607680003
1 -5.0000000000205755 -15.500006885646151 13.5 -1.6276946848046325e-06 -0.99999999999867539 0 0.99999999999867539 -1.6276946848046325e-06 0 0 0 1 
Triangulations 0

TShapes 48
Ve
1e-07
12.499999999918 -35 13.5
0 0

0101101
*
Ve
1e-07
12.499999999918 -35 -1.5
0 0

0101101
*
Ed
 1e-07 1 1 0
1  1 0 0 15
2  1 1 0 0 15
2  2 2 0 0 15
0

0101000
+48 0 -47 0 *
Ve
1.000001687539e-07
12.4999999999178 -22.9999999999459 13.5
0 0

0101101
*
Ve
1.000001687539e-07
12.4999999999178 -22.9999999999459 -1.5
0 0

0101101
*
Ed
 1.000001687539e-07 1 1 0
1  2 0 0 15
2  3 1 0 0 15
2  4 3 0 0 15
4 G1 1 0 3 0
0

0101000
+45 0 -44 0 *
Ed
 1e-07 1 1 0
1  3 0 0 12.0000000000541
2  5 1 4 0 12.0000000000541
2  6 4 5 0 12.0000000000541
0

0101000
+48 4 -45 4 *
Ed
 1e-07 1 1 0
1  4 0 0 12.0000000000541
2  7 1 8 0 12.0000000000541
2  8 5 5 0 12.0000000000541
0

0101000
+47 8 -44 8 *
Wi

0101100
+46 0 -43 0 -42 3 +41 7 *
Fa
0  1e-07 1 0

0111000
+40 0 *
Ve
1e-07
-12.499999999998 -35 13.5
0 0

0101101
*
Ve
1e-07
-12.499999999998 -35 -1.5
0 0

0101101
*
Ed
 1e-07 1 1 0
1  5 0 0 15
2  9 2 0 0 15
2  10 6 0 0 15
0

0101000
+38 0 -37 0 *
Ed
 1e-07 1 1 0
1  6 0 0 24.999999999916
2  11 2 4 0 24.999999999916
2  12 4 5 0 24.999999999916
0

0101000
+48 4 -38 4 *
Ed
 1e-07 1 1 0
1  7 0 0 24.999999999916
2  13 2 8 0 24.999999999916
2  14 5 5 0 24.999999999916
0

0101000
+47 8 -37 8 *
Wi

0101100
+46 0 -36 0 -35 3 +34 7 *
Fa
0  1e-07 2 0

0111000
+33 0 *
Ve
1.00000211386464e-07
-12.499999999998 -22.9999999999918 13.5
0 0

0101101
*
Ve
1.00000211386464e-07
-12.499999999998 -22.9999999999918 -1.5
0 0

0101101
*
Ed
 1.00000211386464e-07 1 1 0
1  8 0 0 15
2  15 6 0 0 15
2  16 7 0 0 15
4 G1 6 0 7 0
0

0101000
+31 0 -30 0 *
Ed
 1e-07 1 1 0
1  9 0 0 12.000000000008
2  17 6 4 0 12.000000000008
2  18 4 5 0 12.000000000008
0

0101000
+38 4 -31 4 *
Ed
 1e-07 1 1 0
1  10 0 0 12.000000000008
2  19 6 8 0 12.000000000008
2  20 5 5 0 12.000000000008
0

0101000
+37 8 -30 8 *
Wi

0101100
+36 0 -29 0 -28 3 +27 7 *
Fa
0  1e-07 6 0

0111000
+26 0 *
Ve
1e-07
-5.00000000002058 -15.5000068856462 13.5
0 0

0101101
*
Ve
1e-07
-5.00000000002058 -15.5000068856462 -1.5
0 0

0101101
*
Ed
 1e-07 1 1 0
1  11 0 0 15
2  21 7 0 0 15
2  22 8 0 0 15
4 G1 7 0 8 0
0

0101000
+24 0 -23 0 *
Ed
 1e-07 1 1 0
1  12 0 1.570794681564 3.141593380736
2  23 7 4 1.570794681564 3.141593380736
2  24 4 5 1.570794681564 3.141593380736
0

0101000
+24 4 -31 4 *
Ed
 1e-07 1 1 0
1  13 0 1.570794681564 3.141593380736
2  25 7 8 1.570794681564 3.141593380736
2  26 5 5 1.570794681564 3.141593380736
0

0101000
+23 8 -30 8 *
Wi

0101100
+22 0 -29 0 -21 3 +20 7 *
Fa
0  1e-07 7 0

0111000
+19 0 *
Ve
1.0000478511226e-07
5.00000000002193 -15.5000231625978 13.5
0 0

0101101
*
Ve
1.0000478511226e-07
5.00000000002193 -15.5000231625978 -1.5
0 0

0101101
*
Ed
 1.0000478511226e-07 1 1 0
1  14 0 0 15
2  27 8 0 0 15
2  28 3 0 0 15
4 G1 8 0 3 0
0

0101000
+17 0 -16 0 *
Ed
 1e-07 1 1 0
1  15 0 0 10.0000000000558
2  29 8 4 0 10.0000000000558
2  30 4 5 0 10.0000000000558
0

0101000
+24 4 -17 4 *
Ed
 1e-07 1 1 0
1  16 0 0 10.0000000000558
2  31 8 8 0 10.0000000000558
2  32 5 5 0 10.0000000000558
0

0101000
+23 8 -16 8 *
Wi

0101100
+22 0 -15 0 -14 3 +13 7 *
Fa
0  1e-07 8 0

0111000
+12 0 *
Ed
 1e-07 1 1 0
1  17 0 4.685772e-06 1.570794729368
2  33 3 4 4.685772e-06 1.570794729368
2  34 4 5 4.685772e-06 1.570794729368
0

0101000
+45 4 -17 4 *
Ed
 1e-07 1 1 0
1  18 0 4.685772e-06 1.570794729368
2  35 3 8 4.685772e-06 1.570794729368
2  36 5 5 4.685772e-06 1.570794729368
0

0101000
+44 8 -16 8 *
Wi

0101100
+43 0 -15 0 -10 3 +9 7 *
Fa
0  1e-07 3 0

0111000
+8 0 *
Wi

0101100
-42 0 +35 0 +28 0 -21 0 +14 0 -10 0 *
Fa
0  1e-07 4 0

0111000
+6 1 *
Wi

0101100
-41 0 +34 0 +27 0 -20 0 +13 0 -9 0 *
Fa
0  1e-07 5 0

0111000
+4 1 *
Sh

0101100
-39 0 +32 0 +25 0 -18 0 +11 0 -7 0 +5 9 -3 10 *
So

1100000
-2 0 *

+1 0 