DBRep_DrawableShape

CASCADE Topology V1, (c) Matra-Datavision
Locations 10
1
              1              -0               0              -0 
              0 2.22044604925031e-16              -1             -33 
              0               1 2.22044604925031e-16              -0 
1
              1               0               0               0 
              0               1               0               0 
              0               0               1               0 
2  1 1 2 -1 0
2  2 1 1 -1 0
2  1 -1 0
1
              1               0               0               0 
              0               1               0               5 
              0               0               1 -1.11022302462516e-15 
2  1 1 2 -1 6 1 0
2  6 -1 2 1 1 -1 0
2  2 -1 0
2  2 -1 6 1 0
Curve2ds 6
1 0 0 0 -1 
1 6.2831853071795862 0 0 -1 
1 0 0 1 0 
2 0 1.7093001656742791e-16 0 1 -1 0 3
1 0 -5 1 0 
2 0 1.7093001656742791e-16 0 1 -1 0 3
Curves 3
1 3 -33 8 0 1 -2.2204460492503131e-16 
2 0 8 0 0 0 1 1 0 -0 -0 1 0 3
2 0 8 0 0 0 1 1 0 -0 -0 1 0 3
Polygon3D 0
PolygonOnTriangulations 0
Surfaces 3
2 0 -33 8 0 -1 2.2204460492503131e-16 1 0 0 -0 2.2204460492503131e-16 1 3
1 -1.7093001656742791e-16 -33.000000000000007 8 1.2154326714572542e-62 -1 -5.189994312314139e-47 0 5.189994312314139e-47 -1 1 1.2154326714572542e-62 6.3080886518639285e-109 
1 -1.7093001656742791e-16 -33.000000000000007 8 1.2154326714572542e-62 -1 -5.189994312314139e-47 0 5.189994312314139e-47 -1 1 1.2154326714572542e-62 6.3080886518639285e-109 
Triangulations 0

TShapes 13
Ve
1e-07
3 -33 8
0 0

0101101
*
Ve
1e-07
3 -28 8
0 0

0101101
*
Ed
 1e-07 1 1 0
1  1 0 0 5
3  1 2CN 1 0 0 5
0

0101000
+13 0 -12 0 *
Ed
 1e-07 1 1 0
1  2 0 0 6.28318530717959
2  3 1 4 0 6.28318530717959
2  4 2 5 0 6.28318530717959
0

0101000
+13 4 -13 4 *
Ed
 1e-07 1 1 0
1  3 0 0 6.28318530717959
2  5 1 8 0 6.28318530717959
2  6 3 5 0 6.28318530717959
0

0101000
+12 8 -12 8 *
Wi

0101100
+11 0 -11 0 -10 3 +9 7 *
Fa
0  1e-07 1 0

0111000
+8 0 *
Wi

0101100
+10 0 *
Fa
0  1e-07 2 0

0111000
+6 1 *
Wi

0101100
+9 0 *
Fa
0  1e-07 3 0

0111000
+4 1 *
Sh

0101100
+7 0 +5 9 -3 10 *
So

1100000
+2 0 *

+1 0 