DBRep_DrawableShape

CASCADE Topology V1, (c) Matra-Datavision
Locations 11
1
              1               0               0               0 
              0               1               0               0 
              0               0               1               0 
1
              1               0               0               0 
              0               1               0               0 
              0               0               1               0 
1
              1               0               0              -0 
              0               1               0              -0 
              0               0               1           -13.5 
2  1 1 2 -1 3 1 0
2  3 -1 2 1 1 -1 0
2  1 -1 0
1
              1               0               0               0 
              0               1               0               0 
              0               0               1              27 
2  1 1 2 -1 3 1 7 1 0
2  7 -1 3 -1 2 1 1 -1 0
2  2 -1 3 1 0
2  2 -1 3 1 7 1 0
Curve2ds 24
1 0 0 0 -1 
1 80 0 0 -1 
1 35 0 0 -1 
1 0 0 0 -1 
1 0 0 1 0 
1 0 0 1 0 
1 0 -27 1 0 
1 0 0 1 0 
1 80 0 0 -1 
1 0 -0 0 -1 
1 0 0 1 0 
1 35 0 0 -1 
1 0 -27 1 0 
1 35 0 0 -1 
1 35 0 0 -1 
1 0 0 0 -1 
1 0 -0 1 0 
1 35 -80 -1 0 
1 0 -27 1 0 
1 35 -80 -1 0 
1 0 0 1 0 
1 0 -80 0 1 
1 0 -27 1 0 
1 0 -80 0 1 
Curves 12
1 -17.5 40 -13.5 0 0 1 
1 17.5 40 -13.5 0 0 1 
1 -17.5 40 0 1 0 0 
1 -17.5 40 0 1 0 0 
1 17.5 -40 -13.5 0 0 1 
1 17.5 40 0 0 -1 0 
1 17.5 40 0 0 -1 0 
1 -17.5 -40 -13.5 0 0 1 
1 17.5 -40 0 -1 0 0 
1 17.5 -40 0 -1 0 0 
1 -17.5 -40 0 0 1 0 
1 -17.5 -40 0 0 1 0 
Polygon3D 0
PolygonOnTriangulations 0
Surfaces 6
1 -17.5 40 -13.5 0 1 0 1 0 0 0 0 -1 
1 -17.5 -40 -13.5 -1 0 0 0 1 0 0 0 -1 
1 17.5 40 -13.5 1 0 -0 0 -1 0 0 -0 -1 
1 -17.5 40 0 -0 0 1 1 0 0 0 1 -0 
1 -17.5 40 0 -0 0 1 1 0 0 0 1 -0 
1 17.5 -40 -13.5 0 -1 0 -1 0 0 -0 -0 -1 
Triangulations 0

TShapes 34
Ve
1e-07
-17.5 40 -13.5
0 0

0101101
*
Ve
1e-07
-17.5 40 13.5
0 0

0101101
*
Ed
 1e-07 1 1 0
1  1 0 0 27
2  1 1 0 0 27
2  2 2 0 0 27
0

0101000
+34 0 -33 0 *
Ve
1e-07
17.5 40 -13.5
0 0

0101101
*
Ve
1e-07
17.5 40 13.5
0 0

0101101
*
Ed
 1e-07 1 1 0
1  2 0 0 27
2  3 1 0 0 27
2  4 3 0 0 27
0

0101000
+31 0 -30 0 *
Ed
 1e-07 1 1 0
1  3 0 0 35
2  5 1 5 0 35
2  6 4 6 0 35
0

0101000
+34 5 -31 5 *
Ed
 1e-07 1 1 0
1  4 0 0 35
2  7 1 9 0 35
2  8 5 6 0 35
0

0101000
+33 9 -30 9 *
Wi

0101000
+32 0 -29 0 -28 4 +27 8 *
Fa
0  1e-07 1 0

0111000
+26 0 *
Ve
1e-07
17.5 -40 -13.5
0 0

0101101
*
Ve
1e-07
17.5 -40 13.5
0 0

0101101
*
Ed
 1e-07 1 1 0
1  5 0 0 27
2  9 3 0 0 27
2  10 6 0 0 27
0

0101000
+24 0 -23 0 *
Ed
 1e-07 1 1 0
1  6 0 0 80
2  11 3 5 0 80
2  12 4 6 0 80
0

0101000
+31 5 -24 5 *
Ed
 1e-07 1 1 0
1  7 0 0 80
2  13 3 9 0 80
2  14 5 6 0 80
0

0101000
+30 9 -23 9 *
Wi

0101000
+29 0 -22 0 -21 4 +20 8 *
Fa
0  1e-07 3 0

0111000
+19 0 *
Ve
1e-07
-17.5 -40 -13.5
0 0

0101101
*
Ve
1e-07
-17.5 -40 13.5
0 0

0101101
*
Ed
 1e-07 1 1 0
1  8 0 0 27
2  15 6 0 0 27
2  16 2 0 0 27
0

0101000
+17 0 -16 0 *
Ed
 1e-07 1 1 0
1  9 0 0 35
2  17 6 5 0 35
2  18 4 6 0 35
0

0101000
+24 5 -17 5 *
Ed
 1e-07 1 1 0
1  10 0 0 35
2  19 6 9 0 35
2  20 5 6 0 35
0

0101000
+23 9 -16 9 *
Wi

0101000
+22 0 -15 0 -14 4 +13 8 *
Fa
0  1e-07 6 0

0111000
+12 0 *
Ed
 1e-07 1 1 0
1  11 0 0 80
2  21 2 5 0 80
2  22 4 6 0 80
0

0101000
+17 5 -34 5 *
Ed
 1e-07 1 1 0
1  12 0 0 80
2  23 2 9 0 80
2  24 5 6 0 80
0

0101000
+16 9 -33 9 *
Wi

0101000
+15 0 -32 0 -10 4 +9 8 *
Fa
0  1e-07 2 0

0111000
+8 0 *
Wi

0101100
+28 0 +21 0 +14 0 +10 0 *
Fa
0  1e-07 4 0

0111000
-6 1 *
Wi

0101100
+27 0 +20 0 +13 0 +9 0 *
Fa
0  1e-07 5 0

0111000
-4 1 *
Sh

0101100
-25 0 -18 0 -11 0 -7 0 +5 10 -3 11 *
So

1100100
-2 0 *

+1 0 