DBRep_DrawableShape

CASCADE Topology V1, (c) Matra-Datavision
Locations 10
1
              1               0               0               0 
              0              -1               0              -0 
              0               0              -1              13 
1
              1               0               0               0 
              0               1               0               0 
              0               0               1               0 
2  1 1 2 -1 0
2  2 1 1 -1 0
2  1 -1 0
1
              1               0               0               0 
              0               1               0               0 
              0               0               1               1 
2  1 1 2 -1 6 1 0
2  6 -1 2 1 1 -1 0
2  2 -1 0
2  2 -1 6 1 0
Curve2ds 6
1 0 0 0 -1 
1 6.2831853071795862 0 0 -1 
1 0 0 1 0 
2 -7.8139436145109895e-16 3.5527136788005009e-15 -1 0 -0 -1 7
1 0 -1 1 0 
2 -7.8139436145109895e-16 3.5527136788005009e-15 -1 0 -0 -1 7
Curves 3
1 7 -22.5 13 0 0 1 
2 0 22.5 0 0 0 1 1 0 -0 -0 1 0 7
2 0 22.5 0 0 0 1 1 0 -0 -0 1 0 7
Polygon3D 0
PolygonOnTriangulations 0
Surfaces 3
2 0 -22.5 13 0 0 -1 1 0 0 0 -1 0 7
1 -7.8139436145109895e-16 -22.500000000000004 13 -0 -0 -1 -1 0 0 0 1 -0 
1 -7.8139436145109895e-16 -22.500000000000004 13 -0 -0 -1 -1 0 0 0 1 -0 
Triangulations 0

TShapes 13
Ve
1e-07
7 -22.5 13
0 0

0101101
*
Ve
1e-07
7 -22.5 14
0 0

0101101
*
Ed
 1e-07 1 1 0
1  1 0 0 1
3  1 2CN 1 0 0 1
0

0101000
+13 0 -12 0 *
Ed
 1e-07 1 1 0
1  2 0 0 6.28318530717959
2  3 1 4 0 6.28318530717959
2  4 2 5 0 6.28318530717959
0

0101000
+13 4 -13 4 *
Ed
 1e-07 1 1 0
1  3 0 0 6.28318530717959
2  5 1 8 0 6.28318530717959
2  6 3 5 0 6.28318530717959
0

0101000
+12 8 -12 8 *
Wi

0101100
+11 0 -11 0 -10 3 +9 7 *
Fa
0  1e-07 1 0

0111000
+8 0 *
Wi

0101100
+10 0 *
Fa
0  1e-07 2 0

0111000
+6 1 *
Wi

0101100
+9 0 *
Fa
0  1e-07 3 0

0111000
+4 1 *
Sh

0101100
+7 0 +5 9 -3 10 *
So

1100000
+2 0 *

+1 0 