DBRep_DrawableShape

CASCADE Topology V1, (c) Matra-Datavision
Locations 93
1
              1               0               0               0 
              0               1               0               0 
              0               0               1               0 
1
              1               0               0               0 
              0               1               0               0 
              0               0               1               0 
1
              1               0               0               0 
              0               1               0               0 
              0               0               1               0 
1
              1               0               0               0 
              0               1               0               0 
              0               0               1               0 
1
              1               0               0               0 
              0               1               0               0 
              0               0               1               0 
1
              1               0               0               0 
              0               1               0               0 
              0               0               1               0 
1
              1               0               0               0 
              0               1               0               0 
              0               0               1               0 
2  2 1 3 -1 4 1 5 -1 6 1 7 1 0
1
              1               0               0               0 
              0               1               0               0 
              0               0               1               0 
1
              1               0               0              -0 
              0               1               0              -0 
              0               0               1           -13.5 
1
              1               0               0               0 
              0               1               0               0 
              0               0               1              27 
1
              1               0               0               0 
              0               1               0               0 
              0               0               1               0 
1
              1               0               0               0 
              0               1               0               0 
              0               0               1               0 
1
              1               0               0               0 
              0               1               0               0 
              0               0               1               0 
1
              1               0               0               0 
              0               1               0               0 
              0               0               1               0 
2  9 -1 10 1 11 1 12 1 13 -1 14 1 15 -1 0
2  7 -1 6 -1 5 1 4 -1 3 1 2 -1 0
1
              1               0               0              -0 
              0               1               0               0 
              0               0               1            13.5 
2  18 1 13 -1 14 1 15 -1 2 1 3 -1 4 1 5 -1 6 1 7 1 0
2  9 -1 10 1 11 1 12 1 18 -1 0
2  13 1 18 -1 0
2  1 -1 7 -1 6 -1 5 1 4 -1 3 1 2 -1 15 1 14 -1 13 1 18 -1 0
2  9 -1 10 1 11 1 12 1 13 -1 14 1 15 -1 2 1 3 -1 4 1 5 -1 6 1 7 1 0
2  1 -1 0
2  9 -1 10 1 11 1 12 1 13 -1 14 1 15 -1 2 1 3 -1 4 1 5 -1 6 1 0
2  1 -1 7 -1 0
1
              1               0               0               0 
              0               1               0               0 
              0               0               1               0 
2  27 1 9 -1 10 1 11 1 12 1 13 -1 14 1 15 -1 0
2  27 -1 0
2  11 -1 10 -1 9 1 27 -1 0
2  1 -1 7 -1 6 -1 5 1 4 -1 3 1 2 -1 15 1 14 -1 13 1 12 -1 11 -1 10 -1 9 1 27 -1 0
1
              1               0               0              -0 
              0               1               0               0 
              0               0               1            13.5 
2  32 1 15 -1 0
2  9 -1 10 1 11 1 12 1 13 -1 14 1 32 -1 0
2  15 1 32 -1 0
2  1 -1 7 -1 6 -1 5 1 4 -1 3 1 2 -1 15 1 32 -1 0
2  14 1 15 -1 2 1 3 -1 4 1 5 -1 6 1 7 1 0
2  7 -1 6 -1 5 1 4 -1 3 1 2 -1 15 1 14 -1 0
2  14 1 15 -1 2 1 3 -1 4 1 5 -1 6 1 0
1
              1               0               0              -0 
              0               1               0              -0 
              0               0               1           -23.5 
2  18 1 13 -1 40 1 14 1 15 -1 2 1 3 -1 4 1 5 -1 6 1 7 1 0
2  40 -1 13 1 18 -1 0
2  18 -1 0
2  1 -1 7 -1 6 -1 5 1 4 -1 3 1 2 -1 15 1 14 -1 40 -1 13 1 18 -1 0
2  13 -1 40 1 14 1 15 -1 2 1 3 -1 4 1 5 -1 6 1 7 1 0
2  13 -1 40 1 14 1 15 -1 2 1 3 -1 4 1 5 -1 6 1 0
2  1 -1 7 -1 6 -1 5 1 4 -1 3 1 2 -1 15 1 14 -1 0
2  6 -1 5 1 4 -1 3 1 2 -1 15 1 14 -1 0
2  18 1 13 -1 14 1 15 -1 2 1 3 -1 4 1 5 -1 6 1 0
2  18 1 13 -1 40 1 14 1 15 -1 2 1 3 -1 4 1 5 -1 6 1 0
2  18 1 13 -1 0
2  18 1 13 -1 40 1 0
2  12 1 13 -1 14 1 15 -1 2 1 3 -1 4 1 5 -1 6 1 7 1 0
2  1 -1 7 -1 6 -1 5 1 4 -1 3 1 2 -1 15 1 14 -1 13 1 12 -1 0
2  27 1 9 -1 10 1 0
2  10 -1 9 1 27 -1 0
2  1 -1 7 -1 6 -1 5 1 4 -1 3 1 2 -1 15 1 14 -1 13 1 12 -1 10 -1 9 1 27 -1 0
2  27 1 9 -1 10 1 11 1 0
2  1 -1 7 -1 6 -1 5 1 4 -1 3 1 2 -1 0
1
              1               0               0              -0 
              0               1               0              -0 
              0               0               1             -15 
2  32 1 15 -1 60 1 0
2  60 -1 15 1 32 -1 0
2  32 -1 0
2  1 -1 7 -1 6 -1 5 1 4 -1 3 1 2 -1 60 -1 15 1 32 -1 0
2  6 1 7 1 0
2  2 1 3 -1 4 1 5 -1 0
2  32 1 15 -1 2 1 3 -1 4 1 5 -1 0
2  32 1 15 -1 60 1 2 1 3 -1 4 1 5 -1 0
2  5 1 4 -1 3 1 2 -1 60 -1 15 1 32 -1 0
2  7 -1 6 -1 5 1 4 -1 3 1 2 -1 15 1 14 -1 40 -1 13 1 0
2  4 1 5 -1 6 1 7 1 0
2  9 -1 10 1 12 1 13 -1 14 1 15 -1 2 1 3 -1 0
2  27 1 9 -1 10 1 12 1 13 -1 14 1 15 -1 2 1 3 -1 0
1
              1               0               0              -0 
              0              -1               0              -0 
              0               0              -1           -13.5 
2  74 1 3 -1 0
2  9 -1 10 1 12 1 13 -1 14 1 15 -1 2 1 74 -1 0
2  3 1 74 -1 0
2  1 -1 7 -1 6 -1 5 1 4 -1 3 1 74 -1 0
2  15 -1 60 1 2 1 3 -1 4 1 5 -1 0
2  1 -1 7 -1 6 -1 0
2  1 -1 7 -1 6 -1 5 1 4 -1 0
1
              1               0               0               0 
              0               1               0               0 
              0               0               1              11 
2  74 1 3 -1 82 1 0
2  82 -1 3 1 74 -1 0
2  74 -1 0
2  1 -1 7 -1 6 -1 5 1 4 -1 82 -1 3 1 74 -1 0
1
              1               0               0              -0 
              0              -1               0              -0 
              0               0              -1            -2.5 
2  87 1 5 -1 0
2  5 1 87 -1 0
2  3 -1 82 1 4 1 87 -1 0
2  1 -1 7 -1 6 -1 5 1 87 -1 0
2  3 -1 82 1 4 1 5 -1 0
2  74 1 3 -1 82 1 4 1 5 -1 0
Curve2ds 116
1 3.5 -3.5 1 0 
1 0 0 1 0 
2 6.5 -6.5 0 1 -1 0 3
1 0 0 1 0 
2 28.5 -6.5 0 1 1 -0 3
1 0 0 1 0 
1 3.5 -50 0 1 
1 0 0 1 0 
1 31.5 -3.5 0 -1 
1 0 0 1 0 
1 31.5 -50 -1 -6.3441315692866085e-17 
1 0 0 1 0 
1 0 0 1 0 
1 0 -27 1 0 
1 0 -80 0 1 
1 0 -27 1 0 
1 35 0 0 -1 
1 0 -27 1 0 
1 35 -80 -1 0 
1 0 -27 1 0 
2 12.499987660767999 -62.999994546403997 1 0 -0 1 7.4999876607680003
1 0 0 1 0 
1 5.0000000000019824 -75 0 1 
1 0 0 1 0 
1 29.999999999918 -75 -1 0 
1 0 0 1 0 
1 29.999999999918 -75 0 1 
1 0 0 1 0 
2 22.499988019301 -63.000035143291996 1 0 -0 1 7.500011980699
1 0 0 1 0 
1 12.499999999979424 -55.500006885646151 0.99999999999867539 -1.6276946848046325e-06 
1 0 0 1 0 
1 3 0 -0 -1 
1 0 0 0 1 
1 25 0 -0 -1 
1 0 0 0 1 
1 0 -23.5 1 0 
1 14 23.25 -1 0 
1 1.5707963267948966 0 0 1 
1 43.5 0 -0 -1 
1 0 23.5 1 0 
2 11 20.25 0 1 1 -0 3
1 1.5707963267948966 0 0 1 
1 3 0 0 -1 
1 0 23.5 1 0 
2 -11 20.25 0 1 -1 0 3
1 0 0 0 -1 
1 28 0 0 -1 
1 0 -23.5 1 0 
1 14 -23.25 0 1 
1 46.5 0 0 -1 
1 0 0 0 -1 
1 0 -23.5 1 0 
1 -14 23.25 0 -1 
1 -0 -23.5 1 0 
1 -14 -23.25 1 -6.3441315692866085e-17 
1 0 0 0 -1 
1 80 0 0 -1 
1 35 0 0 -1 
1 0 0 0 -1 
1 0 0 1 0 
1 0 0 1 0 
1 0 0 0 -1 
1 35 0 0 -1 
1 0 0 1 0 
1 0 -80 0 1 
1 80 0 0 -1 
1 0 -0 0 -1 
1 0 0 1 0 
1 35 0 0 -1 
1 0 -0 1 0 
1 35 -80 -1 0 
1 1.5707946815639999 0 0 -1 
1 0 0 0 -1 
1 0 -15 1 0 
2 5.0000083453156439 3.1634782418429062 -1 2.6825476110736978e-64 2.6825476110736978e-64 1 7.4999876607680003
1 3.1415933807359999 0 0 -1 
1 12.000000000008214 0 0 -1 
1 0 0 0 -1 
1 24.999999999916017 0 0 -1 
1 0 -15 1 0 
1 12.499996006081661 -8.8365272117530935 0 1 
1 0 0 0 -1 
1 0 0 0 -1 
1 0 -15 1 0 
1 -12.500003993834357 -8.8365272117530935 1 -2.6825476110736978e-64 
1 0 -15 1 0 
1 -12.500003993834357 -8.8365272117530935 0 1 
1 12.00000000005414 0 0 -1 
1 4.6857720000000002e-06 0 0 -1 
1 0 -15 1 0 
2 -4.9999920132173559 3.1634376449549073 -1 2.6825476110736978e-64 2.6825476110736978e-64 1 7.500011980699
1 1.570794729368 0 0 -1 
1 10.000000000055755 0 0 -1 
1 0 -15 1 0 
1 4.9999960061042197 10.663465902600755 -0.99999999999867539 -1.6276946848046325e-06 
1 0 -15 1 0 
1 4.9999960061042197 10.663465902600755 -0.99999999999867539 -1.6276946848046325e-06 
1 0 -15 1 0 
1 4.9999960061042197 10.663465902600755 -0.99999999999867539 -1.6276946848046325e-06 
2 17.5 -62.5 1 0 0 -1 8
1 0 0 1 0 
2 -3.9939163559387778e-06 3.6634727882469065 -1 2.6825476110736978e-64 -2.6825476110736978e-64 -1 7
1 0 -0.99999999999999822 1 0 
2 -3.9939163559387778e-06 3.6634727882469065 -1 2.6825476110736978e-64 -2.6825476110736978e-64 -1 7
1 0 -0.99999999999999822 1 0 
2 -3.9939163559387778e-06 3.6634727882469065 -1 2.6825476110736978e-64 -2.6825476110736978e-64 -1 7
1 0 -0.99999999999999822 1 0 
1 0 0 0 -1 
1 6.2831853071795862 0 0 -1 
1 0 -11 1 0 
2 -6.8372006626971174e-16 3.5527136788005009e-15 -1 0 -0 -1 8
1 0 0 0 -1 
1 6.2831853071795862 0 0 -1 
1 0 0 1 0 
2 -6.8372006626971174e-16 3.5527136788005009e-15 -1 0 -0 -1 7
Curves 58
1 -14 36.5 0 1 0 0 
8 0 1.5707963267948966
2 -11 33.5 13.5 0 0 1 0 1 -0 -1 0 0 3
8 0 1.5707963267948966
2 11 33.5 13.5 -0 -0 -1 0 1 -0 1 -0 0 3
1 -14 -10.000000000000002 0 0 1 0 
1 14 36.5 0 0 -1 0 
1 14 -10 0 -1 -6.3441315692866085e-17 0 
1 -17.5 40 0 1 0 0 
1 -17.5 -40 0 0 1 0 
1 17.5 40 0 0 -1 0 
1 17.5 -40 0 -1 0 0 
2 -5.0000123392319997 -22.999994546404 0 0 0 1 1 0 -0 -0 1 0 7.4999876607680003
1 -12.499999999998018 -35 0 0 1 0 
1 12.499999999918 -35 0 -1 0 0 
1 12.499999999918 -35 0 0 1 0 
2 4.999988019301 -23.000035143291999 0 0 0 1 1 0 -0 -0 1 0 7.500011980699
1 -5.0000000000205755 -15.500006885646151 0 0.99999999999867539 -1.6276946848046325e-06 0 
1 -11 36.5 13.5 -0 -0 -1 
1 11 36.5 13.5 -0 -0 -1 
1 -14 36.5 0 1 0 0 
1 -14 33.5 13.5 -0 -0 -1 
8 0 1.5707963267948966
2 -11 33.5 -10 0 0 1 0 1 -0 -1 0 0 3
1 14 33.5 13.5 -0 -0 -1 
8 0 1.5707963267948966
2 11 33.5 -10 -0 -0 -1 0 1 -0 1 -0 0 3
1 -14 -10.000000000000002 13.5 -0 -0 -1 
1 -14 -10.000000000000002 0 0 1 0 
1 14 -10 13.5 -0 -0 -1 
1 14 36.5 0 0 -1 0 
1 14 -10 0 -1 -6.3441315692866085e-17 0 
1 -17.5 40 -13.5 0 0 1 
1 17.5 40 -13.5 0 0 1 
1 -17.5 40 0 1 0 0 
1 -17.5 -40 -13.5 0 0 1 
1 -17.5 -40 0 0 1 0 
1 17.5 -40 -13.5 0 0 1 
1 17.5 40 0 0 -1 0 
1 17.5 -40 0 -1 0 0 
1 -5.0000000000205755 -15.500006885646151 13.5 -0 -0 -1 
2 -5.0000123392319997 -22.999994546404 0 0 0 1 1 0 -0 -0 1 0 7.4999876607680003
1 -12.499999999998018 -22.999999999991786 13.5 -0 -0 -1 
1 -12.499999999998018 -35 13.5 -0 -0 -1 
1 -12.499999999998018 -35 0 0 1 0 
1 12.499999999918 -35 13.5 -0 -0 -1 
1 12.499999999918 -35 0 -1 0 0 
1 12.499999999918 -35 0 0 1 0 
1 12.499999999917831 -22.99999999994586 13.5 -0 -0 -1 
2 4.999988019301 -23.000035143291999 0 0 0 1 1 0 -0 -0 1 0 7.500011980699
1 5.0000000000219309 -15.500023162597785 13.5 -0 -0 -1 
1 -5.0000000000205755 -15.500006885646151 0 0.99999999999867539 -1.6276946848046325e-06 0 
1 -5.0000000000205755 -15.500006885646151 0 0.99999999999867539 -1.6276946848046325e-06 0 
1 -5.0000000000205755 -15.500006885646151 0 0.99999999999867539 -1.6276946848046325e-06 0 
2 0 22.5 0 0 0 1 1 0 -0 -0 1 0 8
2 0 -22.5 -1.5000000000000018 0 0 -1 1 0 0 0 -1 0 7
2 0 -22.5 -1.5000000000000018 0 0 -1 1 0 0 0 -1 0 7
2 0 -22.5 -1.5000000000000018 0 0 -1 1 0 0 0 -1 0 7
1 8 -22.5 -13.5 0 0 1 
2 0 22.5 0 0 0 1 1 0 -0 -0 1 0 8
1 7 -22.5 -2.5 0 0 1 
2 0 22.5 0 0 0 1 1 0 -0 -0 1 0 7
Polygon3D 0
PolygonOnTriangulations 0
Surfaces 24
1 -17.5 40 0 -0 0 1 1 0 0 0 1 -0 
1 -14 36.5 13.5 0 -1 0 1 0 0 -0 0 1 
2 -11 33.5 13.5 -0 -0 -1 0 1 -0 -1 0 -0 3
2 11 33.5 13.5 -0 -0 -1 0 1 -0 1 -0 0 3
1 -14 -10.000000000000002 13.5 1 0 0 -0 1 0 0 -0 1 
1 14 36.5 13.5 -1 0 0 0 -1 0 0 0 1 
1 14 -10 13.5 -6.3441315692866085e-17 1 0 -1 -6.3441315692866085e-17 0 0 0 1 
1 -17.5 40 -13.5 0 1 0 1 0 0 0 0 -1 
1 -17.5 -40 -13.5 -1 0 0 0 1 0 0 0 -1 
1 17.5 40 -13.5 1 0 -0 0 -1 0 0 -0 -1 
1 17.5 -40 -13.5 0 -1 0 -1 0 0 -0 -0 -1 
2 -5.0000123392319997 -22.999994546404 13.5 0 0 1 1 0 -0 -0 1 0 7.4999876607680003
1 -12.499999999998018 -35 13.5 1 0 0 -0 1 0 0 -0 1 
1 12.499999999918 -35 13.5 0 1 -0 -1 0 0 0 0 1 
1 12.499999999918 -35 13.5 1 0 0 -0 1 0 0 -0 1 
2 4.999988019301 -23.000035143291999 13.5 0 0 1 1 0 -0 -0 1 0 7.500011980699
1 -5.0000000000205755 -15.500006885646151 13.5 -1.6276946848046325e-06 -0.99999999999867539 0 0.99999999999867539 -1.6276946848046325e-06 0 0 0 1 
1 0 13.25 13.5 -0 -0 -1 -1 0 0 0 1 -0 
1 -17.5 40 0 -0 0 1 1 0 0 0 1 -0 
1 -3.9939163559387778e-06 -26.163472788246906 13.499999999999998 1.6385774144160173e-32 -1.6371198501047004e-32 -1 -1 0 -1.6385774144160173e-32 2.6825476110736978e-64 1 -1.6371198501047004e-32 
10 -931.50219382871126 931.50218584087861 -927.83871704654803 980.16566262304184
1 -3.9939163559387778e-06 -26.163472788246906 -1.5000000000000018 1.6385774144160173e-32 -1.6371198501047004e-32 -1 -1 0 -1.6385774144160173e-32 2.6825476110736978e-64 1 -1.6371198501047004e-32 
2 0 -22.5 -13.5 0 0 -1 1 0 0 0 -1 0 8
2 0 -22.5 -2.5 0 0 -1 1 0 0 0 -1 0 7
1 -6.8372006626971174e-16 -22.500000000000004 -13.5 -0 -0 -1 -1 0 0 0 1 -0 
Triangulations 0

TShapes 151
Ve
1e-07
-11 36.5 13.5
0 0

0101101
*
Ve
1e-07
11 36.5 13.5
0 0

0101101
*
Ed
 1e-07 1 1 0
1  1 0 3 25
2  1 1 20 3 25
2  2 2 21 3 25
0

0101000
+151 22 -150 22 *
Ve
1e-07
-14 33.5 13.5
0 0

0101101
*
Ed
 1e-07 1 1 0
1  2 0 0 1.5707963267949
2  3 1 23 0 1.5707963267949
2  4 3 0 0 1.5707963267949
0

0101000
+151 24 -148 24 *
Ve
1e-07
14 33.5 13.5
0 0

0101101
*
Ed
 1e-07 1 1 0
1  3 0 0 1.5707963267949
2  5 1 25 0 1.5707963267949
2  6 4 0 0 1.5707963267949
0

0101000
+150 26 -146 26 *
Ve
1e-07
-14 -10 13.5
0 0

0101101
*
Ed
 1e-07 1 1 0
1  4 0 0 43.5
2  7 1 20 0 43.5
2  8 5 21 0 43.5
0

0101000
-148 22 +144 22 *
Ve
1e-07
14 -10 13.5
0 0

0101101
*
Ed
 1e-07 1 1 0
1  5 0 3 46.5
2  9 1 20 3 46.5
2  10 6 21 3 46.5
0

0101000
+146 22 -142 22 *
Ed
 1e-07 1 1 0
1  6 0 0 28
2  11 1 20 0 28
2  12 7 21 0 28
0

0101000
+142 22 -144 22 *
Wi

0101100
+149 19 -147 0 +145 7 +143 19 +141 19 +140 19 *
Ve
1e-07
-17.5 40 13.5
0 0

0101101
*
Ve
1e-07
17.5 40 13.5
0 0

0101101
*
Ed
 1e-07 1 1 0
1  7 0 0 35
2  13 1 29 0 35
2  14 8 30 0 35
0

0101000
+138 31 -137 31 *
Ve
1e-07
-17.5 -40 13.5
0 0

0101101
*
Ed
 1e-07 1 1 0
1  8 0 0 80
2  15 1 29 0 80
2  16 9 30 0 80
0

0101000
+135 31 -138 31 *
Ve
1e-07
17.5 -40 13.5
0 0

0101101
*
Ed
 1e-07 1 1 0
1  9 0 0 80
2  17 1 29 0 80
2  18 10 30 0 80
0

0101000
+137 31 -133 31 *
Ed
 1e-07 1 1 0
1  10 0 0 35
2  19 1 29 0 35
2  20 11 30 0 35
0

0101000
+133 31 -135 31 *
Wi

0101100
-136 28 -134 28 -132 28 -131 28 *
Ve
1e-07
-5.00000000002058 -15.5000068856462 13.5
0 0

0101101
*
Ve
1.00000211386464e-07
-12.499999999998 -22.9999999999918 13.5
0 0

0101101
*
Ed
 1e-07 1 1 0
1  11 0 1.570794681564 3.141593380736
2  21 1 34 1.570794681564 3.141593380736
2  22 12 35 1.570794681564 3.141593380736
0

0101000
+129 36 -128 36 *
Ve
1e-07
-12.499999999998 -35 13.5
0 0

0101101
*
Ed
 1e-07 1 1 0
1  12 0 0 12.000000000008
2  23 1 34 0 12.000000000008
2  24 13 35 0 12.000000000008
0

0101000
+126 36 -128 36 *
Ve
1e-07
12.499999999918 -35 13.5
0 0

0101101
*
Ed
 1e-07 1 1 0
1  13 0 0 24.999999999916
2  25 1 34 0 24.999999999916
2  26 14 35 0 24.999999999916
0

0101000
+124 36 -126 36 *
Ve
1.000001687539e-07
12.4999999999178 -22.9999999999459 13.5
0 0

0101101
*
Ed
 1e-07 1 1 0
1  14 0 0 12.0000000000541
2  27 1 34 0 12.0000000000541
2  28 15 35 0 12.0000000000541
0

0101000
+124 36 -122 36 *
Ve
1.0000478511226e-07
5.00000000002193 -15.5000231625978 13.5
0 0

0101101
*
Ed
 1e-07 1 1 0
1  15 0 4.685772e-06 1.570794729368
2  29 1 34 4.685772e-06 1.570794729368
2  30 16 35 4.685772e-06 1.570794729368
0

0101000
+122 36 -120 36 *
Ed
 1e-07 1 1 0
1  16 0 0 10.0000000000558
2  31 1 34 0 10.0000000000558
2  32 17 35 0 10.0000000000558
0

0101000
+129 36 -120 36 *
Wi

0101100
-127 33 +125 33 +123 33 -121 33 -119 33 +118 33 *
Fa
0  1e-07 1 16

0111000
+139 17 +130 0 +117 0 *
Ve
1e-07
-11 36.5 -10
0 0

0101101
*
Ed
 1e-07 1 1 0
1  17 0 -0 23.5
2  33 2 37 -0 23.5
2  34 3 0 -0 23.5
4 G1 2 37 3 0
0

0101000
+151 24 -115 24 *
Ve
1e-07
11 36.5 -10
0 0

0101101
*
Ed
 1e-07 1 1 0
1  18 0 -0 23.5
2  35 2 39 -0 23.5
2  36 4 0 -0 23.5
4 G1 2 39 4 0
0

0101000
+150 26 -113 26 *
Ed
 1e-07 1 1 0
1  19 0 3 25
2  37 2 42 3 25
2  38 18 43 3 25
0

0101000
+115 44 -113 44 *
Wi

0101100
-149 19 +114 0 -112 7 +111 41 *
Fa
0  1e-07 2 0

0111000
+110 38 *
Ve
1e-07
-14 33.5 -10
0 0

0101101
*
Ed
 1e-07 1 1 0
1  20 0 -0 23.5
2  39 3 0 -0 23.5
2  40 5 37 -0 23.5
4 G1 3 0 5 37
0

0101000
+148 24 -108 24 *
Ed
 1e-07 1 1 0
1  21 0 0 1.5707963267949
2  41 3 0 0 1.5707963267949
2  42 18 45 0 1.5707963267949
0

0101000
+115 24 -108 24 *
Wi

0101100
+147 0 -114 0 +107 0 -106 0 *
Fa
0  1e-07 3 0

0111000
+105 0 *
Ve
1e-07
14 33.5 -10
0 0

0101101
*
Ed
 1e-07 1 1 0
1  22 0 -0 23.5
2  43 4 0 -0 23.5
2  44 6 39 -0 23.5
4 G1 4 0 6 39
0

0101000
+146 26 -103 26 *
Ed
 1e-07 1 1 0
1  23 0 0 1.5707963267949
2  45 4 0 0 1.5707963267949
2  46 18 46 0 1.5707963267949
0

0101000
+113 26 -103 26 *
Wi

0101100
+145 0 -112 0 +102 0 -101 0 *
Fa
0  1e-07 4 0

0111000
+100 0 *
Ve
1e-07
-14 -10 -10
0 0

0101101
*
Ed
 1e-07 1 1 0
1  24 0 0 23.5
2  47 5 0 0 23.5
2  48 7 0 0 23.5
0

0101000
+144 47 -98 47 *
Ed
 1e-07 1 1 0
1  25 0 0 43.5
2  49 5 42 0 43.5
2  50 18 43 0 43.5
0

0101000
-108 44 +98 44 *
Wi

0101100
-143 19 -107 0 +97 37 +96 41 *
Fa
0  1e-07 5 0

0111000
+95 38 *
Ve
1e-07
14 -10 -10
0 0

0101101
*
Ed
 1e-07 1 1 0
1  26 0 0 23.5
2  51 6 0 0 23.5
2  52 7 0 0 23.5
0

0101000
+142 47 -93 47 *
Ed
 1e-07 1 1 0
1  27 0 3 46.5
2  53 6 42 3 46.5
2  54 18 43 3 46.5
0

0101000
+103 44 -93 44 *
Wi

0101100
-141 49 +102 0 -92 39 +91 50 *
Fa
0  1e-07 6 0

0111000
+90 48 *
Ed
 1e-07 1 1 0
1  28 0 0 28
2  55 7 42 0 28
2  56 18 43 0 28
0

0101000
+93 44 -98 44 *
Wi

0101100
+92 0 -140 51 +88 52 -97 0 *
Fa
0  1e-07 7 0

0111000
+87 0 *
Ve
1e-07
-17.5 40 -13.5
0 0

0101101
*
Ed
 1e-07 1 1 0
1  29 0 0 27
2  57 8 0 0 27
2  58 9 0 0 27
0

0101000
+85 54 -138 54 *
Ve
1e-07
17.5 40 -13.5
0 0

0101101
*
Ed
 1e-07 1 1 0
1  30 0 0 27
2  59 8 0 0 27
2  60 10 0 0 27
0

0101000
+83 54 -137 54 *
Ed
 1e-07 1 1 0
1  31 0 0 35
2  61 8 56 0 35
2  62 19 29 0 35
0

0101000
+85 57 -83 57 *
Wi

0101000
+84 0 -82 0 -81 55 +136 58 *
Fa
0  1e-07 8 0

0111000
+80 0 *
Ve
1e-07
-17.5 -40 -13.5
0 0

0101101
*
Ed
 1e-07 1 1 0
1  32 0 0 27
2  63 9 0 0 27
2  64 11 0 0 27
0

0101000
+78 54 -135 54 *
Ed
 1e-07 1 1 0
1  33 0 0 80
2  65 9 56 0 80
2  66 19 29 0 80
0

0101000
+78 57 -85 57 *
Wi

0101000
+77 0 -84 0 -76 55 +134 58 *
Fa
0  1e-07 9 0

0111000
+75 0 *
Ve
1e-07
17.5 -40 -13.5
0 0

0101101
*
Ed
 1e-07 1 1 0
1  34 0 0 27
2  67 10 0 0 27
2  68 11 0 0 27
0

0101000
+73 54 -133 54 *
Ed
 1e-07 1 1 0
1  35 0 0 80
2  69 10 56 0 80
2  70 19 29 0 80
0

0101000
+83 57 -73 57 *
Wi

0101000
+82 0 -72 0 -71 55 +132 58 *
Fa
0  1e-07 10 0

0111000
+70 0 *
Ed
 1e-07 1 1 0
1  36 0 0 35
2  71 11 56 0 35
2  72 19 29 0 35
0

0101000
+73 57 -78 57 *
Wi

0101000
+72 0 -77 0 -68 55 +131 58 *
Fa
0  1e-07 11 0

0111000
+67 0 *
Ve
1e-07
-5.00000000002058 -15.5000068856462 -1.5
0 0

0101101
*
Ed
 1e-07 1 1 0
1  37 0 0 15
2  73 12 0 0 15
2  74 17 0 0 15
4 G1 12 0 17 0
0

0101000
+129 59 -65 59 *
Ve
1.00000211386464e-07
-12.499999999998 -22.9999999999918 -1.5
0 0

0101101
*
Ed
 1e-07 1 1 0
1  38 0 1.570794681564 3.141593380736
2  75 12 62 1.570794681564 3.141593380736
2  76 20 63 1.570794681564 3.141593380736
0

0101000
+65 64 -63 64 *
Ed
 1.00000211386464e-07 1 1 0
1  39 0 0 15
2  77 12 0 0 15
2  78 13 0 0 15
4 G1 12 0 13 0
0

0101000
+128 59 -63 59 *
Wi

0101100
+64 0 -127 33 +62 61 -61 0 *
Fa
0  1e-07 12 0

0111000
+60 0 *
Ve
1e-07
-12.499999999998 -35 -1.5
0 0

0101101
*
Ed
 1e-07 1 1 0
1  40 0 0 15
2  79 13 0 0 15
2  80 14 0 0 15
0

0101000
+126 59 -58 59 *
Ed
 1e-07 1 1 0
1  41 0 0 12.000000000008
2  81 13 62 0 12.000000000008
2  82 20 63 0 12.000000000008
0

0101000
+58 64 -63 64 *
Wi

0101100
+57 0 -125 33 +56 61 -61 0 *
Fa
0  1e-07 13 0

0111000
+55 0 *
Ve
1e-07
12.499999999918 -35 -1.5
0 0

0101101
*
Ed
 1e-07 1 1 0
1  42 0 0 15
2  83 14 0 0 15
2  84 15 0 0 15
0

0101000
+124 59 -53 59 *
Ed
 1e-07 1 1 0
1  43 0 0 24.999999999916
2  85 14 62 0 24.999999999916
2  86 20 63 0 24.999999999916
0

0101000
+53 64 -58 64 *
Wi

0101100
+52 0 -123 33 +51 61 -57 0 *
Fa
0  1e-07 14 0

0111000
+50 0 *
Ve
1.000001687539e-07
12.4999999999178 -22.9999999999459 -1.5
0 0

0101101
*
Ed
 1e-07 1 1 0
1  44 0 0 12.0000000000541
2  87 15 62 0 12.0000000000541
2  88 20 63 0 12.0000000000541
0

0101000
+53 64 -48 64 *
Ed
 1.000001687539e-07 1 1 0
1  45 0 0 15
2  89 15 0 0 15
2  90 16 0 0 15
4 G1 15 0 16 0
0

0101000
+122 59 -48 59 *
Wi

0101100
+52 0 -121 33 +47 61 -46 0 *
Fa
0  1e-07 15 0

0111000
+45 0 *
Ve
1.0000478511226e-07
5.00000000002193 -15.5000231625978 -1.5
0 0

0101101
*
Ed
 1e-07 1 1 0
1  46 0 4.685772e-06 1.570794729368
2  91 16 62 4.685772e-06 1.570794729368
2  92 20 63 4.685772e-06 1.570794729368
0

0101000
+48 64 -43 64 *
Ed
 1.0000478511226e-07 1 1 0
1  47 0 0 15
2  93 16 0 0 15
2  94 17 0 0 15
4 G1 16 0 17 0
0

0101000
+120 59 -43 59 *
Wi

0101100
+46 0 -119 33 +42 61 -41 0 *
Fa
0  1e-07 16 0

0111000
+40 0 *
Ve
1.00001002006615e-07
-0.0144916257835037 -15.5000150005316 -1.5
0 0

0101101
*
Ed
 1e-07 1 1 0
1  48 0 0 4.98550837424368
2  95 17 62 0 4.98550837424368
2  96 20 63 0 4.98550837424368
0

0101000
+65 64 -38 64 *
Ve
1.00001016248603e-07
0.0145144134594525 -15.5000150477446 -1.5
0 0

0101101
*
Ed
 1e-07 1 1 0
1  49 0 4.98550837424368 5.01451441348667
2  97 17 62 4.98550837424368 5.01451441348667
2  98 21 69 4.98550837424368 5.01451441348667
0

0101000
+38 64 -36 64 *
Ed
 1e-07 1 1 0
1  50 0 5.01451441348667 10.0000000000558
2  99 17 62 5.01451441348667 10.0000000000558
2  100 20 63 5.01451441348667 10.0000000000558
0

0101000
+36 64 -43 64 *
Wi

0101100
+64 66 -118 67 +37 68 -41 66 +35 68 +34 68 *
Fa
0  1e-07 17 66

0111000
+33 0 *
Wi

0101100
+111 41 -106 0 +101 7 +96 41 +91 41 +88 41 *
Fa
0  1e-07 18 0

0111000
+31 70 *
Wi

0101100
-81 73 -76 73 -71 73 -68 73 *
Ve
1e-07
8 -22.5 -13.5
0 0

0101101
*
Ed
 1e-07 1 1 0
1  51 0 0 6.28318530717959
2  101 19 76 0 6.28318530717959
2  102 22 77 0 6.28318530717959
0

0101000
+28 78 -28 78 *
Wi

0101100
+27 75 *
Fa
0  1e-07 19 72

0111000
+29 0 +26 0 *
Ve
2.00001e-07
7 -22.5 -1.5
0 0

0101101
*
Ed
 1e-07 1 1 0
1  52 0 4.71446246950753 6.28318530717959
2  103 20 79 4.71446246950753 6.28318530717959
2  104 23 0 4.71446246950753 6.28318530717959
0

0101000
+36 80 -24 80 *
Ed
 1e-07 1 1 0
1  53 0 0 4.71031874665111
2  105 20 79 0 4.71031874665111
2  106 23 0 0 4.71031874665111
0

0101000
+24 80 -38 80 *
Wi

0101100
-47 68 -42 68 +34 68 -23 0 -22 0 +37 68 -62 68 +56 68 +51 68 *
Fa
0  1e-07 20 79

0111000
+21 0 *
Ed
 1e-07 1 1 0
1  54 0 4.71031874665111 4.71446246950753
2  107 21 0 4.71031874665111 4.71446246950753
2  108 23 0 4.71031874665111 4.71446246950753
0

0101000
+38 80 -36 80 *
Wi

0101100
-35 68 +19 0 *
Fa
0  1e-07 21 0

0111000
+18 0 *
Ve
1e-07
8 -22.5 -2.5
0 0

0101101
*
Ed
 1e-07 1 1 0
1  55 0 0 11
3  109 110CN 22 0 0 11
0

0101000
+28 81 -16 81 *
Ed
 1e-07 1 1 0
1  56 0 0 6.28318530717959
2  111 22 84 0 6.28318530717959
2  112 24 85 0 6.28318530717959
0

0101000
+16 86 -16 86 *
Wi

0101100
-27 75 -15 0 +14 83 +15 0 *
Fa
0  1e-07 22 0

0111000
+13 0 *
Ve
1e-07
7 -22.5 -2.5
0 0

0101101
*
Ed
 1e-07 1 1 0
1  57 0 0 0.999999999999998
3  113 114CN 23 0 0 0.999999999999998
0

0101000
+11 80 -24 80 *
Ed
 1e-07 1 1 0
1  58 0 0 6.28318530717959
2  115 23 89 0 6.28318530717959
2  116 24 90 0 6.28318530717959
0

0101000
+11 91 -11 91 *
Wi

0101100
-10 0 +23 0 +19 0 +22 0 +10 0 -9 88 *
Fa
0  1e-07 23 0

0111000
+8 0 *
Wi

0101100
+14 93 *
Wi

0101100
-9 88 *
Fa
0  1e-07 24 92

0111000
+6 0 +5 0 *
Sh

0101100
+116 8 +109 37 +104 0 -99 7 +94 37 +89 37 +86 37 +79 53 +74 53 +69 53 
+66 53 -59 8 +54 8 +49 8 -44 8 -39 8 +32 65 -30 45 -25 71 -20 65 
+17 65 -12 71 -7 65 +4 65 *
So

0100000
+3 0 *
Co

1100000
+2 0 *

+1 1 