DBRep_DrawableShape

CASCADE Topology V1, (c) Matra-Datavision
Locations 10
1
              1               0               0              -0 
              0               1               0               0 
              0               0               1              29 
1
              1               0               0               0 
              0               1               0               0 
              0               0               1               0 
2  1 1 2 -1 0
2  2 1 1 -1 0
2  1 -1 0
1
              1               0               0              -0 
              0               1               0              -0 
              0               0               1            -1.1 
2  1 1 2 -1 6 1 0
2  6 -1 2 1 1 -1 0
2  2 -1 0
2  2 -1 6 1 0
Curve2ds 36
1 0 0 0 -1 
1 6.2831853071795862 0 0 -1 
1 0 0 1 0 
2 -1.7763568394002505e-15 0 1 0 -0 1 1.5500000000000007
1 0 -1.1000000000000001 1 0 
2 -1.7763568394002505e-15 0 1 0 -0 1 1.5500000000000007
1 0 0 0 -1 
1 6.2831853071795862 0 0 -1 
1 0 0 1 0 
2 0 0 1 0 -0 1 1.5500000000000007
1 0 -1.1000000000000001 1 0 
2 0 0 1 0 -0 1 1.5500000000000007
1 0 0 0 -1 
1 6.2831853071795862 0 0 -1 
1 0 0 1 0 
2 0 0 1 0 -0 1 1.5500000000000007
1 0 -1.1000000000000001 1 0 
2 0 0 1 0 -0 1 1.5500000000000007
1 0 0 0 -1 
1 6.2831853071795862 0 0 -1 
1 0 0 1 0 
2 0 0 1 0 -0 1 1.5500000000000007
1 0 -1.1000000000000001 1 0 
2 0 0 1 0 -0 1 1.5500000000000007
1 0 0 0 -1 
1 6.2831853071795862 0 0 -1 
1 0 0 1 0 
2 0 -7.1054273576010019e-15 1 0 -0 1 1.5500000000000007
1 0 -1.1000000000000001 1 0 
2 0 -7.1054273576010019e-15 1 0 -0 1 1.5500000000000007
1 0 0 0 -1 
1 6.2831853071795862 0 0 -1 
1 0 0 1 0 
2 0 -7.1054273576010019e-15 1 0 -0 1 1.5500000000000007
1 0 -1.1000000000000001 1 0 
2 0 -7.1054273576010019e-15 1 0 -0 1 1.5500000000000007
Curves 18
1 -12.949999999999999 -18 29 -0 -0 -1 
2 -14.5 -18 0 0 0 1 1 0 -0 -0 1 0 1.55
2 -14.5 -18 0 0 0 1 1 0 -0 -0 1 0 1.55
1 16.050000000000001 -18 29 -0 -0 -1 
2 14.5 -18 0 0 0 1 1 0 -0 -0 1 0 1.55
2 14.5 -18 0 0 0 1 1 0 -0 -0 1 0 1.55
1 -12.949999999999999 37 29 -0 -0 -1 
2 -14.5 37 0 0 0 1 1 0 -0 -0 1 0 1.55
2 -14.5 37 0 0 0 1 1 0 -0 -0 1 0 1.55
1 16.050000000000001 37 29 -0 -0 -1 
2 14.5 37 0 0 0 1 1 0 -0 -0 1 0 1.55
2 14.5 37 0 0 0 1 1 0 -0 -0 1 0 1.55
1 -12.949999999999999 -37 29 -0 -0 -1 
2 -14.5 -37 0 0 0 1 1 0 -0 -0 1 0 1.55
2 -14.5 -37 0 0 0 1 1 0 -0 -0 1 0 1.55
1 16.050000000000001 -37 29 -0 -0 -1 
2 14.5 -37 0 0 0 1 1 0 -0 -0 1 0 1.55
2 14.5 -37 0 0 0 1 1 0 -0 -0 1 0 1.55
Polygon3D 0
PolygonOnTriangulations 0
Surfaces 18
2 -14.5 -18 29 0 0 1 1 0 -0 -0 1 0 1.55
1 -14.499999999999998 -18 29 0 0 1 1 0 -0 -0 1 0 
1 -14.499999999999998 -18 29 0 0 1 1 0 -0 -0 1 0 
2 14.5 -18 29 0 0 1 1 0 -0 -0 1 0 1.55
1 14.5 -18 29 0 0 1 1 0 -0 -0 1 0 
1 14.5 -18 29 0 0 1 1 0 -0 -0 1 0 
2 -14.5 37 29 0 0 1 1 0 -0 -0 1 0 1.55
1 -14.5 37 29 0 0 1 1 0 -0 -0 1 0 
1 -14.5 37 29 0 0 1 1 0 -0 -0 1 0 
2 14.5 37 29 0 0 1 1 0 -0 -0 1 0 1.55
1 14.5 37 29 0 0 1 1 0 -0 -0 1 0 
1 14.5 37 29 0 0 1 1 0 -0 -0 1 0 
2 -14.5 -37 29 0 0 1 1 0 -0 -0 1 0 1.55
1 -14.5 -36.999999999999993 29 0 0 1 1 0 -0 -0 1 0 
1 -14.5 -36.999999999999993 29 0 0 1 1 0 -0 -0 1 0 
2 14.5 -37 29 0 0 1 1 0 -0 -0 1 0 1.55
1 14.5 -36.999999999999993 29 0 0 1 1 0 -0 -0 1 0 
1 14.5 -36.999999999999993 29 0 0 1 1 0 -0 -0 1 0 
Triangulations 0

TShapes 79
Ve
1e-07
-12.95 -18 29
0 0

0101101
*
Ve
1e-07
-12.95 -18 27.9
0 0

0101101
*
Ed
 1e-07 1 1 0
1  1 0 0 1.1
3  1 2CN 1 0 0 1.1
0

0101000
+79 0 -78 0 *
Ed
 1e-07 1 1 0
1  2 0 0 6.28318530717959
2  3 1 4 0 6.28318530717959
2  4 2 5 0 6.28318530717959
0

0101000
+79 4 -79 4 *
Ed
 1e-07 1 1 0
1  3 0 0 6.28318530717959
2  5 1 8 0 6.28318530717959
2  6 3 5 0 6.28318530717959
0

0101000
+78 8 -78 8 *
Wi

0101100
+77 0 -77 0 -76 3 +75 7 *
Fa
0  1e-07 1 0

0111000
+74 0 *
Wi

0101100
+76 0 *
Fa
0  1e-07 2 0

0111000
+72 1 *
Wi

0101100
+75 0 *
Fa
0  1e-07 3 0

0111000
+70 1 *
Sh

0101100
+73 0 +71 9 -69 10 *
So

0100000
+68 0 *
Ve
1e-07
16.05 -18 29
0 0

0101101
*
Ve
1e-07
16.05 -18 27.9
0 0

0101101
*
Ed
 1e-07 1 1 0
1  4 0 0 1.1
3  7 8CN 4 0 0 1.1
0

0101000
+66 0 -65 0 *
Ed
 1e-07 1 1 0
1  5 0 0 6.28318530717959
2  9 4 4 0 6.28318530717959
2  10 5 5 0 6.28318530717959
0

0101000
+66 4 -66 4 *
Ed
 1e-07 1 1 0
1  6 0 0 6.28318530717959
2  11 4 8 0 6.28318530717959
2  12 6 5 0 6.28318530717959
0

0101000
+65 8 -65 8 *
Wi

0101100
+64 0 -64 0 -63 3 +62 7 *
Fa
0  1e-07 4 0

0111000
+61 0 *
Wi

0101100
+63 0 *
Fa
0  1e-07 5 0

0111000
+59 1 *
Wi

0101100
+62 0 *
Fa
0  1e-07 6 0

0111000
+57 1 *
Sh

0101100
+60 0 +58 9 -56 10 *
So

0100000
+55 0 *
Ve
1e-07
-12.95 37 29
0 0

0101101
*
Ve
1e-07
-12.95 37 27.9
0 0

0101101
*
Ed
 1e-07 1 1 0
1  7 0 0 1.1
3  13 14CN 7 0 0 1.1
0

0101000
+53 0 -52 0 *
Ed
 1e-07 1 1 0
1  8 0 0 6.28318530717959
2  15 7 4 0 6.28318530717959
2  16 8 5 0 6.28318530717959
0

0101000
+53 4 -53 4 *
Ed
 1e-07 1 1 0
1  9 0 0 6.28318530717959
2  17 7 8 0 6.28318530717959
2  18 9 5 0 6.28318530717959
0

0101000
+52 8 -52 8 *
Wi

0101100
+51 0 -51 0 -50 3 +49 7 *
Fa
0  1e-07 7 0

0111000
+48 0 *
Wi

0101100
+50 0 *
Fa
0  1e-07 8 0

0111000
+46 1 *
Wi

0101100
+49 0 *
Fa
0  1e-07 9 0

0111000
+44 1 *
Sh

0101100
+47 0 +45 9 -43 10 *
So

0100000
+42 0 *
Ve
1e-07
16.05 37 29
0 0

0101101
*
Ve
1e-07
16.05 37 27.9
0 0

0101101
*
Ed
 1e-07 1 1 0
1  10 0 0 1.1
3  19 20CN 10 0 0 1.1
0

0101000
+40 0 -39 0 *
Ed
 1e-07 1 1 0
1  11 0 0 6.28318530717959
2  21 10 4 0 6.28318530717959
2  22 11 5 0 6.28318530717959
0

0101000
+40 4 -40 4 *
Ed
 1e-07 1 1 0
1  12 0 0 6.28318530717959
2  23 10 8 0 6.28318530717959
2  24 12 5 0 6.28318530717959
0

0101000
+39 8 -39 8 *
Wi

0101100
+38 0 -38 0 -37 3 +36 7 *
Fa
0  1e-07 10 0

0111000
+35 0 *
Wi

0101100
+37 0 *
Fa
0  1e-07 11 0

0111000
+33 1 *
Wi

0101100
+36 0 *
Fa
0  1e-07 12 0

0111000
+31 1 *
Sh

0101100
+34 0 +32 9 -30 10 *
So

0100000
+29 0 *
Ve
1e-07
-12.95 -37 29
0 0

0101101
*
Ve
1e-07
-12.95 -37 27.9
0 0

0101101
*
Ed
 1e-07 1 1 0
1  13 0 0 1.1
3  25 26CN 13 0 0 1.1
0

0101000
+27 0 -26 0 *
Ed
 1e-07 1 1 0
1  14 0 0 6.28318530717959
2  27 13 4 0 6.28318530717959
2  28 14 5 0 6.28318530717959
0

0101000
+27 4 -27 4 *
Ed
 1e-07 1 1 0
1  15 0 0 6.28318530717959
2  29 13 8 0 6.28318530717959
2  30 15 5 0 6.28318530717959
0

0101000
+26 8 -26 8 *
Wi

0101100
+25 0 -25 0 -24 3 +23 7 *
Fa
0  1e-07 13 0

0111000
+22 0 *
Wi

0101100
+24 0 *
Fa
0  1e-07 14 0

0111000
+20 1 *
Wi

0101100
+23 0 *
Fa
0  1e-07 15 0

0111000
+18 1 *
Sh

0101100
+21 0 +19 9 -17 10 *
So

0100000
+16 0 *
Ve
1e-07
16.05 -37 29
0 0

0101101
*
Ve
1e-07
16.05 -37 27.9
0 0

0101101
*
Ed
 1e-07 1 1 0
1  16 0 0 1.1
3  31 32CN 16 0 0 1.1
0

0101000
+14 0 -13 0 *
Ed
 1e-07 1 1 0
1  17 0 0 6.28318530717959
2  33 16 4 0 6.28318530717959
2  34 17 5 0 6.28318530717959
0

0101000
+14 4 -14 4 *
Ed
 1e-07 1 1 0
1  18 0 0 6.28318530717959
2  35 16 8 0 6.28318530717959
2  36 18 5 0 6.28318530717959
0

0101000
+13 8 -13 8 *
Wi

0101100
+12 0 -12 0 -11 3 +10 7 *
Fa
0  1e-07 16 0

0111000
+9 0 *
Wi

0101100
+11 0 *
Fa
0  1e-07 17 0

0111000
+7 1 *
Wi

0101100
+10 0 *
Fa
0  1e-07 18 0

0111000
+5 1 *
Sh

0101100
+8 0 +6 9 -4 10 *
So

0100000
+3 0 *
Co

1100000
+67 0 +54 0 +41 0 +28 0 +15 0 +2 0 *

+1 0 