DBRep_DrawableShape

CASCADE Topology V1, (c) Matra-Datavision
Locations 30
1
              1               0               0               0 
              0               1               0               0 
              0               0               1               0 
1
              1               0               0               0 
              0               1               0               0 
              0               0               1               0 
1
              1               0               0               0 
              0               1               0               0 
              0               0               1               0 
2  2 1 3 -1 0
2  1 -1 3 1 2 -1 0
1
              1               0               0               0 
              0               1               0               0 
              0               0               1               0 
1
              1               0               0               0 
              0               1               0               0 
              0               0               1               0 
2  6 1 7 -1 0
2  7 1 6 -1 0
2  6 -1 0
2  1 -1 3 1 2 -1 7 1 6 -1 0
1
              1               0               0               0 
              0               1               0               0 
              0               0               1              29 
2  6 1 7 -1 12 1 0
2  12 -1 7 1 6 -1 0
2  1 -1 3 1 2 -1 12 -1 7 1 6 -1 0
2  7 -1 2 1 3 -1 0
2  7 -1 12 1 2 1 3 -1 0
2  6 1 7 -1 12 1 2 1 3 -1 0
1
              1               0               0              -0 
              0               1               0               0 
              0               0               1              29 
2  19 1 3 -1 0
2  7 -1 12 1 2 1 19 -1 0
2  3 1 19 -1 0
2  1 -1 3 1 19 -1 0
2  1 -1 0
1
              1               0               0              -0 
              0               1               0              -0 
              0               0               1           -26.5 
2  19 1 3 -1 25 1 0
2  25 -1 3 1 19 -1 0
2  19 -1 0
2  1 -1 25 -1 3 1 19 -1 0
2  3 -1 25 1 0
Curve2ds 72
1 0 0 0 -1 
1 80 0 0 -1 
1 35 0 0 -1 
1 0 0 0 -1 
1 0 0 1 0 
1 17.5 40 -1 0 
1 0 -29 1 0 
1 17.5 40 -1 0 
1 0 0 0 -1 
1 35 0 0 -1 
1 0 0 1 0 
1 17.5 -40 0 1 
1 0 -29 1 0 
1 17.5 -40 0 1 
1 80 0 0 -1 
1 0 -0 0 -1 
1 0 0 1 0 
1 -17.5 40 0 -1 
1 0 -29 1 0 
1 -17.5 40 0 -1 
1 -17.5 -40 1 0 
1 0 -0 1 0 
1 -17.5 -40 1 0 
1 0 -29 1 0 
1 10.99998998103756 36.499999999980389 -1 8.9140897131658043e-13 
1 0 0 1 0 
2 -10.999999170879981 33.5 -1 0 0 1 3
1 0 0 1 0 
1 -13.999999170861832 33.499989564849379 -1.3099971074452453e-08 -0.99999999999999989 
1 0 0 1 0 
2 -10.999999701427788 -6.9999999999999982 -1 0 0 1 3
1 0 0 1 0 
1 -10.999989981037562 -9.9999999999842508 1 9.0675024890264467e-14 
1 0 0 1 0 
2 11.000000298572212 -6.9999999999999973 -1 0 0 1 3
1 0 0 1 0 
1 14.000000298555923 -6.999990113860421 1.3099877782775314e-08 0.99999999999999989 
1 0 0 1 0 
2 11.000000829120019 33.5 -1 0 0 1 3
1 0 0 1 0 
1 0 0 0 -1 
1 1.5707927107674102 0 0 -1 
1 0 -26.5 1 0 
1 10.999989425108959 23.250000006243397 -1 8.9140897131658043e-13 
1 21.99997996207512 0 0 -1 
1 7.8539846972552905 0 0 -1 
1 6.283181828796045 0 0 -1 
1 0 0 0 -1 
1 0 -26.5 1 0 
2 -10.999999726808582 20.250000006263008 -1 -2.1592157265412046e-65 -2.1592157265412046e-65 1 3
1 0 -26.5 1 0 
1 -13.999999726790433 20.249989571112387 -1.3099971074452453e-08 -0.99999999999999989 
1 40.499979348052364 0 0 -1 
1 6.2831887127785899 0 0 -1 
1 4.7123857402546143 0 0 -1 
1 0 0 0 -1 
1 0 -26.5 1 0 
2 -11.000000257356389 -20.249999993736992 -1 -2.1592157265412046e-65 -2.1592157265412046e-65 1 3
1 0 -26.5 1 0 
1 -10.999990536966163 -23.249999993721246 1 9.0675024890264467e-14 
1 21.999979962075123 0 0 -1 
1 4.7123924195629066 0 0 -1 
1 3.1415893582099343 0 0 -1 
1 0 0 0 -1 
1 0 -26.5 1 0 
2 10.999999742643611 -20.249999993736992 -1 -2.1592157265412046e-65 -2.1592157265412046e-65 1 3
1 0 -26.5 1 0 
1 13.999999742627322 -20.249990107597416 1.3099877782775314e-08 0.99999999999999989 
1 40.499979348052364 0 0 -1 
1 3.1415962421924788 0 0 -1 
1 0 -26.5 1 0 
2 11.000000273191418 20.250000006263008 -1 -2.1592157265412046e-65 -2.1592157265412046e-65 1 3
Curves 36
1 -17.5 40 0 0 0 1 
1 17.5 40 0 0 0 1 
1 -17.5 40 0 1 0 0 
1 -17.5 40 0 1 0 0 
1 -17.5 -40 0 0 0 1 
1 -17.5 -40 0 0 1 0 
1 -17.5 -40 0 0 1 0 
1 17.5 -40 0 0 0 1 
1 17.5 40 0 0 -1 0 
1 17.5 40 0 0 -1 0 
1 17.5 -40 0 -1 0 0 
1 17.5 -40 0 -1 0 0 
1 -10.99998998103756 36.499999999980389 0 1 8.9140897131658043e-13 0 
2 10.999999170879981 33.5 0 0 0 1 1 0 -0 -0 1 0 3
1 13.999999170861832 33.499989564849379 0 1.3099971074452453e-08 -0.99999999999999989 0 
2 10.999999701427788 -6.9999999999999982 0 0 0 1 1 0 -0 -0 1 0 3
1 10.999989981037562 -9.9999999999842508 0 -1 9.0675024890264467e-14 0 
2 -11.000000298572212 -6.9999999999999973 0 0 0 1 1 0 -0 -0 1 0 3
1 -14.000000298555923 -6.999990113860421 0 -1.3099877782775314e-08 0.99999999999999989 0 
2 -11.000000829120019 33.5 0 0 0 1 1 0 -0 -0 1 0 3
1 -10.99998998103756 36.499999999980389 29 -0 -0 -1 
1 -10.99998998103756 36.499999999980389 0 1 8.9140897131658043e-13 0 
1 10.99998998103756 36.499999999992966 29 -0 -0 -1 
1 13.999999170861832 33.499989564849379 29 -0 -0 -1 
2 10.999999170879981 33.5 0 0 0 1 1 0 -0 -0 1 0 3
1 13.999999170861832 33.499989564849379 0 1.3099971074452453e-08 -0.99999999999999989 0 
1 13.99999970141039 -6.9999897832029863 29 -0 -0 -1 
1 10.999989981037562 -9.9999999999842508 29 -0 -0 -1 
2 10.999999701427788 -6.9999999999999982 0 0 0 1 1 0 -0 -0 1 0 3
1 10.999989981037562 -9.9999999999842508 0 -1 9.0675024890264467e-14 0 
1 -10.999989981037562 -9.999999999982256 29 -0 -0 -1 
1 -14.000000298555923 -6.999990113860421 29 -0 -0 -1 
2 -11.000000298572212 -6.9999999999999973 0 0 0 1 1 0 -0 -0 1 0 3
1 -14.000000298555923 -6.999990113860421 0 -1.3099877782775314e-08 0.99999999999999989 0 
1 -14.000000829100703 33.499989234191943 29 -0 -0 -1 
2 -11.000000829120019 33.5 0 0 0 1 1 0 -0 -0 1 0 3
Polygon3D 0
PolygonOnTriangulations 0
Surfaces 15
1 -17.5 40 0 0 1 0 1 0 0 0 0 -1 
1 -17.5 -40 0 -1 0 0 0 1 0 0 0 -1 
1 17.5 40 0 1 0 -0 0 -1 0 0 -0 -1 
1 0 0 0 -0 -0 -1 -1 0 0 0 1 -0 
1 0 0 0 -0 -0 -1 -1 0 0 0 1 -0 
1 17.5 -40 0 0 -1 0 -1 0 0 -0 -0 -1 
1 -10.99998998103756 36.499999999980389 29 8.9140897131658043e-13 -1 0 1 8.9140897131658043e-13 0 -0 0 1 
2 10.999999170879981 33.5 29 0 0 1 1 0 -0 -0 1 0 3
1 13.999999170861832 33.499989564849379 29 -0.99999999999999989 -1.3099971074452453e-08 0 1.3099971074452453e-08 -0.99999999999999989 0 0 0 1 
2 10.999999701427788 -6.9999999999999982 29 0 0 1 1 0 -0 -0 1 0 3
1 10.999989981037562 -9.9999999999842508 29 9.0675024890264467e-14 1 -0 -1 9.0675024890264467e-14 0 0 0 1 
2 -11.000000298572212 -6.9999999999999973 29 0 0 1 1 0 -0 -0 1 0 3
1 -14.000000298555923 -6.999990113860421 29 0.99999999999999989 1.3099877782775314e-08 -0 -1.3099877782775314e-08 0.99999999999999989 0 0 0 1 
2 -11.000000829120019 33.5 29 0 0 1 1 0 -0 -0 1 0 3
1 -5.5592860085667327e-07 13.249999993736994 29.000000000000011 -2.2347652451134846e-32 -9.6619353252540694e-34 -1 -1 0 2.2347652451134846e-32 -2.1592157265412046e-65 1 -9.6619353252540694e-34 
Triangulations 0

TShapes 93
Ve
1e-07
-17.5 40 0
0 0

0101101
*
Ve
1e-07
-17.5 40 29
0 0

0101101
*
Ed
 1e-07 1 1 0
1  1 0 0 29
2  1 1 0 0 29
2  2 2 0 0 29
0

0101000
+93 5 -92 5 *
Ve
1e-07
17.5 40 0
0 0

0101101
*
Ve
1e-07
17.5 40 29
0 0

0101101
*
Ed
 1e-07 1 1 0
1  2 0 0 29
2  3 1 0 0 29
2  4 3 0 0 29
0

0101000
+90 5 -89 5 *
Ed
 1e-07 1 1 0
1  3 0 0 35
2  5 1 9 0 35
2  6 4 10 0 35
0

0101000
+93 11 -90 11 *
Ed
 1e-07 1 1 0
1  4 0 0 35
2  7 1 14 0 35
2  8 5 10 0 35
0

0101000
+92 15 -89 15 *
Wi

0101100
+91 0 -88 0 -87 8 +86 13 *
Fa
0  1e-07 1 0

0111000
+85 0 *
Ve
1e-07
-17.5 -40 0
0 0

0101101
*
Ve
1e-07
-17.5 -40 29
0 0

0101101
*
Ed
 1e-07 1 1 0
1  5 0 0 29
2  9 2 0 0 29
2  10 6 0 0 29
0

0101000
+83 5 -82 5 *
Ed
 1e-07 1 1 0
1  6 0 0 80
2  11 2 9 0 80
2  12 4 10 0 80
0

0101000
+83 11 -93 11 *
Ed
 1e-07 1 1 0
1  7 0 0 80
2  13 2 14 0 80
2  14 5 10 0 80
0

0101000
+82 15 -92 15 *
Wi

0101100
+81 0 -91 0 -80 8 +79 13 *
Fa
0  1e-07 2 0

0111000
+78 0 *
Ve
1e-07
17.5 -40 0
0 0

0101101
*
Ve
1e-07
17.5 -40 29
0 0

0101101
*
Ed
 1e-07 1 1 0
1  8 0 0 29
2  15 3 0 0 29
2  16 6 0 0 29
0

0101000
+76 5 -75 5 *
Ed
 1e-07 1 1 0
1  9 0 0 80
2  17 3 9 0 80
2  18 4 10 0 80
0

0101000
+90 11 -76 11 *
Ed
 1e-07 1 1 0
1  10 0 0 80
2  19 3 14 0 80
2  20 5 10 0 80
0

0101000
+89 15 -75 15 *
Wi

0101100
+88 0 -74 0 -73 8 +72 13 *
Fa
0  1e-07 3 0

0111000
+71 0 *
Ed
 1e-07 1 1 0
1  11 0 0 35
2  21 4 10 0 35
2  22 6 9 0 35
0

0101000
+76 11 -83 11 *
Wi

0101100
+87 0 +73 0 +69 0 +80 0 *
Fa
0  1e-07 4 0

0111000
+68 6 *
Ed
 1e-07 1 1 0
1  12 0 0 35
2  23 5 10 0 35
2  24 6 14 0 35
0

0101000
+75 15 -82 15 *
Wi

0101100
+86 18 +79 18 +72 18 +66 18 *
Ve
1e-07
-10.9999899810376 36.4999999999804 29
0 0

0101101
*
Ve
1.00007037925798e-07
10.9999899810376 36.499999999993 29
0 0

0101101
*
Ed
 1e-07 1 1 0
1  13 0 0 21.9999799620751
2  25 5 21 0 21.9999799620751
2  26 7 22 0 21.9999799620751
0

0101000
+64 23 -63 23 *
Ve
1e-07
13.9999991708618 33.4999895648494 29
0 0

0101101
*
Ed
 1e-07 1 1 0
1  14 0 6.28318182879605 7.85398469725529
2  27 5 21 6.28318182879605 7.85398469725529
2  28 8 22 6.28318182879605 7.85398469725529
0

0101000
+61 23 -63 23 *
Ve
1.00000001776357e-07
13.9999997014104 -6.99998978320299 29
0 0

0101101
*
Ed
 1e-07 1 1 0
1  15 0 0 40.4999793480524
2  29 5 21 0 40.4999793480524
2  30 9 22 0 40.4999793480524
0

0101000
+61 23 -59 23 *
Ve
1e-07
10.9999899810376 -9.99999999998425 29
0 0

0101101
*
Ed
 1e-07 1 1 0
1  16 0 4.71238574025461 6.28318871277859
2  31 5 21 4.71238574025461 6.28318871277859
2  32 10 22 4.71238574025461 6.28318871277859
0

0101000
+57 23 -59 23 *
Ve
1e-07
-10.9999899810376 -9.99999999998226 29
0 0

0101101
*
Ed
 1e-07 1 1 0
1  17 0 0 21.9999799620751
2  33 5 21 0 21.9999799620751
2  34 11 22 0 21.9999799620751
0

0101000
+57 23 -55 23 *
Ve
1e-07
-14.0000002985559 -6.99999011386042 29
0 0

0101101
*
Ed
 1e-07 1 1 0
1  18 0 3.14158935820993 4.71239241956291
2  35 5 21 3.14158935820993 4.71239241956291
2  36 12 22 3.14158935820993 4.71239241956291
0

0101000
+53 23 -55 23 *
Ve
1e-07
-14.0000008291007 33.4999892341919 29
0 0

0101101
*
Ed
 1e-07 1 1 0
1  19 0 0 40.4999793480524
2  37 5 21 0 40.4999793480524
2  38 13 22 0 40.4999793480524
0

0101000
+53 23 -51 23 *
Ed
 1e-07 1 1 0
1  20 0 1.57079271076741 3.14159624219248
2  39 5 21 1.57079271076741 3.14159624219248
2  40 14 22 1.57079271076741 3.14159624219248
0

0101000
+64 23 -51 23 *
Wi

0101100
-62 20 +60 20 -58 20 +56 20 -54 20 +52 20 -50 20 +49 20 *
Fa
0  1e-07 5 17

0111000
+65 0 +48 0 *
Wi

0101100
+74 0 -81 0 -69 8 +66 13 *
Fa
0  1e-07 6 0

0111000
+46 0 *
Ve
1e-07
-10.9999899810376 36.4999999999804 2.5
0 0

0101101
*
Ed
 1e-07 1 1 0
1  21 0 0 26.5
2  41 7 0 0 26.5
2  42 14 0 0 26.5
4 G1 7 0 14 0
0

0101000
+64 24 -44 24 *
Ve
1.00007037925798e-07
10.9999899810376 36.499999999993 2.5
0 0

0101101
*
Ed
 1e-07 1 1 0
1  22 0 0 21.9999799620751
2  43 7 27 0 21.9999799620751
2  44 15 28 0 21.9999799620751
0

0101000
+44 29 -42 29 *
Ed
 1.00007037925798e-07 1 1 0
1  23 0 0 26.5
2  45 7 0 0 26.5
2  46 8 0 0 26.5
4 G1 7 0 8 0
0

0101000
+63 24 -42 24 *
Wi

0101100
+43 0 -62 20 +41 26 -40 0 *
Fa
0  1e-07 7 0

0111000
+39 0 *
Ve
1e-07
13.9999991708618 33.4999895648494 2.5
0 0

0101101
*
Ed
 1e-07 1 1 0
1  24 0 0 26.5
2  47 8 0 0 26.5
2  48 9 0 0 26.5
4 G1 8 0 9 0
0

0101000
+61 24 -37 24 *
Ed
 1e-07 1 1 0
1  25 0 6.28318182879605 7.85398469725529
2  49 8 27 6.28318182879605 7.85398469725529
2  50 15 28 6.28318182879605 7.85398469725529
0

0101000
+37 29 -42 29 *
Wi

0101100
+36 0 -60 20 +35 26 -40 0 *
Fa
0  1e-07 8 0

0111000
+34 0 *
Ve
1.00000001776357e-07
13.9999997014104 -6.99998978320299 2.5
0 0

0101101
*
Ed
 1e-07 1 1 0
1  26 0 0 40.4999793480524
2  51 9 27 0 40.4999793480524
2  52 15 28 0 40.4999793480524
0

0101000
+37 29 -32 29 *
Ed
 1.00000001776357e-07 1 1 0
1  27 0 0 26.5
2  53 9 0 0 26.5
2  54 10 0 0 26.5
4 G1 9 0 10 0
0

0101000
+59 24 -32 24 *
Wi

0101100
+36 0 -58 20 +31 26 -30 0 *
Fa
0  1e-07 9 0

0111000
+29 0 *
Ve
1e-07
10.9999899810376 -9.99999999998425 2.5
0 0

0101101
*
Ed
 1e-07 1 1 0
1  28 0 0 26.5
2  55 10 0 0 26.5
2  56 11 0 0 26.5
4 G1 10 0 11 0
0

0101000
+57 24 -27 24 *
Ed
 1e-07 1 1 0
1  29 0 4.71238574025461 6.28318871277859
2  57 10 27 4.71238574025461 6.28318871277859
2  58 15 28 4.71238574025461 6.28318871277859
0

0101000
+27 29 -32 29 *
Wi

0101100
+26 0 -56 20 +25 26 -30 0 *
Fa
0  1e-07 10 0

0111000
+24 0 *
Ve
1e-07
-10.9999899810376 -9.99999999998226 2.5
0 0

0101101
*
Ed
 1e-07 1 1 0
1  30 0 0 21.9999799620751
2  59 11 27 0 21.9999799620751
2  60 15 28 0 21.9999799620751
0

0101000
+27 29 -22 29 *
Ed
 1e-07 1 1 0
1  31 0 0 26.5
2  61 11 0 0 26.5
2  62 12 0 0 26.5
4 G1 11 0 12 0
0

0101000
+55 24 -22 24 *
Wi

0101100
+26 0 -54 20 +21 26 -20 0 *
Fa
0  1e-07 11 0

0111000
+19 0 *
Ve
1e-07
-14.0000002985559 -6.99999011386042 2.5
0 0

0101101
*
Ed
 1e-07 1 1 0
1  32 0 0 26.5
2  63 12 0 0 26.5
2  64 13 0 0 26.5
4 G1 12 0 13 0
0

0101000
+53 24 -17 24 *
Ed
 1e-07 1 1 0
1  33 0 3.14158935820993 4.71239241956291
2  65 12 27 3.14158935820993 4.71239241956291
2  66 15 28 3.14158935820993 4.71239241956291
0

0101000
+17 29 -22 29 *
Wi

0101100
+16 0 -52 20 +15 26 -20 0 *
Fa
0  1e-07 12 0

0111000
+14 0 *
Ve
1e-07
-14.0000008291007 33.4999892341919 2.5
0 0

0101101
*
Ed
 1e-07 1 1 0
1  34 0 0 40.4999793480524
2  67 13 27 0 40.4999793480524
2  68 15 28 0 40.4999793480524
0

0101000
+17 29 -12 29 *
Ed
 1e-07 1 1 0
1  35 0 0 26.5
2  69 13 0 0 26.5
2  70 14 0 0 26.5
4 G1 13 0 14 0
0

0101000
+51 24 -12 24 *
Wi

0101100
+16 0 -50 20 +11 26 -10 0 *
Fa
0  1e-07 13 0

0111000
+9 0 *
Ed
 1e-07 1 1 0
1  36 0 1.57079271076741 3.14159624219248
2  71 14 27 1.57079271076741 3.14159624219248
2  72 15 28 1.57079271076741 3.14159624219248
0

0101000
+44 29 -12 29 *
Wi

0101100
+43 0 -49 20 +7 26 -10 0 *
Fa
0  1e-07 14 0

0111000
+6 0 *
Wi

0101100
+11 0 -7 0 +41 0 -35 0 +31 0 -25 0 +21 0 -15 0 *
Fa
0  1e-07 15 0

0111000
+4 19 *
Sh

0101100
+84 4 +77 4 +70 4 +67 16 -47 0 +45 4 +38 0 -33 0 +28 0 -23 0 
+18 0 -13 0 +8 0 -5 0 -3 30 *
So

1100000
+2 0 *

+1 1 