DBRep_DrawableShape

CASCADE Topology V1, (c) Matra-Datavision
Locations 118
1
              1               0               0               0 
              0               1               0               0 
              0               0               1               0 
1
              1               0               0               0 
              0               1               0               0 
              0               0               1               0 
1
              1               0               0               0 
              0               1               0               0 
              0               0               1               0 
1
              1               0               0               0 
              0               1               0               0 
              0               0               1               0 
1
              1               0               0               0 
              0               1               0               0 
              0               0               1               0 
1
              1               0               0               0 
              0               1               0               0 
              0               0               1               0 
1
              1               0               0               0 
              0               1               0               0 
              0               0               1               0 
1
              1               0               0               0 
              0               1               0               0 
              0               0               1               0 
1
              1               0               0               0 
              0               1               0               0 
              0               0               1               0 
1
              1               0               0               0 
              0               1               0               0 
              0               0               1               0 
2  2 1 3 -1 4 1 5 -1 6 1 7 1 8 1 9 1 10 1 0
1
              1               0               0               0 
              0               1               0               0 
              0               0               1               0 
1
              1               0               0              -0 
              0               1               0              -0 
              0               0               1           -13.5 
1
              1               0               0               0 
              0               1               0               0 
              0               0               1              27 
1
              1               0               0               0 
              0               1               0               0 
              0               0               1               0 
1
              1               0               0               0 
              0               1               0               0 
              0               0               1               0 
1
              1               0               0               0 
              0               1               0               0 
              0               0               1               0 
1
              1               0               0               0 
              0               1               0               0 
              0               0               1               0 
2  12 -1 13 1 14 1 15 1 16 -1 17 1 18 -1 0
2  10 -1 9 -1 8 -1 7 -1 6 -1 5 1 4 -1 3 1 2 -1 0
1
              1               0               0              -0 
              0               1               0               0 
              0               0               1            13.5 
2  21 1 18 -1 2 1 3 -1 4 1 5 -1 6 1 7 1 8 1 9 1 10 1 0
2  12 -1 13 1 14 1 15 1 16 -1 17 1 21 -1 0
2  18 1 21 -1 0
2  1 -1 10 -1 9 -1 8 -1 7 -1 6 -1 5 1 4 -1 3 1 2 -1 18 1 21 -1 0
2  12 -1 13 1 14 1 15 1 16 -1 17 1 18 -1 2 1 3 -1 4 1 5 -1 6 1 7 1 8 1 9 1 10 1 0
2  1 -1 0
2  9 -1 8 -1 7 -1 6 -1 5 1 4 -1 3 1 2 -1 0
1
              1               0               0              -0 
              0               1               0               0 
              0               0               1            13.5 
2  29 1 16 -1 17 1 18 -1 2 1 3 -1 4 1 5 -1 6 1 7 1 8 1 9 1 0
2  12 -1 13 1 14 1 15 1 29 -1 0
2  16 1 29 -1 0
2  1 -1 10 -1 9 -1 8 -1 7 -1 6 -1 5 1 4 -1 3 1 2 -1 18 1 17 -1 16 1 29 -1 0
2  12 -1 13 1 14 1 15 1 16 -1 17 1 18 -1 2 1 3 -1 4 1 5 -1 6 1 7 1 8 1 9 1 0
2  1 -1 10 -1 0
2  12 -1 13 1 14 1 15 1 16 -1 17 1 18 -1 2 1 3 -1 4 1 5 -1 6 1 7 1 8 1 0
2  1 -1 10 -1 9 -1 0
2  7 1 8 1 9 1 0
2  12 -1 13 1 14 1 15 1 16 -1 17 1 18 -1 2 1 3 -1 4 1 5 -1 6 1 0
2  1 -1 10 -1 9 -1 8 -1 7 -1 0
2  8 1 9 1 0
2  12 -1 13 1 14 1 15 1 16 -1 17 1 18 -1 2 1 3 -1 4 1 5 -1 6 1 7 1 0
2  1 -1 10 -1 9 -1 8 -1 0
1
              1               0               0               0 
              0               1               0               0 
              0               0               1               0 
2  44 1 12 -1 13 1 14 1 15 1 16 -1 17 1 18 -1 0
2  44 -1 0
2  14 -1 13 -1 12 1 44 -1 0
2  1 -1 10 -1 9 -1 8 -1 7 -1 6 -1 5 1 4 -1 3 1 2 -1 18 1 17 -1 16 1 15 -1 14 -1 13 -1 12 1 44 -1 0
2  1 -1 10 -1 9 -1 8 -1 7 -1 6 -1 5 1 4 -1 3 1 2 -1 0
1
              1               0               0              -0 
              0               1               0              -0 
              0               0               1             -15 
2  21 1 18 -1 50 1 2 1 3 -1 4 1 5 -1 6 1 7 1 8 1 9 1 10 1 0
2  50 -1 18 1 21 -1 0
2  21 -1 0
2  1 -1 10 -1 9 -1 8 -1 7 -1 6 -1 5 1 4 -1 3 1 2 -1 50 -1 18 1 21 -1 0
2  18 -1 50 1 2 1 3 -1 4 1 5 -1 6 1 7 1 8 1 9 1 10 1 0
2  21 1 18 -1 0
2  21 1 18 -1 50 1 0
2  6 1 7 1 8 1 9 1 10 1 0
2  2 1 3 -1 4 1 5 -1 0
2  21 1 18 -1 2 1 3 -1 4 1 5 -1 0
2  21 1 18 -1 50 1 2 1 3 -1 4 1 5 -1 0
2  5 1 4 -1 3 1 2 -1 50 -1 18 1 21 -1 0
2  17 1 18 -1 2 1 3 -1 4 1 5 -1 6 1 7 1 8 1 9 1 10 1 0
2  9 -1 8 -1 7 -1 6 -1 5 1 4 -1 3 1 2 -1 18 1 17 -1 0
2  17 1 18 -1 2 1 3 -1 4 1 5 -1 6 1 7 1 8 1 9 1 0
2  17 1 18 -1 2 1 3 -1 4 1 5 -1 6 1 7 1 8 1 0
1
              1               0               0              -0 
              0               1               0              -0 
              0               0               1           -23.5 
2  29 1 16 -1 67 1 17 1 18 -1 2 1 3 -1 4 1 5 -1 6 1 7 1 8 1 9 1 0
2  67 -1 16 1 29 -1 0
2  29 -1 0
2  1 -1 10 -1 9 -1 8 -1 7 -1 6 -1 5 1 4 -1 3 1 2 -1 18 1 17 -1 67 -1 16 1 29 -1 0
2  16 -1 67 1 17 1 18 -1 2 1 3 -1 4 1 5 -1 6 1 7 1 8 1 9 1 0
2  9 1 10 1 0
2  16 -1 67 1 17 1 18 -1 2 1 3 -1 4 1 5 -1 6 1 7 1 8 1 0
2  17 1 18 -1 2 1 3 -1 4 1 5 -1 6 1 0
2  8 -1 7 -1 6 -1 5 1 4 -1 3 1 2 -1 18 1 17 -1 0
2  29 1 16 -1 17 1 18 -1 2 1 3 -1 4 1 5 -1 6 1 7 1 8 1 0
2  17 1 18 -1 2 1 3 -1 4 1 5 -1 6 1 7 1 0
2  29 1 16 -1 67 1 17 1 18 -1 2 1 3 -1 4 1 5 -1 6 1 7 1 8 1 0
2  7 1 8 1 9 1 10 1 0
2  16 -1 67 1 17 1 18 -1 2 1 3 -1 4 1 5 -1 6 1 0
2  8 1 9 1 10 1 0
2  16 -1 67 1 17 1 18 -1 2 1 3 -1 4 1 5 -1 6 1 7 1 0
2  7 -1 6 -1 5 1 4 -1 3 1 2 -1 18 1 17 -1 0
2  29 1 16 -1 17 1 18 -1 2 1 3 -1 4 1 5 -1 6 1 7 1 0
2  29 1 16 -1 67 1 17 1 18 -1 2 1 3 -1 4 1 5 -1 6 1 7 1 0
2  15 1 16 -1 17 1 18 -1 2 1 3 -1 4 1 5 -1 6 1 7 1 8 1 9 1 10 1 0
2  1 -1 10 -1 9 -1 8 -1 7 -1 6 -1 5 1 4 -1 3 1 2 -1 18 1 17 -1 16 1 15 -1 0
2  44 1 12 -1 13 1 0
2  13 -1 12 1 44 -1 0
2  1 -1 10 -1 9 -1 8 -1 7 -1 6 -1 5 1 4 -1 3 1 2 -1 18 1 17 -1 16 1 15 -1 13 -1 12 1 44 -1 0
2  44 1 12 -1 13 1 14 1 0
2  18 -1 50 1 2 1 3 -1 4 1 5 -1 0
2  10 -1 9 -1 8 -1 7 -1 6 -1 0
2  1 -1 10 -1 9 -1 8 -1 7 -1 6 -1 0
2  16 -1 67 1 17 1 18 -1 2 1 3 -1 4 1 5 -1 6 1 7 1 8 1 9 1 10 1 0
2  9 -1 8 -1 7 -1 6 -1 5 1 4 -1 3 1 2 -1 18 1 17 -1 67 -1 16 1 0
2  4 1 5 -1 6 1 7 1 8 1 9 1 10 1 0
2  12 -1 13 1 15 1 16 -1 17 1 18 -1 2 1 3 -1 0
2  44 1 12 -1 13 1 15 1 16 -1 17 1 18 -1 2 1 3 -1 0
1
              1               0               0              -0 
              0              -1               0              -0 
              0               0              -1           -13.5 
2  101 1 3 -1 0
2  12 -1 13 1 15 1 16 -1 17 1 18 -1 2 1 101 -1 0
2  3 1 101 -1 0
2  1 -1 10 -1 9 -1 8 -1 7 -1 6 -1 5 1 4 -1 3 1 101 -1 0
1
              1               0               0              -0 
              0              -1               0              -0 
              0               0              -1            -2.5 
2  106 1 5 -1 0
2  5 1 106 -1 0
1
              1               0               0               0 
              0               1               0               0 
              0               0               1              11 
2  3 -1 109 1 4 1 106 -1 0
2  1 -1 10 -1 9 -1 8 -1 7 -1 6 -1 5 1 106 -1 0
2  1 -1 10 -1 9 -1 8 -1 7 -1 6 -1 5 1 4 -1 0
2  101 1 3 -1 109 1 0
2  109 -1 3 1 101 -1 0
2  101 -1 0
2  1 -1 10 -1 9 -1 8 -1 7 -1 6 -1 5 1 4 -1 109 -1 3 1 101 -1 0
2  3 -1 109 1 4 1 5 -1 0
2  101 1 3 -1 109 1 4 1 5 -1 0
Curve2ds 134
1 5.0000000000019824 -75 0 1 
1 0 0 1 0 
2 8.0000000000019824 -72 0 1 -1 0 3
1 -1.5707963267948966 0 1 0 
2 12.499987660767999 -62.999994546403997 1 0 -0 1 7.4999876607680003
1 0 0 1 0 
1 29.999999999918 -75 -1 0 
1 0 0 1 0 
1 12.499999999979424 -55.500006885646151 0.99999999999867539 -1.6276946848046325e-06 
1 0 0 1 0 
1 29.999999999918 -75 0 1 
1 0 0 1 0 
2 22.499988019301 -63.000035143291996 1 0 -0 1 7.500011980699
1 0 0 1 0 
1 31.5 -50 -1 -6.3441315692866085e-17 
1 0 0 1 0 
2 28.5 -47 0 1 -1 0 3
1 -3.1415926535897931 0 1 0 
2 6.5 -47 0 1 -1 0 3
1 -1.5707963267948966 0 1 0 
1 31.5 -3.5 0 -1 
1 0 0 1 0 
1 3.5 -50 0 1 
1 0 0 1 0 
2 28.5 -6.5 0 1 1 -0 3
1 0 0 1 0 
2 6.5 -6.5 0 1 -1 0 3
1 0 0 1 0 
1 3.5 -3.5 1 0 
1 0 0 1 0 
1 0 0 1 0 
1 0 -27 1 0 
1 0 -80 0 1 
1 0 -27 1 0 
1 35 0 0 -1 
1 0 -27 1 0 
1 35 -80 -1 0 
1 0 -27 1 0 
1 3 0 -0 -1 
1 0 0 0 1 
1 12.000000000008214 0 0 -1 
1 3.1415933807359999 0 0 -1 
1 0 -15 1 0 
1 12.499996006081661 -8.8365272117530935 0 1 
1 1.5707963267948966 0 0 1 
1 21.999999999916017 0 0 -1 
1 -1.5707963267948966 15.000000000000002 1 0 
2 9.4999960060816608 -5.8365272117530935 0 1 1 -0 3
1 1.5707946815639999 0 0 -1 
1 0 0 0 -1 
1 0 -15 1 0 
2 5.0000083453156439 3.1634782418429062 -1 2.6825476110736978e-64 2.6825476110736978e-64 1 7.4999876607680003
1 0 0 0 -1 
1 0 0 0 -1 
1 0 -15 1 0 
1 -12.500003993834357 -8.8365272117530935 1 -2.6825476110736978e-64 
1 0 -15 1 0 
1 4.9999960061042197 10.663465902600755 -0.99999999999867539 -1.6276946848046325e-06 
1 10.000000000055755 0 0 -1 
1 1.570794729368 0 0 -1 
1 0 -15 1 0 
1 4.9999960061042197 10.663465902600755 -0.99999999999867539 -1.6276946848046325e-06 
1 0 -15 1 0 
1 4.9999960061042197 10.663465902600755 -0.99999999999867539 -1.6276946848046325e-06 
1 0 -15 1 0 
1 -12.500003993834357 -8.8365272117530935 0 1 
1 12.00000000005414 0 0 -1 
1 4.6857720000000002e-06 0 0 -1 
1 0 -15 1 0 
2 -4.9999920132173559 3.1634376449549073 -1 2.6825476110736978e-64 2.6825476110736978e-64 1 7.500011980699
1 3 0 0 -1 
1 0 0 0 1 
1 25 0 0 -1 
1 1.5707963267948968 0 0 1 
1 -0 -23.5 1 0 
1 -14 -23.25 1 -6.3441315692866085e-17 
1 1.5707963267948966 0 0 1 
1 43.5 0 0 -1 
1 -3.1415926535897931 23.5 1 0 
2 -11 -20.25 0 1 1 -0 3
1 0 0 0 1 
1 3 0 -0 -1 
1 -1.5707963267948966 23.5 1 0 
2 11 -20.25 0 1 1 -0 3
1 3 0 0 -1 
1 1.5707963267948966 0 0 1 
1 0 -23.5 1 0 
1 -14 23.25 0 -1 
1 43.5 0 -0 -1 
1 1.5707963267948966 0 0 1 
1 0 -23.5 1 0 
1 14 -23.25 0 1 
1 0 0 0 1 
1 25 0 -0 -1 
1 0 23.5 1 0 
2 -11 20.25 0 1 -1 0 3
1 0 0 0 1 
1 3 0 -0 -1 
1 0 23.5 1 0 
2 11 20.25 0 1 1 -0 3
1 0 -23.5 1 0 
1 14 23.25 -1 0 
1 0 0 0 -1 
1 80 0 0 -1 
1 35 0 0 -1 
1 0 0 0 -1 
1 0 0 1 0 
1 0 0 1 0 
1 0 0 0 -1 
1 35 0 0 -1 
1 0 0 1 0 
1 0 -80 0 1 
1 80 0 0 -1 
1 0 -0 0 -1 
1 0 0 1 0 
1 35 0 0 -1 
1 0 -0 1 0 
1 35 -80 -1 0 
2 -3.9939163559387778e-06 3.6634727882469065 -1 2.6825476110736978e-64 -2.6825476110736978e-64 -1 7
1 0 -0.99999999999999822 1 0 
2 -3.9939163559387778e-06 3.6634727882469065 -1 2.6825476110736978e-64 -2.6825476110736978e-64 -1 7
1 0 -0.99999999999999822 1 0 
2 -3.9939163559387778e-06 3.6634727882469065 -1 2.6825476110736978e-64 -2.6825476110736978e-64 -1 7
1 0 -0.99999999999999822 1 0 
2 17.5 -62.5 1 0 0 -1 8
1 0 0 1 0 
1 0 0 0 -1 
1 6.2831853071795862 0 0 -1 
1 0 0 1 0 
2 -6.8372006626971174e-16 3.5527136788005009e-15 -1 0 -0 -1 7
1 0 0 0 -1 
1 6.2831853071795862 0 0 -1 
1 0 -11 1 0 
2 -6.8372006626971174e-16 3.5527136788005009e-15 -1 0 -0 -1 8
Curves 67
1 -12.499999999998018 -35 0 0 1 0 
8 1.5707963267948966 3.1415926535897931
2 -9.4999999999980176 -32 13.5 0 0 1 0 1 -0 -1 0 0 3
2 -5.0000123392319997 -22.999994546404 0 0 0 1 1 0 -0 -0 1 0 7.4999876607680003
1 12.499999999918 -35 0 -1 0 0 
1 -5.0000000000205755 -15.500006885646151 0 0.99999999999867539 -1.6276946848046325e-06 0 
1 12.499999999918 -35 0 0 1 0 
2 4.999988019301 -23.000035143291999 0 0 0 1 1 0 -0 -0 1 0 7.500011980699
1 14 -10 0 -1 -6.3441315692866085e-17 0 
8 3.1415926535897931 4.7123889803846897
2 11 -7 13.5 0 0 1 0 1 -0 -1 0 0 3
8 1.5707963267948966 3.1415926535897931
2 -11 -7.0000000000000018 13.5 0 0 1 0 1 -0 -1 0 0 3
1 14 36.5 0 0 -1 0 
1 -14 -10.000000000000002 0 0 1 0 
8 0 1.5707963267948966
2 11 33.5 13.5 -0 -0 -1 0 1 -0 1 -0 0 3
8 0 1.5707963267948966
2 -11 33.5 13.5 0 0 1 0 1 -0 -1 0 0 3
1 -14 36.5 0 1 0 0 
1 -17.5 40 0 1 0 0 
1 -17.5 -40 0 0 1 0 
1 17.5 40 0 0 -1 0 
1 17.5 -40 0 -1 0 0 
1 -12.499999999998018 -32 13.5 -0 -0 -1 
1 -12.499999999998018 -22.999999999991786 13.5 -0 -0 -1 
1 -12.499999999998018 -35 0 0 1 0 
1 -9.4999999999980176 -35 13.5 -0 -0 -1 
8 1.5707963267948966 3.1415926535897931
2 -9.4999999999980176 -32 -1.5000000000000018 0 0 1 0 1 -0 -1 0 0 3
1 -5.0000000000205755 -15.500006885646151 13.5 -0 -0 -1 
2 -5.0000123392319997 -22.999994546404 0 0 0 1 1 0 -0 -0 1 0 7.4999876607680003
1 12.499999999918 -35 13.5 -0 -0 -1 
1 12.499999999918 -35 0 -1 0 0 
1 -5.0000000000205755 -15.500006885646151 0 0.99999999999867539 -1.6276946848046325e-06 0 
1 5.0000000000219309 -15.500023162597785 13.5 -0 -0 -1 
1 -5.0000000000205755 -15.500006885646151 0 0.99999999999867539 -1.6276946848046325e-06 0 
1 -5.0000000000205755 -15.500006885646151 0 0.99999999999867539 -1.6276946848046325e-06 0 
1 12.499999999918 -35 0 0 1 0 
1 12.499999999917831 -22.99999999994586 13.5 -0 -0 -1 
2 4.999988019301 -23.000035143291999 0 0 0 1 1 0 -0 -0 1 0 7.500011980699
1 11 -10 13.5 -0 -0 -1 
1 -11 -10.000000000000002 13.5 -0 -0 -1 
1 14 -10 0 -1 -6.3441315692866085e-17 0 
1 14 -7 13.5 -0 -0 -1 
8 3.1415926535897931 4.7123889803846897
2 11 -7 -10 0 0 1 0 1 -0 -1 0 0 3
1 -14 -7.0000000000000018 13.5 -0 -0 -1 
8 1.5707963267948966 3.1415926535897931
2 -11 -7.0000000000000018 -10 0 0 1 0 1 -0 -1 0 0 3
1 14 33.5 13.5 -0 -0 -1 
1 14 36.5 0 0 -1 0 
1 -14 33.5 13.5 -0 -0 -1 
1 -14 -10.000000000000002 0 0 1 0 
1 11 36.5 13.5 -0 -0 -1 
8 0 1.5707963267948966
2 11 33.5 -10 -0 -0 -1 0 1 -0 1 -0 0 3
1 -11 36.5 13.5 -0 -0 -1 
8 0 1.5707963267948966
2 -11 33.5 -10 0 0 1 0 1 -0 -1 0 0 3
1 -14 36.5 0 1 0 0 
1 -17.5 40 -13.5 0 0 1 
1 17.5 40 -13.5 0 0 1 
1 -17.5 40 0 1 0 0 
1 -17.5 -40 -13.5 0 0 1 
1 -17.5 -40 0 0 1 0 
1 17.5 -40 -13.5 0 0 1 
1 17.5 40 0 0 -1 0 
1 17.5 -40 0 -1 0 0 
2 0 -22.5 -1.5000000000000018 0 0 -1 1 0 0 0 -1 0 7
2 0 -22.5 -1.5000000000000018 0 0 -1 1 0 0 0 -1 0 7
2 0 -22.5 -1.5000000000000018 0 0 -1 1 0 0 0 -1 0 7
2 0 22.5 0 0 0 1 1 0 -0 -0 1 0 8
1 7 -22.5 -2.5 0 0 1 
2 0 22.5 0 0 0 1 1 0 -0 -0 1 0 7
1 8 -22.5 -13.5 0 0 1 
2 0 22.5 0 0 0 1 1 0 -0 -0 1 0 8
Polygon3D 0
PolygonOnTriangulations 0
Surfaces 27
1 -17.5 40 0 -0 0 1 1 0 0 0 1 -0 
1 -12.499999999998018 -35 13.5 1 0 0 -0 1 0 0 -0 1 
2 -9.4999999999980176 -32 13.5 -0 -0 -1 -1 0 0 -0 -1 0 3
2 -5.0000123392319997 -22.999994546404 13.5 0 0 1 1 0 -0 -0 1 0 7.4999876607680003
1 12.499999999918 -35 13.5 0 1 -0 -1 0 0 0 0 1 
1 -5.0000000000205755 -15.500006885646151 13.5 -1.6276946848046325e-06 -0.99999999999867539 0 0.99999999999867539 -1.6276946848046325e-06 0 0 0 1 
1 12.499999999918 -35 13.5 1 0 0 -0 1 0 0 -0 1 
2 4.999988019301 -23.000035143291999 13.5 0 0 1 1 0 -0 -0 1 0 7.500011980699
1 14 -10 13.5 -6.3441315692866085e-17 1 0 -1 -6.3441315692866085e-17 0 0 0 1 
2 11 -7 13.5 -0 -0 -1 6.3441315692866085e-17 -1 0 1 6.3441315692866085e-17 -0 3
2 -11 -7.0000000000000018 13.5 -0 -0 -1 -1 0 0 -0 -1 0 3
1 14 36.5 13.5 -1 0 0 0 -1 0 0 0 1 
1 -14 -10.000000000000002 13.5 1 0 0 -0 1 0 0 -0 1 
2 11 33.5 13.5 -0 -0 -1 0 1 -0 1 -0 0 3
2 -11 33.5 13.5 -0 -0 -1 0 1 -0 -1 0 -0 3
1 -14 36.5 13.5 0 -1 0 1 0 0 -0 0 1 
1 -17.5 40 -13.5 0 1 0 1 0 0 0 0 -1 
1 -17.5 -40 -13.5 -1 0 0 0 1 0 0 0 -1 
1 17.5 40 -13.5 1 0 -0 0 -1 0 0 -0 -1 
1 17.5 -40 -13.5 0 -1 0 -1 0 0 -0 -0 -1 
1 -3.9939163559387778e-06 -26.163472788246906 13.499999999999998 1.6385774144160173e-32 -1.6371198501047004e-32 -1 -1 0 -1.6385774144160173e-32 2.6825476110736978e-64 1 -1.6371198501047004e-32 
10 -931.50219382871126 931.50218584087861 -927.83871704654803 980.16566262304184
1 -3.9939163559387778e-06 -26.163472788246906 -1.5000000000000018 1.6385774144160173e-32 -1.6371198501047004e-32 -1 -1 0 -1.6385774144160173e-32 2.6825476110736978e-64 1 -1.6371198501047004e-32 
1 0 13.25 13.5 -0 -0 -1 -1 0 0 0 1 -0 
1 -17.5 40 0 -0 0 1 1 0 0 0 1 -0 
2 0 -22.5 -2.5 0 0 -1 1 0 0 0 -1 0 7
2 0 -22.5 -13.5 0 0 -1 1 0 0 0 -1 0 8
1 -6.8372006626971174e-16 -22.500000000000004 -13.5 -0 -0 -1 -1 0 0 0 1 -0 
Triangulations 0

TShapes 172
Ve
1e-07
-12.499999999998 -32 13.5
0 0

0101101
*
Ve
1.00000211386464e-07
-12.499999999998 -22.9999999999918 13.5
0 0

0101101
*
Ed
 1e-07 1 1 0
1  1 0 3 12.000000000008
2  1 1 23 3 12.000000000008
2  2 2 24 3 12.000000000008
0

0101000
+172 25 -171 25 *
Ve
1e-07
-9.49999999999802 -35 13.5
0 0

0101101
*
Ed
 1e-07 1 1 0
1  2 0 1.5707963267949 3.14159265358979
2  3 1 26 1.5707963267949 3.14159265358979
2  4 3 0 1.5707963267949 3.14159265358979
0

0101000
+172 27 -169 27 *
Ve
1e-07
-5.00000000002058 -15.5000068856462 13.5
0 0

0101101
*
Ed
 1e-07 1 1 0
1  3 0 1.570794681564 3.141593380736
2  5 1 23 1.570794681564 3.141593380736
2  6 4 24 1.570794681564 3.141593380736
0

0101000
+167 25 -171 25 *
Ve
1e-07
12.499999999918 -35 13.5
0 0

0101101
*
Ed
 1e-07 1 1 0
1  4 0 0 21.999999999916
2  7 1 23 0 21.999999999916
2  8 5 24 0 21.999999999916
0

0101000
-169 25 +165 25 *
Ve
1.0000478511226e-07
5.00000000002193 -15.5000231625978 13.5
0 0

0101101
*
Ed
 1e-07 1 1 0
1  5 0 0 10.0000000000558
2  9 1 23 0 10.0000000000558
2  10 6 24 0 10.0000000000558
0

0101000
+167 25 -163 25 *
Ve
1.000001687539e-07
12.4999999999178 -22.9999999999459 13.5
0 0

0101101
*
Ed
 1e-07 1 1 0
1  6 0 0 12.0000000000541
2  11 1 23 0 12.0000000000541
2  12 7 24 0 12.0000000000541
0

0101000
+165 25 -161 25 *
Ed
 1e-07 1 1 0
1  7 0 4.685772e-06 1.570794729368
2  13 1 23 4.685772e-06 1.570794729368
2  14 8 24 4.685772e-06 1.570794729368
0

0101000
+161 25 -163 25 *
Wi

0101100
+170 22 -168 0 -166 22 +164 22 +162 22 -160 22 -159 22 *
Ve
1e-07
11 -10 13.5
0 0

0101101
*
Ve
1e-07
-11 -10 13.5
0 0

0101101
*
Ed
 1e-07 1 1 0
1  8 0 3 25
2  15 1 31 3 25
2  16 9 32 3 25
0

0101000
+157 33 -156 33 *
Ve
1e-07
14 -7 13.5
0 0

0101101
*
Ed
 1e-07 1 1 0
1  9 0 3.14159265358979 4.71238898038469
2  17 1 34 3.14159265358979 4.71238898038469
2  18 10 0 3.14159265358979 4.71238898038469
0

0101000
+157 35 -154 35 *
Ve
1e-07
-14 -7 13.5
0 0

0101101
*
Ed
 1e-07 1 1 0
1  10 0 1.5707963267949 3.14159265358979
2  19 1 36 1.5707963267949 3.14159265358979
2  20 11 0 1.5707963267949 3.14159265358979
0

0101000
+152 37 -156 37 *
Ve
1e-07
14 33.5 13.5
0 0

0101101
*
Ed
 1e-07 1 1 0
1  11 0 3 43.5
2  21 1 31 3 43.5
2  22 12 32 3 43.5
0

0101000
-154 33 +150 33 *
Ve
1e-07
-14 33.5 13.5
0 0

0101101
*
Ed
 1e-07 1 1 0
1  12 0 3 43.5
2  23 1 31 3 43.5
2  24 13 32 3 43.5
0

0101000
+152 33 -148 33 *
Ve
1e-07
11 36.5 13.5
0 0

0101101
*
Ed
 1e-07 1 1 0
1  13 0 0 1.5707963267949
2  25 1 39 0 1.5707963267949
2  26 14 0 0 1.5707963267949
0

0101000
+146 40 -150 40 *
Ve
1e-07
-11 36.5 13.5
0 0

0101101
*
Ed
 1e-07 1 1 0
1  14 0 0 1.5707963267949
2  27 1 42 0 1.5707963267949
2  28 15 0 0 1.5707963267949
0

0101000
+144 43 -148 43 *
Ed
 1e-07 1 1 0
1  15 0 3 25
2  29 1 31 3 25
2  30 16 32 3 25
0

0101000
+144 33 -146 33 *
Wi

0101100
+155 30 -153 0 -151 9 +149 30 +147 30 +145 38 -143 41 +142 30 *
Ve
1e-07
-17.5 40 13.5
0 0

0101101
*
Ve
1e-07
17.5 40 13.5
0 0

0101101
*
Ed
 1e-07 1 1 0
1  16 0 0 35
2  31 1 46 0 35
2  32 17 47 0 35
0

0101000
+140 48 -139 48 *
Ve
1e-07
-17.5 -40 13.5
0 0

0101101
*
Ed
 1e-07 1 1 0
1  17 0 0 80
2  33 1 46 0 80
2  34 18 47 0 80
0

0101000
+137 48 -140 48 *
Ve
1e-07
17.5 -40 13.5
0 0

0101101
*
Ed
 1e-07 1 1 0
1  18 0 0 80
2  35 1 46 0 80
2  36 19 47 0 80
0

0101000
+139 48 -135 48 *
Ed
 1e-07 1 1 0
1  19 0 0 35
2  37 1 46 0 35
2  38 20 47 0 35
0

0101000
+135 48 -137 48 *
Wi

0101100
-138 45 -136 45 -134 45 -133 45 *
Fa
0  1e-07 1 19

0111000
+158 20 +141 28 +132 0 *
Ve
1e-07
-12.499999999998 -32 -1.5
0 0

0101101
*
Ed
 1e-07 1 1 0
1  20 0 -0 15
2  39 2 11 -0 15
2  40 3 0 -0 15
4 G1 2 11 3 0
0

0101000
+172 27 -130 27 *
Ve
1.00000211386464e-07
-12.499999999998 -22.9999999999918 -1.5
0 0

0101101
*
Ed
 1.00000211386464e-07 1 1 0
1  21 0 0 15
2  41 2 0 0 15
2  42 4 0 0 15
4 G1 2 0 4 0
0

0101000
+171 49 -128 49 *
Ed
 1e-07 1 1 0
1  22 0 3 12.000000000008
2  43 2 52 3 12.000000000008
2  44 21 53 3 12.000000000008
0

0101000
+130 54 -128 54 *
Wi

0101100
-170 22 +129 0 -127 11 +126 51 *
Fa
0  1e-07 2 0

0111000
+125 20 *
Ve
1e-07
-9.49999999999802 -35 -1.5
0 0

0101101
*
Ed
 1e-07 1 1 0
1  23 0 -0 15
2  45 3 0 -0 15
2  46 5 11 -0 15
4 G1 3 0 5 11
0

0101000
+169 27 -123 27 *
Ed
 1e-07 1 1 0
1  24 0 1.5707963267949 3.14159265358979
2  47 3 0 1.5707963267949 3.14159265358979
2  48 21 55 1.5707963267949 3.14159265358979
0

0101000
+130 27 -123 27 *
Wi

0101100
+168 0 -129 0 +122 0 -121 0 *
Fa
0  1e-07 3 0

0111000
+120 0 *
Ve
1e-07
-5.00000000002058 -15.5000068856462 -1.5
0 0

0101101
*
Ed
 1e-07 1 1 0
1  25 0 0 15
2  49 4 0 0 15
2  50 6 0 0 15
4 G1 4 0 6 0
0

0101000
+167 49 -118 49 *
Ed
 1e-07 1 1 0
1  26 0 1.570794681564 3.141593380736
2  51 4 52 1.570794681564 3.141593380736
2  52 21 53 1.570794681564 3.141593380736
0

0101000
+118 54 -128 54 *
Wi

0101100
+117 0 -166 56 +116 57 -127 0 *
Fa
0  1e-07 4 0

0111000
+115 0 *
Ve
1e-07
12.499999999918 -35 -1.5
0 0

0101101
*
Ed
 1e-07 1 1 0
1  27 0 0 15
2  53 5 0 0 15
2  54 7 0 0 15
0

0101000
+165 49 -113 49 *
Ed
 1e-07 1 1 0
1  28 0 0 21.999999999916
2  55 5 52 0 21.999999999916
2  56 21 53 0 21.999999999916
0

0101000
-123 54 +113 54 *
Wi

0101100
-164 22 -122 0 +112 11 +111 51 *
Fa
0  1e-07 5 0

0111000
+110 20 *
Ve
1.00001002006615e-07
-0.0144916257835037 -15.5000150005316 -1.5
0 0

0101101
*
Ed
 1e-07 1 1 0
1  29 0 0 4.98550837424368
2  57 6 52 0 4.98550837424368
2  58 21 53 0 4.98550837424368
0

0101000
+118 54 -108 54 *
Ve
1.0000478511226e-07
5.00000000002193 -15.5000231625978 -1.5
0 0

0101101
*
Ed
 1.0000478511226e-07 1 1 0
1  30 0 0 15
2  59 6 0 0 15
2  60 8 0 0 15
4 G1 6 0 8 0
0

0101000
+163 49 -106 49 *
Ve
1.00001016248603e-07
0.0145144134594525 -15.5000150477446 -1.5
0 0

0101101
*
Ed
 1e-07 1 1 0
1  31 0 4.98550837424368 5.01451441348667
2  61 6 52 4.98550837424368 5.01451441348667
2  62 22 62 4.98550837424368 5.01451441348667
0

0101000
+108 54 -104 54 *
Ed
 1e-07 1 1 0
1  32 0 5.01451441348667 10.0000000000558
2  63 6 52 5.01451441348667 10.0000000000558
2  64 21 53 5.01451441348667 10.0000000000558
0

0101000
+104 54 -106 54 *
Wi

0101100
+117 59 -162 60 +107 61 -105 59 +103 61 +102 61 *
Fa
0  1e-07 6 59

0111000
+101 0 *
Ve
1.000001687539e-07
12.4999999999178 -22.9999999999459 -1.5
0 0

0101101
*
Ed
 1e-07 1 1 0
1  33 0 0 12.0000000000541
2  65 7 52 0 12.0000000000541
2  66 21 53 0 12.0000000000541
0

0101000
+113 54 -99 54 *
Ed
 1.000001687539e-07 1 1 0
1  34 0 0 15
2  67 7 0 0 15
2  68 8 0 0 15
4 G1 7 0 8 0
0

0101000
+161 49 -99 49 *
Wi

0101100
+112 0 -160 56 +98 57 -97 0 *
Fa
0  1e-07 7 0

0111000
+96 0 *
Ed
 1e-07 1 1 0
1  35 0 4.685772e-06 1.570794729368
2  69 8 52 4.685772e-06 1.570794729368
2  70 21 53 4.685772e-06 1.570794729368
0

0101000
+99 54 -106 54 *
Wi

0101100
+97 0 -159 56 +94 57 -105 0 *
Fa
0  1e-07 8 0

0111000
+93 0 *
Ve
1e-07
11 -10 -10
0 0

0101101
*
Ed
 1e-07 1 1 0
1  36 0 -0 23.5
2  71 9 65 -0 23.5
2  72 10 0 -0 23.5
4 G1 9 65 10 0
0

0101000
+157 35 -91 35 *
Ve
1e-07
-11 -10 -10
0 0

0101101
*
Ed
 1e-07 1 1 0
1  37 0 -0 23.5
2  73 9 66 -0 23.5
2  74 11 0 -0 23.5
4 G1 9 66 11 0
0

0101000
+156 37 -89 37 *
Ed
 1e-07 1 1 0
1  38 0 3 25
2  75 9 69 3 25
2  76 23 70 3 25
0

0101000
+91 71 -89 71 *
Wi

0101100
-155 30 +90 0 -88 9 +87 68 *
Fa
0  1e-07 9 0

0111000
+86 64 *
Ve
1e-07
14 -7 -10
0 0

0101101
*
Ed
 1e-07 1 1 0
1  39 0 -0 23.5
2  77 10 0 -0 23.5
2  78 12 65 -0 23.5
4 G1 10 0 12 65
0

0101000
+154 35 -84 35 *
Ed
 1e-07 1 1 0
1  40 0 3.14159265358979 4.71238898038469
2  79 10 0 3.14159265358979 4.71238898038469
2  80 23 72 3.14159265358979 4.71238898038469
0

0101000
+91 35 -84 35 *
Wi

0101100
+153 0 -90 0 +83 0 -82 0 *
Fa
0  1e-07 10 0

0111000
+81 0 *
Ve
1e-07
-14 -7 -10
0 0

0101101
*
Ed
 1e-07 1 1 0
1  41 0 0 23.5
2  81 11 0 0 23.5
2  82 13 66 0 23.5
4 G1 11 0 13 66
0

0101000
+152 37 -79 37 *
Ed
 1e-07 1 1 0
1  42 0 1.5707963267949 3.14159265358979
2  83 11 0 1.5707963267949 3.14159265358979
2  84 23 74 1.5707963267949 3.14159265358979
0

0101000
+79 37 -89 37 *
Wi

0101100
+151 0 -78 0 +88 0 -77 0 *
Fa
0  1e-07 11 0

0111000
+76 0 *
Ve
1e-07
14 33.5 -10
0 0

0101101
*
Ed
 1e-07 1 1 0
1  43 0 -0 23.5
2  85 12 75 -0 23.5
2  86 14 0 -0 23.5
4 G1 12 75 14 0
0

0101000
+150 40 -74 40 *
Ed
 1e-07 1 1 0
1  44 0 3 43.5
2  87 12 69 3 43.5
2  88 23 70 3 43.5
0

0101000
-84 71 +74 71 *
Wi

0101100
-149 30 -83 0 +73 38 +72 68 *
Fa
0  1e-07 12 0

0111000
+71 64 *
Ve
1e-07
-14 33.5 -10
0 0

0101101
*
Ed
 1e-07 1 1 0
1  45 0 -0 23.5
2  89 13 78 -0 23.5
2  90 15 0 -0 23.5
4 G1 13 78 15 0
0

0101000
+148 43 -69 43 *
Ed
 1e-07 1 1 0
1  46 0 3 43.5
2  91 13 69 3 43.5
2  92 23 70 3 43.5
0

0101000
+79 71 -69 71 *
Wi

0101100
-147 77 +78 0 -68 8 +67 79 *
Fa
0  1e-07 13 0

0111000
+66 76 *
Ve
1e-07
11 36.5 -10
0 0

0101101
*
Ed
 1e-07 1 1 0
1  47 0 -0 23.5
2  93 14 0 -0 23.5
2  94 16 75 -0 23.5
4 G1 14 0 16 75
0

0101000
+146 40 -64 40 *
Ed
 1e-07 1 1 0
1  48 0 0 1.5707963267949
2  95 14 0 0 1.5707963267949
2  96 23 81 0 1.5707963267949
0

0101000
+64 40 -74 40 *
Wi

0101100
+145 0 -63 0 +73 0 -62 0 *
Fa
0  1e-07 14 0

0111000
+61 0 *
Ve
1e-07
-11 36.5 -10
0 0

0101101
*
Ed
 1e-07 1 1 0
1  49 0 -0 23.5
2  97 15 0 -0 23.5
2  98 16 78 -0 23.5
4 G1 15 0 16 78
0

0101000
+144 43 -59 43 *
Ed
 1e-07 1 1 0
1  50 0 0 1.5707963267949
2  99 15 0 0 1.5707963267949
2  100 23 83 0 1.5707963267949
0

0101000
+59 43 -69 43 *
Wi

0101100
+143 0 -58 0 +68 0 -57 0 *
Fa
0  1e-07 15 0

0111000
+56 0 *
Ed
 1e-07 1 1 0
1  51 0 3 25
2  101 16 69 3 25
2  102 23 70 3 25
0

0101000
+59 71 -64 71 *
Wi

0101100
-142 85 +58 0 -63 7 +54 86 *
Fa
0  1e-07 16 0

0111000
+53 84 *
Ve
1e-07
-17.5 40 -13.5
0 0

0101101
*
Ed
 1e-07 1 1 0
1  52 0 0 27
2  103 17 0 0 27
2  104 18 0 0 27
0

0101000
+51 88 -140 88 *
Ve
1e-07
17.5 40 -13.5
0 0

0101101
*
Ed
 1e-07 1 1 0
1  53 0 0 27
2  105 17 0 0 27
2  106 19 0 0 27
0

0101000
+49 88 -139 88 *
Ed
 1e-07 1 1 0
1  54 0 0 35
2  107 17 90 0 35
2  108 24 46 0 35
0

0101000
+51 91 -49 91 *
Wi

0101000
+50 0 -48 0 -47 89 +138 92 *
Fa
0  1e-07 17 0

0111000
+46 0 *
Ve
1e-07
-17.5 -40 -13.5
0 0

0101101
*
Ed
 1e-07 1 1 0
1  55 0 0 27
2  109 18 0 0 27
2  110 20 0 0 27
0

0101000
+44 88 -137 88 *
Ed
 1e-07 1 1 0
1  56 0 0 80
2  111 18 90 0 80
2  112 24 46 0 80
0

0101000
+44 91 -51 91 *
Wi

0101000
+43 0 -50 0 -42 89 +136 92 *
Fa
0  1e-07 18 0

0111000
+41 0 *
Ve
1e-07
17.5 -40 -13.5
0 0

0101101
*
Ed
 1e-07 1 1 0
1  57 0 0 27
2  113 19 0 0 27
2  114 20 0 0 27
0

0101000
+39 88 -135 88 *
Ed
 1e-07 1 1 0
1  58 0 0 80
2  115 19 90 0 80
2  116 24 46 0 80
0

0101000
+49 91 -39 91 *
Wi

0101000
+48 0 -38 0 -37 89 +134 92 *
Fa
0  1e-07 19 0

0111000
+36 0 *
Ed
 1e-07 1 1 0
1  59 0 0 35
2  117 20 90 0 35
2  118 24 46 0 35
0

0101000
+39 91 -44 91 *
Wi

0101000
+38 0 -43 0 -34 89 +133 92 *
Fa
0  1e-07 20 0

0111000
+33 0 *
Ve
2.00001e-07
7 -22.5 -1.5
0 0

0101101
*
Ed
 1e-07 1 1 0
1  60 0 0 4.71031874665111
2  119 21 93 0 4.71031874665111
2  120 25 0 0 4.71031874665111
0

0101000
+31 95 -108 95 *
Ed
 1e-07 1 1 0
1  61 0 4.71446246950753 6.28318530717959
2  121 21 93 4.71446246950753 6.28318530717959
2  122 25 0 4.71446246950753 6.28318530717959
0

0101000
+104 95 -31 95 *
Wi

0101100
+126 51 -121 0 -116 51 +111 51 +107 51 -98 51 -30 58 -94 51 -29 58 +102 51 
*
Fa
0  1e-07 21 93

0111000
+28 94 *
Ed
 1e-07 1 1 0
1  62 0 4.71031874665111 4.71446246950753
2  123 22 0 4.71031874665111 4.71446246950753
2  124 25 0 4.71031874665111 4.71446246950753
0

0101000
+108 95 -104 95 *
Wi

0101100
-103 61 +26 0 *
Fa
0  1e-07 22 0

0111000
+25 0 *
Wi

0101100
+87 68 -82 0 -77 9 +72 68 +67 68 +62 38 -57 41 +54 68 *
Fa
0  1e-07 23 0

0111000
+23 97 *
Wi

0101100
-47 100 -42 100 -37 100 -34 100 *
Ve
1e-07
8 -22.5 -13.5
0 0

0101101
*
Ed
 1e-07 1 1 0
1  63 0 0 6.28318530717959
2  125 24 103 0 6.28318530717959
2  126 26 104 0 6.28318530717959
0

0101000
+20 105 -20 105 *
Wi

0101100
+19 102 *
Fa
0  1e-07 24 99

0111000
+21 0 +18 0 *
Ve
1e-07
7 -22.5 -2.5
0 0

0101101
*
Ed
 1e-07 1 1 0
1  64 0 0 0.999999999999998
3  127 128CN 25 0 0 0.999999999999998
0

0101000
+16 95 -31 95 *
Ed
 1e-07 1 1 0
1  65 0 0 6.28318530717959
2  129 25 108 0 6.28318530717959
2  130 27 110 0 6.28318530717959
0

0101000
+16 111 -16 111 *
Wi

0101100
-15 0 +29 0 +26 0 +30 0 +15 0 -14 107 *
Fa
0  1e-07 25 0

0111000
+13 0 *
Ve
1e-07
8 -22.5 -2.5
0 0

0101101
*
Ed
 1e-07 1 1 0
1  66 0 0 11
3  131 132CN 26 0 0 11
0

0101000
+20 112 -11 112 *
Ed
 1e-07 1 1 0
1  67 0 0 6.28318530717959
2  133 26 114 0 6.28318530717959
2  134 27 115 0 6.28318530717959
0

0101000
+11 116 -11 116 *
Wi

0101100
-19 102 -10 0 +9 113 +10 0 *
Fa
0  1e-07 26 0

0111000
+8 0 *
Wi

0101100
+9 118 *
Wi

0101100
-14 107 *
Fa
0  1e-07 27 117

0111000
+6 0 +5 0 *
Sh

0101100
+131 11 +124 11 +119 0 -114 11 +109 11 +100 58 -95 11 -92 11 +85 63 +80 10 
+75 73 +70 63 +65 63 -60 80 +55 82 +52 63 +45 87 +40 87 +35 87 +32 87 
-27 58 +24 58 -22 96 -17 98 -12 58 -7 98 +4 58 *
So

0100000
+3 0 *
Co

1100000
+2 0 *

+1 1 