DBRep_DrawableShape

CASCADE Topology V1, (c) Matra-Datavision
Locations 63
1
              1               0               0               0 
              0               1               0               0 
              0               0               1               0 
1
              1               0               0               0 
              0               1               0               0 
              0               0               1               0 
1
              1               0               0               0 
              0               1               0               0 
              0               0               1               0 
1
              1               0               0               0 
              0               1               0               0 
              0               0               1               0 
1
              1               0               0               0 
              0               1               0               0 
              0               0               1               0 
1
              1               0               0               0 
              0               1               0               0 
              0               0               1               0 
1
              1               0               0               0 
              0               1               0               0 
              0               0               1               0 
2  2 1 3 -1 4 1 5 -1 6 1 7 -1 0
2  1 -1 7 1 6 -1 5 1 4 -1 3 1 2 -1 0
1
              1               0               0               0 
              0               1               0               0 
              0               0               1               0 
1
              1               0               0               0 
              0               1               0               0 
              0               0               1               0 
1
              1               0               0              -0 
              0               1               0              -0 
              0               0               1           -13.5 
2  10 1 11 -1 12 1 0
2  12 -1 11 1 10 -1 0
2  10 -1 0
2  1 -1 7 1 6 -1 5 1 4 -1 3 1 2 -1 12 -1 11 1 10 -1 0
1
              1               0               0               0 
              0               1               0               0 
              0               0               1              27 
2  10 1 11 -1 12 1 17 1 0
2  17 -1 12 -1 11 1 10 -1 0
2  1 -1 7 1 6 -1 5 1 4 -1 3 1 2 -1 17 -1 12 -1 11 1 10 -1 0
2  11 -1 12 1 2 1 3 -1 4 1 5 -1 6 1 7 -1 0
2  10 1 11 -1 12 1 2 1 3 -1 4 1 5 -1 6 1 7 -1 0
1
              1               0               0              -0 
              0              -1               0              -0 
              0               0              -1           -13.5 
2  23 1 7 -1 0
2  11 -1 12 1 2 1 3 -1 4 1 5 -1 6 1 23 -1 0
2  7 1 23 -1 0
2  1 -1 7 1 23 -1 0
2  6 1 7 -1 0
2  11 -1 12 1 17 1 2 1 3 -1 4 1 5 -1 0
2  10 1 11 -1 12 1 17 1 2 1 3 -1 4 1 5 -1 0
1
              1               0               0              -0 
              0               1               0               0 
              0               0               1            13.5 
2  31 1 5 -1 0
2  11 -1 12 1 17 1 2 1 3 -1 4 1 31 -1 0
2  5 1 31 -1 0
2  1 -1 7 1 6 -1 5 1 31 -1 0
1
              1               0               0              -0 
              0               1               0               0 
              0               0               1            13.5 
2  36 1 3 -1 4 1 5 -1 0
2  11 -1 12 1 17 1 2 1 36 -1 0
2  3 1 36 -1 0
2  1 -1 7 1 6 -1 5 1 4 -1 3 1 36 -1 0
2  1 -1 0
1
              1               0               0               0 
              0               1               0               0 
              0               0               1              11 
2  23 1 7 -1 42 1 0
2  42 -1 7 1 23 -1 0
2  23 -1 0
2  1 -1 42 -1 7 1 23 -1 0
2  1 -1 7 1 6 -1 0
1
              1               0               0              -0 
              0               1               0              -0 
              0               0               1             -15 
2  31 1 5 -1 48 1 0
2  48 -1 5 1 31 -1 0
2  31 -1 0
2  1 -1 7 1 6 -1 48 -1 5 1 31 -1 0
2  4 1 5 -1 6 1 7 -1 0
2  1 -1 7 1 6 -1 5 1 4 -1 0
2  36 1 3 -1 0
1
              1               0               0              -0 
              0               1               0              -0 
              0               0               1           -23.5 
2  36 1 3 -1 56 1 0
2  56 -1 3 1 36 -1 0
2  36 -1 0
2  1 -1 7 1 6 -1 5 1 4 -1 56 -1 3 1 36 -1 0
2  7 -1 42 1 0
2  5 -1 48 1 6 1 7 -1 0
2  3 -1 56 1 4 1 5 -1 6 1 7 -1 0
Curve2ds 90
1 0 0 0 -1 
1 80 0 0 -1 
1 35 0 0 -1 
1 0 0 0 -1 
1 0 0 1 0 
1 0 0 1 0 
1 0 -27 1 0 
1 0 0 1 0 
1 0 0 0 -1 
1 35 0 0 -1 
1 0 0 1 0 
1 0 -80 0 1 
1 0 -27 1 0 
1 0 -80 0 1 
1 80 0 0 -1 
1 0 -0 0 -1 
1 0 0 1 0 
1 35 0 0 -1 
1 0 -27 1 0 
1 35 0 0 -1 
1 35 -80 -1 0 
1 0 -0 1 0 
2 17.5 -62.5 1 0 0 -1 8
1 0 0 1 0 
1 35 -80 -1 0 
1 0 -27 1 0 
2 12.499987660767999 -62.999994546403997 1 0 -0 1 7.4999876607680003
1 0 0 1 0 
1 5.0000000000019824 -75 0 1 
1 0 0 1 0 
1 29.999999999918 -75 -1 0 
1 0 0 1 0 
1 29.999999999918 -75 0 1 
1 0 0 1 0 
2 22.499988019301 -63.000035143291996 1 0 -0 1 7.500011980699
1 0 0 1 0 
1 12.499999999979424 -55.500006885646151 0.99999999999867539 -1.6276946848046325e-06 
1 0 0 1 0 
1 3.5 -50 0 1 
1 0 0 1 0 
1 31.5 -50 -1 -6.3441315692866085e-17 
1 0 0 1 0 
1 3.5 -3.5 1 0 
1 0 0 1 0 
1 31.5 -3.5 0 -1 
1 0 0 1 0 
1 0 0 0 -1 
1 6.2831853071795862 0 0 -1 
1 0 -11 1 0 
2 -6.8372006626971174e-16 3.5527136788005009e-15 -1 0 -0 -1 8
1 1.5707946815639999 0 0 -1 
1 0 0 0 -1 
1 0 -15 1 0 
2 5.0000083453156439 3.1634782418429062 -1 2.6825476110736978e-64 2.6825476110736978e-64 1 7.4999876607680003
1 3.1415933807359999 0 0 -1 
1 12.000000000008214 0 0 -1 
1 0 0 0 -1 
1 24.999999999916017 0 0 -1 
1 0 -15 1 0 
1 12.499996006081661 -8.8365272117530935 0 1 
1 0 0 0 -1 
1 0 0 0 -1 
1 0 -15 1 0 
1 -12.500003993834357 -8.8365272117530935 1 -2.6825476110736978e-64 
1 0 -15 1 0 
1 -12.500003993834357 -8.8365272117530935 0 1 
1 12.00000000005414 0 0 -1 
1 4.6857720000000002e-06 0 0 -1 
1 0 -15 1 0 
2 -4.9999920132173559 3.1634376449549073 -1 2.6825476110736978e-64 2.6825476110736978e-64 1 7.500011980699
1 1.570794729368 0 0 -1 
1 10.000000000055755 0 0 -1 
1 0 -15 1 0 
1 4.9999960061042197 10.663465902600755 -0.99999999999867539 -1.6276946848046325e-06 
1 0 0 0 -1 
1 28 0 0 -1 
1 0 -23.5 1 0 
1 14 -23.25 0 1 
1 46.5 0 0 -1 
1 0 0 0 -1 
1 0 0 0 -1 
1 46.5 0 0 -1 
1 -0 -23.5 1 0 
1 -14 -23.25 1 -6.3441315692866085e-17 
1 0 -23.5 1 0 
1 14 23.25 -1 0 
1 28 0 0 -1 
1 0 0 0 -1 
1 0 -23.5 1 0 
1 -14 23.25 0 -1 
Curves 45
1 -17.5 40 -13.5 0 0 1 
1 17.5 40 -13.5 0 0 1 
1 -17.5 40 0 1 0 0 
1 -17.5 40 0 1 0 0 
1 -17.5 -40 -13.5 0 0 1 
1 -17.5 -40 0 0 1 0 
1 -17.5 -40 0 0 1 0 
1 17.5 -40 -13.5 0 0 1 
1 17.5 40 0 0 -1 0 
1 17.5 40 0 0 -1 0 
1 17.5 -40 0 -1 0 0 
2 0 22.5 0 0 0 1 1 0 -0 -0 1 0 8
1 17.5 -40 0 -1 0 0 
2 -5.0000123392319997 -22.999994546404 0 0 0 1 1 0 -0 -0 1 0 7.4999876607680003
1 -12.499999999998018 -35 0 0 1 0 
1 12.499999999918 -35 0 -1 0 0 
1 12.499999999918 -35 0 0 1 0 
2 4.999988019301 -23.000035143291999 0 0 0 1 1 0 -0 -0 1 0 7.500011980699
1 -5.0000000000205755 -15.500006885646151 0 0.99999999999867539 -1.6276946848046325e-06 0 
1 -14 -10.000000000000002 0 0 1 0 
1 14 -10 0 -1 -6.3441315692866085e-17 0 
1 -14 36.5 0 1 0 0 
1 14 36.5 0 0 -1 0 
1 8 -22.5 -13.5 0 0 1 
2 0 22.5 0 0 0 1 1 0 -0 -0 1 0 8
1 -5.0000000000205755 -15.500006885646151 13.5 -0 -0 -1 
2 -5.0000123392319997 -22.999994546404 0 0 0 1 1 0 -0 -0 1 0 7.4999876607680003
1 -12.499999999998018 -22.999999999991786 13.5 -0 -0 -1 
1 -12.499999999998018 -35 13.5 -0 -0 -1 
1 -12.499999999998018 -35 0 0 1 0 
1 12.499999999918 -35 13.5 -0 -0 -1 
1 12.499999999918 -35 0 -1 0 0 
1 12.499999999918 -35 0 0 1 0 
1 12.499999999917831 -22.99999999994586 13.5 -0 -0 -1 
2 4.999988019301 -23.000035143291999 0 0 0 1 1 0 -0 -0 1 0 7.500011980699
1 5.0000000000219309 -15.500023162597785 13.5 -0 -0 -1 
1 -5.0000000000205755 -15.500006885646151 0 0.99999999999867539 -1.6276946848046325e-06 0 
1 -14 -10.000000000000002 13.5 -0 -0 -1 
1 -14 -10.000000000000002 0 0 1 0 
1 -14 36.5 13.5 -0 -0 -1 
1 14 -10 13.5 -0 -0 -1 
1 14 -10 0 -1 -6.3441315692866085e-17 0 
1 -14 36.5 0 1 0 0 
1 14 36.5 13.5 -0 -0 -1 
1 14 36.5 0 0 -1 0 
Polygon3D 0
PolygonOnTriangulations 0
Surfaces 20
1 -17.5 40 -13.5 0 1 0 1 0 0 0 0 -1 
1 -17.5 -40 -13.5 -1 0 0 0 1 0 0 0 -1 
1 17.5 40 -13.5 1 0 -0 0 -1 0 0 -0 -1 
1 -17.5 40 0 -0 0 1 1 0 0 0 1 -0 
1 -17.5 40 0 -0 0 1 1 0 0 0 1 -0 
1 17.5 -40 -13.5 0 -1 0 -1 0 0 -0 -0 -1 
2 0 -22.5 -13.5 0 0 -1 1 0 0 0 -1 0 8
2 -5.0000123392319997 -22.999994546404 13.5 0 0 1 1 0 -0 -0 1 0 7.4999876607680003
1 -12.499999999998018 -35 13.5 1 0 0 -0 1 0 0 -0 1 
1 12.499999999918 -35 13.5 0 1 -0 -1 0 0 0 0 1 
1 12.499999999918 -35 13.5 1 0 0 -0 1 0 0 -0 1 
2 4.999988019301 -23.000035143291999 13.5 0 0 1 1 0 -0 -0 1 0 7.500011980699
1 -5.0000000000205755 -15.500006885646151 13.5 -1.6276946848046325e-06 -0.99999999999867539 0 0.99999999999867539 -1.6276946848046325e-06 0 0 0 1 
1 -14 -10.000000000000002 13.5 1 0 0 -0 1 0 0 -0 1 
1 14 -10 13.5 -6.3441315692866085e-17 1 0 -1 -6.3441315692866085e-17 0 0 0 1 
1 -14 36.5 13.5 0 -1 0 1 0 0 -0 0 1 
1 14 36.5 13.5 -1 0 0 0 -1 0 0 0 1 
1 -6.8372006626971174e-16 -22.500000000000004 -13.5 -0 -0 -1 -1 0 0 0 1 -0 
1 -3.9939163559387778e-06 -26.163472788246906 13.499999999999998 1.6385774144160173e-32 -1.6371198501047004e-32 -1 -1 0 -1.6385774144160173e-32 2.6825476110736978e-64 1 -1.6371198501047004e-32 
1 0 13.25 13.5 -0 -0 -1 -1 0 0 0 1 -0 
Triangulations 0

TShapes 120
Ve
1e-07
-17.5 40 -13.5
0 0

0101101
*
Ve
1e-07
-17.5 40 13.5
0 0

0101101
*
Ed
 1e-07 1 1 0
1  1 0 0 27
2  1 1 0 0 27
2  2 2 0 0 27
0

0101000
+120 9 -119 9 *
Ve
1e-07
17.5 40 -13.5
0 0

0101101
*
Ve
1e-07
17.5 40 13.5
0 0

0101101
*
Ed
 1e-07 1 1 0
1  2 0 0 27
2  3 1 0 0 27
2  4 3 0 0 27
0

0101000
+117 9 -116 9 *
Ed
 1e-07 1 1 0
1  3 0 0 35
2  5 1 14 0 35
2  6 4 15 0 35
0

0101000
+120 16 -117 16 *
Ed
 1e-07 1 1 0
1  4 0 0 35
2  7 1 19 0 35
2  8 5 15 0 35
0

0101000
+119 20 -116 20 *
Wi

0101000
+118 0 -115 0 -114 13 +113 18 *
Fa
0  1e-07 1 0

0111000
+112 0 *
Ve
1e-07
-17.5 -40 -13.5
0 0

0101101
*
Ve
1e-07
-17.5 -40 13.5
0 0

0101101
*
Ed
 1e-07 1 1 0
1  5 0 0 27
2  9 2 0 0 27
2  10 6 0 0 27
0

0101000
+110 9 -109 9 *
Ed
 1e-07 1 1 0
1  6 0 0 80
2  11 2 14 0 80
2  12 4 15 0 80
0

0101000
+110 16 -120 16 *
Ed
 1e-07 1 1 0
1  7 0 0 80
2  13 2 19 0 80
2  14 5 15 0 80
0

0101000
+109 20 -119 20 *
Wi

0101000
+108 0 -118 0 -107 13 +106 18 *
Fa
0  1e-07 2 0

0111000
+105 0 *
Ve
1e-07
17.5 -40 -13.5
0 0

0101101
*
Ve
1e-07
17.5 -40 13.5
0 0

0101101
*
Ed
 1e-07 1 1 0
1  8 0 0 27
2  15 3 0 0 27
2  16 6 0 0 27
0

0101000
+103 9 -102 9 *
Ed
 1e-07 1 1 0
1  9 0 0 80
2  17 3 14 0 80
2  18 4 15 0 80
0

0101000
+117 16 -103 16 *
Ed
 1e-07 1 1 0
1  10 0 0 80
2  19 3 19 0 80
2  20 5 15 0 80
0

0101000
+116 20 -102 20 *
Wi

0101000
+115 0 -101 0 -100 13 +99 18 *
Fa
0  1e-07 3 0

0111000
+98 0 *
Ed
 1e-07 1 1 0
1  11 0 0 35
2  21 4 15 0 35
2  22 6 14 0 35
0

0101000
+103 16 -110 16 *
Wi

0101100
-114 22 -107 22 -100 22 -96 22 *
Ve
1e-07
8 -22.5 -13.5
0 0

0101101
*
Ed
 1e-07 1 1 0
1  12 0 0 6.28318530717959
2  23 4 25 0 6.28318530717959
2  24 7 26 0 6.28318530717959
0

0101000
+94 27 -94 27 *
Wi

0101100
+93 24 *
Fa
0  1e-07 4 21

0111000
+95 0 +92 0 *
Ed
 1e-07 1 1 0
1  13 0 0 35
2  25 5 15 0 35
2  26 6 19 0 35
0

0101000
+102 20 -109 20 *
Wi

0101100
-113 30 -106 30 -99 30 -90 30 *
Ve
1e-07
-5.00000000002058 -15.5000068856462 13.5
0 0

0101101
*
Ve
1.00000211386464e-07
-12.499999999998 -22.9999999999918 13.5
0 0

0101101
*
Ed
 1e-07 1 1 0
1  14 0 1.570794681564 3.141593380736
2  27 5 33 1.570794681564 3.141593380736
2  28 8 34 1.570794681564 3.141593380736
0

0101000
+88 35 -87 35 *
Ve
1e-07
-12.499999999998 -35 13.5
0 0

0101101
*
Ed
 1e-07 1 1 0
1  15 0 0 12.000000000008
2  29 5 33 0 12.000000000008
2  30 9 34 0 12.000000000008
0

0101000
+85 35 -87 35 *
Ve
1e-07
12.499999999918 -35 13.5
0 0

0101101
*
Ed
 1e-07 1 1 0
1  16 0 0 24.999999999916
2  31 5 33 0 24.999999999916
2  32 10 34 0 24.999999999916
0

0101000
+83 35 -85 35 *
Ve
1.000001687539e-07
12.4999999999178 -22.9999999999459 13.5
0 0

0101101
*
Ed
 1e-07 1 1 0
1  17 0 0 12.0000000000541
2  33 5 33 0 12.0000000000541
2  34 11 34 0 12.0000000000541
0

0101000
+83 35 -81 35 *
Ve
1.0000478511226e-07
5.00000000002193 -15.5000231625978 13.5
0 0

0101101
*
Ed
 1e-07 1 1 0
1  18 0 4.685772e-06 1.570794729368
2  35 5 33 4.685772e-06 1.570794729368
2  36 12 34 4.685772e-06 1.570794729368
0

0101000
+81 35 -79 35 *
Ed
 1e-07 1 1 0
1  19 0 0 10.0000000000558
2  37 5 33 0 10.0000000000558
2  38 13 34 0 10.0000000000558
0

0101000
+88 35 -79 35 *
Wi

0101100
-86 32 +84 32 +82 32 -80 32 -78 32 +77 32 *
Ve
1e-07
-14 -10 13.5
0 0

0101101
*
Ve
1e-07
-14 36.5 13.5
0 0

0101101
*
Ed
 1e-07 1 1 0
1  20 0 0 46.5
2  39 5 38 0 46.5
2  40 14 39 0 46.5
0

0101000
+75 40 -74 40 *
Ve
1e-07
14 -10 13.5
0 0

0101101
*
Ed
 1e-07 1 1 0
1  21 0 0 28
2  41 5 38 0 28
2  42 15 39 0 28
0

0101000
+72 40 -75 40 *
Ve
1e-07
14 36.5 13.5
0 0

0101101
*
Ed
 1e-07 1 1 0
1  22 0 0 28
2  43 5 38 0 28
2  44 16 39 0 28
0

0101000
+74 40 -70 40 *
Ed
 1e-07 1 1 0
1  23 0 0 46.5
2  45 5 38 0 46.5
2  46 17 39 0 46.5
0

0101000
+70 40 -72 40 *
Wi

0101100
+73 37 +71 37 +69 37 +68 37 *
Fa
0  1e-07 5 29

0111000
+89 0 +76 0 +67 0 *
Wi

0101000
+101 0 -108 0 -96 13 +90 18 *
Fa
0  1e-07 6 0

0111000
+65 0 *
Ve
1e-07
8 -22.5 -2.5
0 0

0101101
*
Ed
 1e-07 1 1 0
1  24 0 0 11
3  47 48CN 7 0 0 11
0

0101000
+94 41 -63 41 *
Ed
 1e-07 1 1 0
1  25 0 0 6.28318530717959
2  49 7 44 0 6.28318530717959
2  50 18 45 0 6.28318530717959
0

0101000
+63 46 -63 46 *
Wi

0101100
-93 24 -62 0 +61 43 +62 0 *
Fa
0  1e-07 7 0

0111000
+60 0 *
Ve
1e-07
-5.00000000002058 -15.5000068856462 -1.5
0 0

0101101
*
Ed
 1e-07 1 1 0
1  26 0 0 15
2  51 8 0 0 15
2  52 13 0 0 15
4 G1 8 0 13 0
0

0101000
+88 47 -58 47 *
Ve
1.00000211386464e-07
-12.499999999998 -22.9999999999918 -1.5
0 0

0101101
*
Ed
 1e-07 1 1 0
1  27 0 1.570794681564 3.141593380736
2  53 8 50 1.570794681564 3.141593380736
2  54 19 51 1.570794681564 3.141593380736
0

0101000
+58 52 -56 52 *
Ed
 1.00000211386464e-07 1 1 0
1  28 0 0 15
2  55 8 0 0 15
2  56 9 0 0 15
4 G1 8 0 9 0
0

0101000
+87 47 -56 47 *
Wi

0101100
+57 0 -86 32 +55 49 -54 0 *
Fa
0  1e-07 8 0

0111000
+53 0 *
Ve
1e-07
-12.499999999998 -35 -1.5
0 0

0101101
*
Ed
 1e-07 1 1 0
1  29 0 0 15
2  57 9 0 0 15
2  58 10 0 0 15
0

0101000
+85 47 -51 47 *
Ed
 1e-07 1 1 0
1  30 0 0 12.000000000008
2  59 9 50 0 12.000000000008
2  60 19 51 0 12.000000000008
0

0101000
+51 52 -56 52 *
Wi

0101100
+50 0 -84 32 +49 49 -54 0 *
Fa
0  1e-07 9 0

0111000
+48 0 *
Ve
1e-07
12.499999999918 -35 -1.5
0 0

0101101
*
Ed
 1e-07 1 1 0
1  31 0 0 15
2  61 10 0 0 15
2  62 11 0 0 15
0

0101000
+83 47 -46 47 *
Ed
 1e-07 1 1 0
1  32 0 0 24.999999999916
2  63 10 50 0 24.999999999916
2  64 19 51 0 24.999999999916
0

0101000
+46 52 -51 52 *
Wi

0101100
+45 0 -82 32 +44 49 -50 0 *
Fa
0  1e-07 10 0

0111000
+43 0 *
Ve
1.000001687539e-07
12.4999999999178 -22.9999999999459 -1.5
0 0

0101101
*
Ed
 1e-07 1 1 0
1  33 0 0 12.0000000000541
2  65 11 50 0 12.0000000000541
2  66 19 51 0 12.0000000000541
0

0101000
+46 52 -41 52 *
Ed
 1.000001687539e-07 1 1 0
1  34 0 0 15
2  67 11 0 0 15
2  68 12 0 0 15
4 G1 11 0 12 0
0

0101000
+81 47 -41 47 *
Wi

0101100
+45 0 -80 32 +40 49 -39 0 *
Fa
0  1e-07 11 0

0111000
+38 0 *
Ve
1.0000478511226e-07
5.00000000002193 -15.5000231625978 -1.5
0 0

0101101
*
Ed
 1e-07 1 1 0
1  35 0 4.685772e-06 1.570794729368
2  69 12 50 4.685772e-06 1.570794729368
2  70 19 51 4.685772e-06 1.570794729368
0

0101000
+41 52 -36 52 *
Ed
 1.0000478511226e-07 1 1 0
1  36 0 0 15
2  71 12 0 0 15
2  72 13 0 0 15
4 G1 12 0 13 0
0

0101000
+79 47 -36 47 *
Wi

0101100
+39 0 -78 32 +35 49 -34 0 *
Fa
0  1e-07 12 0

0111000
+33 0 *
Ed
 1e-07 1 1 0
1  37 0 0 10.0000000000558
2  73 13 50 0 10.0000000000558
2  74 19 51 0 10.0000000000558
0

0101000
+58 52 -36 52 *
Wi

0101100
+57 0 -77 32 +31 49 -34 0 *
Fa
0  1e-07 13 0

0111000
+30 0 *
Ve
1e-07
-14 -10 -10
0 0

0101101
*
Ed
 1e-07 1 1 0
1  38 0 0 23.5
2  75 14 0 0 23.5
2  76 15 0 0 23.5
0

0101000
+75 54 -28 54 *
Ve
1e-07
-14 36.5 -10
0 0

0101101
*
Ed
 1e-07 1 1 0
1  39 0 0 46.5
2  77 14 58 0 46.5
2  78 20 59 0 46.5
0

0101000
+28 60 -26 60 *
Ed
 1e-07 1 1 0
1  40 0 0 23.5
2  79 14 0 0 23.5
2  80 16 0 0 23.5
0

0101000
+74 54 -26 54 *
Wi

0101100
+27 0 -73 55 +25 57 -24 0 *
Fa
0  1e-07 14 0

0111000
+23 0 *
Ve
1e-07
14 -10 -10
0 0

0101101
*
Ed
 1e-07 1 1 0
1  41 0 0 23.5
2  81 15 0 0 23.5
2  82 17 0 0 23.5
0

0101000
+72 54 -21 54 *
Ed
 1e-07 1 1 0
1  42 0 0 28
2  83 15 58 0 28
2  84 20 59 0 28
0

0101000
+21 60 -28 60 *
Wi

0101100
+20 0 -71 55 +19 57 -27 0 *
Fa
0  1e-07 15 0

0111000
+18 0 *
Ve
1e-07
14 36.5 -10
0 0

0101101
*
Ed
 1e-07 1 1 0
1  43 0 0 28
2  85 16 58 0 28
2  86 20 59 0 28
0

0101000
+26 60 -16 60 *
Ed
 1e-07 1 1 0
1  44 0 0 23.5
2  87 16 0 0 23.5
2  88 17 0 0 23.5
0

0101000
+70 54 -16 54 *
Wi

0101100
+24 0 -69 55 +15 57 -14 0 *
Fa
0  1e-07 16 0

0111000
+13 0 *
Ed
 1e-07 1 1 0
1  45 0 0 46.5
2  89 17 58 0 46.5
2  90 20 59 0 46.5
0

0101000
+16 60 -21 60 *
Wi

0101100
+14 0 -68 55 +11 57 -20 0 *
Fa
0  1e-07 17 0

0111000
+10 0 *
Wi

0101100
+61 0 *
Fa
0  1e-07 18 0

0111000
+8 23 *
Wi

0101100
-40 0 +44 0 +49 0 -55 0 +31 0 -35 0 *
Fa
0  1e-07 19 0

0111000
+6 31 *
Wi

0101100
+15 0 +11 0 +19 0 +25 0 *
Fa
0  1e-07 20 0

0111000
+4 36 *
Sh

0101100
+111 8 +104 8 +97 8 -91 0 +66 28 +64 8 -59 0 -52 28 +47 28 +42 28 
-37 28 -32 28 +29 28 +22 53 +17 53 +12 53 +9 53 +7 61 -5 62 -3 63 
*
So

1100000
+2 0 *

+1 1 