DBRep_DrawableShape

CASCADE Topology V1, (c) Matra-Datavision
Locations 47
1
              1               0               0               0 
              0               1               0               0 
              0               0               1               0 
1
              1               0               0               0 
              0               1               0               0 
              0               0               1               0 
1
              1               0               0               0 
              0               1               0               0 
              0               0               1               0 
1
              1               0               0               0 
              0               1               0               0 
              0               0               1               0 
1
              1               0               0               0 
              0               1               0               0 
              0               0               1               0 
2  2 1 3 -1 4 1 5 -1 0
2  1 -1 5 1 4 -1 3 1 2 -1 0
1
              1               0               0               0 
              0               1               0               0 
              0               0               1               0 
1
              1               0               0               0 
              0               1               0               0 
              0               0               1               0 
1
              1               0               0              -0 
              0               1               0              -0 
              0               0               1           -13.5 
2  8 1 9 -1 10 1 0
2  10 -1 9 1 8 -1 0
2  8 -1 0
2  1 -1 5 1 4 -1 3 1 2 -1 10 -1 9 1 8 -1 0
1
              1               0               0               0 
              0               1               0               0 
              0               0               1              27 
2  8 1 9 -1 10 1 15 1 0
2  15 -1 10 -1 9 1 8 -1 0
2  1 -1 5 1 4 -1 3 1 2 -1 15 -1 10 -1 9 1 8 -1 0
2  9 -1 10 1 2 1 3 -1 4 1 5 -1 0
2  9 -1 10 1 15 1 2 1 3 -1 4 1 5 -1 0
2  8 1 9 -1 10 1 15 1 2 1 3 -1 4 1 5 -1 0
1
              1               0               0              -0 
              0               1               0               0 
              0               0               1            13.5 
2  22 1 5 -1 0
2  9 -1 10 1 15 1 2 1 3 -1 4 1 22 -1 0
2  5 1 22 -1 0
2  1 -1 5 1 22 -1 0
1
              1               0               0              -0 
              0               1               0               0 
              0               0               1            13.5 
2  27 1 3 -1 4 1 5 -1 0
2  9 -1 10 1 15 1 2 1 27 -1 0
2  3 1 27 -1 0
2  1 -1 5 1 4 -1 3 1 27 -1 0
2  1 -1 0
1
              1               0               0              -0 
              0               1               0              -0 
              0               0               1             -15 
2  22 1 5 -1 33 1 0
2  33 -1 5 1 22 -1 0
2  22 -1 0
2  1 -1 33 -1 5 1 22 -1 0
2  4 1 5 -1 0
2  1 -1 5 1 4 -1 0
2  27 1 3 -1 0
1
              1               0               0              -0 
              0               1               0              -0 
              0               0               1           -23.5 
2  27 1 3 -1 41 1 0
2  41 -1 3 1 27 -1 0
2  27 -1 0
2  1 -1 5 1 4 -1 41 -1 3 1 27 -1 0
2  5 -1 33 1 0
2  3 -1 41 1 4 1 5 -1 0
Curve2ds 84
1 0 0 0 -1 
1 80 0 0 -1 
1 35 0 0 -1 
1 0 0 0 -1 
1 0 0 1 0 
1 0 0 1 0 
1 0 -27 1 0 
1 0 0 1 0 
1 0 0 0 -1 
1 35 0 0 -1 
1 0 0 1 0 
1 0 -80 0 1 
1 0 -27 1 0 
1 0 -80 0 1 
1 80 0 0 -1 
1 0 -0 0 -1 
1 0 0 1 0 
1 35 0 0 -1 
1 0 -27 1 0 
1 35 0 0 -1 
1 35 -80 -1 0 
1 0 -0 1 0 
1 35 -80 -1 0 
1 0 -27 1 0 
2 12.499987660767999 -62.999994546403997 1 0 -0 1 7.4999876607680003
1 0 0 1 0 
1 5.0000000000019824 -75 0 1 
1 0 0 1 0 
1 29.999999999918 -75 -1 0 
1 0 0 1 0 
1 29.999999999918 -75 0 1 
1 0 0 1 0 
2 22.499988019301 -63.000035143291996 1 0 -0 1 7.500011980699
1 0 0 1 0 
1 12.499999999979424 -55.500006885646151 0.99999999999867539 -1.6276946848046325e-06 
1 0 0 1 0 
1 3.5 -50 0 1 
1 0 0 1 0 
1 31.5 -50 -1 -6.3441315692866085e-17 
1 0 0 1 0 
1 3.5 -3.5 1 0 
1 0 0 1 0 
1 31.5 -3.5 0 -1 
1 0 0 1 0 
1 1.5707946815639999 0 0 -1 
1 0 0 0 -1 
1 0 -15 1 0 
2 5.0000083453156439 3.1634782418429062 -1 2.6825476110736978e-64 2.6825476110736978e-64 1 7.4999876607680003
1 3.1415933807359999 0 0 -1 
1 12.000000000008214 0 0 -1 
1 0 0 0 -1 
1 24.999999999916017 0 0 -1 
1 0 -15 1 0 
1 12.499996006081661 -8.8365272117530935 0 1 
1 0 0 0 -1 
1 0 0 0 -1 
1 0 -15 1 0 
1 -12.500003993834357 -8.8365272117530935 1 -2.6825476110736978e-64 
1 0 -15 1 0 
1 -12.500003993834357 -8.8365272117530935 0 1 
1 12.00000000005414 0 0 -1 
1 4.6857720000000002e-06 0 0 -1 
1 0 -15 1 0 
2 -4.9999920132173559 3.1634376449549073 -1 2.6825476110736978e-64 2.6825476110736978e-64 1 7.500011980699
1 1.570794729368 0 0 -1 
1 10.000000000055755 0 0 -1 
1 0 -15 1 0 
1 4.9999960061042197 10.663465902600755 -0.99999999999867539 -1.6276946848046325e-06 
1 0 0 0 -1 
1 28 0 0 -1 
1 0 -23.5 1 0 
1 14 -23.25 0 1 
1 46.5 0 0 -1 
1 0 0 0 -1 
1 0 0 0 -1 
1 46.5 0 0 -1 
1 -0 -23.5 1 0 
1 -14 -23.25 1 -6.3441315692866085e-17 
1 0 -23.5 1 0 
1 14 23.25 -1 0 
1 28 0 0 -1 
1 0 0 0 -1 
1 0 -23.5 1 0 
1 -14 23.25 0 -1 
Curves 42
1 -17.5 40 -13.5 0 0 1 
1 17.5 40 -13.5 0 0 1 
1 -17.5 40 0 1 0 0 
1 -17.5 40 0 1 0 0 
1 -17.5 -40 -13.5 0 0 1 
1 -17.5 -40 0 0 1 0 
1 -17.5 -40 0 0 1 0 
1 17.5 -40 -13.5 0 0 1 
1 17.5 40 0 0 -1 0 
1 17.5 40 0 0 -1 0 
1 17.5 -40 0 -1 0 0 
1 17.5 -40 0 -1 0 0 
2 -5.0000123392319997 -22.999994546404 0 0 0 1 1 0 -0 -0 1 0 7.4999876607680003
1 -12.499999999998018 -35 0 0 1 0 
1 12.499999999918 -35 0 -1 0 0 
1 12.499999999918 -35 0 0 1 0 
2 4.999988019301 -23.000035143291999 0 0 0 1 1 0 -0 -0 1 0 7.500011980699
1 -5.0000000000205755 -15.500006885646151 0 0.99999999999867539 -1.6276946848046325e-06 0 
1 -14 -10.000000000000002 0 0 1 0 
1 14 -10 0 -1 -6.3441315692866085e-17 0 
1 -14 36.5 0 1 0 0 
1 14 36.5 0 0 -1 0 
1 -5.0000000000205755 -15.500006885646151 13.5 -0 -0 -1 
2 -5.0000123392319997 -22.999994546404 0 0 0 1 1 0 -0 -0 1 0 7.4999876607680003
1 -12.499999999998018 -22.999999999991786 13.5 -0 -0 -1 
1 -12.499999999998018 -35 13.5 -0 -0 -1 
1 -12.499999999998018 -35 0 0 1 0 
1 12.499999999918 -35 13.5 -0 -0 -1 
1 12.499999999918 -35 0 -1 0 0 
1 12.499999999918 -35 0 0 1 0 
1 12.499999999917831 -22.99999999994586 13.5 -0 -0 -1 
2 4.999988019301 -23.000035143291999 0 0 0 1 1 0 -0 -0 1 0 7.500011980699
1 5.0000000000219309 -15.500023162597785 13.5 -0 -0 -1 
1 -5.0000000000205755 -15.500006885646151 0 0.99999999999867539 -1.6276946848046325e-06 0 
1 -14 -10.000000000000002 13.5 -0 -0 -1 
1 -14 -10.000000000000002 0 0 1 0 
1 -14 36.5 13.5 -0 -0 -1 
1 14 -10 13.5 -0 -0 -1 
1 14 -10 0 -1 -6.3441315692866085e-17 0 
1 -14 36.5 0 1 0 0 
1 14 36.5 13.5 -0 -0 -1 
1 14 36.5 0 0 -1 0 
Polygon3D 0
PolygonOnTriangulations 0
Surfaces 18
1 -17.5 40 -13.5 0 1 0 1 0 0 0 0 -1 
1 -17.5 -40 -13.5 -1 0 0 0 1 0 0 0 -1 
1 17.5 40 -13.5 1 0 -0 0 -1 0 0 -0 -1 
1 -17.5 40 0 -0 0 1 1 0 0 0 1 -0 
1 -17.5 40 0 -0 0 1 1 0 0 0 1 -0 
1 17.5 -40 -13.5 0 -1 0 -1 0 0 -0 -0 -1 
2 -5.0000123392319997 -22.999994546404 13.5 0 0 1 1 0 -0 -0 1 0 7.4999876607680003
1 -12.499999999998018 -35 13.5 1 0 0 -0 1 0 0 -0 1 
1 12.499999999918 -35 13.5 0 1 -0 -1 0 0 0 0 1 
1 12.499999999918 -35 13.5 1 0 0 -0 1 0 0 -0 1 
2 4.999988019301 -23.000035143291999 13.5 0 0 1 1 0 -0 -0 1 0 7.500011980699
1 -5.0000000000205755 -15.500006885646151 13.5 -1.6276946848046325e-06 -0.99999999999867539 0 0.99999999999867539 -1.6276946848046325e-06 0 0 0 1 
1 -14 -10.000000000000002 13.5 1 0 0 -0 1 0 0 -0 1 
1 14 -10 13.5 -6.3441315692866085e-17 1 0 -1 -6.3441315692866085e-17 0 0 0 1 
1 -14 36.5 13.5 0 -1 0 1 0 0 -0 0 1 
1 14 36.5 13.5 -1 0 0 0 -1 0 0 0 1 
1 -3.9939163559387778e-06 -26.163472788246906 13.499999999999998 1.6385774144160173e-32 -1.6371198501047004e-32 -1 -1 0 -1.6385774144160173e-32 2.6825476110736978e-64 1 -1.6371198501047004e-32 
1 0 13.25 13.5 -0 -0 -1 -1 0 0 0 1 -0 
Triangulations 0

TShapes 110
Ve
1e-07
-17.5 40 -13.5
0 0

0101101
*
Ve
1e-07
-17.5 40 13.5
0 0

0101101
*
Ed
 1e-07 1 1 0
1  1 0 0 27
2  1 1 0 0 27
2  2 2 0 0 27
0

0101000
+110 7 -109 7 *
Ve
1e-07
17.5 40 -13.5
0 0

0101101
*
Ve
1e-07
17.5 40 13.5
0 0

0101101
*
Ed
 1e-07 1 1 0
1  2 0 0 27
2  3 1 0 0 27
2  4 3 0 0 27
0

0101000
+107 7 -106 7 *
Ed
 1e-07 1 1 0
1  3 0 0 35
2  5 1 12 0 35
2  6 4 13 0 35
0

0101000
+110 14 -107 14 *
Ed
 1e-07 1 1 0
1  4 0 0 35
2  7 1 17 0 35
2  8 5 13 0 35
0

0101000
+109 18 -106 18 *
Wi

0101000
+108 0 -105 0 -104 11 +103 16 *
Fa
0  1e-07 1 0

0111000
+102 0 *
Ve
1e-07
-17.5 -40 -13.5
0 0

0101101
*
Ve
1e-07
-17.5 -40 13.5
0 0

0101101
*
Ed
 1e-07 1 1 0
1  5 0 0 27
2  9 2 0 0 27
2  10 6 0 0 27
0

0101000
+100 7 -99 7 *
Ed
 1e-07 1 1 0
1  6 0 0 80
2  11 2 12 0 80
2  12 4 13 0 80
0

0101000
+100 14 -110 14 *
Ed
 1e-07 1 1 0
1  7 0 0 80
2  13 2 17 0 80
2  14 5 13 0 80
0

0101000
+99 18 -109 18 *
Wi

0101000
+98 0 -108 0 -97 11 +96 16 *
Fa
0  1e-07 2 0

0111000
+95 0 *
Ve
1e-07
17.5 -40 -13.5
0 0

0101101
*
Ve
1e-07
17.5 -40 13.5
0 0

0101101
*
Ed
 1e-07 1 1 0
1  8 0 0 27
2  15 3 0 0 27
2  16 6 0 0 27
0

0101000
+93 7 -92 7 *
Ed
 1e-07 1 1 0
1  9 0 0 80
2  17 3 12 0 80
2  18 4 13 0 80
0

0101000
+107 14 -93 14 *
Ed
 1e-07 1 1 0
1  10 0 0 80
2  19 3 17 0 80
2  20 5 13 0 80
0

0101000
+106 18 -92 18 *
Wi

0101000
+105 0 -91 0 -90 11 +89 16 *
Fa
0  1e-07 3 0

0111000
+88 0 *
Ed
 1e-07 1 1 0
1  11 0 0 35
2  21 4 13 0 35
2  22 6 12 0 35
0

0101000
+93 14 -100 14 *
Wi

0101100
+104 0 +90 0 +86 0 +97 0 *
Fa
0  1e-07 4 0

0111000
-85 8 *
Ed
 1e-07 1 1 0
1  12 0 0 35
2  23 5 13 0 35
2  24 6 17 0 35
0

0101000
+92 18 -99 18 *
Wi

0101100
-103 21 -96 21 -89 21 -83 21 *
Ve
1e-07
-5.00000000002058 -15.5000068856462 13.5
0 0

0101101
*
Ve
1.00000211386464e-07
-12.499999999998 -22.9999999999918 13.5
0 0

0101101
*
Ed
 1e-07 1 1 0
1  13 0 1.570794681564 3.141593380736
2  25 5 24 1.570794681564 3.141593380736
2  26 7 25 1.570794681564 3.141593380736
0

0101000
+81 26 -80 26 *
Ve
1e-07
-12.499999999998 -35 13.5
0 0

0101101
*
Ed
 1e-07 1 1 0
1  14 0 0 12.000000000008
2  27 5 24 0 12.000000000008
2  28 8 25 0 12.000000000008
0

0101000
+78 26 -80 26 *
Ve
1e-07
12.499999999918 -35 13.5
0 0

0101101
*
Ed
 1e-07 1 1 0
1  15 0 0 24.999999999916
2  29 5 24 0 24.999999999916
2  30 9 25 0 24.999999999916
0

0101000
+76 26 -78 26 *
Ve
1.000001687539e-07
12.4999999999178 -22.9999999999459 13.5
0 0

0101101
*
Ed
 1e-07 1 1 0
1  16 0 0 12.0000000000541
2  31 5 24 0 12.0000000000541
2  32 10 25 0 12.0000000000541
0

0101000
+76 26 -74 26 *
Ve
1.0000478511226e-07
5.00000000002193 -15.5000231625978 13.5
0 0

0101101
*
Ed
 1e-07 1 1 0
1  17 0 4.685772e-06 1.570794729368
2  33 5 24 4.685772e-06 1.570794729368
2  34 11 25 4.685772e-06 1.570794729368
0

0101000
+74 26 -72 26 *
Ed
 1e-07 1 1 0
1  18 0 0 10.0000000000558
2  35 5 24 0 10.0000000000558
2  36 12 25 0 10.0000000000558
0

0101000
+81 26 -72 26 *
Wi

0101100
-79 23 +77 23 +75 23 -73 23 -71 23 +70 23 *
Ve
1e-07
-14 -10 13.5
0 0

0101101
*
Ve
1e-07
-14 36.5 13.5
0 0

0101101
*
Ed
 1e-07 1 1 0
1  19 0 0 46.5
2  37 5 29 0 46.5
2  38 13 30 0 46.5
0

0101000
+68 31 -67 31 *
Ve
1e-07
14 -10 13.5
0 0

0101101
*
Ed
 1e-07 1 1 0
1  20 0 0 28
2  39 5 29 0 28
2  40 14 30 0 28
0

0101000
+65 31 -68 31 *
Ve
1e-07
14 36.5 13.5
0 0

0101101
*
Ed
 1e-07 1 1 0
1  21 0 0 28
2  41 5 29 0 28
2  42 15 30 0 28
0

0101000
+67 31 -63 31 *
Ed
 1e-07 1 1 0
1  22 0 0 46.5
2  43 5 29 0 46.5
2  44 16 30 0 46.5
0

0101000
+63 31 -65 31 *
Wi

0101100
+66 28 +64 28 +62 28 +61 28 *
Fa
0  1e-07 5 20

0111000
+82 0 +69 0 +60 0 *
Wi

0101000
+91 0 -98 0 -86 11 +83 16 *
Fa
0  1e-07 6 0

0111000
+58 0 *
Ve
1e-07
-5.00000000002058 -15.5000068856462 -1.5
0 0

0101101
*
Ed
 1e-07 1 1 0
1  23 0 0 15
2  45 7 0 0 15
2  46 12 0 0 15
4 G1 7 0 12 0
0

0101000
+81 32 -56 32 *
Ve
1.00000211386464e-07
-12.499999999998 -22.9999999999918 -1.5
0 0

0101101
*
Ed
 1e-07 1 1 0
1  24 0 1.570794681564 3.141593380736
2  47 7 35 1.570794681564 3.141593380736
2  48 17 36 1.570794681564 3.141593380736
0

0101000
+56 37 -54 37 *
Ed
 1.00000211386464e-07 1 1 0
1  25 0 0 15
2  49 7 0 0 15
2  50 8 0 0 15
4 G1 7 0 8 0
0

0101000
+80 32 -54 32 *
Wi

0101100
+55 0 -79 23 +53 34 -52 0 *
Fa
0  1e-07 7 0

0111000
+51 0 *
Ve
1e-07
-12.499999999998 -35 -1.5
0 0

0101101
*
Ed
 1e-07 1 1 0
1  26 0 0 15
2  51 8 0 0 15
2  52 9 0 0 15
0

0101000
+78 32 -49 32 *
Ed
 1e-07 1 1 0
1  27 0 0 12.000000000008
2  53 8 35 0 12.000000000008
2  54 17 36 0 12.000000000008
0

0101000
+49 37 -54 37 *
Wi

0101100
+48 0 -77 23 +47 34 -52 0 *
Fa
0  1e-07 8 0

0111000
+46 0 *
Ve
1e-07
12.499999999918 -35 -1.5
0 0

0101101
*
Ed
 1e-07 1 1 0
1  28 0 0 15
2  55 9 0 0 15
2  56 10 0 0 15
0

0101000
+76 32 -44 32 *
Ed
 1e-07 1 1 0
1  29 0 0 24.999999999916
2  57 9 35 0 24.999999999916
2  58 17 36 0 24.999999999916
0

0101000
+44 37 -49 37 *
Wi

0101100
+43 0 -75 23 +42 34 -48 0 *
Fa
0  1e-07 9 0

0111000
+41 0 *
Ve
1.000001687539e-07
12.4999999999178 -22.9999999999459 -1.5
0 0

0101101
*
Ed
 1e-07 1 1 0
1  30 0 0 12.0000000000541
2  59 10 35 0 12.0000000000541
2  60 17 36 0 12.0000000000541
0

0101000
+44 37 -39 37 *
Ed
 1.000001687539e-07 1 1 0
1  31 0 0 15
2  61 10 0 0 15
2  62 11 0 0 15
4 G1 10 0 11 0
0

0101000
+74 32 -39 32 *
Wi

0101100
+43 0 -73 23 +38 34 -37 0 *
Fa
0  1e-07 10 0

0111000
+36 0 *
Ve
1.0000478511226e-07
5.00000000002193 -15.5000231625978 -1.5
0 0

0101101
*
Ed
 1e-07 1 1 0
1  32 0 4.685772e-06 1.570794729368
2  63 11 35 4.685772e-06 1.570794729368
2  64 17 36 4.685772e-06 1.570794729368
0

0101000
+39 37 -34 37 *
Ed
 1.0000478511226e-07 1 1 0
1  33 0 0 15
2  65 11 0 0 15
2  66 12 0 0 15
4 G1 11 0 12 0
0

0101000
+72 32 -34 32 *
Wi

0101100
+37 0 -71 23 +33 34 -32 0 *
Fa
0  1e-07 11 0

0111000
+31 0 *
Ed
 1e-07 1 1 0
1  34 0 0 10.0000000000558
2  67 12 35 0 10.0000000000558
2  68 17 36 0 10.0000000000558
0

0101000
+56 37 -34 37 *
Wi

0101100
+55 0 -70 23 +29 34 -32 0 *
Fa
0  1e-07 12 0

0111000
+28 0 *
Ve
1e-07
-14 -10 -10
0 0

0101101
*
Ed
 1e-07 1 1 0
1  35 0 0 23.5
2  69 13 0 0 23.5
2  70 14 0 0 23.5
0

0101000
+68 39 -26 39 *
Ve
1e-07
-14 36.5 -10
0 0

0101101
*
Ed
 1e-07 1 1 0
1  36 0 0 46.5
2  71 13 43 0 46.5
2  72 18 44 0 46.5
0

0101000
+26 45 -24 45 *
Ed
 1e-07 1 1 0
1  37 0 0 23.5
2  73 13 0 0 23.5
2  74 15 0 0 23.5
0

0101000
+67 39 -24 39 *
Wi

0101100
+25 0 -66 40 +23 42 -22 0 *
Fa
0  1e-07 13 0

0111000
+21 0 *
Ve
1e-07
14 -10 -10
0 0

0101101
*
Ed
 1e-07 1 1 0
1  38 0 0 23.5
2  75 14 0 0 23.5
2  76 16 0 0 23.5
0

0101000
+65 39 -19 39 *
Ed
 1e-07 1 1 0
1  39 0 0 28
2  77 14 43 0 28
2  78 18 44 0 28
0

0101000
+19 45 -26 45 *
Wi

0101100
+18 0 -64 40 +17 42 -25 0 *
Fa
0  1e-07 14 0

0111000
+16 0 *
Ve
1e-07
14 36.5 -10
0 0

0101101
*
Ed
 1e-07 1 1 0
1  40 0 0 28
2  79 15 43 0 28
2  80 18 44 0 28
0

0101000
+24 45 -14 45 *
Ed
 1e-07 1 1 0
1  41 0 0 23.5
2  81 15 0 0 23.5
2  82 16 0 0 23.5
0

0101000
+63 39 -14 39 *
Wi

0101100
+22 0 -62 40 +13 42 -12 0 *
Fa
0  1e-07 15 0

0111000
+11 0 *
Ed
 1e-07 1 1 0
1  42 0 0 46.5
2  83 16 43 0 46.5
2  84 18 44 0 46.5
0

0101000
+14 45 -19 45 *
Wi

0101100
+12 0 -61 40 +9 42 -18 0 *
Fa
0  1e-07 16 0

0111000
+8 0 *
Wi

0101100
-38 0 +42 0 +47 0 -53 0 +29 0 -33 0 *
Fa
0  1e-07 17 0

0111000
+6 22 *
Wi

0101100
+13 0 +9 0 +17 0 +23 0 *
Fa
0  1e-07 18 0

0111000
+4 27 *
Sh

0101100
+101 6 +94 6 +87 6 -84 19 +59 0 +57 6 -50 0 +45 0 +40 0 -35 0 
-30 0 +27 0 +20 38 +15 38 +10 38 +7 38 -5 46 -3 47 *
So

1100000
+2 0 *

+1 1 