DBRep_DrawableShape

CASCADE Topology V1, (c) Matra-Datavision
Locations 36
1
              1               0               0               0 
              0               1               0               0 
              0               0               1               0 
1
              1               0               0              -0 
              0               1               0              -0 
              0               0               1           -13.5 
1
              1               0               0               0 
              0               1               0               0 
              0               0               1              27 
1
              1               0               0               0 
              0               1               0               0 
              0               0               1               0 
1
              1               0               0               0 
              0               1               0               0 
              0               0               1               0 
1
              1               0               0               0 
              0               1               0               0 
              0               0               1               0 
1
              1               0               0               0 
              0               1               0               0 
              0               0               1               0 
1
              1               0               0               0 
              0               1               0               0 
              0               0               1               0 
1
              1               0               0               0 
              0               1               0               0 
              0               0               1               0 
1
              1               0               0               0 
              0               1               0               0 
              0               0               1               0 
1
              1               0               0               0 
              0               1               0               0 
              0               0               1               0 
1
              1               0               0               0 
              0               1               0               0 
              0               0               1               0 
1
              1               0               0               0 
              0               1               0               0 
              0               0               1               0 
1
              1               0               0               0 
              0               1               0               0 
              0               0               1               0 
1
              1               0               0               0 
              0               1               0               0 
              0               0               1               0 
1
              1               0               0               0 
              0               1               0               0 
              0               0               1               0 
1
              1               0               0               0 
              0               1               0               0 
              0               0               1               0 
1
              1               0               0               0 
              0               1               0               0 
              0               0               1               0 
1
              1               0               0               0 
              0               1               0               0 
              0               0               1               0 
2  1 -1 2 1 3 1 4 1 5 -1 6 1 7 -1 8 1 9 -1 10 1 11 -1 12 1 13 1 14 1 15 1 16 1 17 1 18 1 19 -1 0
1
              1               0               0              -0 
              0               1               0               0 
              0               0               1            13.5 
2  21 1 5 -1 6 1 7 -1 8 1 9 -1 10 1 11 -1 12 1 13 1 14 1 15 1 16 1 17 1 18 1 19 -1 0
2  1 -1 2 1 3 1 4 1 21 -1 0
2  5 1 21 -1 0
2  19 1 18 -1 17 -1 16 -1 15 -1 14 -1 13 -1 12 -1 11 1 10 -1 9 1 8 -1 7 1 6 -1 5 1 21 -1 0
1
              1               0               0               0 
              0               1               0               0 
              0               0               1               0 
2  26 1 1 -1 2 1 3 1 4 1 5 -1 6 1 7 -1 8 1 9 -1 10 1 11 -1 12 1 13 1 14 1 15 1 16 1 17 1 18 1 19 -1 0
2  26 -1 0
2  3 -1 2 -1 1 1 26 -1 0
2  19 1 18 -1 17 -1 16 -1 15 -1 14 -1 13 -1 12 -1 11 1 10 -1 9 1 8 -1 7 1 6 -1 5 1 4 -1 3 -1 2 -1 1 1 26 -1 0
2  6 1 7 -1 8 1 9 -1 10 1 11 -1 12 1 13 1 14 1 15 1 16 1 17 1 18 1 19 -1 0
1
             -1               0               0              -0 
              0 2.22044604925031e-16               1              40 
              0               1 -2.22044604925031e-16               0 
2  32 1 19 -1 0
2  19 1 32 -1 0
2  4 1 5 -1 6 1 7 -1 8 1 9 -1 10 1 11 -1 12 1 13 1 14 1 15 1 16 1 17 1 18 1 32 -1 0
2  4 1 5 -1 6 1 7 -1 8 1 9 -1 10 1 11 -1 12 1 13 1 14 1 15 1 16 1 17 1 18 1 19 -1 0
Curve2ds 24
1 3.5 -3.5 1 0 
1 0 0 1 0 
1 13.65 0 0 -1 
1 3.9000000000000004 -8.6597395920762218e-16 0 -1 
1 0 0 1 0 
1 0 -27 1 0 
1 21.350000000000001 0 0 -1 
1 0 0 0 -1 
8 -4.2899999999999991 0.39000000000000085
1 17.850000000000001 0 0 1 
8 -4.2899999999999991 0.39000000000000085
1 7.7715611723760958e-16 -3.5 -1 -2.2204460492503131e-16 
8 -13.545000000000002 -4.3050000000000015
1 5.0749999999999993 -3.9000000000000004 -1 0 
8 -13.545000000000002 -4.3050000000000015
1 -5.0750000000000011 -3.5 -1 -0 
8 -2.3399999999999999 2.3400000000000003
1 10.15 -1.9499999999999993 -0 -1 
8 -2.3399999999999999 2.3400000000000003
1 1.9500000000000002 -3.5000000000000004 -1 2.2204460492503131e-16 
1 0 0 1 0 
1 13.65 -23.100000000000001 0 -1 
1 0 0 0 -1 
1 0 0 0 -1 
1 13.65 -23.100000000000001 1 0 
1 0 0 1 0 
1 21.350000000000001 -27 0 1 
1 0 0 1 0 
1 3.9000000000000004 8.6597395920762218e-16 0 -1 
1 7.7000000000000002 0 0 -1 
Curves 12
1 -14 36.5 0 1 0 0 
1 -3.8500000000000001 40 13.5 0 -1 2.2204460492503131e-16 
1 -17.5 40 0 1 0 0 
1 3.8500000000000001 40 13.5 0 -1 2.2204460492503131e-16 
1 3.8500000000000005 36.5 13.5 -0 0 1 
1 -8.9250000000000007 36.5 9.5999999999999996 -1 -0 0 
1 -3.8499999999999996 36.5 11.550000000000001 -0 -0 -1 
1 3.8500000000000001 9.5999999999999996 0 0 1 0 
1 -3.8500000000000001 40 9.5999999999999996 0 -1 2.2204460492503131e-16 
1 3.8500000000000001 9.5999999999999996 0 -1 0 0 
1 -3.8500000000000001 13.5 0 0 -1 0 
1 3.8500000000000001 40 9.5999999999999996 0 -1 2.2204460492503131e-16 
Polygon3D 0
PolygonOnTriangulations 0
Surfaces 6
1 -17.5 40 0 -0 0 1 1 0 0 0 1 -0 
1 -14 36.5 13.5 0 -1 0 1 0 0 -0 0 1 
1 -3.8500000000000001 40 9.5999999999999996 -1 0 0 0 2.2204460492503131e-16 1 0 1 -2.2204460492503131e-16 
1 -17.5 40 -13.5 0 1 0 1 0 0 0 0 -1 
1 3.8500000000000001 40 13.5 1 0 0 0 -2.2204460492503131e-16 -1 0 1 -2.2204460492503131e-16 
1 -3.8500000000000001 40 9.5999999999999996 -0 2.2204460492503131e-16 1 1 0 0 0 1 -2.2204460492503131e-16 
Triangulations 0

TShapes 35
Ve
1.00000000222045e-07
-3.85 36.5 13.5
0 0

0101101
*
Ve
1.00000000666134e-07
3.85 36.5 13.5
0 0

0101101
*
Ed
 1e-07 1 1 0
1  1 0 10.15 17.85
2  1 1 23 10.15 17.85
2  2 2 24 10.15 17.85
0

0101000
+35 25 -34 25 *
Ve
1e-07
-3.85 40 13.5
0 0

0101101
*
Ed
 1e-07 1 1 0
1  2 0 0 3.5
2  3 1 20 0 3.5
2  4 3 0 0 3.5
0

0101000
+32 0 -35 0 *
Ve
1e-07
3.85 40 13.5
0 0

0101101
*
Ed
 1e-07 1 1 0
1  3 0 13.65 21.35
2  5 1 28 13.65 21.35
2  6 4 29 13.65 21.35
0

0101000
+32 30 -30 30 *
Ed
 1e-07 1 1 0
1  4 0 0 3.5
2  7 1 20 0 3.5
2  8 5 0 0 3.5
0

0101000
+30 0 -34 0 *
Wi

0101100
+33 22 +31 0 -29 27 -28 0 *
Fa
0  1e-07 1 20

0111000
+27 0 *
Ve
2.00001e-07
3.85 36.5 9.6
0 0

0101101
*
Ed
 1e-07 1 1 0
1  5 0 -3.9 0
2  9 2 31 -3.9 0
2  10 5 0 -3.9 0
0

0101000
+25 0 -34 0 *
Ve
2.00001e-07
-3.85 36.5 9.6
0 0

0101101
*
Ed
 1e-07 1 1 0
1  6 0 -12.775 -5.075
2  11 2 31 -12.775 -5.075
2  12 6 0 -12.775 -5.075
0

0101000
+25 0 -23 0 *
Ed
 1e-07 1 1 0
1  7 0 -1.95 1.95
2  13 2 31 -1.95 1.95
2  14 3 0 -1.95 1.95
0

0101000
+35 0 -23 0 *
Wi

0101100
-33 22 +24 0 -22 0 +21 0 *
Fa
0  1e-07 2 31

0111000
+20 0 *
Ve
1e-07
-3.85 40 9.6
0 0

0101101
*
Ed
 1e-07 1 1 0
1  8 0 0 3.9
2  15 3 34 0 3.9
2  16 4 35 0 3.9
0

0101000
+18 34 -32 34 *
Ed
 1e-07 1 1 0
1  9 0 0 3.5
2  17 3 0 0 3.5
2  18 6 0 0 3.5
0

0101000
+18 0 -23 0 *
Wi

0101100
-17 33 +16 0 -31 0 -21 0 *
Fa
0  1e-07 3 0

0111000
+15 0 *
Ve
1e-07
3.85 40 9.6
0 0

0101101
*
Ed
 1e-07 1 1 0
1  10 0 0 7.7
2  19 4 35 0 7.7
2  20 6 34 0 7.7
0

0101000
+18 34 -13 34 *
Ed
 1e-07 1 1 0
1  11 0 0 3.9
2  21 4 35 0 3.9
2  22 5 34 0 3.9
0

0101000
+30 34 -13 34 *
Wi

0101100
+17 33 -12 33 +11 33 +29 27 *
Fa
0  1e-07 4 36

0111000
+10 0 *
Ed
 1e-07 1 1 0
1  12 0 0 3.5
2  23 5 0 0 3.5
2  24 6 0 0 3.5
0

0101000
+13 0 -25 0 *
Wi

0101100
-11 33 +28 0 -8 0 -24 0 *
Fa
0  1e-07 5 0

0111000
+7 0 *
Wi

0101100
-12 33 +16 0 -8 0 -22 0 *
Fa
0  1e-07 6 0

0111000
+5 0 *
Sh

0101100
+26 0 +19 0 +14 0 +9 0 +6 0 -4 0 *
So

0100000
+3 0 *
Co

1100000
+2 0 *

+1 0 