DBRep_DrawableShape

CASCADE Topology V1, (c) Matra-Datavision
Locations 10
1
              1               0 2.23476524511348e-32 5.58691311278374e-32 
-2.1592157265412e-65               1 9.66193532525407e-34 2.41548383131353e-33 
-2.23476524511348e-32 -9.66193532525407e-34               1 2.50000000000001 
1
              1               0               0               0 
              0               1               0               0 
              0               0               1               0 
2  1 1 2 -1 0
2  2 1 1 -1 0
2  1 -1 0
1
              1               0               0 -3.35214786767023e-32 
              0               1               0 -1.44929029878811e-33 
              0               0               1            -1.5 
2  1 1 2 -1 6 1 0
2  6 -1 2 1 1 -1 0
2  2 -1 0
2  2 -1 6 1 0
Curve2ds 6
1 0 0 0 -1 
1 6.2831853071795862 0 0 -1 
1 0 0 1 0 
2 2.1366252070928547e-17 0 1 -2.1592157265412046e-65 2.1592157265412046e-65 1 1
1 0 -1.5 1 0 
2 2.1366252070928547e-17 0 1 -2.1592157265412046e-65 2.1592157265412046e-65 1 1
Curves 3
1 1 -8.9999999999842508 2.5000000000000107 -2.2347652451134844e-32 -9.6619353252540694e-34 -1 
2 0 -8.9999999999842508 0 0 0 1 1 0 -0 -0 1 0 1
2 0 -8.9999999999842508 0 0 0 1 1 0 -0 -0 1 0 1
Polygon3D 0
PolygonOnTriangulations 0
Surfaces 3
2 5.586913112783736e-32 -8.9999999999842508 2.5000000000000107 2.2347652451134846e-32 9.6619353252540694e-34 1 1 -2.1592157265412046e-65 -2.2347652451134846e-32 0 1 -9.6619353252540694e-34 1
1 -2.1366252070928492e-17 -8.9999999999842508 2.5000000000000107 0 0 1 1 0 -0 -0 1 0 
1 -2.1366252070928492e-17 -8.9999999999842508 2.5000000000000107 0 0 1 1 0 -0 -0 1 0 
Triangulations 0

TShapes 13
Ve
1e-07
1 -8.99999999998425 2.50000000000001
0 0

0101101
*
Ve
1e-07
1 -8.99999999998425 1.00000000000001
0 0

0101101
*
Ed
 1e-07 1 1 0
1  1 0 0 1.5
3  1 2CN 1 0 0 1.5
0

0101000
+13 0 -12 0 *
Ed
 1e-07 1 1 0
1  2 0 0 6.28318530717959
2  3 1 4 0 6.28318530717959
2  4 2 5 0 6.28318530717959
0

0101000
+13 4 -13 4 *
Ed
 1e-07 1 1 0
1  3 0 0 6.28318530717959
2  5 1 8 0 6.28318530717959
2  6 3 5 0 6.28318530717959
0

0101000
+12 8 -12 8 *
Wi

0101100
+11 0 -11 0 -10 3 +9 7 *
Fa
0  1e-07 1 0

0111000
+8 0 *
Wi

0101100
+10 0 *
Fa
0  1e-07 2 0

0111000
+6 1 *
Wi

0101100
+9 0 *
Fa
0  1e-07 3 0

0111000
+4 1 *
Sh

0101100
+7 0 +5 9 -3 10 *
So

1100000
+2 0 *

+1 0 