DBRep_DrawableShape

CASCADE Topology V1, (c) Matra-Datavision
Locations 105
1
              1               0               0               0 
              0               1               0               0 
              0               0               1               0 
1
              1               0               0               0 
              0               1               0               0 
              0               0               1               0 
1
              1               0               0               0 
              0               1               0               0 
              0               0               1               0 
1
              1               0               0               0 
              0               1               0               0 
              0               0               1               0 
1
              1               0               0               0 
              0               1               0               0 
              0               0               1               0 
1
              1               0               0               0 
              0               1               0               0 
              0               0               1               0 
1
              1               0               0               0 
              0               1               0               0 
              0               0               1               0 
1
              1               0               0               0 
              0               1               0               0 
              0               0               1               0 
1
              1               0               0               0 
              0               1               0               0 
              0               0               1               0 
2  2 1 3 -1 4 1 5 -1 6 1 7 1 8 1 9 1 0
1
              1               0               0               0 
              0               1               0               0 
              0               0               1               0 
1
              1               0               0              -0 
              0               1               0              -0 
              0               0               1           -13.5 
1
              1               0               0               0 
              0               1               0               0 
              0               0               1              27 
1
              1               0               0               0 
              0               1               0               0 
              0               0               1               0 
1
              1               0               0               0 
              0               1               0               0 
              0               0               1               0 
1
              1               0               0               0 
              0               1               0               0 
              0               0               1               0 
1
              1               0               0               0 
              0               1               0               0 
              0               0               1               0 
2  11 -1 12 1 13 1 14 1 15 -1 16 1 17 -1 0
2  9 -1 8 -1 7 -1 6 -1 5 1 4 -1 3 1 2 -1 0
1
              1               0               0              -0 
              0               1               0               0 
              0               0               1            13.5 
2  20 1 15 -1 16 1 17 -1 2 1 3 -1 4 1 5 -1 6 1 7 1 8 1 9 1 0
2  11 -1 12 1 13 1 14 1 20 -1 0
2  15 1 20 -1 0
2  1 -1 9 -1 8 -1 7 -1 6 -1 5 1 4 -1 3 1 2 -1 17 1 16 -1 15 1 20 -1 0
2  11 -1 12 1 13 1 14 1 15 -1 16 1 17 -1 2 1 3 -1 4 1 5 -1 6 1 7 1 8 1 9 1 0
2  1 -1 0
2  11 -1 12 1 13 1 14 1 15 -1 16 1 17 -1 2 1 3 -1 4 1 5 -1 6 1 7 1 8 1 0
2  1 -1 9 -1 0
2  7 1 8 1 9 1 0
2  11 -1 12 1 13 1 14 1 15 -1 16 1 17 -1 2 1 3 -1 4 1 5 -1 6 1 0
2  1 -1 9 -1 8 -1 7 -1 0
2  8 1 9 1 0
2  11 -1 12 1 13 1 14 1 15 -1 16 1 17 -1 2 1 3 -1 4 1 5 -1 6 1 7 1 0
2  1 -1 9 -1 8 -1 0
1
              1               0               0               0 
              0               1               0               0 
              0               0               1               0 
2  35 1 11 -1 12 1 13 1 14 1 15 -1 16 1 17 -1 0
2  35 -1 0
2  13 -1 12 -1 11 1 35 -1 0
2  1 -1 9 -1 8 -1 7 -1 6 -1 5 1 4 -1 3 1 2 -1 17 1 16 -1 15 1 14 -1 13 -1 12 -1 11 1 35 -1 0
1
              1               0               0              -0 
              0               1               0               0 
              0               0               1            13.5 
2  40 1 17 -1 0
2  11 -1 12 1 13 1 14 1 15 -1 16 1 40 -1 0
2  17 1 40 -1 0
2  1 -1 9 -1 8 -1 7 -1 6 -1 5 1 4 -1 3 1 2 -1 17 1 40 -1 0
2  16 1 17 -1 2 1 3 -1 4 1 5 -1 6 1 7 1 8 1 9 1 0
2  9 -1 8 -1 7 -1 6 -1 5 1 4 -1 3 1 2 -1 17 1 16 -1 0
2  16 1 17 -1 2 1 3 -1 4 1 5 -1 6 1 7 1 8 1 0
1
              1               0               0              -0 
              0               1               0              -0 
              0               0               1           -23.5 
2  20 1 15 -1 48 1 16 1 17 -1 2 1 3 -1 4 1 5 -1 6 1 7 1 8 1 9 1 0
2  48 -1 15 1 20 -1 0
2  20 -1 0
2  1 -1 9 -1 8 -1 7 -1 6 -1 5 1 4 -1 3 1 2 -1 17 1 16 -1 48 -1 15 1 20 -1 0
2  15 -1 48 1 16 1 17 -1 2 1 3 -1 4 1 5 -1 6 1 7 1 8 1 9 1 0
2  15 -1 48 1 16 1 17 -1 2 1 3 -1 4 1 5 -1 6 1 7 1 8 1 0
2  16 1 17 -1 2 1 3 -1 4 1 5 -1 6 1 0
2  8 -1 7 -1 6 -1 5 1 4 -1 3 1 2 -1 17 1 16 -1 0
2  20 1 15 -1 16 1 17 -1 2 1 3 -1 4 1 5 -1 6 1 7 1 8 1 0
2  16 1 17 -1 2 1 3 -1 4 1 5 -1 6 1 7 1 0
2  20 1 15 -1 48 1 16 1 17 -1 2 1 3 -1 4 1 5 -1 6 1 7 1 8 1 0
2  15 -1 48 1 16 1 17 -1 2 1 3 -1 4 1 5 -1 6 1 0
2  15 -1 48 1 16 1 17 -1 2 1 3 -1 4 1 5 -1 6 1 7 1 0
2  7 -1 6 -1 5 1 4 -1 3 1 2 -1 17 1 16 -1 0
2  20 1 15 -1 16 1 17 -1 2 1 3 -1 4 1 5 -1 6 1 7 1 0
2  20 1 15 -1 48 1 16 1 17 -1 2 1 3 -1 4 1 5 -1 6 1 7 1 0
2  14 1 15 -1 16 1 17 -1 2 1 3 -1 4 1 5 -1 6 1 7 1 8 1 9 1 0
2  1 -1 9 -1 8 -1 7 -1 6 -1 5 1 4 -1 3 1 2 -1 17 1 16 -1 15 1 14 -1 0
2  35 1 11 -1 12 1 0
2  12 -1 11 1 35 -1 0
2  1 -1 9 -1 8 -1 7 -1 6 -1 5 1 4 -1 3 1 2 -1 17 1 16 -1 15 1 14 -1 12 -1 11 1 35 -1 0
2  35 1 11 -1 12 1 13 1 0
2  1 -1 9 -1 8 -1 7 -1 6 -1 5 1 4 -1 3 1 2 -1 0
1
              1               0               0              -0 
              0               1               0              -0 
              0               0               1             -15 
2  40 1 17 -1 72 1 0
2  72 -1 17 1 40 -1 0
2  40 -1 0
2  1 -1 9 -1 8 -1 7 -1 6 -1 5 1 4 -1 3 1 2 -1 72 -1 17 1 40 -1 0
2  6 1 7 1 8 1 9 1 0
2  2 1 3 -1 4 1 5 -1 0
2  40 1 17 -1 2 1 3 -1 4 1 5 -1 0
2  40 1 17 -1 72 1 2 1 3 -1 4 1 5 -1 0
2  5 1 4 -1 3 1 2 -1 72 -1 17 1 40 -1 0
2  9 -1 8 -1 7 -1 6 -1 5 1 4 -1 3 1 2 -1 17 1 16 -1 48 -1 15 1 0
2  4 1 5 -1 6 1 7 1 8 1 9 1 0
2  11 -1 12 1 14 1 15 -1 16 1 17 -1 2 1 3 -1 0
2  35 1 11 -1 12 1 14 1 15 -1 16 1 17 -1 2 1 3 -1 0
1
              1               0               0              -0 
              0              -1               0              -0 
              0               0              -1           -13.5 
2  86 1 3 -1 0
2  11 -1 12 1 14 1 15 -1 16 1 17 -1 2 1 86 -1 0
2  3 1 86 -1 0
2  1 -1 9 -1 8 -1 7 -1 6 -1 5 1 4 -1 3 1 86 -1 0
2  17 -1 72 1 2 1 3 -1 4 1 5 -1 0
2  1 -1 9 -1 8 -1 7 -1 6 -1 0
2  1 -1 9 -1 8 -1 7 -1 6 -1 5 1 4 -1 0
1
              1               0               0               0 
              0               1               0               0 
              0               0               1              11 
2  86 1 3 -1 94 1 0
2  94 -1 3 1 86 -1 0
2  86 -1 0
2  1 -1 9 -1 8 -1 7 -1 6 -1 5 1 4 -1 94 -1 3 1 86 -1 0
1
              1               0               0              -0 
              0              -1               0              -0 
              0               0              -1            -2.5 
2  99 1 5 -1 0
2  5 1 99 -1 0
2  3 -1 94 1 4 1 99 -1 0
2  1 -1 9 -1 8 -1 7 -1 6 -1 5 1 99 -1 0
2  3 -1 94 1 4 1 5 -1 0
2  86 1 3 -1 94 1 4 1 5 -1 0
Curve2ds 128
1 31.5 -50 -1 -6.3441315692866085e-17 
1 0 0 1 0 
2 28.5 -47 0 1 -1 0 3
1 -3.1415926535897931 0 1 0 
2 6.5 -47 0 1 -1 0 3
1 -1.5707963267948966 0 1 0 
1 31.5 -3.5 0 -1 
1 0 0 1 0 
1 3.5 -50 0 1 
1 0 0 1 0 
2 28.5 -6.5 0 1 1 -0 3
1 0 0 1 0 
2 6.5 -6.5 0 1 -1 0 3
1 0 0 1 0 
1 3.5 -3.5 1 0 
1 0 0 1 0 
1 0 0 1 0 
1 0 -27 1 0 
1 0 -80 0 1 
1 0 -27 1 0 
1 35 0 0 -1 
1 0 -27 1 0 
1 35 -80 -1 0 
1 0 -27 1 0 
2 12.499987660767999 -62.999994546403997 1 0 -0 1 7.4999876607680003
1 0 0 1 0 
1 5.0000000000019824 -75 0 1 
1 0 0 1 0 
1 29.999999999918 -75 -1 0 
1 0 0 1 0 
1 29.999999999918 -75 0 1 
1 0 0 1 0 
2 22.499988019301 -63.000035143291996 1 0 -0 1 7.500011980699
1 0 0 1 0 
1 12.499999999979424 -55.500006885646151 0.99999999999867539 -1.6276946848046325e-06 
1 0 0 1 0 
1 3 0 0 -1 
1 0 0 0 1 
1 25 0 0 -1 
1 1.5707963267948968 0 0 1 
1 -0 -23.5 1 0 
1 -14 -23.25 1 -6.3441315692866085e-17 
1 1.5707963267948966 0 0 1 
1 43.5 0 0 -1 
1 -3.1415926535897931 23.5 1 0 
2 -11 -20.25 0 1 1 -0 3
1 0 0 0 1 
1 3 0 -0 -1 
1 -1.5707963267948966 23.5 1 0 
2 11 -20.25 0 1 1 -0 3
1 3 0 0 -1 
1 1.5707963267948966 0 0 1 
1 0 -23.5 1 0 
1 -14 23.25 0 -1 
1 43.5 0 -0 -1 
1 1.5707963267948966 0 0 1 
1 0 -23.5 1 0 
1 14 -23.25 0 1 
1 0 0 0 1 
1 25 0 -0 -1 
1 0 23.5 1 0 
2 -11 20.25 0 1 -1 0 3
1 0 0 0 1 
1 3 0 -0 -1 
1 0 23.5 1 0 
2 11 20.25 0 1 1 -0 3
1 0 -23.5 1 0 
1 14 23.25 -1 0 
1 0 0 0 -1 
1 80 0 0 -1 
1 35 0 0 -1 
1 0 0 0 -1 
1 0 0 1 0 
1 0 0 1 0 
1 0 0 0 -1 
1 35 0 0 -1 
1 0 0 1 0 
1 0 -80 0 1 
1 80 0 0 -1 
1 0 -0 0 -1 
1 0 0 1 0 
1 35 0 0 -1 
1 0 -0 1 0 
1 35 -80 -1 0 
1 1.5707946815639999 0 0 -1 
1 0 0 0 -1 
1 0 -15 1 0 
2 5.0000083453156439 3.1634782418429062 -1 2.6825476110736978e-64 2.6825476110736978e-64 1 7.4999876607680003
1 3.1415933807359999 0 0 -1 
1 12.000000000008214 0 0 -1 
1 0 0 0 -1 
1 24.999999999916017 0 0 -1 
1 0 -15 1 0 
1 12.499996006081661 -8.8365272117530935 0 1 
1 0 0 0 -1 
1 0 0 0 -1 
1 0 -15 1 0 
1 -12.500003993834357 -8.8365272117530935 1 -2.6825476110736978e-64 
1 0 -15 1 0 
1 -12.500003993834357 -8.8365272117530935 0 1 
1 12.00000000005414 0 0 -1 
1 4.6857720000000002e-06 0 0 -1 
1 0 -15 1 0 
2 -4.9999920132173559 3.1634376449549073 -1 2.6825476110736978e-64 2.6825476110736978e-64 1 7.500011980699
1 1.570794729368 0 0 -1 
1 10.000000000055755 0 0 -1 
1 0 -15 1 0 
1 4.9999960061042197 10.663465902600755 -0.99999999999867539 -1.6276946848046325e-06 
1 0 -15 1 0 
1 4.9999960061042197 10.663465902600755 -0.99999999999867539 -1.6276946848046325e-06 
1 0 -15 1 0 
1 4.9999960061042197 10.663465902600755 -0.99999999999867539 -1.6276946848046325e-06 
2 17.5 -62.5 1 0 0 -1 8
1 0 0 1 0 
2 -3.9939163559387778e-06 3.6634727882469065 -1 2.6825476110736978e-64 -2.6825476110736978e-64 -1 7
1 0 -0.99999999999999822 1 0 
2 -3.9939163559387778e-06 3.6634727882469065 -1 2.6825476110736978e-64 -2.6825476110736978e-64 -1 7
1 0 -0.99999999999999822 1 0 
2 -3.9939163559387778e-06 3.6634727882469065 -1 2.6825476110736978e-64 -2.6825476110736978e-64 -1 7
1 0 -0.99999999999999822 1 0 
1 0 0 0 -1 
1 6.2831853071795862 0 0 -1 
1 0 -11 1 0 
2 -6.8372006626971174e-16 3.5527136788005009e-15 -1 0 -0 -1 8
1 0 0 0 -1 
1 6.2831853071795862 0 0 -1 
1 0 0 1 0 
2 -6.8372006626971174e-16 3.5527136788005009e-15 -1 0 -0 -1 7
Curves 64
1 14 -10 0 -1 -6.3441315692866085e-17 0 
8 3.1415926535897931 4.7123889803846897
2 11 -7 13.5 0 0 1 0 1 -0 -1 0 0 3
8 1.5707963267948966 3.1415926535897931
2 -11 -7.0000000000000018 13.5 0 0 1 0 1 -0 -1 0 0 3
1 14 36.5 0 0 -1 0 
1 -14 -10.000000000000002 0 0 1 0 
8 0 1.5707963267948966
2 11 33.5 13.5 -0 -0 -1 0 1 -0 1 -0 0 3
8 0 1.5707963267948966
2 -11 33.5 13.5 0 0 1 0 1 -0 -1 0 0 3
1 -14 36.5 0 1 0 0 
1 -17.5 40 0 1 0 0 
1 -17.5 -40 0 0 1 0 
1 17.5 40 0 0 -1 0 
1 17.5 -40 0 -1 0 0 
2 -5.0000123392319997 -22.999994546404 0 0 0 1 1 0 -0 -0 1 0 7.4999876607680003
1 -12.499999999998018 -35 0 0 1 0 
1 12.499999999918 -35 0 -1 0 0 
1 12.499999999918 -35 0 0 1 0 
2 4.999988019301 -23.000035143291999 0 0 0 1 1 0 -0 -0 1 0 7.500011980699
1 -5.0000000000205755 -15.500006885646151 0 0.99999999999867539 -1.6276946848046325e-06 0 
1 11 -10 13.5 -0 -0 -1 
1 -11 -10.000000000000002 13.5 -0 -0 -1 
1 14 -10 0 -1 -6.3441315692866085e-17 0 
1 14 -7 13.5 -0 -0 -1 
8 3.1415926535897931 4.7123889803846897
2 11 -7 -10 0 0 1 0 1 -0 -1 0 0 3
1 -14 -7.0000000000000018 13.5 -0 -0 -1 
8 1.5707963267948966 3.1415926535897931
2 -11 -7.0000000000000018 -10 0 0 1 0 1 -0 -1 0 0 3
1 14 33.5 13.5 -0 -0 -1 
1 14 36.5 0 0 -1 0 
1 -14 33.5 13.5 -0 -0 -1 
1 -14 -10.000000000000002 0 0 1 0 
1 11 36.5 13.5 -0 -0 -1 
8 0 1.5707963267948966
2 11 33.5 -10 -0 -0 -1 0 1 -0 1 -0 0 3
1 -11 36.5 13.5 -0 -0 -1 
8 0 1.5707963267948966
2 -11 33.5 -10 0 0 1 0 1 -0 -1 0 0 3
1 -14 36.5 0 1 0 0 
1 -17.5 40 -13.5 0 0 1 
1 17.5 40 -13.5 0 0 1 
1 -17.5 40 0 1 0 0 
1 -17.5 -40 -13.5 0 0 1 
1 -17.5 -40 0 0 1 0 
1 17.5 -40 -13.5 0 0 1 
1 17.5 40 0 0 -1 0 
1 17.5 -40 0 -1 0 0 
1 -5.0000000000205755 -15.500006885646151 13.5 -0 -0 -1 
2 -5.0000123392319997 -22.999994546404 0 0 0 1 1 0 -0 -0 1 0 7.4999876607680003
1 -12.499999999998018 -22.999999999991786 13.5 -0 -0 -1 
1 -12.499999999998018 -35 13.5 -0 -0 -1 
1 -12.499999999998018 -35 0 0 1 0 
1 12.499999999918 -35 13.5 -0 -0 -1 
1 12.499999999918 -35 0 -1 0 0 
1 12.499999999918 -35 0 0 1 0 
1 12.499999999917831 -22.99999999994586 13.5 -0 -0 -1 
2 4.999988019301 -23.000035143291999 0 0 0 1 1 0 -0 -0 1 0 7.500011980699
1 5.0000000000219309 -15.500023162597785 13.5 -0 -0 -1 
1 -5.0000000000205755 -15.500006885646151 0 0.99999999999867539 -1.6276946848046325e-06 0 
1 -5.0000000000205755 -15.500006885646151 0 0.99999999999867539 -1.6276946848046325e-06 0 
1 -5.0000000000205755 -15.500006885646151 0 0.99999999999867539 -1.6276946848046325e-06 0 
2 0 22.5 0 0 0 1 1 0 -0 -0 1 0 8
2 0 -22.5 -1.5000000000000018 0 0 -1 1 0 0 0 -1 0 7
2 0 -22.5 -1.5000000000000018 0 0 -1 1 0 0 0 -1 0 7
2 0 -22.5 -1.5000000000000018 0 0 -1 1 0 0 0 -1 0 7
1 8 -22.5 -13.5 0 0 1 
2 0 22.5 0 0 0 1 1 0 -0 -0 1 0 8
1 7 -22.5 -2.5 0 0 1 
2 0 22.5 0 0 0 1 1 0 -0 -0 1 0 7
Polygon3D 0
PolygonOnTriangulations 0
Surfaces 26
1 -17.5 40 0 -0 0 1 1 0 0 0 1 -0 
1 14 -10 13.5 -6.3441315692866085e-17 1 0 -1 -6.3441315692866085e-17 0 0 0 1 
2 11 -7 13.5 -0 -0 -1 6.3441315692866085e-17 -1 0 1 6.3441315692866085e-17 -0 3
2 -11 -7.0000000000000018 13.5 -0 -0 -1 -1 0 0 -0 -1 0 3
1 14 36.5 13.5 -1 0 0 0 -1 0 0 0 1 
1 -14 -10.000000000000002 13.5 1 0 0 -0 1 0 0 -0 1 
2 11 33.5 13.5 -0 -0 -1 0 1 -0 1 -0 0 3
2 -11 33.5 13.5 -0 -0 -1 0 1 -0 -1 0 -0 3
1 -14 36.5 13.5 0 -1 0 1 0 0 -0 0 1 
1 -17.5 40 -13.5 0 1 0 1 0 0 0 0 -1 
1 -17.5 -40 -13.5 -1 0 0 0 1 0 0 0 -1 
1 17.5 40 -13.5 1 0 -0 0 -1 0 0 -0 -1 
1 17.5 -40 -13.5 0 -1 0 -1 0 0 -0 -0 -1 
2 -5.0000123392319997 -22.999994546404 13.5 0 0 1 1 0 -0 -0 1 0 7.4999876607680003
1 -12.499999999998018 -35 13.5 1 0 0 -0 1 0 0 -0 1 
1 12.499999999918 -35 13.5 0 1 -0 -1 0 0 0 0 1 
1 12.499999999918 -35 13.5 1 0 0 -0 1 0 0 -0 1 
2 4.999988019301 -23.000035143291999 13.5 0 0 1 1 0 -0 -0 1 0 7.500011980699
1 -5.0000000000205755 -15.500006885646151 13.5 -1.6276946848046325e-06 -0.99999999999867539 0 0.99999999999867539 -1.6276946848046325e-06 0 0 0 1 
1 0 13.25 13.5 -0 -0 -1 -1 0 0 0 1 -0 
1 -17.5 40 0 -0 0 1 1 0 0 0 1 -0 
1 -3.9939163559387778e-06 -26.163472788246906 13.499999999999998 1.6385774144160173e-32 -1.6371198501047004e-32 -1 -1 0 -1.6385774144160173e-32 2.6825476110736978e-64 1 -1.6371198501047004e-32 
10 -931.50219382871126 931.50218584087861 -927.83871704654803 980.16566262304184
1 -3.9939163559387778e-06 -26.163472788246906 -1.5000000000000018 1.6385774144160173e-32 -1.6371198501047004e-32 -1 -1 0 -1.6385774144160173e-32 2.6825476110736978e-64 1 -1.6371198501047004e-32 
2 0 -22.5 -13.5 0 0 -1 1 0 0 0 -1 0 8
2 0 -22.5 -2.5 0 0 -1 1 0 0 0 -1 0 7
1 -6.8372006626971174e-16 -22.500000000000004 -13.5 -0 -0 -1 -1 0 0 0 1 -0 
Triangulations 0

TShapes 165
Ve
1e-07
11 -10 13.5
0 0

0101101
*
Ve
1e-07
-11 -10 13.5
0 0

0101101
*
Ed
 1e-07 1 1 0
1  1 0 3 25
2  1 1 22 3 25
2  2 2 23 3 25
0

0101000
+165 24 -164 24 *
Ve
1e-07
14 -7 13.5
0 0

0101101
*
Ed
 1e-07 1 1 0
1  2 0 3.14159265358979 4.71238898038469
2  3 1 25 3.14159265358979 4.71238898038469
2  4 3 0 3.14159265358979 4.71238898038469
0

0101000
+165 26 -162 26 *
Ve
1e-07
-14 -7 13.5
0 0

0101101
*
Ed
 1e-07 1 1 0
1  3 0 1.5707963267949 3.14159265358979
2  5 1 27 1.5707963267949 3.14159265358979
2  6 4 0 1.5707963267949 3.14159265358979
0

0101000
+160 28 -164 28 *
Ve
1e-07
14 33.5 13.5
0 0

0101101
*
Ed
 1e-07 1 1 0
1  4 0 3 43.5
2  7 1 22 3 43.5
2  8 5 23 3 43.5
0

0101000
-162 24 +158 24 *
Ve
1e-07
-14 33.5 13.5
0 0

0101101
*
Ed
 1e-07 1 1 0
1  5 0 3 43.5
2  9 1 22 3 43.5
2  10 6 23 3 43.5
0

0101000
+160 24 -156 24 *
Ve
1e-07
11 36.5 13.5
0 0

0101101
*
Ed
 1e-07 1 1 0
1  6 0 0 1.5707963267949
2  11 1 30 0 1.5707963267949
2  12 7 0 0 1.5707963267949
0

0101000
+154 31 -158 31 *
Ve
1e-07
-11 36.5 13.5
0 0

0101101
*
Ed
 1e-07 1 1 0
1  7 0 0 1.5707963267949
2  13 1 33 0 1.5707963267949
2  14 8 0 0 1.5707963267949
0

0101000
+152 34 -156 34 *
Ed
 1e-07 1 1 0
1  8 0 3 25
2  15 1 22 3 25
2  16 9 23 3 25
0

0101000
+152 24 -154 24 *
Wi

0101100
+163 21 -161 0 -159 9 +157 21 +155 21 +153 29 -151 32 +150 21 *
Ve
1e-07
-17.5 40 13.5
0 0

0101101
*
Ve
1e-07
17.5 40 13.5
0 0

0101101
*
Ed
 1e-07 1 1 0
1  9 0 0 35
2  17 1 37 0 35
2  18 10 38 0 35
0

0101000
+148 39 -147 39 *
Ve
1e-07
-17.5 -40 13.5
0 0

0101101
*
Ed
 1e-07 1 1 0
1  10 0 0 80
2  19 1 37 0 80
2  20 11 38 0 80
0

0101000
+145 39 -148 39 *
Ve
1e-07
17.5 -40 13.5
0 0

0101101
*
Ed
 1e-07 1 1 0
1  11 0 0 80
2  21 1 37 0 80
2  22 12 38 0 80
0

0101000
+147 39 -143 39 *
Ed
 1e-07 1 1 0
1  12 0 0 35
2  23 1 37 0 35
2  24 13 38 0 35
0

0101000
+143 39 -145 39 *
Wi

0101100
-146 36 -144 36 -142 36 -141 36 *
Ve
1e-07
-5.00000000002058 -15.5000068856462 13.5
0 0

0101101
*
Ve
1.00000211386464e-07
-12.499999999998 -22.9999999999918 13.5
0 0

0101101
*
Ed
 1e-07 1 1 0
1  13 0 1.570794681564 3.141593380736
2  25 1 42 1.570794681564 3.141593380736
2  26 14 43 1.570794681564 3.141593380736
0

0101000
+139 44 -138 44 *
Ve
1e-07
-12.499999999998 -35 13.5
0 0

0101101
*
Ed
 1e-07 1 1 0
1  14 0 0 12.000000000008
2  27 1 42 0 12.000000000008
2  28 15 43 0 12.000000000008
0

0101000
+136 44 -138 44 *
Ve
1e-07
12.499999999918 -35 13.5
0 0

0101101
*
Ed
 1e-07 1 1 0
1  15 0 0 24.999999999916
2  29 1 42 0 24.999999999916
2  30 16 43 0 24.999999999916
0

0101000
+134 44 -136 44 *
Ve
1.000001687539e-07
12.4999999999178 -22.9999999999459 13.5
0 0

0101101
*
Ed
 1e-07 1 1 0
1  16 0 0 12.0000000000541
2  31 1 42 0 12.0000000000541
2  32 17 43 0 12.0000000000541
0

0101000
+134 44 -132 44 *
Ve
1.0000478511226e-07
5.00000000002193 -15.5000231625978 13.5
0 0

0101101
*
Ed
 1e-07 1 1 0
1  17 0 4.685772e-06 1.570794729368
2  33 1 42 4.685772e-06 1.570794729368
2  34 18 43 4.685772e-06 1.570794729368
0

0101000
+132 44 -130 44 *
Ed
 1e-07 1 1 0
1  18 0 0 10.0000000000558
2  35 1 42 0 10.0000000000558
2  36 19 43 0 10.0000000000558
0

0101000
+139 44 -130 44 *
Wi

0101100
-137 41 +135 41 +133 41 -131 41 -129 41 +128 41 *
Fa
0  1e-07 1 18

0111000
+149 19 +140 0 +127 0 *
Ve
1e-07
11 -10 -10
0 0

0101101
*
Ed
 1e-07 1 1 0
1  19 0 -0 23.5
2  37 2 45 -0 23.5
2  38 3 0 -0 23.5
4 G1 2 45 3 0
0

0101000
+165 26 -125 26 *
Ve
1e-07
-11 -10 -10
0 0

0101101
*
Ed
 1e-07 1 1 0
1  20 0 -0 23.5
2  39 2 47 -0 23.5
2  40 4 0 -0 23.5
4 G1 2 47 4 0
0

0101000
+164 28 -123 28 *
Ed
 1e-07 1 1 0
1  21 0 3 25
2  41 2 50 3 25
2  42 20 51 3 25
0

0101000
+125 52 -123 52 *
Wi

0101100
-163 21 +124 0 -122 9 +121 49 *
Fa
0  1e-07 2 0

0111000
+120 46 *
Ve
1e-07
14 -7 -10
0 0

0101101
*
Ed
 1e-07 1 1 0
1  22 0 -0 23.5
2  43 3 0 -0 23.5
2  44 5 45 -0 23.5
4 G1 3 0 5 45
0

0101000
+162 26 -118 26 *
Ed
 1e-07 1 1 0
1  23 0 3.14159265358979 4.71238898038469
2  45 3 0 3.14159265358979 4.71238898038469
2  46 20 53 3.14159265358979 4.71238898038469
0

0101000
+125 26 -118 26 *
Wi

0101100
+161 0 -124 0 +117 0 -116 0 *
Fa
0  1e-07 3 0

0111000
+115 0 *
Ve
1e-07
-14 -7 -10
0 0

0101101
*
Ed
 1e-07 1 1 0
1  24 0 0 23.5
2  47 4 0 0 23.5
2  48 6 47 0 23.5
4 G1 4 0 6 47
0

0101000
+160 28 -113 28 *
Ed
 1e-07 1 1 0
1  25 0 1.5707963267949 3.14159265358979
2  49 4 0 1.5707963267949 3.14159265358979
2  50 20 54 1.5707963267949 3.14159265358979
0

0101000
+113 28 -123 28 *
Wi

0101100
+159 0 -112 0 +122 0 -111 0 *
Fa
0  1e-07 4 0

0111000
+110 0 *
Ve
1e-07
14 33.5 -10
0 0

0101101
*
Ed
 1e-07 1 1 0
1  26 0 -0 23.5
2  51 5 55 -0 23.5
2  52 7 0 -0 23.5
4 G1 5 55 7 0
0

0101000
+158 31 -108 31 *
Ed
 1e-07 1 1 0
1  27 0 3 43.5
2  53 5 50 3 43.5
2  54 20 51 3 43.5
0

0101000
-118 52 +108 52 *
Wi

0101100
-157 21 -117 0 +107 29 +106 49 *
Fa
0  1e-07 5 0

0111000
+105 46 *
Ve
1e-07
-14 33.5 -10
0 0

0101101
*
Ed
 1e-07 1 1 0
1  28 0 -0 23.5
2  55 6 58 -0 23.5
2  56 8 0 -0 23.5
4 G1 6 58 8 0
0

0101000
+156 34 -103 34 *
Ed
 1e-07 1 1 0
1  29 0 3 43.5
2  57 6 50 3 43.5
2  58 20 51 3 43.5
0

0101000
+113 52 -103 52 *
Wi

0101100
-155 57 +112 0 -102 8 +101 59 *
Fa
0  1e-07 6 0

0111000
+100 56 *
Ve
1e-07
11 36.5 -10
0 0

0101101
*
Ed
 1e-07 1 1 0
1  30 0 -0 23.5
2  59 7 0 -0 23.5
2  60 9 55 -0 23.5
4 G1 7 0 9 55
0

0101000
+154 31 -98 31 *
Ed
 1e-07 1 1 0
1  31 0 0 1.5707963267949
2  61 7 0 0 1.5707963267949
2  62 20 60 0 1.5707963267949
0

0101000
+98 31 -108 31 *
Wi

0101100
+153 0 -97 0 +107 0 -96 0 *
Fa
0  1e-07 7 0

0111000
+95 0 *
Ve
1e-07
-11 36.5 -10
0 0

0101101
*
Ed
 1e-07 1 1 0
1  32 0 -0 23.5
2  63 8 0 -0 23.5
2  64 9 58 -0 23.5
4 G1 8 0 9 58
0

0101000
+152 34 -93 34 *
Ed
 1e-07 1 1 0
1  33 0 0 1.5707963267949
2  65 8 0 0 1.5707963267949
2  66 20 61 0 1.5707963267949
0

0101000
+93 34 -103 34 *
Wi

0101100
+151 0 -92 0 +102 0 -91 0 *
Fa
0  1e-07 8 0

0111000
+90 0 *
Ed
 1e-07 1 1 0
1  34 0 3 25
2  67 9 50 3 25
2  68 20 51 3 25
0

0101000
+93 52 -98 52 *
Wi

0101100
-150 63 +92 0 -97 7 +88 64 *
Fa
0  1e-07 9 0

0111000
+87 62 *
Ve
1e-07
-17.5 40 -13.5
0 0

0101101
*
Ed
 1e-07 1 1 0
1  35 0 0 27
2  69 10 0 0 27
2  70 11 0 0 27
0

0101000
+85 66 -148 66 *
Ve
1e-07
17.5 40 -13.5
0 0

0101101
*
Ed
 1e-07 1 1 0
1  36 0 0 27
2  71 10 0 0 27
2  72 12 0 0 27
0

0101000
+83 66 -147 66 *
Ed
 1e-07 1 1 0
1  37 0 0 35
2  73 10 68 0 35
2  74 21 37 0 35
0

0101000
+85 69 -83 69 *
Wi

0101000
+84 0 -82 0 -81 67 +146 70 *
Fa
0  1e-07 10 0

0111000
+80 0 *
Ve
1e-07
-17.5 -40 -13.5
0 0

0101101
*
Ed
 1e-07 1 1 0
1  38 0 0 27
2  75 11 0 0 27
2  76 13 0 0 27
0

0101000
+78 66 -145 66 *
Ed
 1e-07 1 1 0
1  39 0 0 80
2  77 11 68 0 80
2  78 21 37 0 80
0

0101000
+78 69 -85 69 *
Wi

0101000
+77 0 -84 0 -76 67 +144 70 *
Fa
0  1e-07 11 0

0111000
+75 0 *
Ve
1e-07
17.5 -40 -13.5
0 0

0101101
*
Ed
 1e-07 1 1 0
1  40 0 0 27
2  79 12 0 0 27
2  80 13 0 0 27
0

0101000
+73 66 -143 66 *
Ed
 1e-07 1 1 0
1  41 0 0 80
2  81 12 68 0 80
2  82 21 37 0 80
0

0101000
+83 69 -73 69 *
Wi

0101000
+82 0 -72 0 -71 67 +142 70 *
Fa
0  1e-07 12 0

0111000
+70 0 *
Ed
 1e-07 1 1 0
1  42 0 0 35
2  83 13 68 0 35
2  84 21 37 0 35
0

0101000
+73 69 -78 69 *
Wi

0101000
+72 0 -77 0 -68 67 +141 70 *
Fa
0  1e-07 13 0

0111000
+67 0 *
Ve
1e-07
-5.00000000002058 -15.5000068856462 -1.5
0 0

0101101
*
Ed
 1e-07 1 1 0
1  43 0 0 15
2  85 14 0 0 15
2  86 19 0 0 15
4 G1 14 0 19 0
0

0101000
+139 71 -65 71 *
Ve
1.00000211386464e-07
-12.499999999998 -22.9999999999918 -1.5
0 0

0101101
*
Ed
 1e-07 1 1 0
1  44 0 1.570794681564 3.141593380736
2  87 14 74 1.570794681564 3.141593380736
2  88 22 75 1.570794681564 3.141593380736
0

0101000
+65 76 -63 76 *
Ed
 1.00000211386464e-07 1 1 0
1  45 0 0 15
2  89 14 0 0 15
2  90 15 0 0 15
4 G1 14 0 15 0
0

0101000
+138 71 -63 71 *
Wi

0101100
+64 0 -137 41 +62 73 -61 0 *
Fa
0  1e-07 14 0

0111000
+60 0 *
Ve
1e-07
-12.499999999998 -35 -1.5
0 0

0101101
*
Ed
 1e-07 1 1 0
1  46 0 0 15
2  91 15 0 0 15
2  92 16 0 0 15
0

0101000
+136 71 -58 71 *
Ed
 1e-07 1 1 0
1  47 0 0 12.000000000008
2  93 15 74 0 12.000000000008
2  94 22 75 0 12.000000000008
0

0101000
+58 76 -63 76 *
Wi

0101100
+57 0 -135 41 +56 73 -61 0 *
Fa
0  1e-07 15 0

0111000
+55 0 *
Ve
1e-07
12.499999999918 -35 -1.5
0 0

0101101
*
Ed
 1e-07 1 1 0
1  48 0 0 15
2  95 16 0 0 15
2  96 17 0 0 15
0

0101000
+134 71 -53 71 *
Ed
 1e-07 1 1 0
1  49 0 0 24.999999999916
2  97 16 74 0 24.999999999916
2  98 22 75 0 24.999999999916
0

0101000
+53 76 -58 76 *
Wi

0101100
+52 0 -133 41 +51 73 -57 0 *
Fa
0  1e-07 16 0

0111000
+50 0 *
Ve
1.000001687539e-07
12.4999999999178 -22.9999999999459 -1.5
0 0

0101101
*
Ed
 1e-07 1 1 0
1  50 0 0 12.0000000000541
2  99 17 74 0 12.0000000000541
2  100 22 75 0 12.0000000000541
0

0101000
+53 76 -48 76 *
Ed
 1.000001687539e-07 1 1 0
1  51 0 0 15
2  101 17 0 0 15
2  102 18 0 0 15
4 G1 17 0 18 0
0

0101000
+132 71 -48 71 *
Wi

0101100
+52 0 -131 41 +47 73 -46 0 *
Fa
0  1e-07 17 0

0111000
+45 0 *
Ve
1.0000478511226e-07
5.00000000002193 -15.5000231625978 -1.5
0 0

0101101
*
Ed
 1e-07 1 1 0
1  52 0 4.685772e-06 1.570794729368
2  103 18 74 4.685772e-06 1.570794729368
2  104 22 75 4.685772e-06 1.570794729368
0

0101000
+48 76 -43 76 *
Ed
 1.0000478511226e-07 1 1 0
1  53 0 0 15
2  105 18 0 0 15
2  106 19 0 0 15
4 G1 18 0 19 0
0

0101000
+130 71 -43 71 *
Wi

0101100
+46 0 -129 41 +42 73 -41 0 *
Fa
0  1e-07 18 0

0111000
+40 0 *
Ve
1.00001002006615e-07
-0.0144916257835037 -15.5000150005316 -1.5
0 0

0101101
*
Ed
 1e-07 1 1 0
1  54 0 0 4.98550837424368
2  107 19 74 0 4.98550837424368
2  108 22 75 0 4.98550837424368
0

0101000
+65 76 -38 76 *
Ve
1.00001016248603e-07
0.0145144134594525 -15.5000150477446 -1.5
0 0

0101101
*
Ed
 1e-07 1 1 0
1  55 0 4.98550837424368 5.01451441348667
2  109 19 74 4.98550837424368 5.01451441348667
2  110 23 81 4.98550837424368 5.01451441348667
0

0101000
+38 76 -36 76 *
Ed
 1e-07 1 1 0
1  56 0 5.01451441348667 10.0000000000558
2  111 19 74 5.01451441348667 10.0000000000558
2  112 22 75 5.01451441348667 10.0000000000558
0

0101000
+36 76 -43 76 *
Wi

0101100
+64 78 -128 79 +37 80 -41 78 +35 80 +34 80 *
Fa
0  1e-07 19 78

0111000
+33 0 *
Wi

0101100
+121 49 -116 0 -111 9 +106 49 +101 49 +96 29 -91 32 +88 49 *
Fa
0  1e-07 20 0

0111000
+31 82 *
Wi

0101100
-81 85 -76 85 -71 85 -68 85 *
Ve
1e-07
8 -22.5 -13.5
0 0

0101101
*
Ed
 1e-07 1 1 0
1  57 0 0 6.28318530717959
2  113 21 88 0 6.28318530717959
2  114 24 89 0 6.28318530717959
0

0101000
+28 90 -28 90 *
Wi

0101100
+27 87 *
Fa
0  1e-07 21 84

0111000
+29 0 +26 0 *
Ve
2.00001e-07
7 -22.5 -1.5
0 0

0101101
*
Ed
 1e-07 1 1 0
1  58 0 4.71446246950753 6.28318530717959
2  115 22 91 4.71446246950753 6.28318530717959
2  116 25 0 4.71446246950753 6.28318530717959
0

0101000
+36 92 -24 92 *
Ed
 1e-07 1 1 0
1  59 0 0 4.71031874665111
2  117 22 91 0 4.71031874665111
2  118 25 0 0 4.71031874665111
0

0101000
+24 92 -38 92 *
Wi

0101100
-47 80 -42 80 +34 80 -23 0 -22 0 +37 80 -62 80 +56 80 +51 80 *
Fa
0  1e-07 22 91

0111000
+21 0 *
Ed
 1e-07 1 1 0
1  60 0 4.71031874665111 4.71446246950753
2  119 23 0 4.71031874665111 4.71446246950753
2  120 25 0 4.71031874665111 4.71446246950753
0

0101000
+38 92 -36 92 *
Wi

0101100
-35 80 +19 0 *
Fa
0  1e-07 23 0

0111000
+18 0 *
Ve
1e-07
8 -22.5 -2.5
0 0

0101101
*
Ed
 1e-07 1 1 0
1  61 0 0 11
3  121 122CN 24 0 0 11
0

0101000
+28 93 -16 93 *
Ed
 1e-07 1 1 0
1  62 0 0 6.28318530717959
2  123 24 96 0 6.28318530717959
2  124 26 97 0 6.28318530717959
0

0101000
+16 98 -16 98 *
Wi

0101100
-27 87 -15 0 +14 95 +15 0 *
Fa
0  1e-07 24 0

0111000
+13 0 *
Ve
1e-07
7 -22.5 -2.5
0 0

0101101
*
Ed
 1e-07 1 1 0
1  63 0 0 0.999999999999998
3  125 126CN 25 0 0 0.999999999999998
0

0101000
+11 92 -24 92 *
Ed
 1e-07 1 1 0
1  64 0 0 6.28318530717959
2  127 25 101 0 6.28318530717959
2  128 26 102 0 6.28318530717959
0

0101000
+11 103 -11 103 *
Wi

0101100
-10 0 +23 0 +19 0 +22 0 +10 0 -9 100 *
Fa
0  1e-07 25 0

0111000
+8 0 *
Wi

0101100
+14 105 *
Wi

0101100
-9 100 *
Fa
0  1e-07 26 104

0111000
+6 0 +5 0 *
Sh

0101100
+126 10 +119 45 +114 0 +109 9 +104 45 +99 45 -94 29 +89 32 +86 45 +79 65 
+74 65 +69 65 +66 65 -59 10 +54 10 +49 10 -44 10 -39 10 +32 77 -30 53 
-25 83 -20 77 +17 77 -12 83 -7 77 +4 77 *
So

0100000
+3 0 *
Co

1100000
+2 0 *

+1 1 