DBRep_DrawableShape

CASCADE Topology V1, (c) Matra-Datavision
Locations 14
1
              1               0               0               0 
              0               1               0               0 
              0               0               1               0 
2  1 -1 0
1
              1               0               0               0 
              0               1               0               0 
              0               0               1               0 
1
              1               0               0               0 
              0               1               0               0 
              0               0               1               0 
2  3 1 4 -1 0
2  4 1 3 -1 0
2  3 -1 0
2  1 -1 4 1 3 -1 0
1
              1               0               0               0 
              0               1               0               0 
              0               0               1              29 
2  3 1 4 -1 9 1 0
2  9 -1 4 1 3 -1 0
2  1 -1 9 -1 4 1 3 -1 0
2  4 -1 0
2  4 -1 9 1 0
Curve2ds 24
1 0 0 0 -1 
1 80 0 0 -1 
1 35 0 0 -1 
1 0 0 0 -1 
1 0 0 1 0 
1 17.5 40 -1 0 
1 0 -29 1 0 
1 17.5 40 -1 0 
1 80 0 0 -1 
1 0 -0 0 -1 
1 0 0 1 0 
1 -17.5 40 0 -1 
1 0 -29 1 0 
1 -17.5 40 0 -1 
1 35 0 0 -1 
1 0 0 0 -1 
1 0 -0 1 0 
1 -17.5 -40 1 0 
1 0 -29 1 0 
1 -17.5 -40 1 0 
1 0 0 1 0 
1 17.5 -40 0 1 
1 0 -29 1 0 
1 17.5 -40 0 1 
Curves 12
1 -17.5 40 0 0 0 1 
1 17.5 40 0 0 0 1 
1 -17.5 40 0 1 0 0 
1 -17.5 40 0 1 0 0 
1 17.5 -40 0 0 0 1 
1 17.5 40 0 0 -1 0 
1 17.5 40 0 0 -1 0 
1 -17.5 -40 0 0 0 1 
1 17.5 -40 0 -1 0 0 
1 17.5 -40 0 -1 0 0 
1 -17.5 -40 0 0 1 0 
1 -17.5 -40 0 0 1 0 
Polygon3D 0
PolygonOnTriangulations 0
Surfaces 6
1 -17.5 40 0 0 1 0 1 0 0 0 0 -1 
1 -17.5 -40 0 -1 0 0 0 1 0 0 0 -1 
1 17.5 40 0 1 0 -0 0 -1 0 0 -0 -1 
1 0 0 0 -0 -0 -1 -1 0 0 0 1 -0 
1 0 0 0 -0 -0 -1 -1 0 0 0 1 -0 
1 17.5 -40 0 0 -1 0 -1 0 0 -0 -0 -1 
Triangulations 0

TShapes 34
Ve
1e-07
-17.5 40 0
0 0

0101101
*
Ve
1e-07
-17.5 40 29
0 0

0101101
*
Ed
 1e-07 1 1 0
1  1 0 0 29
2  1 1 0 0 29
2  2 2 0 0 29
0

0101000
+34 2 -33 2 *
Ve
1e-07
17.5 40 0
0 0

0101101
*
Ve
1e-07
17.5 40 29
0 0

0101101
*
Ed
 1e-07 1 1 0
1  2 0 0 29
2  3 1 0 0 29
2  4 3 0 0 29
0

0101000
+31 2 -30 2 *
Ed
 1e-07 1 1 0
1  3 0 0 35
2  5 1 6 0 35
2  6 4 7 0 35
0

0101000
+34 8 -31 8 *
Ed
 1e-07 1 1 0
1  4 0 0 35
2  7 1 11 0 35
2  8 5 7 0 35
0

0101000
+33 12 -30 12 *
Wi

0101100
+32 0 -29 0 -28 5 +27 10 *
Fa
0  1e-07 1 0

0111000
+26 0 *
Ve
1e-07
17.5 -40 0
0 0

0101101
*
Ve
1e-07
17.5 -40 29
0 0

0101101
*
Ed
 1e-07 1 1 0
1  5 0 0 29
2  9 3 0 0 29
2  10 6 0 0 29
0

0101000
+24 2 -23 2 *
Ed
 1e-07 1 1 0
1  6 0 0 80
2  11 3 6 0 80
2  12 4 7 0 80
0

0101000
+31 8 -24 8 *
Ed
 1e-07 1 1 0
1  7 0 0 80
2  13 3 11 0 80
2  14 5 7 0 80
0

0101000
+30 12 -23 12 *
Wi

0101100
+29 0 -22 0 -21 5 +20 10 *
Fa
0  1e-07 3 0

0111000
+19 0 *
Ve
1e-07
-17.5 -40 0
0 0

0101101
*
Ve
1e-07
-17.5 -40 29
0 0

0101101
*
Ed
 1e-07 1 1 0
1  8 0 0 29
2  15 6 0 0 29
2  16 2 0 0 29
0

0101000
+17 2 -16 2 *
Ed
 1e-07 1 1 0
1  9 0 0 35
2  17 6 6 0 35
2  18 4 7 0 35
0

0101000
+24 8 -17 8 *
Ed
 1e-07 1 1 0
1  10 0 0 35
2  19 6 11 0 35
2  20 5 7 0 35
0

0101000
+23 12 -16 12 *
Wi

0101100
+22 0 -15 0 -14 5 +13 10 *
Fa
0  1e-07 6 0

0111000
+12 0 *
Ed
 1e-07 1 1 0
1  11 0 0 80
2  21 2 6 0 80
2  22 4 7 0 80
0

0101000
+17 8 -34 8 *
Ed
 1e-07 1 1 0
1  12 0 0 80
2  23 2 11 0 80
2  24 5 7 0 80
0

0101000
+16 12 -33 12 *
Wi

0101100
+15 0 -32 0 -10 5 +9 10 *
Fa
0  1e-07 2 0

0111000
+8 0 *
Wi

0101100
+28 0 +21 0 +14 0 +10 0 *
Fa
0  1e-07 4 0

0111000
+6 3 *
Wi

0101100
+27 0 +20 0 +13 0 +9 0 *
Fa
0  1e-07 5 0

0111000
+4 3 *
Sh

0101100
+25 0 +18 0 +11 0 +7 0 +5 13 -3 14 *
So

1100000
+2 0 *

+1 1 