DBRep_DrawableShape

CASCADE Topology V1, (c) Matra-Datavision
Locations 84
1
              1               0               0               0 
              0               1               0               0 
              0               0               1               0 
1
              1               0               0               0 
              0               1               0               0 
              0               0               1               0 
1
              1               0               0               0 
              0               1               0               0 
              0               0               1               0 
1
              1               0               0               0 
              0               1               0               0 
              0               0               1               0 
1
              1               0               0               0 
              0               1               0               0 
              0               0               1               0 
1
              1               0               0               0 
              0               1               0               0 
              0               0               1               0 
2  2 1 3 -1 4 1 5 -1 6 1 0
1
              1               0               0               0 
              0               1               0               0 
              0               0               1               0 
1
              1               0               0              -0 
              0               1               0              -0 
              0               0               1           -13.5 
1
              1               0               0               0 
              0               1               0               0 
              0               0               1              27 
1
              1               0               0               0 
              0               1               0               0 
              0               0               1               0 
1
              1               0               0               0 
              0               1               0               0 
              0               0               1               0 
1
              1               0               0               0 
              0               1               0               0 
              0               0               1               0 
1
              1               0               0               0 
              0               1               0               0 
              0               0               1               0 
2  8 -1 9 1 10 1 11 1 12 -1 13 1 14 -1 0
2  6 -1 5 1 4 -1 3 1 2 -1 0
1
              1               0               0              -0 
              0               1               0               0 
              0               0               1            13.5 
2  17 1 12 -1 13 1 14 -1 2 1 3 -1 4 1 5 -1 6 1 0
2  8 -1 9 1 10 1 11 1 17 -1 0
2  12 1 17 -1 0
2  1 -1 6 -1 5 1 4 -1 3 1 2 -1 14 1 13 -1 12 1 17 -1 0
2  8 -1 9 1 10 1 11 1 12 -1 13 1 14 -1 2 1 3 -1 4 1 5 -1 6 1 0
2  1 -1 0
1
              1               0               0               0 
              0               1               0               0 
              0               0               1               0 
2  24 1 8 -1 9 1 10 1 11 1 12 -1 13 1 14 -1 0
2  24 -1 0
2  10 -1 9 -1 8 1 24 -1 0
2  1 -1 6 -1 5 1 4 -1 3 1 2 -1 14 1 13 -1 12 1 11 -1 10 -1 9 -1 8 1 24 -1 0
1
              1               0               0              -0 
              0               1               0               0 
              0               0               1            13.5 
2  29 1 14 -1 0
2  8 -1 9 1 10 1 11 1 12 -1 13 1 29 -1 0
2  14 1 29 -1 0
2  1 -1 6 -1 5 1 4 -1 3 1 2 -1 14 1 29 -1 0
2  13 1 14 -1 2 1 3 -1 4 1 5 -1 6 1 0
2  6 -1 5 1 4 -1 3 1 2 -1 14 1 13 -1 0
2  1 -1 6 -1 5 1 4 -1 3 1 2 -1 14 1 13 -1 0
1
              1               0               0              -0 
              0               1               0              -0 
              0               0               1           -23.5 
2  17 1 12 -1 37 1 13 1 14 -1 2 1 3 -1 4 1 5 -1 6 1 0
2  37 -1 12 1 17 -1 0
2  17 -1 0
2  1 -1 6 -1 5 1 4 -1 3 1 2 -1 14 1 13 -1 37 -1 12 1 17 -1 0
2  12 -1 37 1 13 1 14 -1 2 1 3 -1 4 1 5 -1 6 1 0
2  17 1 12 -1 0
2  17 1 12 -1 37 1 0
2  11 1 12 -1 13 1 14 -1 2 1 3 -1 4 1 5 -1 6 1 0
2  1 -1 6 -1 5 1 4 -1 3 1 2 -1 14 1 13 -1 12 1 11 -1 0
2  24 1 8 -1 9 1 0
2  9 -1 8 1 24 -1 0
2  1 -1 6 -1 5 1 4 -1 3 1 2 -1 14 1 13 -1 12 1 11 -1 9 -1 8 1 24 -1 0
2  24 1 8 -1 9 1 10 1 0
2  1 -1 6 -1 5 1 4 -1 3 1 2 -1 0
1
              1               0               0              -0 
              0               1               0              -0 
              0               0               1             -15 
2  29 1 14 -1 52 1 0
2  52 -1 14 1 29 -1 0
2  29 -1 0
2  1 -1 6 -1 5 1 4 -1 3 1 2 -1 52 -1 14 1 29 -1 0
2  2 1 3 -1 4 1 5 -1 0
2  29 1 14 -1 2 1 3 -1 4 1 5 -1 0
2  29 1 14 -1 52 1 2 1 3 -1 4 1 5 -1 0
2  5 1 4 -1 3 1 2 -1 52 -1 14 1 29 -1 0
2  6 -1 5 1 4 -1 3 1 2 -1 14 1 13 -1 37 -1 12 1 0
2  4 1 5 -1 6 1 0
2  8 -1 9 1 11 1 12 -1 13 1 14 -1 2 1 3 -1 0
2  24 1 8 -1 9 1 11 1 12 -1 13 1 14 -1 2 1 3 -1 0
1
              1               0               0              -0 
              0              -1               0              -0 
              0               0              -1           -13.5 
2  65 1 3 -1 0
2  8 -1 9 1 11 1 12 -1 13 1 14 -1 2 1 65 -1 0
2  3 1 65 -1 0
2  1 -1 6 -1 5 1 4 -1 3 1 65 -1 0
2  14 -1 52 1 2 1 3 -1 4 1 5 -1 0
2  1 -1 6 -1 0
2  1 -1 6 -1 5 1 4 -1 0
1
              1               0               0               0 
              0               1               0               0 
              0               0               1              11 
2  65 1 3 -1 73 1 0
2  73 -1 3 1 65 -1 0
2  65 -1 0
2  1 -1 6 -1 5 1 4 -1 73 -1 3 1 65 -1 0
1
              1               0               0              -0 
              0              -1               0              -0 
              0               0              -1            -2.5 
2  78 1 5 -1 0
2  5 1 78 -1 0
2  3 -1 73 1 4 1 78 -1 0
2  1 -1 6 -1 5 1 78 -1 0
2  3 -1 73 1 4 1 5 -1 0
2  65 1 3 -1 73 1 4 1 5 -1 0
Curve2ds 110
1 3.5 -3.5 1 0 
1 0 0 1 0 
2 28.5 -6.5 0 1 1 -0 3
1 0 0 1 0 
1 3.5 -50 0 1 
1 0 0 1 0 
1 31.5 -3.5 0 -1 
1 0 0 1 0 
1 31.5 -50 -1 -6.3441315692866085e-17 
1 0 0 1 0 
1 0 0 1 0 
1 0 -27 1 0 
1 0 -80 0 1 
1 0 -27 1 0 
1 35 0 0 -1 
1 0 -27 1 0 
1 35 -80 -1 0 
1 0 -27 1 0 
2 12.499987660767999 -62.999994546403997 1 0 -0 1 7.4999876607680003
1 0 0 1 0 
1 5.0000000000019824 -75 0 1 
1 0 0 1 0 
1 29.999999999918 -75 -1 0 
1 0 0 1 0 
1 29.999999999918 -75 0 1 
1 0 0 1 0 
2 22.499988019301 -63.000035143291996 1 0 -0 1 7.500011980699
1 0 0 1 0 
1 12.499999999979424 -55.500006885646151 0.99999999999867539 -1.6276946848046325e-06 
1 0 0 1 0 
1 25 0 -0 -1 
1 0 0 0 1 
1 0 0 0 -1 
1 46.5 0 0 -1 
1 0 -23.5 1 0 
1 14 23.25 -1 0 
1 1.5707963267948966 0 0 1 
1 3 0 0 -1 
1 0 23.5 1 0 
2 -11 20.25 0 1 -1 0 3
1 0 0 0 -1 
1 28 0 0 -1 
1 0 -23.5 1 0 
1 14 -23.25 0 1 
1 46.5 0 0 -1 
1 0 0 0 -1 
1 0 -23.5 1 0 
1 -14 23.25 0 -1 
1 -0 -23.5 1 0 
1 -14 -23.25 1 -6.3441315692866085e-17 
1 0 0 0 -1 
1 80 0 0 -1 
1 35 0 0 -1 
1 0 0 0 -1 
1 0 0 1 0 
1 0 0 1 0 
1 0 0 0 -1 
1 35 0 0 -1 
1 0 0 1 0 
1 0 -80 0 1 
1 80 0 0 -1 
1 0 -0 0 -1 
1 0 0 1 0 
1 35 0 0 -1 
1 0 -0 1 0 
1 35 -80 -1 0 
1 1.5707946815639999 0 0 -1 
1 0 0 0 -1 
1 0 -15 1 0 
2 5.0000083453156439 3.1634782418429062 -1 2.6825476110736978e-64 2.6825476110736978e-64 1 7.4999876607680003
1 3.1415933807359999 0 0 -1 
1 12.000000000008214 0 0 -1 
1 0 0 0 -1 
1 24.999999999916017 0 0 -1 
1 0 -15 1 0 
1 12.499996006081661 -8.8365272117530935 0 1 
1 0 0 0 -1 
1 0 0 0 -1 
1 0 -15 1 0 
1 -12.500003993834357 -8.8365272117530935 1 -2.6825476110736978e-64 
1 0 -15 1 0 
1 -12.500003993834357 -8.8365272117530935 0 1 
1 12.00000000005414 0 0 -1 
1 4.6857720000000002e-06 0 0 -1 
1 0 -15 1 0 
2 -4.9999920132173559 3.1634376449549073 -1 2.6825476110736978e-64 2.6825476110736978e-64 1 7.500011980699
1 1.570794729368 0 0 -1 
1 10.000000000055755 0 0 -1 
1 0 -15 1 0 
1 4.9999960061042197 10.663465902600755 -0.99999999999867539 -1.6276946848046325e-06 
1 0 -15 1 0 
1 4.9999960061042197 10.663465902600755 -0.99999999999867539 -1.6276946848046325e-06 
1 0 -15 1 0 
1 4.9999960061042197 10.663465902600755 -0.99999999999867539 -1.6276946848046325e-06 
2 17.5 -62.5 1 0 0 -1 8
1 0 0 1 0 
2 -3.9939163559387778e-06 3.6634727882469065 -1 2.6825476110736978e-64 -2.6825476110736978e-64 -1 7
1 0 -0.99999999999999822 1 0 
2 -3.9939163559387778e-06 3.6634727882469065 -1 2.6825476110736978e-64 -2.6825476110736978e-64 -1 7
1 0 -0.99999999999999822 1 0 
2 -3.9939163559387778e-06 3.6634727882469065 -1 2.6825476110736978e-64 -2.6825476110736978e-64 -1 7
1 0 -0.99999999999999822 1 0 
1 0 0 0 -1 
1 6.2831853071795862 0 0 -1 
1 0 -11 1 0 
2 -6.8372006626971174e-16 3.5527136788005009e-15 -1 0 -0 -1 8
1 0 0 0 -1 
1 6.2831853071795862 0 0 -1 
1 0 0 1 0 
2 -6.8372006626971174e-16 3.5527136788005009e-15 -1 0 -0 -1 7
Curves 55
1 -14 36.5 0 1 0 0 
8 0 1.5707963267948966
2 11 33.5 13.5 -0 -0 -1 0 1 -0 1 -0 0 3
1 -14 -10.000000000000002 0 0 1 0 
1 14 36.5 0 0 -1 0 
1 14 -10 0 -1 -6.3441315692866085e-17 0 
1 -17.5 40 0 1 0 0 
1 -17.5 -40 0 0 1 0 
1 17.5 40 0 0 -1 0 
1 17.5 -40 0 -1 0 0 
2 -5.0000123392319997 -22.999994546404 0 0 0 1 1 0 -0 -0 1 0 7.4999876607680003
1 -12.499999999998018 -35 0 0 1 0 
1 12.499999999918 -35 0 -1 0 0 
1 12.499999999918 -35 0 0 1 0 
2 4.999988019301 -23.000035143291999 0 0 0 1 1 0 -0 -0 1 0 7.500011980699
1 -5.0000000000205755 -15.500006885646151 0 0.99999999999867539 -1.6276946848046325e-06 0 
1 11 36.5 13.5 -0 -0 -1 
1 -14 36.5 13.5 -0 -0 -1 
1 -14 36.5 0 1 0 0 
1 14 33.5 13.5 -0 -0 -1 
8 0 1.5707963267948966
2 11 33.5 -10 -0 -0 -1 0 1 -0 1 -0 0 3
1 -14 -10.000000000000002 13.5 -0 -0 -1 
1 -14 -10.000000000000002 0 0 1 0 
1 14 -10 13.5 -0 -0 -1 
1 14 36.5 0 0 -1 0 
1 14 -10 0 -1 -6.3441315692866085e-17 0 
1 -17.5 40 -13.5 0 0 1 
1 17.5 40 -13.5 0 0 1 
1 -17.5 40 0 1 0 0 
1 -17.5 -40 -13.5 0 0 1 
1 -17.5 -40 0 0 1 0 
1 17.5 -40 -13.5 0 0 1 
1 17.5 40 0 0 -1 0 
1 17.5 -40 0 -1 0 0 
1 -5.0000000000205755 -15.500006885646151 13.5 -0 -0 -1 
2 -5.0000123392319997 -22.999994546404 0 0 0 1 1 0 -0 -0 1 0 7.4999876607680003
1 -12.499999999998018 -22.999999999991786 13.5 -0 -0 -1 
1 -12.499999999998018 -35 13.5 -0 -0 -1 
1 -12.499999999998018 -35 0 0 1 0 
1 12.499999999918 -35 13.5 -0 -0 -1 
1 12.499999999918 -35 0 -1 0 0 
1 12.499999999918 -35 0 0 1 0 
1 12.499999999917831 -22.99999999994586 13.5 -0 -0 -1 
2 4.999988019301 -23.000035143291999 0 0 0 1 1 0 -0 -0 1 0 7.500011980699
1 5.0000000000219309 -15.500023162597785 13.5 -0 -0 -1 
1 -5.0000000000205755 -15.500006885646151 0 0.99999999999867539 -1.6276946848046325e-06 0 
1 -5.0000000000205755 -15.500006885646151 0 0.99999999999867539 -1.6276946848046325e-06 0 
1 -5.0000000000205755 -15.500006885646151 0 0.99999999999867539 -1.6276946848046325e-06 0 
2 0 22.5 0 0 0 1 1 0 -0 -0 1 0 8
2 0 -22.5 -1.5000000000000018 0 0 -1 1 0 0 0 -1 0 7
2 0 -22.5 -1.5000000000000018 0 0 -1 1 0 0 0 -1 0 7
2 0 -22.5 -1.5000000000000018 0 0 -1 1 0 0 0 -1 0 7
1 8 -22.5 -13.5 0 0 1 
2 0 22.5 0 0 0 1 1 0 -0 -0 1 0 8
1 7 -22.5 -2.5 0 0 1 
2 0 22.5 0 0 0 1 1 0 -0 -0 1 0 7
Polygon3D 0
PolygonOnTriangulations 0
Surfaces 23
1 -17.5 40 0 -0 0 1 1 0 0 0 1 -0 
1 -14 36.5 13.5 0 -1 0 1 0 0 -0 0 1 
2 11 33.5 13.5 -0 -0 -1 0 1 -0 1 -0 0 3
1 -14 -10.000000000000002 13.5 1 0 0 -0 1 0 0 -0 1 
1 14 36.5 13.5 -1 0 0 0 -1 0 0 0 1 
1 14 -10 13.5 -6.3441315692866085e-17 1 0 -1 -6.3441315692866085e-17 0 0 0 1 
1 -17.5 40 -13.5 0 1 0 1 0 0 0 0 -1 
1 -17.5 -40 -13.5 -1 0 0 0 1 0 0 0 -1 
1 17.5 40 -13.5 1 0 -0 0 -1 0 0 -0 -1 
1 17.5 -40 -13.5 0 -1 0 -1 0 0 -0 -0 -1 
2 -5.0000123392319997 -22.999994546404 13.5 0 0 1 1 0 -0 -0 1 0 7.4999876607680003
1 -12.499999999998018 -35 13.5 1 0 0 -0 1 0 0 -0 1 
1 12.499999999918 -35 13.5 0 1 -0 -1 0 0 0 0 1 
1 12.499999999918 -35 13.5 1 0 0 -0 1 0 0 -0 1 
2 4.999988019301 -23.000035143291999 13.5 0 0 1 1 0 -0 -0 1 0 7.500011980699
1 -5.0000000000205755 -15.500006885646151 13.5 -1.6276946848046325e-06 -0.99999999999867539 0 0.99999999999867539 -1.6276946848046325e-06 0 0 0 1 
1 0 13.25 13.5 -0 -0 -1 -1 0 0 0 1 -0 
1 -17.5 40 0 -0 0 1 1 0 0 0 1 -0 
1 -3.9939163559387778e-06 -26.163472788246906 13.499999999999998 1.6385774144160173e-32 -1.6371198501047004e-32 -1 -1 0 -1.6385774144160173e-32 2.6825476110736978e-64 1 -1.6371198501047004e-32 
10 -931.50219382871126 931.50218584087861 -927.83871704654803 980.16566262304184
1 -3.9939163559387778e-06 -26.163472788246906 -1.5000000000000018 1.6385774144160173e-32 -1.6371198501047004e-32 -1 -1 0 -1.6385774144160173e-32 2.6825476110736978e-64 1 -1.6371198501047004e-32 
2 0 -22.5 -13.5 0 0 -1 1 0 0 0 -1 0 8
2 0 -22.5 -2.5 0 0 -1 1 0 0 0 -1 0 7
1 -6.8372006626971174e-16 -22.500000000000004 -13.5 -0 -0 -1 -1 0 0 0 1 -0 
Triangulations 0

TShapes 144
Ve
1e-07
11 36.5 13.5
0 0

0101101
*
Ve
1e-07
-14 36.5 13.5
0 0

0101101
*
Ed
 1e-07 1 1 0
1  1 0 0 25
2  1 1 19 0 25
2  2 2 20 0 25
0

0101000
-144 21 +143 21 *
Ve
1e-07
14 33.5 13.5
0 0

0101101
*
Ed
 1e-07 1 1 0
1  2 0 0 1.5707963267949
2  3 1 22 0 1.5707963267949
2  4 3 0 0 1.5707963267949
0

0101000
+144 23 -141 23 *
Ve
1e-07
-14 -10 13.5
0 0

0101101
*
Ed
 1e-07 1 1 0
1  3 0 0 46.5
2  5 1 19 0 46.5
2  6 4 20 0 46.5
0

0101000
+139 21 -143 21 *
Ve
1e-07
14 -10 13.5
0 0

0101101
*
Ed
 1e-07 1 1 0
1  4 0 3 46.5
2  7 1 19 3 46.5
2  8 5 20 3 46.5
0

0101000
+141 21 -137 21 *
Ed
 1e-07 1 1 0
1  5 0 0 28
2  9 1 19 0 28
2  10 6 20 0 28
0

0101000
+137 21 -139 21 *
Wi

0101100
+142 18 +140 0 +138 18 +136 18 +135 18 *
Ve
1e-07
-17.5 40 13.5
0 0

0101101
*
Ve
1e-07
17.5 40 13.5
0 0

0101101
*
Ed
 1e-07 1 1 0
1  6 0 0 35
2  11 1 26 0 35
2  12 7 27 0 35
0

0101000
+133 28 -132 28 *
Ve
1e-07
-17.5 -40 13.5
0 0

0101101
*
Ed
 1e-07 1 1 0
1  7 0 0 80
2  13 1 26 0 80
2  14 8 27 0 80
0

0101000
+130 28 -133 28 *
Ve
1e-07
17.5 -40 13.5
0 0

0101101
*
Ed
 1e-07 1 1 0
1  8 0 0 80
2  15 1 26 0 80
2  16 9 27 0 80
0

0101000
+132 28 -128 28 *
Ed
 1e-07 1 1 0
1  9 0 0 35
2  17 1 26 0 35
2  18 10 27 0 35
0

0101000
+128 28 -130 28 *
Wi

0101100
-131 25 -129 25 -127 25 -126 25 *
Ve
1e-07
-5.00000000002058 -15.5000068856462 13.5
0 0

0101101
*
Ve
1.00000211386464e-07
-12.499999999998 -22.9999999999918 13.5
0 0

0101101
*
Ed
 1e-07 1 1 0
1  10 0 1.570794681564 3.141593380736
2  19 1 31 1.570794681564 3.141593380736
2  20 11 32 1.570794681564 3.141593380736
0

0101000
+124 33 -123 33 *
Ve
1e-07
-12.499999999998 -35 13.5
0 0

0101101
*
Ed
 1e-07 1 1 0
1  11 0 0 12.000000000008
2  21 1 31 0 12.000000000008
2  22 12 32 0 12.000000000008
0

0101000
+121 33 -123 33 *
Ve
1e-07
12.499999999918 -35 13.5
0 0

0101101
*
Ed
 1e-07 1 1 0
1  12 0 0 24.999999999916
2  23 1 31 0 24.999999999916
2  24 13 32 0 24.999999999916
0

0101000
+119 33 -121 33 *
Ve
1.000001687539e-07
12.4999999999178 -22.9999999999459 13.5
0 0

0101101
*
Ed
 1e-07 1 1 0
1  13 0 0 12.0000000000541
2  25 1 31 0 12.0000000000541
2  26 14 32 0 12.0000000000541
0

0101000
+119 33 -117 33 *
Ve
1.0000478511226e-07
5.00000000002193 -15.5000231625978 13.5
0 0

0101101
*
Ed
 1e-07 1 1 0
1  14 0 4.685772e-06 1.570794729368
2  27 1 31 4.685772e-06 1.570794729368
2  28 15 32 4.685772e-06 1.570794729368
0

0101000
+117 33 -115 33 *
Ed
 1e-07 1 1 0
1  15 0 0 10.0000000000558
2  29 1 31 0 10.0000000000558
2  30 16 32 0 10.0000000000558
0

0101000
+124 33 -115 33 *
Wi

0101100
-122 30 +120 30 +118 30 -116 30 -114 30 +113 30 *
Fa
0  1e-07 1 15

0111000
+134 16 +125 0 +112 0 *
Ve
1e-07
11 36.5 -10
0 0

0101101
*
Ed
 1e-07 1 1 0
1  16 0 -0 23.5
2  31 2 34 -0 23.5
2  32 3 0 -0 23.5
4 G1 2 34 3 0
0

0101000
+144 23 -110 23 *
Ve
1e-07
-14 36.5 -10
0 0

0101101
*
Ed
 1e-07 1 1 0
1  17 0 0 23.5
2  33 2 0 0 23.5
2  34 4 0 0 23.5
0

0101000
+143 36 -108 36 *
Ed
 1e-07 1 1 0
1  18 0 0 25
2  35 2 39 0 25
2  36 17 40 0 25
0

0101000
-110 41 +108 41 *
Wi

0101100
-142 18 -109 0 +107 34 +106 38 *
Fa
0  1e-07 2 0

0111000
+105 35 *
Ve
1e-07
14 33.5 -10
0 0

0101101
*
Ed
 1e-07 1 1 0
1  19 0 -0 23.5
2  37 3 0 -0 23.5
2  38 5 34 -0 23.5
4 G1 3 0 5 34
0

0101000
+141 23 -103 23 *
Ed
 1e-07 1 1 0
1  20 0 0 1.5707963267949
2  39 3 0 0 1.5707963267949
2  40 17 42 0 1.5707963267949
0

0101000
+110 23 -103 23 *
Wi

0101100
+140 0 -109 0 +102 0 -101 0 *
Fa
0  1e-07 3 0

0111000
+100 0 *
Ve
1e-07
-14 -10 -10
0 0

0101101
*
Ed
 1e-07 1 1 0
1  21 0 0 23.5
2  41 4 0 0 23.5
2  42 6 0 0 23.5
0

0101000
+139 36 -98 36 *
Ed
 1e-07 1 1 0
1  22 0 0 46.5
2  43 4 39 0 46.5
2  44 17 40 0 46.5
0

0101000
+98 41 -108 41 *
Wi

0101100
+97 0 -138 43 +96 44 -107 0 *
Fa
0  1e-07 4 0

0111000
+95 0 *
Ve
1e-07
14 -10 -10
0 0

0101101
*
Ed
 1e-07 1 1 0
1  23 0 0 23.5
2  45 5 0 0 23.5
2  46 6 0 0 23.5
0

0101000
+137 36 -93 36 *
Ed
 1e-07 1 1 0
1  24 0 3 46.5
2  47 5 39 3 46.5
2  48 17 40 3 46.5
0

0101000
+103 41 -93 41 *
Wi

0101100
-136 18 +102 0 -92 34 +91 38 *
Fa
0  1e-07 5 0

0111000
+90 35 *
Ed
 1e-07 1 1 0
1  25 0 0 28
2  49 6 39 0 28
2  50 17 40 0 28
0

0101000
+93 41 -98 41 *
Wi

0101100
+92 0 -135 43 +88 44 -97 0 *
Fa
0  1e-07 6 0

0111000
+87 0 *
Ve
1e-07
-17.5 40 -13.5
0 0

0101101
*
Ed
 1e-07 1 1 0
1  26 0 0 27
2  51 7 0 0 27
2  52 8 0 0 27
0

0101000
+85 46 -133 46 *
Ve
1e-07
17.5 40 -13.5
0 0

0101101
*
Ed
 1e-07 1 1 0
1  27 0 0 27
2  53 7 0 0 27
2  54 9 0 0 27
0

0101000
+83 46 -132 46 *
Ed
 1e-07 1 1 0
1  28 0 0 35
2  55 7 48 0 35
2  56 18 26 0 35
0

0101000
+85 49 -83 49 *
Wi

0101000
+84 0 -82 0 -81 47 +131 50 *
Fa
0  1e-07 7 0

0111000
+80 0 *
Ve
1e-07
-17.5 -40 -13.5
0 0

0101101
*
Ed
 1e-07 1 1 0
1  29 0 0 27
2  57 8 0 0 27
2  58 10 0 0 27
0

0101000
+78 46 -130 46 *
Ed
 1e-07 1 1 0
1  30 0 0 80
2  59 8 48 0 80
2  60 18 26 0 80
0

0101000
+78 49 -85 49 *
Wi

0101000
+77 0 -84 0 -76 47 +129 50 *
Fa
0  1e-07 8 0

0111000
+75 0 *
Ve
1e-07
17.5 -40 -13.5
0 0

0101101
*
Ed
 1e-07 1 1 0
1  31 0 0 27
2  61 9 0 0 27
2  62 10 0 0 27
0

0101000
+73 46 -128 46 *
Ed
 1e-07 1 1 0
1  32 0 0 80
2  63 9 48 0 80
2  64 18 26 0 80
0

0101000
+83 49 -73 49 *
Wi

0101000
+82 0 -72 0 -71 47 +127 50 *
Fa
0  1e-07 9 0

0111000
+70 0 *
Ed
 1e-07 1 1 0
1  33 0 0 35
2  65 10 48 0 35
2  66 18 26 0 35
0

0101000
+73 49 -78 49 *
Wi

0101000
+72 0 -77 0 -68 47 +126 50 *
Fa
0  1e-07 10 0

0111000
+67 0 *
Ve
1e-07
-5.00000000002058 -15.5000068856462 -1.5
0 0

0101101
*
Ed
 1e-07 1 1 0
1  34 0 0 15
2  67 11 0 0 15
2  68 16 0 0 15
4 G1 11 0 16 0
0

0101000
+124 51 -65 51 *
Ve
1.00000211386464e-07
-12.499999999998 -22.9999999999918 -1.5
0 0

0101101
*
Ed
 1e-07 1 1 0
1  35 0 1.570794681564 3.141593380736
2  69 11 54 1.570794681564 3.141593380736
2  70 19 55 1.570794681564 3.141593380736
0

0101000
+65 56 -63 56 *
Ed
 1.00000211386464e-07 1 1 0
1  36 0 0 15
2  71 11 0 0 15
2  72 12 0 0 15
4 G1 11 0 12 0
0

0101000
+123 51 -63 51 *
Wi

0101100
+64 0 -122 30 +62 53 -61 0 *
Fa
0  1e-07 11 0

0111000
+60 0 *
Ve
1e-07
-12.499999999998 -35 -1.5
0 0

0101101
*
Ed
 1e-07 1 1 0
1  37 0 0 15
2  73 12 0 0 15
2  74 13 0 0 15
0

0101000
+121 51 -58 51 *
Ed
 1e-07 1 1 0
1  38 0 0 12.000000000008
2  75 12 54 0 12.000000000008
2  76 19 55 0 12.000000000008
0

0101000
+58 56 -63 56 *
Wi

0101100
+57 0 -120 30 +56 53 -61 0 *
Fa
0  1e-07 12 0

0111000
+55 0 *
Ve
1e-07
12.499999999918 -35 -1.5
0 0

0101101
*
Ed
 1e-07 1 1 0
1  39 0 0 15
2  77 13 0 0 15
2  78 14 0 0 15
0

0101000
+119 51 -53 51 *
Ed
 1e-07 1 1 0
1  40 0 0 24.999999999916
2  79 13 54 0 24.999999999916
2  80 19 55 0 24.999999999916
0

0101000
+53 56 -58 56 *
Wi

0101100
+52 0 -118 30 +51 53 -57 0 *
Fa
0  1e-07 13 0

0111000
+50 0 *
Ve
1.000001687539e-07
12.4999999999178 -22.9999999999459 -1.5
0 0

0101101
*
Ed
 1e-07 1 1 0
1  41 0 0 12.0000000000541
2  81 14 54 0 12.0000000000541
2  82 19 55 0 12.0000000000541
0

0101000
+53 56 -48 56 *
Ed
 1.000001687539e-07 1 1 0
1  42 0 0 15
2  83 14 0 0 15
2  84 15 0 0 15
4 G1 14 0 15 0
0

0101000
+117 51 -48 51 *
Wi

0101100
+52 0 -116 30 +47 53 -46 0 *
Fa
0  1e-07 14 0

0111000
+45 0 *
Ve
1.0000478511226e-07
5.00000000002193 -15.5000231625978 -1.5
0 0

0101101
*
Ed
 1e-07 1 1 0
1  43 0 4.685772e-06 1.570794729368
2  85 15 54 4.685772e-06 1.570794729368
2  86 19 55 4.685772e-06 1.570794729368
0

0101000
+48 56 -43 56 *
Ed
 1.0000478511226e-07 1 1 0
1  44 0 0 15
2  87 15 0 0 15
2  88 16 0 0 15
4 G1 15 0 16 0
0

0101000
+115 51 -43 51 *
Wi

0101100
+46 0 -114 30 +42 53 -41 0 *
Fa
0  1e-07 15 0

0111000
+40 0 *
Ve
1.00001002006615e-07
-0.0144916257835037 -15.5000150005316 -1.5
0 0

0101101
*
Ed
 1e-07 1 1 0
1  45 0 0 4.98550837424368
2  89 16 54 0 4.98550837424368
2  90 19 55 0 4.98550837424368
0

0101000
+65 56 -38 56 *
Ve
1.00001016248603e-07
0.0145144134594525 -15.5000150477446 -1.5
0 0

0101101
*
Ed
 1e-07 1 1 0
1  46 0 4.98550837424368 5.01451441348667
2  91 16 54 4.98550837424368 5.01451441348667
2  92 20 60 4.98550837424368 5.01451441348667
0

0101000
+38 56 -36 56 *
Ed
 1e-07 1 1 0
1  47 0 5.01451441348667 10.0000000000558
2  93 16 54 5.01451441348667 10.0000000000558
2  94 19 55 5.01451441348667 10.0000000000558
0

0101000
+36 56 -43 56 *
Wi

0101100
+64 57 -113 58 +37 59 -41 57 +35 59 +34 59 *
Fa
0  1e-07 16 57

0111000
+33 0 *
Wi

0101100
+106 38 +101 0 +96 38 +91 38 +88 38 *
Fa
0  1e-07 17 0

0111000
+31 61 *
Wi

0101100
-81 64 -76 64 -71 64 -68 64 *
Ve
1e-07
8 -22.5 -13.5
0 0

0101101
*
Ed
 1e-07 1 1 0
1  48 0 0 6.28318530717959
2  95 18 67 0 6.28318530717959
2  96 21 68 0 6.28318530717959
0

0101000
+28 69 -28 69 *
Wi

0101100
+27 66 *
Fa
0  1e-07 18 63

0111000
+29 0 +26 0 *
Ve
2.00001e-07
7 -22.5 -1.5
0 0

0101101
*
Ed
 1e-07 1 1 0
1  49 0 4.71446246950753 6.28318530717959
2  97 19 70 4.71446246950753 6.28318530717959
2  98 22 0 4.71446246950753 6.28318530717959
0

0101000
+36 71 -24 71 *
Ed
 1e-07 1 1 0
1  50 0 0 4.71031874665111
2  99 19 70 0 4.71031874665111
2  100 22 0 0 4.71031874665111
0

0101000
+24 71 -38 71 *
Wi

0101100
-47 59 -42 59 +34 59 -23 0 -22 0 +37 59 -62 59 +56 59 +51 59 *
Fa
0  1e-07 19 70

0111000
+21 0 *
Ed
 1e-07 1 1 0
1  51 0 4.71031874665111 4.71446246950753
2  101 20 0 4.71031874665111 4.71446246950753
2  102 22 0 4.71031874665111 4.71446246950753
0

0101000
+38 71 -36 71 *
Wi

0101100
-35 59 +19 0 *
Fa
0  1e-07 20 0

0111000
+18 0 *
Ve
1e-07
8 -22.5 -2.5
0 0

0101101
*
Ed
 1e-07 1 1 0
1  52 0 0 11
3  103 104CN 21 0 0 11
0

0101000
+28 72 -16 72 *
Ed
 1e-07 1 1 0
1  53 0 0 6.28318530717959
2  105 21 75 0 6.28318530717959
2  106 23 76 0 6.28318530717959
0

0101000
+16 77 -16 77 *
Wi

0101100
-27 66 -15 0 +14 74 +15 0 *
Fa
0  1e-07 21 0

0111000
+13 0 *
Ve
1e-07
7 -22.5 -2.5
0 0

0101101
*
Ed
 1e-07 1 1 0
1  54 0 0 0.999999999999998
3  107 108CN 22 0 0 0.999999999999998
0

0101000
+11 71 -24 71 *
Ed
 1e-07 1 1 0
1  55 0 0 6.28318530717959
2  109 22 80 0 6.28318530717959
2  110 23 81 0 6.28318530717959
0

0101000
+11 82 -11 82 *
Wi

0101100
-10 0 +23 0 +19 0 +22 0 +10 0 -9 79 *
Fa
0  1e-07 22 0

0111000
+8 0 *
Wi

0101100
+14 84 *
Wi

0101100
-9 79 *
Fa
0  1e-07 23 83

0111000
+6 0 +5 0 *
Sh

0101100
+111 7 +104 34 -99 0 +94 34 +89 34 +86 34 +79 45 +74 45 +69 45 +66 45 
-59 7 +54 7 +49 7 -44 7 -39 7 +32 6 -30 42 -25 62 -20 6 +17 6 
-12 62 -7 6 +4 6 *
So

0100000
+3 0 *
Co

1100000
+2 0 *

+1 1 