DBRep_DrawableShape

CASCADE Topology V1, (c) Matra-Datavision
Locations 145
1
              1               0               0               0 
              0               1               0               0 
              0               0               1               0 
1
              1               0               0               0 
              0               1               0               0 
              0               0               1               0 
1
              1               0               0               0 
              0               1               0               0 
              0               0               1               0 
2  2 1 3 -1 0
1
              1               0               0               0 
              0               1               0               0 
              0               0               1               0 
1
              1               0               0               0 
              0               1               0               0 
              0               0               1               0 
1
              1               0               0               0 
              0               1               0               0 
              0               0               1               0 
1
              1               0               0               0 
              0               1               0               0 
              0               0               1               0 
1
              1               0               0               0 
              0               1               0               0 
              0               0               1               0 
1
              1               0               0               0 
              0               1               0               0 
              0               0               1               0 
1
              1               0               0               0 
              0               1               0               0 
              0               0               1               0 
1
              1               0               0               0 
              0               1               0               0 
              0               0               1               0 
1
              1               0               0               0 
              0               1               0               0 
              0               0               1               0 
1
              1               0               0               0 
              0               1               0               0 
              0               0               1               0 
1
              1               0               0               0 
              0               1               0               0 
              0               0               1               0 
1
              1               0               0               0 
              0               1               0               0 
              0               0               1               0 
2  5 1 6 -1 7 1 8 -1 9 1 10 -1 11 1 12 -1 13 1 14 -1 15 1 16 -1 0
1
              1               0               0               0 
              0               1               0               0 
              0               0               1               0 
1
              1               0               0               0 
              0               1               0               0 
              0               0               1               0 
2  18 1 19 -1 5 1 6 -1 7 1 8 -1 9 1 10 -1 11 1 12 -1 13 1 14 -1 15 1 16 -1 0
2  19 1 18 -1 0
2  18 -1 0
2  1 -1 3 1 2 -1 16 1 15 -1 14 1 13 -1 12 1 11 -1 10 1 9 -1 8 1 7 -1 6 1 5 -1 19 1 18 -1 0
2  1 -1 3 1 2 -1 16 1 15 -1 14 1 13 -1 12 1 11 -1 10 1 9 -1 8 1 7 -1 6 1 5 -1 0
1
              1               0               0               0 
              0               1               0               0 
              0               0               1              29 
2  18 1 19 -1 25 1 5 1 6 -1 7 1 8 -1 9 1 10 -1 11 1 12 -1 13 1 14 -1 15 1 16 -1 0
2  25 -1 19 1 18 -1 0
2  1 -1 3 1 2 -1 16 1 15 -1 14 1 13 -1 12 1 11 -1 10 1 9 -1 8 1 7 -1 6 1 5 -1 25 -1 19 1 18 -1 0
2  1 -1 3 1 2 -1 0
1
              1               0               0              -0 
              0               1               0               0 
              0               0               1              29 
1
              1               0               0              -0 
              0               1               0              -0 
              0               0               1              -4 
2  30 1 16 -1 31 1 0
2  5 1 6 -1 7 1 8 -1 9 1 10 -1 11 1 12 -1 13 1 14 -1 15 1 16 -1 31 -1 16 1 30 -1 0
2  30 -1 0
2  1 -1 3 1 2 -1 31 -1 16 1 30 -1 0
2  19 -1 5 1 6 -1 7 1 8 -1 9 1 10 -1 11 1 12 -1 13 1 14 -1 15 1 16 -1 2 1 3 -1 0
2  18 1 19 -1 5 1 6 -1 7 1 8 -1 9 1 10 -1 11 1 12 -1 13 1 14 -1 15 1 16 -1 2 1 3 -1 0
1
              1               0               0               0 
              0              -1               0              -0 
              0               0              -1               0 
2  38 1 3 -1 0
2  19 -1 5 1 6 -1 7 1 8 -1 9 1 10 -1 11 1 12 -1 13 1 14 -1 15 1 16 -1 2 1 38 -1 0
2  3 1 38 -1 0
2  1 -1 3 1 38 -1 0
2  5 1 6 -1 7 1 8 -1 9 1 10 -1 11 1 12 -1 13 1 14 -1 15 1 16 -1 2 1 3 -1 0
2  18 1 19 -1 0
2  18 1 19 -1 25 1 0
2  19 -1 25 1 5 1 6 -1 7 1 8 -1 9 1 10 -1 11 1 12 -1 13 1 14 -1 15 1 16 -1 0
2  30 1 16 -1 0
2  19 -1 25 1 5 1 6 -1 7 1 8 -1 9 1 10 -1 11 1 12 -1 13 1 14 -1 15 1 30 -1 0
2  16 1 30 -1 0
2  1 -1 3 1 2 -1 16 1 30 -1 0
1
              1               0               0              -0 
              0               1               0               0 
              0               0               1              29 
2  51 1 6 -1 7 1 8 -1 9 1 10 -1 11 1 12 -1 13 1 14 -1 15 1 16 -1 0
2  19 -1 25 1 5 1 51 -1 0
2  6 1 51 -1 0
2  1 -1 3 1 2 -1 16 1 15 -1 14 1 13 -1 12 1 11 -1 10 1 9 -1 8 1 7 -1 6 1 51 -1 0
1
              1               0               0              -0 
              0               1               0               0 
              0               0               1              29 
2  56 1 14 -1 15 1 16 -1 0
2  19 -1 25 1 5 1 6 -1 7 1 8 -1 9 1 10 -1 11 1 12 -1 13 1 56 -1 0
2  14 1 56 -1 0
2  1 -1 3 1 2 -1 16 1 15 -1 14 1 56 -1 0
1
              1               0               0              -0 
              0               1               0               0 
              0               0               1              29 
2  61 1 12 -1 13 1 14 -1 15 1 16 -1 0
2  19 -1 25 1 5 1 6 -1 7 1 8 -1 9 1 10 -1 11 1 61 -1 0
2  12 1 61 -1 0
2  1 -1 3 1 2 -1 16 1 15 -1 14 1 13 -1 12 1 61 -1 0
1
              1               0               0              -0 
              0               1               0               0 
              0               0               1              29 
2  66 1 8 -1 9 1 10 -1 11 1 12 -1 13 1 14 -1 15 1 16 -1 0
2  19 -1 25 1 5 1 6 -1 7 1 66 -1 0
2  8 1 66 -1 0
2  1 -1 3 1 2 -1 16 1 15 -1 14 1 13 -1 12 1 11 -1 10 1 9 -1 8 1 66 -1 0
1
              1               0               0              -0 
              0               1               0               0 
              0               0               1              29 
2  71 1 10 -1 11 1 12 -1 13 1 14 -1 15 1 16 -1 0
2  19 -1 25 1 5 1 6 -1 7 1 8 -1 9 1 71 -1 0
2  10 1 71 -1 0
2  1 -1 3 1 2 -1 16 1 15 -1 14 1 13 -1 12 1 11 -1 10 1 71 -1 0
2  31 -1 16 1 30 -1 0
2  7 1 8 -1 9 1 10 -1 11 1 12 -1 13 1 14 -1 15 1 16 -1 0
2  16 -1 31 1 0
2  7 1 8 -1 9 1 10 -1 11 1 12 -1 13 1 14 -1 15 1 16 -1 31 -1 16 1 30 -1 0
2  1 -1 0
1
              1               0               0               0 
              0               1               0               0 
              0               0               1              13 
2  38 1 3 -1 81 1 0
2  81 -1 3 1 38 -1 0
2  38 -1 0
2  1 -1 81 -1 3 1 38 -1 0
2  1 -1 3 1 2 -1 16 1 15 -1 14 1 13 -1 12 1 11 -1 10 1 9 -1 8 1 7 -1 0
1
              1               0               0              -0 
              0               1               0              -0 
              0               0               1           -26.5 
2  51 1 6 -1 87 1 7 1 8 -1 9 1 10 -1 11 1 12 -1 13 1 14 -1 15 1 16 -1 0
2  87 -1 6 1 51 -1 0
2  51 -1 0
2  1 -1 3 1 2 -1 16 1 15 -1 14 1 13 -1 12 1 11 -1 10 1 9 -1 8 1 7 -1 87 -1 6 1 51 -1 0
2  7 1 8 -1 9 1 10 -1 11 1 12 -1 13 1 14 -1 15 1 16 -1 2 1 3 -1 0
2  51 1 6 -1 0
2  51 1 6 -1 87 1 0
2  15 1 16 -1 2 1 3 -1 0
2  7 1 8 -1 9 1 10 -1 11 1 12 -1 13 1 14 -1 0
2  51 1 6 -1 7 1 8 -1 9 1 10 -1 11 1 12 -1 13 1 14 -1 0
2  1 -1 3 1 2 -1 16 1 15 -1 0
1
              1               0               0              -0 
              0               1               0              -0 
              0               0               1             -10 
2  14 -1 99 1 0
2  51 1 6 -1 87 1 7 1 8 -1 9 1 10 -1 11 1 12 -1 13 1 14 -1 0
2  56 1 14 -1 0
2  13 1 14 -1 0
2  56 1 14 -1 99 1 0
2  99 -1 14 1 56 -1 0
2  56 -1 0
2  1 -1 3 1 2 -1 16 1 15 -1 99 -1 14 1 56 -1 0
2  61 1 12 -1 13 1 14 -1 0
2  1 -1 3 1 2 -1 16 1 15 -1 14 1 13 -1 0
1
              1               0               0              -0 
              0               1               0              -0 
              0               0               1             -10 
2  61 1 12 -1 110 1 13 1 14 -1 0
2  110 -1 12 1 61 -1 0
2  61 -1 0
2  1 -1 3 1 2 -1 16 1 15 -1 14 1 13 -1 110 -1 12 1 61 -1 0
2  13 1 14 -1 15 1 16 -1 2 1 3 -1 0
2  61 1 12 -1 0
2  61 1 12 -1 110 1 0
2  9 1 10 -1 11 1 12 -1 13 1 14 -1 0
2  66 1 8 -1 9 1 10 -1 11 1 12 -1 13 1 14 -1 0
2  9 1 10 -1 11 1 12 -1 0
2  12 -1 110 1 0
2  1 -1 3 1 2 -1 16 1 15 -1 14 1 13 -1 12 1 11 -1 10 1 9 -1 0
1
              1               0               0              -0 
              0               1               0              -0 
              0               0               1             -15 
2  66 1 8 -1 123 1 9 1 10 -1 11 1 12 -1 13 1 14 -1 0
2  123 -1 8 1 66 -1 0
2  66 -1 0
2  1 -1 3 1 2 -1 16 1 15 -1 14 1 13 -1 12 1 11 -1 10 1 9 -1 123 -1 8 1 66 -1 0
2  9 1 10 -1 11 1 12 -1 13 1 14 -1 15 1 16 -1 2 1 3 -1 0
2  66 1 8 -1 0
2  66 1 8 -1 123 1 0
2  11 1 12 -1 13 1 14 -1 15 1 16 -1 2 1 3 -1 0
2  71 1 10 -1 0
2  1 -1 3 1 2 -1 16 1 15 -1 14 1 13 -1 12 1 11 -1 0
1
              1               0               0              -0 
              0               1               0              -0 
              0               0               1            -1.1 
2  71 1 10 -1 134 1 0
2  134 -1 10 1 71 -1 0
2  71 -1 0
2  1 -1 3 1 2 -1 16 1 15 -1 14 1 13 -1 12 1 11 -1 134 -1 10 1 71 -1 0
2  3 -1 81 1 0
2  6 -1 87 1 7 1 8 -1 9 1 10 -1 11 1 12 -1 13 1 14 -1 15 1 16 -1 2 1 3 -1 0
2  14 -1 99 1 14 1 13 -1 110 -1 12 1 61 -1 0
2  12 -1 110 1 13 1 14 -1 0
2  12 -1 110 1 13 1 14 -1 99 -1 14 1 56 -1 0
2  8 -1 123 1 9 1 10 -1 11 1 12 -1 13 1 14 -1 15 1 16 -1 2 1 3 -1 0
2  10 -1 134 1 11 1 12 -1 13 1 14 -1 15 1 16 -1 2 1 3 -1 0
Curve2ds 272
1 0 0 1 0 
1 17.5 40 -1 0 
1 35 0 0 -1 
1 0 0 0 -1 
1 0 -29 1 0 
1 17.5 40 -1 0 
1 22 -29 0 1 
1 0 0 0 -1 
1 13 -25 1 0 
1 1.7500000000049027 4.4999999999985558 0 -1 
1 13 -29 0 1 
1 0 0 0 -1 
1 0 -29 1 0 
1 17.5 40 -1 0 
1 0 0 0 -1 
1 80 0 0 -1 
1 17.5 -40 0 1 
1 0 0 1 0 
1 -17.5 40 0 -1 
1 0 0 1 0 
1 -17.5 -40 1 0 
1 0 -0 1 0 
2 0 -22.5 -1 0 -0 -1 8
1 0 0 1 0 
1 80 0 0 -1 
1 0 -0 0 -1 
1 0 -29 1 0 
1 -17.5 40 0 -1 
1 17.5 -40 0 1 
1 0 -29 1 0 
1 -17.5 -40 1 0 
1 0 -29 1 0 
1 -4.5 40 0 -1 
1 0 0 1 0 
1 10.99998998103756 36.499999999980389 -1 8.9140897131658043e-13 
1 0 0 1 0 
2 -10.999999170879981 33.5 -1 0 0 1 3
1 0 0 1 0 
1 -13.999999170861832 33.499989564849379 -1.3099971074452453e-08 -0.99999999999999989 
1 0 0 1 0 
2 -10.999999701427788 -6.9999999999999982 -1 0 0 1 3
1 0 0 1 0 
1 -10.999989981037562 -9.9999999999842508 1 9.0675024890264467e-14 
1 0 0 1 0 
1 -9.5 -8.2494589551330009 0 -1 
1 0 0 1 0 
1 12 -10.999999999982256 -1 0 
1 0 0 1 0 
1 -12 -10.999999999982256 0 -1 
1 0 0 1 0 
1 -12 -15.499999999982256 1 0 
1 0 0 1 0 
1 -9.5 -8.2494589551330009 0 -1 
1 0 0 1 0 
2 -5.0000003348445823 -22.999970420257615 -1 0 0 1 7.4999891341456095
1 0 0 1 0 
1 -12.50000071256504 -31.99997960815859 1.2492867197001738e-06 0.99999999999921962 
1 0 0 1 0 
2 -9.5000007126343444 -32 -1 0 0 1 3
1 0 0 1 0 
1 9.5000001107669032 -35 -1 2.9917588525280153e-15 
1 0 0 1 0 
2 9.499999999999984 -32 -1 0 0 1 3
1 0 0 1 0 
1 12.499999999999279 -32.000002057679232 1.2492932180120622e-06 0.99999999999921962 
1 0 0 1 0 
2 5.0000000859590044 -22.999992443797407 -1 0 0 1 7.5000111576853978
1 0 0 1 0 
1 9.5 -18.916258333333001 0 1 
1 0 0 1 0 
1 -12 -15.499999999982256 1 0 
1 0 0 1 0 
1 12 -10.999999999982256 0 -1 
1 0 0 1 0 
1 12 -10.999999999982256 -1 0 
1 0 0 1 0 
1 9.5 -18.916258333333001 0 1 
1 0 0 1 0 
1 -10.999989981037562 -9.9999999999842508 1 9.0675024890264467e-14 
1 0 0 1 0 
2 11.000000298572212 -6.9999999999999973 -1 0 0 1 3
1 0 0 1 0 
1 14.000000298555923 -6.999990113860421 1.3099877782775314e-08 0.99999999999999989 
1 0 0 1 0 
2 11.000000829120019 33.5 -1 0 0 1 3
1 0 0 1 0 
1 10.99998998103756 36.499999999980389 -1 8.9140897131658043e-13 
1 0 0 1 0 
1 4.5 40 0 -1 
1 0 0 1 0 
2 -14.5 -37 -1 0 0 1 1.5500000000000007
1 0 0 1 0 
2 14.5 -37 -1 0 0 1 1.5500000000000007
1 0 0 1 0 
2 14.5 -18 -1 0 0 1 1.5500000000000007
1 0 0 1 0 
2 -14.5 -18 -1 0 0 1 1.5500000000000007
1 0 0 1 0 
2 14.5 37 -1 0 0 1 1.5500000000000007
1 0 0 1 0 
2 -14.5 37 -1 0 0 1 1.5500000000000007
1 0 0 1 0 
1 0 -4 1 0 
1 1.7500000000049027 -4.5000000000014442 -1 -1.1704348733990472e-61 
1 3.5000000000057909 0 0 -1 
1 15.49998998103756 0 0 -1 
1 1.7500000000049027 4.4999999999985558 -1 -1.1704348733990472e-61 
1 0 -4 1 0 
1 -1.7500000000089102 4.4999999999985558 8.9133638741461456e-13 -1 
1 6.4999899810375599 -4 1 0 
1 3.500000000013813 0 0 -1 
1 6.4999899810375599 0 0 -1 
1 0 0 0 -1 
1 35 0 0 -1 
1 0 0 0 -1 
1 6.2831853071795898 0 0 -1 
1 0 -13 1 0 
2 2.3930202319439899e-15 -3.5527136788005009e-15 -1 0 -0 -1 8
1 21.99997996207512 0 0 -1 
1 7.8539846972552905 0 0 -1 
1 0 -26.5 1 0 
1 10.999989425108959 23.250000006243397 -1 8.9140897131658043e-13 
1 0 0 0 -1 
1 1.5707927107674102 0 0 -1 
1 6.283181828796045 0 0 -1 
1 0 0 0 -1 
1 0 -26.5 1 0 
2 -10.999999726808582 20.250000006263008 -1 -2.1592157265412046e-65 -2.1592157265412046e-65 1 3
1 0 -26.5 1 0 
1 -13.999999726790433 20.249989571112387 -1.3099971074452453e-08 -0.99999999999999989 
1 40.499979348052364 0 0 -1 
1 6.2831887127785899 0 0 -1 
1 4.7123857402546143 0 0 -1 
1 0 0 0 -1 
1 0 -26.5 1 0 
2 -11.000000257356389 -20.249999993736992 -1 -2.1592157265412046e-65 -2.1592157265412046e-65 1 3
8 -11 1
1 1.4999899810375616 0 0 1 
8 -11 1
1 1.7505410448511132 0 0 1 
8 -5.900005009481057 16.899994990518945
1 5.4999949905186183 -9.9999999999999964 1 -2.3352359241971102e-44 
8 -5.900005009481057 16.899994990518945
1 -3.5828586442492512 -5.4999949905189434 -9.0675024890264467e-14 1 
8 -1 11
1 20.499989981037562 0 0 -1 
8 -1 11
1 8.9162583333506085 0 0 -1 
1 21.999979962075123 0 0 -1 
1 4.7123924195629066 0 0 -1 
1 0 -26.5 1 0 
1 -10.999990536966163 -23.249999993721246 1 9.0675024890264467e-14 
8 -1 11
1 2.7505410448492551 0 0 -1 
8 -1 11
1 21.5 0 -0 -1 
1 0 -10 1 0 
1 -5.333399689100002 -9.5 1 0 
1 24 0 0 -1 
1 0 0 0 -1 
1 0 -10 1 0 
1 12 2.2500000000000018 -1 0 
1 0 -10 1 0 
1 -12 2.2500000000000018 0 -1 
1 4.5 0 0 -1 
1 0 0 0 -1 
8 -11 1
1 2.5 0 0 1 
8 -11 1
1 7.2505410448492551 0 0 1 
1 0 -10 1 0 
1 -12 -2.2499999999999982 1 0 
8 -11 4.0000000112172529e-07
1 8.7505247963141457 0 0 1 
8 -11 4.0000000112172529e-07
1 7.210479494401298 0 0 1 
1 0 -10 1 0 
1 -5.333399689100002 -9.5 1 0 
1 6.2831853071795862 -9.9999999999999964 1 0 
2 9.4171117760246119 -5.0000003348445823 0 -1 -1 -0 7.4999891341456095
1 6.2831853071795862 -10 1 0 
2 -5.0000003348445823 -9.749970420275357 -1 0 0 1 7.4999891341456095
1 7.8539816786204346 0 0 -1 
1 10.000000000000275 0 0 -1 
1 0 -15 1 0 
2 -2.8460695087116719 -5.0000042029637513 0 -1 -1 -0 7.4999891341456095
1 6.2831840821261249 0 0 -1 
1 9.0000000000203482 0 0 -1 
1 0 0 0 -1 
1 6.2831921044600572 0 0 -1 
1 0 -15 1 0 
1 6.1539396791893033 -12.500004580684209 -0.99999999999921962 1.2492867197001738e-06 
1 4.7123887797622093 0 0 -1 
1 19.000000221533806 0 0 -1 
1 0 -15 1 0 
2 6.1539600710307134 -9.5000045807535134 0 -1 -1 -0 3
1 0 0 0 -1 
1 4.7123889434623836 0 0 -1 
1 0 -15 1 0 
1 9.1539600710307134 9.4999962426477342 -2.9917588525280153e-15 -1 
1 3.1415933394828714 0 0 -1 
1 0 0 0 -1 
1 0 -15 1 0 
2 6.1539600710307134 9.499996131880815 0 -1 -1 -0 3
1 0 -15 1 0 
1 6.1539621287099457 12.49999613188011 -0.99999999999921962 1.2492932180120622e-06 
1 8.9999999999928022 0 0 -1 
1 3.1415939354406928 0 0 -1 
1 0 -10 1 0 
2 5.0000000859590044 -9.7499924438151488 -1 0 0 1 7.5000111576853978
1 0 -9.9999999999999964 1 0 
2 9.4171337995644038 5.0000000859590044 0 -1 -1 -0 7.5000111576853978
8 -11 4.0000000112172529e-07
1 2.2142963054953007 0 0 1 
8 -11 4.0000000112172529e-07
1 1.9162799011056073 0 0 1 
1 0 -15 1 0 
2 -2.84604748517188 4.9999962178398354 0 -1 -1 -0 7.5000111576853978
1 1.5707963153336924 0 0 -1 
1 0 0 0 -1 
8 -1 11
1 3.4162583333507452 0 0 -1 
8 -1 11
1 21.5 0 0 -1 
1 0 -10 1 0 
1 5.3333996890999984 9.5 -1 0 
1 24 0 0 -1 
1 4.5 0 0 -1 
1 0 -10 1 0 
1 -12 -2.2499999999999982 1 0 
1 0 0 0 -1 
1 0 0 0 -1 
1 0 -10 1 0 
1 12 2.2500000000000018 0 -1 
8 -11 1
1 2.5 0 0 1 
8 -11 1
1 7.9162583333507452 0 0 1 
1 0 -10 1 0 
1 12 2.2500000000000018 -1 0 
1 0 -10 1 0 
1 5.3333996890999984 9.5 -1 0 
1 3.1415893582099343 0 0 -1 
1 0 0 0 -1 
1 0 -26.5 1 0 
2 10.999999742643611 -20.249999993736992 -1 -2.1592157265412046e-65 -2.1592157265412046e-65 1 3
1 0 -26.5 1 0 
1 13.999999742627322 -20.249990107597416 1.3099877782775314e-08 0.99999999999999989 
1 40.499979348052364 0 0 -1 
1 3.1415962421924788 0 0 -1 
1 0 -26.5 1 0 
2 11.000000273191418 20.250000006263008 -1 -2.1592157265412046e-65 -2.1592157265412046e-65 1 3
1 0 0 0 -1 
1 6.2831853071795862 0 0 -1 
1 0 -1.1000000000000001 1 0 
2 0 -7.1054273576010019e-15 1 0 -0 1 1.5500000000000007
1 0 0 0 -1 
1 6.2831853071795862 0 0 -1 
1 0 -1.1000000000000001 1 0 
2 0 -7.1054273576010019e-15 1 0 -0 1 1.5500000000000007
1 0 0 0 -1 
1 6.2831853071795862 0 0 -1 
1 0 -1.1000000000000001 1 0 
2 -1.7763568394002505e-15 0 1 0 -0 1 1.5500000000000007
1 0 0 0 -1 
1 6.2831853071795862 0 0 -1 
1 0 -1.1000000000000001 1 0 
2 0 0 1 0 -0 1 1.5500000000000007
1 0 0 0 -1 
1 6.2831853071795862 0 0 -1 
1 0 -1.1000000000000001 1 0 
2 0 0 1 0 -0 1 1.5500000000000007
1 0 0 0 -1 
1 6.2831853071795862 0 0 -1 
1 0 -1.1000000000000001 1 0 
2 0 0 1 0 -0 1 1.5500000000000007
1 -2.5828586442507468 12 0 -1 
1 12 2.2500000000000018 -1 0 
1 -9.5 5.0005410448492569 0 -1 
1 -9.5 5.0005410448492569 0 -1 
1 1.9171413557492532 -12 0 1 
1 -12 -2.2499999999999982 1 0 
1 9.5 -5.6662583333507435 0 1 
1 9.5 -5.6662583333507435 0 1 
1 -12 -2.2499999999999982 1 0 
1 1.9171413557492532 -12 0 1 
8 -3.4999999999999498 8.5000000000003801
1 2.4999999999999223 -2.2499812861297528 -1 -1.7763568394002015e-16 
8 -3.4999999999999498 8.5000000000003801
1 2.4999999999999223 -10 1 0 
1 0 -15 1 0 
1 -10.346058642857276 4.9999961318806756 1.7763568394002015e-16 -1 
Curves 136
1 -17.5 40 0 1 0 0 
1 17.5 40 0 0 0 1 
1 -17.5 40 0 1 0 0 
1 4.5 40 29 -0 -0 -1 
1 -4.5 40 0 1 0 0 
1 -4.5 40 29 -0 -0 -1 
1 -17.5 40 0 1 0 0 
1 -17.5 40 0 0 0 1 
1 -17.5 -40 0 0 1 0 
1 17.5 40 0 0 -1 0 
1 17.5 -40 0 -1 0 0 
2 0 22.5 0 0 0 1 1 0 -0 -0 1 0 8
1 17.5 -40 0 0 0 1 
1 17.5 40 0 0 -1 0 
1 -17.5 -40 0 0 1 0 
1 17.5 -40 0 -1 0 0 
1 4.5 40 0 0 -1 0 
1 -10.99998998103756 36.499999999980389 0 1 8.9140897131658043e-13 0 
2 10.999999170879981 33.5 0 0 0 1 1 0 -0 -0 1 0 3
1 13.999999170861832 33.499989564849379 0 1.3099971074452453e-08 -0.99999999999999989 0 
2 10.999999701427788 -6.9999999999999982 0 0 0 1 1 0 -0 -0 1 0 3
1 10.999989981037562 -9.9999999999842508 0 -1 9.0675024890264467e-14 0 
1 9.5 -8.2494589551330009 0 0 -1 0 
1 -12 -10.999999999982256 0 1 0 0 
1 12 -10.999999999982256 0 0 -1 0 
1 12 -15.499999999982256 0 -1 0 0 
1 9.5 -8.2494589551330009 0 0 -1 0 
2 5.0000003348445823 -22.999970420257615 0 0 0 1 1 0 -0 -0 1 0 7.4999891341456095
1 12.50000071256504 -31.99997960815859 0 -1.2492867197001738e-06 0.99999999999921962 0 
2 9.5000007126343444 -32 0 0 0 1 1 0 -0 -0 1 0 3
1 -9.5000001107669032 -35 0 1 2.9917588525280153e-15 0 
2 -9.499999999999984 -32 0 0 0 1 1 0 -0 -0 1 0 3
1 -12.499999999999279 -32.000002057679232 0 -1.2492932180120622e-06 0.99999999999921962 0 
2 -5.0000000859590044 -22.999992443797407 0 0 0 1 1 0 -0 -0 1 0 7.5000111576853978
1 -9.5 -18.916258333333001 0 0 1 0 
1 12 -15.499999999982256 0 -1 0 0 
1 -12 -10.999999999982256 0 0 -1 0 
1 -12 -10.999999999982256 0 1 0 0 
1 -9.5 -18.916258333333001 0 0 1 0 
1 10.999989981037562 -9.9999999999842508 0 -1 9.0675024890264467e-14 0 
2 -11.000000298572212 -6.9999999999999973 0 0 0 1 1 0 -0 -0 1 0 3
1 -14.000000298555923 -6.999990113860421 0 -1.3099877782775314e-08 0.99999999999999989 0 
2 -11.000000829120019 33.5 0 0 0 1 1 0 -0 -0 1 0 3
1 -10.99998998103756 36.499999999980389 0 1 8.9140897131658043e-13 0 
1 -4.5 40 0 0 -1 0 
2 14.5 -37 0 0 0 1 1 0 -0 -0 1 0 1.55
2 -14.5 -37 0 0 0 1 1 0 -0 -0 1 0 1.55
2 -14.5 -18 0 0 0 1 1 0 -0 -0 1 0 1.55
2 14.5 -18 0 0 0 1 1 0 -0 -0 1 0 1.55
2 -14.5 37 0 0 0 1 1 0 -0 -0 1 0 1.55
2 14.5 37 0 0 0 1 1 0 -0 -0 1 0 1.55
1 4.5 40 0 0 -1 0 
1 4.5 36.499999999994209 29 -0 -0 -1 
1 -4.5 40 0 0 -1 0 
1 -4.5 36.499999999986187 0 1 8.9133638741461456e-13 0 
1 -4.5 36.499999999986187 29 -0 -0 -1 
1 -17.5 -40 0 0 0 1 
1 8 -22.5 0 0 0 1 
2 0 22.5 0 0 0 1 1 0 -0 -0 1 0 8
1 10.99998998103756 36.499999999992966 29 -0 -0 -1 
1 -10.99998998103756 36.499999999980389 0 1 8.9140897131658043e-13 0 
1 -10.99998998103756 36.499999999980389 29 -0 -0 -1 
1 13.999999170861832 33.499989564849379 29 -0 -0 -1 
2 10.999999170879981 33.5 0 0 0 1 1 0 -0 -0 1 0 3
1 13.999999170861832 33.499989564849379 0 1.3099971074452453e-08 -0.99999999999999989 0 
1 13.99999970141039 -6.9999897832029863 29 -0 -0 -1 
1 10.999989981037562 -9.9999999999842508 29 -0 -0 -1 
2 10.999999701427788 -6.9999999999999982 0 0 0 1 1 0 -0 -0 1 0 3
1 9.5 -9.999999999984114 29 0 -0 1 
1 5.4999949905189434 -9.9999999999837517 19.000000000000004 -1 9.0675024890264467e-14 -2.3352359241971102e-44 
1 -9.5 -9.9999999999823928 29 0 0 -1 
1 -10.999989981037562 -9.999999999982256 29 -0 -0 -1 
1 10.999989981037562 -9.9999999999842508 0 -1 9.0675024890264467e-14 0 
1 9.5 -10.999999999982256 29 -0 -0 -1 
1 9.5 -8.2494589551330009 0 0 -1 0 
1 12 -10.999999999982256 29 -0 -0 -1 
1 -12 -10.999999999982256 0 1 0 0 
1 12 -10.999999999982256 0 0 -1 0 
1 12 -15.499999999982256 29 -0 -0 -1 
1 9.5 -15.499999999982256 29 0 -0 1 
1 12 -15.499999999982256 0 -1 0 0 
1 9.5 -16.999983751447147 29 0 0 1 
1 9.5 -8.2494589551330009 0 0 -1 0 
2 5.0000003348445823 -22.999970420257615 19.000000000000004 0 0 1 1 0 -0 -0 1 0 7.4999891341456095
2 5.0000003348445823 -22.999970420257615 19 0 0 1 1 0 -0 -0 1 0 7.4999891341456095
1 5.0000000000004308 -15.499981286112012 29 -0 -0 -1 
2 5.0000003348445823 -22.999970420257615 0 0 0 1 1 0 -0 -0 1 0 7.4999891341456095
1 12.499989468984563 -22.999979608145264 29 -0 -0 -1 
1 12.50000071256504 -31.99997960815859 29 -0 -0 -1 
1 12.50000071256504 -31.99997960815859 0 -1.2492867197001738e-06 0.99999999999921962 0 
1 9.5000001107669032 -34.999999999999943 29 -0 -0 -1 
2 9.5000007126343444 -32 0 0 0 1 1 0 -0 -0 1 0 3
1 -9.5000001107669032 -35 29 -0 -0 -1 
1 -9.5000001107669032 -35 0 1 2.9917588525280153e-15 0 
1 -12.499999999999279 -32.000002057679232 29 -0 -0 -1 
2 -9.499999999999984 -32 0 0 0 1 1 0 -0 -0 1 0 3
1 -12.499999999999279 -32.000002057679232 0 -1.2492932180120622e-06 0.99999999999921962 0 
1 -12.500011243638241 -23.000002057693454 29 -0 -0 -1 
2 -5.0000000859590044 -22.999992443797407 19 0 0 1 1 0 -0 -0 1 0 7.5000111576853978
2 -5.0000000859590044 -22.999992443797407 19.000000000000004 0 0 1 1 0 -0 -0 1 0 7.5000111576853978
1 -9.5 -16.999978432227394 29 0 0 1 
2 -5.0000000859590044 -22.999992443797407 0 0 0 1 1 0 -0 -0 1 0 7.5000111576853978
1 -4.9999999999998446 -15.499981286112011 29 -0 -0 -1 
1 -9.5 -15.499999999982256 29 0 0 -1 
1 -9.5 -18.916258333333001 0 0 1 0 
1 -12 -15.499999999982256 29 -0 -0 -1 
1 12 -15.499999999982256 0 -1 0 0 
1 -12 -10.999999999982256 29 -0 -0 -1 
1 -12 -10.999999999982256 0 0 -1 0 
1 -9.5 -10.999999999982256 29 -0 0 1 
1 -12 -10.999999999982256 0 1 0 0 
1 -9.5 -18.916258333333001 0 0 1 0 
1 -14.000000298555923 -6.999990113860421 29 -0 -0 -1 
2 -11.000000298572212 -6.9999999999999973 0 0 0 1 1 0 -0 -0 1 0 3
1 -14.000000298555923 -6.999990113860421 0 -1.3099877782775314e-08 0.99999999999999989 0 
1 -14.000000829100703 33.499989234191943 29 -0 -0 -1 
2 -11.000000829120019 33.5 0 0 0 1 1 0 -0 -0 1 0 3
1 16.050000000000001 -37 29 -0 -0 -1 
2 14.5 -37 0 0 0 1 1 0 -0 -0 1 0 1.55
1 -12.949999999999999 -37 29 -0 -0 -1 
2 -14.5 -37 0 0 0 1 1 0 -0 -0 1 0 1.55
1 -12.949999999999999 -18 29 -0 -0 -1 
2 -14.5 -18 0 0 0 1 1 0 -0 -0 1 0 1.55
1 16.050000000000001 -18 29 -0 -0 -1 
2 14.5 -18 0 0 0 1 1 0 -0 -0 1 0 1.55
1 -12.949999999999999 37 29 -0 -0 -1 
2 -14.5 37 0 0 0 1 1 0 -0 -0 1 0 1.55
1 16.050000000000001 37 29 -0 -0 -1 
2 14.5 37 0 0 0 1 1 0 -0 -0 1 0 1.55
1 -12 -10.999999999982256 0 1 0 0 
1 9.5 -8.2494589551330009 0 0 -1 0 
1 12 -15.499999999982256 0 -1 0 0 
1 -9.5 -18.916258333333001 0 0 1 0 
1 12 -15.499999999982256 0 -1 0 0 
1 -2.4999999999999223 -15.499981286112011 19 1 -1.7763568394002015e-16 0 
1 -4.9999999999998446 -15.499981286112011 0 1 -1.7763568394002015e-16 0 
Polygon3D 0
PolygonOnTriangulations 0
Surfaces 57
1 -17.5 40 0 0 1 0 1 0 0 0 0 -1 
1 0 0 0 -0 -0 -1 -1 0 0 0 1 -0 
1 17.5 40 0 1 0 -0 0 -1 0 0 -0 -1 
1 0 0 0 -0 -0 -1 -1 0 0 0 1 -0 
1 4.5 40 29 -1 0 0 0 -1 0 0 0 1 
1 -1.4439649476105433e-12 38.249999999995097 29.000000000000007 2.80483877393098e-32 4.1729131965709507e-30 1 0 1 -4.1729131965709507e-30 -1 1.1704348733990472e-61 2.80483877393098e-32 
1 -4.5 40 29 -1 0 0 0 -1 0 0 0 1 
1 -17.5 -40 0 -1 0 0 0 1 0 0 0 -1 
1 17.5 -40 0 0 -1 0 -1 0 0 -0 -0 -1 
2 0 -22.5 0 0 0 -1 1 0 0 0 -1 0 8
1 -10.99998998103756 36.499999999980389 29 8.9140897131658043e-13 -1 0 1 8.9140897131658043e-13 0 -0 0 1 
2 10.999999170879981 33.5 29 0 0 1 1 0 -0 -0 1 0 3
1 13.999999170861832 33.499989564849379 29 -0.99999999999999989 -1.3099971074452453e-08 0 1.3099971074452453e-08 -0.99999999999999989 0 0 0 1 
2 10.999999701427788 -6.9999999999999982 29 0 0 1 1 0 -0 -0 1 0 3
1 10.999989981037562 -9.9999999999842508 29 9.0675024890264467e-14 1 -0 -1 9.0675024890264467e-14 0 0 0 1 
1 9.5 -8.2494589551330009 29 -1 0 0 0 -1 0 0 0 1 
1 -12 -10.999999999982256 29 0 -1 0 1 0 0 -0 0 1 
1 12 -10.999999999982256 29 -1 0 0 0 -1 0 0 0 1 
1 12 -15.499999999982256 29 0 1 -0 -1 0 0 0 0 1 
1 9.5 -8.2494589551330009 29 -1 0 0 0 -1 0 0 0 1 
2 5.0000003348445823 -22.999970420257615 29 0 0 1 1 0 -0 -0 1 0 7.4999891341456095
1 12.50000071256504 -31.99997960815859 29 0.99999999999921962 1.2492867197001738e-06 -0 -1.2492867197001738e-06 0.99999999999921962 0 0 0 1 
2 9.5000007126343444 -32 29 0 0 1 1 0 -0 -0 1 0 3
1 -9.5000001107669032 -35 29 2.9917588525280153e-15 -1 0 1 2.9917588525280153e-15 0 -0 0 1 
2 -9.499999999999984 -32 29 0 0 1 1 0 -0 -0 1 0 3
1 -12.499999999999279 -32.000002057679232 29 0.99999999999921962 1.2492932180120622e-06 -0 -1.2492932180120622e-06 0.99999999999921962 0 0 0 1 
2 -5.0000000859590044 -22.999992443797407 29 0 0 1 1 0 -0 -0 1 0 7.5000111576853978
1 -9.5 -18.916258333333001 29 1 0 0 -0 1 0 0 -0 1 
1 12 -15.499999999982256 29 0 1 -0 -1 0 0 0 0 1 
1 -12 -10.999999999982256 29 -1 0 0 0 -1 0 0 0 1 
1 -12 -10.999999999982256 29 0 -1 0 1 0 0 -0 0 1 
1 -9.5 -18.916258333333001 29 1 0 0 -0 1 0 0 -0 1 
2 -11.000000298572212 -6.9999999999999973 29 0 0 1 1 0 -0 -0 1 0 3
1 -14.000000298555923 -6.999990113860421 29 0.99999999999999989 1.3099877782775314e-08 -0 -1.3099877782775314e-08 0.99999999999999989 0 0 0 1 
2 -11.000000829120019 33.5 29 0 0 1 1 0 -0 -0 1 0 3
2 14.5 -37 29 0 0 1 1 0 -0 -0 1 0 1.55
2 -14.5 -37 29 0 0 1 1 0 -0 -0 1 0 1.55
2 -14.5 -18 29 0 0 1 1 0 -0 -0 1 0 1.55
2 14.5 -18 29 0 0 1 1 0 -0 -0 1 0 1.55
2 -14.5 37 29 0 0 1 1 0 -0 -0 1 0 1.55
2 14.5 37 29 0 0 1 1 0 -0 -0 1 0 1.55
1 2.3930202319439899e-15 -22.499999999999996 0 -0 -0 -1 -1 0 0 0 1 -0 
1 -5.5592860085667327e-07 13.249999993736994 29.000000000000011 -2.2347652451134846e-32 -9.6619353252540694e-34 -1 -1 0 2.2347652451134846e-32 -2.1592157265412046e-65 1 -9.6619353252540694e-34 
1 0 -13.582858644233003 29.000000000000004 -0 -2.5753904418810234e-31 -1 0 -1 2.5753904418810234e-31 -1 0 0 
1 0 -13.249999999982258 29 -0 -0 -1 -1 0 0 0 1 -0 
1 0 -13.582858644233003 29.000000000000004 -0 -2.5753904418810234e-31 -1 0 -1 2.5753904418810234e-31 -1 0 0 
1 0 -13.249999999982258 29 -0 -0 -1 -1 0 0 0 1 -0 
1 -4.9999999999998446 -15.499981286112011 29 -1.7763568394002015e-16 -1 0 1 -1.7763568394002015e-16 0 0 0 1 
1 -3.8681191690985665e-06 -25.846039928969287 29.000000000000007 -4.7770343003025668e-32 7.1194243443690717e-31 -1 0 -1 -7.1194243443690717e-31 -1 -3.4009734291460168e-62 4.7770343003025668e-32 
1 0 -13.582858644233003 29.000000000000004 -0 -2.5753904418810234e-31 -1 0 -1 2.5753904418810234e-31 -1 0 0 
1 0 -13.249999999982258 29 -0 -0 -1 -1 0 0 0 1 -0 
1 14.5 -36.999999999999993 29 0 0 1 1 0 -0 -0 1 0 
1 -14.5 -36.999999999999993 29 0 0 1 1 0 -0 -0 1 0 
1 -14.499999999999998 -18 29 0 0 1 1 0 -0 -0 1 0 
1 14.5 -18 29 0 0 1 1 0 -0 -0 1 0 
1 -14.5 37 29 0 0 1 1 0 -0 -0 1 0 
1 14.5 37 29 0 0 1 1 0 -0 -0 1 0 
Triangulations 0

TShapes 347
Ve
1e-07
-17.5 40 0
0 0

0101101
*
Ve
1e-07
17.5 40 0
0 0

0101101
*
Ed
 1e-07 1 1 0
1  1 0 0 35
2  1 1 21 0 35
2  2 2 22 0 35
0

0101000
+347 23 -346 23 *
Ve
1e-07
17.5 40 29
0 0

0101101
*
Ed
 1e-07 1 1 0
1  2 0 0 29
2  3 1 0 0 29
2  4 3 0 0 29
0

0101000
+346 24 -344 24 *
Ve
1e-07
4.5 40 29
0 0

0101101
*
Ed
 1e-07 1 1 0
1  3 0 22 35
2  5 1 27 22 35
2  6 4 22 22 35
0

0101000
+342 28 -344 28 *
Ve
1e-07
4.5 40 25
0 0

0101101
*
Ed
 1e-07 1 1 0
1  4 0 0 4
2  7 1 17 0 4
2  8 5 0 0 4
0

0101000
+342 29 -340 29 *
Ve
1e-07
-4.5 40 25
0 0

0101101
*
Ed
 1e-07 1 1 0
1  5 0 0 9
2  9 1 33 0 9
2  10 6 34 0 9
0

0101000
+338 35 -340 35 *
Ve
1e-07
-4.5 40 29
0 0

0101101
*
Ed
 1e-07 1 1 0
1  6 0 0 4
2  11 1 17 0 4
2  12 7 0 0 4
0

0101000
+336 29 -338 29 *
Ve
1e-07
-17.5 40 29
0 0

0101101
*
Ed
 1e-07 1 1 0
1  7 0 0 13
2  13 1 27 0 13
2  14 4 22 0 13
0

0101000
+334 28 -336 28 *
Ed
 1e-07 1 1 0
1  8 0 0 29
2  15 1 0 0 29
2  16 8 0 0 29
0

0101000
+347 24 -334 24 *
Wi

0101100
-345 20 -343 17 +341 26 -339 0 +337 32 +335 0 +333 26 +332 17 *
Fa
0  1e-07 1 17

0111000
+331 0 *
Ve
1e-07
-17.5 -40 0
0 0

0101101
*
Ed
 1e-07 1 1 0
1  9 0 0 80
2  17 2 22 0 80
2  18 8 21 0 80
0

0101000
+329 23 -347 23 *
Ve
1e-07
17.5 -40 0
0 0

0101101
*
Ed
 1e-07 1 1 0
1  10 0 0 80
2  19 2 22 0 80
2  20 3 21 0 80
0

0101000
+346 23 -327 23 *
Ed
 1e-07 1 1 0
1  11 0 0 35
2  21 2 22 0 35
2  22 9 21 0 35
0

0101000
+327 23 -329 23 *
Wi

0101100
+345 37 +328 37 +326 37 +325 37 *
Ve
1e-07
8 -22.5 0
0 0

0101101
*
Ed
 1e-07 1 1 0
1  12 0 0 6.28318530717959
2  23 2 40 0 6.28318530717959
2  24 10 41 0 6.28318530717959
0

0101000
+323 42 -323 42 *
Wi

0101100
-322 39 *
Fa
0  1e-07 2 36

0111000
+324 0 +321 0 *
Ve
1e-07
17.5 -40 29
0 0

0101101
*
Ed
 1e-07 1 1 0
1  13 0 0 29
2  25 3 0 0 29
2  26 9 0 0 29
0

0101000
+327 24 -319 24 *
Ed
 1e-07 1 1 0
1  14 0 0 80
2  27 3 27 0 80
2  28 4 22 0 80
0

0101000
+344 28 -319 28 *
Wi

0101100
+343 0 -318 0 -326 44 +317 45 *
Fa
0  1e-07 3 0

0111000
+316 0 *
Ve
1e-07
-17.5 -40 29
0 0

0101101
*
Ed
 1e-07 1 1 0
1  15 0 0 80
2  29 4 22 0 80
2  30 8 27 0 80
0

0101000
+314 28 -334 28 *
Ed
 1e-07 1 1 0
1  16 0 0 35
2  31 4 22 0 35
2  32 9 27 0 35
0

0101000
+319 28 -314 28 *
Ve
1e-07
4.5 36.4999999999942 29
0 0

0101101
*
Ed
 1e-07 1 1 0
1  17 0 0 3.50000000000579
2  33 4 48 0 3.50000000000579
2  34 5 49 0 3.50000000000579
0

0101000
+342 50 -311 50 *
Ve
1.00007037925798e-07
10.9999899810376 36.499999999993 29
0 0

0101101
*
Ed
 1e-07 1 1 0
1  18 0 15.4999899810376 21.9999799620751
2  35 4 53 15.4999899810376 21.9999799620751
2  36 11 54 15.4999899810376 21.9999799620751
0

0101000
+311 55 -309 55 *
Ve
1e-07
13.9999991708618 33.4999895648494 29
0 0

0101101
*
Ed
 1e-07 1 1 0
1  19 0 6.28318182879605 7.85398469725529
2  37 4 53 6.28318182879605 7.85398469725529
2  38 12 54 6.28318182879605 7.85398469725529
0

0101000
+307 55 -309 55 *
Ve
1.00000001776357e-07
13.9999997014104 -6.99998978320299 29
0 0

0101101
*
Ed
 1e-07 1 1 0
1  20 0 0 40.4999793480524
2  39 4 53 0 40.4999793480524
2  40 13 54 0 40.4999793480524
0

0101000
+307 55 -305 55 *
Ve
1e-07
10.9999899810376 -9.99999999998425 29
0 0

0101101
*
Ed
 1e-07 1 1 0
1  21 0 4.71238574025461 6.28318871277859
2  41 4 53 4.71238574025461 6.28318871277859
2  42 14 54 4.71238574025461 6.28318871277859
0

0101000
+303 55 -305 55 *
Ve
1e-07
9.5 -9.99999999998411 29
0 0

0101101
*
Ed
 1e-07 1 1 0
1  22 0 0 1.49998998103756
2  43 4 53 0 1.49998998103756
2  44 15 54 0 1.49998998103756
0

0101000
+303 55 -301 55 *
Ve
1e-07
9.5 -10.9999999999823 29
0 0

0101101
*
Ed
 1e-07 1 1 0
1  23 0 1.75054104485111 2.75054104484926
2  45 4 58 1.75054104485111 2.75054104484926
2  46 16 59 1.75054104485111 2.75054104484926
0

0101000
+301 60 -299 60 *
Ve
1e-07
12 -10.9999999999823 29
0 0

0101101
*
Ed
 1e-07 1 1 0
1  24 0 21.5 24
2  47 4 63 21.5 24
2  48 17 64 21.5 24
0

0101000
+299 65 -297 65 *
Ve
1e-07
12 -15.4999999999823 29
0 0

0101101
*
Ed
 1e-07 1 1 0
1  25 0 0 4.5
2  49 4 63 0 4.5
2  50 18 64 0 4.5
0

0101000
+297 65 -295 65 *
Ve
1e-07
9.5 -15.4999999999823 29
0 0

0101101
*
Ed
 1e-07 1 1 0
1  26 0 0 2.5
2  51 4 63 0 2.5
2  52 19 64 0 2.5
0

0101000
+295 65 -293 65 *
Ve
1.00000100364161e-07
9.4999999999999 -16.999983751447 29
0 0

0101101
*
Ed
 1e-07 1 1 0
1  27 0 7.25054104484926 8.750524796314
2  53 4 58 7.25054104484926 8.750524796314
2  54 20 59 7.25054104484926 8.750524796314
0

0101000
+293 60 -291 60 *
Ve
1e-07
12.4999894689846 -22.9999796081453 29
0 0

0101101
*
Ed
 1e-07 1 1 0
1  28 0 6.28318408212612 7.21047949440132
2  55 4 68 6.28318408212612 7.21047949440132
2  56 21 69 6.28318408212612 7.21047949440132
0

0101000
+289 70 -291 70 *
Ve
1e-07
12.500000712565 -31.9999796081586 29
0 0

0101101
*
Ed
 1e-07 1 1 0
1  29 0 0 9.00000000002035
2  57 4 68 0 9.00000000002035
2  58 22 69 0 9.00000000002035
0

0101000
+287 70 -289 70 *
Ve
1e-07
9.5000001107669 -34.9999999999999 29
0 0

0101101
*
Ed
 1e-07 1 1 0
1  30 0 4.71238877976221 6.28319210446006
2  59 4 68 4.71238877976221 6.28319210446006
2  60 23 69 4.71238877976221 6.28319210446006
0

0101000
+285 70 -287 70 *
Ve
1e-07
-9.5000001107669 -35 29
0 0

0101101
*
Ed
 1e-07 1 1 0
1  31 0 0 19.0000002215338
2  61 4 68 0 19.0000002215338
2  62 24 69 0 19.0000002215338
0

0101000
+283 70 -285 70 *
Ve
1e-07
-12.4999999999993 -32.0000020576792 29
0 0

0101101
*
Ed
 1e-07 1 1 0
1  32 0 3.14159333948287 4.71238894346238
2  63 4 68 3.14159333948287 4.71238894346238
2  64 25 69 3.14159333948287 4.71238894346238
0

0101000
+281 70 -283 70 *
Ve
1e-07
-12.5000112436382 -23.0000020576935 29
0 0

0101101
*
Ed
 1e-07 1 1 0
1  33 0 0 8.9999999999928
2  65 4 68 0 8.9999999999928
2  66 26 69 0 8.9999999999928
0

0101000
+281 70 -279 70 *
Ve
1.00000047961635e-07
-9.49999999999995 -16.9999784322273 29
0 0

0101101
*
Ed
 1e-07 1 1 0
1  34 0 2.21429630549529 3.14159393544069
2  67 4 68 2.21429630549529 3.14159393544069
2  68 27 69 2.21429630549529 3.14159393544069
0

0101000
+277 70 -279 70 *
Ve
1e-07
-9.5 -15.4999999999823 29
0 0

0101101
*
Ed
 1e-07 1 1 0
1  35 0 1.91627990110568 3.41625833335075
2  69 4 58 1.91627990110568 3.41625833335075
2  70 28 59 1.91627990110568 3.41625833335075
0

0101000
+277 60 -275 60 *
Ve
1e-07
-12 -15.4999999999823 29
0 0

0101101
*
Ed
 1e-07 1 1 0
1  36 0 21.5 24
2  71 4 63 21.5 24
2  72 29 64 21.5 24
0

0101000
+275 65 -273 65 *
Ve
1e-07
-12 -10.9999999999823 29
0 0

0101101
*
Ed
 1e-07 1 1 0
1  37 0 0 4.5
2  73 4 63 0 4.5
2  74 30 64 0 4.5
0

0101000
+271 65 -273 65 *
Ve
1e-07
-9.5 -10.9999999999823 29
0 0

0101101
*
Ed
 1e-07 1 1 0
1  38 0 0 2.5
2  75 4 63 0 2.5
2  76 31 64 0 2.5
0

0101000
+271 65 -269 65 *
Ve
1e-07
-9.5 -9.99999999998239 29
0 0

0101101
*
Ed
 1e-07 1 1 0
1  39 0 7.91625833335075 8.91625833335061
2  77 4 58 7.91625833335075 8.91625833335061
2  78 32 59 7.91625833335075 8.91625833335061
0

0101000
+269 60 -267 60 *
Ve
1e-07
-10.9999899810376 -9.99999999998226 29
0 0

0101101
*
Ed
 1e-07 1 1 0
1  40 0 20.4999899810376 21.9999799620751
2  79 4 53 20.4999899810376 21.9999799620751
2  80 15 54 20.4999899810376 21.9999799620751
0

0101000
+267 55 -265 55 *
Ve
1e-07
-14.0000002985559 -6.99999011386042 29
0 0

0101101
*
Ed
 1e-07 1 1 0
1  41 0 3.14158935820993 4.71239241956291
2  81 4 53 3.14158935820993 4.71239241956291
2  82 33 54 3.14158935820993 4.71239241956291
0

0101000
+263 55 -265 55 *
Ve
1e-07
-14.0000008291007 33.4999892341919 29
0 0

0101101
*
Ed
 1e-07 1 1 0
1  42 0 0 40.4999793480524
2  83 4 53 0 40.4999793480524
2  84 34 54 0 40.4999793480524
0

0101000
+263 55 -261 55 *
Ve
1e-07
-10.9999899810376 36.4999999999804 29
0 0

0101101
*
Ed
 1e-07 1 1 0
1  43 0 1.57079271076741 3.14159624219248
2  85 4 53 1.57079271076741 3.14159624219248
2  86 35 54 1.57079271076741 3.14159624219248
0

0101000
+259 55 -261 55 *
Ve
1e-07
-4.5 36.4999999999862 29
0 0

0101101
*
Ed
 1e-07 1 1 0
1  44 0 0 6.49998998103756
2  87 4 53 0 6.49998998103756
2  88 11 54 0 6.49998998103756
0

0101000
+259 55 -257 55 *
Ed
 1e-07 1 1 0
1  45 0 0 3.50000000001381
2  89 4 48 0 3.50000000001381
2  90 7 49 0 3.50000000001381
0

0101000
+336 50 -257 50 *
Wi

0101100
+313 26 +312 26 +317 26 +341 26 -310 47 -308 52 +306 52 -304 52 +302 52 -300 52 
-298 57 -296 62 -294 62 -292 62 -290 57 +288 67 +286 67 +284 67 +282 67 +280 67 
-278 67 +276 67 -274 57 -272 62 +270 62 -268 62 -266 57 -264 52 +262 52 -260 52 
+258 52 -256 52 +255 47 +333 26 *
Ve
1e-07
16.05 -37 29
0 0

0101101
*
Ed
 1e-07 1 1 0
1  46 0 0 6.28318530717959
2  91 4 73 0 6.28318530717959
2  92 36 74 0 6.28318530717959
0

0101000
+253 75 -253 75 *
Wi

0101100
+252 72 *
Ve
1e-07
-12.95 -37 29
0 0

0101101
*
Ed
 1e-07 1 1 0
1  47 0 0 6.28318530717959
2  93 4 73 0 6.28318530717959
2  94 37 74 0 6.28318530717959
0

0101000
+250 75 -250 75 *
Wi

0101100
+249 72 *
Ve
1e-07
-12.95 -18 29
0 0

0101101
*
Ed
 1e-07 1 1 0
1  48 0 0 6.28318530717959
2  95 4 73 0 6.28318530717959
2  96 38 74 0 6.28318530717959
0

0101000
+247 75 -247 75 *
Wi

0101100
+246 72 *
Ve
1e-07
16.05 -18 29
0 0

0101101
*
Ed
 1e-07 1 1 0
1  49 0 0 6.28318530717959
2  97 4 73 0 6.28318530717959
2  98 39 74 0 6.28318530717959
0

0101000
+244 75 -244 75 *
Wi

0101100
+243 72 *
Ve
1e-07
-12.95 37 29
0 0

0101101
*
Ed
 1e-07 1 1 0
1  50 0 0 6.28318530717959
2  99 4 73 0 6.28318530717959
2  100 40 74 0 6.28318530717959
0

0101000
+241 75 -241 75 *
Wi

0101100
+240 72 *
Ve
1e-07
16.05 37 29
0 0

0101101
*
Ed
 1e-07 1 1 0
1  51 0 0 6.28318530717959
2  101 4 73 0 6.28318530717959
2  102 41 74 0 6.28318530717959
0

0101000
+238 75 -238 75 *
Wi

0101100
+237 72 *
Fa
0  1e-07 4 46

0101000
+254 0 +251 0 +248 0 +245 0 +242 0 +239 0 +236 0 *
Ve
1e-07
4.5 36.4999999999942 25
0 0

0101101
*
Ed
 1e-07 1 1 0
1  52 0 0 3.50000000000579
2  103 5 76 0 3.50000000000579
2  104 6 34 0 3.50000000000579
0

0101000
+340 35 -234 35 *
Ed
 1e-07 1 1 0
1  53 0 0 4
2  105 5 0 0 4
2  106 11 77 0 4
0

0101000
+311 29 -234 29 *
Wi

0101100
+339 0 -310 47 +233 32 -232 0 *
Fa
0  1e-07 5 0

0101000
+231 0 *
Ve
1e-07
-4.5 36.4999999999862 25
0 0

0101101
*
Ed
 1e-07 1 1 0
1  54 0 0 3.50000000001381
2  107 6 34 0 3.50000000001381
2  108 7 76 0 3.50000000001381
0

0101000
+338 35 -229 35 *
Ed
 1e-07 1 1 0
1  55 0 0 9
2  109 6 34 0 9
2  110 11 79 0 9
0

0101000
+229 35 -234 35 *
Wi

0101100
-337 32 +228 32 -233 32 +227 32 *
Fa
0  1e-07 6 78

0101000
+226 0 *
Ed
 1e-07 1 1 0
1  56 0 0 4
2  111 7 0 0 4
2  112 11 77 0 4
0

0101000
+257 29 -229 29 *
Wi

0101100
+335 0 -255 47 +228 32 -224 0 *
Fa
0  1e-07 7 0

0101000
+223 0 *
Ed
 1e-07 1 1 0
1  57 0 0 29
2  113 8 0 0 29
2  114 9 0 0 29
0

0101000
+329 24 -314 24 *
Wi

0101100
+221 0 -332 0 -328 44 +313 45 *
Fa
0  1e-07 8 0

0111000
+220 0 *
Wi

0101100
+318 0 -221 0 -325 44 +312 45 *
Fa
0  1e-07 9 0

0111000
+218 0 *
Ve
1e-07
8 -22.5 13
0 0

0101101
*
Ed
 1e-07 1 1 0
1  58 0 0 13
3  115 116CN 10 0 0 13
0

0101000
+323 80 -216 80 *
Ed
 1e-07 1 1 0
1  59 0 0 6.28318530717959
2  117 10 83 0 6.28318530717959
2  118 42 84 0 6.28318530717959
0

0101000
+216 85 -216 85 *
Wi

0101100
-322 39 -215 0 +214 82 +215 0 *
Fa
0  1e-07 10 0

0111000
+213 0 *
Ve
1.00007037925798e-07
10.9999899810376 36.499999999993 2.5
0 0

0101101
*
Ed
 1.00007037925798e-07 1 1 0
1  60 0 0 26.5
2  119 11 0 0 26.5
2  120 12 0 0 26.5
4 G1 11 0 12 0
0

0101000
+309 86 -211 86 *
Ve
1e-07
-10.9999899810376 36.4999999999804 2.5
0 0

0101101
*
Ed
 1e-07 1 1 0
1  61 0 0 21.9999799620751
2  121 11 89 0 21.9999799620751
2  122 43 90 0 21.9999799620751
0

0101000
+209 91 -211 91 *
Ed
 1e-07 1 1 0
1  62 0 0 26.5
2  123 11 0 0 26.5
2  124 35 0 0 26.5
4 G1 11 0 35 0
0

0101000
+259 86 -209 86 *
Wi

0101100
-256 52 -224 0 -227 32 +232 0 -308 52 -210 77 +208 88 +207 77 *
Fa
0  1e-07 11 77

0111000
+206 0 *
Ve
1e-07
13.9999991708618 33.4999895648494 2.5
0 0

0101101
*
Ed
 1e-07 1 1 0
1  63 0 0 26.5
2  125 12 0 0 26.5
2  126 13 0 0 26.5
4 G1 12 0 13 0
0

0101000
+307 86 -204 86 *
Ed
 1e-07 1 1 0
1  64 0 6.28318182879605 7.85398469725529
2  127 12 89 6.28318182879605 7.85398469725529
2  128 43 90 6.28318182879605 7.85398469725529
0

0101000
+204 91 -211 91 *
Wi

0101100
+203 0 -306 93 +202 94 -210 0 *
Fa
0  1e-07 12 0

0101000
+201 0 *
Ve
1.00000001776357e-07
13.9999997014104 -6.99998978320299 2.5
0 0

0101101
*
Ed
 1e-07 1 1 0
1  65 0 0 40.4999793480524
2  129 13 89 0 40.4999793480524
2  130 43 90 0 40.4999793480524
0

0101000
+204 91 -199 91 *
Ed
 1.00000001776357e-07 1 1 0
1  66 0 0 26.5
2  131 13 0 0 26.5
2  132 14 0 0 26.5
4 G1 13 0 14 0
0

0101000
+305 86 -199 86 *
Wi

0101100
+203 0 -304 93 +198 94 -197 0 *
Fa
0  1e-07 13 0

0101000
+196 0 *
Ve
1e-07
10.9999899810376 -9.99999999998425 2.5
0 0

0101101
*
Ed
 1e-07 1 1 0
1  67 0 0 26.5
2  133 14 0 0 26.5
2  134 15 0 0 26.5
4 G1 14 0 15 0
0

0101000
+303 86 -194 86 *
Ed
 1e-07 1 1 0
1  68 0 4.71238574025461 6.28318871277859
2  135 14 89 4.71238574025461 6.28318871277859
2  136 43 90 4.71238574025461 6.28318871277859
0

0101000
+194 91 -199 91 *
Wi

0101100
+193 0 -302 93 +192 94 -197 0 *
Fa
0  1e-07 14 0

0101000
+191 0 *
Ve
2.00001e-07
9.5 -9.99999999998411 19
0 0

0101101
*
Ed
 1e-07 1 1 0
1  69 0 -10 0
2  137 15 96 -10 0
2  138 16 0 -10 0
0

0101000
+189 98 -301 98 *
Ve
2.00001e-07
-9.5 -9.99999999998239 19
0 0

0101101
*
Ed
 1e-07 1 1 0
1  70 0 -4.00000500948106 14.9999949905189
2  139 15 96 -4.00000500948106 14.9999949905189
2  140 44 100 -4.00000500948106 14.9999949905189
0

0101000
+189 98 -187 98 *
Ed
 1e-07 1 1 0
1  71 0 0 10
2  141 15 96 0 10
2  142 32 0 0 10
0

0101000
+267 98 -187 98 *
Ve
1e-07
-10.9999899810376 -9.99999999998226 2.5
0 0

0101101
*
Ed
 1e-07 1 1 0
1  72 0 0 26.5
2  143 15 0 0 26.5
2  144 33 0 0 26.5
4 G1 15 0 33 0
0

0101000
+265 86 -184 86 *
Ed
 1e-07 1 1 0
1  73 0 0 21.9999799620751
2  145 15 89 0 21.9999799620751
2  146 43 90 0 21.9999799620751
0

0101000
+194 91 -184 91 *
Wi

0101100
-300 97 +188 0 -186 0 +185 0 -264 97 -183 96 +182 101 +193 96 *
Fa
0  1e-07 15 96

0111000
+181 0 *
Ve
1e-07
9.5 -10.9999999999823 19
0 0

0101101
*
Ed
 1e-07 1 1 0
1  74 0 -0 10
2  147 16 0 -0 10
2  148 17 103 -0 10
0

0101000
+299 98 -179 98 *
Ed
 1e-07 1 1 0
1  75 0 1.75054104485111 2.75054104484926
2  149 16 105 1.75054104485111 2.75054104484926
2  150 44 106 1.75054104485111 2.75054104484926
0

0101000
+189 107 -179 107 *
Wi

0101100
-298 102 -178 0 +177 104 -188 0 *
Fa
0  1e-07 16 0

0101000
+176 0 *
Ve
1e-07
12 -10.9999999999823 19
0 0

0101101
*
Ed
 1e-07 1 1 0
1  76 0 0 10
2  151 17 0 0 10
2  152 18 0 0 10
0

0101000
+297 109 -174 109 *
Ed
 1e-07 1 1 0
1  77 0 21.5 24
2  153 17 112 21.5 24
2  154 45 113 21.5 24
0

0101000
+179 114 -174 114 *
Wi

0101100
-296 108 -173 103 +172 111 +178 0 *
Fa
0  1e-07 17 103

0101000
+171 0 *
Ve
1e-07
12 -15.4999999999823 19
0 0

0101101
*
Ed
 1e-07 1 1 0
1  78 0 0 4.5
2  155 18 112 0 4.5
2  156 45 113 0 4.5
0

0101000
+174 114 -169 114 *
Ed
 1e-07 1 1 0
1  79 0 0 10
2  157 18 0 0 10
2  158 19 0 0 10
0

0101000
+295 109 -169 109 *
Wi

0101100
+173 0 -294 116 +168 117 -167 0 *
Fa
0  1e-07 18 0

0101000
+166 0 *
Ve
1e-07
9.5 -15.4999999999823 19
0 0

0101101
*
Ed
 1e-07 1 1 0
1  80 0 -10 0
2  159 19 103 -10 0
2  160 20 0 -10 0
0

0101000
+164 98 -293 98 *
Ed
 1e-07 1 1 0
1  81 0 0 2.5
2  161 19 112 0 2.5
2  162 45 113 0 2.5
0

0101000
+169 114 -164 114 *
Wi

0101100
-292 108 +163 0 +162 111 +167 103 *
Fa
0  1e-07 19 103

0101000
+161 0 *
Ve
2.00001e-07
9.5 -16.9999837514471 19
0 0

0101101
*
Ed
 1e-07 1 1 0
1  82 0 -10 0
2  163 20 0 -10 0
2  164 21 118 -10 0
0

0101000
+159 98 -291 98 *
Ed
 1e-07 1 1 0
1  83 0 7.25054104484926 8.75052479631415
2  165 20 105 7.25054104484926 8.75052479631415
2  166 46 106 7.25054104484926 8.75052479631415
0

0101000
+164 107 -159 107 *
Wi

0101100
-290 102 +158 0 +157 104 -163 0 *
Fa
0  1e-07 20 0

0101000
+156 0 *
Ve
2.00001e-07
5.01675465657966 -15.4999999999823 19
0 0

0101101
*
Ed
 1e-07 1 1 0
1  84 0 0.927294187221712 1.56856241213576
2  167 21 118 0.927294187221712 1.56856241213576
2  168 46 100 0.927294187221712 1.56856241213576
0

0101000
+159 98 -154 98 *
Ve
2.00001e-07
5.00000000000043 -15.499981286112 19
0 0

0101101
*
Ed
 1e-07 1 1 0
1  85 0 1.56856241213576 1.57079637144085
2  169 21 120 1.56856241213576 1.57079637144085
2  170 47 121 1.56856241213576 1.57079637144085
0

0101000
+154 109 -152 109 *
Ve
1e-07
5.00000000000043 -15.499981286112 14
0 0

0101101
*
Ed
 1e-07 1 1 0
1  86 0 10 15
2  171 21 0 10 15
2  172 48 0 10 15
4 G1 21 0 48 0
0

0101000
+152 122 -150 122 *
Ve
1e-07
12.4999894689846 -22.9999796081453 14
0 0

0101101
*
Ed
 1e-07 1 1 0
1  87 0 6.28318408212612 7.85398167862043
2  173 21 125 6.28318408212612 7.85398167862043
2  174 49 126 6.28318408212612 7.85398167862043
0

0101000
+148 127 -150 127 *
Ed
 1e-07 1 1 0
1  88 0 0 15
2  175 21 0 0 15
2  176 22 0 0 15
4 G1 21 0 22 0
0

0101000
+289 122 -148 122 *
Wi

0101100
-288 119 +158 0 -153 0 -151 103 -149 118 +147 124 +146 118 *
Fa
0  1e-07 21 118

0101000
+145 0 *
Ve
1e-07
12.500000712565 -31.9999796081586 14
0 0

0101101
*
Ed
 1e-07 1 1 0
1  89 0 0 15
2  177 22 0 0 15
2  178 23 0 0 15
4 G1 22 0 23 0
0

0101000
+287 122 -143 122 *
Ed
 1e-07 1 1 0
1  90 0 0 9.00000000002035
2  179 22 125 0 9.00000000002035
2  180 49 126 0 9.00000000002035
0

0101000
+143 127 -148 127 *
Wi

0101100
+142 0 -286 129 +141 130 -146 0 *
Fa
0  1e-07 22 0

0101000
+140 0 *
Ve
1e-07
9.5000001107669 -34.9999999999999 14
0 0

0101101
*
Ed
 1e-07 1 1 0
1  91 0 0 15
2  181 23 0 0 15
2  182 24 0 0 15
4 G1 23 0 24 0
0

0101000
+285 122 -138 122 *
Ed
 1e-07 1 1 0
1  92 0 4.71238877976221 6.28319210446006
2  183 23 125 4.71238877976221 6.28319210446006
2  184 49 126 4.71238877976221 6.28319210446006
0

0101000
+138 127 -143 127 *
Wi

0101100
+137 0 -284 129 +136 130 -142 0 *
Fa
0  1e-07 23 0

0101000
+135 0 *
Ve
1e-07
-9.5000001107669 -35 14
0 0

0101101
*
Ed
 1e-07 1 1 0
1  93 0 0 15
2  185 24 0 0 15
2  186 25 0 0 15
4 G1 24 0 25 0
0

0101000
+283 122 -133 122 *
Ed
 1e-07 1 1 0
1  94 0 0 19.0000002215338
2  187 24 125 0 19.0000002215338
2  188 49 126 0 19.0000002215338
0

0101000
+133 127 -138 127 *
Wi

0101100
+132 0 -282 129 +131 130 -137 0 *
Fa
0  1e-07 24 0

0101000
+130 0 *
Ve
1e-07
-12.4999999999993 -32.0000020576792 14
0 0

0101101
*
Ed
 1e-07 1 1 0
1  95 0 0 15
2  189 25 0 0 15
2  190 26 0 0 15
4 G1 25 0 26 0
0

0101000
+281 122 -128 122 *
Ed
 1e-07 1 1 0
1  96 0 3.14159333948287 4.71238894346238
2  191 25 125 3.14159333948287 4.71238894346238
2  192 49 126 3.14159333948287 4.71238894346238
0

0101000
+128 127 -133 127 *
Wi

0101100
+127 0 -280 129 +126 130 -132 0 *
Fa
0  1e-07 25 0

0101000
+125 0 *
Ve
1e-07
-12.5000112436382 -23.0000020576935 14
0 0

0101101
*
Ed
 1e-07 1 1 0
1  97 0 0 8.9999999999928
2  193 26 125 0 8.9999999999928
2  194 49 126 0 8.9999999999928
0

0101000
+128 127 -123 127 *
Ed
 1e-07 1 1 0
1  98 0 0 15
2  195 26 0 0 15
2  196 27 0 0 15
4 G1 26 0 27 0
0

0101000
+279 122 -123 122 *
Wi

0101100
+127 0 -278 129 +122 130 -121 0 *
Fa
0  1e-07 26 0

0101000
+120 0 *
Ve
2.00001e-07
-4.99999999999984 -15.499981286112 19
0 0

0101101
*
Ve
2.00001e-07
-5.01675443228925 -15.4999999999823 19
0 0

0101101
*
Ed
 1e-07 1 1 0
1  99 0 1.57079631533369 1.57303023817357
2  197 27 120 1.57079631533369 1.57303023817357
2  198 47 121 1.57079631533369 1.57303023817357
0

0101000
+118 109 -117 109 *
Ve
2.00001e-07
-9.5 -16.9999784322274 19
0 0

0101101
*
Ed
 1e-07 1 1 0
1  100 0 1.57303023817357 2.2142963054953
2  199 27 118 1.57303023817357 2.2142963054953
2  200 50 100 1.57303023817357 2.2142963054953
0

0101000
+117 98 -115 98 *
Ed
 1e-07 1 1 0
1  101 0 -10 0
2  201 27 118 -10 0
2  202 28 0 -10 0
0

0101000
+115 98 -277 98 *
Ve
1e-07
-4.99999999999984 -15.499981286112 14
0 0

0101101
*
Ed
 1e-07 1 1 0
1  102 0 1.57079631533369 3.14159393544069
2  203 27 125 1.57079631533369 3.14159393544069
2  204 49 126 1.57079631533369 3.14159393544069
0

0101000
+112 127 -123 127 *
Ed
 1e-07 1 1 0
1  103 0 10 15
2  205 27 0 10 15
2  206 48 0 10 15
4 G1 27 0 48 0
0

0101000
+118 122 -112 122 *
Wi

0101100
-116 103 -114 0 -113 0 -276 119 -121 118 +111 124 +110 118 *
Fa
0  1e-07 27 118

0101000
+109 0 *
Ve
1e-07
-9.5 -15.4999999999823 19
0 0

0101101
*
Ed
 1e-07 1 1 0
1  104 0 0 10
2  207 28 0 0 10
2  208 29 103 0 10
0

0101000
+275 98 -107 98 *
Ed
 1e-07 1 1 0
1  105 0 1.9162799011056 3.41625833335075
2  209 28 105 1.9162799011056 3.41625833335075
2  210 50 106 1.9162799011056 3.41625833335075
0

0101000
+115 107 -107 107 *
Wi

0101100
-274 102 -106 0 +105 104 -113 0 *
Fa
0  1e-07 28 0

0101000
+104 0 *
Ve
1e-07
-12 -15.4999999999823 19
0 0

0101101
*
Ed
 1e-07 1 1 0
1  106 0 0 10
2  211 29 0 0 10
2  212 30 0 0 10
0

0101000
+273 109 -102 109 *
Ed
 1e-07 1 1 0
1  107 0 21.5 24
2  213 29 112 21.5 24
2  214 51 113 21.5 24
0

0101000
+107 114 -102 114 *
Wi

0101100
-272 108 -101 103 +100 111 +106 0 *
Fa
0  1e-07 29 103

0101000
+99 0 *
Ve
1e-07
-12 -10.9999999999823 19
0 0

0101101
*
Ed
 1e-07 1 1 0
1  108 0 0 10
2  215 30 0 0 10
2  216 31 0 0 10
0

0101000
+271 109 -97 109 *
Ed
 1e-07 1 1 0
1  109 0 0 4.5
2  217 30 112 0 4.5
2  218 51 113 0 4.5
0

0101000
+97 114 -102 114 *
Wi

0101100
+96 0 -270 116 +95 117 -101 0 *
Fa
0  1e-07 30 0

0101000
+94 0 *
Ve
1e-07
-9.5 -10.9999999999823 19
0 0

0101101
*
Ed
 1e-07 1 1 0
1  110 0 -10 0
2  219 31 103 -10 0
2  220 32 0 -10 0
0

0101000
+92 98 -269 98 *
Ed
 1e-07 1 1 0
1  111 0 0 2.5
2  221 31 112 0 2.5
2  222 51 113 0 2.5
0

0101000
+97 114 -92 114 *
Wi

0101100
-268 108 +91 0 +90 111 +96 103 *
Fa
0  1e-07 31 103

0101000
+89 0 *
Ed
 1e-07 1 1 0
1  112 0 7.91625833335075 8.91625833335061
2  223 32 105 7.91625833335075 8.91625833335061
2  224 44 106 7.91625833335075 8.91625833335061
0

0101000
+92 107 -187 107 *
Wi

0101100
-266 102 -185 0 +87 104 -91 0 *
Fa
0  1e-07 32 0

0101000
+86 0 *
Ve
1e-07
-14.0000002985559 -6.99999011386042 2.5
0 0

0101101
*
Ed
 1e-07 1 1 0
1  113 0 0 26.5
2  225 33 0 0 26.5
2  226 34 0 0 26.5
4 G1 33 0 34 0
0

0101000
+263 86 -84 86 *
Ed
 1e-07 1 1 0
1  114 0 3.14158935820993 4.71239241956291
2  227 33 89 3.14158935820993 4.71239241956291
2  228 43 90 3.14158935820993 4.71239241956291
0

0101000
+84 91 -184 91 *
Wi

0101100
+83 0 -262 93 +82 94 -183 0 *
Fa
0  1e-07 33 0

0101000
+81 0 *
Ve
1e-07
-14.0000008291007 33.4999892341919 2.5
0 0

0101101
*
Ed
 1e-07 1 1 0
1  115 0 0 40.4999793480524
2  229 34 89 0 40.4999793480524
2  230 43 90 0 40.4999793480524
0

0101000
+84 91 -79 91 *
Ed
 1e-07 1 1 0
1  116 0 0 26.5
2  231 34 0 0 26.5
2  232 35 0 0 26.5
4 G1 34 0 35 0
0

0101000
+261 86 -79 86 *
Wi

0101100
+83 0 -260 93 +78 94 -77 0 *
Fa
0  1e-07 34 0

0101000
+76 0 *
Ed
 1e-07 1 1 0
1  117 0 1.57079271076741 3.14159624219248
2  233 35 89 1.57079271076741 3.14159624219248
2  234 43 90 1.57079271076741 3.14159624219248
0

0101000
+209 91 -79 91 *
Wi

0101100
+207 0 -258 93 +74 94 -77 0 *
Fa
0  1e-07 35 0

0101000
+73 0 *
Ve
1e-07
16.05 -37 27.9
0 0

0101101
*
Ed
 1e-07 1 1 0
1  118 0 0 1.1
3  235 236CN 36 0 0 1.1
0

0101000
+253 133 -71 133 *
Ed
 1e-07 1 1 0
1  119 0 0 6.28318530717959
2  237 36 136 0 6.28318530717959
2  238 52 137 0 6.28318530717959
0

0101000
+71 138 -71 138 *
Wi

0101100
-252 132 -70 0 +69 135 +70 0 *
Fa
0  1e-07 36 0

0101000
+68 0 *
Ve
1e-07
-12.95 -37 27.9
0 0

0101101
*
Ed
 1e-07 1 1 0
1  120 0 0 1.1
3  239 240CN 37 0 0 1.1
0

0101000
+250 133 -66 133 *
Ed
 1e-07 1 1 0
1  121 0 0 6.28318530717959
2  241 37 136 0 6.28318530717959
2  242 53 137 0 6.28318530717959
0

0101000
+66 138 -66 138 *
Wi

0101100
-249 132 -65 0 +64 135 +65 0 *
Fa
0  1e-07 37 0

0101000
+63 0 *
Ve
1e-07
-12.95 -18 27.9
0 0

0101101
*
Ed
 1e-07 1 1 0
1  122 0 0 1.1
3  243 244CN 38 0 0 1.1
0

0101000
+247 133 -61 133 *
Ed
 1e-07 1 1 0
1  123 0 0 6.28318530717959
2  245 38 136 0 6.28318530717959
2  246 54 137 0 6.28318530717959
0

0101000
+61 138 -61 138 *
Wi

0101100
-246 132 -60 0 +59 135 +60 0 *
Fa
0  1e-07 38 0

0101000
+58 0 *
Ve
1e-07
16.05 -18 27.9
0 0

0101101
*
Ed
 1e-07 1 1 0
1  124 0 0 1.1
3  247 248CN 39 0 0 1.1
0

0101000
+244 133 -56 133 *
Ed
 1e-07 1 1 0
1  125 0 0 6.28318530717959
2  249 39 136 0 6.28318530717959
2  250 55 137 0 6.28318530717959
0

0101000
+56 138 -56 138 *
Wi

0101100
-243 132 -55 0 +54 135 +55 0 *
Fa
0  1e-07 39 0

0101000
+53 0 *
Ve
1e-07
-12.95 37 27.9
0 0

0101101
*
Ed
 1e-07 1 1 0
1  126 0 0 1.1
3  251 252CN 40 0 0 1.1
0

0101000
+241 133 -51 133 *
Ed
 1e-07 1 1 0
1  127 0 0 6.28318530717959
2  253 40 136 0 6.28318530717959
2  254 56 137 0 6.28318530717959
0

0101000
+51 138 -51 138 *
Wi

0101100
-240 132 -50 0 +49 135 +50 0 *
Fa
0  1e-07 40 0

0101000
+48 0 *
Ve
1e-07
16.05 37 27.9
0 0

0101101
*
Ed
 1e-07 1 1 0
1  128 0 0 1.1
3  255 256CN 41 0 0 1.1
0

0101000
+238 133 -46 133 *
Ed
 1e-07 1 1 0
1  129 0 0 6.28318530717959
2  257 41 136 0 6.28318530717959
2  258 57 137 0 6.28318530717959
0

0101000
+46 138 -46 138 *
Wi

0101100
-237 132 -45 0 +44 135 +45 0 *
Fa
0  1e-07 41 0

0101000
+43 0 *
Wi

0101100
+214 0 *
Fa
0  1e-07 42 0

0111000
+41 38 *
Wi

0101100
+78 0 -74 0 +208 0 -202 0 +198 0 -192 0 +182 0 -82 0 *
Fa
0  1e-07 43 0

0111000
+39 51 *
Ed
 1e-07 1 1 0
1  130 0 2.5 21.5
2  259 44 141 2.5 21.5
2  260 47 113 2.5 21.5
0

0101000
+92 114 -179 114 *
Wi

0101100
+87 104 -37 111 +177 104 -186 0 *
Fa
0  1e-07 44 100

0101000
+36 0 *
Ed
 1e-07 1 1 0
1  131 0 2.75054104484926 7.25054104484926
2  261 45 143 2.75054104484926 7.25054104484926
2  262 47 143 2.75054104484926 7.25054104484926
0

0101000
+179 107 -164 107 *
Wi

0101100
-34 104 +162 111 +168 111 +172 111 *
Fa
0  1e-07 45 142

0101000
+33 0 *
Ed
 1e-07 1 1 0
1  132 0 2.5 6.98324534342034
2  263 46 141 2.5 6.98324534342034
2  264 47 113 2.5 6.98324534342034
0

0101000
+164 114 -154 114 *
Wi

0101100
-31 111 +153 0 +157 104 *
Fa
0  1e-07 46 100

0101000
+30 0 *
Ed
 1e-07 1 1 0
1  133 0 3.41625833335075 7.91625833335075
2  265 47 143 3.41625833335075 7.91625833335075
2  266 51 143 3.41625833335075 7.91625833335075
0

0101000
+107 107 -92 107 *
Ed
 1e-07 1 1 0
1  134 0 17.0167544322893 21.5
2  267 47 113 17.0167544322893 21.5
2  268 50 141 17.0167544322893 21.5
0

0101000
+117 114 -107 114 *
Ed
 1e-07 1 1 0
1  135 0 -2.49999999999992 7.50000000000035
2  269 47 121 -2.49999999999992 7.50000000000035
2  270 48 120 -2.49999999999992 7.50000000000035
0

0101000
+118 109 -152 109 *
Wi

0101100
+28 104 +27 111 +116 103 -26 103 +151 103 +31 111 +34 104 +37 111 *
Fa
0  1e-07 47 142

0101000
+25 0 *
Ed
 1e-07 1 1 0
1  136 0 0 10.0000000000003
2  271 48 125 0 10.0000000000003
2  272 49 126 0 10.0000000000003
0

0101000
+112 127 -150 127 *
Wi

0101100
-26 103 +110 118 -149 118 +23 124 *
Fa
0  1e-07 48 118

0101000
+22 0 *
Wi

0101100
+122 0 -111 0 +23 0 -147 0 -141 0 -136 0 -131 0 -126 0 *
Fa
0  1e-07 49 0

0111000
+20 66 *
Wi

0101100
+105 104 +114 0 -27 111 *
Fa
0  1e-07 50 100

0101000
+18 0 *
Wi

0101100
-95 111 +100 111 -28 104 +90 111 *
Fa
0  1e-07 51 142

0101000
+16 0 *
Wi

0101100
+69 0 *
Fa
0  1e-07 52 0

0101000
+14 71 *
Wi

0101100
+64 0 *
Fa
0  1e-07 53 0

0101000
+12 71 *
Wi

0101100
+59 0 *
Fa
0  1e-07 54 0

0101000
+10 71 *
Wi

0101100
+54 0 *
Fa
0  1e-07 55 0

0101000
+8 71 *
Wi

0101100
+49 0 *
Fa
0  1e-07 56 0

0101000
+6 71 *
Wi

0101100
+44 0 *
Fa
0  1e-07 57 0

0101000
+4 71 *
Sh

0101100
+330 4 +320 0 +315 43 -235 4 +230 4 +225 4 -222 4 +219 43 +217 43 -212 0 
+205 4 -200 92 +195 92 -190 92 +180 95 +175 95 +170 95 +165 115 +160 95 +155 95 
-144 95 -139 128 -134 128 -129 128 -124 128 +119 128 -108 95 +103 95 +98 95 -93 115 
+88 95 +85 95 -80 92 +75 92 -72 92 -67 131 -62 131 -57 131 -52 131 -47 131 
-42 131 +40 139 -38 140 -35 95 -32 95 -29 95 -24 95 +21 95 -19 144 -17 95 
-15 95 +13 145 +11 145 +9 145 +7 145 +5 145 +3 145 *
So

1100000
+2 0 *

+1 1 