DBRep_DrawableShape

CASCADE Topology V1, (c) Matra-Datavision
Locations 17
1
              1               0               0               0 
              0               1               0               0 
              0               0               1               0 
1
              1               0               0              -0 
              0               1               0              -0 
              0               0               1             -15 
1
              1               0               0               0 
              0               1               0               0 
              0               0               1               0 
1
              1               0               0               0 
              0               1               0               0 
              0               0               1               0 
1
              1               0               0               0 
              0               1               0               0 
              0               0               1               0 
1
              1               0               0               0 
              0               1               0               0 
              0               0               1               0 
2  1 -1 2 1 3 1 4 -1 5 1 6 -1 0
1
              1               0               0              -0 
              0               1               0               0 
              0               0               1            13.5 
2  8 1 1 -1 2 1 3 1 4 -1 5 1 6 -1 0
2  8 -1 0
2  6 1 5 -1 4 1 3 -1 2 -1 1 1 8 -1 0
1
              1               0               0              -0 
              0              -1               0              -0 
              0               0              -1            -2.5 
2  12 1 6 -1 0
2  6 1 12 -1 0
1
              1               0               0               0 
              0               1               0               0 
              0               0               1              11 
2  4 -1 15 1 5 1 12 -1 0
2  4 -1 15 1 5 1 6 -1 0
Curve2ds 12
1 4.9999960061042197 10.663465902600755 -0.99999999999867539 -1.6276946848046325e-06 
1 4.9999960061042197 10.663465902600755 -0.99999999999867539 -1.6276946848046325e-06 
2 -3.9939163559387778e-06 3.6634727882469065 -1 2.6825476110736978e-64 -2.6825476110736978e-64 -1 7
1 0 -0.99999999999999822 1 0 
2 -3.9939163559387778e-06 3.6634727882469065 -1 2.6825476110736978e-64 -2.6825476110736978e-64 -1 7
1 0 -0.99999999999999822 1 0 
2 -3.9939163559387778e-06 3.6634727882469065 -1 2.6825476110736978e-64 -2.6825476110736978e-64 -1 7
1 0 -0.99999999999999822 1 0 
1 0 0 1 0 
2 -6.8372006626971174e-16 3.5527136788005009e-15 -1 0 -0 -1 7
1 0 0 0 -1 
1 6.2831853071795862 0 0 -1 
Curves 6
1 -5.0000000000205755 -15.500006885646151 0 0.99999999999867539 -1.6276946848046325e-06 0 
2 0 -22.5 -1.5000000000000018 0 0 -1 1 0 0 0 -1 0 7
2 0 -22.5 -1.5000000000000018 0 0 -1 1 0 0 0 -1 0 7
2 0 -22.5 -1.5000000000000018 0 0 -1 1 0 0 0 -1 0 7
2 0 22.5 0 0 0 1 1 0 -0 -0 1 0 7
1 7 -22.5 -2.5 0 0 1 
Polygon3D 0
PolygonOnTriangulations 0
Surfaces 4
1 -3.9939163559387778e-06 -26.163472788246906 13.499999999999998 1.6385774144160173e-32 -1.6371198501047004e-32 -1 -1 0 -1.6385774144160173e-32 2.6825476110736978e-64 1 -1.6371198501047004e-32 
10 -931.50219382871126 931.50218584087861 -927.83871704654803 980.16566262304184
1 -3.9939163559387778e-06 -26.163472788246906 -1.5000000000000018 1.6385774144160173e-32 -1.6371198501047004e-32 -1 -1 0 -1.6385774144160173e-32 2.6825476110736978e-64 1 -1.6371198501047004e-32 
2 0 -22.5 -2.5 0 0 -1 1 0 0 0 -1 0 7
1 -6.8372006626971174e-16 -22.500000000000004 -13.5 -0 -0 -1 -1 0 0 0 1 -0 
Triangulations 0

TShapes 21
Ve
1.00001002006615e-07
-0.0144916257835037 -15.5000150005316 -1.5
0 0

0101101
*
Ve
1.00000001256764e-07
0.0145144134594525 -15.5000150477446 -1.5
0 0

0101101
*
Ed
 1e-07 1 1 0
1  1 0 4.98550837424368 5.01451441348667
2  1 1 10 4.98550837424368 5.01451441348667
2  2 2 11 4.98550837424368 5.01451441348667
0

0101000
+21 11 -20 11 *
Ve
2.00001e-07
7 -22.5 -1.5
0 0

0101101
*
Ed
 1e-07 1 1 0
1  2 0 0 4.71031874665111
2  3 1 7 0 4.71031874665111
2  4 3 0 0 4.71031874665111
0

0101000
+18 0 -21 0 *
Ed
 1e-07 1 1 0
1  3 0 4.71446246950753 6.28318530717959
2  5 1 7 4.71446246950753 6.28318530717959
2  6 3 0 4.71446246950753 6.28318530717959
0

0101000
+20 0 -18 0 *
Wi

0101100
+19 9 +17 0 +16 0 *
Fa
0  1e-07 1 7

0111000
+15 0 *
Ed
 1e-07 1 1 0
1  4 0 4.71031874665111 4.71446246950753
2  7 2 0 4.71031874665111 4.71446246950753
2  8 3 0 4.71031874665111 4.71446246950753
0

0101000
+21 0 -20 0 *
Wi

0101100
-19 9 +13 0 *
Fa
0  1e-07 2 0

0111000
+12 0 *
Ve
1e-07
7 -22.5 -2.5
0 0

0101101
*
Ed
 1e-07 1 1 0
1  5 0 0 6.28318530717959
2  9 3 14 0 6.28318530717959
2  10 4 16 0 6.28318530717959
0

0101000
+10 14 -10 14 *
Ed
 1e-07 1 1 0
1  6 0 0 0.999999999999998
3  11 12CN 3 0 0 0.999999999999998
0

0101000
+10 0 -18 0 *
Wi

0101100
-9 13 -8 0 +16 0 +13 0 +17 0 +8 0 *
Fa
0  1e-07 3 0

0111000
+7 0 *
Wi

0101100
+9 13 *
Fa
0  1e-07 4 17

0111000
+5 0 *
Sh

0101100
-14 0 -11 0 +6 0 +4 0 *
So

0100000
+3 0 *
Co

1100000
+2 0 *

+1 0 