DBRep_DrawableShape

CASCADE Topology V1, (c) Matra-Datavision
Locations 76
1
              1               0               0               0 
              0               1               0               0 
              0               0               1               0 
1
              1               0               0               0 
              0               1               0               0 
              0               0               1               0 
1
              1               0               0               0 
              0               1               0               0 
              0               0               1               0 
1
              1               0               0               0 
              0               1               0               0 
              0               0               1               0 
1
              1               0               0               0 
              0               1               0               0 
              0               0               1               0 
1
              1               0               0               0 
              0               1               0               0 
              0               0               1               0 
1
              1               0               0               0 
              0               1               0               0 
              0               0               1               0 
1
              1               0               0               0 
              0               1               0               0 
              0               0               1               0 
1
              1               0               0               0 
              0               1               0               0 
              0               0               1               0 
2  2 1 3 -1 4 1 5 -1 6 1 7 -1 8 1 9 -1 0
2  1 -1 9 1 8 -1 7 1 6 -1 5 1 4 -1 3 1 2 -1 0
1
              1               0               0               0 
              0               1               0               0 
              0               0               1               0 
1
              1               0               0               0 
              0               1               0               0 
              0               0               1               0 
1
              1               0               0              -0 
              0               1               0              -0 
              0               0               1           -13.5 
2  12 1 13 -1 14 1 0
2  14 -1 13 1 12 -1 0
2  12 -1 0
2  1 -1 9 1 8 -1 7 1 6 -1 5 1 4 -1 3 1 2 -1 14 -1 13 1 12 -1 0
1
              1               0               0               0 
              0               1               0               0 
              0               0               1              27 
2  12 1 13 -1 14 1 19 1 0
2  19 -1 14 -1 13 1 12 -1 0
2  1 -1 9 1 8 -1 7 1 6 -1 5 1 4 -1 3 1 2 -1 19 -1 14 -1 13 1 12 -1 0
2  8 1 9 -1 0
2  13 -1 14 1 2 1 3 -1 4 1 5 -1 6 1 7 -1 0
2  12 1 13 -1 14 1 2 1 3 -1 4 1 5 -1 6 1 7 -1 0
1
              1               0               0              -0 
              0              -1               0              -0 
              0               0              -1           -13.5 
2  26 1 7 -1 0
2  13 -1 14 1 2 1 3 -1 4 1 5 -1 6 1 26 -1 0
2  7 1 26 -1 0
2  1 -1 9 1 8 -1 7 1 26 -1 0
2  6 1 7 -1 8 1 9 -1 0
2  13 -1 14 1 19 1 2 1 3 -1 4 1 5 -1 0
2  12 1 13 -1 14 1 19 1 2 1 3 -1 4 1 5 -1 0
1
              1               0               0              -0 
              0               1               0               0 
              0               0               1            13.5 
2  34 1 5 -1 0
2  13 -1 14 1 19 1 2 1 3 -1 4 1 34 -1 0
2  5 1 34 -1 0
2  1 -1 9 1 8 -1 7 1 6 -1 5 1 34 -1 0
1
              1               0               0              -0 
              0               1               0               0 
              0               0               1            13.5 
2  39 1 3 -1 4 1 5 -1 0
2  13 -1 14 1 19 1 2 1 39 -1 0
2  3 1 39 -1 0
2  1 -1 9 1 8 -1 7 1 6 -1 5 1 4 -1 3 1 39 -1 0
2  1 -1 9 1 8 -1 0
1
              1               0               0               0 
              0               1               0               0 
              0               0               1              11 
2  26 1 7 -1 45 1 0
2  45 -1 7 1 26 -1 0
2  26 -1 0
2  1 -1 9 1 8 -1 45 -1 7 1 26 -1 0
2  1 -1 9 1 8 -1 7 1 6 -1 0
1
              1               0               0              -0 
              0               1               0              -0 
              0               0               1             -15 
2  34 1 5 -1 51 1 0
2  51 -1 5 1 34 -1 0
2  34 -1 0
2  1 -1 9 1 8 -1 7 1 6 -1 51 -1 5 1 34 -1 0
2  34 1 5 -1 6 1 7 -1 8 1 9 -1 0
2  34 1 5 -1 51 1 6 1 7 -1 8 1 9 -1 0
2  9 1 8 -1 7 1 6 -1 51 -1 5 1 34 -1 0
2  4 1 5 -1 6 1 7 -1 8 1 9 -1 0
2  1 -1 9 1 8 -1 7 1 6 -1 5 1 4 -1 0
2  39 1 3 -1 0
1
              1               0               0              -0 
              0               1               0              -0 
              0               0               1           -23.5 
2  39 1 3 -1 62 1 0
2  62 -1 3 1 39 -1 0
2  39 -1 0
2  1 -1 9 1 8 -1 7 1 6 -1 5 1 4 -1 62 -1 3 1 39 -1 0
2  7 -1 45 1 8 1 9 -1 0
2  26 1 7 -1 45 1 8 1 9 -1 0
1
              1               0               0              -0 
              0              -1               0              -0 
              0               0              -1            -2.5 
2  69 1 9 -1 0
2  7 -1 45 1 8 1 69 -1 0
2  9 1 69 -1 0
2  1 -1 9 1 69 -1 0
2  5 -1 51 1 6 1 7 -1 8 1 9 -1 0
2  1 -1 0
2  3 -1 62 1 4 1 5 -1 6 1 7 -1 8 1 9 -1 0
Curve2ds 104
1 0 0 0 -1 
1 80 0 0 -1 
1 35 0 0 -1 
1 0 0 0 -1 
1 0 0 1 0 
1 0 0 1 0 
1 0 -27 1 0 
1 0 0 1 0 
1 0 0 0 -1 
1 35 0 0 -1 
1 0 0 1 0 
1 0 -80 0 1 
1 0 -27 1 0 
1 0 -80 0 1 
1 80 0 0 -1 
1 0 -0 0 -1 
1 0 0 1 0 
1 35 0 0 -1 
1 0 -27 1 0 
1 35 0 0 -1 
1 35 -80 -1 0 
1 0 -0 1 0 
2 17.5 -62.5 1 0 0 -1 8
1 0 0 1 0 
1 35 -80 -1 0 
1 0 -27 1 0 
2 12.499987660767999 -62.999994546403997 1 0 -0 1 7.4999876607680003
1 0 0 1 0 
1 5.0000000000019824 -75 0 1 
1 0 0 1 0 
1 29.999999999918 -75 -1 0 
1 0 0 1 0 
1 29.999999999918 -75 0 1 
1 0 0 1 0 
2 22.499988019301 -63.000035143291996 1 0 -0 1 7.500011980699
1 0 0 1 0 
1 12.499999999979424 -55.500006885646151 0.99999999999867539 -1.6276946848046325e-06 
1 0 0 1 0 
1 3.5 -50 0 1 
1 0 0 1 0 
1 31.5 -50 -1 -6.3441315692866085e-17 
1 0 0 1 0 
1 3.5 -3.5 1 0 
1 0 0 1 0 
1 31.5 -3.5 0 -1 
1 0 0 1 0 
1 0 0 0 -1 
1 6.2831853071795862 0 0 -1 
1 0 -11 1 0 
2 -6.8372006626971174e-16 3.5527136788005009e-15 -1 0 -0 -1 8
1 1.5707946815639999 0 0 -1 
1 0 0 0 -1 
1 0 -15 1 0 
2 5.0000083453156439 3.1634782418429062 -1 2.6825476110736978e-64 2.6825476110736978e-64 1 7.4999876607680003
1 3.1415933807359999 0 0 -1 
1 12.000000000008214 0 0 -1 
1 0 0 0 -1 
1 24.999999999916017 0 0 -1 
1 0 -15 1 0 
1 12.499996006081661 -8.8365272117530935 0 1 
1 0 0 0 -1 
1 0 0 0 -1 
1 0 -15 1 0 
1 -12.500003993834357 -8.8365272117530935 1 -2.6825476110736978e-64 
1 0 -15 1 0 
1 -12.500003993834357 -8.8365272117530935 0 1 
1 12.00000000005414 0 0 -1 
1 4.6857720000000002e-06 0 0 -1 
1 0 -15 1 0 
2 -4.9999920132173559 3.1634376449549073 -1 2.6825476110736978e-64 2.6825476110736978e-64 1 7.500011980699
1 1.570794729368 0 0 -1 
1 10.000000000055755 0 0 -1 
1 0 -15 1 0 
1 4.9999960061042197 10.663465902600755 -0.99999999999867539 -1.6276946848046325e-06 
1 0 -15 1 0 
1 4.9999960061042197 10.663465902600755 -0.99999999999867539 -1.6276946848046325e-06 
1 0 -15 1 0 
1 4.9999960061042197 10.663465902600755 -0.99999999999867539 -1.6276946848046325e-06 
1 0 0 0 -1 
1 28 0 0 -1 
1 0 -23.5 1 0 
1 14 -23.25 0 1 
1 46.5 0 0 -1 
1 0 0 0 -1 
1 0 0 0 -1 
1 46.5 0 0 -1 
1 -0 -23.5 1 0 
1 -14 -23.25 1 -6.3441315692866085e-17 
1 0 -23.5 1 0 
1 14 23.25 -1 0 
1 28 0 0 -1 
1 0 0 0 -1 
1 0 -23.5 1 0 
1 -14 23.25 0 -1 
2 -6.8372006626971174e-16 3.5527136788005009e-15 -1 0 -0 -1 7
1 0 0 1 0 
2 -3.9939163559387778e-06 3.6634727882469065 -1 2.6825476110736978e-64 -2.6825476110736978e-64 -1 7
1 0 -0.99999999999999822 1 0 
2 -3.9939163559387778e-06 3.6634727882469065 -1 2.6825476110736978e-64 -2.6825476110736978e-64 -1 7
1 0 -0.99999999999999822 1 0 
2 -3.9939163559387778e-06 3.6634727882469065 -1 2.6825476110736978e-64 -2.6825476110736978e-64 -1 7
1 0 -0.99999999999999822 1 0 
1 0 0 0 -1 
1 6.2831853071795862 0 0 -1 
Curves 52
1 -17.5 40 -13.5 0 0 1 
1 17.5 40 -13.5 0 0 1 
1 -17.5 40 0 1 0 0 
1 -17.5 40 0 1 0 0 
1 -17.5 -40 -13.5 0 0 1 
1 -17.5 -40 0 0 1 0 
1 -17.5 -40 0 0 1 0 
1 17.5 -40 -13.5 0 0 1 
1 17.5 40 0 0 -1 0 
1 17.5 40 0 0 -1 0 
1 17.5 -40 0 -1 0 0 
2 0 22.5 0 0 0 1 1 0 -0 -0 1 0 8
1 17.5 -40 0 -1 0 0 
2 -5.0000123392319997 -22.999994546404 0 0 0 1 1 0 -0 -0 1 0 7.4999876607680003
1 -12.499999999998018 -35 0 0 1 0 
1 12.499999999918 -35 0 -1 0 0 
1 12.499999999918 -35 0 0 1 0 
2 4.999988019301 -23.000035143291999 0 0 0 1 1 0 -0 -0 1 0 7.500011980699
1 -5.0000000000205755 -15.500006885646151 0 0.99999999999867539 -1.6276946848046325e-06 0 
1 -14 -10.000000000000002 0 0 1 0 
1 14 -10 0 -1 -6.3441315692866085e-17 0 
1 -14 36.5 0 1 0 0 
1 14 36.5 0 0 -1 0 
1 8 -22.5 -13.5 0 0 1 
2 0 22.5 0 0 0 1 1 0 -0 -0 1 0 8
1 -5.0000000000205755 -15.500006885646151 13.5 -0 -0 -1 
2 -5.0000123392319997 -22.999994546404 0 0 0 1 1 0 -0 -0 1 0 7.4999876607680003
1 -12.499999999998018 -22.999999999991786 13.5 -0 -0 -1 
1 -12.499999999998018 -35 13.5 -0 -0 -1 
1 -12.499999999998018 -35 0 0 1 0 
1 12.499999999918 -35 13.5 -0 -0 -1 
1 12.499999999918 -35 0 -1 0 0 
1 12.499999999918 -35 0 0 1 0 
1 12.499999999917831 -22.99999999994586 13.5 -0 -0 -1 
2 4.999988019301 -23.000035143291999 0 0 0 1 1 0 -0 -0 1 0 7.500011980699
1 5.0000000000219309 -15.500023162597785 13.5 -0 -0 -1 
1 -5.0000000000205755 -15.500006885646151 0 0.99999999999867539 -1.6276946848046325e-06 0 
1 -5.0000000000205755 -15.500006885646151 0 0.99999999999867539 -1.6276946848046325e-06 0 
1 -5.0000000000205755 -15.500006885646151 0 0.99999999999867539 -1.6276946848046325e-06 0 
1 -14 -10.000000000000002 13.5 -0 -0 -1 
1 -14 -10.000000000000002 0 0 1 0 
1 -14 36.5 13.5 -0 -0 -1 
1 14 -10 13.5 -0 -0 -1 
1 14 -10 0 -1 -6.3441315692866085e-17 0 
1 -14 36.5 0 1 0 0 
1 14 36.5 13.5 -0 -0 -1 
1 14 36.5 0 0 -1 0 
2 0 22.5 0 0 0 1 1 0 -0 -0 1 0 7
2 0 -22.5 -1.5000000000000018 0 0 -1 1 0 0 0 -1 0 7
2 0 -22.5 -1.5000000000000018 0 0 -1 1 0 0 0 -1 0 7
2 0 -22.5 -1.5000000000000018 0 0 -1 1 0 0 0 -1 0 7
1 7 -22.5 -2.5 0 0 1 
Polygon3D 0
PolygonOnTriangulations 0
Surfaces 22
1 -17.5 40 -13.5 0 1 0 1 0 0 0 0 -1 
1 -17.5 -40 -13.5 -1 0 0 0 1 0 0 0 -1 
1 17.5 40 -13.5 1 0 -0 0 -1 0 0 -0 -1 
1 -17.5 40 0 -0 0 1 1 0 0 0 1 -0 
1 -17.5 40 0 -0 0 1 1 0 0 0 1 -0 
1 17.5 -40 -13.5 0 -1 0 -1 0 0 -0 -0 -1 
2 0 -22.5 -13.5 0 0 -1 1 0 0 0 -1 0 8
2 -5.0000123392319997 -22.999994546404 13.5 0 0 1 1 0 -0 -0 1 0 7.4999876607680003
1 -12.499999999998018 -35 13.5 1 0 0 -0 1 0 0 -0 1 
1 12.499999999918 -35 13.5 0 1 -0 -1 0 0 0 0 1 
1 12.499999999918 -35 13.5 1 0 0 -0 1 0 0 -0 1 
2 4.999988019301 -23.000035143291999 13.5 0 0 1 1 0 -0 -0 1 0 7.500011980699
1 -5.0000000000205755 -15.500006885646151 13.5 -1.6276946848046325e-06 -0.99999999999867539 0 0.99999999999867539 -1.6276946848046325e-06 0 0 0 1 
1 -14 -10.000000000000002 13.5 1 0 0 -0 1 0 0 -0 1 
1 14 -10 13.5 -6.3441315692866085e-17 1 0 -1 -6.3441315692866085e-17 0 0 0 1 
1 -14 36.5 13.5 0 -1 0 1 0 0 -0 0 1 
1 14 36.5 13.5 -1 0 0 0 -1 0 0 0 1 
1 -6.8372006626971174e-16 -22.500000000000004 -13.5 -0 -0 -1 -1 0 0 0 1 -0 
1 -3.9939163559387778e-06 -26.163472788246906 13.499999999999998 1.6385774144160173e-32 -1.6371198501047004e-32 -1 -1 0 -1.6385774144160173e-32 2.6825476110736978e-64 1 -1.6371198501047004e-32 
10 -931.50219382871126 931.50218584087861 -927.83871704654803 980.16566262304184
1 -3.9939163559387778e-06 -26.163472788246906 -1.5000000000000018 1.6385774144160173e-32 -1.6371198501047004e-32 -1 -1 0 -1.6385774144160173e-32 2.6825476110736978e-64 1 -1.6371198501047004e-32 
1 0 13.25 13.5 -0 -0 -1 -1 0 0 0 1 -0 
2 0 -22.5 -2.5 0 0 -1 1 0 0 0 -1 0 7
Triangulations 0

TShapes 137
Ve
1e-07
-17.5 40 -13.5
0 0

0101101
*
Ve
1e-07
-17.5 40 13.5
0 0

0101101
*
Ed
 1e-07 1 1 0
1  1 0 0 27
2  1 1 0 0 27
2  2 2 0 0 27
0

0101000
+137 11 -136 11 *
Ve
1e-07
17.5 40 -13.5
0 0

0101101
*
Ve
1e-07
17.5 40 13.5
0 0

0101101
*
Ed
 1e-07 1 1 0
1  2 0 0 27
2  3 1 0 0 27
2  4 3 0 0 27
0

0101000
+134 11 -133 11 *
Ed
 1e-07 1 1 0
1  3 0 0 35
2  5 1 16 0 35
2  6 4 17 0 35
0

0101000
+137 18 -134 18 *
Ed
 1e-07 1 1 0
1  4 0 0 35
2  7 1 21 0 35
2  8 5 17 0 35
0

0101000
+136 22 -133 22 *
Wi

0101000
+135 0 -132 0 -131 15 +130 20 *
Fa
0  1e-07 1 0

0111000
+129 0 *
Ve
1e-07
-17.5 -40 -13.5
0 0

0101101
*
Ve
1e-07
-17.5 -40 13.5
0 0

0101101
*
Ed
 1e-07 1 1 0
1  5 0 0 27
2  9 2 0 0 27
2  10 6 0 0 27
0

0101000
+127 11 -126 11 *
Ed
 1e-07 1 1 0
1  6 0 0 80
2  11 2 16 0 80
2  12 4 17 0 80
0

0101000
+127 18 -137 18 *
Ed
 1e-07 1 1 0
1  7 0 0 80
2  13 2 21 0 80
2  14 5 17 0 80
0

0101000
+126 22 -136 22 *
Wi

0101000
+125 0 -135 0 -124 15 +123 20 *
Fa
0  1e-07 2 0

0111000
+122 0 *
Ve
1e-07
17.5 -40 -13.5
0 0

0101101
*
Ve
1e-07
17.5 -40 13.5
0 0

0101101
*
Ed
 1e-07 1 1 0
1  8 0 0 27
2  15 3 0 0 27
2  16 6 0 0 27
0

0101000
+120 11 -119 11 *
Ed
 1e-07 1 1 0
1  9 0 0 80
2  17 3 16 0 80
2  18 4 17 0 80
0

0101000
+134 18 -120 18 *
Ed
 1e-07 1 1 0
1  10 0 0 80
2  19 3 21 0 80
2  20 5 17 0 80
0

0101000
+133 22 -119 22 *
Wi

0101000
+132 0 -118 0 -117 15 +116 20 *
Fa
0  1e-07 3 0

0111000
+115 0 *
Ed
 1e-07 1 1 0
1  11 0 0 35
2  21 4 17 0 35
2  22 6 16 0 35
0

0101000
+120 18 -127 18 *
Wi

0101100
-131 25 -124 25 -117 25 -113 25 *
Ve
1e-07
8 -22.5 -13.5
0 0

0101101
*
Ed
 1e-07 1 1 0
1  12 0 0 6.28318530717959
2  23 4 28 0 6.28318530717959
2  24 7 29 0 6.28318530717959
0

0101000
+111 30 -111 30 *
Wi

0101100
+110 27 *
Fa
0  1e-07 4 24

0111000
+112 0 +109 0 *
Ed
 1e-07 1 1 0
1  13 0 0 35
2  25 5 17 0 35
2  26 6 21 0 35
0

0101000
+119 22 -126 22 *
Wi

0101100
-130 33 -123 33 -116 33 -107 33 *
Ve
1e-07
-5.00000000002058 -15.5000068856462 13.5
0 0

0101101
*
Ve
1.00000211386464e-07
-12.499999999998 -22.9999999999918 13.5
0 0

0101101
*
Ed
 1e-07 1 1 0
1  14 0 1.570794681564 3.141593380736
2  27 5 36 1.570794681564 3.141593380736
2  28 8 37 1.570794681564 3.141593380736
0

0101000
+105 38 -104 38 *
Ve
1e-07
-12.499999999998 -35 13.5
0 0

0101101
*
Ed
 1e-07 1 1 0
1  15 0 0 12.000000000008
2  29 5 36 0 12.000000000008
2  30 9 37 0 12.000000000008
0

0101000
+102 38 -104 38 *
Ve
1e-07
12.499999999918 -35 13.5
0 0

0101101
*
Ed
 1e-07 1 1 0
1  16 0 0 24.999999999916
2  31 5 36 0 24.999999999916
2  32 10 37 0 24.999999999916
0

0101000
+100 38 -102 38 *
Ve
1.000001687539e-07
12.4999999999178 -22.9999999999459 13.5
0 0

0101101
*
Ed
 1e-07 1 1 0
1  17 0 0 12.0000000000541
2  33 5 36 0 12.0000000000541
2  34 11 37 0 12.0000000000541
0

0101000
+100 38 -98 38 *
Ve
1.0000478511226e-07
5.00000000002193 -15.5000231625978 13.5
0 0

0101101
*
Ed
 1e-07 1 1 0
1  18 0 4.685772e-06 1.570794729368
2  35 5 36 4.685772e-06 1.570794729368
2  36 12 37 4.685772e-06 1.570794729368
0

0101000
+98 38 -96 38 *
Ed
 1e-07 1 1 0
1  19 0 0 10.0000000000558
2  37 5 36 0 10.0000000000558
2  38 13 37 0 10.0000000000558
0

0101000
+105 38 -96 38 *
Wi

0101100
-103 35 +101 35 +99 35 -97 35 -95 35 +94 35 *
Ve
1e-07
-14 -10 13.5
0 0

0101101
*
Ve
1e-07
-14 36.5 13.5
0 0

0101101
*
Ed
 1e-07 1 1 0
1  20 0 0 46.5
2  39 5 41 0 46.5
2  40 14 42 0 46.5
0

0101000
+92 43 -91 43 *
Ve
1e-07
14 -10 13.5
0 0

0101101
*
Ed
 1e-07 1 1 0
1  21 0 0 28
2  41 5 41 0 28
2  42 15 42 0 28
0

0101000
+89 43 -92 43 *
Ve
1e-07
14 36.5 13.5
0 0

0101101
*
Ed
 1e-07 1 1 0
1  22 0 0 28
2  43 5 41 0 28
2  44 16 42 0 28
0

0101000
+91 43 -87 43 *
Ed
 1e-07 1 1 0
1  23 0 0 46.5
2  45 5 41 0 46.5
2  46 17 42 0 46.5
0

0101000
+87 43 -89 43 *
Wi

0101100
+90 40 +88 40 +86 40 +85 40 *
Fa
0  1e-07 5 32

0111000
+106 0 +93 0 +84 0 *
Wi

0101000
+118 0 -125 0 -113 15 +107 20 *
Fa
0  1e-07 6 0

0111000
+82 0 *
Ve
1e-07
8 -22.5 -2.5
0 0

0101101
*
Ed
 1e-07 1 1 0
1  24 0 0 11
3  47 48CN 7 0 0 11
0

0101000
+111 44 -80 44 *
Ed
 1e-07 1 1 0
1  25 0 0 6.28318530717959
2  49 7 47 0 6.28318530717959
2  50 18 48 0 6.28318530717959
0

0101000
+80 49 -80 49 *
Wi

0101100
-110 27 -79 0 +78 46 +79 0 *
Fa
0  1e-07 7 0

0111000
+77 0 *
Ve
1e-07
-5.00000000002058 -15.5000068856462 -1.5
0 0

0101101
*
Ed
 1e-07 1 1 0
1  26 0 0 15
2  51 8 0 0 15
2  52 13 0 0 15
4 G1 8 0 13 0
0

0101000
+105 50 -75 50 *
Ve
1.00000211386464e-07
-12.499999999998 -22.9999999999918 -1.5
0 0

0101101
*
Ed
 1e-07 1 1 0
1  27 0 1.570794681564 3.141593380736
2  53 8 53 1.570794681564 3.141593380736
2  54 19 54 1.570794681564 3.141593380736
0

0101000
+75 55 -73 55 *
Ed
 1.00000211386464e-07 1 1 0
1  28 0 0 15
2  55 8 0 0 15
2  56 9 0 0 15
4 G1 8 0 9 0
0

0101000
+104 50 -73 50 *
Wi

0101100
+74 0 -103 35 +72 52 -71 0 *
Fa
0  1e-07 8 0

0111000
+70 0 *
Ve
1e-07
-12.499999999998 -35 -1.5
0 0

0101101
*
Ed
 1e-07 1 1 0
1  29 0 0 15
2  57 9 0 0 15
2  58 10 0 0 15
0

0101000
+102 50 -68 50 *
Ed
 1e-07 1 1 0
1  30 0 0 12.000000000008
2  59 9 53 0 12.000000000008
2  60 19 54 0 12.000000000008
0

0101000
+68 55 -73 55 *
Wi

0101100
+67 0 -101 35 +66 52 -71 0 *
Fa
0  1e-07 9 0

0111000
+65 0 *
Ve
1e-07
12.499999999918 -35 -1.5
0 0

0101101
*
Ed
 1e-07 1 1 0
1  31 0 0 15
2  61 10 0 0 15
2  62 11 0 0 15
0

0101000
+100 50 -63 50 *
Ed
 1e-07 1 1 0
1  32 0 0 24.999999999916
2  63 10 53 0 24.999999999916
2  64 19 54 0 24.999999999916
0

0101000
+63 55 -68 55 *
Wi

0101100
+62 0 -99 35 +61 52 -67 0 *
Fa
0  1e-07 10 0

0111000
+60 0 *
Ve
1.000001687539e-07
12.4999999999178 -22.9999999999459 -1.5
0 0

0101101
*
Ed
 1e-07 1 1 0
1  33 0 0 12.0000000000541
2  65 11 53 0 12.0000000000541
2  66 19 54 0 12.0000000000541
0

0101000
+63 55 -58 55 *
Ed
 1.000001687539e-07 1 1 0
1  34 0 0 15
2  67 11 0 0 15
2  68 12 0 0 15
4 G1 11 0 12 0
0

0101000
+98 50 -58 50 *
Wi

0101100
+62 0 -97 35 +57 52 -56 0 *
Fa
0  1e-07 11 0

0111000
+55 0 *
Ve
1.0000478511226e-07
5.00000000002193 -15.5000231625978 -1.5
0 0

0101101
*
Ed
 1e-07 1 1 0
1  35 0 4.685772e-06 1.570794729368
2  69 12 53 4.685772e-06 1.570794729368
2  70 19 54 4.685772e-06 1.570794729368
0

0101000
+58 55 -53 55 *
Ed
 1.0000478511226e-07 1 1 0
1  36 0 0 15
2  71 12 0 0 15
2  72 13 0 0 15
4 G1 12 0 13 0
0

0101000
+96 50 -53 50 *
Wi

0101100
+56 0 -95 35 +52 52 -51 0 *
Fa
0  1e-07 12 0

0111000
+50 0 *
Ve
1.00001002006615e-07
-0.0144916257835037 -15.5000150005316 -1.5
0 0

0101101
*
Ed
 1e-07 1 1 0
1  37 0 0 4.98550837424368
2  73 13 53 0 4.98550837424368
2  74 19 54 0 4.98550837424368
0

0101000
+75 55 -48 55 *
Ve
1.00001016248603e-07
0.0145144134594525 -15.5000150477446 -1.5
0 0

0101101
*
Ed
 1e-07 1 1 0
1  38 0 4.98550837424368 5.01451441348667
2  75 13 53 4.98550837424368 5.01451441348667
2  76 20 58 4.98550837424368 5.01451441348667
0

0101000
+48 55 -46 55 *
Ed
 1e-07 1 1 0
1  39 0 5.01451441348667 10.0000000000558
2  77 13 53 5.01451441348667 10.0000000000558
2  78 19 54 5.01451441348667 10.0000000000558
0

0101000
+46 55 -53 55 *
Wi

0101100
+74 31 -94 56 +47 57 -51 31 +45 57 +44 57 *
Fa
0  1e-07 13 31

0111000
+43 0 *
Ve
1e-07
-14 -10 -10
0 0

0101101
*
Ed
 1e-07 1 1 0
1  40 0 0 23.5
2  79 14 0 0 23.5
2  80 15 0 0 23.5
0

0101000
+92 60 -41 60 *
Ve
1e-07
-14 36.5 -10
0 0

0101101
*
Ed
 1e-07 1 1 0
1  41 0 0 46.5
2  81 14 64 0 46.5
2  82 21 65 0 46.5
0

0101000
+41 66 -39 66 *
Ed
 1e-07 1 1 0
1  42 0 0 23.5
2  83 14 0 0 23.5
2  84 16 0 0 23.5
0

0101000
+91 60 -39 60 *
Wi

0101100
+40 0 -90 61 +38 63 -37 0 *
Fa
0  1e-07 14 0

0111000
+36 0 *
Ve
1e-07
14 -10 -10
0 0

0101101
*
Ed
 1e-07 1 1 0
1  43 0 0 23.5
2  85 15 0 0 23.5
2  86 17 0 0 23.5
0

0101000
+89 60 -34 60 *
Ed
 1e-07 1 1 0
1  44 0 0 28
2  87 15 64 0 28
2  88 21 65 0 28
0

0101000
+34 66 -41 66 *
Wi

0101100
+33 0 -88 61 +32 63 -40 0 *
Fa
0  1e-07 15 0

0111000
+31 0 *
Ve
1e-07
14 36.5 -10
0 0

0101101
*
Ed
 1e-07 1 1 0
1  45 0 0 28
2  89 16 64 0 28
2  90 21 65 0 28
0

0101000
+39 66 -29 66 *
Ed
 1e-07 1 1 0
1  46 0 0 23.5
2  91 16 0 0 23.5
2  92 17 0 0 23.5
0

0101000
+87 60 -29 60 *
Wi

0101100
+37 0 -86 61 +28 63 -27 0 *
Fa
0  1e-07 16 0

0111000
+26 0 *
Ed
 1e-07 1 1 0
1  47 0 0 46.5
2  93 17 64 0 46.5
2  94 21 65 0 46.5
0

0101000
+29 66 -34 66 *
Wi

0101100
+27 0 -85 61 +24 63 -33 0 *
Fa
0  1e-07 17 0

0111000
+23 0 *
Wi

0101100
+78 68 *
Ve
1e-07
7 -22.5 -2.5
0 0

0101101
*
Ed
 1e-07 1 1 0
1  48 0 0 6.28318530717959
2  95 18 71 0 6.28318530717959
2  96 22 72 0 6.28318530717959
0

0101000
+20 73 -20 73 *
Wi

0101100
-19 70 *
Fa
0  1e-07 18 67

0111000
+21 0 +18 0 *
Ve
2.00001e-07
7 -22.5 -1.5
0 0

0101101
*
Ed
 1e-07 1 1 0
1  49 0 4.71446246950753 6.28318530717959
2  97 19 74 4.71446246950753 6.28318530717959
2  98 22 0 4.71446246950753 6.28318530717959
0

0101000
+46 75 -16 75 *
Ed
 1e-07 1 1 0
1  50 0 0 4.71031874665111
2  99 19 74 0 4.71031874665111
2  100 22 0 0 4.71031874665111
0

0101000
+16 75 -48 75 *
Wi

0101100
-57 57 -52 57 +44 57 -15 0 -14 0 +47 57 -72 57 +66 57 +61 57 *
Fa
0  1e-07 19 74

0111000
+13 0 *
Ed
 1e-07 1 1 0
1  51 0 4.71031874665111 4.71446246950753
2  101 20 0 4.71031874665111 4.71446246950753
2  102 22 0 4.71031874665111 4.71446246950753
0

0101000
+48 75 -46 75 *
Wi

0101100
-45 57 +11 0 *
Fa
0  1e-07 20 0

0111000
+10 0 *
Wi

0101100
+28 0 +24 0 +32 0 +38 0 *
Fa
0  1e-07 21 0

0111000
+8 39 *
Ed
 1e-07 1 1 0
1  52 0 0 0.999999999999998
3  103 104CN 22 0 0 0.999999999999998
0

0101000
+20 75 -16 75 *
Wi

0101100
-6 0 +15 0 +11 0 +14 0 +6 0 -19 70 *
Fa
0  1e-07 22 0

0111000
+5 0 *
Sh

0101100
+128 10 +121 10 +114 10 -108 23 +83 31 +81 10 -76 23 -69 31 +64 31 +59 31 
-54 31 -49 31 +42 0 +35 59 +30 59 +25 59 +22 59 +17 0 -12 0 +9 0 
-7 76 -4 0 *
So

0100000
+3 0 *
Co

1100000
+2 0 *

+1 1 