DBRep_DrawableShape

CASCADE Topology V1, (c) Matra-Datavision
Locations 100
1
              1               0               0               0 
              0               1               0               0 
              0               0               1               0 
1
              1               0               0               0 
              0               1               0               0 
              0               0               1               0 
1
              1               0               0               0 
              0               1               0               0 
              0               0               1               0 
1
              1               0               0               0 
              0               1               0               0 
              0               0               1               0 
1
              1               0               0               0 
              0               1               0               0 
              0               0               1               0 
1
              1               0               0               0 
              0               1               0               0 
              0               0               1               0 
1
              1               0               0               0 
              0               1               0               0 
              0               0               1               0 
1
              1               0               0               0 
              0               1               0               0 
              0               0               1               0 
2  2 1 3 -1 4 1 5 -1 6 1 7 1 8 1 0
1
              1               0               0               0 
              0               1               0               0 
              0               0               1               0 
1
              1               0               0              -0 
              0               1               0              -0 
              0               0               1           -13.5 
1
              1               0               0               0 
              0               1               0               0 
              0               0               1              27 
1
              1               0               0               0 
              0               1               0               0 
              0               0               1               0 
1
              1               0               0               0 
              0               1               0               0 
              0               0               1               0 
1
              1               0               0               0 
              0               1               0               0 
              0               0               1               0 
1
              1               0               0               0 
              0               1               0               0 
              0               0               1               0 
2  10 -1 11 1 12 1 13 1 14 -1 15 1 16 -1 0
2  8 -1 7 -1 6 -1 5 1 4 -1 3 1 2 -1 0
1
              1               0               0              -0 
              0               1               0               0 
              0               0               1            13.5 
2  19 1 14 -1 15 1 16 -1 2 1 3 -1 4 1 5 -1 6 1 7 1 8 1 0
2  10 -1 11 1 12 1 13 1 19 -1 0
2  14 1 19 -1 0
2  1 -1 8 -1 7 -1 6 -1 5 1 4 -1 3 1 2 -1 16 1 15 -1 14 1 19 -1 0
2  10 -1 11 1 12 1 13 1 14 -1 15 1 16 -1 2 1 3 -1 4 1 5 -1 6 1 7 1 8 1 0
2  1 -1 0
2  10 -1 11 1 12 1 13 1 14 -1 15 1 16 -1 2 1 3 -1 4 1 5 -1 6 1 7 1 0
2  1 -1 8 -1 0
2  7 1 8 1 0
2  10 -1 11 1 12 1 13 1 14 -1 15 1 16 -1 2 1 3 -1 4 1 5 -1 6 1 0
2  1 -1 8 -1 7 -1 0
1
              1               0               0               0 
              0               1               0               0 
              0               0               1               0 
2  31 1 10 -1 11 1 12 1 13 1 14 -1 15 1 16 -1 0
2  31 -1 0
2  12 -1 11 -1 10 1 31 -1 0
2  1 -1 8 -1 7 -1 6 -1 5 1 4 -1 3 1 2 -1 16 1 15 -1 14 1 13 -1 12 -1 11 -1 10 1 31 -1 0
1
              1               0               0              -0 
              0               1               0               0 
              0               0               1            13.5 
2  36 1 16 -1 0
2  10 -1 11 1 12 1 13 1 14 -1 15 1 36 -1 0
2  16 1 36 -1 0
2  1 -1 8 -1 7 -1 6 -1 5 1 4 -1 3 1 2 -1 16 1 36 -1 0
2  15 1 16 -1 2 1 3 -1 4 1 5 -1 6 1 7 1 8 1 0
2  8 -1 7 -1 6 -1 5 1 4 -1 3 1 2 -1 16 1 15 -1 0
2  15 1 16 -1 2 1 3 -1 4 1 5 -1 6 1 7 1 0
1
              1               0               0              -0 
              0               1               0              -0 
              0               0               1           -23.5 
2  19 1 14 -1 44 1 15 1 16 -1 2 1 3 -1 4 1 5 -1 6 1 7 1 8 1 0
2  44 -1 14 1 19 -1 0
2  19 -1 0
2  1 -1 8 -1 7 -1 6 -1 5 1 4 -1 3 1 2 -1 16 1 15 -1 44 -1 14 1 19 -1 0
2  14 -1 44 1 15 1 16 -1 2 1 3 -1 4 1 5 -1 6 1 7 1 8 1 0
2  14 -1 44 1 15 1 16 -1 2 1 3 -1 4 1 5 -1 6 1 7 1 0
2  1 -1 8 -1 7 -1 6 -1 5 1 4 -1 3 1 2 -1 16 1 15 -1 0
2  7 -1 6 -1 5 1 4 -1 3 1 2 -1 16 1 15 -1 0
2  19 1 14 -1 15 1 16 -1 2 1 3 -1 4 1 5 -1 6 1 7 1 0
2  15 1 16 -1 2 1 3 -1 4 1 5 -1 6 1 0
2  19 1 14 -1 44 1 15 1 16 -1 2 1 3 -1 4 1 5 -1 6 1 7 1 0
2  6 -1 5 1 4 -1 3 1 2 -1 16 1 15 -1 0
2  19 1 14 -1 15 1 16 -1 2 1 3 -1 4 1 5 -1 6 1 0
2  19 1 14 -1 44 1 15 1 16 -1 2 1 3 -1 4 1 5 -1 6 1 0
2  14 -1 44 1 15 1 16 -1 2 1 3 -1 4 1 5 -1 6 1 0
2  13 1 14 -1 15 1 16 -1 2 1 3 -1 4 1 5 -1 6 1 7 1 8 1 0
2  1 -1 8 -1 7 -1 6 -1 5 1 4 -1 3 1 2 -1 16 1 15 -1 14 1 13 -1 0
2  31 1 10 -1 11 1 0
2  11 -1 10 1 31 -1 0
2  1 -1 8 -1 7 -1 6 -1 5 1 4 -1 3 1 2 -1 16 1 15 -1 14 1 13 -1 11 -1 10 1 31 -1 0
2  31 1 10 -1 11 1 12 1 0
2  1 -1 8 -1 7 -1 6 -1 5 1 4 -1 3 1 2 -1 0
1
              1               0               0              -0 
              0               1               0              -0 
              0               0               1             -15 
2  36 1 16 -1 67 1 0
2  67 -1 16 1 36 -1 0
2  36 -1 0
2  1 -1 8 -1 7 -1 6 -1 5 1 4 -1 3 1 2 -1 67 -1 16 1 36 -1 0
2  6 1 7 1 8 1 0
2  2 1 3 -1 4 1 5 -1 0
2  36 1 16 -1 2 1 3 -1 4 1 5 -1 0
2  36 1 16 -1 67 1 2 1 3 -1 4 1 5 -1 0
2  5 1 4 -1 3 1 2 -1 67 -1 16 1 36 -1 0
2  8 -1 7 -1 6 -1 5 1 4 -1 3 1 2 -1 16 1 15 -1 44 -1 14 1 0
2  4 1 5 -1 6 1 7 1 8 1 0
2  10 -1 11 1 13 1 14 -1 15 1 16 -1 2 1 3 -1 0
2  31 1 10 -1 11 1 13 1 14 -1 15 1 16 -1 2 1 3 -1 0
1
              1               0               0              -0 
              0              -1               0              -0 
              0               0              -1           -13.5 
2  81 1 3 -1 0
2  10 -1 11 1 13 1 14 -1 15 1 16 -1 2 1 81 -1 0
2  3 1 81 -1 0
2  1 -1 8 -1 7 -1 6 -1 5 1 4 -1 3 1 81 -1 0
2  16 -1 67 1 2 1 3 -1 4 1 5 -1 0
2  1 -1 8 -1 7 -1 6 -1 0
2  1 -1 8 -1 7 -1 6 -1 5 1 4 -1 0
1
              1               0               0               0 
              0               1               0               0 
              0               0               1              11 
2  81 1 3 -1 89 1 0
2  89 -1 3 1 81 -1 0
2  81 -1 0
2  1 -1 8 -1 7 -1 6 -1 5 1 4 -1 89 -1 3 1 81 -1 0
1
              1               0               0              -0 
              0              -1               0              -0 
              0               0              -1            -2.5 
2  94 1 5 -1 0
2  5 1 94 -1 0
2  3 -1 89 1 4 1 94 -1 0
2  1 -1 8 -1 7 -1 6 -1 5 1 94 -1 0
2  3 -1 89 1 4 1 5 -1 0
2  81 1 3 -1 89 1 4 1 5 -1 0
Curve2ds 122
1 3.5 -50 0 1 
1 0 0 1 0 
2 6.5 -47 0 1 -1 0 3
1 -1.5707963267948966 0 1 0 
2 6.5 -6.5 0 1 -1 0 3
1 0 0 1 0 
1 31.5 -50 -1 -6.3441315692866085e-17 
1 0 0 1 0 
1 3.5 -3.5 1 0 
1 0 0 1 0 
1 31.5 -3.5 0 -1 
1 0 0 1 0 
2 28.5 -6.5 0 1 1 -0 3
1 0 0 1 0 
1 0 0 1 0 
1 0 -27 1 0 
1 0 -80 0 1 
1 0 -27 1 0 
1 35 0 0 -1 
1 0 -27 1 0 
1 35 -80 -1 0 
1 0 -27 1 0 
2 12.499987660767999 -62.999994546403997 1 0 -0 1 7.4999876607680003
1 0 0 1 0 
1 5.0000000000019824 -75 0 1 
1 0 0 1 0 
1 29.999999999918 -75 -1 0 
1 0 0 1 0 
1 29.999999999918 -75 0 1 
1 0 0 1 0 
2 22.499988019301 -63.000035143291996 1 0 -0 1 7.500011980699
1 0 0 1 0 
1 12.499999999979424 -55.500006885646151 0.99999999999867539 -1.6276946848046325e-06 
1 0 0 1 0 
1 3 0 -0 -1 
1 0 0 0 1 
1 43.5 0 -0 -1 
1 1.5707963267948966 0 0 1 
1 0 -23.5 1 0 
1 14 -23.25 0 1 
1 1.5707963267948968 0 0 1 
1 25 0 0 -1 
1 -1.5707963267948966 23.5 1 0 
2 11 -20.25 0 1 1 -0 3
1 0 0 0 1 
1 3 0 -0 -1 
1 0 23.5 1 0 
2 11 20.25 0 1 1 -0 3
1 0 0 0 -1 
1 46.5 0 0 -1 
1 -0 -23.5 1 0 
1 -14 -23.25 1 -6.3441315692866085e-17 
1 25 0 -0 -1 
1 0 0 0 1 
1 0 -23.5 1 0 
1 14 23.25 -1 0 
1 3 0 0 -1 
1 1.5707963267948966 0 0 1 
1 0 -23.5 1 0 
1 -14 23.25 0 -1 
1 0 23.5 1 0 
2 -11 20.25 0 1 -1 0 3
1 0 0 0 -1 
1 80 0 0 -1 
1 35 0 0 -1 
1 0 0 0 -1 
1 0 0 1 0 
1 0 0 1 0 
1 0 0 0 -1 
1 35 0 0 -1 
1 0 0 1 0 
1 0 -80 0 1 
1 80 0 0 -1 
1 0 -0 0 -1 
1 0 0 1 0 
1 35 0 0 -1 
1 0 -0 1 0 
1 35 -80 -1 0 
1 1.5707946815639999 0 0 -1 
1 0 0 0 -1 
1 0 -15 1 0 
2 5.0000083453156439 3.1634782418429062 -1 2.6825476110736978e-64 2.6825476110736978e-64 1 7.4999876607680003
1 3.1415933807359999 0 0 -1 
1 12.000000000008214 0 0 -1 
1 0 0 0 -1 
1 24.999999999916017 0 0 -1 
1 0 -15 1 0 
1 12.499996006081661 -8.8365272117530935 0 1 
1 0 0 0 -1 
1 0 0 0 -1 
1 0 -15 1 0 
1 -12.500003993834357 -8.8365272117530935 1 -2.6825476110736978e-64 
1 0 -15 1 0 
1 -12.500003993834357 -8.8365272117530935 0 1 
1 12.00000000005414 0 0 -1 
1 4.6857720000000002e-06 0 0 -1 
1 0 -15 1 0 
2 -4.9999920132173559 3.1634376449549073 -1 2.6825476110736978e-64 2.6825476110736978e-64 1 7.500011980699
1 1.570794729368 0 0 -1 
1 10.000000000055755 0 0 -1 
1 0 -15 1 0 
1 4.9999960061042197 10.663465902600755 -0.99999999999867539 -1.6276946848046325e-06 
1 0 -15 1 0 
1 4.9999960061042197 10.663465902600755 -0.99999999999867539 -1.6276946848046325e-06 
1 0 -15 1 0 
1 4.9999960061042197 10.663465902600755 -0.99999999999867539 -1.6276946848046325e-06 
2 17.5 -62.5 1 0 0 -1 8
1 0 0 1 0 
2 -3.9939163559387778e-06 3.6634727882469065 -1 2.6825476110736978e-64 -2.6825476110736978e-64 -1 7
1 0 -0.99999999999999822 1 0 
2 -3.9939163559387778e-06 3.6634727882469065 -1 2.6825476110736978e-64 -2.6825476110736978e-64 -1 7
1 0 -0.99999999999999822 1 0 
2 -3.9939163559387778e-06 3.6634727882469065 -1 2.6825476110736978e-64 -2.6825476110736978e-64 -1 7
1 0 -0.99999999999999822 1 0 
1 0 0 0 -1 
1 6.2831853071795862 0 0 -1 
1 0 -11 1 0 
2 -6.8372006626971174e-16 3.5527136788005009e-15 -1 0 -0 -1 8
1 0 0 0 -1 
1 6.2831853071795862 0 0 -1 
1 0 0 1 0 
2 -6.8372006626971174e-16 3.5527136788005009e-15 -1 0 -0 -1 7
Curves 61
1 -14 -10.000000000000002 0 0 1 0 
8 1.5707963267948966 3.1415926535897931
2 -11 -7.0000000000000018 13.5 0 0 1 0 1 -0 -1 0 0 3
8 0 1.5707963267948966
2 -11 33.5 13.5 0 0 1 0 1 -0 -1 0 0 3
1 14 -10 0 -1 -6.3441315692866085e-17 0 
1 -14 36.5 0 1 0 0 
1 14 36.5 0 0 -1 0 
8 0 1.5707963267948966
2 11 33.5 13.5 -0 -0 -1 0 1 -0 1 -0 0 3
1 -17.5 40 0 1 0 0 
1 -17.5 -40 0 0 1 0 
1 17.5 40 0 0 -1 0 
1 17.5 -40 0 -1 0 0 
2 -5.0000123392319997 -22.999994546404 0 0 0 1 1 0 -0 -0 1 0 7.4999876607680003
1 -12.499999999998018 -35 0 0 1 0 
1 12.499999999918 -35 0 -1 0 0 
1 12.499999999918 -35 0 0 1 0 
2 4.999988019301 -23.000035143291999 0 0 0 1 1 0 -0 -0 1 0 7.500011980699
1 -5.0000000000205755 -15.500006885646151 0 0.99999999999867539 -1.6276946848046325e-06 0 
1 -14 -7.0000000000000018 13.5 -0 -0 -1 
1 -14 33.5 13.5 -0 -0 -1 
1 -14 -10.000000000000002 0 0 1 0 
1 -11 -10.000000000000002 13.5 -0 -0 -1 
8 1.5707963267948966 3.1415926535897931
2 -11 -7.0000000000000018 -10 0 0 1 0 1 -0 -1 0 0 3
1 -11 36.5 13.5 -0 -0 -1 
8 0 1.5707963267948966
2 -11 33.5 -10 0 0 1 0 1 -0 -1 0 0 3
1 14 -10 13.5 -0 -0 -1 
1 14 -10 0 -1 -6.3441315692866085e-17 0 
1 11 36.5 13.5 -0 -0 -1 
1 -14 36.5 0 1 0 0 
1 14 33.5 13.5 -0 -0 -1 
1 14 36.5 0 0 -1 0 
8 0 1.5707963267948966
2 11 33.5 -10 -0 -0 -1 0 1 -0 1 -0 0 3
1 -17.5 40 -13.5 0 0 1 
1 17.5 40 -13.5 0 0 1 
1 -17.5 40 0 1 0 0 
1 -17.5 -40 -13.5 0 0 1 
1 -17.5 -40 0 0 1 0 
1 17.5 -40 -13.5 0 0 1 
1 17.5 40 0 0 -1 0 
1 17.5 -40 0 -1 0 0 
1 -5.0000000000205755 -15.500006885646151 13.5 -0 -0 -1 
2 -5.0000123392319997 -22.999994546404 0 0 0 1 1 0 -0 -0 1 0 7.4999876607680003
1 -12.499999999998018 -22.999999999991786 13.5 -0 -0 -1 
1 -12.499999999998018 -35 13.5 -0 -0 -1 
1 -12.499999999998018 -35 0 0 1 0 
1 12.499999999918 -35 13.5 -0 -0 -1 
1 12.499999999918 -35 0 -1 0 0 
1 12.499999999918 -35 0 0 1 0 
1 12.499999999917831 -22.99999999994586 13.5 -0 -0 -1 
2 4.999988019301 -23.000035143291999 0 0 0 1 1 0 -0 -0 1 0 7.500011980699
1 5.0000000000219309 -15.500023162597785 13.5 -0 -0 -1 
1 -5.0000000000205755 -15.500006885646151 0 0.99999999999867539 -1.6276946848046325e-06 0 
1 -5.0000000000205755 -15.500006885646151 0 0.99999999999867539 -1.6276946848046325e-06 0 
1 -5.0000000000205755 -15.500006885646151 0 0.99999999999867539 -1.6276946848046325e-06 0 
2 0 22.5 0 0 0 1 1 0 -0 -0 1 0 8
2 0 -22.5 -1.5000000000000018 0 0 -1 1 0 0 0 -1 0 7
2 0 -22.5 -1.5000000000000018 0 0 -1 1 0 0 0 -1 0 7
2 0 -22.5 -1.5000000000000018 0 0 -1 1 0 0 0 -1 0 7
1 8 -22.5 -13.5 0 0 1 
2 0 22.5 0 0 0 1 1 0 -0 -0 1 0 8
1 7 -22.5 -2.5 0 0 1 
2 0 22.5 0 0 0 1 1 0 -0 -0 1 0 7
Polygon3D 0
PolygonOnTriangulations 0
Surfaces 25
1 -17.5 40 0 -0 0 1 1 0 0 0 1 -0 
1 -14 -10.000000000000002 13.5 1 0 0 -0 1 0 0 -0 1 
2 -11 -7.0000000000000018 13.5 -0 -0 -1 -1 0 0 -0 -1 0 3
2 -11 33.5 13.5 -0 -0 -1 0 1 -0 -1 0 -0 3
1 14 -10 13.5 -6.3441315692866085e-17 1 0 -1 -6.3441315692866085e-17 0 0 0 1 
1 -14 36.5 13.5 0 -1 0 1 0 0 -0 0 1 
1 14 36.5 13.5 -1 0 0 0 -1 0 0 0 1 
2 11 33.5 13.5 -0 -0 -1 0 1 -0 1 -0 0 3
1 -17.5 40 -13.5 0 1 0 1 0 0 0 0 -1 
1 -17.5 -40 -13.5 -1 0 0 0 1 0 0 0 -1 
1 17.5 40 -13.5 1 0 -0 0 -1 0 0 -0 -1 
1 17.5 -40 -13.5 0 -1 0 -1 0 0 -0 -0 -1 
2 -5.0000123392319997 -22.999994546404 13.5 0 0 1 1 0 -0 -0 1 0 7.4999876607680003
1 -12.499999999998018 -35 13.5 1 0 0 -0 1 0 0 -0 1 
1 12.499999999918 -35 13.5 0 1 -0 -1 0 0 0 0 1 
1 12.499999999918 -35 13.5 1 0 0 -0 1 0 0 -0 1 
2 4.999988019301 -23.000035143291999 13.5 0 0 1 1 0 -0 -0 1 0 7.500011980699
1 -5.0000000000205755 -15.500006885646151 13.5 -1.6276946848046325e-06 -0.99999999999867539 0 0.99999999999867539 -1.6276946848046325e-06 0 0 0 1 
1 0 13.25 13.5 -0 -0 -1 -1 0 0 0 1 -0 
1 -17.5 40 0 -0 0 1 1 0 0 0 1 -0 
1 -3.9939163559387778e-06 -26.163472788246906 13.499999999999998 1.6385774144160173e-32 -1.6371198501047004e-32 -1 -1 0 -1.6385774144160173e-32 2.6825476110736978e-64 1 -1.6371198501047004e-32 
10 -931.50219382871126 931.50218584087861 -927.83871704654803 980.16566262304184
1 -3.9939163559387778e-06 -26.163472788246906 -1.5000000000000018 1.6385774144160173e-32 -1.6371198501047004e-32 -1 -1 0 -1.6385774144160173e-32 2.6825476110736978e-64 1 -1.6371198501047004e-32 
2 0 -22.5 -13.5 0 0 -1 1 0 0 0 -1 0 8
2 0 -22.5 -2.5 0 0 -1 1 0 0 0 -1 0 7
1 -6.8372006626971174e-16 -22.500000000000004 -13.5 -0 -0 -1 -1 0 0 0 1 -0 
Triangulations 0

TShapes 158
Ve
1e-07
-14 -7 13.5
0 0

0101101
*
Ve
1e-07
-14 33.5 13.5
0 0

0101101
*
Ed
 1e-07 1 1 0
1  1 0 3 43.5
2  1 1 21 3 43.5
2  2 2 22 3 43.5
0

0101000
+158 23 -157 23 *
Ve
1e-07
-11 -10 13.5
0 0

0101101
*
Ed
 1e-07 1 1 0
1  2 0 1.5707963267949 3.14159265358979
2  3 1 24 1.5707963267949 3.14159265358979
2  4 3 0 1.5707963267949 3.14159265358979
0

0101000
+158 25 -155 25 *
Ve
1e-07
-11 36.5 13.5
0 0

0101101
*
Ed
 1e-07 1 1 0
1  3 0 0 1.5707963267949
2  5 1 26 0 1.5707963267949
2  6 4 0 0 1.5707963267949
0

0101000
+153 27 -157 27 *
Ve
1e-07
14 -10 13.5
0 0

0101101
*
Ed
 1e-07 1 1 0
1  4 0 0 25
2  7 1 21 0 25
2  8 5 22 0 25
0

0101000
-155 23 +151 23 *
Ve
1e-07
11 36.5 13.5
0 0

0101101
*
Ed
 1e-07 1 1 0
1  5 0 3 25
2  9 1 21 3 25
2  10 6 22 3 25
0

0101000
+153 23 -149 23 *
Ve
1e-07
14 33.5 13.5
0 0

0101101
*
Ed
 1e-07 1 1 0
1  6 0 3 46.5
2  11 1 21 3 46.5
2  12 7 22 3 46.5
0

0101000
+147 23 -151 23 *
Ed
 1e-07 1 1 0
1  7 0 0 1.5707963267949
2  13 1 29 0 1.5707963267949
2  14 8 0 0 1.5707963267949
0

0101000
+149 30 -147 30 *
Wi

0101100
+156 20 -154 0 -152 8 +150 20 +148 20 +146 20 +145 28 *
Ve
1e-07
-17.5 40 13.5
0 0

0101101
*
Ve
1e-07
17.5 40 13.5
0 0

0101101
*
Ed
 1e-07 1 1 0
1  8 0 0 35
2  15 1 33 0 35
2  16 9 34 0 35
0

0101000
+143 35 -142 35 *
Ve
1e-07
-17.5 -40 13.5
0 0

0101101
*
Ed
 1e-07 1 1 0
1  9 0 0 80
2  17 1 33 0 80
2  18 10 34 0 80
0

0101000
+140 35 -143 35 *
Ve
1e-07
17.5 -40 13.5
0 0

0101101
*
Ed
 1e-07 1 1 0
1  10 0 0 80
2  19 1 33 0 80
2  20 11 34 0 80
0

0101000
+142 35 -138 35 *
Ed
 1e-07 1 1 0
1  11 0 0 35
2  21 1 33 0 35
2  22 12 34 0 35
0

0101000
+138 35 -140 35 *
Wi

0101100
-141 32 -139 32 -137 32 -136 32 *
Ve
1e-07
-5.00000000002058 -15.5000068856462 13.5
0 0

0101101
*
Ve
1.00000211386464e-07
-12.499999999998 -22.9999999999918 13.5
0 0

0101101
*
Ed
 1e-07 1 1 0
1  12 0 1.570794681564 3.141593380736
2  23 1 38 1.570794681564 3.141593380736
2  24 13 39 1.570794681564 3.141593380736
0

0101000
+134 40 -133 40 *
Ve
1e-07
-12.499999999998 -35 13.5
0 0

0101101
*
Ed
 1e-07 1 1 0
1  13 0 0 12.000000000008
2  25 1 38 0 12.000000000008
2  26 14 39 0 12.000000000008
0

0101000
+131 40 -133 40 *
Ve
1e-07
12.499999999918 -35 13.5
0 0

0101101
*
Ed
 1e-07 1 1 0
1  14 0 0 24.999999999916
2  27 1 38 0 24.999999999916
2  28 15 39 0 24.999999999916
0

0101000
+129 40 -131 40 *
Ve
1.000001687539e-07
12.4999999999178 -22.9999999999459 13.5
0 0

0101101
*
Ed
 1e-07 1 1 0
1  15 0 0 12.0000000000541
2  29 1 38 0 12.0000000000541
2  30 16 39 0 12.0000000000541
0

0101000
+129 40 -127 40 *
Ve
1.0000478511226e-07
5.00000000002193 -15.5000231625978 13.5
0 0

0101101
*
Ed
 1e-07 1 1 0
1  16 0 4.685772e-06 1.570794729368
2  31 1 38 4.685772e-06 1.570794729368
2  32 17 39 4.685772e-06 1.570794729368
0

0101000
+127 40 -125 40 *
Ed
 1e-07 1 1 0
1  17 0 0 10.0000000000558
2  33 1 38 0 10.0000000000558
2  34 18 39 0 10.0000000000558
0

0101000
+134 40 -125 40 *
Wi

0101100
-132 37 +130 37 +128 37 -126 37 -124 37 +123 37 *
Fa
0  1e-07 1 17

0111000
+144 18 +135 0 +122 0 *
Ve
1e-07
-14 -7 -10
0 0

0101101
*
Ed
 1e-07 1 1 0
1  18 0 0 23.5
2  35 2 41 0 23.5
2  36 3 0 0 23.5
4 G1 2 41 3 0
0

0101000
+158 25 -120 25 *
Ve
1e-07
-14 33.5 -10
0 0

0101101
*
Ed
 1e-07 1 1 0
1  19 0 -0 23.5
2  37 2 43 -0 23.5
2  38 4 0 -0 23.5
4 G1 2 43 4 0
0

0101000
+157 27 -118 27 *
Ed
 1e-07 1 1 0
1  20 0 3 43.5
2  39 2 46 3 43.5
2  40 19 47 3 43.5
0

0101000
+120 48 -118 48 *
Wi

0101100
-156 20 +119 0 -117 8 +116 45 *
Fa
0  1e-07 2 0

0111000
+115 42 *
Ve
1e-07
-11 -10 -10
0 0

0101101
*
Ed
 1e-07 1 1 0
1  21 0 -0 23.5
2  41 3 0 -0 23.5
2  42 5 41 -0 23.5
4 G1 3 0 5 41
0

0101000
+155 25 -113 25 *
Ed
 1e-07 1 1 0
1  22 0 1.5707963267949 3.14159265358979
2  43 3 0 1.5707963267949 3.14159265358979
2  44 19 49 1.5707963267949 3.14159265358979
0

0101000
+120 25 -113 25 *
Wi

0101100
+154 0 -119 0 +112 0 -111 0 *
Fa
0  1e-07 3 0

0111000
+110 0 *
Ve
1e-07
-11 36.5 -10
0 0

0101101
*
Ed
 1e-07 1 1 0
1  23 0 -0 23.5
2  45 4 0 -0 23.5
2  46 6 43 -0 23.5
4 G1 4 0 6 43
0

0101000
+153 27 -108 27 *
Ed
 1e-07 1 1 0
1  24 0 0 1.5707963267949
2  47 4 0 0 1.5707963267949
2  48 19 50 0 1.5707963267949
0

0101000
+108 27 -118 27 *
Wi

0101100
+152 0 -107 0 +117 0 -106 0 *
Fa
0  1e-07 4 0

0111000
+105 0 *
Ve
1e-07
14 -10 -10
0 0

0101101
*
Ed
 1e-07 1 1 0
1  25 0 0 23.5
2  49 5 0 0 23.5
2  50 7 0 0 23.5
0

0101000
+151 51 -103 51 *
Ed
 1e-07 1 1 0
1  26 0 0 25
2  51 5 46 0 25
2  52 19 47 0 25
0

0101000
-113 48 +103 48 *
Wi

0101100
-150 20 -112 0 +102 41 +101 45 *
Fa
0  1e-07 5 0

0111000
+100 42 *
Ve
1e-07
11 36.5 -10
0 0

0101101
*
Ed
 1e-07 1 1 0
1  27 0 -0 23.5
2  53 6 54 -0 23.5
2  54 8 0 -0 23.5
4 G1 6 54 8 0
0

0101000
+149 30 -98 30 *
Ed
 1e-07 1 1 0
1  28 0 3 25
2  55 6 46 3 25
2  56 19 47 3 25
0

0101000
+108 48 -98 48 *
Wi

0101100
-148 53 +107 0 -97 7 +96 55 *
Fa
0  1e-07 6 0

0111000
+95 52 *
Ve
1e-07
14 33.5 -10
0 0

0101101
*
Ed
 1e-07 1 1 0
1  29 0 -0 23.5
2  57 7 54 -0 23.5
2  58 8 0 -0 23.5
4 G1 7 54 8 0
0

0101000
+147 30 -93 30 *
Ed
 1e-07 1 1 0
1  30 0 3 46.5
2  59 7 46 3 46.5
2  60 19 47 3 46.5
0

0101000
+93 48 -103 48 *
Wi

0101100
-146 57 +92 0 -102 54 +91 58 *
Fa
0  1e-07 7 0

0111000
+90 56 *
Ed
 1e-07 1 1 0
1  31 0 0 1.5707963267949
2  61 8 0 0 1.5707963267949
2  62 19 59 0 1.5707963267949
0

0101000
+98 30 -93 30 *
Wi

0101100
+145 0 -97 0 +92 0 -88 0 *
Fa
0  1e-07 8 0

0111000
+87 0 *
Ve
1e-07
-17.5 40 -13.5
0 0

0101101
*
Ed
 1e-07 1 1 0
1  32 0 0 27
2  63 9 0 0 27
2  64 10 0 0 27
0

0101000
+85 61 -143 61 *
Ve
1e-07
17.5 40 -13.5
0 0

0101101
*
Ed
 1e-07 1 1 0
1  33 0 0 27
2  65 9 0 0 27
2  66 11 0 0 27
0

0101000
+83 61 -142 61 *
Ed
 1e-07 1 1 0
1  34 0 0 35
2  67 9 63 0 35
2  68 20 33 0 35
0

0101000
+85 64 -83 64 *
Wi

0101000
+84 0 -82 0 -81 62 +141 65 *
Fa
0  1e-07 9 0

0111000
+80 0 *
Ve
1e-07
-17.5 -40 -13.5
0 0

0101101
*
Ed
 1e-07 1 1 0
1  35 0 0 27
2  69 10 0 0 27
2  70 12 0 0 27
0

0101000
+78 61 -140 61 *
Ed
 1e-07 1 1 0
1  36 0 0 80
2  71 10 63 0 80
2  72 20 33 0 80
0

0101000
+78 64 -85 64 *
Wi

0101000
+77 0 -84 0 -76 62 +139 65 *
Fa
0  1e-07 10 0

0111000
+75 0 *
Ve
1e-07
17.5 -40 -13.5
0 0

0101101
*
Ed
 1e-07 1 1 0
1  37 0 0 27
2  73 11 0 0 27
2  74 12 0 0 27
0

0101000
+73 61 -138 61 *
Ed
 1e-07 1 1 0
1  38 0 0 80
2  75 11 63 0 80
2  76 20 33 0 80
0

0101000
+83 64 -73 64 *
Wi

0101000
+82 0 -72 0 -71 62 +137 65 *
Fa
0  1e-07 11 0

0111000
+70 0 *
Ed
 1e-07 1 1 0
1  39 0 0 35
2  77 12 63 0 35
2  78 20 33 0 35
0

0101000
+73 64 -78 64 *
Wi

0101000
+72 0 -77 0 -68 62 +136 65 *
Fa
0  1e-07 12 0

0111000
+67 0 *
Ve
1e-07
-5.00000000002058 -15.5000068856462 -1.5
0 0

0101101
*
Ed
 1e-07 1 1 0
1  40 0 0 15
2  79 13 0 0 15
2  80 18 0 0 15
4 G1 13 0 18 0
0

0101000
+134 66 -65 66 *
Ve
1.00000211386464e-07
-12.499999999998 -22.9999999999918 -1.5
0 0

0101101
*
Ed
 1e-07 1 1 0
1  41 0 1.570794681564 3.141593380736
2  81 13 69 1.570794681564 3.141593380736
2  82 21 70 1.570794681564 3.141593380736
0

0101000
+65 71 -63 71 *
Ed
 1.00000211386464e-07 1 1 0
1  42 0 0 15
2  83 13 0 0 15
2  84 14 0 0 15
4 G1 13 0 14 0
0

0101000
+133 66 -63 66 *
Wi

0101100
+64 0 -132 37 +62 68 -61 0 *
Fa
0  1e-07 13 0

0111000
+60 0 *
Ve
1e-07
-12.499999999998 -35 -1.5
0 0

0101101
*
Ed
 1e-07 1 1 0
1  43 0 0 15
2  85 14 0 0 15
2  86 15 0 0 15
0

0101000
+131 66 -58 66 *
Ed
 1e-07 1 1 0
1  44 0 0 12.000000000008
2  87 14 69 0 12.000000000008
2  88 21 70 0 12.000000000008
0

0101000
+58 71 -63 71 *
Wi

0101100
+57 0 -130 37 +56 68 -61 0 *
Fa
0  1e-07 14 0

0111000
+55 0 *
Ve
1e-07
12.499999999918 -35 -1.5
0 0

0101101
*
Ed
 1e-07 1 1 0
1  45 0 0 15
2  89 15 0 0 15
2  90 16 0 0 15
0

0101000
+129 66 -53 66 *
Ed
 1e-07 1 1 0
1  46 0 0 24.999999999916
2  91 15 69 0 24.999999999916
2  92 21 70 0 24.999999999916
0

0101000
+53 71 -58 71 *
Wi

0101100
+52 0 -128 37 +51 68 -57 0 *
Fa
0  1e-07 15 0

0111000
+50 0 *
Ve
1.000001687539e-07
12.4999999999178 -22.9999999999459 -1.5
0 0

0101101
*
Ed
 1e-07 1 1 0
1  47 0 0 12.0000000000541
2  93 16 69 0 12.0000000000541
2  94 21 70 0 12.0000000000541
0

0101000
+53 71 -48 71 *
Ed
 1.000001687539e-07 1 1 0
1  48 0 0 15
2  95 16 0 0 15
2  96 17 0 0 15
4 G1 16 0 17 0
0

0101000
+127 66 -48 66 *
Wi

0101100
+52 0 -126 37 +47 68 -46 0 *
Fa
0  1e-07 16 0

0111000
+45 0 *
Ve
1.0000478511226e-07
5.00000000002193 -15.5000231625978 -1.5
0 0

0101101
*
Ed
 1e-07 1 1 0
1  49 0 4.685772e-06 1.570794729368
2  97 17 69 4.685772e-06 1.570794729368
2  98 21 70 4.685772e-06 1.570794729368
0

0101000
+48 71 -43 71 *
Ed
 1.0000478511226e-07 1 1 0
1  50 0 0 15
2  99 17 0 0 15
2  100 18 0 0 15
4 G1 17 0 18 0
0

0101000
+125 66 -43 66 *
Wi

0101100
+46 0 -124 37 +42 68 -41 0 *
Fa
0  1e-07 17 0

0111000
+40 0 *
Ve
1.00001002006615e-07
-0.0144916257835037 -15.5000150005316 -1.5
0 0

0101101
*
Ed
 1e-07 1 1 0
1  51 0 0 4.98550837424368
2  101 18 69 0 4.98550837424368
2  102 21 70 0 4.98550837424368
0

0101000
+65 71 -38 71 *
Ve
1.00001016248603e-07
0.0145144134594525 -15.5000150477446 -1.5
0 0

0101101
*
Ed
 1e-07 1 1 0
1  52 0 4.98550837424368 5.01451441348667
2  103 18 69 4.98550837424368 5.01451441348667
2  104 22 76 4.98550837424368 5.01451441348667
0

0101000
+38 71 -36 71 *
Ed
 1e-07 1 1 0
1  53 0 5.01451441348667 10.0000000000558
2  105 18 69 5.01451441348667 10.0000000000558
2  106 21 70 5.01451441348667 10.0000000000558
0

0101000
+36 71 -43 71 *
Wi

0101100
+64 73 -123 74 +37 75 -41 73 +35 75 +34 75 *
Fa
0  1e-07 18 73

0111000
+33 0 *
Wi

0101100
+116 45 -111 0 -106 8 +101 45 +96 45 +91 45 +88 28 *
Fa
0  1e-07 19 0

0111000
+31 77 *
Wi

0101100
-81 80 -76 80 -71 80 -68 80 *
Ve
1e-07
8 -22.5 -13.5
0 0

0101101
*
Ed
 1e-07 1 1 0
1  54 0 0 6.28318530717959
2  107 20 83 0 6.28318530717959
2  108 23 84 0 6.28318530717959
0

0101000
+28 85 -28 85 *
Wi

0101100
+27 82 *
Fa
0  1e-07 20 79

0111000
+29 0 +26 0 *
Ve
2.00001e-07
7 -22.5 -1.5
0 0

0101101
*
Ed
 1e-07 1 1 0
1  55 0 4.71446246950753 6.28318530717959
2  109 21 86 4.71446246950753 6.28318530717959
2  110 24 0 4.71446246950753 6.28318530717959
0

0101000
+36 87 -24 87 *
Ed
 1e-07 1 1 0
1  56 0 0 4.71031874665111
2  111 21 86 0 4.71031874665111
2  112 24 0 0 4.71031874665111
0

0101000
+24 87 -38 87 *
Wi

0101100
-47 75 -42 75 +34 75 -23 0 -22 0 +37 75 -62 75 +56 75 +51 75 *
Fa
0  1e-07 21 86

0111000
+21 0 *
Ed
 1e-07 1 1 0
1  57 0 4.71031874665111 4.71446246950753
2  113 22 0 4.71031874665111 4.71446246950753
2  114 24 0 4.71031874665111 4.71446246950753
0

0101000
+38 87 -36 87 *
Wi

0101100
-35 75 +19 0 *
Fa
0  1e-07 22 0

0111000
+18 0 *
Ve
1e-07
8 -22.5 -2.5
0 0

0101101
*
Ed
 1e-07 1 1 0
1  58 0 0 11
3  115 116CN 23 0 0 11
0

0101000
+28 88 -16 88 *
Ed
 1e-07 1 1 0
1  59 0 0 6.28318530717959
2  117 23 91 0 6.28318530717959
2  118 25 92 0 6.28318530717959
0

0101000
+16 93 -16 93 *
Wi

0101100
-27 82 -15 0 +14 90 +15 0 *
Fa
0  1e-07 23 0

0111000
+13 0 *
Ve
1e-07
7 -22.5 -2.5
0 0

0101101
*
Ed
 1e-07 1 1 0
1  60 0 0 0.999999999999998
3  119 120CN 24 0 0 0.999999999999998
0

0101000
+11 87 -24 87 *
Ed
 1e-07 1 1 0
1  61 0 0 6.28318530717959
2  121 24 96 0 6.28318530717959
2  122 25 97 0 6.28318530717959
0

0101000
+11 98 -11 98 *
Wi

0101100
-10 0 +23 0 +19 0 +22 0 +10 0 -9 95 *
Fa
0  1e-07 24 0

0111000
+8 0 *
Wi

0101100
+14 100 *
Wi

0101100
-9 95 *
Fa
0  1e-07 25 99

0111000
+6 0 +5 0 *
Sh

0101100
+121 9 +114 41 +109 0 +104 8 +99 41 +94 41 +89 41 -86 28 +79 60 +74 60 
+69 60 +66 60 -59 9 +54 9 +49 9 -44 9 -39 9 +32 72 -30 49 -25 78 
-20 72 +17 72 -12 78 -7 72 +4 72 *
So

0100000
+3 0 *
Co

1100000
+2 0 *

+1 1 