DBRep_DrawableShape

CASCADE Topology V1, (c) Matra-Datavision
Locations 164
1
              1               0               0               0 
              0               1               0               0 
              0               0               1               0 
1
              1               0               0               0 
              0               1               0               0 
              0               0               1               0 
1
              1               0               0               0 
              0               1               0               0 
              0               0               1               0 
2  2 1 3 -1 0
1
              1               0               0               0 
              0               1               0               0 
              0               0               1               0 
1
              1               0               0              -0 
              0               1               0              -0 
              0               0               1           -13.5 
1
              1               0               0               0 
              0               1               0               0 
              0               0               1              27 
1
              1               0               0               0 
              0               1               0               0 
              0               0               1               0 
1
              1               0               0               0 
              0               1               0               0 
              0               0               1               0 
1
              1               0               0               0 
              0               1               0               0 
              0               0               1               0 
1
              1               0               0               0 
              0               1               0               0 
              0               0               1               0 
1
              1               0               0               0 
              0               1               0               0 
              0               0               1               0 
1
              1               0               0               0 
              0               1               0               0 
              0               0               1               0 
1
              1               0               0               0 
              0               1               0               0 
              0               0               1               0 
1
              1               0               0               0 
              0               1               0               0 
              0               0               1               0 
1
              1               0               0               0 
              0               1               0               0 
              0               0               1               0 
1
              1               0               0               0 
              0               1               0               0 
              0               0               1               0 
1
              1               0               0               0 
              0               1               0               0 
              0               0               1               0 
1
              1               0               0               0 
              0               1               0               0 
              0               0               1               0 
1
              1               0               0               0 
              0               1               0               0 
              0               0               1               0 
1
              1               0               0               0 
              0               1               0               0 
              0               0               1               0 
1
              1               0               0               0 
              0               1               0               0 
              0               0               1               0 
1
              1               0               0               0 
              0               1               0               0 
              0               0               1               0 
2  5 -1 6 1 7 1 8 1 9 -1 10 1 11 -1 12 1 13 -1 14 1 15 -1 16 1 17 1 18 1 19 1 20 1 21 1 22 1 23 -1 0
2  20 1 21 1 22 1 23 -1 0
2  5 -1 6 1 7 1 8 1 9 -1 10 1 11 -1 12 1 13 -1 14 1 15 -1 16 1 17 1 18 1 19 1 0
2  1 -1 3 1 2 -1 23 1 22 -1 21 -1 20 -1 0
1
              1               0               0              -0 
              0               1               0               0 
              0               0               1            13.5 
2  28 1 9 -1 10 1 11 -1 12 1 13 -1 14 1 15 -1 16 1 17 1 18 1 19 1 20 1 21 1 22 1 23 -1 0
2  5 -1 6 1 7 1 8 1 28 -1 0
2  9 1 28 -1 0
2  1 -1 3 1 2 -1 23 1 22 -1 21 -1 20 -1 19 -1 18 -1 17 -1 16 -1 15 1 14 -1 13 1 12 -1 11 1 10 -1 9 1 28 -1 0
2  17 1 18 1 19 1 20 1 21 1 22 1 23 -1 0
2  5 -1 6 1 7 1 8 1 9 -1 10 1 11 -1 12 1 13 -1 14 1 15 -1 16 1 0
2  1 -1 3 1 2 -1 23 1 22 -1 21 -1 20 -1 19 -1 18 -1 17 -1 0
2  1 -1 3 1 2 -1 0
1
              1               0               0               0 
              0               1               0               0 
              0               0               1               0 
2  37 1 5 -1 6 1 7 1 8 1 9 -1 10 1 11 -1 12 1 13 -1 14 1 15 -1 16 1 17 1 18 1 19 1 20 1 21 1 22 1 23 -1 0
2  37 -1 0
2  7 -1 6 -1 5 1 37 -1 0
2  1 -1 3 1 2 -1 23 1 22 -1 21 -1 20 -1 19 -1 18 -1 17 -1 16 -1 15 1 14 -1 13 1 12 -1 11 1 10 -1 9 1 8 -1 7 -1 6 -1 5 1 37 -1 0
2  18 1 19 1 20 1 21 1 22 1 23 -1 0
2  5 -1 6 1 7 1 8 1 9 -1 10 1 11 -1 12 1 13 -1 14 1 15 -1 16 1 17 1 0
2  1 -1 3 1 2 -1 23 1 22 -1 21 -1 20 -1 19 -1 18 -1 0
2  19 1 20 1 21 1 22 1 23 -1 0
2  5 -1 6 1 7 1 8 1 9 -1 10 1 11 -1 12 1 13 -1 14 1 15 -1 16 1 17 1 18 1 0
2  1 -1 3 1 2 -1 23 1 22 -1 21 -1 20 -1 19 -1 0
1
              1               0               0              -0 
              0               1               0               0 
              0               0               1            13.5 
2  48 1 11 -1 12 1 13 -1 14 1 15 -1 16 1 17 1 18 1 19 1 20 1 21 1 22 1 23 -1 0
2  5 -1 6 1 7 1 8 1 9 -1 10 1 48 -1 0
2  11 1 48 -1 0
2  1 -1 3 1 2 -1 23 1 22 -1 21 -1 20 -1 19 -1 18 -1 17 -1 16 -1 15 1 14 -1 13 1 12 -1 11 1 48 -1 0
2  22 1 23 -1 0
2  5 -1 6 1 7 1 8 1 9 -1 10 1 11 -1 12 1 13 -1 14 1 15 -1 16 1 17 1 18 1 19 1 20 1 21 1 0
2  1 -1 3 1 2 -1 23 1 22 -1 0
2  21 1 22 1 23 -1 0
2  5 -1 6 1 7 1 8 1 9 -1 10 1 11 -1 12 1 13 -1 14 1 15 -1 16 1 17 1 18 1 19 1 20 1 0
2  1 -1 3 1 2 -1 23 1 22 -1 21 -1 0
2  20 1 21 1 22 1 23 -1 2 1 3 -1 0
2  10 1 11 -1 12 1 13 -1 14 1 15 -1 16 1 17 1 18 1 19 1 0
1
              1               0               0              -0 
              0               1               0              -0 
              0               0               1           -23.5 
2  9 -1 61 1 10 1 11 -1 12 1 13 -1 14 1 15 -1 16 1 17 1 18 1 19 1 0
2  10 1 11 -1 12 1 13 -1 14 1 15 -1 16 1 17 1 18 1 19 1 20 1 21 1 22 1 23 -1 2 1 3 -1 0
2  19 -1 18 -1 17 -1 16 -1 15 1 14 -1 13 1 12 -1 11 1 10 -1 0
2  28 1 9 -1 10 1 11 -1 12 1 13 -1 14 1 15 -1 16 1 17 1 18 1 19 1 0
2  17 1 18 1 19 1 0
2  10 1 11 -1 12 1 13 -1 14 1 15 -1 16 1 0
2  28 1 9 -1 61 1 10 1 11 -1 12 1 13 -1 14 1 15 -1 16 1 17 1 18 1 19 1 0
2  61 -1 9 1 28 -1 0
2  28 -1 0
2  1 -1 3 1 2 -1 23 1 22 -1 21 -1 20 -1 19 -1 18 -1 17 -1 16 -1 15 1 14 -1 13 1 12 -1 11 1 10 -1 61 -1 9 1 28 -1 0
2  17 1 18 1 19 1 20 1 21 1 22 1 23 -1 2 1 3 -1 0
2  9 -1 61 1 10 1 11 -1 12 1 13 -1 14 1 15 -1 16 1 0
2  10 1 11 -1 12 1 13 -1 14 1 15 -1 16 1 17 1 18 1 19 1 20 1 21 1 22 1 23 -1 0
2  28 1 9 -1 61 1 10 1 11 -1 12 1 13 -1 14 1 15 -1 16 1 17 1 18 1 19 1 20 1 21 1 22 1 23 -1 0
2  10 1 11 -1 12 1 13 -1 14 1 15 -1 16 1 17 1 0
1
             -1               0               0              -0 
              0 2.22044604925031e-16               1              40 
              0               1 -2.22044604925031e-16               0 
2  77 1 23 -1 0
2  23 1 77 -1 0
2  8 1 9 -1 10 1 11 -1 12 1 13 -1 14 1 15 -1 16 1 17 1 18 1 19 1 20 1 21 1 22 1 77 -1 0
2  1 -1 3 1 2 -1 23 1 77 -1 0
2  8 1 9 -1 10 1 11 -1 12 1 13 -1 14 1 15 -1 16 1 17 1 18 1 19 1 20 1 21 1 22 1 23 -1 0
2  37 1 5 -1 6 1 8 1 9 -1 10 1 11 -1 12 1 13 -1 14 1 15 -1 16 1 17 1 18 1 19 1 20 1 21 1 22 1 23 -1 0
2  6 -1 5 1 37 -1 0
2  1 -1 3 1 2 -1 23 1 22 -1 21 -1 20 -1 19 -1 18 -1 17 -1 16 -1 15 1 14 -1 13 1 12 -1 11 1 10 -1 9 1 8 -1 6 -1 5 1 37 -1 0
2  1 -1 3 1 2 -1 23 1 22 -1 21 -1 20 -1 19 -1 18 -1 17 -1 16 -1 15 1 14 -1 13 1 12 -1 11 1 10 -1 9 1 8 -1 0
2  8 1 9 -1 10 1 11 -1 12 1 13 -1 14 1 15 -1 16 1 17 1 18 1 19 1 20 1 21 1 22 1 23 -1 2 1 3 -1 0
2  37 1 5 -1 6 1 0
2  37 1 5 -1 6 1 7 1 0
2  37 1 5 -1 6 1 8 1 9 -1 10 1 11 -1 12 1 13 -1 14 1 15 -1 16 1 17 1 18 1 19 1 20 1 21 1 22 1 23 -1 2 1 3 -1 0
2  37 1 5 -1 6 1 7 1 8 1 9 -1 10 1 11 -1 12 1 13 -1 14 1 15 -1 16 1 17 1 18 1 19 1 20 1 21 1 22 1 23 -1 2 1 3 -1 0
1
              1               0               0              -0 
              0 2.22044604925031e-16              -1             -40 
              0               1 2.22044604925031e-16               0 
2  92 1 3 -1 0
2  8 1 9 -1 10 1 11 -1 12 1 13 -1 14 1 15 -1 16 1 17 1 18 1 19 1 20 1 21 1 22 1 23 -1 2 1 92 -1 0
2  3 1 92 -1 0
2  1 -1 3 1 92 -1 0
2  18 1 19 1 20 1 21 1 22 1 23 -1 2 1 3 -1 0
2  9 -1 61 1 10 1 11 -1 12 1 13 -1 14 1 15 -1 16 1 17 1 0
2  18 -1 17 -1 16 -1 15 1 14 -1 13 1 12 -1 11 1 10 -1 0
2  28 1 9 -1 10 1 11 -1 12 1 13 -1 14 1 15 -1 16 1 17 1 18 1 0
2  10 1 11 -1 12 1 13 -1 14 1 15 -1 16 1 17 1 18 1 0
2  28 1 9 -1 61 1 10 1 11 -1 12 1 13 -1 14 1 15 -1 16 1 17 1 18 1 0
2  19 1 20 1 21 1 22 1 23 -1 2 1 3 -1 0
2  9 -1 61 1 10 1 11 -1 12 1 13 -1 14 1 15 -1 16 1 17 1 18 1 0
2  12 1 13 -1 14 1 15 -1 16 1 17 1 18 1 19 1 20 1 21 1 22 1 23 -1 0
2  12 1 13 -1 14 1 15 -1 16 1 17 1 18 1 19 1 20 1 21 1 0
2  12 1 13 -1 14 1 15 -1 16 1 17 1 18 1 19 1 20 1 0
1
              1               0               0              -0 
              0               1               0              -0 
              0               0               1             -15 
2  48 1 11 -1 108 1 12 1 13 -1 14 1 15 -1 16 1 17 1 18 1 19 1 20 1 21 1 22 1 23 -1 0
2  108 -1 11 1 48 -1 0
2  48 -1 0
2  1 -1 3 1 2 -1 23 1 22 -1 21 -1 20 -1 19 -1 18 -1 17 -1 16 -1 15 1 14 -1 13 1 12 -1 108 -1 11 1 48 -1 0
2  22 1 23 -1 2 1 3 -1 0
2  11 -1 108 1 12 1 13 -1 14 1 15 -1 16 1 17 1 18 1 19 1 20 1 21 1 0
2  21 1 22 1 23 -1 2 1 3 -1 0
2  11 -1 108 1 12 1 13 -1 14 1 15 -1 16 1 17 1 18 1 19 1 20 1 0
2  12 1 13 -1 14 1 15 -1 16 1 17 1 18 1 19 1 20 1 21 1 22 1 23 -1 2 1 3 -1 0
2  21 -1 20 -1 19 -1 18 -1 17 -1 16 -1 15 1 14 -1 13 1 12 -1 0
2  48 1 11 -1 12 1 13 -1 14 1 15 -1 16 1 17 1 18 1 19 1 20 1 21 1 0
2  1 -1 3 1 2 -1 23 1 22 -1 21 -1 20 -1 19 -1 18 -1 17 -1 16 -1 15 1 14 -1 13 1 12 -1 0
2  48 1 11 -1 108 1 12 1 13 -1 14 1 15 -1 16 1 17 1 18 1 19 1 20 1 21 1 0
2  20 -1 19 -1 18 -1 17 -1 16 -1 15 1 14 -1 13 1 12 -1 0
2  48 1 11 -1 12 1 13 -1 14 1 15 -1 16 1 17 1 18 1 19 1 20 1 0
2  48 1 11 -1 108 1 12 1 13 -1 14 1 15 -1 16 1 17 1 18 1 19 1 20 1 0
2  48 1 11 -1 0
2  48 1 11 -1 108 1 0
2  15 1 14 -1 13 1 12 -1 108 -1 11 1 48 -1 0
2  9 -1 61 1 10 1 11 -1 12 1 13 -1 14 1 15 -1 16 1 17 1 18 1 19 1 20 1 21 1 22 1 23 -1 2 1 3 -1 0
2  19 -1 18 -1 17 -1 16 -1 15 1 14 -1 13 1 12 -1 11 1 10 -1 61 -1 9 1 0
2  18 1 19 1 0
2  14 1 15 -1 16 1 17 1 18 1 19 1 20 1 21 1 22 1 23 -1 2 1 3 -1 0
2  5 -1 6 1 8 1 9 -1 10 1 11 -1 12 1 13 -1 0
2  37 1 5 -1 6 1 8 1 9 -1 10 1 11 -1 12 1 13 -1 0
1
              1               0               0              -0 
              0              -1               0              -0 
              0               0              -1           -13.5 
2  134 1 13 -1 0
2  5 -1 6 1 8 1 9 -1 10 1 11 -1 12 1 134 -1 0
2  13 1 134 -1 0
2  1 -1 3 1 2 -1 23 1 22 -1 21 -1 20 -1 19 -1 18 -1 17 -1 16 -1 15 1 14 -1 13 1 134 -1 0
2  1 -1 0
1
              1               0               0               0 
              0               1               0               8 
              0               0               1 -1.77635683940025e-15 
2  92 1 3 -1 140 1 0
2  140 -1 3 1 92 -1 0
2  92 -1 0
2  1 -1 140 -1 3 1 92 -1 0
2  16 1 17 1 18 1 19 1 20 1 21 1 22 1 23 -1 2 1 3 -1 0
2  11 -1 108 1 12 1 13 -1 14 1 15 -1 0
2  21 -1 20 -1 19 -1 18 -1 17 -1 16 -1 0
2  16 1 17 1 18 1 19 1 20 1 21 1 0
2  1 -1 3 1 2 -1 23 1 22 -1 21 -1 20 -1 19 -1 18 -1 17 -1 16 -1 0
2  48 1 11 -1 108 1 12 1 13 -1 14 1 15 -1 0
2  1 -1 3 1 2 -1 23 1 22 -1 21 -1 20 -1 19 -1 18 -1 17 -1 16 -1 15 1 14 -1 0
1
              1               0               0               0 
              0               1               0               0 
              0               0               1              11 
2  134 1 13 -1 152 1 0
2  152 -1 13 1 134 -1 0
2  134 -1 0
2  1 -1 3 1 2 -1 23 1 22 -1 21 -1 20 -1 19 -1 18 -1 17 -1 16 -1 15 1 14 -1 152 -1 13 1 134 -1 0
2  3 -1 140 1 0
1
              1               0               0              -0 
              0              -1               0              -0 
              0               0              -1            -2.5 
2  158 1 15 -1 0
2  15 1 158 -1 0
2  13 -1 152 1 14 1 158 -1 0
2  1 -1 3 1 2 -1 23 1 22 -1 21 -1 20 -1 19 -1 18 -1 17 -1 16 -1 15 1 158 -1 0
2  13 -1 152 1 14 1 15 -1 0
2  134 1 13 -1 152 1 14 1 15 -1 0
Curve2ds 170
2 28.5 -47 0 1 -1 0 3
1 -3.1415926535897931 0 1 0 
1 31.5 -3.5 0 -1 
1 0 0 1 0 
2 28.5 -6.5 0 1 1 -0 3
1 0 0 1 0 
1 3.5 -3.5 1 0 
1 0 0 1 0 
1 21.350000000000001 0 0 -1 
1 0 0 0 -1 
1 0 0 1 0 
1 0 -27 1 0 
1 35 0 0 -1 
1 0 -27 1 0 
1 35 -80 -1 0 
1 0 -27 1 0 
1 0 -80 0 1 
1 0 -27 1 0 
1 0 0 1 0 
1 0 -27 1 0 
1 13.65 0 0 -1 
1 3.9000000000000004 -8.6597395920762218e-16 0 -1 
1 3.5 -3.5 1 0 
1 0 0 1 0 
2 6.5 -6.5 0 1 -1 0 3
1 0 0 1 0 
1 3.5 -50 0 1 
1 0 0 1 0 
2 6.5 -47 0 1 -1 0 3
1 -1.5707963267948966 0 1 0 
1 31.5 -50 -1 -6.3441315692866085e-17 
1 0 0 1 0 
1 29.999999999918 -75 -1 0 
1 0 0 1 0 
2 26.999999999918 -72 0 1 -1 0 3
1 -3.1415926535897931 0 1 0 
2 8.0000000000019824 -72 0 1 -1 0 3
1 -1.5707963267948966 0 1 0 
1 29.999999999918 -75 0 1 
1 0 0 1 0 
1 5.0000000000019824 -75 0 1 
1 0 0 1 0 
2 22.499988019301 -63.000035143291996 1 0 -0 1 7.500011980699
1 0 0 1 0 
2 12.499987660767999 -62.999994546403997 1 0 -0 1 7.4999876607680003
1 0 0 1 0 
1 12.499999999979424 -55.500006885646151 0.99999999999867539 -1.6276946848046325e-06 
1 0 0 1 0 
1 0 0 0 1 
1 3 0 0 -1 
1 1.5707963267948966 0 0 1 
1 43.5 0 0 -1 
1 -3.1415926535897931 23.5 1 0 
2 -11 -20.25 0 1 1 -0 3
1 3 0 0 -1 
1 1.5707963267948966 0 0 1 
1 0 -23.5 1 0 
1 -14 23.25 0 -1 
1 0 0 0 1 
1 25 0 -0 -1 
1 0 23.5 1 0 
2 -11 20.25 0 1 -1 0 3
8 -2.3399999999999999 2.3400000000000003
1 10.15 -1.9499999999999993 -0 -1 
8 -2.3399999999999999 2.3400000000000003
1 1.9500000000000002 -3.5000000000000004 -1 2.2204460492503131e-16 
8 -13.545000000000002 -4.3050000000000015
1 5.0749999999999993 -3.9000000000000004 -1 0 
8 -13.545000000000002 -4.3050000000000015
1 -5.0750000000000011 -3.5 -1 -0 
8 -4.2899999999999991 0.39000000000000085
1 17.850000000000001 0 0 1 
8 -4.2899999999999991 0.39000000000000085
1 7.7715611723760958e-16 -3.5 -1 -2.2204460492503131e-16 
1 0 -23.5 1 0 
1 14 23.25 -1 0 
1 3 0 -0 -1 
1 0 0 0 1 
1 0 0 1 0 
1 21.350000000000001 -27 0 1 
1 3.9000000000000004 8.6597395920762218e-16 0 -1 
1 7.7000000000000002 0 0 -1 
1 0 0 1 0 
1 0 0 1 0 
1 35 0 0 -1 
1 0 0 0 -1 
1 13.65 -23.100000000000001 1 0 
1 0 0 1 0 
1 13.65 -23.100000000000001 0 -1 
1 0 0 1 0 
1 0 0 0 -1 
1 80 0 0 -1 
1 80 0 0 -1 
1 0 -0 0 -1 
1 0 0 1 0 
1 35 0 0 -1 
1 0 -0 1 0 
1 35 -80 -1 0 
1 35 0 0 -1 
1 0 0 0 -1 
2 17.5 -5 -1 -0 0 -1 3.5
1 0 0 1 0 
1 0 0 1 0 
1 0 -80 0 1 
1 0 0 0 -1 
1 0 0 0 -1 
1 1.5707963267948966 0 0 1 
1 43.5 0 -0 -1 
1 0 23.5 1 0 
2 11 20.25 0 1 1 -0 3
1 3 0 -0 -1 
1 0 0 0 1 
1 0 -23.5 1 0 
1 14 -23.25 0 1 
1 1.5707963267948968 0 0 1 
1 25 0 0 -1 
1 -1.5707963267948966 23.5 1 0 
2 11 -20.25 0 1 1 -0 3
1 -0 -23.5 1 0 
1 -14 -23.25 1 -6.3441315692866085e-17 
1 3 0 0 -1 
1 0 0 0 1 
1 21.999999999916017 0 0 -1 
1 1.5707963267948966 0 0 1 
1 0 -15 1 0 
1 -12.500003993834357 -8.8365272117530935 1 -2.6825476110736978e-64 
1 1.5707963267948966 0 0 1 
1 3 0 -0 -1 
1 -3.1415926535897931 15.000000000000002 1 0 
2 -9.5000039938343566 -5.8365272117530935 0 1 1 -0 3
1 0 0 0 1 
1 3 0 -0 -1 
1 -1.5707963267948966 15.000000000000002 1 0 
2 9.4999960060816608 -5.8365272117530935 0 1 1 -0 3
1 12.00000000005414 0 0 -1 
1 4.6857720000000002e-06 0 0 -1 
1 0 -15 1 0 
1 -12.500003993834357 -8.8365272117530935 0 1 
1 12.000000000008214 0 0 -1 
1 3.1415933807359999 0 0 -1 
1 0 -15 1 0 
1 12.499996006081661 -8.8365272117530935 0 1 
1 0 -15 1 0 
2 -4.9999920132173559 3.1634376449549073 -1 2.6825476110736978e-64 2.6825476110736978e-64 1 7.500011980699
1 1.570794729368 0 0 -1 
1 10.000000000055755 0 0 -1 
1 1.5707946815639999 0 0 -1 
1 0 0 0 -1 
1 0 -15 1 0 
2 5.0000083453156439 3.1634782418429062 -1 2.6825476110736978e-64 2.6825476110736978e-64 1 7.4999876607680003
1 0 -15 1 0 
1 4.9999960061042197 10.663465902600755 -0.99999999999867539 -1.6276946848046325e-06 
1 0 -15 1 0 
1 4.9999960061042197 10.663465902600755 -0.99999999999867539 -1.6276946848046325e-06 
1 0 -15 1 0 
1 4.9999960061042197 10.663465902600755 -0.99999999999867539 -1.6276946848046325e-06 
2 17.5 -62.5 1 0 0 -1 8
1 0 0 1 0 
1 0 0 0 -1 
1 6.2831853071795862 0 0 -1 
1 0 -8 1 0 
2 0 1.9534859036277474e-16 0 1 -1 0 3.5
2 -3.9939163559387778e-06 3.6634727882469065 -1 2.6825476110736978e-64 -2.6825476110736978e-64 -1 7
1 0 -0.99999999999999822 1 0 
2 -3.9939163559387778e-06 3.6634727882469065 -1 2.6825476110736978e-64 -2.6825476110736978e-64 -1 7
1 0 -0.99999999999999822 1 0 
2 -3.9939163559387778e-06 3.6634727882469065 -1 2.6825476110736978e-64 -2.6825476110736978e-64 -1 7
1 0 -0.99999999999999822 1 0 
1 0 0 0 -1 
1 6.2831853071795862 0 0 -1 
1 0 -11 1 0 
2 -6.8372006626971174e-16 3.5527136788005009e-15 -1 0 -0 -1 8
1 0 0 0 -1 
1 6.2831853071795862 0 0 -1 
1 0 0 1 0 
2 -6.8372006626971174e-16 3.5527136788005009e-15 -1 0 -0 -1 7
Curves 85
8 3.1415926535897931 4.7123889803846897
2 11 -7 13.5 0 0 1 0 1 -0 -1 0 0 3
1 14 36.5 0 0 -1 0 
8 0 1.5707963267948966
2 11 33.5 13.5 -0 -0 -1 0 1 -0 1 -0 0 3
1 -14 36.5 0 1 0 0 
1 3.8500000000000001 40 13.5 0 -1 2.2204460492503131e-16 
1 -17.5 40 0 1 0 0 
1 17.5 40 0 0 -1 0 
1 17.5 -40 0 -1 0 0 
1 -17.5 -40 0 0 1 0 
1 -17.5 40 0 1 0 0 
1 -3.8500000000000001 40 13.5 0 -1 2.2204460492503131e-16 
1 -14 36.5 0 1 0 0 
8 0 1.5707963267948966
2 -11 33.5 13.5 0 0 1 0 1 -0 -1 0 0 3
1 -14 -10.000000000000002 0 0 1 0 
8 1.5707963267948966 3.1415926535897931
2 -11 -7.0000000000000018 13.5 0 0 1 0 1 -0 -1 0 0 3
1 14 -10 0 -1 -6.3441315692866085e-17 0 
1 12.499999999918 -35 0 -1 0 0 
8 3.1415926535897931 4.7123889803846897
2 9.4999999999179998 -32 13.5 0 0 1 0 1 -0 -1 0 0 3
8 1.5707963267948966 3.1415926535897931
2 -9.4999999999980176 -32 13.5 0 0 1 0 1 -0 -1 0 0 3
1 12.499999999918 -35 0 0 1 0 
1 -12.499999999998018 -35 0 0 1 0 
2 4.999988019301 -23.000035143291999 0 0 0 1 1 0 -0 -0 1 0 7.500011980699
2 -5.0000123392319997 -22.999994546404 0 0 0 1 1 0 -0 -0 1 0 7.4999876607680003
1 -5.0000000000205755 -15.500006885646151 0 0.99999999999867539 -1.6276946848046325e-06 0 
1 11 -10 13.5 -0 -0 -1 
1 14 -7 13.5 -0 -0 -1 
8 3.1415926535897931 4.7123889803846897
2 11 -7 -10 0 0 1 0 1 -0 -1 0 0 3
1 14 33.5 13.5 -0 -0 -1 
1 14 36.5 0 0 -1 0 
1 11 36.5 13.5 -0 -0 -1 
8 0 1.5707963267948966
2 11 33.5 -10 -0 -0 -1 0 1 -0 1 -0 0 3
1 -3.8499999999999996 36.5 11.550000000000001 -0 -0 -1 
1 -8.9250000000000007 36.5 9.5999999999999996 -1 -0 0 
1 3.8500000000000005 36.5 13.5 -0 0 1 
1 -14 36.5 0 1 0 0 
1 -11 36.5 13.5 -0 -0 -1 
1 -3.8500000000000001 13.5 0 0 -1 0 
1 3.8500000000000001 40 9.5999999999999996 0 -1 2.2204460492503131e-16 
1 -17.5 40 0 1 0 0 
1 17.5 40 -13.5 0 0 1 
1 3.8500000000000001 9.5999999999999996 0 -1 0 0 
1 3.8500000000000001 9.5999999999999996 0 0 1 0 
1 -17.5 40 -13.5 0 0 1 
1 17.5 -40 -13.5 0 0 1 
1 17.5 40 0 0 -1 0 
1 17.5 -40 0 -1 0 0 
1 -17.5 -40 -13.5 0 0 1 
2 0 -8.5 0 0 0 1 1 0 -0 -0 1 0 3.5
1 -17.5 -40 0 0 1 0 
1 -3.8500000000000001 40 9.5999999999999996 0 -1 2.2204460492503131e-16 
1 -14 33.5 13.5 -0 -0 -1 
8 0 1.5707963267948966
2 -11 33.5 -10 0 0 1 0 1 -0 -1 0 0 3
1 -14 -7.0000000000000018 13.5 -0 -0 -1 
1 -14 -10.000000000000002 0 0 1 0 
1 -11 -10.000000000000002 13.5 -0 -0 -1 
8 1.5707963267948966 3.1415926535897931
2 -11 -7.0000000000000018 -10 0 0 1 0 1 -0 -1 0 0 3
1 14 -10 0 -1 -6.3441315692866085e-17 0 
1 9.4999999999179998 -35 13.5 -0 -0 -1 
1 -9.4999999999980176 -35 13.5 -0 -0 -1 
1 12.499999999918 -35 0 -1 0 0 
1 12.499999999918 -32 13.5 -0 -0 -1 
8 3.1415926535897931 4.7123889803846897
2 9.4999999999179998 -32 -1.5000000000000018 0 0 1 0 1 -0 -1 0 0 3
1 -12.499999999998018 -32 13.5 -0 -0 -1 
8 1.5707963267948966 3.1415926535897931
2 -9.4999999999980176 -32 -1.5000000000000018 0 0 1 0 1 -0 -1 0 0 3
1 12.499999999917831 -22.99999999994586 13.5 -0 -0 -1 
1 12.499999999918 -35 0 0 1 0 
1 -12.499999999998018 -22.999999999991786 13.5 -0 -0 -1 
1 -12.499999999998018 -35 0 0 1 0 
2 4.999988019301 -23.000035143291999 0 0 0 1 1 0 -0 -0 1 0 7.500011980699
1 5.0000000000219309 -15.500023162597785 13.5 -0 -0 -1 
1 -5.0000000000205755 -15.500006885646151 13.5 -0 -0 -1 
2 -5.0000123392319997 -22.999994546404 0 0 0 1 1 0 -0 -0 1 0 7.4999876607680003
1 -5.0000000000205755 -15.500006885646151 0 0.99999999999867539 -1.6276946848046325e-06 0 
1 -5.0000000000205755 -15.500006885646151 0 0.99999999999867539 -1.6276946848046325e-06 0 
1 -5.0000000000205755 -15.500006885646151 0 0.99999999999867539 -1.6276946848046325e-06 0 
2 0 22.5 0 0 0 1 1 0 -0 -0 1 0 8
1 3.5 -40 -8.5 0 1 -2.2204460492503131e-16 
2 0 -8.5 0 0 0 1 1 0 -0 -0 1 0 3.5
2 0 -22.5 -1.5000000000000018 0 0 -1 1 0 0 0 -1 0 7
2 0 -22.5 -1.5000000000000018 0 0 -1 1 0 0 0 -1 0 7
2 0 -22.5 -1.5000000000000018 0 0 -1 1 0 0 0 -1 0 7
1 8 -22.5 -13.5 0 0 1 
2 0 22.5 0 0 0 1 1 0 -0 -0 1 0 8
1 7 -22.5 -2.5 0 0 1 
2 0 22.5 0 0 0 1 1 0 -0 -0 1 0 7
Polygon3D 0
PolygonOnTriangulations 0
Surfaces 33
1 -17.5 40 0 -0 0 1 1 0 0 0 1 -0 
2 11 -7 13.5 -0 -0 -1 6.3441315692866085e-17 -1 0 1 6.3441315692866085e-17 -0 3
1 14 36.5 13.5 -1 0 0 0 -1 0 0 0 1 
2 11 33.5 13.5 -0 -0 -1 0 1 -0 1 -0 0 3
1 -14 36.5 13.5 0 -1 0 1 0 0 -0 0 1 
1 3.8500000000000001 40 13.5 1 0 0 0 -2.2204460492503131e-16 -1 0 1 -2.2204460492503131e-16 
1 -17.5 40 -13.5 0 1 0 1 0 0 0 0 -1 
1 17.5 40 -13.5 1 0 -0 0 -1 0 0 -0 -1 
1 17.5 -40 -13.5 0 -1 0 -1 0 0 -0 -0 -1 
1 -17.5 -40 -13.5 -1 0 0 0 1 0 0 0 -1 
1 -3.8500000000000001 40 9.5999999999999996 -1 0 0 0 2.2204460492503131e-16 1 0 1 -2.2204460492503131e-16 
2 -11 33.5 13.5 -0 -0 -1 0 1 -0 -1 0 -0 3
1 -14 -10.000000000000002 13.5 1 0 0 -0 1 0 0 -0 1 
2 -11 -7.0000000000000018 13.5 -0 -0 -1 -1 0 0 -0 -1 0 3
1 14 -10 13.5 -6.3441315692866085e-17 1 0 -1 -6.3441315692866085e-17 0 0 0 1 
1 12.499999999918 -35 13.5 0 1 -0 -1 0 0 0 0 1 
2 9.4999999999179998 -32 13.5 -0 -0 -1 -0 -1 0 1 -0 -0 3
2 -9.4999999999980176 -32 13.5 -0 -0 -1 -1 0 0 -0 -1 0 3
1 12.499999999918 -35 13.5 1 0 0 -0 1 0 0 -0 1 
1 -12.499999999998018 -35 13.5 1 0 0 -0 1 0 0 -0 1 
2 4.999988019301 -23.000035143291999 13.5 0 0 1 1 0 -0 -0 1 0 7.500011980699
2 -5.0000123392319997 -22.999994546404 13.5 0 0 1 1 0 -0 -0 1 0 7.4999876607680003
1 -5.0000000000205755 -15.500006885646151 13.5 -1.6276946848046325e-06 -0.99999999999867539 0 0.99999999999867539 -1.6276946848046325e-06 0 0 0 1 
1 0 13.25 13.5 -0 -0 -1 -1 0 0 0 1 -0 
1 -3.8500000000000001 40 9.5999999999999996 -0 2.2204460492503131e-16 1 1 0 0 0 1 -2.2204460492503131e-16 
1 -17.5 40 0 -0 0 1 1 0 0 0 1 -0 
2 0 -40 -8.5 0 -1 2.2204460492503131e-16 1 0 0 -0 2.2204460492503131e-16 1 3.5
1 -3.9939163559387778e-06 -26.163472788246906 13.499999999999998 1.6385774144160173e-32 -1.6371198501047004e-32 -1 -1 0 -1.6385774144160173e-32 2.6825476110736978e-64 1 -1.6371198501047004e-32 
10 -931.50219382871126 931.50218584087861 -927.83871704654803 980.16566262304184
1 -3.9939163559387778e-06 -26.163472788246906 -1.5000000000000018 1.6385774144160173e-32 -1.6371198501047004e-32 -1 -1 0 -1.6385774144160173e-32 2.6825476110736978e-64 1 -1.6371198501047004e-32 
2 0 -22.5 -13.5 0 0 -1 1 0 0 0 -1 0 8
1 -1.9534859036277474e-16 -40 -8.5 -0 -1 -0 0 0 -1 1 -0 0 
2 0 -22.5 -2.5 0 0 -1 1 0 0 0 -1 0 7
1 -6.8372006626971174e-16 -22.500000000000004 -13.5 -0 -0 -1 -1 0 0 0 1 -0 
Triangulations 0

TShapes 213
Ve
1e-07
11 -10 13.5
0 0

0101101
*
Ve
1e-07
14 -7 13.5
0 0

0101101
*
Ed
 1e-07 1 1 0
1  1 0 3.14159265358979 4.71238898038469
2  1 1 26 3.14159265358979 4.71238898038469
2  2 2 0 3.14159265358979 4.71238898038469
0

0101000
+213 27 -212 27 *
Ve
1e-07
14 33.5 13.5
0 0

0101101
*
Ed
 1e-07 1 1 0
1  2 0 3 43.5
2  3 1 30 3 43.5
2  4 3 31 3 43.5
0

0101000
-212 32 +210 32 *
Ve
1e-07
11 36.5 13.5
0 0

0101101
*
Ed
 1e-07 1 1 0
1  3 0 0 1.5707963267949
2  5 1 34 0 1.5707963267949
2  6 4 0 0 1.5707963267949
0

0101000
+208 35 -210 35 *
Ve
1.00000000666134e-07
3.85 36.5 13.5
0 0

0101101
*
Ed
 1e-07 1 1 0
1  4 0 17.85 25
2  7 1 30 17.85 25
2  8 5 31 17.85 25
0

0101000
+206 32 -208 32 *
Ve
1e-07
3.85 40 13.5
0 0

0101101
*
Ed
 1e-07 1 1 0
1  5 0 0 3.5
2  9 1 24 0 3.5
2  10 6 0 0 3.5
0

0101000
+204 36 -206 36 *
Ve
1e-07
17.5 40 13.5
0 0

0101101
*
Ed
 1e-07 1 1 0
1  6 0 21.35 35
2  11 1 39 21.35 35
2  12 7 40 21.35 35
0

0101000
+204 41 -202 41 *
Ve
1e-07
17.5 -40 13.5
0 0

0101101
*
Ed
 1e-07 1 1 0
1  7 0 0 80
2  13 1 39 0 80
2  14 8 40 0 80
0

0101000
+202 41 -200 41 *
Ve
1e-07
-17.5 -40 13.5
0 0

0101101
*
Ed
 1e-07 1 1 0
1  8 0 0 35
2  15 1 39 0 35
2  16 9 40 0 35
0

0101000
+200 41 -198 41 *
Ve
1e-07
-17.5 40 13.5
0 0

0101101
*
Ed
 1e-07 1 1 0
1  9 0 0 80
2  17 1 39 0 80
2  18 10 40 0 80
0

0101000
+198 41 -196 41 *
Ve
1e-07
-3.85 40 13.5
0 0

0101101
*
Ed
 1e-07 1 1 0
1  10 0 0 13.65
2  19 1 39 0 13.65
2  20 7 40 0 13.65
0

0101000
+196 41 -194 41 *
Ve
1.00000000222045e-07
-3.85 36.5 13.5
0 0

0101101
*
Ed
 1e-07 1 1 0
1  11 0 0 3.5
2  21 1 24 0 3.5
2  22 11 0 0 3.5
0

0101000
+194 36 -192 36 *
Ve
1e-07
-11 36.5 13.5
0 0

0101101
*
Ed
 1e-07 1 1 0
1  12 0 3 10.15
2  23 1 30 3 10.15
2  24 5 31 3 10.15
0

0101000
+190 32 -192 32 *
Ve
1e-07
-14 33.5 13.5
0 0

0101101
*
Ed
 1e-07 1 1 0
1  13 0 0 1.5707963267949
2  25 1 43 0 1.5707963267949
2  26 12 0 0 1.5707963267949
0

0101000
+190 44 -188 44 *
Ve
1e-07
-14 -7 13.5
0 0

0101101
*
Ed
 1e-07 1 1 0
1  14 0 3 43.5
2  27 1 30 3 43.5
2  28 13 31 3 43.5
0

0101000
+186 32 -188 32 *
Ve
1e-07
-11 -10 13.5
0 0

0101101
*
Ed
 1e-07 1 1 0
1  15 0 1.5707963267949 3.14159265358979
2  29 1 46 1.5707963267949 3.14159265358979
2  30 14 0 1.5707963267949 3.14159265358979
0

0101000
+186 47 -184 47 *
Ed
 1e-07 1 1 0
1  16 0 3 25
2  31 1 30 3 25
2  32 15 31 3 25
0

0101000
+213 32 -184 32 *
Wi

0101100
-211 25 +209 29 +207 33 +205 29 +203 0 -201 38 -199 38 -197 38 -195 38 -193 38 
-191 0 +189 29 -187 42 +185 29 -183 45 +182 29 *
Ve
1e-07
9.499999999918 -35 13.5
0 0

0101101
*
Ve
1e-07
-9.49999999999802 -35 13.5
0 0

0101101
*
Ed
 1e-07 1 1 0
1  17 0 3 21.999999999916
2  33 1 50 3 21.999999999916
2  34 16 51 3 21.999999999916
0

0101000
+180 52 -179 52 *
Ve
1e-07
12.499999999918 -32 13.5
0 0

0101101
*
Ed
 1e-07 1 1 0
1  18 0 3.14159265358979 4.71238898038469
2  35 1 54 3.14159265358979 4.71238898038469
2  36 17 0 3.14159265358979 4.71238898038469
0

0101000
+180 55 -177 55 *
Ve
1e-07
-12.499999999998 -32 13.5
0 0

0101101
*
Ed
 1e-07 1 1 0
1  19 0 1.5707963267949 3.14159265358979
2  37 1 57 1.5707963267949 3.14159265358979
2  38 18 0 1.5707963267949 3.14159265358979
0

0101000
+175 58 -179 58 *
Ve
1.000001687539e-07
12.4999999999178 -22.9999999999459 13.5
0 0

0101101
*
Ed
 1e-07 1 1 0
1  20 0 3 12.0000000000541
2  39 1 50 3 12.0000000000541
2  40 19 51 3 12.0000000000541
0

0101000
+177 52 -173 52 *
Ve
1.00000211386464e-07
-12.499999999998 -22.9999999999918 13.5
0 0

0101101
*
Ed
 1e-07 1 1 0
1  21 0 3 12.000000000008
2  41 1 50 3 12.000000000008
2  42 20 51 3 12.000000000008
0

0101000
+175 52 -171 52 *
Ve
1.0000478511226e-07
5.00000000002193 -15.5000231625978 13.5
0 0

0101101
*
Ed
 1e-07 1 1 0
1  22 0 4.685772e-06 1.570794729368
2  43 1 50 4.685772e-06 1.570794729368
2  44 21 51 4.685772e-06 1.570794729368
0

0101000
+173 52 -169 52 *
Ve
1e-07
-5.00000000002058 -15.5000068856462 13.5
0 0

0101101
*
Ed
 1e-07 1 1 0
1  23 0 1.570794681564 3.141593380736
2  45 1 50 1.570794681564 3.141593380736
2  46 22 51 1.570794681564 3.141593380736
0

0101000
+167 52 -171 52 *
Ed
 1e-07 1 1 0
1  24 0 0 10.0000000000558
2  47 1 50 0 10.0000000000558
2  48 23 51 0 10.0000000000558
0

0101000
+167 52 -169 52 *
Wi

0101100
+178 49 -176 53 -174 56 -172 49 +170 49 -168 49 -166 49 +165 49 *
Fa
0  1e-07 1 24

0111000
+181 0 +164 0 *
Ve
1e-07
11 -10 -10
0 0

0101101
*
Ed
 1e-07 1 1 0
1  25 0 -0 23.5
2  49 2 0 -0 23.5
2  50 15 60 -0 23.5
4 G1 2 0 15 60
0

0101000
+213 27 -162 27 *
Ve
1e-07
14 -7 -10
0 0

0101101
*
Ed
 1e-07 1 1 0
1  26 0 -0 23.5
2  51 2 0 -0 23.5
2  52 3 60 -0 23.5
4 G1 2 0 3 60
0

0101000
+212 27 -160 27 *
Ed
 1e-07 1 1 0
1  27 0 3.14159265358979 4.71238898038469
2  53 2 0 3.14159265358979 4.71238898038469
2  54 24 62 3.14159265358979 4.71238898038469
0

0101000
+162 27 -160 27 *
Wi

0101100
+211 0 -161 0 +159 0 -158 0 *
Fa
0  1e-07 2 0

0111000
+157 0 *
Ve
1e-07
14 33.5 -10
0 0

0101101
*
Ed
 1e-07 1 1 0
1  28 0 -0 23.5
2  55 3 67 -0 23.5
2  56 4 0 -0 23.5
4 G1 3 67 4 0
0

0101000
+210 35 -155 35 *
Ed
 1e-07 1 1 0
1  29 0 3 43.5
2  57 3 69 3 43.5
2  58 24 70 3 43.5
0

0101000
-160 71 +155 71 *
Wi

0101100
-209 65 -159 0 +154 66 +153 68 *
Fa
0  1e-07 3 0

0111000
+152 64 *
Ve
1e-07
11 36.5 -10
0 0

0101101
*
Ed
 1e-07 1 1 0
1  30 0 -0 23.5
2  59 4 0 -0 23.5
2  60 5 67 -0 23.5
4 G1 4 0 5 67
0

0101000
+208 35 -150 35 *
Ed
 1e-07 1 1 0
1  31 0 0 1.5707963267949
2  61 4 0 0 1.5707963267949
2  62 24 73 0 1.5707963267949
0

0101000
+150 35 -155 35 *
Wi

0101100
+207 0 -149 0 +154 0 -148 0 *
Fa
0  1e-07 4 0

0111000
+147 0 *
Ve
2.00001e-07
-3.85 36.5 9.6
0 0

0101101
*
Ed
 1e-07 1 1 0
1  32 0 -1.95 1.95
2  63 5 74 -1.95 1.95
2  64 11 0 -1.95 1.95
0

0101000
+192 36 -145 36 *
Ve
2.00001e-07
3.85 36.5 9.6
0 0

0101101
*
Ed
 1e-07 1 1 0
1  33 0 -12.775 -5.075
2  65 5 74 -12.775 -5.075
2  66 25 0 -12.775 -5.075
0

0101000
+143 36 -145 36 *
Ed
 1e-07 1 1 0
1  34 0 -3.9 0
2  67 5 74 -3.9 0
2  68 6 0 -3.9 0
0

0101000
+143 36 -206 36 *
Ve
1e-07
-11 36.5 -10
0 0

0101101
*
Ed
 1e-07 1 1 0
1  35 0 3 25
2  69 5 69 3 25
2  70 24 70 3 25
0

0101000
+140 71 -150 71 *
Ed
 1e-07 1 1 0
1  36 0 -0 23.5
2  71 5 76 -0 23.5
2  72 12 0 -0 23.5
4 G1 5 76 12 0
0

0101000
+190 44 -140 44 *
Wi

0101100
-189 29 -144 0 +142 0 -141 0 -205 29 -149 33 +139 75 +138 42 *
Fa
0  1e-07 5 74

0111000
+137 0 *
Ve
1e-07
3.85 40 9.6
0 0

0101101
*
Ed
 1e-07 1 1 0
1  37 0 0 3.9
2  73 6 79 0 3.9
2  74 7 80 0 3.9
0

0101000
+204 81 -135 81 *
Ed
 1e-07 1 1 0
1  38 0 0 3.5
2  75 6 0 0 3.5
2  76 25 0 0 3.5
0

0101000
+135 36 -143 36 *
Wi

0101100
-134 78 -133 0 -141 0 +203 0 *
Fa
0  1e-07 6 0

0111000
+132 0 *
Ve
1e-07
-17.5 40 -13.5
0 0

0101101
*
Ve
1e-07
17.5 40 -13.5
0 0

0101101
*
Ed
 1e-07 1 1 0
1  39 0 0 35
2  77 7 84 0 35
2  78 26 39 0 35
0

0101000
+130 85 -129 85 *
Ed
 1e-07 1 1 0
1  40 0 0 27
2  79 7 0 0 27
2  80 8 0 0 27
0

0101000
+129 86 -202 86 *
Ve
1e-07
-3.85 40 9.6
0 0

0101101
*
Ed
 1e-07 1 1 0
1  41 0 0 7.7
2  81 7 80 0 7.7
2  82 25 79 0 7.7
0

0101000
+126 81 -135 81 *
Ed
 1e-07 1 1 0
1  42 0 0 3.9
2  83 7 80 0 3.9
2  84 11 79 0 3.9
0

0101000
+126 81 -194 81 *
Ed
 1e-07 1 1 0
1  43 0 0 27
2  85 7 0 0 27
2  86 10 0 0 27
0

0101000
+130 86 -196 86 *
Wi

0101100
-128 83 -127 82 +201 38 -134 78 +125 78 -124 78 +193 38 +123 82 *
Fa
0  1e-07 7 82

0111000
+122 0 *
Ve
1e-07
17.5 -40 -13.5
0 0

0101101
*
Ed
 1e-07 1 1 0
1  44 0 0 27
2  87 8 0 0 27
2  88 9 0 0 27
0

0101000
+120 86 -200 86 *
Ed
 1e-07 1 1 0
1  45 0 0 80
2  89 8 84 0 80
2  90 26 39 0 80
0

0101000
+129 85 -120 85 *
Wi

0101000
+127 0 -119 0 -118 88 +199 89 *
Fa
0  1e-07 8 0

0111000
+117 0 *
Ve
1e-07
-17.5 -40 -13.5
0 0

0101101
*
Ed
 1e-07 1 1 0
1  46 0 0 35
2  91 9 84 0 35
2  92 26 39 0 35
0

0101000
+120 85 -115 85 *
Ed
 1e-07 1 1 0
1  47 0 0 27
2  93 9 0 0 27
2  94 10 0 0 27
0

0101000
+115 86 -198 86 *
Wi

0101100
+119 87 -114 90 +197 91 -113 87 *
Ve
1e-07
3.5 -40 -8.5
0 0

0101101
*
Ed
 1e-07 1 1 0
1  48 0 0 6.28318530717959
2  95 9 94 0 6.28318530717959
2  96 27 95 0 6.28318530717959
0

0101000
+111 96 -111 96 *
Wi

0101100
-110 93 *
Fa
0  1e-07 9 87

0111000
+112 0 +109 0 *
Ed
 1e-07 1 1 0
1  49 0 0 80
2  97 10 84 0 80
2  98 26 39 0 80
0

0101000
+115 85 -130 85 *
Wi

0101000
+113 0 -123 0 -107 88 +195 89 *
Fa
0  1e-07 10 0

0111000
+106 0 *
Ed
 1e-07 1 1 0
1  50 0 0 3.5
2  99 11 0 0 3.5
2  100 25 0 0 3.5
0

0101000
+126 36 -145 36 *
Wi

0101100
-124 78 -191 0 -144 0 +104 0 *
Fa
0  1e-07 11 0

0111000
+103 0 *
Ve
1e-07
-14 33.5 -10
0 0

0101101
*
Ed
 1e-07 1 1 0
1  51 0 -0 23.5
2  101 12 0 -0 23.5
2  102 13 76 -0 23.5
4 G1 12 0 13 76
0

0101000
+188 44 -101 44 *
Ed
 1e-07 1 1 0
1  52 0 0 1.5707963267949
2  103 12 0 0 1.5707963267949
2  104 24 98 0 1.5707963267949
0

0101000
+140 44 -101 44 *
Wi

0101100
+187 0 -138 0 +100 0 -99 0 *
Fa
0  1e-07 12 0

0111000
+98 0 *
Ve
1e-07
-14 -7 -10
0 0

0101101
*
Ed
 1e-07 1 1 0
1  53 0 0 23.5
2  105 13 101 0 23.5
2  106 14 0 0 23.5
4 G1 13 101 14 0
0

0101000
+186 47 -96 47 *
Ed
 1e-07 1 1 0
1  54 0 3 43.5
2  107 13 69 3 43.5
2  108 24 70 3 43.5
0

0101000
+96 71 -101 71 *
Wi

0101100
-185 100 +95 0 -100 18 +94 102 *
Fa
0  1e-07 13 0

0111000
+93 99 *
Ve
1e-07
-11 -10 -10
0 0

0101101
*
Ed
 1e-07 1 1 0
1  55 0 -0 23.5
2  109 14 0 -0 23.5
2  110 15 101 -0 23.5
4 G1 14 0 15 101
0

0101000
+184 47 -91 47 *
Ed
 1e-07 1 1 0
1  56 0 1.5707963267949 3.14159265358979
2  111 14 0 1.5707963267949 3.14159265358979
2  112 24 104 1.5707963267949 3.14159265358979
0

0101000
+96 47 -91 47 *
Wi

0101100
+183 0 -95 0 +90 0 -89 0 *
Fa
0  1e-07 14 0

0111000
+88 0 *
Ed
 1e-07 1 1 0
1  57 0 3 25
2  113 15 69 3 25
2  114 24 70 3 25
0

0101000
+162 71 -91 71 *
Wi

0101100
-182 29 +161 25 -90 45 +86 75 *
Fa
0  1e-07 15 74

0111000
+85 0 *
Ve
1e-07
9.499999999918 -35 -1.5
0 0

0101101
*
Ed
 1e-07 1 1 0
1  58 0 -0 15
2  115 16 106 -0 15
2  116 17 0 -0 15
4 G1 16 106 17 0
0

0101000
+180 55 -83 55 *
Ve
1e-07
-9.49999999999802 -35 -1.5
0 0

0101101
*
Ed
 1e-07 1 1 0
1  59 0 -0 15
2  117 16 107 -0 15
2  118 18 0 -0 15
4 G1 16 107 18 0
0

0101000
+179 58 -81 58 *
Ed
 1e-07 1 1 0
1  60 0 3 21.999999999916
2  119 16 110 3 21.999999999916
2  120 28 111 3 21.999999999916
0

0101000
+83 112 -81 112 *
Wi

0101100
-178 49 +82 53 -80 56 +79 109 *
Fa
0  1e-07 16 105

0111000
+78 0 *
Ve
1e-07
12.499999999918 -32 -1.5
0 0

0101101
*
Ed
 1e-07 1 1 0
1  61 0 -0 15
2  121 17 0 -0 15
2  122 19 106 -0 15
4 G1 17 0 19 106
0

0101000
+177 55 -76 55 *
Ed
 1e-07 1 1 0
1  62 0 3.14159265358979 4.71238898038469
2  123 17 0 3.14159265358979 4.71238898038469
2  124 28 114 3.14159265358979 4.71238898038469
0

0101000
+83 55 -76 55 *
Wi

0101100
+176 0 -82 0 +75 0 -74 0 *
Fa
0  1e-07 17 0

0111000
+73 0 *
Ve
1e-07
-12.499999999998 -32 -1.5
0 0

0101101
*
Ed
 1e-07 1 1 0
1  63 0 -0 15
2  125 18 0 -0 15
2  126 20 107 -0 15
4 G1 18 0 20 107
0

0101000
+175 58 -71 58 *
Ed
 1e-07 1 1 0
1  64 0 1.5707963267949 3.14159265358979
2  127 18 0 1.5707963267949 3.14159265358979
2  128 28 116 1.5707963267949 3.14159265358979
0

0101000
+71 58 -81 58 *
Wi

0101100
+174 0 -70 0 +80 0 -69 0 *
Fa
0  1e-07 18 0

0111000
+68 0 *
Ve
1.000001687539e-07
12.4999999999178 -22.9999999999459 -1.5
0 0

0101101
*
Ed
 1.000001687539e-07 1 1 0
1  65 0 0 15
2  129 19 0 0 15
2  130 21 0 0 15
4 G1 19 0 21 0
0

0101000
+173 120 -66 120 *
Ed
 1e-07 1 1 0
1  66 0 3 12.0000000000541
2  131 19 110 3 12.0000000000541
2  132 28 111 3 12.0000000000541
0

0101000
+76 112 -66 112 *
Wi

0101100
-172 119 +75 0 -65 106 +64 121 *
Fa
0  1e-07 19 0

0111000
+63 118 *
Ve
1.00000211386464e-07
-12.499999999998 -22.9999999999918 -1.5
0 0

0101101
*
Ed
 1.00000211386464e-07 1 1 0
1  67 0 0 15
2  133 20 0 0 15
2  134 22 0 0 15
4 G1 20 0 22 0
0

0101000
+171 120 -61 120 *
Ed
 1e-07 1 1 0
1  68 0 3 12.000000000008
2  135 20 110 3 12.000000000008
2  136 28 111 3 12.000000000008
0

0101000
+71 112 -61 112 *
Wi

0101100
-170 123 +70 0 -60 107 +59 124 *
Fa
0  1e-07 20 0

0111000
+58 122 *
Ve
1.0000478511226e-07
5.00000000002193 -15.5000231625978 -1.5
0 0

0101101
*
Ed
 1e-07 1 1 0
1  69 0 4.685772e-06 1.570794729368
2  137 21 110 4.685772e-06 1.570794729368
2  138 28 111 4.685772e-06 1.570794729368
0

0101000
+66 112 -56 112 *
Ed
 1.0000478511226e-07 1 1 0
1  70 0 0 15
2  139 21 0 0 15
2  140 23 0 0 15
4 G1 21 0 23 0
0

0101000
+169 120 -56 120 *
Wi

0101100
+65 0 -168 125 +55 126 -54 0 *
Fa
0  1e-07 21 0

0111000
+53 0 *
Ve
1e-07
-5.00000000002058 -15.5000068856462 -1.5
0 0

0101101
*
Ed
 1e-07 1 1 0
1  71 0 0 15
2  141 22 0 0 15
2  142 23 0 0 15
4 G1 22 0 23 0
0

0101000
+167 120 -51 120 *
Ed
 1e-07 1 1 0
1  72 0 1.570794681564 3.141593380736
2  143 22 110 1.570794681564 3.141593380736
2  144 28 111 1.570794681564 3.141593380736
0

0101000
+51 112 -61 112 *
Wi

0101100
+50 0 -166 125 +49 126 -60 0 *
Fa
0  1e-07 22 0

0111000
+48 0 *
Ve
1.00001002006615e-07
-0.0144916257835037 -15.5000150005316 -1.5
0 0

0101101
*
Ed
 1e-07 1 1 0
1  73 0 0 4.98550837424368
2  145 23 110 0 4.98550837424368
2  146 28 111 0 4.98550837424368
0

0101000
+51 112 -46 112 *
Ve
1.00001016248603e-07
0.0145144134594525 -15.5000150477446 -1.5
0 0

0101101
*
Ed
 1e-07 1 1 0
1  74 0 4.98550837424368 5.01451441348667
2  147 23 110 4.98550837424368 5.01451441348667
2  148 29 127 4.98550837424368 5.01451441348667
0

0101000
+46 112 -44 112 *
Ed
 1e-07 1 1 0
1  75 0 5.01451441348667 10.0000000000558
2  149 23 110 5.01451441348667 10.0000000000558
2  150 28 111 5.01451441348667 10.0000000000558
0

0101000
+44 112 -56 112 *
Wi

0101100
+50 105 -165 49 +45 109 -54 105 +43 109 +42 109 *
Fa
0  1e-07 23 105

0111000
+41 0 *
Wi

0101100
+86 68 -158 0 -89 19 +153 68 +94 68 +148 66 -99 130 +139 68 *
Fa
0  1e-07 24 0

0111000
+39 129 *
Wi

0101100
-125 78 -133 0 -142 0 +104 0 *
Fa
0  1e-07 25 0

0111000
+37 0 *
Wi

0101100
-128 133 -107 133 -118 133 -114 133 *
Ve
1e-07
8 -22.5 -13.5
0 0

0101101
*
Ed
 1e-07 1 1 0
1  76 0 0 6.28318530717959
2  151 26 136 0 6.28318530717959
2  152 30 137 0 6.28318530717959
0

0101000
+34 138 -34 138 *
Wi

0101100
+33 135 *
Fa
0  1e-07 26 132

0111000
+35 0 +32 0 *
Ve
1e-07
3.5 -32 -8.5
0 0

0101101
*
Ed
 1e-07 1 1 0
1  77 0 0 8
3  153 154CN 27 0 0 8
0

0101000
+111 139 -30 139 *
Ed
 1e-07 1 1 0
1  78 0 0 6.28318530717959
2  155 27 142 0 6.28318530717959
2  156 31 143 0 6.28318530717959
0

0101000
+30 144 -30 144 *
Wi

0101100
-110 93 -29 0 +28 141 +29 0 *
Fa
0  1e-07 27 0

0111000
+27 0 *
Ve
2.00001e-07
7 -22.5 -1.5
0 0

0101101
*
Ed
 1e-07 1 1 0
1  79 0 4.71446246950753 6.28318530717959
2  157 28 146 4.71446246950753 6.28318530717959
2  158 32 0 4.71446246950753 6.28318530717959
0

0101000
+44 149 -25 149 *
Ed
 1e-07 1 1 0
1  80 0 0 4.71031874665111
2  159 28 146 0 4.71031874665111
2  160 32 0 0 4.71031874665111
0

0101000
+25 149 -46 149 *
Wi

0101100
+79 121 -74 0 -69 21 -64 121 +59 121 -55 121 -49 121 +42 121 +45 121 -24 148 
-23 148 *
Fa
0  1e-07 28 146

0111000
+22 147 *
Ed
 1e-07 1 1 0
1  81 0 4.71031874665111 4.71446246950753
2  161 29 0 4.71031874665111 4.71446246950753
2  162 32 0 4.71031874665111 4.71446246950753
0

0101000
+46 149 -44 149 *
Wi

0101100
-43 150 +20 0 *
Fa
0  1e-07 29 0

0111000
+19 0 *
Ve
1e-07
8 -22.5 -2.5
0 0

0101101
*
Ed
 1e-07 1 1 0
1  82 0 0 11
3  163 164CN 30 0 0 11
0

0101000
+34 151 -17 151 *
Ed
 1e-07 1 1 0
1  83 0 0 6.28318530717959
2  165 30 154 0 6.28318530717959
2  166 33 155 0 6.28318530717959
0

0101000
+17 156 -17 156 *
Wi

0101100
-33 135 -16 0 +15 153 +16 0 *
Fa
0  1e-07 30 0

0111000
+14 0 *
Wi

0101100
+28 0 *
Fa
0  1e-07 31 0

0111000
+12 92 *
Ve
1e-07
7 -22.5 -2.5
0 0

0101101
*
Ed
 1e-07 1 1 0
1  84 0 0 0.999999999999998
3  167 168CN 32 0 0 0.999999999999998
0

0101000
+10 149 -25 149 *
Ed
 1e-07 1 1 0
1  85 0 0 6.28318530717959
2  169 32 160 0 6.28318530717959
2  170 33 161 0 6.28318530717959
0

0101000
+10 162 -10 162 *
Wi

0101100
-9 0 +24 0 +20 0 +23 0 +9 0 -8 159 *
Fa
0  1e-07 32 0

0111000
+7 0 *
Wi

0101100
+15 164 *
Wi

0101100
-8 159 *
Fa
0  1e-07 33 163

0111000
+5 0 +4 0 *
Sh

0101100
+163 4 +156 59 +151 63 -146 72 +136 4 -131 4 +121 4 +116 87 +108 0 +105 87 
-102 4 +97 97 +92 63 +87 103 +84 4 +77 4 +72 113 +67 115 -62 117 +57 117 
-52 117 -47 117 +40 4 -38 128 +36 4 -31 131 -26 0 -21 145 +18 145 -13 131 
+11 157 -6 145 +3 145 *
So

1100000
+2 0 *

+1 1 