DBRep_DrawableShape

CASCADE Topology V1, (c) Matra-Datavision
Locations 10
1
              1               0               0              -0 
              0               1               0               0 
              0               0               1              29 
1
              1               0               0               0 
              0               1               0               0 
              0               0               1               0 
2  1 1 2 -1 0
2  2 1 1 -1 0
2  1 -1 0
1
              1               0               0              -0 
              0               1               0              -0 
              0               0               1              -4 
2  1 1 2 -1 6 1 0
2  6 -1 2 1 1 -1 0
2  2 -1 0
2  2 -1 6 1 0
Curve2ds 24
1 0 0 0 -1 
1 0 0 0 -1 
1 9 0 0 -1 
1 0 0 0 -1 
1 0 0 1 0 
1 1.7500000000050022 4.4999999999985603 0 -1 
1 0 -4 1 0 
1 1.7500000000050022 4.4999999999985603 0 -1 
1 3.5000000000139977 0 0 -1 
1 0 0 0 -1 
1 0 0 1 0 
1 1.7500000000050022 4.4999999999985603 -1 2.8773190640380683e-61 
1 0 -4 1 0 
1 1.7500000000050022 4.4999999999985603 -1 2.8773190640380683e-61 
1 9 0 0 -1 
1 3.500000000005997 0 0 -1 
1 0 0 1 0 
1 -1.7500000000089955 4.4999999999985603 8.8896791162874759e-13 -1 
1 0 -4 1 0 
1 -1.7500000000089955 4.4999999999985603 8.8896791162874759e-13 -1 
1 0 0 1 0 
1 1.7500000000050022 -4.5000000000014397 -1 2.8773190640380683e-61 
1 0 -4 1 0 
1 1.7500000000050022 -4.5000000000014397 -1 2.8773190640380683e-61 
Curves 12
1 -4.5 40 29 -0 -0 -1 
1 4.5 40 29 -0 -0 -1 
1 -4.5 40 0 1 0 0 
1 -4.5 40 0 1 0 0 
1 -4.5 36.499999999986002 29 -0 -0 -1 
1 -4.5 40 0 0 -1 0 
1 -4.5 40 0 0 -1 0 
1 4.5 36.499999999994003 29 -0 -0 -1 
1 -4.5 36.499999999986002 0 1 8.8896791162874759e-13 0 
1 -4.5 36.499999999986002 0 1 8.8896791162874759e-13 0 
1 4.5 40 0 0 -1 0 
1 4.5 40 0 0 -1 0 
Polygon3D 0
PolygonOnTriangulations 0
Surfaces 6
1 -4.5 40 29 0 -1 0 1 0 0 -0 0 1 
1 -4.5 40 29 -1 0 0 0 -1 0 0 0 1 
1 4.5 40 29 -1 0 0 0 -1 0 0 0 1 
1 -1.4401280168374192e-12 38.249999999994998 29.000000000000004 -7.0120969354746634e-32 4.1033646432945335e-30 1 0 1 -4.1033646432945335e-30 -1 -2.8773190640380683e-61 -7.0120969354746634e-32 
1 -1.4401280168374192e-12 38.249999999994998 29.000000000000004 -7.0120969354746634e-32 4.1033646432945335e-30 1 0 1 -4.1033646432945335e-30 -1 -2.8773190640380683e-61 -7.0120969354746634e-32 
1 -4.5 36.499999999986002 29 8.8896791162874759e-13 -1 0 1 8.8896791162874759e-13 0 -0 0 1 
Triangulations 0

TShapes 34
Ve
1e-07
-4.5 40 29
0 0

0101101
*
Ve
1e-07
-4.5 40 25
0 0

0101101
*
Ed
 1e-07 1 1 0
1  1 0 0 4
2  1 1 0 0 4
2  2 2 0 0 4
0

0101000
+34 0 -33 0 *
Ve
1e-07
4.5 40 29
0 0

0101101
*
Ve
1e-07
4.5 40 25
0 0

0101101
*
Ed
 1e-07 1 1 0
1  2 0 0 4
2  3 1 0 0 4
2  4 3 0 0 4
0

0101000
+31 0 -30 0 *
Ed
 1e-07 1 1 0
1  3 0 0 9
2  5 1 4 0 9
2  6 4 5 0 9
0

0101000
+34 4 -31 4 *
Ed
 1e-07 1 1 0
1  4 0 0 9
2  7 1 8 0 9
2  8 5 5 0 9
0

0101000
+33 8 -30 8 *
Wi

0101100
+32 0 -29 0 -28 3 +27 7 *
Fa
0  1e-07 1 0

0111000
+26 0 *
Ve
1e-07
-4.5 36.499999999986 29
0 0

0101101
*
Ve
1e-07
-4.5 36.499999999986 25
0 0

0101101
*
Ed
 1e-07 1 1 0
1  5 0 0 4
2  9 2 0 0 4
2  10 6 0 0 4
0

0101000
+24 0 -23 0 *
Ed
 1e-07 1 1 0
1  6 0 0 3.500000000014
2  11 2 4 0 3.500000000014
2  12 4 5 0 3.500000000014
0

0101000
+34 4 -24 4 *
Ed
 1e-07 1 1 0
1  7 0 0 3.500000000014
2  13 2 8 0 3.500000000014
2  14 5 5 0 3.500000000014
0

0101000
+33 8 -23 8 *
Wi

0101100
+32 0 -22 0 -21 3 +20 7 *
Fa
0  1e-07 2 0

0111000
+19 0 *
Ve
1e-07
4.5 36.499999999994 29
0 0

0101101
*
Ve
1e-07
4.5 36.499999999994 25
0 0

0101101
*
Ed
 1e-07 1 1 0
1  8 0 0 4
2  15 6 0 0 4
2  16 3 0 0 4
0

0101000
+17 0 -16 0 *
Ed
 1e-07 1 1 0
1  9 0 0 9
2  17 6 4 0 9
2  18 4 5 0 9
0

0101000
+24 4 -17 4 *
Ed
 1e-07 1 1 0
1  10 0 0 9
2  19 6 8 0 9
2  20 5 5 0 9
0

0101000
+23 8 -16 8 *
Wi

0101100
+22 0 -15 0 -14 3 +13 7 *
Fa
0  1e-07 6 0

0111000
+12 0 *
Ed
 1e-07 1 1 0
1  11 0 0 3.500000000006
2  21 3 4 0 3.500000000006
2  22 4 5 0 3.500000000006
0

0101000
+31 4 -17 4 *
Ed
 1e-07 1 1 0
1  12 0 0 3.500000000006
2  23 3 8 0 3.500000000006
2  24 5 5 0 3.500000000006
0

0101000
+30 8 -16 8 *
Wi

0101100
+29 0 -15 0 -10 3 +9 7 *
Fa
0  1e-07 3 0

0111000
+8 0 *
Wi

0101100
-28 0 +21 0 +14 0 -10 0 *
Fa
0  1e-07 4 0

0111000
+6 1 *
Wi

0101100
-27 0 +20 0 +13 0 -9 0 *
Fa
0  1e-07 5 0

0111000
+4 1 *
Sh

0101100
-25 0 +18 0 +11 0 -7 0 +5 9 -3 10 *
So

1100000
+2 0 *

+1 0 