  0
SECTION
  2
HEADER
  9
$ACADVER
  1
AC1009
  9
$INSBASE
 10
0.0
 20
0.0
 30
0.0
  9
$EXTMIN
 10
0.0
 20
0.0
 30
0.0
  9
$EXTMAX
 10
0.0
 20
0.0
 30
0.0
  0
ENDSEC
  0
SECTION
  2
TABLES
  0
TABLE
  2
VPORT
 70
0
  0
ENDTAB
  0
TABLE
  2
LTYPE
 70
1
  0
LTYPE
  2
CONTINUOUS
 70
0
  3
Solid line
 72
65
 73
0
 40
0.0
  0
ENDTAB
  0
TABLE
  2
LAYER
 70
1
  0
LAYER
  2
0
 70
64
 62
7
  6
continuous
  0
ENDTAB
  0
TABLE
  2
STYLE
 70
1
  0
STYLE
  2
STANDARD
 70
0
 40
0
 41
1.0
 50
0.0
 71
0
 42
1
 3
ARIAL.TTF
 4

  0
ENDTAB
  0
TABLE
  2
VIEW
 70
0
  0
ENDTAB
  0
ENDSEC
  0
SECTION
  2
BLOCKS
  0
BLOCK
  8
0
  2
POCKET036
 70
0
 10
0.0
 20
0.0
 30
0.0
  3
POCKET036
  0
LINE
  8
0
 62
0
 10
4.5
 20
40.0
 30
0.0
 11
17.5
 21
40.0
 31
0.0
  0
LINE
  8
0
 62
0
 10
-4.5
 20
40.0
 30
0.0
 11
4.5
 21
40.0
 31
0.0
  0
LINE
  8
0
 62
0
 10
-17.5
 20
40.0
 30
0.0
 11
-4.5
 21
40.0
 31
0.0
  0
LINE
  8
0
 62
0
 10
17.5
 20
40.0
 30
0.0
 11
17.5
 21
-40.0
 31
0.0
  0
LINE
  8
0
 62
0
 10
-17.5
 20
-40.0
 30
0.0
 11
-17.5
 21
40.0
 31
0.0
  0
LINE
  8
0
 62
0
 10
17.5
 20
-40.0
 30
0.0
 11
-17.5
 21
-40.0
 31
0.0
  0
LINE
  8
0
 62
0
 10
4.5
 20
40.0
 30
0.0
 11
4.5
 21
36.5
 31
0.0
  0
LINE
  8
0
 62
0
 10
4.5
 20
36.5
 30
0.0
 11
10.999989981
 21
36.5
 31
0.0
  0
ARC
  8
0
 62
0
 10
10.9999991709
 20
33.5
 30
0.0
 40
3.0
 50
-0.000199295349177
 51
90.0001755131
  0
LINE
  8
0
 62
0
 10
13.9999991709
 20
33.4999895648
 30
0.0
 11
13.9999997014
 21
-6.9999897832
 31
0.0
  0
ARC
  8
0
 62
0
 10
10.9999997014
 20
-7.0
 30
0.0
 40
3.0
 50
-90.0001856458
 51
0.000195126039751
  0
LINE
  8
0
 62
0
 10
10.999989981
 20
-9.99999999998
 30
0.0
 11
9.5
 21
-9.99999999998
 31
0.0
  0
LINE
  8
0
 62
0
 10
9.5
 20
-9.99999999998
 30
0.0
 11
9.5
 21
-11.0
 31
0.0
  0
LINE
  8
0
 62
0
 10
9.5
 20
-11.0
 30
0.0
 11
12.0
 21
-11.0
 31
0.0
  0
LINE
  8
0
 62
0
 10
12.0
 20
-11.0
 30
0.0
 11
12.0
 21
-15.5
 31
0.0
  0
LINE
  8
0
 62
0
 10
12.0
 20
-15.5
 30
0.0
 11
9.5
 21
-15.5
 31
0.0
  0
LINE
  8
0
 62
0
 10
9.5
 20
-15.5
 30
0.0
 11
9.5
 21
-16.9999837514
 31
0.0
  0
ARC
  8
0
 62
0
 10
5.00000033484
 20
-22.9999704203
 30
0.0
 40
7.49998913415
 50
-7.01914102895e-05
 51
53.1300432948
  0
LINE
  8
0
 62
0
 10
12.5000007126
 20
-31.9999796082
 30
0.0
 11
12.499989469
 21
-22.9999796081
 31
0.0
  0
ARC
  8
0
 62
0
 10
9.50000071263
 20
-32.0
 30
0.0
 40
3.0
 50
-90.0000114948
 51
0.000389455565726
  0
LINE
  8
0
 62
0
 10
-9.50000011077
 20
-35.0
 30
0.0
 11
9.50000011077
 21
-35.0
 31
0.0
  0
ARC
  8
0
 62
0
 10
-9.5
 20
-32.0
 30
0.0
 40
3.0
 50
-179.999960699
 51
-90.0000021155
  0
LINE
  8
0
 62
0
 10
-12.5
 20
-32.0000020577
 30
0.0
 11
-12.5000112436
 21
-23.0000020577
 31
0.0
  0
ARC
  8
0
 62
0
 10
-5.00000008596
 20
-22.9999924438
 30
0.0
 40
7.50001115769
 50
126.869832896
 51
-179.999926551
  0
LINE
  8
0
 62
0
 10
-9.5
 20
-16.9999784322
 30
0.0
 11
-9.5
 21
-15.5
 31
0.0
  0
LINE
  8
0
 62
0
 10
-9.5
 20
-15.5
 30
0.0
 11
-12.0
 21
-15.5
 31
0.0
  0
LINE
  8
0
 62
0
 10
-12.0
 20
-11.0
 30
0.0
 11
-12.0
 21
-15.5
 31
0.0
  0
LINE
  8
0
 62
0
 10
-12.0
 20
-11.0
 30
0.0
 11
-9.5
 21
-11.0
 31
0.0
  0
LINE
  8
0
 62
0
 10
-9.5
 20
-11.0
 30
0.0
 11
-9.5
 21
-9.99999999998
 31
0.0
  0
LINE
  8
0
 62
0
 10
-9.5
 20
-9.99999999998
 30
0.0
 11
-10.999989981
 21
-9.99999999998
 31
0.0
  0
ARC
  8
0
 62
0
 10
-11.0000002986
 20
-7.0
 30
0.0
 40
3.0
 50
179.999811189
 51
-89.9998029496
  0
LINE
  8
0
 62
0
 10
-14.0000002986
 20
-6.99999011386
 30
0.0
 11
-14.0000008291
 21
33.4999892342
 31
0.0
  0
ARC
  8
0
 62
0
 10
-11.0000008291
 20
33.5
 30
0.0
 40
3.0
 50
89.9997928169
 51
-179.999794389
  0
LINE
  8
0
 62
0
 10
-10.999989981
 20
36.5
 30
0.0
 11
-4.5
 21
36.5
 31
0.0
  0
LINE
  8
0
 62
0
 10
-4.5
 20
40.0
 30
0.0
 11
-4.5
 21
36.5
 31
0.0
  0
CIRCLE
  8
0
 62
0
 10
14.5
 20
-18.0
 30
0.0
 40
1.7
  0
CIRCLE
  8
0
 62
0
 10
14.5
 20
37.0
 30
0.0
 40
1.7
  0
CIRCLE
  8
0
 62
0
 10
-14.5
 20
37.0
 30
0.0
 40
1.7
  0
CIRCLE
  8
0
 62
0
 10
-14.5
 20
-18.0
 30
0.0
 40
1.7
  0
CIRCLE
  8
0
 62
0
 10
-14.5
 20
-37.0
 30
0.0
 40
1.7
  0
CIRCLE
  8
0
 62
0
 10
14.5
 20
-37.0
 30
0.0
 40
1.7
  0
LINE
  8
0
 62
0
 10
-4.5
 20
36.5
 30
0.0
 11
4.5
 21
36.5
 31
0.0
  0
LINE
  8
0
 62
0
 10
0.866025403784
 20
-9.49999999998
 30
0.0
 11
-0.866025403784
 21
-9.49999999998
 31
0.0
  0
LINE
  8
0
 62
0
 10
9.5
 20
-9.99999999998
 30
0.0
 11
-9.5
 21
-9.99999999998
 31
0.0
  0
ARC
  8
0
 62
0
 10
5.00000033484
 20
-22.9999704203
 30
0.0
 40
7.49998913415
 50
53.1300432948
 51
89.8720061191
  0
ARC
  8
0
 62
0
 10
5.00000033485
 20
-22.9999704188
 30
0.0
 40
7.49998913273
 50
89.8720061191
 51
90.000002558
  0
ARC
  8
0
 62
0
 10
5.00000033484
 20
-22.9999704203
 30
0.0
 40
7.49998913415
 50
-7.01914102895e-05
 51
53.1300432948
  0
ARC
  8
0
 62
0
 10
-5.00000008596
 20
-22.9999924403
 30
0.0
 40
7.50001115423
 50
89.9999993433
 51
90.127993693
  0
ARC
  8
0
 62
0
 10
-5.00000008596
 20
-22.9999924438
 30
0.0
 40
7.50001115769
 50
90.127993693
 51
126.869832896
  0
ARC
  8
0
 62
0
 10
-1.38777878078e-17
 20
-8.99999999998
 30
0.0
 40
1.0
 50
-0.0
 51
-90.0000003845
  0
ARC
  8
0
 62
0
 10
-3.05311331772e-16
 20
-8.99999999998
 30
0.0
 40
1.0
 50
-90.0000003845
 51
0.0
  0
ARC
  8
0
 62
0
 10
-5.55111512313e-15
 20
-8.99999999998
 30
0.0
 40
1.0
 50
-30.0
 51
0.0
  0
ARC
  8
0
 62
0
 10
-7.77156117238e-16
 20
-8.99999999998
 30
0.0
 40
1.0
 50
-0.0
 51
-150.0
  0
LINE
  8
0
 62
0
 10
-9.5
 20
-11.0
 30
0.0
 11
9.5
 21
-11.0
 31
0.0
  0
LINE
  8
0
 62
0
 10
9.5
 20
-11.0
 30
0.0
 11
9.5
 21
-15.5
 31
0.0
  0
LINE
  8
0
 62
0
 10
9.5
 20
-15.5
 30
0.0
 11
5.01675465647
 21
-15.5
 31
0.0
  0
LINE
  8
0
 62
0
 10
-9.5
 20
-15.5
 30
0.0
 11
-9.5
 21
-11.0
 31
0.0
  0
LINE
  8
0
 62
0
 10
-5.01675443218
 20
-15.5
 30
0.0
 11
-9.5
 21
-15.5
 31
0.0
  0
LINE
  8
0
 62
0
 10
-5.0
 20
-15.4999812861
 30
0.0
 11
5.0
 21
-15.4999812861
 31
0.0
  0
CIRCLE
  8
0
 62
0
 10
0.0
 20
-22.5
 30
0.0
 40
7.0
  0
ENDBLK
  0
ENDSEC
  0
SECTION
  2
ENTITIES
  0
INSERT
  2
POCKET036
  8
0
 62
0
 10
0.0
 20
0.0
 30
0.0
  0
ENDSEC
  0
EOF
