  0
SECTION
  2
HEADER
  9
$ACADVER
  1
AC1009
  9
$INSBASE
 10
0.0
 20
0.0
 30
0.0
  9
$EXTMIN
 10
0.0
 20
0.0
 30
0.0
  9
$EXTMAX
 10
0.0
 20
0.0
 30
0.0
  0
ENDSEC
  0
SECTION
  2
TABLES
  0
TABLE
  2
VPORT
 70
0
  0
ENDTAB
  0
TABLE
  2
LTYPE
 70
1
  0
LTYPE
  2
CONTINUOUS
 70
0
  3
Solid line
 72
65
 73
0
 40
0.0
  0
ENDTAB
  0
TABLE
  2
LAYER
 70
1
  0
LAYER
  2
0
 70
64
 62
7
  6
continuous
  0
ENDTAB
  0
TABLE
  2
STYLE
 70
1
  0
STYLE
  2
STANDARD
 70
0
 40
0
 41
1.0
 50
0.0
 71
0
 42
1
 3
ARIAL.TTF
 4

  0
ENDTAB
  0
TABLE
  2
VIEW
 70
0
  0
ENDTAB
  0
ENDSEC
  0
SECTION
  2
BLOCKS
  0
BLOCK
  8
0
  2
SHAPE2DVIEW
 70
0
 10
0.0
 20
0.0
 30
0.0
  3
SHAPE2DVIEW
  0
LINE
  8
0
 62
0
 10
0.0
 20
17.5
 30
0.0
 11
0.0
 21
-17.5
 31
0.0
  0
LINE
  8
0
 62
0
 10
0.0
 20
17.5
 30
0.0
 11
-1.95
 21
17.5
 31
0.0
  0
LINE
  8
0
 62
0
 10
-1.95
 20
17.5
 30
0.0
 11
-29.0
 21
17.5
 31
0.0
  0
LINE
  8
0
 62
0
 10
-29.0
 20
17.5
 30
0.0
 11
-29.0
 21
-17.5
 31
0.0
  0
LINE
  8
0
 62
0
 10
0.0
 20
-17.5
 30
0.0
 11
-1.95
 21
-17.5
 31
0.0
  0
LINE
  8
0
 62
0
 10
-1.95
 20
-17.5
 30
0.0
 11
-29.0
 21
-17.5
 31
0.0
  0
LINE
  8
0
 62
0
 10
-1.0
 20
-0.866025403784
 30
0.0
 11
-1.95
 21
-0.866025403784
 31
0.0
  0
LINE
  8
0
 62
0
 10
-1.0
 20
0.866025403784
 30
0.0
 11
-1.0
 21
-0.866025403784
 31
0.0
  0
LINE
  8
0
 62
0
 10
-1.0
 20
0.866025403784
 30
0.0
 11
-1.95
 21
0.866025403784
 31
0.0
  0
LINE
  8
0
 62
0
 10
-1.95
 20
-17.5
 30
0.0
 11
-1.95
 21
17.5
 31
0.0
  0
CIRCLE
  8
0
 62
0
 10
-25.5
 20
8.5
 30
0.0
 40
1.5
  0
CIRCLE
  8
0
 62
0
 10
-8.0
 20
0.0
 30
0.0
 40
3.5
  0
CIRCLE
  8
0
 62
0
 10
-25.5
 20
-8.5
 30
0.0
 40
1.5
  0
LINE
  8
0
 62
0
 10
-24.3819660113
 20
9.5
 30
0.0
 11
-26.6180339887
 21
9.5
 31
0.0
  0
LINE
  8
0
 62
0
 10
-24.3819666487
 20
9.50000071263
 30
0.0
 11
-26.6180331152
 21
9.50000071263
 31
0.0
  0
LINE
  8
0
 62
0
 10
-26.6180338897
 20
-9.50000011077
 30
0.0
 11
-24.3819661103
 21
-9.50000011077
 31
0.0
  0
LINE
  8
0
 62
0
 10
-24.3819660113
 20
-9.5
 30
0.0
 11
-26.6180339887
 21
-9.5
 31
0.0
  0
POLYLINE
  8
0
 62
0
 70
0
 66
1
 10
0.0
 20
0.0
 30
0.0
  0
VERTEX
  8
0
 10
-1.0
 20
0.866025403784
 30
0.0
  0
VERTEX
  8
0
 10
-1.0
 20
-0.866025403784
 30
0.0
  0
SEQEND
  8
0
  0
POLYLINE
  8
0
 62
0
 70
0
 66
1
 10
0.0
 20
0.0
 30
0.0
  0
VERTEX
  8
0
 10
-8.0
 20
3.0
 30
0.0
  0
VERTEX
  8
0
 10
-5.05605441959
 20
0.577221068261
 30
0.0
  0
VERTEX
  8
0
 10
-7.171846912
 20
-2.88342910556
 30
0.0
  0
VERTEX
  8
0
 10
-10.8581243337
 20
-0.91166040242
 30
0.0
  0
VERTEX
  8
0
 10
-8.0
 20
3.0
 30
0.0
  0
SEQEND
  8
0
  0
CIRCLE
  8
0
 62
0
 10
-8.0
 20
0.0
 30
0.0
 40
3.0
  0
LINE
  8
0
 62
0
 10
-26.6180338897
 20
9.50000011077
 30
0.0
 11
-24.3819661103
 21
9.50000011077
 31
0.0
  0
ENDBLK
  0
ENDSEC
  0
SECTION
  2
ENTITIES
  0
INSERT
  2
SHAPE2DVIEW
  8
0
 62
0
 10
0.0
 20
0.0
 30
0.0
  0
ENDSEC
  0
EOF
