DBRep_DrawableShape

CASCADE Topology V1, (c) Matra-Datavision
Locations 10
1
              1               0               0               0 
              0               1               0               0 
              0               0               1               0 
1
              1               0               0               0 
              0               1               0               0 
              0               0               1               0 
2  1 1 2 -1 0
2  2 1 1 -1 0
2  1 -1 0
1
              1               0               0               0 
              0               1               0               0 
              0               0               1               3 
2  1 1 2 -1 6 1 0
2  6 -1 2 1 1 -1 0
2  2 -1 0
2  2 -1 6 1 0
Curve2ds 24
1 0 0 0 -1 
1 35 0 0 -1 
1 80 0 0 -1 
1 0 0 0 -1 
1 0 0 1 0 
1 40 17.5 -1 0 
1 0 -3 1 0 
1 40 17.5 -1 0 
1 35 0 0 -1 
1 0 -0 0 -1 
1 0 0 1 0 
1 -40 17.5 0 -1 
1 0 -3 1 0 
1 -40 17.5 0 -1 
1 80 0 0 -1 
1 0 0 0 -1 
1 0 -0 1 0 
1 -40 -17.5 1 0 
1 0 -3 1 0 
1 -40 -17.5 1 0 
1 0 0 1 0 
1 40 -17.5 0 1 
1 0 -3 1 0 
1 40 -17.5 0 1 
Curves 12
1 0 35 0 0 0 1 
1 80 35 0 0 0 1 
1 0 35 0 1 0 0 
1 0 35 0 1 0 0 
1 80 0 0 0 0 1 
1 80 35 0 0 -1 0 
1 80 35 0 0 -1 0 
1 0 0 0 0 0 1 
1 80 0 0 -1 0 0 
1 80 0 0 -1 0 0 
1 0 0 0 0 1 0 
1 0 0 0 0 1 0 
Polygon3D 0
PolygonOnTriangulations 0
Surfaces 6
1 0 35 0 0 1 0 1 0 0 0 0 -1 
1 0 0 0 -1 0 0 0 1 0 0 0 -1 
1 80 35 0 1 0 -0 0 -1 0 0 -0 -1 
1 40 17.5 0 -0 -0 -1 -1 0 0 0 1 -0 
1 40 17.5 0 -0 -0 -1 -1 0 0 0 1 -0 
1 80 0 0 0 -1 0 -1 0 0 -0 -0 -1 
Triangulations 0

TShapes 34
Ve
1e-07
0 35 0
0 0

0101101
*
Ve
1e-07
0 35 3
0 0

0101101
*
Ed
 1e-07 1 1 0
1  1 0 0 3
2  1 1 0 0 3
2  2 2 0 0 3
0

0101000
+34 0 -33 0 *
Ve
1e-07
80 35 0
0 0

0101101
*
Ve
1e-07
80 35 3
0 0

0101101
*
Ed
 1e-07 1 1 0
1  2 0 0 3
2  3 1 0 0 3
2  4 3 0 0 3
0

0101000
+31 0 -30 0 *
Ed
 1e-07 1 1 0
1  3 0 0 80
2  5 1 4 0 80
2  6 4 5 0 80
0

0101000
+34 4 -31 4 *
Ed
 1e-07 1 1 0
1  4 0 0 80
2  7 1 8 0 80
2  8 5 5 0 80
0

0101000
+33 8 -30 8 *
Wi

0101100
+32 0 -29 0 -28 3 +27 7 *
Fa
0  1e-07 1 0

0111000
+26 0 *
Ve
1e-07
80 0 0
0 0

0101101
*
Ve
1e-07
80 0 3
0 0

0101101
*
Ed
 1e-07 1 1 0
1  5 0 0 3
2  9 3 0 0 3
2  10 6 0 0 3
0

0101000
+24 0 -23 0 *
Ed
 1e-07 1 1 0
1  6 0 0 35
2  11 3 4 0 35
2  12 4 5 0 35
0

0101000
+31 4 -24 4 *
Ed
 1e-07 1 1 0
1  7 0 0 35
2  13 3 8 0 35
2  14 5 5 0 35
0

0101000
+30 8 -23 8 *
Wi

0101100
+29 0 -22 0 -21 3 +20 7 *
Fa
0  1e-07 3 0

0111000
+19 0 *
Ve
1e-07
0 0 0
0 0

0101101
*
Ve
1e-07
0 0 3
0 0

0101101
*
Ed
 1e-07 1 1 0
1  8 0 0 3
2  15 6 0 0 3
2  16 2 0 0 3
0

0101000
+17 0 -16 0 *
Ed
 1e-07 1 1 0
1  9 0 0 80
2  17 6 4 0 80
2  18 4 5 0 80
0

0101000
+24 4 -17 4 *
Ed
 1e-07 1 1 0
1  10 0 0 80
2  19 6 8 0 80
2  20 5 5 0 80
0

0101000
+23 8 -16 8 *
Wi

0101100
+22 0 -15 0 -14 3 +13 7 *
Fa
0  1e-07 6 0

0111000
+12 0 *
Ed
 1e-07 1 1 0
1  11 0 0 35
2  21 2 4 0 35
2  22 4 5 0 35
0

0101000
+17 4 -34 4 *
Ed
 1e-07 1 1 0
1  12 0 0 35
2  23 2 8 0 35
2  24 5 5 0 35
0

0101000
+16 8 -33 8 *
Wi

0101100
+15 0 -32 0 -10 3 +9 7 *
Fa
0  1e-07 2 0

0101000
+8 0 *
Wi

0101100
+28 0 +21 0 +14 0 +10 0 *
Fa
0  1e-07 4 0

0111000
+6 1 *
Wi

0101100
+27 0 +20 0 +13 0 +9 0 *
Fa
0  1e-07 5 0

0111000
+4 1 *
Sh

0101100
+25 0 +18 0 +11 0 +7 0 +5 9 -3 10 *
So

1100000
+2 0 *

+1 0 