DBRep_DrawableShape

CASCADE Topology V1, (c) Matra-Datavision
Locations 10
1
              1               0               0              -0 
              0               1               0               0 
              0               0               1              29 
1
              1               0               0               0 
              0               1               0               0 
              0               0               1               0 
2  1 1 2 -1 0
2  2 1 1 -1 0
2  1 -1 0
1
              1               0               0              -0 
              0               1               0              -0 
              0               0               1           -26.5 
2  1 1 2 -1 6 1 0
2  6 -1 2 1 1 -1 0
2  2 -1 0
2  2 -1 6 1 0
Curve2ds 48
1 0 0 0 -1 
1 3.1415893582099343 0 0 -1 
1 40.499979348052364 0 0 -1 
1 3.1415962421924788 0 0 -1 
1 0 0 1 0 
1 13.999999742627322 -20.249990107597416 1.3099877782775314e-08 0.99999999999999989 
1 0 -26.5 1 0 
1 13.999999742627322 -20.249990107597416 1.3099877782775314e-08 0.99999999999999989 
1 1.5707927107674102 0 0 -1 
1 0 0 0 -1 
1 0 0 1 0 
2 11.000000273191418 20.250000006263008 -1 -2.1592157265412046e-65 -2.1592157265412046e-65 1 3
1 0 -26.5 1 0 
2 11.000000273191418 20.250000006263008 -1 -2.1592157265412046e-65 -2.1592157265412046e-65 1 3
1 21.99997996207512 0 0 -1 
1 7.8539846972552905 0 0 -1 
1 0 0 1 0 
1 10.999989425108959 23.250000006243397 -1 8.9140897131658043e-13 
1 0 -26.5 1 0 
1 10.999989425108959 23.250000006243397 -1 8.9140897131658043e-13 
1 6.283181828796045 0 0 -1 
1 0 0 0 -1 
1 0 0 1 0 
2 -10.999999726808582 20.250000006263008 -1 -2.1592157265412046e-65 -2.1592157265412046e-65 1 3
1 0 -26.5 1 0 
2 -10.999999726808582 20.250000006263008 -1 -2.1592157265412046e-65 -2.1592157265412046e-65 1 3
1 40.499979348052364 0 0 -1 
1 6.2831887127785899 0 0 -1 
1 0 0 1 0 
1 -13.999999726790433 20.249989571112387 -1.3099971074452453e-08 -0.99999999999999989 
1 0 -26.5 1 0 
1 -13.999999726790433 20.249989571112387 -1.3099971074452453e-08 -0.99999999999999989 
1 4.7123857402546143 0 0 -1 
1 0 0 0 -1 
1 0 0 1 0 
2 -11.000000257356389 -20.249999993736992 -1 -2.1592157265412046e-65 -2.1592157265412046e-65 1 3
1 0 -26.5 1 0 
2 -11.000000257356389 -20.249999993736992 -1 -2.1592157265412046e-65 -2.1592157265412046e-65 1 3
1 21.999979962075123 0 0 -1 
1 4.7123924195629066 0 0 -1 
1 0 0 1 0 
1 -10.999990536966163 -23.249999993721246 1 9.0675024890264467e-14 
1 0 -26.5 1 0 
1 -10.999990536966163 -23.249999993721246 1 9.0675024890264467e-14 
1 0 0 1 0 
2 10.999999742643611 -20.249999993736992 -1 -2.1592157265412046e-65 -2.1592157265412046e-65 1 3
1 0 -26.5 1 0 
2 10.999999742643611 -20.249999993736992 -1 -2.1592157265412046e-65 -2.1592157265412046e-65 1 3
Curves 24
1 -14.000000298555923 -6.999990113860421 29 -0 -0 -1 
1 -14.000000829100703 33.499989234191943 29 -0 -0 -1 
1 -14.000000298555923 -6.999990113860421 0 -1.3099877782775314e-08 0.99999999999999989 0 
1 -14.000000298555923 -6.999990113860421 0 -1.3099877782775314e-08 0.99999999999999989 0 
1 -10.99998998103756 36.499999999980389 29 -0 -0 -1 
2 -11.000000829120019 33.5 0 0 0 1 1 0 -0 -0 1 0 3
2 -11.000000829120019 33.5 0 0 0 1 1 0 -0 -0 1 0 3
1 10.99998998103756 36.499999999992966 29 -0 -0 -1 
1 -10.99998998103756 36.499999999980389 0 1 8.9140897131658043e-13 0 
1 -10.99998998103756 36.499999999980389 0 1 8.9140897131658043e-13 0 
1 13.999999170861832 33.499989564849379 29 -0 -0 -1 
2 10.999999170879981 33.5 0 0 0 1 1 0 -0 -0 1 0 3
2 10.999999170879981 33.5 0 0 0 1 1 0 -0 -0 1 0 3
1 13.99999970141039 -6.9999897832029863 29 -0 -0 -1 
1 13.999999170861832 33.499989564849379 0 1.3099971074452453e-08 -0.99999999999999989 0 
1 13.999999170861832 33.499989564849379 0 1.3099971074452453e-08 -0.99999999999999989 0 
1 10.999989981037562 -9.9999999999842508 29 -0 -0 -1 
2 10.999999701427788 -6.9999999999999982 0 0 0 1 1 0 -0 -0 1 0 3
2 10.999999701427788 -6.9999999999999982 0 0 0 1 1 0 -0 -0 1 0 3
1 -10.999989981037562 -9.999999999982256 29 -0 -0 -1 
1 10.999989981037562 -9.9999999999842508 0 -1 9.0675024890264467e-14 0 
1 10.999989981037562 -9.9999999999842508 0 -1 9.0675024890264467e-14 0 
2 -11.000000298572212 -6.9999999999999973 0 0 0 1 1 0 -0 -0 1 0 3
2 -11.000000298572212 -6.9999999999999973 0 0 0 1 1 0 -0 -0 1 0 3
Polygon3D 0
PolygonOnTriangulations 0
Surfaces 10
1 -14.000000298555923 -6.999990113860421 29 0.99999999999999989 1.3099877782775314e-08 -0 -1.3099877782775314e-08 0.99999999999999989 0 0 0 1 
2 -11.000000298572212 -6.9999999999999973 29 0 0 1 1 0 -0 -0 1 0 3
2 -11.000000829120019 33.5 29 0 0 1 1 0 -0 -0 1 0 3
1 -5.5592860085667327e-07 13.249999993736994 29.000000000000011 -2.2347652451134846e-32 -9.6619353252540694e-34 -1 -1 0 2.2347652451134846e-32 -2.1592157265412046e-65 1 -9.6619353252540694e-34 
1 -5.5592860085667327e-07 13.249999993736994 29.000000000000011 -2.2347652451134846e-32 -9.6619353252540694e-34 -1 -1 0 2.2347652451134846e-32 -2.1592157265412046e-65 1 -9.6619353252540694e-34 
1 -10.99998998103756 36.499999999980389 29 8.9140897131658043e-13 -1 0 1 8.9140897131658043e-13 0 -0 0 1 
2 10.999999170879981 33.5 29 0 0 1 1 0 -0 -0 1 0 3
1 13.999999170861832 33.499989564849379 29 -0.99999999999999989 -1.3099971074452453e-08 0 1.3099971074452453e-08 -0.99999999999999989 0 0 0 1 
2 10.999999701427788 -6.9999999999999982 29 0 0 1 1 0 -0 -0 1 0 3
1 10.999989981037562 -9.9999999999842508 29 9.0675024890264467e-14 1 -0 -1 9.0675024890264467e-14 0 0 0 1 
Triangulations 0

TShapes 62
Ve
1e-07
-14.0000002985559 -6.99999011386042 29
0 0

0101101
*
Ve
1e-07
-14.0000002985559 -6.99999011386042 2.5
0 0

0101101
*
Ed
 1e-07 1 1 0
1  1 0 0 26.5
2  1 1 0 0 26.5
2  2 2 0 0 26.5
4 G1 1 0 2 0
0

0101000
+62 0 -61 0 *
Ve
1e-07
-14.0000008291007 33.4999892341919 29
0 0

0101101
*
Ve
1e-07
-14.0000008291007 33.4999892341919 2.5
0 0

0101101
*
Ed
 1e-07 1 1 0
1  2 0 0 26.5
2  3 1 0 0 26.5
2  4 3 0 0 26.5
4 G1 1 0 3 0
0

0101000
+59 0 -58 0 *
Ed
 1e-07 1 1 0
1  3 0 0 40.4999793480524
2  5 1 4 0 40.4999793480524
2  6 4 5 0 40.4999793480524
0

0101000
+62 4 -59 4 *
Ed
 1e-07 1 1 0
1  4 0 0 40.4999793480524
2  7 1 8 0 40.4999793480524
2  8 5 5 0 40.4999793480524
0

0101000
+61 8 -58 8 *
Wi

0101100
+60 0 -57 0 -56 3 +55 7 *
Fa
0  1e-07 1 0

0111000
+54 0 *
Ve
1e-07
-10.9999899810376 36.4999999999804 29
0 0

0101101
*
Ve
1e-07
-10.9999899810376 36.4999999999804 2.5
0 0

0101101
*
Ed
 1e-07 1 1 0
1  5 0 0 26.5
2  9 3 0 0 26.5
2  10 6 0 0 26.5
4 G1 3 0 6 0
0

0101000
+52 0 -51 0 *
Ed
 1e-07 1 1 0
1  6 0 1.57079271076741 3.14159624219248
2  11 3 4 1.57079271076741 3.14159624219248
2  12 4 5 1.57079271076741 3.14159624219248
0

0101000
+52 4 -59 4 *
Ed
 1e-07 1 1 0
1  7 0 1.57079271076741 3.14159624219248
2  13 3 8 1.57079271076741 3.14159624219248
2  14 5 5 1.57079271076741 3.14159624219248
0

0101000
+51 8 -58 8 *
Wi

0101100
+50 0 -57 0 -49 3 +48 7 *
Fa
0  1e-07 3 0

0111000
+47 0 *
Ve
1.00007037925798e-07
10.9999899810376 36.499999999993 29
0 0

0101101
*
Ve
1.00007037925798e-07
10.9999899810376 36.499999999993 2.5
0 0

0101101
*
Ed
 1.00007037925798e-07 1 1 0
1  8 0 0 26.5
2  15 6 0 0 26.5
2  16 7 0 0 26.5
4 G1 6 0 7 0
0

0101000
+45 0 -44 0 *
Ed
 1e-07 1 1 0
1  9 0 0 21.9999799620751
2  17 6 4 0 21.9999799620751
2  18 4 5 0 21.9999799620751
0

0101000
+52 4 -45 4 *
Ed
 1e-07 1 1 0
1  10 0 0 21.9999799620751
2  19 6 8 0 21.9999799620751
2  20 5 5 0 21.9999799620751
0

0101000
+51 8 -44 8 *
Wi

0101100
+50 0 -43 0 -42 3 +41 7 *
Fa
0  1e-07 6 0

0111000
+40 0 *
Ve
1e-07
13.9999991708618 33.4999895648494 29
0 0

0101101
*
Ve
1e-07
13.9999991708618 33.4999895648494 2.5
0 0

0101101
*
Ed
 1e-07 1 1 0
1  11 0 0 26.5
2  21 7 0 0 26.5
2  22 8 0 0 26.5
4 G1 7 0 8 0
0

0101000
+38 0 -37 0 *
Ed
 1e-07 1 1 0
1  12 0 6.28318182879605 7.85398469725529
2  23 7 4 6.28318182879605 7.85398469725529
2  24 4 5 6.28318182879605 7.85398469725529
0

0101000
+38 4 -45 4 *
Ed
 1e-07 1 1 0
1  13 0 6.28318182879605 7.85398469725529
2  25 7 8 6.28318182879605 7.85398469725529
2  26 5 5 6.28318182879605 7.85398469725529
0

0101000
+37 8 -44 8 *
Wi

0101100
+36 0 -43 0 -35 3 +34 7 *
Fa
0  1e-07 7 0

0111000
+33 0 *
Ve
1.00000001776357e-07
13.9999997014104 -6.99998978320299 29
0 0

0101101
*
Ve
1.00000001776357e-07
13.9999997014104 -6.99998978320299 2.5
0 0

0101101
*
Ed
 1.00000001776357e-07 1 1 0
1  14 0 0 26.5
2  27 8 0 0 26.5
2  28 9 0 0 26.5
4 G1 8 0 9 0
0

0101000
+31 0 -30 0 *
Ed
 1e-07 1 1 0
1  15 0 0 40.4999793480524
2  29 8 4 0 40.4999793480524
2  30 4 5 0 40.4999793480524
0

0101000
+38 4 -31 4 *
Ed
 1e-07 1 1 0
1  16 0 0 40.4999793480524
2  31 8 8 0 40.4999793480524
2  32 5 5 0 40.4999793480524
0

0101000
+37 8 -30 8 *
Wi

0101100
+36 0 -29 0 -28 3 +27 7 *
Fa
0  1e-07 8 0

0111000
+26 0 *
Ve
1e-07
10.9999899810376 -9.99999999998425 29
0 0

0101101
*
Ve
1e-07
10.9999899810376 -9.99999999998425 2.5
0 0

0101101
*
Ed
 1e-07 1 1 0
1  17 0 0 26.5
2  33 9 0 0 26.5
2  34 10 0 0 26.5
4 G1 9 0 10 0
0

0101000
+24 0 -23 0 *
Ed
 1e-07 1 1 0
1  18 0 4.71238574025461 6.28318871277859
2  35 9 4 4.71238574025461 6.28318871277859
2  36 4 5 4.71238574025461 6.28318871277859
0

0101000
+24 4 -31 4 *
Ed
 1e-07 1 1 0
1  19 0 4.71238574025461 6.28318871277859
2  37 9 8 4.71238574025461 6.28318871277859
2  38 5 5 4.71238574025461 6.28318871277859
0

0101000
+23 8 -30 8 *
Wi

0101100
+22 0 -29 0 -21 3 +20 7 *
Fa
0  1e-07 9 0

0111000
+19 0 *
Ve
1e-07
-10.9999899810376 -9.99999999998226 29
0 0

0101101
*
Ve
1e-07
-10.9999899810376 -9.99999999998226 2.5
0 0

0101101
*
Ed
 1e-07 1 1 0
1  20 0 0 26.5
2  39 10 0 0 26.5
2  40 2 0 0 26.5
4 G1 10 0 2 0
0

0101000
+17 0 -16 0 *
Ed
 1e-07 1 1 0
1  21 0 0 21.9999799620751
2  41 10 4 0 21.9999799620751
2  42 4 5 0 21.9999799620751
0

0101000
+24 4 -17 4 *
Ed
 1e-07 1 1 0
1  22 0 0 21.9999799620751
2  43 10 8 0 21.9999799620751
2  44 5 5 0 21.9999799620751
0

0101000
+23 8 -16 8 *
Wi

0101100
+22 0 -15 0 -14 3 +13 7 *
Fa
0  1e-07 10 0

0111000
+12 0 *
Ed
 1e-07 1 1 0
1  23 0 3.14158935820993 4.71239241956291
2  45 2 4 3.14158935820993 4.71239241956291
2  46 4 5 3.14158935820993 4.71239241956291
0

0101000
+62 4 -17 4 *
Ed
 1e-07 1 1 0
1  24 0 3.14158935820993 4.71239241956291
2  47 2 8 3.14158935820993 4.71239241956291
2  48 5 5 3.14158935820993 4.71239241956291
0

0101000
+61 8 -16 8 *
Wi

0101100
+60 0 -15 0 -10 3 +9 7 *
Fa
0  1e-07 2 0

0111000
+8 0 *
Wi

0101100
+56 0 -49 0 +42 0 -35 0 +28 0 -21 0 +14 0 -10 0 *
Fa
0  1e-07 4 0

0111000
+6 1 *
Wi

0101100
+55 0 -48 0 +41 0 -34 0 +27 0 -20 0 +13 0 -9 0 *
Fa
0  1e-07 5 0

0111000
+4 1 *
Sh

0101100
+53 0 -46 0 +39 0 -32 0 +25 0 -18 0 +11 0 -7 0 +5 9 -3 10 
*
So

1100000
-2 0 *

+1 0 