DBRep_DrawableShape

CASCADE Topology V1, (c) Matra-Datavision
Locations 30
1
              1               0               0               0 
              0               1               0               0 
              0               0               1               0 
1
              1               0               0               0 
              0               1               0               0 
              0               0               1               0 
1
              1               0               0               0 
              0               1               0               0 
              0               0               1               0 
2  2 1 3 -1 0
2  1 -1 3 1 2 -1 0
1
              1               0               0               0 
              0               1               0               0 
              0               0               1               0 
1
              1               0               0               0 
              0               1               0               0 
              0               0               1               0 
2  6 1 7 -1 0
2  7 1 6 -1 0
2  6 -1 0
2  1 -1 3 1 2 -1 7 1 6 -1 0
1
              1               0               0               0 
              0               1               0               0 
              0               0               1               3 
2  6 1 7 -1 12 1 0
2  12 -1 7 1 6 -1 0
2  1 -1 3 1 2 -1 12 -1 7 1 6 -1 0
2  7 -1 2 1 3 -1 0
2  7 -1 12 1 2 1 3 -1 0
2  6 1 7 -1 12 1 2 1 3 -1 0
1
              1               0               0              -0 
              0               1               0               0 
              0               0               1               3 
2  19 1 3 -1 0
2  7 -1 12 1 2 1 19 -1 0
2  3 1 19 -1 0
2  1 -1 3 1 19 -1 0
2  1 -1 0
1
              1               0               0              -0 
              0               1               0              -0 
              0               0               1              -1 
2  19 1 3 -1 25 1 0
2  25 -1 3 1 19 -1 0
2  19 -1 0
2  1 -1 25 -1 3 1 19 -1 0
2  3 -1 25 1 0
Curve2ds 60
1 0 0 0 -1 
1 35 0 0 -1 
1 80 0 0 -1 
1 0 0 0 -1 
1 0 0 1 0 
1 40 17.5 -1 0 
1 0 -3 1 0 
1 40 17.5 -1 0 
1 0 0 0 -1 
1 80 0 0 -1 
1 0 0 1 0 
1 40 -17.5 0 1 
1 0 -3 1 0 
1 40 -17.5 0 1 
1 35 0 0 -1 
1 0 -0 0 -1 
1 0 0 1 0 
1 -40 17.5 0 -1 
1 0 -3 1 0 
1 -40 17.5 0 -1 
1 -40 -17.5 1 0 
1 0 -0 1 0 
1 -40 -17.5 1 0 
1 0 -3 1 0 
2 18 -14.5 -1 0 0 1 1.5
1 0 0 1 0 
2 18 14.499999999999996 -1 0 0 1 1.5
1 0 0 1 0 
2 37 14.5 -1 0 0 1 1.5
1 0 0 1 0 
2 37 -14.5 -1 0 0 1 1.5
1 0 0 1 0 
2 -37 14.5 -1 0 0 1 1.5
1 0 0 1 0 
2 -37 -14.5 -1 0 0 1 1.5
1 0 0 1 0 
1 0 0 0 -1 
1 6.2831853071795862 0 0 -1 
1 0 -1 1 0 
2 3.5527136788005009e-15 0 1 0 -0 1 1.5
1 0 0 0 -1 
1 6.2831853071795862 0 0 -1 
1 0 -1 1 0 
2 -3.5527136788005009e-15 -3.1843650310142671e-76 0 -1 1 0 1.5
1 0 0 0 -1 
1 6.2831853071795862 0 0 -1 
1 0 -1 1 0 
2 0 0 1 0 -0 1 1.5
1 0 0 0 -1 
1 6.2831853071795862 0 0 -1 
1 0 -1 1 0 
2 0 0 1 0 -0 1 1.5
1 0 0 0 -1 
1 6.2831853071795862 0 0 -1 
1 0 -1 1 0 
2 -1.4210854715202004e-14 0 1 0 -0 1 1.5
1 0 0 0 -1 
1 6.2831853071795862 0 0 -1 
1 0 -1 1 0 
2 1.4210854715202004e-14 0 1 0 -0 1 1.5
Curves 30
1 0 35 0 0 0 1 
1 80 35 0 0 0 1 
1 0 35 0 1 0 0 
1 0 35 0 1 0 0 
1 0 0 0 0 0 1 
1 0 0 0 0 1 0 
1 0 0 0 0 1 0 
1 80 0 0 0 0 1 
1 80 35 0 0 -1 0 
1 80 35 0 0 -1 0 
1 80 0 0 -1 0 0 
1 80 0 0 -1 0 0 
2 22 3 0 0 0 1 1 0 -0 -0 1 0 1.5
2 22 31.999999999999996 0 0 0 1 1 0 -0 -0 1 0 1.5
2 3 32 0 0 0 1 1 0 -0 -0 1 0 1.5
2 3 3 0 0 0 1 1 0 -0 -0 1 0 1.5
2 77 32 0 0 0 1 1 0 -0 -0 1 0 1.5
2 77 3 0 0 0 1 1 0 -0 -0 1 0 1.5
1 23.5 3 3 -0 -0 -1 
2 22 3 0 0 0 1 1 0 -0 -0 1 0 1.5
1 23.5 31.999999999999996 3 -0 -0 -1 
2 22 31.999999999999996 0 0 0 1 1 0 -0 -0 1 0 1.5
1 4.5 32 3 -0 -0 -1 
2 3 32 0 0 0 1 1 0 -0 -0 1 0 1.5
1 4.5 3 3 -0 -0 -1 
2 3 3 0 0 0 1 1 0 -0 -0 1 0 1.5
1 78.5 32 3 -0 -0 -1 
2 77 32 0 0 0 1 1 0 -0 -0 1 0 1.5
1 78.5 3 3 -0 -0 -1 
2 77 3 0 0 0 1 1 0 -0 -0 1 0 1.5
Polygon3D 0
PolygonOnTriangulations 0
Surfaces 18
1 0 35 0 0 1 0 1 0 0 0 0 -1 
1 0 0 0 -1 0 0 0 1 0 0 0 -1 
1 80 35 0 1 0 -0 0 -1 0 0 -0 -1 
1 40 17.5 0 -0 -0 -1 -1 0 0 0 1 -0 
1 40 17.5 0 -0 -0 -1 -1 0 0 0 1 -0 
1 80 0 0 0 -1 0 -1 0 0 -0 -0 -1 
2 22 3 3 0 0 1 1 0 0 0 1 0 1.5
2 22 31.999999999999996 3 0 0 1 1 0 0 0 1 0 1.5
2 3 32 3 0 0 1 1 0 0 0 1 0 1.5
2 3 3 3 0 0 1 1 0 0 0 1 0 1.5
2 77 32 3 0 0 1 1 0 0 0 1 0 1.5
2 77 3 3 0 0 1 1 0 0 0 1 0 1.5
1 21.999999999999996 3 3 0 0 1 1 0 -0 -0 1 0 
1 22 32 2.9999999999999996 1.0225974697309501e-31 8.7651211691223293e-31 1 0 1 -8.7651211691223293e-31 -1 8.9631907294296822e-62 1.0225974697309501e-31 
1 3 32 3 0 0 1 1 0 -0 -0 1 0 
1 3 3 3 0 0 1 1 0 -0 -0 1 0 
1 77.000000000000014 32 3 0 0 1 1 0 -0 -0 1 0 
1 76.999999999999986 3 3 0 0 1 1 0 -0 -0 1 0 
Triangulations 0

TShapes 94
Ve
1e-07
0 35 0
0 0

0101101
*
Ve
1e-07
0 35 3
0 0

0101101
*
Ed
 1e-07 1 1 0
1  1 0 0 3
2  1 1 0 0 3
2  2 2 0 0 3
0

0101000
+94 5 -93 5 *
Ve
1e-07
80 35 0
0 0

0101101
*
Ve
1e-07
80 35 3
0 0

0101101
*
Ed
 1e-07 1 1 0
1  2 0 0 3
2  3 1 0 0 3
2  4 3 0 0 3
0

0101000
+91 5 -90 5 *
Ed
 1e-07 1 1 0
1  3 0 0 80
2  5 1 9 0 80
2  6 4 10 0 80
0

0101000
+94 11 -91 11 *
Ed
 1e-07 1 1 0
1  4 0 0 80
2  7 1 14 0 80
2  8 5 10 0 80
0

0101000
+93 15 -90 15 *
Wi

0101100
+92 0 -89 0 -88 8 +87 13 *
Fa
0  1e-07 1 0

0111000
+86 0 *
Ve
1e-07
0 0 0
0 0

0101101
*
Ve
1e-07
0 0 3
0 0

0101101
*
Ed
 1e-07 1 1 0
1  5 0 0 3
2  9 2 0 0 3
2  10 6 0 0 3
0

0101000
+84 5 -83 5 *
Ed
 1e-07 1 1 0
1  6 0 0 35
2  11 2 9 0 35
2  12 4 10 0 35
0

0101000
+84 11 -94 11 *
Ed
 1e-07 1 1 0
1  7 0 0 35
2  13 2 14 0 35
2  14 5 10 0 35
0

0101000
+83 15 -93 15 *
Wi

0101100
+82 0 -92 0 -81 8 +80 13 *
Fa
0  1e-07 2 0

0101000
+79 0 *
Ve
1e-07
80 0 0
0 0

0101101
*
Ve
1e-07
80 0 3
0 0

0101101
*
Ed
 1e-07 1 1 0
1  8 0 0 3
2  15 3 0 0 3
2  16 6 0 0 3
0

0101000
+77 5 -76 5 *
Ed
 1e-07 1 1 0
1  9 0 0 35
2  17 3 9 0 35
2  18 4 10 0 35
0

0101000
+91 11 -77 11 *
Ed
 1e-07 1 1 0
1  10 0 0 35
2  19 3 14 0 35
2  20 5 10 0 35
0

0101000
+90 15 -76 15 *
Wi

0101100
+89 0 -75 0 -74 8 +73 13 *
Fa
0  1e-07 3 0

0111000
+72 0 *
Ed
 1e-07 1 1 0
1  11 0 0 80
2  21 4 10 0 80
2  22 6 9 0 80
0

0101000
+77 11 -84 11 *
Wi

0101100
+88 0 +74 0 +70 0 +81 0 *
Fa
0  1e-07 4 0

0111000
+69 6 *
Ed
 1e-07 1 1 0
1  12 0 0 80
2  23 5 10 0 80
2  24 6 14 0 80
0

0101000
+76 15 -83 15 *
Wi

0101100
+87 18 +80 18 +73 18 +67 18 *
Ve
1e-07
23.5 3 3
0 0

0101101
*
Ed
 1e-07 1 1 0
1  13 0 0 6.28318530717959
2  25 5 21 0 6.28318530717959
2  26 7 22 0 6.28318530717959
0

0101000
+65 23 -65 23 *
Wi

0101100
+64 20 *
Ve
1e-07
23.5 32 3
0 0

0101101
*
Ed
 1e-07 1 1 0
1  14 0 0 6.28318530717959
2  27 5 21 0 6.28318530717959
2  28 8 22 0 6.28318530717959
0

0101000
+62 23 -62 23 *
Wi

0101100
+61 20 *
Ve
1e-07
4.5 32 3
0 0

0101101
*
Ed
 1e-07 1 1 0
1  15 0 0 6.28318530717959
2  29 5 21 0 6.28318530717959
2  30 9 22 0 6.28318530717959
0

0101000
+59 23 -59 23 *
Wi

0101100
+58 20 *
Ve
1e-07
4.5 3 3
0 0

0101101
*
Ed
 1e-07 1 1 0
1  16 0 0 6.28318530717959
2  31 5 21 0 6.28318530717959
2  32 10 22 0 6.28318530717959
0

0101000
+56 23 -56 23 *
Wi

0101100
+55 20 *
Ve
1e-07
78.5 32 3
0 0

0101101
*
Ed
 1e-07 1 1 0
1  17 0 0 6.28318530717959
2  33 5 21 0 6.28318530717959
2  34 11 22 0 6.28318530717959
0

0101000
+53 23 -53 23 *
Wi

0101100
+52 20 *
Ve
1e-07
78.5 3 3
0 0

0101101
*
Ed
 1e-07 1 1 0
1  18 0 0 6.28318530717959
2  35 5 21 0 6.28318530717959
2  36 12 22 0 6.28318530717959
0

0101000
+50 23 -50 23 *
Wi

0101100
+49 20 *
Fa
0  1e-07 5 17

0101000
+66 0 +63 0 +60 0 +57 0 +54 0 +51 0 +48 0 *
Wi

0101100
+75 0 -82 0 -70 8 +67 13 *
Fa
0  1e-07 6 0

0111000
+46 0 *
Ve
1e-07
23.5 3 2
0 0

0101101
*
Ed
 1e-07 1 1 0
1  19 0 0 1
3  37 38CN 7 0 0 1
0

0101000
+65 24 -44 24 *
Ed
 1e-07 1 1 0
1  20 0 0 6.28318530717959
2  39 7 27 0 6.28318530717959
2  40 13 28 0 6.28318530717959
0

0101000
+44 29 -44 29 *
Wi

0101100
-64 20 -43 0 +42 26 +43 0 *
Fa
0  1e-07 7 0

0101000
+41 0 *
Ve
1e-07
23.5 32 2
0 0

0101101
*
Ed
 1e-07 1 1 0
1  21 0 0 1
3  41 42CN 8 0 0 1
0

0101000
+62 24 -39 24 *
Ed
 1e-07 1 1 0
1  22 0 0 6.28318530717959
2  43 8 27 0 6.28318530717959
2  44 14 28 0 6.28318530717959
0

0101000
+39 29 -39 29 *
Wi

0101100
-61 20 -38 0 +37 26 +38 0 *
Fa
0  1e-07 8 0

0101000
+36 0 *
Ve
1e-07
4.5 32 2
0 0

0101101
*
Ed
 1e-07 1 1 0
1  23 0 0 1
3  45 46CN 9 0 0 1
0

0101000
+59 24 -34 24 *
Ed
 1e-07 1 1 0
1  24 0 0 6.28318530717959
2  47 9 27 0 6.28318530717959
2  48 15 28 0 6.28318530717959
0

0101000
+34 29 -34 29 *
Wi

0101100
-58 20 -33 0 +32 26 +33 0 *
Fa
0  1e-07 9 0

0101000
+31 0 *
Ve
1e-07
4.5 3 2
0 0

0101101
*
Ed
 1e-07 1 1 0
1  25 0 0 1
3  49 50CN 10 0 0 1
0

0101000
+56 24 -29 24 *
Ed
 1e-07 1 1 0
1  26 0 0 6.28318530717959
2  51 10 27 0 6.28318530717959
2  52 16 28 0 6.28318530717959
0

0101000
+29 29 -29 29 *
Wi

0101100
-55 20 -28 0 +27 26 +28 0 *
Fa
0  1e-07 10 0

0101000
+26 0 *
Ve
1e-07
78.5 32 2
0 0

0101101
*
Ed
 1e-07 1 1 0
1  27 0 0 1
3  53 54CN 11 0 0 1
0

0101000
+53 24 -24 24 *
Ed
 1e-07 1 1 0
1  28 0 0 6.28318530717959
2  55 11 27 0 6.28318530717959
2  56 17 28 0 6.28318530717959
0

0101000
+24 29 -24 29 *
Wi

0101100
-52 20 -23 0 +22 26 +23 0 *
Fa
0  1e-07 11 0

0101000
+21 0 *
Ve
1e-07
78.5 3 2
0 0

0101101
*
Ed
 1e-07 1 1 0
1  29 0 0 1
3  57 58CN 12 0 0 1
0

0101000
+50 24 -19 24 *
Ed
 1e-07 1 1 0
1  30 0 0 6.28318530717959
2  59 12 27 0 6.28318530717959
2  60 18 28 0 6.28318530717959
0

0101000
+19 29 -19 29 *
Wi

0101100
-49 20 -18 0 +17 26 +18 0 *
Fa
0  1e-07 12 0

0101000
+16 0 *
Wi

0101100
+42 0 *
Fa
0  1e-07 13 0

0101000
+14 19 *
Wi

0101100
+37 0 *
Fa
0  1e-07 14 0

0101000
+12 19 *
Wi

0101100
+32 0 *
Fa
0  1e-07 15 0

0101000
+10 19 *
Wi

0101100
+27 0 *
Fa
0  1e-07 16 0

0101000
+8 19 *
Wi

0101100
+22 0 *
Fa
0  1e-07 17 0

0101000
+6 19 *
Wi

0101100
+17 0 *
Fa
0  1e-07 18 0

0101000
+4 19 *
Sh

0101100
+85 4 +78 4 +71 4 +68 16 -47 0 +45 4 -40 0 -35 0 -30 0 -25 0 
-20 0 -15 0 +13 30 +11 30 +9 30 +7 30 +5 30 +3 30 *
So

1100000
+2 0 *

+1 1 