DBRep_DrawableShape

CASCADE Topology V1, (c) Matra-Datavision
Locations 25
1
              1               0               0               0 
              0               1               0               0 
              0               0               1               0 
1
              1               0               0               0 
              0               1               0               0 
              0               0               1               0 
1
              1               0               0               0 
              0               1               0               0 
              0               0               1               0 
2  2 1 3 -1 0
2  1 -1 3 1 2 -1 0
1
              1               0               0               0 
              0               1               0               0 
              0               0               1               0 
1
              1               0               0               0 
              0               1               0               0 
              0               0               1               0 
2  6 1 7 -1 0
2  7 1 6 -1 0
2  6 -1 0
2  1 -1 3 1 2 -1 7 1 6 -1 0
1
              1               0               0               0 
              0               1               0               0 
              0               0               1              10 
2  6 1 7 -1 12 1 0
2  12 -1 7 1 6 -1 0
2  1 -1 3 1 2 -1 12 -1 7 1 6 -1 0
2  6 1 7 -1 2 1 3 -1 0
2  6 1 7 -1 12 1 2 1 3 -1 0
2  1 -1 0
1
             -1               0               0              -0 
              0 2.22044604925031e-16               1             4.5 
              0               1 -2.22044604925031e-16               0 
2  19 1 3 -1 0
2  2 1 19 -1 0
2  3 1 19 -1 0
2  1 -1 3 1 19 -1 0
2  7 -1 2 1 3 -1 0
2  7 -1 12 1 2 1 3 -1 0
Curve2ds 36
1 0 0 0 -1 
1 0 0 0 -1 
1 4.5 0 0 -1 
1 0 0 0 -1 
1 0 0 1 0 
1 12.000000000000334 -2.2500000000000528 0 1 
1 0 -10 1 0 
1 12.000000000000334 -2.2500000000000528 0 1 
1 0 0 1 0 
1 12.000000000000334 -2.2500000000000528 -1 0 
1 0 -10 1 0 
1 12.000000000000334 -2.2500000000000528 -1 0 
1 24 0 0 -1 
1 4.5 0 0 -1 
2 20.500000000001343 -7.0000000000000009 -1 0 -0 -1 0.69999999999999996
1 0 -4.5000000000000018 1 0 
2 3.5 -7.0000000000000009 -1 0 -0 -1 0.69999999999999996
1 0 -4.5000000000000018 1 0 
1 0 0 1 0 
1 12.000000000000334 2.2499999999999472 -1 0 
1 0 -10 1 0 
1 12.000000000000334 2.2499999999999472 -1 0 
1 24.000000000001336 0 0 -1 
1 0 0 0 -1 
2 3.5 -7 -1 0 -0 -1 0.70000000000000018
1 0 0 1 0 
2 20.500000000001343 -7 -1 0 -0 -1 0.69999999999999929
1 0 0 1 0 
1 -12.000000000001002 2.2499999999999472 2.9684896516199742e-13 -1 
1 0 0 1 0 
1 -12.000000000001002 2.2499999999999472 2.9684896516199742e-13 -1 
1 0 -10 1 0 
1 0 0 0 -1 
1 6.2831853071795862 0 0 -1 
1 0 0 0 -1 
1 6.2831853071795862 0 0 -1 
Curves 18
1 0 0 0 0 0 1 
1 0 4.5 0 0 0 1 
1 0 0 0 0 1 0 
1 0 0 0 0 1 0 
1 0 0 0 1 0 0 
1 0 0 0 1 0 0 
1 24 0 0 0 0 1 
2 20.500000000001343 0 7.0000000000000009 0 1 -2.2204460492503131e-16 -1 0 0 0 2.2204460492503131e-16 1 0.69999999999999996
2 3.5 0 7.0000000000000009 0 1 -2.2204460492503131e-16 -1 0 0 0 2.2204460492503131e-16 1 0.69999999999999996
1 0 4.5 0 1 0 0 
1 0 4.5 0 1 0 0 
1 24.000000000001336 4.5 0 0 0 1 
2 -3.5 7 0 0 0 1 1 0 -0 -0 1 0 0.69999999999999996
2 -20.500000000001343 7 0 0 0 1 1 0 -0 -0 1 0 0.69999999999999996
1 24.000000000001336 4.5 0 -2.9684896516199742e-13 -1 0 
1 24.000000000001336 4.5 0 -2.9684896516199742e-13 -1 0 
1 19.800000000001344 4.5000000000000018 7 0 -1 2.2204460492503131e-16 
1 2.7999999999999998 4.5000000000000018 7 0 -1 2.2204460492503131e-16 
Polygon3D 0
PolygonOnTriangulations 0
Surfaces 8
1 0 0 0 -1 0 0 0 1 0 0 0 -1 
1 0 0 0 0 1 0 1 0 0 0 0 -1 
1 0 4.5 0 0 1 0 1 0 0 0 0 -1 
1 12.000000000000334 2.2500000000000528 0 -0 -0 -1 -1 0 0 0 1 -0 
1 12.000000000000334 2.2500000000000528 0 -0 -0 -1 -1 0 0 0 1 -0 
1 24.000000000001336 4.5 0 1 -2.9684896516199742e-13 0 -2.9684896516199742e-13 -1 0 0 -0 -1 
2 20.500000000001343 4.5000000000000018 7 0 1 -2.2204460492503131e-16 -1 0 0 0 2.2204460492503131e-16 1 0.69999999999999996
2 3.5 4.5000000000000018 7 0 1 -2.2204460492503131e-16 -1 0 0 0 2.2204460492503131e-16 1 0.69999999999999996
Triangulations 0

TShapes 52
Ve
1e-07
0 0 0
0 0

0101101
*
Ve
1e-07
0 0 10
0 0

0101101
*
Ed
 1e-07 1 1 0
1  1 0 0 10
2  1 1 0 0 10
2  2 2 0 0 10
0

0101000
+52 5 -51 5 *
Ve
1e-07
0 4.5 0
0 0

0101101
*
Ve
1e-07
0 4.5 10
0 0

0101101
*
Ed
 1e-07 1 1 0
1  2 0 0 10
2  3 1 0 0 10
2  4 3 0 0 10
0

0101000
+49 5 -48 5 *
Ed
 1e-07 1 1 0
1  3 0 0 4.5
2  5 1 9 0 4.5
2  6 4 10 0 4.5
0

0101000
+52 11 -49 11 *
Ed
 1e-07 1 1 0
1  4 0 0 4.5
2  7 1 14 0 4.5
2  8 5 10 0 4.5
0

0101000
+51 15 -48 15 *
Wi

0101100
+50 0 -47 0 -46 8 +45 13 *
Fa
0  1e-07 1 0

0111000
+44 0 *
Ve
1e-07
24 0 0
0 0

0101101
*
Ed
 1e-07 1 1 0
1  5 0 0 24
2  9 2 9 0 24
2  10 4 10 0 24
0

0101000
+52 11 -42 11 *
Ve
1e-07
24 0 10
0 0

0101101
*
Ed
 1e-07 1 1 0
1  6 0 0 24
2  11 2 14 0 24
2  12 5 10 0 24
0

0101000
+51 15 -40 15 *
Ed
 1e-07 1 1 0
1  7 0 0 10
2  13 2 0 0 10
2  14 6 0 0 10
0

0101000
+42 5 -40 5 *
Wi

0101100
+50 4 -41 16 +39 17 -38 4 *
Ve
2.00001e-07
19.8000000000013 0 7
0 0

0101101
*
Ed
 1e-07 1 1 0
1  8 0 0 6.28318530717959
2  15 2 4 0 6.28318530717959
2  16 7 0 0 6.28318530717959
0

0101000
+36 18 -36 18 *
Wi

0101100
-35 0 *
Ve
2.00001e-07
2.8 0 7
0 0

0101101
*
Ed
 1e-07 1 1 0
1  9 0 0 6.28318530717959
2  17 2 4 0 6.28318530717959
2  18 8 0 0 6.28318530717959
0

0101000
+33 18 -33 18 *
Wi

0101100
-32 0 *
Fa
0  1e-07 2 4

0111000
+37 0 +34 0 +31 0 *
Ve
1e-07
24.0000000000013 4.5 0
0 0

0101101
*
Ed
 1e-07 1 1 0
1  10 0 0 24.0000000000013
2  19 3 9 0 24.0000000000013
2  20 4 10 0 24.0000000000013
0

0101000
+49 11 -29 11 *
Ve
1e-07
24.0000000000013 4.5 10
0 0

0101101
*
Ed
 1e-07 1 1 0
1  11 0 0 24.0000000000013
2  21 3 14 0 24.0000000000013
2  22 5 10 0 24.0000000000013
0

0101000
+48 15 -27 15 *
Ed
 1e-07 1 1 0
1  12 0 0 10
2  23 3 0 0 10
2  24 6 0 0 10
0

0101000
+29 5 -27 5 *
Wi

0101100
+47 4 -28 16 +26 17 -25 4 *
Ve
1e-07
2.8 4.5 7
0 0

0101101
*
Ed
 1e-07 1 1 0
1  13 0 0 6.28318530717959
2  25 3 21 0 6.28318530717959
2  26 8 22 0 6.28318530717959
0

0101000
+23 23 -23 23 *
Wi

0101100
-22 20 *
Ve
1e-07
19.8000000000013 4.5 7
0 0

0101101
*
Ed
 1e-07 1 1 0
1  14 0 0 6.28318530717959
2  27 3 21 0 6.28318530717959
2  28 7 22 0 6.28318530717959
0

0101000
+20 23 -20 23 *
Wi

0101100
-19 20 *
Fa
0  1e-07 3 4

0111000
+24 0 +21 0 +18 0 *
Ed
 1e-07 1 1 0
1  15 0 0 4.5
2  29 4 10 0 4.5
2  30 6 9 0 4.5
0

0101000
+29 11 -42 11 *
Wi

0101100
+46 0 +28 0 +16 0 -41 0 *
Fa
0  1e-07 4 0

0111000
+15 6 *
Ed
 1e-07 1 1 0
1  16 0 0 4.5
2  31 5 10 0 4.5
2  32 6 14 0 4.5
0

0101000
+27 15 -40 15 *
Wi

0101100
+45 0 +26 0 +13 0 -39 0 *
Fa
0  1e-07 5 0

0111000
+12 6 *
Wi

0101100
+25 0 -38 0 -16 8 +13 13 *
Fa
0  1e-07 6 0

0111000
+10 0 *
Ed
 1e-07 1 1 0
1  17 0 0 4.5
3  33 34CN 7 0 0 4.5
0

0101000
+20 18 -36 18 *
Wi

0101100
-19 20 -8 0 +35 0 +8 0 *
Fa
0  1e-07 7 0

0101000
+7 0 *
Ed
 1e-07 1 1 0
1  18 0 0 4.5
3  35 36CN 8 0 0 4.5
0

0101000
+23 18 -33 18 *
Wi

0101100
-22 20 -5 0 +32 0 +5 0 *
Fa
0  1e-07 8 0

0101000
+4 0 *
Sh

0101100
+43 4 -30 0 +17 0 +14 24 -11 25 +9 4 -6 0 -3 0 *
So

1100000
+2 0 *

+1 1 